<svg xmlns="http://www.w3.org/2000/svg" viewBox="0 0 87.65 118.87"><defs><style>.cls-1,.cls-2{fill:none;stroke-miterlimit:10;}.cls-1{stroke:#e9ba66;}.cls-2{stroke:#647384;stroke-width:1.5px;}</style></defs><title>comma_triangle</title><g id="圖層_15" data-name="圖層 15"><polygon class="cls-1" points="86.74 72.17 34.61 72.17 68.8 0.5 86.9 0.5 86.74 72.17"/><path class="cls-2" d="M5.39,117.9l-2.07-2.58Q18,105.26,18,93.4c0-.34-.26-.52-.77-.52a11.1,11.1,0,0,0-1.81.26,21.43,21.43,0,0,1-3.87.52Q.75,93.65.75,81.27q0-13.67,13.41-13.67,15.73,0,15.73,16Q29.9,104,5.39,117.9Zm57.52,0-2.32-2.58q15-9.54,15-21.92c0-.34-.26-.52-.77-.52a11.12,11.12,0,0,0-1.8.26,21.91,21.91,0,0,1-4.13.52q-11.09,0-11.09-12.9,0-13.15,13.67-13.15,15.47,0,15.48,15.73Q86.9,104,62.91,117.9Z"/></g></svg>