<svg xmlns="http://www.w3.org/2000/svg" viewBox="0 0 37.14 36.01"><defs><style>.cls-1{fill:#ad8066;}.cls-2{fill:none;stroke:#ad8066;stroke-miterlimit:10;stroke-width:0.3px;}</style></defs><title>icon_pen</title><g id="圖層_15" data-name="圖層 15"><path class="cls-1" d="M8.1,25.72,4.33,24,15.11.1A3.52,3.52,0,0,1,17.3.28a3.52,3.52,0,0,1,1.58,1.52Z"/><rect class="cls-1" x="2.99" y="24.89" width="4.13" height="5.11" transform="translate(11.72 0.34) rotate(24.25)"/><polygon class="cls-1" points="2 29.19 5.77 30.89 5.11 32.35 3.85 32.83 1.8 31.9 1.37 30.59 2 29.19"/><rect class="cls-2" x="1.66" y="32.39" width="1.54" height="1.96" transform="translate(-28.99 21.88) rotate(-65.76)"/><polygon class="cls-2" points="1.22 33.67 0.27 35.78 2.72 35.1 3 34.47 1.22 33.67"/><line class="cls-2" x1="0.95" y1="35.54" x2="1.32" y2="34.71"/><line class="cls-2" x1="1.43" y1="35.51" x2="1.71" y2="34.89"/><path class="cls-1" d="M.27,35.78,6,35.64l5.91-.08,6.77,0,6.77,0,5.91.08,5.76.14-5.76.14L25.47,36,18.7,36l-6.77,0L6,35.92Z"/></g></svg>