<svg id="圖層_1" data-name="圖層 1" xmlns="http://www.w3.org/2000/svg" viewBox="0 0 100 35"><defs><style>.cls-1{fill:#f5f5f5;stroke:#fff;}.cls-1,.cls-3,.cls-5,.cls-8{stroke-miterlimit:10;}.cls-2{fill:#3d3d3d;}.cls-3,.cls-5,.cls-8{fill:none;stroke:#647384;}.cls-3{stroke-width:0.5px;}.cls-4{fill:#647384;}.cls-5{stroke-width:0.3px;}.cls-6{fill:#ad8066;}.cls-7{opacity:0.5;}.cls-8{stroke-width:0.2px;}</style></defs><title>lesson_cont_4</title><rect class="cls-1" x="-26.5" y="-70.5" width="375" height="177"/><path class="cls-2" d="M28.76,16.88a.58.58,0,0,1,0,.13l1.06-.13c.07,0,.11,0,.13-.06s0-.06.05-.06l.07.06a.12.12,0,0,1,0,.06.11.11,0,0,1,0,.06.12.12,0,0,0,0,.08l-.11.72h0l.06,0,0,0s0,0-.09,0l-.58.06v.34l.3,0,.16,0H30l.07,0s0,0,0,.06h0l-.64,0v.35l.62-.09h0s0,0,0,0l-1,.21-.39.08h-.08l-.09,0-.06-.06,0,0,.59-.07.29,0v-.35h0l-.48,0h-.05a.1.1,0,0,1-.07,0s0,0,0,0a0,0,0,0,1,0,0l.43,0,.2,0v-.34l-.51,0V18c0,.1,0,.15,0,.15s0,0-.05-.07a.3.3,0,0,1,0-.14.26.26,0,0,1,0-.07,1.91,1.91,0,0,0,0-.37c0-.24,0-.43,0-.56v-.12s0,0,0,0S28.73,16.81,28.76,16.88Zm0,2.19a2.1,2.1,0,0,1,0,.36,2.48,2.48,0,0,1-.1.28c0,.08-.07.13-.09.13l0,0a1.08,1.08,0,0,1,0-.18.14.14,0,0,1,0-.08l.09-.14a1,1,0,0,0,.1-.34s0,0,0,0S28.76,19.06,28.76,19.08Zm.57-1.25V17l-.52.06v.76ZM29,17.26a1.84,1.84,0,0,1,.17.23.23.23,0,0,1,0,.08.27.27,0,0,1,0,.08s0,.06,0,.06,0,0,0,0a3.16,3.16,0,0,0-.13-.37.12.12,0,0,1,0-.05h0Zm.1,1.81a2.61,2.61,0,0,1,.13.42.27.27,0,0,1,0,.11s-.06.07-.07.07,0,0,0,0c0-.19,0-.34,0-.45A1,1,0,0,1,29,19a0,0,0,0,1,0,0Zm.36-.07a2.2,2.2,0,0,1,.21.42.19.19,0,0,1,0,.08s0,.05,0,.05,0,0,0,0a3.78,3.78,0,0,0-.1-.42.74.74,0,0,1,0-.15,0,0,0,0,1,0,0Zm0-1.19a2.7,2.7,0,0,0,.45-.07L30,17l-.55.07Zm.3-.62a.27.27,0,0,1,0,.11v0l-.15.33,0,0s0,0,0,0v0l.06-.28c0-.1,0-.18,0-.23a0,0,0,0,1,0,0S29.69,17.15,29.72,17.2Zm0,1.69a1.73,1.73,0,0,1,.21.29.19.19,0,0,1,0,.19s0,.07,0,.07,0,0,0,0a2.82,2.82,0,0,0-.18-.46.2.2,0,0,1,0-.06v0Zm1-2.26c.06.05.09.09.09.11a.73.73,0,0,1,0,.12,3.39,3.39,0,0,0,0,.44v.44a2.72,2.72,0,0,0,.62-.11h.06l.07,0,0,0s0,0-.06,0l-.73.1v.75l.33,0c.07,0,.11,0,.13-.06s0-.06.06-.06,0,0,.08.06,0,0,0,.06a.11.11,0,0,1,0,.06.14.14,0,0,0,0,.09l-.1.8h.05l.07,0,0,0s0,0-.08,0l-1,.08v.18c0,.09,0,.14,0,.15s0,0-.06-.08a.29.29,0,0,1,0-.13.42.42,0,0,1,0-.09,3.06,3.06,0,0,0,0-.48c0-.29,0-.52,0-.67s0-.13,0-.14,0,0,0,0,0,0,.06.1a1.22,1.22,0,0,1,0,.18l.31,0V17a1.69,1.69,0,0,0,0-.3.94.94,0,0,1,0-.13,0,0,0,0,1,0,0Zm.42,2.86.08-.88-.87.11s0,.1,0,.14v.7A7.47,7.47,0,0,0,31.12,19.49Z"/><path class="cls-2" d="M32.66,17s0,0,0,.06a.2.2,0,0,1,0,.08.19.19,0,0,0,0,.06v.53l.6-.09V17a1.9,1.9,0,0,0,0-.31.44.44,0,0,1,0-.11,0,0,0,0,1,0,0l.1.07s.08.08.08.1a.27.27,0,0,1,0,.08.39.39,0,0,0,0,.16v2.6c0,.09,0,.18,0,.27s0,.12,0,.12,0,0-.08-.1a.18.18,0,0,1,0-.09.13.13,0,0,1,0-.06.51.51,0,0,0,0-.11,2.36,2.36,0,0,0,0-.28V18.4l-.41.06c0,.15,0,.29-.05.44a1.77,1.77,0,0,1-.11.35,1,1,0,0,1-.13.23,1.09,1.09,0,0,1-.23.22l-.12.08a0,0,0,0,1,0,0v0a1.81,1.81,0,0,0,.24-.25,1.49,1.49,0,0,0,.15-.27,2.5,2.5,0,0,0,.1-.37c0-.12,0-.25,0-.39l-.17,0-.23,0a.14.14,0,0,1-.08,0l0,0v0l1-.14v-.57l-.22,0-.37.08a.11.11,0,0,0,0,0v0s0,0-.07,0-.05,0-.05,0a.05.05,0,0,1,0,0l0,0a.11.11,0,0,0,0-.07v-.4a1,1,0,0,0,0-.19l0-.12a0,0,0,0,1,0,0Zm2.42.67a.11.11,0,0,1,0,.07,0,0,0,0,1,0,0l-.87.1h0a11,11,0,0,0,.72,1.53.85.85,0,0,0,.42.24s0,0,0,0,0,0-.07,0l-.26,0-.16,0a.07.07,0,0,1-.07-.06L34.2,18a.42.42,0,0,0,0,.1,5.87,5.87,0,0,1-.13.67,2.8,2.8,0,0,1-.21.54,2.14,2.14,0,0,1-.25.39.88.88,0,0,1-.18.18,0,0,0,0,1,0,0,.05.05,0,0,1,0,0,3.16,3.16,0,0,0,.27-.38,2.46,2.46,0,0,0,.19-.42,3.57,3.57,0,0,0,.16-.63c0-.15,0-.32.07-.51l-.44.07h-.06l-.07,0s-.05,0-.05-.05a0,0,0,0,1,0,0l.52,0,.1,0c0-.07,0-.15,0-.22q0-.4,0-.65s0-.12,0-.26a.42.42,0,0,1,0-.11s0,0,0,0,0,0,.11.1a.35.35,0,0,1,.07.11.24.24,0,0,1,0,.07,1.14,1.14,0,0,0-.07.36c0,.23,0,.44,0,.61h.13l.37-.05.2,0,.09,0A.14.14,0,0,1,35.08,17.7ZM34.59,17l.3.21a.17.17,0,0,1,.05.09.46.46,0,0,1,0,.13s0,0,0,0,0,0,0,0l-.24-.34a.32.32,0,0,1-.07-.1,0,0,0,0,1,0,0Z"/><path class="cls-2" d="M38.95,17.47l.08.07s0,0,0,0l-1.09.08c0,.16,0,.32.05.47a2.75,2.75,0,0,0,.33,1,1.87,1.87,0,0,0,.42.43.58.58,0,0,0,.29.13s0,0,0,0,0-.3,0-.77c0,0,0,0,0-.05s0,0,0,.05a7.16,7.16,0,0,0,.12.91.26.26,0,0,1,0,.11s0,0,0,0a.71.71,0,0,1-.24-.08,1.5,1.5,0,0,1-.36-.23,1.58,1.58,0,0,1-.33-.37,1.94,1.94,0,0,1-.29-.67,7.26,7.26,0,0,1-.16-.92l-.41,0c-.57.06-.88.09-.92.11h-.09a.2.2,0,0,1-.11,0s0,0,0-.05,0,0,0,0c.19,0,.62,0,1.27-.07l.26,0c0-.18,0-.37-.06-.58a2.33,2.33,0,0,0-.06-.4.8.8,0,0,1,0-.11s0,0,0,0a.42.42,0,0,1,.11.09l.1.11a.22.22,0,0,1,0,.07,1.44,1.44,0,0,0,0,.17c0,.23,0,.45,0,.66a5,5,0,0,0,.87-.15l.08,0Zm-1.4.79s0,0,0,.07a0,0,0,0,1,0,0l-.51.05,0,0s.07.07.07.09a.12.12,0,0,1,0,.05.24.24,0,0,0,0,.1v.57l.57-.2h0l0,0s0,0,0,0l-.87.37-.34.15-.07,0a.15.15,0,0,1-.08,0l-.05-.06a0,0,0,0,1,0,0,4.91,4.91,0,0,0,.52-.15l.2-.07v-.6a.53.53,0,0,0,0-.17.26.26,0,0,1,0-.08l-.36,0h0l-.07,0s0,0,0-.05a0,0,0,0,1,0,0l.34,0,.22,0,.24,0,.13,0h.06A.12.12,0,0,1,37.54,18.26Zm.7-1.53a3.56,3.56,0,0,1,.36.24.17.17,0,0,1,.06.11.38.38,0,0,1,0,.11s0,0,0,0,0,0-.05,0l-.31-.36c-.06-.06-.09-.1-.09-.11a0,0,0,0,1,0,0Z"/><path class="cls-2" d="M42.19,16.73l.06.07a.09.09,0,0,1,0,.07s-.07,0-.08.07l-.32.89.5,0a.15.15,0,0,0,.11-.07c0-.05.06-.08.07-.08l.09.06s.06.06.06.08,0,0,0,.07a1.4,1.4,0,0,0-.19.31,4,4,0,0,1-.36.61,1.92,1.92,0,0,1-.19.23,4,4,0,0,0,.41.38,1.55,1.55,0,0,0,.41.26,2.48,2.48,0,0,0,.49.1l0,0h0l-.61.06h-.14l-.64-.76-.13.12a3.52,3.52,0,0,1-.62.45,4.33,4.33,0,0,1-.57.28l-.08,0s0,0,0,0l.07,0,.53-.3a3.18,3.18,0,0,0,.57-.42L41.7,19l-.6-.7a.71.71,0,0,0-.13-.15s0,0,0,0,0,0,.07,0h.08l0,0a3.19,3.19,0,0,0,.44.6l.21.24a2.77,2.77,0,0,0,.23-.28,3.85,3.85,0,0,0,.39-.75L41.27,18h-.11l-.09,0s-.07,0-.07,0,0,0,0,0l.7,0,.36-1-1,.07,0,.06a.41.41,0,0,1,.06.13.12.12,0,0,1,0,.06,1.67,1.67,0,0,0-.12.47,6.37,6.37,0,0,1-.25,1,3.39,3.39,0,0,1-.37.75,2.7,2.7,0,0,1-.45.5l-.08,0a0,0,0,0,1,0,0s0,0,0,0a3.06,3.06,0,0,0,.48-.63,3.23,3.23,0,0,0,.29-.6,5.27,5.27,0,0,0,.2-.81,9.12,9.12,0,0,0,.11-.95l-.49,0h-.2l-.07,0,0,0h0L42,16.79a.13.13,0,0,0,.1-.06s0-.07.05-.07Z"/><path class="cls-2" d="M44.17,17s0,0,0,.06a.16.16,0,0,1,0,.08.19.19,0,0,0,0,.06v.63l.57-.06v-.75a1.5,1.5,0,0,0,0-.33.35.35,0,0,1,0-.11,0,0,0,0,1,0,0s0,0,.11.07.08.09.08.11a.33.33,0,0,1,0,.09.49.49,0,0,0,0,.18v2.52c0,.1,0,.2,0,.3s0,.14,0,.14,0,0-.08-.11a.2.2,0,0,1,0-.1.12.12,0,0,1,0-.07.4.4,0,0,0,0-.12,2.41,2.41,0,0,0,0-.31v-.83l-.47.1a3.19,3.19,0,0,1-.09.5,1.68,1.68,0,0,1-.15.38,2.31,2.31,0,0,1-.27.37l0,0h0l0,0a2.52,2.52,0,0,0,.29-.5,2.75,2.75,0,0,0,.11-.4,2.12,2.12,0,0,0,0-.33h0l-.26.07,0,0a.2.2,0,0,1-.1,0s-.07-.05-.07-.07l0,0,.35,0,.68-.09v-.52l-.2,0-.36.07,0,0h0a.12.12,0,0,1-.07,0S44,18,44,18a0,0,0,0,1,0,0l0,0a.11.11,0,0,0,0-.07v-.5a1,1,0,0,0,0-.19A.7.7,0,0,0,44,17s0,0,0,0Zm1.71-.41a.29.29,0,0,1,.07.11.16.16,0,0,1,0,.08,1,1,0,0,0-.08.24l-.21,1h.19l.33,0c0-.06,0-.13,0-.19s0,0,0,0,0,0,.07.07a.33.33,0,0,1,.06.11.12.12,0,0,1,0,0,2.09,2.09,0,0,0,.37-.07l.05,0,.1,0,.07.06s0,0,0,0l-.6,0a2,2,0,0,0-.06.3,3.19,3.19,0,0,1-.24.72l-.05.1.42.21a1.65,1.65,0,0,1,.34.23s0,.11,0,.27,0,0,0,0a.07.07,0,0,1-.06,0,5.78,5.78,0,0,0-.54-.46l-.26-.17a1.61,1.61,0,0,1-.3.34,3.59,3.59,0,0,1-.36.26A.88.88,0,0,1,45,20a0,0,0,0,1,0,0s0,0,.07-.07a3.07,3.07,0,0,0,.69-.59l.05-.07a3.79,3.79,0,0,0-.43-.19.06.06,0,0,1,0-.06.34.34,0,0,1,0-.11c.05-.19.11-.44.18-.74l-.42,0H45a.19.19,0,0,1-.11,0s0,0,0,0,0,0,0,0l.61,0c.05-.24.11-.53.18-.85a4.21,4.21,0,0,0,0-.59s0,0,0,0Zm-.13,1.45h-.13c-.07.34-.13.57-.17.71a.48.48,0,0,0,0,.12,0,0,0,0,0,0,0l.39.15a1.74,1.74,0,0,0,.17-.4,2.92,2.92,0,0,0,.13-.67Z"/><path class="cls-2" d="M50.33,17s0,0,0,0,0,0,0,0l-.9.1a7.42,7.42,0,0,0,.08.75l.07.32.06-.07a1.94,1.94,0,0,0,.23-.36,1.11,1.11,0,0,0,.11-.36s0,0,0,0l.05.07a.23.23,0,0,1,0,.09l0,0-.07.12a2.46,2.46,0,0,1-.19.32,1.53,1.53,0,0,1-.23.27c0,.19.08.34.12.47a2.33,2.33,0,0,0,.33.66c.11.15.19.23.25.23a.05.05,0,0,0,.06-.06l.08-.63a0,0,0,0,1,0,0l0,0c0,.4,0,.65,0,.78s0,.15,0,.2a0,0,0,0,1,0,0,.25.25,0,0,1-.12-.05,1.58,1.58,0,0,1-.28-.26,2.51,2.51,0,0,1-.32-.5,3.8,3.8,0,0,1-.25-.79,2.82,2.82,0,0,1-.36.25l-.05,0s0,0,0,0l0,0,.26-.2.14-.13a.4.4,0,0,1,0-.08,7.28,7.28,0,0,1-.15-1.06l-1.14.12a.52.52,0,0,1,0,.13c0,.07,0,.13,0,.2l.27,0,.18,0,.2,0,.11,0h0l.07,0s0,0,0,.06a0,0,0,0,1,0,0l-.49,0-.31,0h0a.09.09,0,0,1-.06,0h0c0,.16,0,.32,0,.5a4.21,4.21,0,0,1-.12.68,3,3,0,0,1-.23.58,4,4,0,0,1-.3.44l0,0a0,0,0,0,1,0,0l0,0,.23-.39a2.64,2.64,0,0,0,.18-.44,3.69,3.69,0,0,0,.14-.64,6.29,6.29,0,0,0,.05-.9s0-.11,0-.2,0-.1,0-.13a0,0,0,0,1,0,0,.41.41,0,0,1,.07.1l1.16-.12c0-.09,0-.19,0-.28a1.11,1.11,0,0,0,0-.26l0-.1s0,0,0,0l.13.07c.05,0,.08.08.08.11a.17.17,0,0,1,0,.06.25.25,0,0,0,0,.09c0,.11,0,.22,0,.33h.07a4.1,4.1,0,0,0,.58-.09l.13,0Zm-2,1.94a1.71,1.71,0,0,1-.07.56c0,.07-.05.11-.08.11s0,0-.05-.05a.24.24,0,0,1,0-.07.09.09,0,0,1,0-.06,1.16,1.16,0,0,0,.17-.57s0,0,0,0S48.34,18.92,48.34,19Zm.09-1a.35.35,0,0,1,0,.11l.38-.07a.14.14,0,0,0,.11-.05s0,0,.05,0l.06,0,0,.05a.11.11,0,0,1,0,0,.12.12,0,0,0,0,.07l-.05.3h0l.05,0,0,0s0,0,0,0l-.57.07s0,.08,0,.12,0,.06,0,.06,0,0-.07-.07a.13.13,0,0,1,0-.08.34.34,0,0,1,0-.07s0-.13,0-.26,0-.11,0-.15,0-.11,0-.15,0-.06,0-.06S48.41,17.93,48.43,18Zm.5.49,0-.37-.49.06a.77.77,0,0,0,0,.09c0,.1,0,.19,0,.28Zm-.37.44a2.09,2.09,0,0,0,.19.44.78.78,0,0,0,.22.25.46.46,0,0,0,.28.1s0,0,0,0a.39.39,0,0,0,0-.11,1.4,1.4,0,0,1-.06-.23.15.15,0,0,1,0-.05,0,0,0,0,1,0,0h0a3,3,0,0,0,.24.44.11.11,0,0,1,0,.05,0,0,0,0,1,0,0l-.15,0a.49.49,0,0,1-.24-.07.6.6,0,0,1-.2-.15.85.85,0,0,1-.17-.26,2.36,2.36,0,0,1-.11-.3.73.73,0,0,1,0-.16,0,0,0,0,1,0,0Zm.26-.07L49,19a.17.17,0,0,1,0,.09.34.34,0,0,1,0,.1s0,0,0,0l0,0-.15-.31a.32.32,0,0,1,0-.09h0Zm.47,0,.21.22a.22.22,0,0,1,0,.1.31.31,0,0,1,0,.1s0,0,0,0,0,0,0,0l-.17-.32a.4.4,0,0,1-.05-.1,0,0,0,0,1,0,0Zm.41-2.23.25.2a.13.13,0,0,1,0,.08A.36.36,0,0,1,50,17s0,0,0,0l0,0-.2-.3a.34.34,0,0,1-.06-.09,0,0,0,0,1,0,0Z"/><path class="cls-2" d="M54.24,17.47l.08.07s0,0,0,0l-1.09.08c0,.16,0,.32.05.47a2.75,2.75,0,0,0,.33,1,1.88,1.88,0,0,0,.42.43.58.58,0,0,0,.29.13s0,0,0,0,0-.3,0-.77c0,0,0,0,0-.05s0,0,0,.05a7.17,7.17,0,0,0,.12.91.25.25,0,0,1,0,.11s0,0,0,0a.71.71,0,0,1-.24-.08,1.5,1.5,0,0,1-.36-.23,1.58,1.58,0,0,1-.33-.37,1.94,1.94,0,0,1-.29-.67,7.27,7.27,0,0,1-.16-.92l-.41,0c-.57.06-.88.09-.92.11h-.09a.2.2,0,0,1-.11,0s0,0,0-.05,0,0,0,0c.19,0,.62,0,1.27-.07l.26,0c0-.18,0-.37-.06-.58a2.32,2.32,0,0,0-.06-.4.81.81,0,0,1,0-.11s0,0,0,0a.42.42,0,0,1,.11.09l.1.11a.22.22,0,0,1,0,.07,1.43,1.43,0,0,0,0,.17c0,.23,0,.45,0,.66a5,5,0,0,0,.87-.15l.08,0Zm-1.4.79s0,0,0,.07a0,0,0,0,1,0,0l-.51.05,0,0s.07.07.07.09a.12.12,0,0,1,0,.05.23.23,0,0,0,0,.1v.57L53,19h0l0,0s0,0,0,0l-.87.37-.34.15-.07,0a.15.15,0,0,1-.08,0l-.05-.06a0,0,0,0,1,0,0,4.9,4.9,0,0,0,.52-.15l.2-.07v-.6a.53.53,0,0,0,0-.17.26.26,0,0,1,0-.08l-.36,0h0l-.07,0s-.05,0-.05-.05a0,0,0,0,1,0,0l.34,0,.22,0,.24,0,.13,0h.06A.12.12,0,0,1,52.83,18.26Zm.7-1.53a3.48,3.48,0,0,1,.36.24.17.17,0,0,1,.07.11.39.39,0,0,1,0,.11s0,0,0,0,0,0-.05,0l-.31-.36c-.06-.06-.09-.1-.09-.11a0,0,0,0,1,0,0Z"/><path class="cls-2" d="M55.44,16.94a.71.71,0,0,1,0,.18L56,17a.07.07,0,0,0,.06,0l0-.05.08,0s.06,0,.06.06,0,0,0,.07a.23.23,0,0,0,0,.11c0,.37,0,.71,0,1s0,.6,0,.8,0,.2,0,.2,0,0-.06-.07a.2.2,0,0,1,0-.1A.52.52,0,0,1,56,19c0-.1,0-.23,0-.4,0-.69,0-1.17,0-1.44l-.6.08v.49a1.27,1.27,0,0,0,.34-.07h0l.05,0,0,0s0,0,0,0l-.43.07v.48a1.2,1.2,0,0,0,.34-.07h0l.05,0,0,0s0,0,0,0l-.43.07c0,.25,0,.45,0,.6a1.53,1.53,0,0,0,.38-.07h0l.06,0,0,0s0,0,0,0l-.49.07c0,.1,0,.18,0,.23a.48.48,0,0,1,0,.14s0,.06,0,.06,0,0-.07-.1a.33.33,0,0,1,0-.15.31.31,0,0,1,0-.1.64.64,0,0,0,0-.21c0-.31,0-.86,0-1.66a2.65,2.65,0,0,0,0-.27c0-.07,0-.12,0-.13s0,0,0,0S55.4,16.86,55.44,16.94Zm2.31-.12a.12.12,0,0,1,0,.06.11.11,0,0,1,0,.06.12.12,0,0,0,0,.08l-.1,1h0l.05,0,0,0s0,0-.07,0L57,18.2l.34.5.06.08,0,0,.33-.31a.58.58,0,0,0,.18-.26,0,0,0,0,1,0,0s0,0,.06.1a.48.48,0,0,1,0,.11s0,0,0,0l-.16.1-.42.3a4.85,4.85,0,0,0,.51.61,1.28,1.28,0,0,0,.53.22h0s0,0,0,0l-.29.07-.15,0s-.05,0-.07-.06l-.56-.83-.45-.67-.19,0v1.4l.51-.45,0,0v0l0,.06c-.29.33-.46.53-.51.61s0,.08-.06.08l-.1,0-.07-.06a.23.23,0,0,1,0-.09,1.16,1.16,0,0,0,.05-.13,1.26,1.26,0,0,0,0-.45V17s0-.1,0-.16,0-.13,0-.14,0,0,0,0,0,0,.07.11a.77.77,0,0,1,0,.16l.78-.11c.07,0,.11,0,.12-.06s0-.06.06-.06S57.71,16.79,57.74,16.82Zm-1,.73a1.93,1.93,0,0,0,.5-.09h0l.05,0,0,0s0,0,0,0l-.59.08v.51a4.92,4.92,0,0,0,.81-.12L57.61,17l-.89.12Z"/><path class="cls-2" d="M59.33,19a1.49,1.49,0,0,1-.1.6c0,.07-.07.11-.1.12s0,0-.07-.07a.3.3,0,0,1,0-.08.07.07,0,0,1,0-.06,1.09,1.09,0,0,0,.22-.61s0,0,0,0S59.33,18.89,59.33,19Zm.5-2.37a.35.35,0,0,1,0,.1.06.06,0,0,1,0,0l-.13.15-.46.76.55-.05a2.14,2.14,0,0,0,.19-.46s0,0,0,0,0,0,.07.09a.27.27,0,0,1,0,.1.07.07,0,0,1,0,.06l-.17.18-.61.94.66-.16-.07-.17a.16.16,0,0,1,0-.06v0l0,0a2.68,2.68,0,0,1,.19.3.33.33,0,0,1,0,.11.28.28,0,0,1,0,.08s0,.06,0,.06,0,0,0,0,0-.16-.07-.24a4.46,4.46,0,0,0-.66.22l-.1,0s0,0,0,0a.09.09,0,0,1,0,0,0,0,0,0,1,0,0,.61.61,0,0,0,.18-.17c.15-.22.29-.44.41-.65v0l-.5.1h-.08s0,0,0,0a.11.11,0,0,1,0,0,0,0,0,0,1,0,0,.49.49,0,0,0,.13-.14c.11-.18.21-.36.3-.54a2,2,0,0,0,.17-.44,0,0,0,0,1,0,0S59.8,16.54,59.83,16.6Zm-.17,2.28a2.66,2.66,0,0,1,.16.46.2.2,0,0,1,0,.09s0,.06,0,.06,0,0,0,0c0-.19,0-.35-.07-.46a1,1,0,0,1,0-.16s0,0,0,0A.17.17,0,0,1,59.66,18.87Zm1.13-.38s0,.05,0,.06l0,0a.54.54,0,0,0-.15.25,1.79,1.79,0,0,1-.27.44,2.6,2.6,0,0,1-.39.34l-.06,0s0,0,0,0l0,0a2.71,2.71,0,0,0,.34-.32,1.86,1.86,0,0,0,.26-.39,2.79,2.79,0,0,0,.11-.29l-.28,0H60.3a.07.07,0,0,1-.06,0s0,0,0,0l0,0,.37,0a.17.17,0,0,0,.08,0l0,0Zm-.81.26a2,2,0,0,1,.2.28.23.23,0,0,1,0,.1.2.2,0,0,1,0,.09c0,.05,0,.07-.06.07s0,0,0,0a2.85,2.85,0,0,0-.17-.44.15.15,0,0,1,0-.06s0,0,0,0Zm1-2.16a.24.24,0,0,1,0,.09.07.07,0,0,1,0,0l-.23.34,0,0,.64-.1c.07,0,.11,0,.12-.06s0-.06.06-.06l.07.06a.14.14,0,0,1,0,.06.12.12,0,0,1,0,.06.12.12,0,0,0,0,.08l-.1.73h0l.07,0,0,0s0,0-.08,0L61,18h0c.05,0,.08.08.08.1a.16.16,0,0,1,0,.05.2.2,0,0,0,0,.08v.24l.19.23,0,0,.25-.28a.58.58,0,0,0,.13-.23s0,0,0,0,0,0,.05.1a.48.48,0,0,1,0,.11s0,0,0,0l-.13.09-.33.26.08.1a3.81,3.81,0,0,0,.48.48,1.23,1.23,0,0,0,.43.15l0,0s0,0,0,0l-.31.07-.16,0s0,0-.05,0L61.32,19l-.26-.38v1.05a1.07,1.07,0,0,1,0,.2c0,.06,0,.09-.05.09s0,0,0,0a4.82,4.82,0,0,0-.31-.38l0,0s0,0,0,0l.14.09.16.11s0,0,0-.07V18.54a2,2,0,0,0,0-.43.26.26,0,0,1,0-.07l-.36,0v0c0,.09,0,.13,0,.14s0,0,0-.07a.22.22,0,0,1,0-.11.3.3,0,0,1,0-.08,2.7,2.7,0,0,0,0-.39c0-.25,0-.44,0-.56s0-.11,0-.12,0,0,0,0,0,0,.05.1a.85.85,0,0,1,0,.15l.2,0,0-.06a1.21,1.21,0,0,0,.15-.5s0,0,0,0Zm.45,1.3.08-.8-1,.13s0,.08,0,.13v.19a2.73,2.73,0,0,0,.59-.08h.07l.05,0,0,0s0,0-.06,0l-.69.08V18A5.76,5.76,0,0,0,61.45,17.89Z"/><path class="cls-2" d="M64.72,18.59a.45.45,0,0,1-.33.13.46.46,0,0,1,0-.93.47.47,0,0,1,.47.47A.44.44,0,0,1,64.72,18.59Zm-.06-.6a.38.38,0,0,0-.27-.11.36.36,0,0,0-.27.11.37.37,0,0,0-.11.27.37.37,0,0,0,.37.37.37.37,0,0,0,.27-.11.36.36,0,0,0,.11-.27A.38.38,0,0,0,64.66,18Z"/><rect class="cls-3" width="9.45" height="35"/><path class="cls-4" d="M6.29,12.62H4.67v.79a7.42,7.42,0,0,1,1.27.81l-.11.18a6.49,6.49,0,0,0-1.15-.77v1.93H4.48V12.62H3.18v-.2H6.29Z"/><path class="cls-4" d="M4.18,19H4v-.21H3.5V19H3.32V16.19h.86Zm-.18-2v-.57H3.5v.57Zm0,.78v-.6H3.5v.6Zm0,.82v-.64H3.5v.64Zm2.05-1H4.74V19a6.06,6.06,0,0,0,.63-.24l0,.18a7.68,7.68,0,0,1-.82.3l-.09-.17A.14.14,0,0,0,4.56,19V16.12H6.05Zm-.18-.8V16.3H4.74v.45Zm0,.62v-.45H4.74v.45Zm.42,1.76-.14.15a2.42,2.42,0,0,1-1-1.47l.17-.06a2.32,2.32,0,0,0,.18.5,3.07,3.07,0,0,0,.53-.47l.15.11a4.08,4.08,0,0,1-.6.53A2.23,2.23,0,0,0,6.29,19.13Z"/><path class="cls-4" d="M3.57,22a4.35,4.35,0,0,1-.23.91l-.17-.09A3.83,3.83,0,0,0,3.39,22Zm.88-1.66a6.28,6.28,0,0,1-.94,1.29,3.09,3.09,0,0,0,.58-.14A1.72,1.72,0,0,0,4,21.31l.17,0a3.12,3.12,0,0,1,.21.55l-.17.07a1.48,1.48,0,0,0-.05-.19,4,4,0,0,1-.92.2l0-.15a7.79,7.79,0,0,0,.72-.85,5.12,5.12,0,0,1-.62.08v-.15a3.81,3.81,0,0,0,.64-1.12l.18.07a4.24,4.24,0,0,1-.55,1,2.37,2.37,0,0,0,.5-.08,3.6,3.6,0,0,0,.22-.38ZM4,22.83l-.19,0A4.72,4.72,0,0,0,3.76,22l.18,0A4.85,4.85,0,0,1,4,22.83Zm.43-.43-.17,0A1.94,1.94,0,0,0,4.14,22l.18,0A2,2,0,0,1,4.47,22.4Zm.64-.87a1.67,1.67,0,0,1-.71,1.31l-.12-.15a1.36,1.36,0,0,0,.62-1H4.48v-.18Zm1.23,1.12-.13.15a2.28,2.28,0,0,1-.75-.8v.68a.29.29,0,0,1-.07.2c0,.05-.16.08-.34.08H4.88l-.06-.18H5a.47.47,0,0,0,.2,0,.09.09,0,0,0,0-.08V21.21h-.7V20.06H5a2.25,2.25,0,0,0,.2-.37l.18.08a1.58,1.58,0,0,1-.16.29h.86v1.15H5.45v.42a1.28,1.28,0,0,0,.1.21A2.21,2.21,0,0,0,6,21.38l.13.15a3.27,3.27,0,0,1-.47.46A2.46,2.46,0,0,0,6.33,22.64Zm-.41-2.1v-.31H4.75v.31Zm0,.49v-.31H4.75V21Z"/><line class="cls-5" x1="19.46" y1="14.68" x2="15.32" y2="21.73"/><line class="cls-5" x1="75.91" y1="15.84" x2="71.77" y2="22.89"/><path class="cls-6" d="M77.53,12.55a1.68,1.68,0,0,1-.77.61l0,0a2,2,0,0,0,.52-.59,1.42,1.42,0,0,0,.24-.59c0-.15-.11-.24-.33-.24s-.44-.13-.44-.4.17-.42.52-.42a.62.62,0,0,1,.49.23,1,1,0,0,1,.18.58A1.46,1.46,0,0,1,77.53,12.55Z"/><path class="cls-6" d="M79,12.55a1.68,1.68,0,0,1-.77.61l0,0a2,2,0,0,0,.52-.59,1.42,1.42,0,0,0,.24-.59c0-.15-.11-.24-.33-.24s-.44-.13-.44-.4.17-.42.52-.42a.62.62,0,0,1,.49.23,1,1,0,0,1,.18.58A1.46,1.46,0,0,1,79,12.55Z"/><g class="cls-7"><polygon class="cls-4" points="95.34 23.01 96.57 21.85 96.8 21.95 97.51 22.72 96.14 24 95.43 23.24 95.34 23.01"/><polygon class="cls-4" points="95.29 22.94 96.51 21.8 95.61 20.84 95.14 20.91 94.5 20.22 93.84 20.84 94.49 21.53 94.39 21.98 95.29 22.94"/><path class="cls-8" d="M93.17,20.06c.22.22.27.16.35.25s.13.27.18.32l.09.08.3-.28.3-.28a.6.6,0,0,0-.07-.09c0-.05-.22-.11-.31-.2s0-.13-.23-.36-.23-.16-.54-.29-.64-.37-.66-.36.21.36.32.68S92.95,19.84,93.17,20.06Z"/><path class="cls-4" d="M86.78,17.81c-.14-.08,1.17.29,1.79.3a5.36,5.36,0,0,0,2.12-.53c.91-.44,1.33-.08,1.4,0s.23.17-.11.11a1.55,1.55,0,0,0-.86,0A4.32,4.32,0,0,1,86.78,17.81Z"/><path class="cls-4" d="M92.59,18.74a2.08,2.08,0,0,0-.58-.37,1.12,1.12,0,0,0-.79.07,11.51,11.51,0,0,1-2.33.61,7.23,7.23,0,0,1-2.75-.28,7.7,7.7,0,0,1-1.79-1,3.21,3.21,0,0,1-.67-1c-.13-.34.09.73.58,1.21a2.42,2.42,0,0,1-.39-.17c-.11-.07-.35-.29-.35-.29A1.3,1.3,0,0,0,84,18a1.43,1.43,0,0,0,.49.18l.13.13.06,0h0a.91.91,0,0,1-.36.13,3.44,3.44,0,0,1-.65,0,1.31,1.31,0,0,0,.58.16,3.18,3.18,0,0,0,.63-.09.09.09,0,0,1,.08,0l.19.12a1.44,1.44,0,0,1-.4.52,1.31,1.31,0,0,1-.52.18.81.81,0,0,0,.4,0,1.14,1.14,0,0,0,.7-.53s.28.17.39.21a1.32,1.32,0,0,1-.29.72A1.79,1.79,0,0,1,85,20a2.28,2.28,0,0,0,.66-.34,1.19,1.19,0,0,0,.36-.54l.27.11s0,.58-.11.85l-.09.38a3.88,3.88,0,0,0,.34-.47,5.07,5.07,0,0,0,.32-.63l.42.12s0,.79,0,.89l0,.41.45-1.23h.22a3.24,3.24,0,0,0,.13.79c.13.42.19.58.19.58s0-.56,0-.72,0-.67,0-.67h.35a2.89,2.89,0,0,0,.22.58,6,6,0,0,0,.33.58s-.11-.33-.16-.56-.08-.66-.08-.66l.48-.05a3.35,3.35,0,0,0,.27.51,3.5,3.5,0,0,0,.39.42,2,2,0,0,1-.23-.4,5.41,5.41,0,0,1-.16-.56l.42-.1a1.72,1.72,0,0,0,.37.49,2.06,2.06,0,0,0,.37.23,1.27,1.27,0,0,1-.28-.28,4.59,4.59,0,0,1-.24-.5l.43-.13a2.06,2.06,0,0,0,.29.27,1.48,1.48,0,0,0,.48.21,2.34,2.34,0,0,1-.44-.37,1,1,0,0,1-.14-.24l.22-.09a2.2,2.2,0,0,0,.29.13,2.65,2.65,0,0,0,.47.1,1,1,0,0,1-.3-.17,1.15,1.15,0,0,1-.19-.22.9.9,0,0,1,.48-.09c.24,0,.48.2.59.21S92.62,18.85,92.59,18.74Z"/><path class="cls-4" d="M86.4,14.13a5.23,5.23,0,0,1,3.29.11,10,10,0,0,1,2.56,2.56s-.49-1-.8-1.4a6.18,6.18,0,0,0-1.81-1.45A4.75,4.75,0,0,0,86.4,14.13Z"/></g></svg>