<svg id="圖層_1" data-name="圖層 1" xmlns="http://www.w3.org/2000/svg" viewBox="0 0 100 35"><defs><style>.cls-1{fill:#f5f5f5;stroke:#fff;}.cls-1,.cls-5{stroke-miterlimit:10;}.cls-2{fill:#3d3d3d;}.cls-3{fill:#647384;}.cls-4{fill:#fff;}.cls-5{fill:none;stroke:#647384;stroke-width:0.3px;}.cls-6{fill:#ad8066;}.cls-7{opacity:0.5;}</style></defs><title>lesson_cont_1</title><rect class="cls-1" x="-35.5" y="-15.5" width="375" height="177"/><path class="cls-2" d="M24.86,12.23l.05.07a.09.09,0,0,1,0,.08.1.1,0,0,0,0,.05l-.12.67h0l.07,0,0,0s0,0-.06,0l-.81.08v1.24l.8-.55,0,0,0,0s0,0-.06.06a9.79,9.79,0,0,0-.76.66c0,.05-.05.08-.09.08a.16.16,0,0,1-.1,0s-.07,0-.07-.06l0,0,.05-.07a.36.36,0,0,0,0-.23V13.24s0-.1,0-.16a1.22,1.22,0,0,1,0-.14s0,0,0,0,0,0,.07.11,0,.11,0,.15a5.18,5.18,0,0,0,.62-.06l.13-.73-.74.09-.1,0a.11.11,0,0,1-.07,0l0,0,0,0,.84-.12a.1.1,0,0,0,.09-.06s0-.06.06-.06Zm.68-.37a.31.31,0,0,1,.06.12.16.16,0,0,1,0,.08,1.42,1.42,0,0,0-.13.35l-.11.32.72-.07a2,2,0,0,0,.34-.05h.07l.1,0s.06,0,.06,0v0l-.55,0,0,.06a.31.31,0,0,1,.05.12.19.19,0,0,1,0,.09,3.4,3.4,0,0,0-.15.41,3.93,3.93,0,0,1-.26.62l.25.38a1.69,1.69,0,0,0,.45.47,2.27,2.27,0,0,0,.43.1s0,0,0,0a0,0,0,0,1,0,0l-.57.06s-.06,0-.08-.07c-.17-.33-.34-.63-.53-.93a2.31,2.31,0,0,1-.54.65,4.64,4.64,0,0,1-.62.43l-.09,0a0,0,0,0,1,0,0l0,0a6.3,6.3,0,0,0,.58-.42,2.33,2.33,0,0,0,.44-.47,2.36,2.36,0,0,0,.15-.24l0,0c-.21-.35-.37-.58-.45-.7a.07.07,0,0,1,0,0c-.08.16-.17.31-.27.46l0,0s0,0,0,0a.09.09,0,0,1,0,0,4.09,4.09,0,0,0,.29-.62,6.74,6.74,0,0,0,.27-.8,2.09,2.09,0,0,0,.07-.49s0,0,0,0S25.5,11.81,25.54,11.87Zm-.36,1.36a.07.07,0,0,1,.06,0q.19.38.4.72a3.27,3.27,0,0,0,.34-1.2l-.68.06c0,.12-.09.23-.13.31l0,.08Z"/><path class="cls-2" d="M28.47,11.84l.21.28a.3.3,0,0,1,0,.12.36.36,0,0,1,0,.11l.34,0,.18,0a3,3,0,0,0,.1-.32,1.88,1.88,0,0,0,.06-.29s0,0,0,0,0,0,.07.09a.29.29,0,0,1,0,.12.07.07,0,0,1,0,0l-.23.39.23,0,.25,0,.11,0a.14.14,0,0,1,.08,0,.12.12,0,0,1,0,.07,0,0,0,0,1,0,0l-.93.05v.33l.36,0,.2,0,.09,0,.08,0s0,0,0,.06,0,0,0,0l-.75.06v.36h.11l.57-.05.31,0,.14,0a.13.13,0,0,1,.08,0,.13.13,0,0,1,0,.07h0l-.71,0,0,.06a.34.34,0,0,1,0,.1,0,0,0,0,1,0,0l-.28.36,0,0a6.43,6.43,0,0,0,1.05-.16l.1,0,.1,0,.08.07s0,0,0,0l-1.85.14L27.68,14l-.1,0a.2.2,0,0,1-.12-.05s0,0,0,0,0,0,0,0l1.14,0,0,0-.18-.32a.35.35,0,0,1-.05-.1,0,0,0,0,1,0,0l0,0,.23.2a.15.15,0,0,1,0,.09.46.46,0,0,1,0,.13s0,0,0,0l.33,0,.37,0v0a2.41,2.41,0,0,0,.14-.3,1,1,0,0,0,.08-.24h0l-.61,0-.88.07-.1,0a.11.11,0,0,1-.07,0s0,0,0-.06a0,0,0,0,1,0,0l.8,0,.32,0v-.36h0l-.56.05h-.07l-.07,0,0,0s0,0,0,0l.51,0,.24,0v-.33h-.07l-.7.05-.08,0-.07,0s0,0,0-.06a0,0,0,0,1,0,0l.64,0h0v0l-.18-.39a.5.5,0,0,1,0-.12,0,0,0,0,1,0,0Zm0,2.38a.62.62,0,0,1,0,.16l1-.14c.07,0,.11,0,.13-.06s0-.06.06-.06,0,0,.08.06,0,0,0,.06a.11.11,0,0,1,0,.06.14.14,0,0,0,0,.09l-.08.54h0l.06,0,0,0s0,0-.1,0l-1.18.1s0,.09,0,.14,0,.06,0,.06,0,0-.05-.07a.35.35,0,0,1,0-.1.4.4,0,0,1,0-.07c0-.07,0-.2,0-.37s0-.26,0-.4a1.32,1.32,0,0,0,0-.19,0,0,0,0,1,0,0S28.41,14.15,28.44,14.22Zm1.08.72.07-.62-1.12.15c0,.11,0,.3,0,.57A8.39,8.39,0,0,0,29.52,14.93Z"/><path class="cls-2" d="M31.48,12.35a.85.85,0,0,1,0,.21l.61-.06a.07.07,0,0,0,.06,0s0-.06,0-.06l.08,0s.06,0,.06.06,0,0,0,.06a.23.23,0,0,0,0,.11c0,.34,0,.64,0,.91s0,.55,0,.72,0,.19,0,.19,0,0-.06-.07a.24.24,0,0,1,0-.1.4.4,0,0,1,0-.11c0-.09,0-.21,0-.36,0-.62,0-1.06,0-1.3l-.67.08s0,.06,0,.08v.6l.36-.05h0l.05,0,0,0,0,0-.45.05v.82a2.7,2.7,0,0,0,.44,0h0l.06,0,0,0s0,0,0,0l-.55.05v.23c0,.08,0,.13,0,.13s0,0,0-.07a.22.22,0,0,1,0-.11,1.2,1.2,0,0,1,0-.15c0-.14,0-.41,0-.83s0-.77,0-1,0-.2,0-.21,0,0,0,0S31.45,12.29,31.48,12.35ZM34,12.3s0,0,0,.07a0,0,0,0,1,0,0l-.48,0,0,.07a.34.34,0,0,1,0,.1.14.14,0,0,1,0,0l-.26.58v0h0l.47,0,.25,0,.12,0a.15.15,0,0,1,.08,0s0,0,0,.07a0,0,0,0,1,0,0l-1.1.08-.71.07-.08,0-.08,0s-.05,0-.05-.06h0l.65,0,.36,0h0c.06-.17.1-.31.13-.43a2.59,2.59,0,0,0,.07-.36s0,0,0,0l-.35,0-.55.07-.07,0a.11.11,0,0,1-.07,0s-.05,0-.05-.06a0,0,0,0,1,0,0l.51,0,.32,0,.36-.05.2,0,.08,0A.13.13,0,0,1,34,12.3Zm-1.26,1.37a.72.72,0,0,1,0,.16l.86-.11a.07.07,0,0,0,.06,0l0-.05.08,0s.06,0,.06.06,0,0,0,.06a.2.2,0,0,0,0,.11c0,.25,0,.47,0,.68s0,.4,0,.53,0,.14,0,.14,0,0-.07-.07a.29.29,0,0,1,0-.09.32.32,0,0,1,0-.09c0-.07,0-.15,0-.26,0-.44,0-.76,0-.94l-.93.12s0,.08,0,.13v.33a3.23,3.23,0,0,0,.55-.06h.06l.05,0,0,0s0,0-.05,0l-.65.07V15a4.26,4.26,0,0,0,.66-.08h.07l.07,0,0,0s0,0-.06,0l-.77.08v.14c0,.08,0,.13,0,.13s0,0,0-.07a.21.21,0,0,1,0-.11.54.54,0,0,1,0-.1,5.17,5.17,0,0,0,0-.55c0-.31,0-.55,0-.72s0-.14,0-.15,0,0,0,0S32.74,13.61,32.76,13.67Zm0-1a2.46,2.46,0,0,1,.19.26A.24.24,0,0,1,33,13a.45.45,0,0,1,0,.12s0,0,0,0,0,0,0,0l-.14-.37a.56.56,0,0,1,0-.11,0,0,0,0,1,0,0Zm.2-.92a2.16,2.16,0,0,1,.25.28.21.21,0,0,1,.06.1.24.24,0,0,1,0,.1s0,.07-.06.07,0,0,0,0a2.53,2.53,0,0,0-.23-.44.16.16,0,0,1,0-.06,0,0,0,0,1,0,0Z"/><path class="cls-2" d="M36,13l0,.07c-.09.36-.17.66-.23.91s-.17.62-.24.83c0,0,0,.06,0,.06s-.06,0-.1-.08l-.3-.38s0-.06,0-.07h0l.16.12a.77.77,0,0,0,.21.15s0,0,.06-.07.11-.33.23-.68.17-.54.27-.83c0,0,0,0,0,0Zm-.85-.22.39.2s.07.06.07.09a.46.46,0,0,1,0,.13s0,0,0,0,0,0-.05,0l-.33-.33a.41.41,0,0,1-.1-.1,0,0,0,0,1,0,0Zm.29-.8a3.17,3.17,0,0,1,.37.25.17.17,0,0,1,.07.11.51.51,0,0,1,0,.13,0,0,0,0,1,0,0s0,0-.05,0L35.41,12a.37.37,0,0,1-.09-.11,0,0,0,0,1,0,0Zm1.3,1a.65.65,0,0,1,.07.19,5.41,5.41,0,0,1,0,.58,2.37,2.37,0,0,1-.15.54,2,2,0,0,1-.26.46,3.6,3.6,0,0,1-.34.35l-.05,0a0,0,0,0,1,0,0l0,0c.11-.12.2-.22.27-.31a1.53,1.53,0,0,0,.21-.34,2.37,2.37,0,0,0,.16-.51,3.56,3.56,0,0,0,.06-.71s0-.11,0-.2,0-.1,0-.13a0,0,0,0,1,0,0Zm-.38-.86c0,.07,0,.13,0,.19l.64-.07.71-.08a.2.2,0,0,0,.14-.09s0,0,.05,0l.08.06s.06.07.06.09a.06.06,0,0,1,0,.06,2.27,2.27,0,0,0-.32.44l0,0s0,0,0,0a.31.31,0,0,1,0-.11l.13-.32-1.46.15a1.56,1.56,0,0,1-.08.41c0,.08-.06.13-.09.14s0,0-.05-.05l0-.06a.11.11,0,0,1,0-.07,1.54,1.54,0,0,0,.2-.7s0,0,0,0S36.31,12.05,36.31,12.12Zm1,.72s.07.06.07.08a.21.21,0,0,1,0,.08.52.52,0,0,0,0,.2v1.07a1.72,1.72,0,0,0,0,.42.31.31,0,0,0,.1.18.57.57,0,0,0,.29.09l.2,0,.12,0a.12.12,0,0,0,0-.07c0-.08,0-.26,0-.53,0,0,0,0,0,0s0,0,0,0a2.38,2.38,0,0,0,.15.57.25.25,0,0,1,0,.08,0,0,0,0,1,0,0l-.22,0-.3,0a.9.9,0,0,1-.27,0,.33.33,0,0,1-.15-.1.47.47,0,0,1-.09-.21,1.7,1.7,0,0,1,0-.34V13.13c0-.07,0-.15,0-.22V12.8a0,0,0,0,1,0,0Z"/><path class="cls-2" d="M40.54,13.66a.5.5,0,0,1-.23.18h0a.59.59,0,0,0,.15-.18.42.42,0,0,0,.07-.18s0-.07-.1-.07-.13,0-.13-.12.05-.13.15-.13a.18.18,0,0,1,.15.07.28.28,0,0,1,.05.17A.43.43,0,0,1,40.54,13.66Z"/><path class="cls-2" d="M44.21,12a.15.15,0,0,1,0,.06.11.11,0,0,1,0,.05.12.12,0,0,0,0,.08l-.14,1h0l.07,0,0,0s0,0-.07,0l-.94.09v1l.73-.41-.22-.33a.14.14,0,0,1,0-.07,0,0,0,0,1,0,0s0,0,.08.05a4.16,4.16,0,0,1,.4.48.39.39,0,0,1,.09.2.88.88,0,0,1,0,.13c0,.05,0,.08,0,.08s0,0,0-.08a3.61,3.61,0,0,0-.21-.41h0a8.21,8.21,0,0,0-.72.52.1.1,0,0,1-.09.07.16.16,0,0,1-.1,0s-.07,0-.07-.06a.18.18,0,0,1,0-.07l0-.1a.86.86,0,0,0,0-.37V12.19s0-.1,0-.16a1.2,1.2,0,0,1,0-.14s0,0,0,0,0,0,.07.11a.75.75,0,0,1,0,.19h0l.79-.11c.06,0,.11,0,.12-.06s0-.06.06-.06Zm-1,.73a2.2,2.2,0,0,0,.53-.09h.05l.07,0,0,0s0,0,0,0l-.64.09v.48a5.09,5.09,0,0,0,.78-.08l.12-1.07-.9.12Zm2.45-.6.06.07a.08.08,0,0,1,0,.05.49.49,0,0,0-.08.26c-.05.54-.1.92-.14,1.14a2.27,2.27,0,0,1-.11.42c0,.06,0,.08-.07.08a1.48,1.48,0,0,1-.26-.24,1.62,1.62,0,0,1-.21-.23h0l.16.1a.67.67,0,0,0,.26.15s0,0,0,0a2.59,2.59,0,0,0,.09-.48c0-.23.07-.6.11-1.11l-.8.09c0,1.52,0,2.43,0,2.71a.56.56,0,0,1,0,.15s0,.06,0,.06,0,0-.07-.11a.42.42,0,0,1,0-.17.38.38,0,0,1,0-.12,1.2,1.2,0,0,0,0-.27q0-.6,0-2.18a1.62,1.62,0,0,0,0-.3l0-.15s0,0,0,0,0,.05.08.15a.83.83,0,0,1,0,.18l.7-.08a.13.13,0,0,0,.11-.06s.05-.06.07-.06Z"/><path class="cls-2" d="M48.36,12.53s0,0,0,.07a0,0,0,0,1,0,0l-.83.05,0,0a.38.38,0,0,1,0,.08,0,0,0,0,1,0,0,1.75,1.75,0,0,0-.15.22l-.19.3-.11.16.64-.07A1.53,1.53,0,0,0,48,13s0-.06,0-.06,0,0,0,.09a.26.26,0,0,1,0,.09,3.38,3.38,0,0,1-.29.42,4.29,4.29,0,0,1-.46.57,5.18,5.18,0,0,1-.69.55l-.23.13s0,0,0,0l0,0a5.48,5.48,0,0,0,.63-.5,4.46,4.46,0,0,0,.61-.68l0,0-.46.07-.21,0h0l0,0s0,0,0,0,0,0,0,0a.24.24,0,0,0,.14-.08,3.29,3.29,0,0,0,.21-.33,2.77,2.77,0,0,0,.16-.31l0-.12h0l-.6,0h-.07l-.07,0s0,0,0-.05,0,0,0,0l.54,0,.35,0,.39,0,.21,0h.09A.12.12,0,0,1,48.36,12.53Zm-.11,1.12a.3.3,0,0,1,0,.09,3,3,0,0,1-.27.34l-.17.2,0,0a3.17,3.17,0,0,1,.37.31c.05.05.08.1.08.13a.76.76,0,0,1,0,.13s0,.07,0,.07,0,0,0-.05a2.62,2.62,0,0,0-.41-.56h0a2.26,2.26,0,0,1-.22.21A4.48,4.48,0,0,1,47,15l-.21.1a0,0,0,0,1,0,0l0,0a5.39,5.39,0,0,0,.57-.41,3.65,3.65,0,0,0,.54-.55,1.33,1.33,0,0,0,.27-.46s0-.06,0-.06S48.22,13.59,48.25,13.65Zm-.83-1.81a2.58,2.58,0,0,1,.3.32c0,.05.07.09.07.11a.24.24,0,0,1,0,.1s0,.07-.06.07,0,0-.06-.05a2.79,2.79,0,0,0-.28-.49.17.17,0,0,1,0-.06,0,0,0,0,1,0,0Zm1.33.72s.07.08.07.1a.55.55,0,0,1,0,.09.77.77,0,0,0,0,.16v1.24s0,0,0,0,0,0-.07-.07a.22.22,0,0,1,0-.11.4.4,0,0,1,0-.06.78.78,0,0,0,0-.15v-1a1,1,0,0,0,0-.22l0-.07a0,0,0,0,1,0,0Zm.53-.74q.08.07.08.09a.19.19,0,0,1,0,.05.27.27,0,0,0,0,.08v2.81a.8.8,0,0,1,0,.2c0,.05,0,.08-.05.08s0,0,0,0q-.23-.29-.41-.48l0,0s0,0,0,0l.19.15a.94.94,0,0,0,.23.18s0,0,0-.08V12.3a2.05,2.05,0,0,0,0-.43.33.33,0,0,1,0-.1,0,0,0,0,1,0,0Z"/><path class="cls-2" d="M51.3,11.84a.29.29,0,0,1,.06.12.12.12,0,0,1,0,.07,1.22,1.22,0,0,0-.18.31L51,12.6v2.6s0,.06,0,.06,0,0-.08-.08a.22.22,0,0,1,0-.11.41.41,0,0,1,0-.13,1.06,1.06,0,0,0,0-.24V12.75l-.15.23a3.77,3.77,0,0,1-.46.52l0,0s0,0,0,0l0,0a3.22,3.22,0,0,0,.43-.55,4.34,4.34,0,0,0,.39-.72,1.2,1.2,0,0,0,.1-.44s0,0,0,0S51.26,11.78,51.3,11.84Zm.13.91s.06.07.06.08a.41.41,0,0,1,0,.08.71.71,0,0,0,0,.13v1.32s0,0,0,0,0,0-.07-.06a.19.19,0,0,1,0-.09v0a.34.34,0,0,0,0-.12V12.93a.68.68,0,0,0,0-.17l0-.05h0Zm1.68,1.4a.37.37,0,0,1,0,.1,2.47,2.47,0,0,1-.29.24,4,4,0,0,1-.46.33,6.54,6.54,0,0,1-.69.33l-.23.07a0,0,0,0,1,0,0l0,0a6.05,6.05,0,0,0,.63-.31,3.43,3.43,0,0,0,.61-.42,1,1,0,0,0,.3-.35s0-.06,0-.06S53.09,14.09,53.12,14.15Zm-.18-1.66a.32.32,0,0,1,0,.09,2.44,2.44,0,0,1-.24.29l-.15.17.1.08a2.06,2.06,0,0,0,.5.33,1.82,1.82,0,0,0,.51.08l0,0a0,0,0,0,1,0,0l-.46.12a.09.09,0,0,1-.08,0l-.42-.39-.2-.18-.19.18a3.78,3.78,0,0,1-.57.39l-.19.09s0,0,0,0l0,0a4,4,0,0,0,.52-.36,3.55,3.55,0,0,0,.35-.32l-.38-.34,0,0s0,0,0,0l.06,0a4.54,4.54,0,0,0,.36.33l.1-.12a1.16,1.16,0,0,0,.25-.41s0-.06,0-.06S52.91,12.42,52.94,12.48Zm-.64-.59a.28.28,0,0,1,.05.11.07.07,0,0,1,0,.05.82.82,0,0,0-.13.22l0,.09.31,0,.2,0,.23,0,.13,0h.05a.13.13,0,0,1,.08,0s0,0,0,.07a0,0,0,0,1,0,0l-.55,0-.35,0h0l-.07,0,0,0a3,3,0,0,1-.2.33,2.75,2.75,0,0,1-.32.37l0,0s0,0,0,0l0,0a2.67,2.67,0,0,0,.29-.4,3.39,3.39,0,0,0,.26-.52.93.93,0,0,0,.07-.32s0,0,0,0S52.25,11.84,52.29,11.89Zm.52,1.92a.28.28,0,0,1,0,.09,0,0,0,0,1,0,0l-.25.19a3.86,3.86,0,0,1-.44.32,4.21,4.21,0,0,1-.43.23h0s0,0,0,0l0,0a4.05,4.05,0,0,0,.67-.42,1.51,1.51,0,0,0,.4-.45l0,0S52.79,13.76,52.82,13.81Zm-.26-.33a.28.28,0,0,1,0,.09,0,0,0,0,1,0,0l-.18.14-.32.24a2.27,2.27,0,0,1-.31.17h0s0,0,0,0l0,0a2.89,2.89,0,0,0,.47-.34,1.07,1.07,0,0,0,.28-.36l0,0S52.54,13.44,52.56,13.48Z"/><path class="cls-2" d="M55.43,12.41a.12.12,0,0,1,0,.07,0,0,0,0,1,0,0l-.72.06-.47.06h-.05l-.07,0s0,0,0-.05a0,0,0,0,1,0,0l.42,0,.27,0,.31,0,.16,0h.07A.13.13,0,0,1,55.43,12.41Zm-.18.44s0,0,0,.06a0,0,0,0,1,0,0l-.45,0-.28,0h0a.09.09,0,0,1-.06,0s0,0,0,0a0,0,0,0,1,0,0l.26,0,.16,0,.18,0,.1,0h0Zm0,.46s0,0,0,.06a0,0,0,0,1,0,0l-.42,0-.27,0h0a.11.11,0,0,1-.07,0s0,0,0,0a0,0,0,0,1,0,0l.24,0,.15,0,.17,0,.09,0h0Zm-.69.46a.92.92,0,0,1,0,.15l.45-.08c.07,0,.11,0,.12-.06s0-.06.06-.06,0,0,.07.06a.12.12,0,0,1,0,.06.11.11,0,0,1,0,.06.14.14,0,0,0,0,.08l-.07.53h0l.06,0,0,0s0,0-.05,0l-.66.08v.12c0,.09,0,.14,0,.15s0,0-.05-.07a.29.29,0,0,1,0-.13.24.24,0,0,1,0-.07,1.48,1.48,0,0,0,0-.33c0-.23,0-.41,0-.52s0-.1,0-.11,0,0,0,0S54.53,13.71,54.56,13.78Zm.56.75,0-.59-.55.08s0,.1,0,.16v.42A4.1,4.1,0,0,0,55.12,14.54Zm-.37-2.7a2,2,0,0,1,.22.28.26.26,0,0,1,.05.1.22.22,0,0,1,0,.09s0,.07-.05.07,0,0,0,0a2.69,2.69,0,0,0-.19-.44.16.16,0,0,1,0-.06,0,0,0,0,1,0,0Zm2.13,2,.07,0S57,14,57,14a.07.07,0,0,1,0,0l-.37.41a1.6,1.6,0,0,1-.18.18l.24.15a1.7,1.7,0,0,0,.44.18l.41,0,0,0a0,0,0,0,1,0,0l-.55.07a.11.11,0,0,1-.08,0,6,6,0,0,0-.53-.41l-.24.17a3,3,0,0,1-.62.29l-.2.07v0a0,0,0,0,1,0,0,5.13,5.13,0,0,0,.73-.39l.22-.17-.4-.27,0,0,0,0h.06a.09.09,0,0,1,.06,0,3.07,3.07,0,0,0,.34.25,1.92,1.92,0,0,0,.21-.22,2.15,2.15,0,0,0,.21-.29l-.41,0-.41,0-.11,0-.07,0s0,0,0,0l0,0,1-.12a.09.09,0,0,0,.06,0l0,0Zm-1-1.43a.31.31,0,0,1,0,.1s0,0,0,0l-.1.15v.08l.55-.06h0l-.12-.23,0-.07a0,0,0,0,1,0,0h0l.16.13a.13.13,0,0,1,0,.06.37.37,0,0,1,0,.11h0l.14,0a1.82,1.82,0,0,0,.33-.06h.07l.08,0,0,0,0,0-.61.07V13l.23,0,.13,0h.06l.07,0s0,0,0,0v0l-.52,0v.24h0l.26,0,.14,0h.06l.07,0s0,0,0,0v0l-.58,0v.28l.19,0,.36-.05h.08l.08,0,.05,0v0l-1.38.13V14s0,0,0,0,0,0-.07-.08a.2.2,0,0,1,0-.1.5.5,0,0,1,0-.11,1.07,1.07,0,0,0,0-.22v-.63l-.12.18a1.45,1.45,0,0,1-.19.21h0s0,0,0,0v0a2.61,2.61,0,0,0,.26-.41,1.7,1.7,0,0,0,.16-.42s0,0,0,0S55.86,12.41,55.89,12.46Zm.1-.6s.07.07.07.1A.19.19,0,0,1,56,12a.34.34,0,0,0,0,0v.5s0,0,0,0l0,0a.09.09,0,0,1,0-.06.33.33,0,0,1,0-.08.75.75,0,0,0,0-.1s0,0,0-.07l-.29.05-.1,0-.07,0,0,0,0,0,.49-.08a1.81,1.81,0,0,0,0-.26.22.22,0,0,1,0-.07s0,0,0,0Zm.37,1.87v-.28l-.36,0h0l-.05,0,0,0a0,0,0,0,1,0,0l.36,0h.12v-.24l-.36,0h0l-.05,0,0,0a0,0,0,0,1,0,0l.34,0h.14v-.25l-.54.06v.91Zm.37-1.94a.16.16,0,0,1,.06.1.44.44,0,0,0-.07.14l0,.12a1.91,1.91,0,0,0,.38-.06h0l.07,0,0,0s0,0,0,0l-.51.06-.07.2c0,.05,0,.08-.06.08s0,0,0,0v-.05c0-.11.07-.23.1-.35a2.9,2.9,0,0,0,0-.31s0,0,0,0S56.69,11.76,56.73,11.79Z"/><path class="cls-2" d="M58.95,12a.55.55,0,0,1,0,.18v0l1.09-.11c.07,0,.12,0,.13-.06s0-.06.06-.06,0,0,.08.06a.12.12,0,0,1,0,.06.1.1,0,0,1,0,.06.15.15,0,0,0,0,.09l-.09,2.53a6,6,0,0,0,.76-.09l.1,0,.1.05.08.07s0,0,0,0l-1.9.1c-.68,0-1.06.07-1.11.08h-.11A.22.22,0,0,1,58,15s0,0,0,0,0,0,0,0l.94,0,0-1.45c0-.26,0-.64,0-1.12a3.87,3.87,0,0,0,0-.39,0,0,0,0,1,0,0S58.9,11.93,58.95,12Zm.58,2.81.62,0,.08-2.6L59,12.32v.76a3.79,3.79,0,0,0,.77-.1h.08l.07,0,0,0s0,0-.07,0l-.88.1v.76a3.43,3.43,0,0,0,.77-.11h.08l.06,0,0,0s0,0-.07,0L59,14v.84Z"/><path class="cls-2" d="M26.52,16.8l.08.07s0,0,0,0l-.86,0,0,0c.06.06.1.1.1.11a.2.2,0,0,1,0,.07.34.34,0,0,0,0,.1v2.29a1.18,1.18,0,0,1,0,.24c0,.07,0,.1-.07.1s0,0-.05,0c-.18-.19-.33-.35-.47-.48l0,0s0,0,0,0l.22.12a1.29,1.29,0,0,0,.26.15s0,0,0-.08V17.55a2.48,2.48,0,0,0,0-.51.44.44,0,0,1,0-.09l-.81.06-1,.1-.1,0a.2.2,0,0,1-.12-.05s0,0,0,0,0,0,0,0L25,16.93a9.88,9.88,0,0,0,1.35-.16l.09,0Zm-2.34.81a.73.73,0,0,1,0,.19l.57-.1c.06,0,.11,0,.12-.06s0-.06.06-.06,0,0,.07.06a.15.15,0,0,1,0,.06.11.11,0,0,1,0,.05.15.15,0,0,0,0,.08l-.07.65H25l.06,0,0,0s0,0-.07,0l-.8.09v.15c0,.1,0,.15,0,.15s0,0-.05-.08a.26.26,0,0,1,0-.13.33.33,0,0,1,0-.08,2.33,2.33,0,0,0,0-.41c0-.26,0-.46,0-.6s0-.12,0-.13,0,0,0,0S24.15,17.54,24.18,17.61Zm.68.89.05-.72-.67.1s0,.08,0,.13v.56A4.58,4.58,0,0,0,24.86,18.51Z"/><path class="cls-2" d="M27.81,16.86c0,.05.08.09.08.11a.18.18,0,0,1,0,.07.4.4,0,0,0,0,.14v1.91l.9-.74.06,0,0,0s0,0,0,.07a8,8,0,0,0-.92.92.08.08,0,0,1-.08,0l-.07,0s0,0,0-.06a.06.06,0,0,1,0,0,.28.28,0,0,0,.05-.09.92.92,0,0,0,0-.23V17.15a1.18,1.18,0,0,0,0-.21,1.06,1.06,0,0,1,0-.13s0,0,0,0S27.75,16.8,27.81,16.86Zm2-.21c0,.06.08.09.08.11a.18.18,0,0,1,0,.07,1.17,1.17,0,0,0-.07.37,7.82,7.82,0,0,1-.13.93,2.71,2.71,0,0,1-.2.55l.11.05a4.62,4.62,0,0,1,.58.47c.08.08.13.14.13.19a.76.76,0,0,1,0,.13s0,.07,0,.07,0,0-.08-.07a4,4,0,0,0-.66-.76l0,0,0,.08a2.11,2.11,0,0,1-.41.54,2.59,2.59,0,0,1-.49.39,1.39,1.39,0,0,1-.35.18,0,0,0,0,1,0,0s0,0,0,0a4.33,4.33,0,0,0,.55-.38,2.39,2.39,0,0,0,.73-1.06,3.9,3.9,0,0,0,.18-.82,6.18,6.18,0,0,0,0-.65s0-.12,0-.26a.56.56,0,0,1,0-.11s0,0,0,0S29.8,16.59,29.85,16.65Zm-1.37.24a3.36,3.36,0,0,1,.42.35c.06.06.1.11.1.15a.81.81,0,0,1,0,.13s0,.07,0,.07,0,0-.05-.05a3.11,3.11,0,0,0-.47-.61s0,0,0,0a0,0,0,0,1,0,0Z"/><path class="cls-2" d="M32.7,16.48c.05.05.08.09.08.11a.44.44,0,0,1,0,.1,2.61,2.61,0,0,0,0,.39v.21l.31,0a4,4,0,0,0,.16-.39,1.94,1.94,0,0,0,.08-.32,0,0,0,0,1,0,0s0,0,.07.09a.28.28,0,0,1,0,.12s0,0,0,0l-.31.48h0l.7-.08a.2.2,0,0,0,.14-.09s0,0,.05,0l.08.06s.06.07.06.09,0,0,0,.05a1.88,1.88,0,0,0-.34.39l0,0s0,0,0,0a.26.26,0,0,1,0-.09l.14-.28-2.26.21a.81.81,0,0,1-.09.29c0,.07-.07.11-.11.11s0,0-.05-.06a.23.23,0,0,1,0-.08.07.07,0,0,1,0-.06,1,1,0,0,0,.22-.55s0,0,0,0,0,0,0,.12,0,.11,0,.16l1-.09V16.8a.93.93,0,0,0,0-.27.53.53,0,0,1,0-.11s0,0,0,0Zm-.85,2a.76.76,0,0,1,0,.2l1.56-.15a.07.07,0,0,0,.06,0s0-.06,0-.06l.08,0s.06,0,.06.06,0,0,0,.07a.2.2,0,0,0,0,.11c0,.21,0,.41,0,.58s0,.34,0,.45,0,.12,0,.12,0,0-.06-.07a.28.28,0,0,1,0-.1.12.12,0,0,1,0-.07,1.34,1.34,0,0,0,0-.23q0-.56,0-.8l-.8.08V19L33,19l.14,0h.07l.07,0s0,0,0,.06a0,0,0,0,1,0,0l-.54,0v.45a3.27,3.27,0,0,0,.49-.05h.13l.06,0s0,0,0,0,0,0-.11,0l-1.43.1v.08c0,.08,0,.13,0,.14s0,0,0-.07a.21.21,0,0,1,0-.11.47.47,0,0,1,0-.09c0-.08,0-.24,0-.47s0-.5,0-.64,0-.13,0-.14,0,0,0,0S31.82,18.39,31.85,18.45Zm.06-1.73a2.87,2.87,0,0,1,.27.22.16.16,0,0,1,0,.1.47.47,0,0,1,0,.12s0,0,0,0,0,0,0,0l-.21-.34-.06-.1a0,0,0,0,1,0,0Zm.72,2.86v-.45l-.41,0h0l-.07,0s0,0,0,0a0,0,0,0,1,0,0l.36,0h.18v-.39l-.74.07s0,.06,0,.09v.8Zm-.51-2a.57.57,0,0,1,0,.15l.88-.11a.16.16,0,0,0,.11-.05s0,0,.05,0l.06,0a.11.11,0,0,1,0,.05.1.1,0,0,1,0,0,.13.13,0,0,0,0,.07l-.07.34h.07l.05,0,0,0s0,0-.08,0l-1.07.1s0,.05,0,.08,0,.06,0,.06,0,0-.07-.07a.14.14,0,0,1,0-.08.46.46,0,0,1,0-.08s0-.14,0-.27,0-.11,0-.16,0-.12,0-.15,0-.06,0-.06S32.11,17.58,32.12,17.61Zm1,.5.05-.41-1,.11a.45.45,0,0,1,0,.07c0,.11,0,.22,0,.32A8,8,0,0,0,33.11,18.11Z"/><path class="cls-2" d="M37.43,16.81s.05,0,.05.07a0,0,0,0,1,0,0l-1,.07,0,.05a.32.32,0,0,1,.08.11.17.17,0,0,1,0,.07,1.16,1.16,0,0,0-.07.36c0,.12,0,.23,0,.34h.1l.7-.07.37-.06.16,0a.18.18,0,0,1,.1,0s.05.06.05.08,0,0,0,0L36.5,18l.39.6a6.07,6.07,0,0,0,.66.86,1.49,1.49,0,0,0,.6.26l0,0s0,0,0,0l-.35,0-.18,0s-.06,0-.08-.07l-.6-1-.46-.72c0,.13,0,.23-.06.32a2.44,2.44,0,0,1-.25.58,1.83,1.83,0,0,1-.41.47,2.71,2.71,0,0,1-.49.34,1.56,1.56,0,0,1-.35.16,0,0,0,0,1,0,0l0,0a4.54,4.54,0,0,0,.55-.33,2.19,2.19,0,0,0,.4-.37,2,2,0,0,0,.33-.55,2.84,2.84,0,0,0,.16-.6h-.06c-.58,0-.93.08-1.06.1l-.12,0a.15.15,0,0,1-.09,0S35,18,35,18h0c.47,0,.79,0,1-.07l.41,0v0a4.64,4.64,0,0,0,.05-.57s0-.12,0-.26a.39.39,0,0,1,0-.08h0l-.7.07-.08,0-.08,0s-.05,0-.05-.06a0,0,0,0,1,0,0l.64,0,.41,0,.46,0,.25,0,.11,0A.16.16,0,0,1,37.43,16.81Z"/><path class="cls-2" d="M39.2,19a1.12,1.12,0,0,1-.14.62c0,.08-.09.12-.13.13s0,0-.05,0a.22.22,0,0,1,0-.07.08.08,0,0,1,0-.07,1,1,0,0,0,.28-.63s0,0,0,0S39.2,19,39.2,19Zm.54-2.49a.31.31,0,0,1,0,.11.07.07,0,0,1,0,0l-.14.16-.48.86.57-.08a2.27,2.27,0,0,0,.22-.53,0,0,0,0,1,0,0s0,0,.08.1a.32.32,0,0,1,0,.11.07.07,0,0,1,0,.06l-.17.19-.62,1,.73-.19c0-.08-.08-.16-.12-.23a.15.15,0,0,1,0-.07,0,0,0,0,1,0,0l0,0a2.61,2.61,0,0,1,.26.33.3.3,0,0,1,.06.11.24.24,0,0,1,0,.1s0,.07-.05.07,0,0,0-.05L40,18.38a6.15,6.15,0,0,0-.73.26l-.11,0s0,0-.05,0a.12.12,0,0,1,0-.06,0,0,0,0,1,0,0,.59.59,0,0,0,.18-.18,6.1,6.1,0,0,0,.4-.67,4.86,4.86,0,0,0-.52.13l-.09,0s0,0,0,0a.11.11,0,0,1,0-.06,0,0,0,0,1,0,0,.52.52,0,0,0,.14-.16c.12-.2.23-.4.32-.6a2.12,2.12,0,0,0,.18-.49s0,0,0,0S39.7,16.48,39.74,16.55Zm-.21,2.38a2.32,2.32,0,0,1,.16.42.25.25,0,0,1,0,.11s-.06.07-.07.07,0,0,0,0c0-.19,0-.34-.05-.45a.87.87,0,0,1,0-.16,0,0,0,0,1,0,0Zm.39-.16a2.42,2.42,0,0,1,.22.31.33.33,0,0,1,0,.11.23.23,0,0,1,0,.1s0,.07-.05.07,0,0,0,0a3.13,3.13,0,0,0-.19-.48.19.19,0,0,1,0-.07,0,0,0,0,1,0,0Zm.93-2.21a.22.22,0,0,1,.05.1.26.26,0,0,1,0,.08,1.49,1.49,0,0,0-.13.31,4.48,4.48,0,0,1-.18.42l.84-.08q.11,0,.14-.07s.05-.05.07-.05l.07,0a.14.14,0,0,1,0,.08.17.17,0,0,1,0,.07.27.27,0,0,0,0,.14c-.07.84-.13,1.42-.17,1.75a2.27,2.27,0,0,1-.12.46c0,.08-.06.12-.08.12s-.16-.16-.44-.48l-.09-.11s0,0,0,0l.06,0a1.88,1.88,0,0,0,.39.29s.07-.07.11-.19a8.37,8.37,0,0,0,.15-1c0-.39.06-.74.08-1.06l-.79.1h-.09l-.1,0,0,0-.05.1a2.89,2.89,0,0,1-.3.47l-.05.05s0,0,0,0l0,0a3.75,3.75,0,0,0,.32-.57,3.83,3.83,0,0,0,.21-.55,1.78,1.78,0,0,0,.08-.46s0-.06,0-.06S40.81,16.49,40.85,16.55Zm-.29,1.53a2,2,0,0,1,.25.32.27.27,0,0,1,.06.11.24.24,0,0,1,0,.1s0,.07-.05.07,0,0,0-.05a3.29,3.29,0,0,0-.22-.49.13.13,0,0,1,0-.07,0,0,0,0,1,0,0Z"/><path class="cls-2" d="M44.15,16.47a.31.31,0,0,1,0,.11.06.06,0,0,1,0,0l-.05.06.41.35a5.06,5.06,0,0,0,.72.52,2.19,2.19,0,0,0,.65.16l0,0s0,0,0,0a2.21,2.21,0,0,1-.34.11l-.18,0a.11.11,0,0,1-.09,0l-.23-.22a.09.09,0,0,1,0,0,.11.11,0,0,0,0,.08l-.08.51h0l.06,0,0,0s0,0-.13,0l-1.61.11a1.08,1.08,0,0,0,0,.11s0,.07,0,.07,0,0-.07-.08a.15.15,0,0,1,0-.09.65.65,0,0,1,0-.1c0-.06,0-.18,0-.36s0-.14,0-.2,0-.15,0-.19,0-.08,0-.08,0,0,0,.06a.78.78,0,0,1,0,.15l1.5-.16c.07,0,.11,0,.12-.06l0,0-.33-.31-.51-.49-.06.07a4.28,4.28,0,0,1-.72.7,8.36,8.36,0,0,1-.78.52l-.1,0s0,0,0,0l0,0a9.05,9.05,0,0,0,.81-.58,4.22,4.22,0,0,0,.54-.55,1.38,1.38,0,0,0,.23-.46s0,0,0,0S44.12,16.41,44.15,16.47ZM44,18.38v-.56l-.74.08s0,.08,0,.11,0,.28,0,.41Zm-.51.33a.41.41,0,0,1,0,.1l1.07-.09a.08.08,0,0,0,.06,0l0-.05.08,0s.06,0,.06.06,0,0,0,.07a.23.23,0,0,0,0,.11q0,.28,0,.5a3.83,3.83,0,0,1,0,.39c0,.07,0,.1,0,.1s0,0-.06-.07a.24.24,0,0,1,0-.09.15.15,0,0,1,0-.06h0l-1,.07s0,.1,0,.16,0,.07,0,.07,0,0,0-.07a.32.32,0,0,1,0-.1.55.55,0,0,1,0-.09c0-.08,0-.23,0-.43s0-.29,0-.46a1.79,1.79,0,0,0,0-.21,0,0,0,0,1,0,0S43.49,18.64,43.51,18.71Zm1.14-1.38s0,0,0,.06a0,0,0,0,1,0,0l-.63,0-.41,0h0a.11.11,0,0,1-.07,0s0,0,0,0a0,0,0,0,1,0,0l.37,0,.24,0,.26,0,.14,0h.07Zm-1.09.6.18.18a.16.16,0,0,1,0,.08.4.4,0,0,1,0,.11s0,0,0,0,0,0,0,0L43.56,18a.32.32,0,0,1,0-.09,0,0,0,0,1,0,0Zm.89,1.66h.09l.07,0,0,0a1.05,1.05,0,0,0,0-.16c0-.32,0-.55,0-.69l-1.13.1s0,.16,0,.32a6,6,0,0,0,.8-.07h.08l.05,0,0,0s0,0-.07,0l-.9.07c0,.11,0,.24,0,.37C44.05,19.63,44.35,19.61,44.44,19.59Zm-.16-1.23a.18.18,0,0,1,0-.07.83.83,0,0,0,.17-.43,0,0,0,0,1,0,0l.07.06a.22.22,0,0,1,0,.08s0,0,0,0l-.24.31,0,0a2.59,2.59,0,0,0,.47-.06h0l.07-.57-.74.08v.57Z"/><path class="cls-2" d="M48,18.34a.5.5,0,0,1-.23.18h0a.59.59,0,0,0,.15-.18.42.42,0,0,0,.07-.18s0-.07-.1-.07-.13,0-.13-.12.05-.13.15-.13a.18.18,0,0,1,.15.07.28.28,0,0,1,.05.17A.43.43,0,0,1,48,18.34Z"/><path class="cls-2" d="M51,17.38a.11.11,0,0,1,0,.07,0,0,0,0,1,0,0l-.54,0v.63l.54-.29,0,0,0,0a.1.1,0,0,1,0,.07l-.54.34v1.14a.94.94,0,0,1,0,.22c0,.06,0,.1-.07.1s0,0,0,0c-.15-.18-.29-.33-.41-.44l0,0s0,0,0,0l.19.11a1,1,0,0,0,.22.14s.05,0,.06-.08v-1l-.21.13a2.48,2.48,0,0,0-.33.22.09.09,0,0,1-.07,0,.15.15,0,0,1-.08,0l-.05-.06a.07.07,0,0,1,0-.06,3.8,3.8,0,0,0,.51-.23l.21-.11v-.68H50.3l-.46.05h-.05l-.07,0s-.05,0-.05-.05a0,0,0,0,1,0,0l.42,0,.26,0v-.55a2.14,2.14,0,0,0,0-.48.36.36,0,0,1,0-.11,0,0,0,0,1,0,0l.12.06c.06,0,.09.08.09.1a.12.12,0,0,1,0,.06.27.27,0,0,0,0,.09v.81l.2,0,.16,0,.07,0A.13.13,0,0,1,51,17.38ZM52.74,17s0,.05,0,.07a0,0,0,0,1,0,0l-.81.06h0c.06.05.09.09.09.11a.14.14,0,0,1,0,.06.22.22,0,0,0,0,.09v2a.94.94,0,0,1,0,.22c0,.06,0,.1-.06.1s0,0-.07-.05a5.86,5.86,0,0,0-.54-.49l0,0s0,0,0,0l.26.14a1.37,1.37,0,0,0,.29.18s.05,0,.06-.08V17.72a2.11,2.11,0,0,0,0-.47l0-.06H51.8l-.63.05h-.07a.13.13,0,0,1-.08,0s-.05,0-.05-.06a0,0,0,0,1,0,0l.58,0,.37,0,.41,0,.23,0,.1,0A.15.15,0,0,1,52.74,17Z"/><path class="cls-2" d="M54.28,17.81s0,.05,0,.07a.07.07,0,0,1,0,.05,2.41,2.41,0,0,0-.29.46.24.24,0,0,0,0,.08.16.16,0,0,0,0,.08,2.26,2.26,0,0,1,.11.2.29.29,0,0,1,0,.13.51.51,0,0,1-.07.22l-.08.15.46.06c.29.06.63.11,1,.17a6.11,6.11,0,0,0,.72.08,2.31,2.31,0,0,0,.4-.1l.16,0s0,0,0,0,0,0,0,0l-.4.24-.14.08-.13,0c-.78-.2-1.35-.32-1.69-.38a3,3,0,0,0-.45-.06l-.17,0-.14,0a.11.11,0,0,1-.08,0s0,0,0,0l0,0h.39l0,0a.83.83,0,0,0,.1-.33.72.72,0,0,0-.14-.35.06.06,0,0,1,0-.05.08.08,0,0,1,0-.06,3,3,0,0,0,.15-.31.79.79,0,0,0,.06-.18l-.37.05-.16,0-.1,0a.12.12,0,0,1-.08,0l0,0a0,0,0,0,1,0,0l.58-.1a.31.31,0,0,0,.16,0s.05,0,.08,0A.13.13,0,0,1,54.28,17.81Zm-.54-1.05a2.41,2.41,0,0,1,.31.29s.07.08.07.1a.21.21,0,0,1,0,.09s0,.07-.06.07,0,0-.06,0a2.27,2.27,0,0,0-.29-.45.15.15,0,0,1,0-.06,0,0,0,0,1,0,0Zm1.2-.1a.25.25,0,0,1,.06.11.11.11,0,0,1,0,0,.91.91,0,0,0-.07.19l-.07.19.47-.07V16.7a1.72,1.72,0,0,0,0-.31l0-.13a0,0,0,0,1,0,0l.1.08c.06.06.09.1.09.11a.58.58,0,0,1,0,.12,3.26,3.26,0,0,0,0,.43v.12h.09a1.5,1.5,0,0,0,.31-.07h.07l.09,0s.06,0,.06,0l0,0-.61.08v.6h0l.45,0,.24,0,.11,0a.15.15,0,0,1,.08,0s0,0,0,.07a0,0,0,0,1,0,0l-1.07.09-.69.07-.08,0-.08,0s-.05,0-.05-.06a0,0,0,0,1,0,0l.63,0,.25,0v-.6l-.5.07,0,.1a2.4,2.4,0,0,1-.18.32l0,0s0,0,0,0v0a2.58,2.58,0,0,0,.13-.35c.05-.17.1-.32.12-.45a1.49,1.49,0,0,0,0-.28s0,0,0,0S54.9,16.61,54.93,16.67Zm-.08,1.59a.41.41,0,0,1,0,.11l.91-.13a.09.09,0,0,0,.08,0l0,0,.07,0,.05.05s0,0,0,0a.51.51,0,0,0-.06.22c0,.14,0,.29,0,.44h0L56,19l0,0s0,0-.08,0l-1.07.09s0,.1,0,.16,0,.05,0,.05,0,0-.05-.07a.29.29,0,0,1,0-.1.47.47,0,0,1,0-.07c0-.07,0-.19,0-.36s0-.25,0-.4a1.31,1.31,0,0,0,0-.18,0,0,0,0,1,0,0S54.82,18.19,54.85,18.26Zm.94.7.06-.62-1,.12c0,.1,0,.3,0,.59A7.19,7.19,0,0,0,55.79,19Z"/><path class="cls-2" d="M58.5,17.76s0,0,0,.07a0,0,0,0,1,0,0l-.48,0V18h0l.35.27a.1.1,0,0,1,0,.08s0,.06,0,.1,0,.06,0,.06,0,0-.05,0a3.66,3.66,0,0,0-.32-.42v1.39c0,.09,0,.18,0,.26s0,.12,0,.12,0,0-.08-.1a.16.16,0,0,1,0-.09.12.12,0,0,1,0-.06.52.52,0,0,0,0-.11,2.4,2.4,0,0,0,0-.28v-1.1c0,.1-.09.21-.15.33a4.36,4.36,0,0,1-.49.75c-.1.11-.15.16-.18.16s0,0,0,0,0,0,0,0a4.61,4.61,0,0,0,.49-.74,5.15,5.15,0,0,0,.3-.68h-.08l-.44,0h0l-.07,0s0,0,0-.05a0,0,0,0,1,0,0l.4,0,.26,0h0v-1a1.85,1.85,0,0,0,0-.31.58.58,0,0,1,0-.11,0,0,0,0,1,0,0l.1.07s.08.08.08.1a.25.25,0,0,1,0,.08.4.4,0,0,0,0,.16v1l.15,0,.16,0h.07A.12.12,0,0,1,58.5,17.76Zm-1.06-.81a2.32,2.32,0,0,1,.22.3.33.33,0,0,1,0,.11.35.35,0,0,1,0,.09s0,.07-.06.07,0,0,0,0A2.49,2.49,0,0,0,57.4,17a.19.19,0,0,1,0-.07h0Zm1.1-.09a.28.28,0,0,1,0,.1.07.07,0,0,1,0,0l-.3.48,0,0s0,0,0,0v0a3.56,3.56,0,0,0,.16-.37,1.82,1.82,0,0,0,.08-.31s0,0,0,0S58.52,16.8,58.54,16.85Zm1.3,1s.07.05.07.07a.08.08,0,0,1,0,.06.34.34,0,0,0,0,.1c-.08.56-.16,1-.23,1.35,0,.18-.09.28-.11.28a3.71,3.71,0,0,1-.38-.43.05.05,0,0,1,0,0,0,0,0,0,1,0,0l.06,0a1.32,1.32,0,0,0,.29.21s0,0,.06-.1A7.94,7.94,0,0,0,59.71,18l-.49,0h-.07l0,.05a.25.25,0,0,1,0,.1,0,0,0,0,1,0,0,1.17,1.17,0,0,0-.07.18,4.56,4.56,0,0,1-.19.48,3,3,0,0,1-.26.46,3.09,3.09,0,0,1-.4.43l-.05,0h0a0,0,0,0,1,0,0,3.52,3.52,0,0,0,.24-.29,2.69,2.69,0,0,0,.27-.4,3.3,3.3,0,0,0,.23-.52,2.18,2.18,0,0,0,.11-.52h0l-.23,0h-.07l-.08,0,0,0,0,0,.93-.06a.2.2,0,0,0,.1-.06s.05-.06.07-.06Zm-.74-1.12a.29.29,0,0,1,.06.12.11.11,0,0,1,0,.07,1.16,1.16,0,0,0-.13.27,3.52,3.52,0,0,1-.27.56,3,3,0,0,1-.33.45l0,0s0,0,0,0l0,0a3.17,3.17,0,0,0,.29-.49,4.26,4.26,0,0,0,.26-.63,1.35,1.35,0,0,0,.07-.39s0,0,0,0S59.05,16.67,59.1,16.73Zm.44-.28s.05,0,.05,0a.51.51,0,0,0,0,.22l.29.71a.7.7,0,0,0,.18.27,1,1,0,0,0,.41.13,0,0,0,0,1,0,0,0,0,0,0,1,0,0H60s-.08,0-.08,0l-.4-1.14a.69.69,0,0,0-.07-.18.18.18,0,0,1,0-.07,0,0,0,0,1,0,0Z"/><path class="cls-2" d="M61.79,16.38a.47.47,0,0,1,.05.11.18.18,0,0,1,0,.07,4.2,4.2,0,0,0-.13.61c0,.1,0,.25-.07.43l.34,0c0-.1,0-.19,0-.26a0,0,0,0,1,0,0l.06.07a.25.25,0,0,1,0,.1.25.25,0,0,1,0,.08c0,.09-.05.23-.08.4a6.09,6.09,0,0,1-.15.6v0l.29.17a.29.29,0,0,1,.05.21s0,0,0,0a.07.07,0,0,1-.05,0l-.29-.28h0a2.34,2.34,0,0,1-.28.54,3,3,0,0,1-.36.41l0,0a0,0,0,0,1,0,0l0,0a4.12,4.12,0,0,0,.32-.4,2.35,2.35,0,0,0,.24-.44l.05-.14a2,2,0,0,0-.3-.18.05.05,0,0,1,0-.05.35.35,0,0,1,0-.11c0-.18.08-.37.11-.57h0l-.23.07,0,0a.14.14,0,0,1-.08,0s-.05,0-.05-.06l0,0,.3,0,.14,0c0-.18.06-.37.09-.57s.07-.57.07-.73,0,0,0,0S61.76,16.33,61.79,16.38Zm-.18,1.3c0,.14-.05.29-.09.46a1.46,1.46,0,0,0,0,.23s0,0,0,.05l.23.1c0-.15.09-.33.13-.52s0-.28.06-.4ZM63.07,17s0,0,0,0l0,0-.44,0v.44l.26,0a.06.06,0,0,0,.06,0l0,0,0,0,0,0a0,0,0,0,1,0,0,.29.29,0,0,0-.06.16c0,.1,0,.2,0,.31h0l.05,0,0,0s0,0-.06,0l-.37,0v.2l.32.28a.12.12,0,0,1,0,.09s0,0,0,.08,0,.05,0,.05,0,0-.05,0a3.51,3.51,0,0,0-.29-.39v1.06c0,.08,0,.16,0,.24s0,.1,0,.1,0,0-.07-.09a.14.14,0,0,1,0-.08.12.12,0,0,1,0-.05.41.41,0,0,0,0-.1,1.91,1.91,0,0,0,0-.26v-.82l-.11.25a3.79,3.79,0,0,1-.39.65c-.08.1-.13.15-.14.15v0l0,0a4.11,4.11,0,0,0,.39-.65,4.25,4.25,0,0,0,.24-.59l-.24,0a1,1,0,0,0,0,.11s0,.06,0,.06,0,0-.07-.07a.14.14,0,0,1,0-.08.62.62,0,0,1,0-.09s0-.15,0-.3,0-.12,0-.18,0-.13,0-.17,0-.06,0-.06,0,0,0,0a.44.44,0,0,1,0,.15l.28,0v-.45l-.23,0-.13,0a.08.08,0,0,1-.06,0,.06.06,0,0,1,0,0l0,0,.43,0v-.3a1.56,1.56,0,0,0,0-.28.4.4,0,0,1,0-.1,0,0,0,0,1,0,0l.1.06s.07.07.07.09a.23.23,0,0,1,0,.08.36.36,0,0,0,0,.15V17l.24,0H63Zm-.49,1.06v-.45l-.27,0a.85.85,0,0,0,0,.1c0,.12,0,.23,0,.34Zm.09,0,.23,0,.07-.45-.3,0Zm.86-1.61a.2.2,0,0,1,.06.1.54.54,0,0,1,0,.1,2.58,2.58,0,0,0-.08.36c0,.18-.07.36-.12.53l.42-.09a.72.72,0,0,0,.2-.07h0l.07,0,0,0,0,0-.39.07,0,0a.36.36,0,0,1,0,.1.09.09,0,0,1,0,0,1.07,1.07,0,0,0-.09.34,4.73,4.73,0,0,1-.14.62l0,.08a2.19,2.19,0,0,0,.36.66.81.81,0,0,0,.38.16h0a0,0,0,0,1,0,0l-.44,0s0,0,0-.07-.16-.43-.32-.8v0a2.58,2.58,0,0,1-.27.55,2.51,2.51,0,0,1-.34.37l-.06,0a0,0,0,0,1,0,0s0,0,0,0a2.58,2.58,0,0,0,.36-.46,2.65,2.65,0,0,0,.22-.44l.05-.15q-.21-.47-.28-.6v0l-.08.23s0,.07,0,.07,0,0,0,0a.17.17,0,0,1,0,0c.06-.21.12-.44.17-.68s.09-.46.11-.64,0-.36,0-.55c0,0,0-.06,0-.06S63.48,16.38,63.52,16.44ZM63.28,18a.11.11,0,0,1,.08,0,2.47,2.47,0,0,0,.17.51c0-.11.05-.22.07-.34a5.82,5.82,0,0,0,.08-.68l-.34.06,0,.11-.09.29Z"/><path class="cls-2" d="M66.27,17.49s.05.05.05.07a.12.12,0,0,1,0,.05,1,1,0,0,0-.13.26,3.43,3.43,0,0,1-.23.51,2,2,0,0,1-.26.36,2.48,2.48,0,0,1-.41.38,2.42,2.42,0,0,1-.37.23l0,0s0,0,0,0l0,0,.34-.25a2.47,2.47,0,0,0,.36-.36,2.51,2.51,0,0,0,.29-.45,3.41,3.41,0,0,0,.24-.61,6.55,6.55,0,0,0-.71.15l-.07,0-.08,0s-.07,0-.07,0v0l.84-.18a.12.12,0,0,0,.1-.06s.05-.07.07-.07Zm.24-1.15c.07.06.1.1.1.11a.15.15,0,0,1,0,.07.34.34,0,0,0,0,.1v.76l.31.5h0l.37-.36a.75.75,0,0,0,.19-.3s0,0,0,0,0,0,.08.12a.49.49,0,0,1,0,.13s0,0,0,0l-.18.12-.46.33,0,.08a7,7,0,0,0,.65.9,1.34,1.34,0,0,0,.59.27,0,0,0,0,1,0,0s0,0,0,0l-.35,0-.19,0s0,0-.07-.08c-.15-.28-.34-.63-.57-1l-.4-.7v1.86a1.15,1.15,0,0,1,0,.24c0,.07,0,.1-.07.1s0,0,0,0a6,6,0,0,0-.4-.48l0,0s0,0,0,0l.18.12a1,1,0,0,0,.21.15s0,0,0-.07V16.91a2.25,2.25,0,0,0,0-.52.4.4,0,0,1,0-.11h0A.35.35,0,0,1,66.51,16.33Z"/><path class="cls-2" d="M69.13,18.12a.6.6,0,0,1,0,.16v0l.75-.07a.07.07,0,0,0,.06,0l0-.05.08,0s.06,0,.06.06,0,0,0,.07a.23.23,0,0,0,0,.11c0,.23,0,.44,0,.63s0,.38,0,.49,0,.13,0,.13,0,0-.06-.07a.28.28,0,0,1,0-.1.18.18,0,0,1,0-.08h0l-.72.07s0,.1,0,.16,0,.09,0,.09,0,0,0-.07a.27.27,0,0,1,0-.1,1.14,1.14,0,0,1,0-.12c0-.11,0-.3,0-.58s0-.36,0-.57A2.64,2.64,0,0,0,69,18a0,0,0,0,1,0,0S69.1,18.05,69.13,18.12Zm.64,1.22h.06l.07,0,0,0a2,2,0,0,0,0-.21c0-.42,0-.71,0-.88l-.81.08v.42a2.8,2.8,0,0,0,.54-.07h.05l.05,0,0,0s0,0,0,0l-.64.07c0,.14,0,.29,0,.46v0A3.83,3.83,0,0,0,69.77,19.34Zm0-2.87a.62.62,0,0,1,0,.16v.06l1-.13c.07,0,.12,0,.13-.06s0-.06.06-.06,0,0,.08.06a.15.15,0,0,1,0,.06.1.1,0,0,1,0,.06.14.14,0,0,0,0,.09l-.09.84h0l.07,0,0,0s0,0-.09,0l-1.18.1v.13c0,.05,0,.08,0,.08s0,0,0-.07a.26.26,0,0,1,0-.1.83.83,0,0,1,0-.11c0-.1,0-.28,0-.53s0-.34,0-.54a2.36,2.36,0,0,0,0-.25,0,0,0,0,1,0,0S69.72,16.4,69.75,16.47Zm1.08,1.09.07-.92-1.12.14v.39a3.82,3.82,0,0,0,.73-.09h.08l.05,0,0,0s0,0-.07,0l-.83.09c0,.11,0,.23,0,.36v0A9,9,0,0,0,70.84,17.56Zm-.23.51a.4.4,0,0,1,0,.14l.81-.07a.07.07,0,0,0,.06,0l0-.06.08,0s.06,0,.06.06,0,0,0,.07a.23.23,0,0,0,0,.11c0,.24,0,.47,0,.67s0,.4,0,.52,0,.13,0,.13,0,0-.07-.07a.28.28,0,0,1,0-.1.31.31,0,0,1,0-.08v0h0l-.79.05v.16c0,.05,0,.08,0,.08s0,0-.05-.07a.35.35,0,0,1,0-.1,1.15,1.15,0,0,1,0-.12q0-.16,0-.57c0-.17,0-.36,0-.58a2.56,2.56,0,0,0,0-.27,0,0,0,0,1,0,0S70.58,18,70.6,18.07Zm.72,1.23h.07l.06,0,0,0c0-.06,0-.13,0-.21,0-.45,0-.76,0-.94l-.88.08c0,.09,0,.24,0,.45a3.57,3.57,0,0,0,.51,0h.05l.06,0,0,0s0,0,0,0l-.62.06c0,.14,0,.3,0,.48v0C71,19.33,71.25,19.31,71.32,19.29Z"/><path class="cls-2" d="M73.22,16.43a.58.58,0,0,1,.07.19h0l1-.1a2.86,2.86,0,0,0,.47-.07l.11,0,.08,0s0,0,0,0v0l-1.73.16c0,.2,0,.41,0,.63a3.83,3.83,0,0,1-.13.66,2.82,2.82,0,0,1-.24.57,3.38,3.38,0,0,1-.32.42l0,.05s0,0,0,0l0,0c.1-.15.18-.28.24-.39a2.18,2.18,0,0,0,.19-.42,3.53,3.53,0,0,0,.15-.63,5.93,5.93,0,0,0,.05-.88s0-.11,0-.2,0-.11,0-.13a0,0,0,0,1,0,0Zm2,.83s0,0,0,.07a0,0,0,0,1,0,0l-1.1.09h0a6.29,6.29,0,0,0,.43.47h0l.28-.27A.57.57,0,0,0,75,17.4s0,0,0,0,0,0,.05.09a.44.44,0,0,1,0,.1s0,0,0,0l-.14.09-.34.25.22.19a1.42,1.42,0,0,0,.72.23s0,0,0,0,0,0-.06,0l-.37,0-.19,0s-.07,0-.12-.09c-.25-.31-.5-.62-.76-.93l-.34,0v.83l.42-.27h0l0,0a4.6,4.6,0,0,0-.49.41l-.05,0-.05,0s0,0,0-.05v0l0,0a.15.15,0,0,0,0-.07s0-.09,0-.15v-.66l-.15,0-.08,0-.07,0s0,0,0-.06a0,0,0,0,1,0,0l.65,0,.41,0,.47,0,.24,0,.11,0A.11.11,0,0,1,75.25,17.26ZM73.47,18.6a.59.59,0,0,1,0,.16v0l1.15-.14a.19.19,0,0,0,.13-.06s0-.06.06-.06,0,0,.08.06,0,0,0,.06,0,0,0,.06a.13.13,0,0,0,0,.09l-.08.57h0l.07,0s0,0,0,0,0,0-.1,0l-1.33.1s0,.1,0,.15,0,.06,0,.06,0,0,0-.07a.32.32,0,0,1,0-.1.47.47,0,0,1,0-.08q0-.11,0-.4t0-.44a1.5,1.5,0,0,0,0-.2,0,0,0,0,1,0,0S73.44,18.53,73.47,18.6Zm1.35-1.72s0,0,0,.06a0,0,0,0,1,0,0l-.73.06-.47,0h0a.09.09,0,0,1-.07,0s0,0,0,0a0,0,0,0,1,0,0l.43,0,.27,0,.31,0,.16,0h.07Zm-.1,2.5h0l.06-.65-1.28.15c0,.13,0,.33,0,.6A10.64,10.64,0,0,0,74.72,19.39Z"/><path class="cls-2" d="M78.26,18.36a.45.45,0,0,1-.33.13.46.46,0,0,1-.46-.46.46.46,0,1,1,.79.33Zm-.06-.6a.38.38,0,0,0-.27-.11.36.36,0,0,0-.27.11.37.37,0,0,0-.11.27.37.37,0,0,0,.37.37.37.37,0,0,0,.27-.11.36.36,0,0,0,.11-.27A.38.38,0,0,0,78.19,17.77Z"/><rect class="cls-3" width="9.45" height="35"/><path class="cls-4" d="M4.17,9.46H4V9.17h-.5v.37H3.29V6.64h.87ZM4,7.8v-1h-.5v1ZM4,9V8h-.5V9ZM6.23,7H5.39v.54h.74v.19H4.45V7.55H5.2V7H4.32V6.82H5.2v-.4h.19v.4h.84Zm.08,1.36h-.4v1a.27.27,0,0,1-.1.25.81.81,0,0,1-.38.06H5.22l-.08-.2h.31a.55.55,0,0,0,.22,0,.1.1,0,0,0,0-.1V8.37H4.32V8.18h1.4V7.84h.18v.34h.4Zm-1.08.75-.16.1a3.05,3.05,0,0,0-.46-.56l.16-.11A3.82,3.82,0,0,1,5.23,9.12Z"/><path class="cls-4" d="M6.07,13.1a.24.24,0,0,1,0,.16.21.21,0,0,1-.14.07H5.38l-.06-.2h.47c.07,0,.1,0,.1-.08v-1.7H3.6v2H3.41V11.18H4.65V10.11h.18v1.07H6.07ZM4.18,11,4,11.07a2.91,2.91,0,0,0-.49-.73l.16-.1A4.31,4.31,0,0,1,4.18,11Zm1.2,1.84H4.11v-1H5.38Zm-.19-.19V12h-.9v.66ZM6,10.35a4.71,4.71,0,0,1-.52.71L5.3,11a3.71,3.71,0,0,0,.52-.69Z"/><path class="cls-4" d="M4.43,14.63a3.1,3.1,0,0,1-1.14,2.09l-.13-.15a2.83,2.83,0,0,0,1-1.74H3.3v-.2Zm1.89,1.9-.13.17a3.67,3.67,0,0,1-1.31-1.48v1.54a.31.31,0,0,1,0,.18.18.18,0,0,1-.11.07H4.16l-.06-.2h.49a.08.08,0,0,0,.09-.1V13.78h.19v.8a1.11,1.11,0,0,0,.18.57,5.08,5.08,0,0,0,.92-.9l.15.13a5.5,5.5,0,0,1-1,.95A3.15,3.15,0,0,0,6.32,16.52Z"/><path class="cls-4" d="M4.54,20.71H4.36v-.19H3.49v.19H3.32V19.12H4.54Zm-.18-1v-.43H3.49v.43Zm0,.62V19.9H3.49v.44ZM5.79,18.8H3.71V17.56H5.79Zm-.19-.71v-.35H3.89v.35Zm0,.54v-.35H3.89v.35Zm.57,2.08H6v-.19H5.08v.19H4.9V19.12H6.17Zm-.18-1v-.43H5.08v.43Zm0,.62V19.9H5.08v.44Z"/><path class="cls-4" d="M4.38,22.59a1.87,1.87,0,0,1-.27.4l.17.21-.11.16a2.24,2.24,0,0,0-.37-.42v1.48H3.63V23a4.67,4.67,0,0,1-.34.33l-.14-.13A2.61,2.61,0,0,0,4,22h-.8v-.18h1V22a2.11,2.11,0,0,1-.36.77l.14.12a1.48,1.48,0,0,0,.25-.36Zm-.46-1-.15.13a1.55,1.55,0,0,0-.32-.39l.12-.13A1.33,1.33,0,0,1,3.93,21.55ZM6.3,24.12l-.11.15a2.91,2.91,0,0,1-.84-1v1.15H5.18V23.26a3.57,3.57,0,0,1-.85,1l-.14-.12a3.33,3.33,0,0,0,.87-1H4.33v-.19h.85v-.31H4.47V21.27H6.11v1.34H5.36v.31h.93v.19H5.47A2.67,2.67,0,0,0,6.3,24.12ZM5.18,21.84v-.38H4.65v.38Zm0,.59V22H4.65v.42Zm.75-.59v-.38H5.36v.38Zm0,.59V22H5.36v.42Z"/><path class="cls-4" d="M6.22,26.06h-2v.52a4.21,4.21,0,0,0,.63-.14l0,.17q-.38.12-.84.21L4,26.65a.11.11,0,0,0,.05-.1v-.49H3.59a1.85,1.85,0,0,1-.35.95l-.15-.14a1.54,1.54,0,0,0,.28-.56,4.07,4.07,0,0,0,.06-.83V25H6.16v.18H3.62v.28H6v.17H3.61a2.58,2.58,0,0,1,0,.29H6.22Zm-.25,2H5.78V27.9h-2v.19H3.55V27H6Zm-.19-.38v-.56h-2v.56Zm.62-.93-.1.17A1.89,1.89,0,0,1,5,26.22l.17-.08a1.35,1.35,0,0,0,.3.3,2.24,2.24,0,0,0,.42-.31l.16.11a1.92,1.92,0,0,1-.4.3A2.53,2.53,0,0,0,6.4,26.78Z"/><line class="cls-5" x1="19.54" y1="12.72" x2="15.4" y2="19.76"/><line class="cls-5" x1="84.62" y1="13.33" x2="80.48" y2="20.38"/><path class="cls-6" d="M85.89,11a1.68,1.68,0,0,1-.77.61l0,0A2,2,0,0,0,85.6,11a1.42,1.42,0,0,0,.24-.59c0-.15-.11-.24-.33-.24s-.44-.13-.44-.4.17-.42.52-.42a.62.62,0,0,1,.49.23,1,1,0,0,1,.18.58A1.46,1.46,0,0,1,85.89,11Z"/><path class="cls-6" d="M87.32,11a1.68,1.68,0,0,1-.77.61l0,0A2,2,0,0,0,87,11a1.42,1.42,0,0,0,.24-.59c0-.15-.11-.24-.33-.24s-.44-.13-.44-.4.17-.42.52-.42a.62.62,0,0,1,.49.23,1,1,0,0,1,.18.58A1.46,1.46,0,0,1,87.32,11Z"/><g class="cls-7"><path class="cls-3" d="M92.18,16.82a21.2,21.2,0,0,1,3.09.31,11.51,11.51,0,0,1-3.08.59,11.57,11.57,0,0,1-3.09-.59,21.31,21.31,0,0,1,3.09-.31Zm5.24-.35A22.65,22.65,0,0,1,94.85,15a2.41,2.41,0,0,0-2-.41,2.29,2.29,0,0,0-.63.28,2.28,2.28,0,0,0-1.5-.29,2.61,2.61,0,0,0-1,.37L89.5,15l-3,1.7,2.87,2.55a4,4,0,0,0,1.58.88,4.76,4.76,0,0,0,1.3.19,4.22,4.22,0,0,0,1.57-.3,3,3,0,0,0,.86-.54l3.18-2.81-.45-.22Z"/><polygon class="cls-3" points="95.23 22.44 96.78 21.78 96.95 21.95 97.35 22.9 95.65 23.63 95.24 22.68 95.23 22.44"/><polygon class="cls-3" points="95.21 22.36 96.73 21.71 96.22 20.51 95.77 20.42 95.4 19.56 94.58 19.91 94.95 20.77 94.7 21.16 95.21 22.36"/><path class="cls-4" d="M94.22,19c.13.28.19.24.24.35a3.46,3.46,0,0,1,.06.36.6.6,0,0,0,.06.1l.38-.16.38-.16a.59.59,0,0,0,0-.11c0-.06-.17-.18-.22-.29s0-.13-.09-.42-.16-.23-.4-.46-.46-.56-.49-.56.07.41.06.74S94.09,18.68,94.22,19Z"/></g></svg>