<svg id="圖層_1" data-name="圖層 1" xmlns="http://www.w3.org/2000/svg" viewBox="0 0 100 35"><defs><style>.cls-1{fill:#f5f5f5;stroke:#fff;}.cls-1,.cls-3,.cls-5{stroke-miterlimit:10;}.cls-2{fill:#3d3d3d;}.cls-3,.cls-5{fill:none;stroke:#647384;}.cls-3{stroke-width:0.5px;}.cls-4{fill:#647384;}.cls-5{stroke-width:0.3px;}.cls-6{fill:#ad8066;}.cls-7{opacity:0.4;}</style></defs><title>lesson_cont_2</title><rect class="cls-1" x="-152.5" y="-15.5" width="375" height="177"/><path class="cls-2" d="M31.69,13.73a1.27,1.27,0,0,1-.13.63c0,.08-.08.12-.13.13s0,0-.05-.06a.28.28,0,0,1,0-.07.09.09,0,0,1,0-.07,1.1,1.1,0,0,0,.26-.65s0,0,0,0S31.69,13.65,31.69,13.73Zm.46-2.52a.27.27,0,0,1,0,.11.07.07,0,0,1,0,.05l-.13.16-.47.88.63-.12a2.36,2.36,0,0,0,.21-.53s0,0,0,0,0,0,.08.1a.32.32,0,0,1,0,.11.08.08,0,0,1,0,.06l-.18.2-.66,1.06.7-.16-.09-.23,0-.07a0,0,0,0,1,0,0l0,0a2.08,2.08,0,0,1,.21.33.32.32,0,0,1,0,.12.23.23,0,0,1,0,.09s0,.07-.05.07,0,0,0-.06a2.36,2.36,0,0,0-.07-.24,5.57,5.57,0,0,0-.7.23l-.11,0s0,0,0,0a.13.13,0,0,1,0-.06,0,0,0,0,1,0,0,.75.75,0,0,0,.19-.19q.24-.37.44-.72h0a5.31,5.31,0,0,0-.58.16l-.09,0s0,0,0,0a.15.15,0,0,1,0-.06,0,0,0,0,1,0,0,.6.6,0,0,0,.14-.16c.11-.21.22-.41.31-.62a2.28,2.28,0,0,0,.17-.5s0,0,0,0S32.11,11.15,32.15,11.22ZM32,13.64a2,2,0,0,1,.16.41.2.2,0,0,1,0,.1s0,.07-.06.07,0,0,0,0c0-.18,0-.33-.07-.43s0-.11,0-.15a0,0,0,0,1,0,0Zm.32-.13a1.74,1.74,0,0,1,.21.28.23.23,0,0,1,0,.1.21.21,0,0,1,0,.09s0,.07-.05.07,0,0,0,0a2.61,2.61,0,0,0-.18-.44l0-.06a0,0,0,0,1,0,0Zm.45-1.57a.67.67,0,0,1,.06.2v0L34.12,12a.12.12,0,0,0,.1-.07s0-.05.05-.05l.06,0h0s.06,0,.06.06a.13.13,0,0,1,0,.07.18.18,0,0,0,0,.13l-.06,2.09c0,.08,0,.12,0,.12s0,0-.06-.1a.35.35,0,0,1,0-.11.16.16,0,0,1,0-.07,1,1,0,0,0,0-.24l.06-1.77-.64.07V13l.23,0,.15,0H34l.08,0s0,0,0,.06a0,0,0,0,1,0,0l-.55,0V14l.28,0,.1,0L34,14l0,.05s0,0-.09,0l-1.12.1v.14a1.14,1.14,0,0,1,0,.2s0,.05,0,.05,0,0-.06-.08a.31.31,0,0,1,0-.13.1.1,0,0,1,0-.07,1.23,1.23,0,0,0,0-.2c0-.44,0-.91,0-1.41,0-.27,0-.48,0-.64s0-.11,0-.17,0,0,0,0S32.74,11.85,32.78,11.93Zm.68,1.15-.4,0h0a.09.09,0,0,1-.06,0s0,0,0,0a0,0,0,0,1,0,0l.38,0,.16,0v-.84l-.63.07q0,.94,0,1.53c0,.12,0,.23,0,.31l.6-.05Z"/><path class="cls-2" d="M35.42,13.49a2.89,2.89,0,0,1,0,.38,2.43,2.43,0,0,1-.11.3c0,.08-.07.13-.09.13l0,0a1.1,1.1,0,0,1,0-.18.16.16,0,0,1,0-.08l.09-.15a1.23,1.23,0,0,0,.1-.36s0,0,0,0S35.42,13.47,35.42,13.49Zm.44-2.22a.26.26,0,0,1,0,.1.07.07,0,0,1,0,0l-.11.15-.4.8.44-.05a2,2,0,0,0,.2-.47,0,0,0,0,1,0,0s0,0,.07.09a.29.29,0,0,1,0,.1s0,0,0,0l-.15.16-.56.88L36,13l-.06-.18a.16.16,0,0,1,0-.05,0,0,0,0,1,0,0l0,0,.16.23a.2.2,0,0,1,0,.08.2.2,0,0,1,0,.09s0,.07-.06.07,0,0,0,0L36,13a5.82,5.82,0,0,0-.6.17l-.09,0s0,0,0,0l0,0a0,0,0,0,1,0,0,.56.56,0,0,0,.16-.16c.13-.19.25-.39.35-.58l-.39.1-.07,0s0,0,0,0a.11.11,0,0,1,0,0,0,0,0,0,1,0,0,.37.37,0,0,0,.11-.15c.1-.19.19-.37.26-.56a2.14,2.14,0,0,0,.14-.45s0,0,0,0S35.83,11.21,35.86,11.27Zm-.16,2.22a2.78,2.78,0,0,1,.11.39.2.2,0,0,1,0,.1s0,.07-.06.07,0,0,0,0c0-.18,0-.31,0-.42s0-.11,0-.14a0,0,0,0,1,0,0Zm.22-.15a2,2,0,0,1,.19.28.26.26,0,0,1,0,.1.27.27,0,0,1,0,.08s0,.07,0,.07,0,0,0,0a3.2,3.2,0,0,0-.16-.44.15.15,0,0,1,0-.06v0Zm1.1-.19s0,0,0,.06a0,0,0,0,1,0,0l-.37,0v.57l.38-.15h0a.05.05,0,0,1,0,0l-.6.32-.23.13,0,0s0,0-.07,0l0-.06a0,0,0,0,1,0,0l.37-.12.15-.06v-.59h0l-.3,0h0l-.06,0s0,0,0,0a0,0,0,0,1,0,0l.27,0,.16,0v-.42a.43.43,0,0,0,0-.15.25.25,0,0,1,0-.08,0,0,0,0,1,0,0,.15.15,0,0,1,.07,0s.06.06.06.08a.2.2,0,0,1,0,0,.6.6,0,0,0,0,.09v.41l.11,0,.11,0h0Zm.08-1.55s0,0,0,.06a0,0,0,0,1,0,0l-.54,0h0l0,0a.18.18,0,0,1,0,.08.06.06,0,0,1,0,0,.28.28,0,0,0-.07.11l-.25.53.59-.11-.11-.18,0,0v0l0,0a1.55,1.55,0,0,1,.22.23s.05.07.05.08a.27.27,0,0,1,0,.08s0,.07,0,.07,0,0,0,0l-.07-.16a6.43,6.43,0,0,0-.66.2l-.07,0s0,0,0,0a.09.09,0,0,1,0,0l0,0a.41.41,0,0,0,.13-.1.89.89,0,0,0,.11-.19,2.92,2.92,0,0,0,.16-.54l-.26,0h0l-.07,0s0,0,0,0a0,0,0,0,1,0,0l.31,0,.2,0,.22,0,.12,0H37Zm.42-.36a.22.22,0,0,1,.05.1.27.27,0,0,1,0,.09,2.66,2.66,0,0,0-.09.33,5.6,5.6,0,0,1-.17.56,4.61,4.61,0,0,0,.72-.09h.07l.06,0,0,0s0,0-.07,0l-.35,0,0,0a.3.3,0,0,1,.07.11.08.08,0,0,1,0,0,.48.48,0,0,0-.09.21,4.25,4.25,0,0,1-.21.63,5.56,5.56,0,0,0,.46.69,1,1,0,0,0,.47.24v0s0,0,0,0l-.31.06-.16,0s0,0-.06-.07l-.42-.88a2,2,0,0,1-.27.44,4.68,4.68,0,0,1-.5.49.57.57,0,0,1-.17.11,0,0,0,0,1,0,0s0,0,0,0a4.92,4.92,0,0,0,.53-.53,1.79,1.79,0,0,0,.27-.39l.07-.16-.32-.67-.09.17L37,13h0v0a6.58,6.58,0,0,0,.22-.62,6.12,6.12,0,0,0,.15-.6,3.56,3.56,0,0,0,.05-.5s0-.06,0-.06S37.48,11.18,37.52,11.24Zm-.05,2v0c0-.1.07-.21.11-.34a2.22,2.22,0,0,0,.1-.6l-.44,0-.11.28Z"/><path class="cls-2" d="M40.56,13a.5.5,0,0,1-.23.18h0a.59.59,0,0,0,.15-.18.42.42,0,0,0,.07-.18s0-.07-.1-.07-.13,0-.13-.12.05-.13.15-.13a.18.18,0,0,1,.15.07.28.28,0,0,1,.05.17A.43.43,0,0,1,40.56,13Z"/><path class="cls-2" d="M44.25,11.21a.17.17,0,0,1,0,.09s0,0-.06,0a1.53,1.53,0,0,0-.33.1v.37l.24,0,.18,0h.08l.08,0a.1.1,0,0,1,0,.06,0,0,0,0,1,0,0l-.6,0v.59s0,0,0,0a.26.26,0,0,1,0,.09l-.12.13,0,0a5.21,5.21,0,0,1,.5.24q.11.06.11.1a.8.8,0,0,1,0,.1s0,.05,0,.05,0,0-.07,0a3,3,0,0,0-.58-.43h0l0,0a2.48,2.48,0,0,1-.32.29,3.8,3.8,0,0,1-.47.28l-.16.07s0,0,0,0l0,0a3.88,3.88,0,0,0,.42-.26,2.48,2.48,0,0,0,.41-.36,1,1,0,0,0,.2-.3l0,0a.15.15,0,0,1,0-.1.52.52,0,0,1,0-.11.9.9,0,0,0,0-.19l-.18.15a2.86,2.86,0,0,1-.51.32.64.64,0,0,1-.18.07s0,0,0,0l0,0a3.06,3.06,0,0,0,.51-.35,2,2,0,0,0,.3-.3h-.05l-.5,0h-.05l-.07,0s0,0,0,0h0l.45,0,.28,0v-.35a4.75,4.75,0,0,1-.52.15l-.09,0s0,0,0,0l0,0a4.89,4.89,0,0,0,.58-.21,1.26,1.26,0,0,0,.34-.19l.07,0S44.22,11.18,44.25,11.21ZM43.86,13s.05.07.05.09a.36.36,0,0,1,0,.06.55.55,0,0,0,0,.12v.32h0l.23-.2a.39.39,0,0,0,.12-.17l0,0s0,0,0,.08a.43.43,0,0,1,0,.08l0,0-.11.06-.27.16h0a3.71,3.71,0,0,1,.4.26c.06,0,.09.08.09.11a.61.61,0,0,1,0,.11s0,.06,0,.06,0,0,0,0a2.46,2.46,0,0,0-.44-.46h0v.42a1.17,1.17,0,0,1,0,.27c0,.06,0,.09-.06.1a.07.07,0,0,1-.05,0,4.18,4.18,0,0,0-.31-.32s0,0,0,0a0,0,0,0,1,0,0l.07,0a.77.77,0,0,0,.28.17s0,0,0-.12,0-.16,0-.26v-.16l-.52.27-.2.11,0,0-.07,0,0,0a0,0,0,0,1,0,0l.32-.11.52-.21v-.48a.63.63,0,0,0,0-.13.3.3,0,0,1,0-.06h0Zm-.59.25.28.16s.05.05.05.07a.36.36,0,0,1,0,.1s0,0,0,0,0,0,0,0l-.23-.26-.07-.08a0,0,0,0,1,0,0ZM44.09,12l.37.18q.08,0,.08.08a.56.56,0,0,1,0,.11s0,.06,0,.06,0,0,0,0a2.21,2.21,0,0,0-.4-.37l0,0v0Zm1-.82c.06.05.09.09.09.11a.54.54,0,0,1,0,.12,3.49,3.49,0,0,0,0,.44v.41a1.75,1.75,0,0,0,.57-.14l.06,0,.05,0,0,0s0,0-.05,0l-.66.13v.77l.33,0c.07,0,.12,0,.13-.06s0-.06.06-.06,0,0,.08.06,0,0,0,.06a.11.11,0,0,1,0,.06.14.14,0,0,0,0,.09l-.1.75h0l.07,0,0,.05s0,0-.07,0l-.91.07v.18c0,.08,0,.13,0,.13s0,0,0-.06a.28.28,0,0,1,0-.12.4.4,0,0,1,0-.09c0-.08,0-.24,0-.49s0-.5,0-.65,0-.13,0-.14,0,0,0,0,0,0,.05.1a.75.75,0,0,1,0,.19l.28,0V11.55a1.65,1.65,0,0,0,0-.3.69.69,0,0,1,0-.13s0,0,0,0Zm.42,2.8.08-.83-.84.11s0,.05,0,.08v.72A6.46,6.46,0,0,0,45.49,14Z"/><path class="cls-2" d="M49.46,11.87l.07.06s0,0,0,0L48.2,12v.57h0l.51,0,.28,0h.12a.14.14,0,0,1,.08,0,.12.12,0,0,1,0,.07s0,0,0,0l-1,0v0l.38.39a4.68,4.68,0,0,0,.67.57,1.87,1.87,0,0,0,.6.17l0,0,0,0-.38.07-.2,0a.09.09,0,0,1-.08,0l-.58-.68-.39-.46v1.38c0,.1,0,.2,0,.3s0,.13,0,.13,0,0-.08-.11a.24.24,0,0,1,0-.1.11.11,0,0,1,0-.07.38.38,0,0,0,0-.12,2.53,2.53,0,0,0,0-.31V12.81a3.8,3.8,0,0,1-.57.68,5.66,5.66,0,0,1-.85.64.35.35,0,0,1-.15.07s0,0,0,0l.06,0a6.55,6.55,0,0,0,.92-.75,5.42,5.42,0,0,0,.55-.69h0l-.78,0h-.09l-.07,0s-.05,0-.05-.05a0,0,0,0,1,0,0l.72,0,.33,0V12h-.17l-.92.07h-.09a.19.19,0,0,1-.11,0s0,0,0,0,0,0,0,0l1.27,0h0v-.43a1.53,1.53,0,0,0,0-.34.34.34,0,0,1,0-.11h0l.11.07c.05.05.08.09.08.1a.3.3,0,0,1,0,.09.52.52,0,0,0,0,.18v.44a9.29,9.29,0,0,0,1.09-.11l.08,0Z"/><path class="cls-2" d="M50.68,13.6a1.81,1.81,0,0,1,0,.39,2,2,0,0,1-.14.31c-.06.09-.1.14-.12.14l0,0a1.2,1.2,0,0,1,0-.18.16.16,0,0,1,0-.09,1.07,1.07,0,0,0,.11-.16,1,1,0,0,0,.14-.38s0,0,0,0S50.68,13.58,50.68,13.6Zm.58-2.34a.27.27,0,0,1,0,.11.07.07,0,0,1,0,0l-.14.16-.49.84.57-.09a2.2,2.2,0,0,0,.21-.49,0,0,0,0,1,0,0s0,0,.08.1a.33.33,0,0,1,0,.11.08.08,0,0,1,0,.06l-.19.19-.66,1,.74-.18-.07-.18a.58.58,0,0,1-.05-.14,0,0,0,0,1,0,0l0,0a3.52,3.52,0,0,1,.23.34.37.37,0,0,1,0,.15.38.38,0,0,1,0,.11s0,0,0,0,0,0,0-.06l-.1-.24a5.86,5.86,0,0,0-.75.25l-.11,0s0,0,0,0a.14.14,0,0,1,0-.06,0,0,0,0,1,0,0,.63.63,0,0,0,.19-.18,7.25,7.25,0,0,0,.44-.68h0l-.52.14-.09,0s0,0,0,0a.14.14,0,0,1,0-.06,0,0,0,0,1,0,0,.54.54,0,0,0,.14-.16c.12-.2.23-.4.32-.59a2.35,2.35,0,0,0,.18-.48s0,0,0,0S51.22,11.2,51.26,11.26ZM51,13.62a2.29,2.29,0,0,1,.17.44.23.23,0,0,1,0,.11s-.05.07-.07.07,0,0,0,0c0-.2,0-.36-.06-.47a1.17,1.17,0,0,1,0-.16,0,0,0,0,1,0,0S51,13.57,51,13.62Zm.33-.14a2.27,2.27,0,0,1,.22.3.33.33,0,0,1,0,.11.21.21,0,0,1,0,.09s0,.07-.06.07,0,0,0,0a2.81,2.81,0,0,0-.19-.47.18.18,0,0,1,0-.07h0ZM52,11.54a.61.61,0,0,1,0,.17v0l.76-.11a.19.19,0,0,0,.13-.06s0-.06.06-.06,0,0,.08.06,0,0,0,.06a.11.11,0,0,1,0,.06.13.13,0,0,0,0,.09L53,14.16a2.3,2.3,0,0,0,.43-.08l.07,0,.1,0,.08.07a0,0,0,0,1,0,0c-.32,0-.73,0-1.24.1l-.72.08-.07,0a.23.23,0,0,1-.12-.05s0,0,0-.05,0,0,0,0l.52,0,0-1.38c0-.25,0-.61,0-1.07a3.48,3.48,0,0,0,0-.37,0,0,0,0,1,0,0S52,11.46,52,11.54Zm.47,2.67.43,0,0-2.46-.9.12,0,.73a1.75,1.75,0,0,0,.47-.09h.05l.05,0,0,0s0,0,0,0l-.57.09v.67a2.39,2.39,0,0,0,.49-.08h.05l.07,0,0,0s0,0,0,0l-.6.08,0,.83Z"/><path class="cls-2" d="M54.52,13.48a2.72,2.72,0,0,1,0,.37,2.31,2.31,0,0,1-.11.28c0,.08-.07.13-.09.13s0,0,0,0a.79.79,0,0,1,0-.17.16.16,0,0,1,0-.08l.09-.15a1.15,1.15,0,0,0,.1-.36s0,0,0,0S54.52,13.46,54.52,13.48ZM55,11.24a.29.29,0,0,1,0,.1.07.07,0,0,1,0,0l-.12.15-.43.77.5-.1a2.05,2.05,0,0,0,.16-.43s0,0,0,0,0,0,.07.09a.36.36,0,0,1,0,.1.07.07,0,0,1,0,.05l-.15.18-.55.94.59-.14L55,12.74a.22.22,0,0,1,0-.07h0l0,0a2.25,2.25,0,0,1,.2.32.29.29,0,0,1,0,.11.27.27,0,0,1,0,.08s0,.07,0,.07,0,0,0-.05L55.12,13a4.19,4.19,0,0,0-.59.2l-.09,0s0,0,0,0a.1.1,0,0,1,0-.05,0,0,0,0,1,0,0,.71.71,0,0,0,.16-.17c.14-.22.26-.43.37-.65l0,0a3.33,3.33,0,0,0-.46.14l-.08,0s0,0,0,0a.1.1,0,0,1,0,0,0,0,0,0,1,0,0,.53.53,0,0,0,.13-.14c.11-.18.2-.37.29-.54a1.71,1.71,0,0,0,.16-.44s0,0,0,0S55,11.18,55,11.24Zm-.22,2.21a2.68,2.68,0,0,1,.12.42.2.2,0,0,1,0,.1s0,.07-.06.07,0,0,0,0c0-.18,0-.33,0-.44s0-.12,0-.15a0,0,0,0,1,0,0Zm.31-.11a2.5,2.5,0,0,1,.17.29.36.36,0,0,1,0,.1.23.23,0,0,1,0,.09s0,.07-.06.07,0,0,0,0a3.76,3.76,0,0,0-.13-.46.14.14,0,0,1,0-.06,0,0,0,0,1,0,0Zm1.16-1.52s0,0,0,0h0l-.19,0,0,0a.27.27,0,0,1,0,.1.09.09,0,0,1,0,0l-.16.43.33,0,.22,0c0-.28-.07-.58-.09-.93a1.14,1.14,0,0,0,0-.24.28.28,0,0,1,0-.09s0,0,0,0l.11.06s.07.07.07.09a.11.11,0,0,1,0,0,.18.18,0,0,0,0,.07,7.73,7.73,0,0,0,.07,1l.18,0,.26-.05.11,0a.12.12,0,0,1,.07,0s0,0,0,.07a0,0,0,0,1,0,0l-.65.07a7.27,7.27,0,0,0,.16.76,2.51,2.51,0,0,0,.18-.54s0,0,0,0,0,0,.06.08a.26.26,0,0,1,0,.1.08.08,0,0,1,0,.05l-.16.29-.08.16a2.26,2.26,0,0,0,.25.57c.09.15.16.22.21.22s0,0,0-.06v-.55a0,0,0,0,1,0,0l0,0a5.79,5.79,0,0,0,.06.68.85.85,0,0,1,0,.17s0,0,0,0a.18.18,0,0,1-.1,0,1.18,1.18,0,0,1-.24-.24,2.27,2.27,0,0,1-.26-.46,1.44,1.44,0,0,1-.07-.21l-.16.26a3.06,3.06,0,0,1-.28.35l0,0s0,0,0,0l0,0a4.14,4.14,0,0,0,.41-.64l0,0a4.59,4.59,0,0,1-.14-.57c0-.09,0-.19-.05-.29l-.41,0c-.4,0-.64.07-.73.1l-.08,0a.12.12,0,0,1-.07,0s-.05,0-.05-.06a0,0,0,0,1,0,0l.47,0,0,0a3.08,3.08,0,0,0-.12-.38.17.17,0,0,1,0-.05v0l0,0a1.5,1.5,0,0,1,.15.24.25.25,0,0,1,0,.09.23.23,0,0,1,0,.08l0,0,.18,0h.07c0-.13,0-.24.06-.33s0-.21,0-.28L55.6,12l-.11,0a.08.08,0,0,1-.06,0,.06.06,0,0,1,0,0v0l.69-.06h.09Zm-.72,1.08a.42.42,0,0,1,0,.11l.47-.08a.07.07,0,0,0,.05,0s0,0,0,0l.07,0s.05,0,.05,0,0,0-.05.06a.2.2,0,0,0,0,.11c0,.23,0,.44,0,.63s0,.38,0,.49,0,.13,0,.13,0,0-.05-.07a.27.27,0,0,1,0-.08.29.29,0,0,1,0-.08c0-.06,0-.15,0-.25,0-.43,0-.73,0-.89l-.52.1v.41a1.49,1.49,0,0,0,.31-.05h0l.05,0,0,0,0,0-.4,0c0,.15,0,.33,0,.54A1.26,1.26,0,0,0,55.9,14h0l.05,0,0,0s0,0,0,0l-.43.05c0,.07,0,.14,0,.22s0,.08,0,.08,0,0-.05-.06a.22.22,0,0,1,0-.09.94.94,0,0,1,0-.11c0-.11,0-.3,0-.57s0-.35,0-.56,0-.23,0-.26v0S55.51,12.84,55.53,12.91Zm.13-1.64a1.65,1.65,0,0,1,.21.24.24.24,0,0,1,0,.09.32.32,0,0,1,0,.09s0,.06,0,.06,0,0,0,0a2.33,2.33,0,0,0-.18-.4.12.12,0,0,1,0-.05v0Zm1.1.36.27.24a.19.19,0,0,1,0,.11.51.51,0,0,1,0,.13s0,0,0,0,0,0,0,0l-.21-.37a.36.36,0,0,1-.06-.11,0,0,0,0,1,0,0Z"/><path class="cls-2" d="M58.38,12.21a1.31,1.31,0,0,1-.12.62c0,.08-.08.12-.12.13s0,0-.05-.06a.32.32,0,0,1,0-.07.1.1,0,0,1,0-.07,1.09,1.09,0,0,0,.25-.63s0,0,0,0S58.38,12.13,58.38,12.21Zm.36-1c.05,0,.08.08.08.1a.28.28,0,0,1,0,.08.51.51,0,0,0,0,.16v.33l0,0,.36.21a.08.08,0,0,1,0,.07s0,.06,0,.1,0,.06,0,.06,0,0,0,0a2.7,2.7,0,0,0-.34-.36v2.28c0,.09,0,.18,0,.27s0,.12,0,.12,0,0-.08-.1a.22.22,0,0,1,0-.09.13.13,0,0,1,0-.06.59.59,0,0,0,0-.11,2.14,2.14,0,0,0,0-.28V11.54a2,2,0,0,0,0-.31.35.35,0,0,1,0-.11,0,0,0,0,1,0,0Zm1.92.79.06.07a.09.09,0,0,1,0,.08.09.09,0,0,0,0,.06l-.09.75a3.15,3.15,0,0,0,.45-.07l.07,0,.1,0s.07.05.07.06,0,0,0,0L60,13q.1.18.29.45a4.59,4.59,0,0,0,.52.69,1.11,1.11,0,0,0,.47.21l0,0,0,0-.31,0-.16,0s0,0-.06-.06l-.45-.77-.33-.57v.09a2.16,2.16,0,0,1-.21.56,2.08,2.08,0,0,1-.36.46,1.35,1.35,0,0,1-.29.25.56.56,0,0,1-.15.1s0,0,0,0,0,0,0,0a2.38,2.38,0,0,0,.38-.36,1.86,1.86,0,0,0,.35-.49,1.78,1.78,0,0,0,.19-.5s0-.06,0-.09l-.62.05h-.07a.19.19,0,0,1-.11,0s0,0,0,0,0,0,0,0l.82,0c0-.18,0-.43.06-.74a.22.22,0,0,1,0-.05l-.35,0-.13,0a.1.1,0,0,1-.07,0s0,0,0,0v0l.57-.07c0-.23,0-.42,0-.59s0-.24,0-.3l0-.12h0l.1.08c.06.06.09.1.09.11a.34.34,0,0,1,0,.09.66.66,0,0,0,0,.25c0,.18,0,.34,0,.48l.43,0a.12.12,0,0,0,.1-.05s0-.07.05-.07Zm-.71,1H60l.41,0,.1-.82-.53.05C60,12.52,60,12.78,59.95,13Z"/><path class="cls-2" d="M62.69,12.4a.16.16,0,0,1,0,.07.06.06,0,0,1,0,0,2.55,2.55,0,0,0-.25.46.24.24,0,0,0,0,.08.18.18,0,0,0,0,.07s0,.1.07.18a.35.35,0,0,1,0,.12.61.61,0,0,1-.09.26,1.09,1.09,0,0,1-.12.19,2.05,2.05,0,0,1,.35.08,9.47,9.47,0,0,0,1,.26,4.29,4.29,0,0,0,.71.12,2.23,2.23,0,0,0,.44-.09l.18,0s0,0,0,0,0,0,0,0l-.44.23-.16.08a.26.26,0,0,1-.12,0c-.76-.27-1.31-.44-1.65-.52a2,2,0,0,0-.44-.08L62,14l-.14,0a.13.13,0,0,1-.08,0s0,0,0,0l0,0H62l.3,0,0-.06a.88.88,0,0,0,.14-.39.85.85,0,0,0-.09-.32.07.07,0,0,1,0-.05.08.08,0,0,1,0-.05,2.89,2.89,0,0,0,.11-.3.62.62,0,0,0,0-.18l-.37,0-.16,0-.1,0a.11.11,0,0,1-.07,0l0,0a0,0,0,0,1,0,0l.59-.09a.31.31,0,0,0,.16,0,.08.08,0,0,1,.15,0Zm-.54-1a2.76,2.76,0,0,1,.28.28.23.23,0,0,1,.05.12.64.64,0,0,1,0,.14s0,0,0,0,0,0,0,0l-.23-.41a.44.44,0,0,1-.07-.13h0Zm2.62.16s.05,0,.05.07a0,0,0,0,1,0,0l-.94.08v.39l.45,0a.21.21,0,0,0,.13-.06s0-.06.06-.06,0,0,.08.06,0,0,0,.06a.11.11,0,0,1,0,.06.15.15,0,0,0,0,.09l-.07.36h0l.06,0,0,0s0,0-.1,0l-.66.06v1c0,.1,0,.2,0,.3s0,.13,0,.13,0,0-.08-.11a.2.2,0,0,1,0-.1.19.19,0,0,1,0-.07.22.22,0,0,0,0-.11,2.61,2.61,0,0,0,0-.31v-.52a2.42,2.42,0,0,1-.2.24,3.63,3.63,0,0,1-.62.52.7.7,0,0,1-.23.11s0,0,0,0l0,0a3.65,3.65,0,0,0,.62-.53,3,3,0,0,0,.37-.46l-.55.05v.08c0,.05,0,.08,0,.08s0,0-.07-.08a.16.16,0,0,1,0-.09.43.43,0,0,1,0-.08s0-.15,0-.29,0-.11,0-.17,0-.13,0-.16,0-.08,0-.08,0,0,0,.06a.66.66,0,0,1,0,.11l.6-.07v-.39h0l-.7.07-.08,0-.08,0s-.06,0-.06-.06a0,0,0,0,1,0,0l.64,0,.3,0v-.12a1.53,1.53,0,0,0,0-.34.4.4,0,0,1,0-.11,0,0,0,0,1,0,0l.11.08c.05.05.08.09.08.1a.3.3,0,0,1,0,.09.65.65,0,0,0,0,.18v.12h0l.46,0,.25,0,.11,0A.15.15,0,0,1,64.77,11.57Zm-1,1.11v-.45l-.59.06s0,.06,0,.08,0,.24,0,.35Zm.11,0a3,3,0,0,0,.52-.07l.06-.44-.58.06Zm.2.29a3.81,3.81,0,0,1,.5.33c.08.06.11.1.11.14a.52.52,0,0,1,0,.1s0,.06,0,.06,0,0-.06-.05A3.09,3.09,0,0,0,64,13s0,0,0,0v0Z"/><path class="cls-2" d="M67.19,11.18c.06.05.09.09.09.11a.57.57,0,0,1,0,.12,3.37,3.37,0,0,0,0,.44v.71l.66-.08a1.67,1.67,0,0,0,.31-.06l.07,0,.09,0s.06,0,.06.05h0l-1.18.15V14a11.24,11.24,0,0,0,1.41-.15l.1,0,.1.05.08.07s0,0,0,0L67,14.12l-1.09.09-.1,0a.22.22,0,0,1-.12-.05s0,0,0-.05,0,0,0,0c.22,0,.7,0,1.43-.05V11.55a1.65,1.65,0,0,0,0-.3.69.69,0,0,1,0-.13,0,0,0,0,1,0,0Z"/><path class="cls-2" d="M70.78,11.15a.28.28,0,0,1,.06.12.09.09,0,0,1,0,.07,1.07,1.07,0,0,0-.21.28l-.1.15.5,0,.39,0a.16.16,0,0,0,.11,0s0-.06.05-.06l.07,0,.05.07s0,0,0,0l0,0a.84.84,0,0,0-.13.13l-.4.48.64-.08c.07,0,.12,0,.13-.06s0-.06.06-.06,0,0,.08.06,0,0,0,.06a.11.11,0,0,1,0,.06.14.14,0,0,0,0,.09l-.11.63h.08l.07,0,0,0s0,0-.13,0l-1.66.13v.29q0,.51.09.56a.42.42,0,0,0,.28.1l.83,0a5.17,5.17,0,0,0,.64,0c.13,0,.18-.07.17-.13a3.83,3.83,0,0,0,.07-.62,0,0,0,0,1,0,0l0,0a1.87,1.87,0,0,0,.15.67.45.45,0,0,1,0,.12s0,.07-.15.08-.42,0-1,0c-.39,0-.67,0-.83,0a.45.45,0,0,1-.32-.13c-.1-.07-.14-.26-.14-.58v-1s0-.12,0-.23,0-.08,0-.12a3.47,3.47,0,0,1-.46.41l-.06,0s0,0,0,0l0,0a3.48,3.48,0,0,0,.5-.5,3.69,3.69,0,0,0,.45-.65.82.82,0,0,0,.11-.4s0,0,0,0S70.73,11.09,70.78,11.15Zm-.59,1.17a.9.9,0,0,1,.05.15l.77-.09c.1-.13.18-.24.24-.34l.19-.29-.29,0a3.88,3.88,0,0,0-.5.08h-.06a.11.11,0,0,1-.08,0l0,0a3,3,0,0,1-.31.39l0,0Zm.06.89.75,0v-.7l-.75.08Zm1.51-.13.1-.71-.75.08v.7A4.46,4.46,0,0,0,71.76,13.07Z"/><path class="cls-2" d="M75,13a.5.5,0,0,1-.23.18h0a.59.59,0,0,0,.15-.18A.42.42,0,0,0,75,12.8s0-.07-.1-.07-.13,0-.13-.12.05-.13.15-.13a.18.18,0,0,1,.15.07.28.28,0,0,1,.05.17A.43.43,0,0,1,75,13Z"/><path class="cls-2" d="M32.25,18a.27.27,0,0,1,.05.11.09.09,0,0,1,0,.06.93.93,0,0,0-.17.24l-.12.18.08.14a2,2,0,0,1,.15.45,3.6,3.6,0,0,1,.07.72,5.09,5.09,0,0,1,0,.62,1.91,1.91,0,0,1-.12.52c0,.11-.07.16-.1.16s-.07,0-.11-.14a3.48,3.48,0,0,0-.29-.42l0-.07a0,0,0,0,1,0,0s.07.05.16.16.21.23.24.23,0,0,.06-.07a1.77,1.77,0,0,0,.08-.39,5,5,0,0,0,0-.63,5.49,5.49,0,0,0-.07-.61,3,3,0,0,1-.19.36,4,4,0,0,1-.53.68c-.11.1-.17.15-.2.15a0,0,0,0,1,0,0l0,0a4.19,4.19,0,0,0,.54-.68,3.84,3.84,0,0,0,.33-.62v0a1.77,1.77,0,0,0-.16-.38,2.36,2.36,0,0,1-.19.24,3,3,0,0,1-.44.41l0,0s0,0,0,0l0,0a3.06,3.06,0,0,0,.42-.44,3.13,3.13,0,0,0,.2-.27,2.42,2.42,0,0,0-.27-.34.6.6,0,0,1-.13-.15h0a.82.82,0,0,1,.18.15,3.07,3.07,0,0,1,.25.28l.13-.23a.78.78,0,0,0,.1-.35s0,0,0,0S32.2,17.92,32.25,18Zm.38.08a.5.5,0,0,1,0,.13L33.9,18s0,0,.07,0l0,0,.06,0,0,.05a0,0,0,0,1,0,0,.32.32,0,0,0-.08.18c0,.11,0,.23-.05.34H34l.05,0,0,0s0,0-.1,0l-1,.1a.2.2,0,0,1,0,.08.05.05,0,0,1,0,0,.44.44,0,0,0-.1.15l-.08.13L34,19.07a.12.12,0,0,0,.1,0s0,0,.05,0l.08,0s0,0,0,0a0,0,0,0,1,0,0,.25.25,0,0,0-.07.16c-.06.73-.11,1.2-.14,1.41a2.77,2.77,0,0,1-.1.36c0,.06-.05.1-.07.1l0,0-.45-.42s0,0,0,0a0,0,0,0,1,0,0l0,0,.32.2.07,0s.06,0,.08-.08a2.9,2.9,0,0,0,.12-.65c0-.27.06-.61.07-1l-1,.11,0,0s.06.06.06.08a.21.21,0,0,1,0,0,.32.32,0,0,0,0,.09v.15l.34,0a.06.06,0,0,0,.06,0l0,0,0,0,0,0a0,0,0,0,1,0,0,.19.19,0,0,0-.05.11c0,.07,0,.14,0,.21h0l.06,0,0,0s0,0-.08,0l-.49,0v.37l.38-.09-.11-.15a.11.11,0,0,1,0-.05h0l.05,0a2.33,2.33,0,0,1,.26.26s.06.08.06.09a.23.23,0,0,1,0,.08s0,.06,0,.06a.06.06,0,0,1-.05,0,1.6,1.6,0,0,0-.1-.19l-.71.18-.31.11,0,0a.17.17,0,0,1-.09,0s-.06,0-.06-.06h0a2.89,2.89,0,0,0,.4-.07l.29-.07V20.1l-.39,0s0,.09,0,.12,0,.06,0,.06,0,0-.06-.06a.11.11,0,0,1,0-.07.27.27,0,0,1,0-.07s0-.12,0-.23,0-.1,0-.14,0-.1,0-.13,0-.06,0-.06,0,0,0,0a1,1,0,0,1,0,.11l.41,0v-.16a.43.43,0,0,0,0-.15.28.28,0,0,1,0-.08s0,0,0,0l-.28,0-.08.1a2.14,2.14,0,0,1-.27.26l0,0,0,0a2,2,0,0,0,.24-.29,2,2,0,0,0,.22-.37.63.63,0,0,0,.05-.17l-.27,0h0c0,.05,0,.11,0,.17s0,0,0,0,0,0,0-.07a.23.23,0,0,1,0-.1.37.37,0,0,1,0-.07,2.82,2.82,0,0,0,0-.33c0-.11,0-.23,0-.37a1.14,1.14,0,0,0,0-.18l0,0S32.59,18,32.62,18.06Zm.41.67,0-.52-.36,0c0,.07,0,.24,0,.51ZM33.09,20v-.31l-.41,0s0,0,0,.06,0,.16,0,.24Zm0-1.32.33,0,0-.53-.34,0ZM33.18,20l.33,0,.06-.31-.39,0Zm.36-1.36.32,0,.09-.52-.38,0Z"/><path class="cls-2" d="M36.22,17.81a.31.31,0,0,1,.06.12.1.1,0,0,1,0,.07.62.62,0,0,0-.12.15l.08,0a5.71,5.71,0,0,1,.53.28c.08,0,.11.09.11.12a.57.57,0,0,1,0,.11s0,.06,0,.06a.09.09,0,0,1-.07,0,3,3,0,0,0-.58-.49l0,0-.08.12a4.26,4.26,0,0,1-.37.52l.05.08a.66.66,0,0,1,.06.2v0l.75-.11c.07,0,.11,0,.13-.06s0-.06.05-.06l.07.06a.14.14,0,0,1,0,.06s0,0,0,.05a.12.12,0,0,0,0,.08l-.08.6h0l.07,0,0,0s0,0-.08,0l-1,.09a2.63,2.63,0,0,1-.07.26,2.13,2.13,0,0,1-.21.45,2.33,2.33,0,0,1-.27.34l0,0a0,0,0,0,1,0,0l0,0a3.49,3.49,0,0,0,.21-.31,1.84,1.84,0,0,0,.16-.34,2.75,2.75,0,0,0,.13-.49,4.26,4.26,0,0,0,0-.69s0-.12,0-.2a.45.45,0,0,1,0-.09l0,0a3.68,3.68,0,0,1-.54.48l-.06,0s0,0,0,0l0,0a3.29,3.29,0,0,0,.52-.52,4.07,4.07,0,0,0,.47-.67.87.87,0,0,0,.11-.41s0,0,0,0S36.18,17.75,36.22,17.81Zm-.46,1.66a3.1,3.1,0,0,0,.61-.08h.06l.05,0,0,0s0,0-.06,0l-.71.08a.7.7,0,0,1,0,.1c0,.06,0,.11,0,.17a7.58,7.58,0,0,0,.85-.08l.07-.67-.86.12C35.77,19.28,35.77,19.37,35.76,19.46Zm.07.69,0,.1.69-.09c.07,0,.11,0,.12-.06s0-.06.06-.06l.07.06a.14.14,0,0,1,0,.06.12.12,0,0,1,0,.06.12.12,0,0,0,0,.08l-.08.45h0l.07,0,0,0s0,0-.07,0l-.9.07V21c0,.05,0,.11,0,.18s0,.05,0,.05,0,0,0-.07a.28.28,0,0,1,0-.1.36.36,0,0,1,0-.07,3.11,3.11,0,0,0,0-.34c0-.11,0-.24,0-.38a1.14,1.14,0,0,0,0-.18l0,0S35.8,20.08,35.83,20.15Zm.77.61.07-.52-.8.09v.48Q36.43,20.79,36.6,20.76Zm-.48-2.28.2.18a.14.14,0,0,1,0,.08.5.5,0,0,1,0,.13,0,0,0,0,1,0,0s0,0,0,0l-.15-.3,0-.09a0,0,0,0,1,0,0Zm1.22,0c.05.05.08.09.08.1a.58.58,0,0,1,0,.1.72.72,0,0,0,0,.16v1.42s0,0,0,0,0,0-.07-.08a.22.22,0,0,1,0-.1.3.3,0,0,1,0-.06.83.83,0,0,0,0-.15v-1.2a1,1,0,0,0,0-.21l0-.07a0,0,0,0,1,0,0Zm.54-.67c.06,0,.09.08.09.11A.15.15,0,0,1,38,18a.26.26,0,0,0,0,.09V20.9a1,1,0,0,1,0,.22c0,.06,0,.1-.07.1s0,0-.05,0a4.83,4.83,0,0,0-.45-.44l0,0s0,0,0,0l.21.11a1.06,1.06,0,0,0,.24.14s0,0,.06-.08V18.34a2.18,2.18,0,0,0,0-.48.35.35,0,0,1,0-.11h0Z"/><path class="cls-2" d="M40.26,19.05s0,0,0,.07a0,0,0,0,1,0,0l-.51,0v.21h0l.34.22a.08.08,0,0,1,0,.07s0,.05,0,.1,0,.06,0,.06a.07.07,0,0,1,0,0,2.93,2.93,0,0,0-.31-.35v1.41c0,.09,0,.18,0,.27s0,.12,0,.12,0,0-.07-.1a.18.18,0,0,1,0-.09.13.13,0,0,1,0-.06.36.36,0,0,0,0-.11,2.22,2.22,0,0,0,0-.28V19.42a3.07,3.07,0,0,1-.14.32,4.34,4.34,0,0,1-.44.67c-.08.1-.14.15-.16.15a0,0,0,0,1,0,0s0,0,0,0a3.93,3.93,0,0,0,.42-.67,4.34,4.34,0,0,0,.27-.63h-.07l-.45,0h-.05l-.07,0s-.05,0-.05-.05a0,0,0,0,1,0,0l.41,0,.27,0h0V18.2a1.56,1.56,0,0,0,0-.31.35.35,0,0,1,0-.11,0,0,0,0,1,0,0l.1.07s.08.08.08.1a.25.25,0,0,1,0,.08.51.51,0,0,0,0,.16v.91l.17,0,.16,0h.07A.12.12,0,0,1,40.26,19.05Zm-1.06-.66a2,2,0,0,1,.22.29.33.33,0,0,1,0,.11.2.2,0,0,1,0,.09s0,.07-.06.07,0,0,0,0a3.1,3.1,0,0,0-.19-.47.2.2,0,0,1,0-.06,0,0,0,0,1,0,0Zm1-.14a.27.27,0,0,1,0,.11.07.07,0,0,1,0,0l-.29.52,0,0s0,0,0,0v0a4,4,0,0,0,.15-.4,1.62,1.62,0,0,0,.08-.32,0,0,0,0,1,0,0S40.17,18.21,40.2,18.25Zm1.58,0s0,0,0,.07a0,0,0,0,1,0,0l-.71.06v.32l.23,0,.14,0h.06l.08,0s0,0,0,.06a0,0,0,0,1,0,0l-.53,0v.32h.07l.43,0,.23,0,.1,0a.12.12,0,0,1,.07,0s0,0,0,.07a0,0,0,0,1,0,0l-1,.07-.66.06-.07,0-.07,0s0,0,0-.06v0l.6,0,.2,0v-.32l-.36,0h0l-.07,0,0,0a0,0,0,0,1,0,0l.36,0,.14,0v-.32l-.45,0-.05,0-.07,0s0,0,0-.06a0,0,0,0,1,0,0l.46,0,.15,0v-.29a.67.67,0,0,0,0-.19.47.47,0,0,1,0-.1s0,0,0,0a.16.16,0,0,1,.09,0s.08.07.08.1a.16.16,0,0,1,0,.06.32.32,0,0,0,0,.11v.28h0l.33,0,.18,0,.08,0A.12.12,0,0,1,41.78,18.29Zm-1.19,1.25a.76.76,0,0,1,0,.15l.84-.1a.1.1,0,0,0,.08,0l.05-.05.05,0,0,.06a.14.14,0,0,1,0,.05.18.18,0,0,0,0,.1v1.36a.42.42,0,0,1,0,.16s0,0,0,0l-.05,0a5.46,5.46,0,0,0-.42-.42,0,0,0,0,1,0,0,0,0,0,0,1,0,0l.07,0a1.31,1.31,0,0,0,.34.21,0,0,0,0,0,0,0v-.08a.68.68,0,0,0,0-.11V19.65l-.93.12v.3a3.13,3.13,0,0,0,.55-.07h.06l.05,0,0,0s0,0-.05,0l-.65.07c0,.11,0,.21,0,.3a3,3,0,0,0,.6-.08h.06l.05,0,0,0s0,0-.06,0l-.69.08c0,.27,0,.44,0,.51a.39.39,0,0,1,0,.12s0,.06,0,.06,0,0-.06-.09a.32.32,0,0,1,0-.13.1.1,0,0,1,0-.06.37.37,0,0,0,0-.13c0-.19,0-.53,0-1a2.09,2.09,0,0,0,0-.24c0-.07,0-.1,0-.12s0,0,0,0S40.56,19.46,40.59,19.54Z"/><path class="cls-2" d="M43.16,20.42a1.27,1.27,0,0,1-.13.63c0,.08-.08.12-.13.13s0,0-.05-.06a.28.28,0,0,1,0-.07.09.09,0,0,1,0-.07,1.1,1.1,0,0,0,.26-.65s0,0,0,0S43.16,20.34,43.16,20.42Zm.46-2.52a.27.27,0,0,1,0,.11.07.07,0,0,1,0,.05l-.13.16-.47.88.63-.12a2.36,2.36,0,0,0,.21-.53s0,0,0,0,0,0,.08.1a.32.32,0,0,1,0,.11.08.08,0,0,1,0,.06l-.18.2L43.14,20l.7-.16-.09-.23,0-.06a0,0,0,0,1,0,0l0,0a2.08,2.08,0,0,1,.21.33A.32.32,0,0,1,44,20a.23.23,0,0,1,0,.09s0,.07-.05.07,0,0,0-.06a2.38,2.38,0,0,0-.07-.24,5.52,5.52,0,0,0-.7.23l-.11,0s0,0,0,0A.13.13,0,0,1,43,20a0,0,0,0,1,0,0,.75.75,0,0,0,.19-.19q.24-.37.44-.72h0a5.31,5.31,0,0,0-.58.16l-.09,0s0,0-.05,0a.15.15,0,0,1,0-.06,0,0,0,0,1,0,0,.6.6,0,0,0,.14-.16c.11-.21.22-.41.31-.62a2.29,2.29,0,0,0,.17-.5s0,0,0,0S43.58,17.84,43.62,17.9Zm-.15,2.42a2,2,0,0,1,.16.41.2.2,0,0,1,0,.1s0,.07-.06.07,0,0,0,0c0-.18,0-.33-.06-.43a1.46,1.46,0,0,1,0-.15,0,0,0,0,1,0,0Zm.32-.13a1.7,1.7,0,0,1,.21.28.22.22,0,0,1,0,.1.2.2,0,0,1,0,.09c0,.05,0,.07-.05.07s0,0,0,0a2.65,2.65,0,0,0-.18-.44l0-.06a0,0,0,0,1,0,0Zm.45-1.57a.66.66,0,0,1,.06.2v0l1.29-.17a.12.12,0,0,0,.1-.07s0-.05.05-.05l.06,0h0s.06,0,.06.06a.13.13,0,0,1,0,.07.18.18,0,0,0,0,.13l-.06,2.09c0,.08,0,.12,0,.12s0,0-.06-.1a.36.36,0,0,1,0-.11.16.16,0,0,1,0-.07,1,1,0,0,0,0-.24l.06-1.77-.64.07v.84l.23,0,.15,0h.07l.08,0s0,0,0,.06a0,0,0,0,1,0,0l-.55,0v.93l.28-.05h.1l.07,0,0,.05s0,0-.09,0l-1.12.1V21a1.14,1.14,0,0,1,0,.2s0,.05,0,.05,0,0-.06-.08a.31.31,0,0,1,0-.13.1.1,0,0,1,0-.07,1.24,1.24,0,0,0,0-.2c0-.44,0-.91,0-1.41q0-.4,0-.64c0-.06,0-.11,0-.17s0,0,0,0S44.21,18.54,44.25,18.62Zm.68,1.15-.4,0h0a.09.09,0,0,1-.06,0s0,0,0,0a0,0,0,0,1,0,0l.38,0,.16,0v-.84l-.63.07q0,.94,0,1.53c0,.12,0,.23,0,.31l.6-.05Z"/><path class="cls-2" d="M47.86,18.72s0,0,0,.07a0,0,0,0,1,0,0l-.51.05v.65l.45-.24,0,0v0a.09.09,0,0,1,0,.07l-.45.29V20.9a.81.81,0,0,1,0,.2c0,.05,0,.08,0,.08a.07.07,0,0,1,0,0c-.15-.16-.29-.29-.41-.41l0,0s0,0,0,0l.2.11a1,1,0,0,0,.22.13s0,0,0-.08V19.69l-.23.14a2.45,2.45,0,0,0-.3.2.07.07,0,0,1-.06,0,.14.14,0,0,1-.08,0L46.56,20a.06.06,0,0,1,0-.06,3.65,3.65,0,0,0,.47-.21l.23-.12v-.7h-.06l-.43.07h0l-.07,0s0,0,0-.05a0,0,0,0,1,0,0l.39,0,.25,0v-.5a2,2,0,0,0,0-.43.33.33,0,0,1,0-.1h0l.1.05s.08.08.08.1a.13.13,0,0,1,0,0,.2.2,0,0,0,0,.08v.73l.18,0,.15,0,.07,0A.12.12,0,0,1,47.86,18.72Zm1.66-.06s0,.05,0,.07a0,0,0,0,1,0,0l-.9.08v.58l.37,0s0,0,.06,0,0,0,.06,0l.07,0s0,.06,0,.07a.07.07,0,0,1,0,0l-.36.63a2.32,2.32,0,0,1-.2.31l.18.21a1.42,1.42,0,0,0,.43.34,2.92,2.92,0,0,0,.41.07l0,0s0,0,0,0l-.55.06a.09.09,0,0,1-.08-.05c-.15-.22-.3-.43-.45-.62l-.23.26a2.52,2.52,0,0,1-.59.44l-.19.11a0,0,0,0,1,0,0s0,0,0,0a4.53,4.53,0,0,0,.7-.58,3,3,0,0,0,.23-.27l0-.05c-.21-.26-.35-.43-.43-.52s0,0,0,0l0,0h0a.08.08,0,0,1,.06,0,6.88,6.88,0,0,0,.41.56,3,3,0,0,0,.2-.32,3.34,3.34,0,0,0,.24-.52l-.45.05-.42.05-.12,0-.07,0s0,0,0,0v0l.55-.07v-.59l-.47.06-.06,0-.07,0s0,0,0-.05a0,0,0,0,1,0,0l.53,0h.11V18.2a1.66,1.66,0,0,0,0-.31,1,1,0,0,1,0-.13h0l.1.08c.06.06.09.1.09.11a.57.57,0,0,1,0,.12,3.35,3.35,0,0,0,0,.43v.25l.12,0,.38,0,.2,0,.09,0A.12.12,0,0,1,49.52,18.66Z"/><path class="cls-2" d="M51.34,18.62a.27.27,0,0,1,.05.11.07.07,0,0,1,0,.05.83.83,0,0,0-.18.21l-.17.23v2s0,.06,0,.06,0,0-.08-.09a.21.21,0,0,1,0-.11.5.5,0,0,1,0-.13,1,1,0,0,0,0-.24V19.32l-.11.11a3.34,3.34,0,0,1-.46.36l0,0s0,0,0,0l0,0a2.8,2.8,0,0,0,.44-.39,2.86,2.86,0,0,0,.4-.51.6.6,0,0,0,.1-.31s0,0,0,0S51.3,18.57,51.34,18.62ZM51.19,18a.22.22,0,0,1,.05.1l0,0a.88.88,0,0,0-.13.2,2.73,2.73,0,0,1-.28.38,2.14,2.14,0,0,1-.32.31l-.05,0s0,0,0,0l0,0a2.79,2.79,0,0,0,.35-.39,2,2,0,0,0,.23-.37.81.81,0,0,0,.08-.31s0-.06,0-.06S51.15,17.9,51.19,18Zm.4,1.3a.15.15,0,0,1,0,.08.32.32,0,0,1,0,.05s0,.1,0,.19a2.59,2.59,0,0,1-.08.45,1.49,1.49,0,0,1-.15.35.94.94,0,0,1-.14.19l-.05,0s0,0,0,0v0a1.45,1.45,0,0,0,.16-.26,1.33,1.33,0,0,0,.1-.25,2.72,2.72,0,0,0,.07-.35,4.51,4.51,0,0,0,0-.51v0Zm.89-.51s0,0,0,.06a0,0,0,0,1,0,0l-.55.05v1.86c0,.09,0,.18,0,.27s0,.12,0,.12,0,0-.08-.1a.18.18,0,0,1,0-.09.16.16,0,0,1,0-.06.41.41,0,0,0,0-.11,2.26,2.26,0,0,0,0-.28V18.89l-.29,0h0l-.06,0s0,0,0,0a0,0,0,0,1,0,0l.33,0h.08v-.58a1.89,1.89,0,0,0,0-.31.35.35,0,0,1,0-.11s0,0,0,0l.1.07s.08.08.08.1A.28.28,0,0,1,52,18a.5.5,0,0,0,0,.16v.6h0l.24,0,.13,0,.06,0Zm-.37-.56.22.18a.13.13,0,0,1,0,.08.37.37,0,0,1,0,.11s0,0,0,0,0,0,0,0l-.18-.29a.28.28,0,0,1-.05-.09,0,0,0,0,1,0,0Zm.1,1a.15.15,0,0,1,0,.07.12.12,0,0,1,0,.05.3.3,0,0,0,0,.11v.65a.42.42,0,0,0,0,.19s.06.05.14.06a.49.49,0,0,0,.2,0l.06,0,.07,0s.05,0,.05.06,0,0-.06,0l-.26,0a.31.31,0,0,1-.24-.08.41.41,0,0,1-.06-.25V19.5c0-.18,0-.29,0-.33s0,0,0,0Zm1.42-.26s0,0,0,.06a0,0,0,0,1,0,0l-.65,0,0,0c.05,0,.08.08.08.1a.13.13,0,0,1,0,0,.23.23,0,0,0,0,.08v1.57a1,1,0,0,1,0,.2c0,.05,0,.08-.05.08s0,0,0,0a4.94,4.94,0,0,0-.33-.43l0,0s0,0,0,0l.15.12c.1.1.15.15.17.15s0,0,0-.08V19.55a2.06,2.06,0,0,0,0-.43l0-.06-.34,0h0l-.07,0,0,0s0,0,0,0l.38,0,.24,0,.27,0,.15,0h.07Zm-.28-.52s0,0,0,.06a0,0,0,0,1,0,0l-.39,0-.25,0h0l-.07,0s0,0,0,0a0,0,0,0,1,0,0l.23,0,.15,0,.16,0,.09,0h0Z"/><path class="cls-2" d="M56.12,19.84a.45.45,0,0,1-.33.13.46.46,0,0,1-.46-.46.46.46,0,1,1,.79.33Zm-.06-.6a.38.38,0,0,0-.27-.11.36.36,0,0,0-.27.11.37.37,0,0,0-.11.27.37.37,0,0,0,.37.37.37.37,0,0,0,.27-.11.36.36,0,0,0,.11-.27A.38.38,0,0,0,56.06,19.24Z"/><rect class="cls-3" width="9.45" height="35"/><path class="cls-4" d="M6.31,6.57H3.61V7.71a3.83,3.83,0,0,1-.28,1.64l-.15-.12a4.24,4.24,0,0,0,.25-1.67V6.4H4.75a1.35,1.35,0,0,0-.14-.19l.15-.1A2.91,2.91,0,0,1,5,6.4H6.31Zm0,2.35q-.07.32-.17.36a5.2,5.2,0,0,1-.9,0A.26.26,0,0,1,4.95,9V8.55H4.61q0,.61-.84.81L3.68,9.2A1.58,1.58,0,0,0,4.23,9a.57.57,0,0,0,.21-.4H3.92V7.72h.69l.12-.17.18,0a.52.52,0,0,1-.08.12H6v.83H5.55l.07.06a1.8,1.8,0,0,1-.16.26l.28,0-.05-.07.11-.07A1.1,1.1,0,0,1,6,9L5.88,9a.28.28,0,0,0-.06-.11L5.29,9l0-.11a1.47,1.47,0,0,0,.24-.37H5.12v.52a.08.08,0,0,0,0,.08,1.39,1.39,0,0,0,.34,0,3.45,3.45,0,0,0,.5,0q.12,0,.13-.29ZM4.07,7.14a1.45,1.45,0,0,1-.18.48l-.15-.07a1.69,1.69,0,0,0,.18-.47ZM4.89,7H4.41V7.6H4.25V7H3.78V6.86h.47V6.67h.17v.18h.48Zm0,1V7.88H4.1v.17Zm0,.34V8.21H4.1v.18ZM5,7.48H4.74a.14.14,0,0,1-.12-.05.16.16,0,0,1,0-.1v-.2h.16v.15s0,.06.05.06H5ZM6.24,7H5.67v.59H5.49V7H5.07V6.86h.43V6.67h.17v.18h.57Zm-.89.13a1.73,1.73,0,0,1-.14.47l-.14-.07a2,2,0,0,0,.13-.44Zm.52.91V7.88H5.07v.17Zm0,.34V8.21H5.07v.18Zm.42-.85H6a.14.14,0,0,1-.09,0,.13.13,0,0,1,0-.09V7.13H6v.19s0,.07.06.07h.24Z"/><path class="cls-4" d="M6.09,10.51q0,.89,0,1.5a3.82,3.82,0,0,1-.09.77.37.37,0,0,1-.16.22,1.09,1.09,0,0,1-.44.06H5l-.07-.21h.42a.78.78,0,0,0,.34,0,.25.25,0,0,0,.09-.14A5.85,5.85,0,0,0,5.86,12q0-.63,0-1.25H4.8a3.07,3.07,0,0,1-.4,1.49,2.77,2.77,0,0,1-1,.87l-.14-.18a2.31,2.31,0,0,0,.66-.42,1.93,1.93,0,0,0,.46-.64,3.36,3.36,0,0,0,.22-1.13H3.35v-.2H4.62q0-.33,0-.69h.19q0,.29,0,.69Z"/><path class="cls-4" d="M6.29,15.88H3.18v-.19H4.65v-.34H3.38v-.19H4.65v-.34H3.51V13.6H6v1.21H4.83v.34H6.09v.19H4.83v.34H6.29Zm-2.42.2a4.4,4.4,0,0,1-.49.68l-.16-.12A3.57,3.57,0,0,0,3.71,16Zm.77-1.45v-.83h-1v.83Zm-.28-.21-.15.09A3.06,3.06,0,0,0,3.88,14l.16-.1A2.79,2.79,0,0,1,4.37,14.41Zm.17,2.28-.19,0a4.09,4.09,0,0,0-.12-.67l.18,0A4.24,4.24,0,0,1,4.54,16.7Zm1.24-2.08v-.83H4.83v.83Zm-.35,2.05-.18.07A3.85,3.85,0,0,0,5,16L5.15,16A4,4,0,0,1,5.43,16.67ZM5.59,14a2.79,2.79,0,0,1-.35.5l-.15-.1a3.66,3.66,0,0,0,.34-.5Zm.67,2.63-.16.09a3.84,3.84,0,0,0-.37-.68L5.89,16A3.46,3.46,0,0,1,6.26,16.65Z"/><path class="cls-4" d="M4.18,23.82H4v-.21H3.5v.3H3.32V21.06h.86Zm-.18-2v-.57H3.5v.57Zm0,.78V22H3.5v.6Zm0,.82v-.64H3.5v.64Zm2.05-1H4.74v1.46a6,6,0,0,0,.63-.24l0,.18a7.66,7.66,0,0,1-.82.3L4.49,24a.14.14,0,0,0,.07-.11V21H6.05Zm-.18-.8v-.45H4.74v.45Zm0,.62v-.45H4.74v.45ZM6.29,24l-.14.15a2.42,2.42,0,0,1-1-1.47l.17-.06a2.32,2.32,0,0,0,.17.5,3.08,3.08,0,0,0,.53-.47l.15.11a4.08,4.08,0,0,1-.6.53A2.23,2.23,0,0,0,6.29,24Z"/><path class="cls-4" d="M3.57,26.91a4.35,4.35,0,0,1-.23.91l-.17-.09a3.83,3.83,0,0,0,.23-.84Zm.88-1.66a6.28,6.28,0,0,1-.94,1.29,3.09,3.09,0,0,0,.58-.14A1.72,1.72,0,0,0,4,26.17l.17,0a3.12,3.12,0,0,1,.21.55l-.17.07a1.48,1.48,0,0,0-.05-.19,4,4,0,0,1-.92.2l0-.15a7.8,7.8,0,0,0,.72-.85,5.12,5.12,0,0,1-.62.08V25.7a3.81,3.81,0,0,0,.64-1.12l.18.07a4.24,4.24,0,0,1-.55,1,2.37,2.37,0,0,0,.5-.08,3.61,3.61,0,0,0,.22-.38ZM4,27.69l-.19,0a4.72,4.72,0,0,0-.08-.83l.18,0A4.86,4.86,0,0,1,4,27.69Zm.43-.43-.17,0a1.94,1.94,0,0,0-.16-.43l.18,0A2,2,0,0,1,4.47,27.26Zm.64-.87A1.67,1.67,0,0,1,4.4,27.7l-.12-.15a1.36,1.36,0,0,0,.62-1H4.48v-.18Zm1.23,1.12-.13.15a2.28,2.28,0,0,1-.75-.8v.68a.29.29,0,0,1-.07.2c0,.05-.16.08-.34.08H4.88l-.06-.18H5a.48.48,0,0,0,.2,0,.09.09,0,0,0,0-.08V26.08h-.7V24.93H5a2.25,2.25,0,0,0,.2-.37l.18.08a1.58,1.58,0,0,1-.16.29h.86v1.15H5.45v.42a1.28,1.28,0,0,0,.1.21A2.21,2.21,0,0,0,6,26.25l.13.15a3.27,3.27,0,0,1-.47.46A2.46,2.46,0,0,0,6.33,27.51Zm-.41-2.1V25.1H4.75v.31Zm0,.49v-.31H4.75v.31Z"/><path class="cls-4" d="M3.87,19.95H3.72v-.18H3.27V20H3.12V17.39h.76Zm-.15-1.82v-.6H3.27v.6Zm0,.74v-.6H3.27v.6Zm0,.76V19H3.27v.62Zm2.53.6-.05.15H5.7a4,4,0,0,1-.64,0,1.3,1.3,0,0,1-.38-.14,1.41,1.41,0,0,1-.37-.3,1.81,1.81,0,0,1-.45.52l-.12-.09a1.63,1.63,0,0,0,.61-1l.15,0a2.33,2.33,0,0,1-.13.39,1.22,1.22,0,0,0,.6.42v-1H4.2V19H5v-.38H4V18.5H5v-.38H4.2V18H5v-.36h-.9v-.14H5v-.32h.15v.32h1v.14h-1V18h.78v.52h.33v.14H5.91v.52H5.13v.4h.94v.14H5.13v.52l.59,0Zm-.5-1.72v-.38H5.13v.38Zm0,.51v-.38H5.13V19Z"/><line class="cls-5" x1="25.48" y1="12.61" x2="21.34" y2="19.66"/><line class="cls-5" x1="81.1" y1="12.61" x2="76.96" y2="19.66"/><path class="cls-6" d="M82.22,9.61a1.68,1.68,0,0,1-.77.61l0,0a2,2,0,0,0,.52-.59A1.42,1.42,0,0,0,82.18,9c0-.15-.11-.24-.33-.24s-.44-.13-.44-.4.17-.42.52-.42a.62.62,0,0,1,.49.23,1,1,0,0,1,.18.58A1.46,1.46,0,0,1,82.22,9.61Z"/><path class="cls-6" d="M83.65,9.61a1.68,1.68,0,0,1-.77.61l0,0a2,2,0,0,0,.52-.59A1.42,1.42,0,0,0,83.61,9c0-.15-.11-.24-.33-.24s-.44-.13-.44-.4.17-.42.52-.42a.62.62,0,0,1,.49.23,1,1,0,0,1,.18.58A1.46,1.46,0,0,1,83.65,9.61Z"/><g class="cls-7"><polygon class="cls-4" points="86.1 20.66 87.21 21.63 87.14 21.83 86.54 22.51 85.31 21.44 85.91 20.76 86.1 20.66"/><polygon class="cls-4" points="86.15 20.61 87.25 21.57 88 20.7 87.9 20.31 88.43 19.69 87.84 19.18 87.31 19.8 86.9 19.75 86.15 20.61"/><path class="cls-4" d="M88.46,18.53c-.17.21-.12.25-.18.32S88.05,19,88,19l-.06.08.27.24.27.24.08-.07a3,3,0,0,1,.15-.28c.07-.08.11,0,.3-.23s.12-.21.21-.49.27-.58.25-.6-.3.21-.56.34S88.63,18.32,88.46,18.53Z"/><path class="cls-4" d="M87.78,13.52a.72.72,0,0,0-.3.53c0,.34,0,.67.2.64s1.85-1.19,2.46-1.56a22.9,22.9,0,0,1,3.43-1.73,11.08,11.08,0,0,1,2.85-.24,6.18,6.18,0,0,1,1.14.12A3.13,3.13,0,0,0,96.8,11,10.13,10.13,0,0,0,93.49,11,16.47,16.47,0,0,0,90,12.3C88.74,13,87.78,13.52,87.78,13.52Z"/><path class="cls-4" d="M89.91,18.43a1.8,1.8,0,0,1,.33-.5,1,1,0,0,1,.65-.22A10,10,0,0,0,93,17.36,6.27,6.27,0,0,0,95,16.16a6.69,6.69,0,0,0,1-1.47,2.79,2.79,0,0,0,.18-1c0-.31.19.61,0,1.16a2.1,2.1,0,0,0,.25-.28c.06-.1.18-.35.18-.35a1.13,1.13,0,0,1-.2.53,1.24,1.24,0,0,1-.32.32l-.06.15,0,.06h0a.79.79,0,0,0,.33,0,3,3,0,0,0,.5-.27,1.14,1.14,0,0,1-.4.34,2.77,2.77,0,0,1-.53.15.08.08,0,0,0-.05,0l-.1.16a1.25,1.25,0,0,0,.5.27,1.14,1.14,0,0,0,.47,0,.7.7,0,0,1-.32.14,1,1,0,0,1-.75-.17s-.16.23-.23.31a1.15,1.15,0,0,0,.49.46,1.55,1.55,0,0,0,.4.13,2,2,0,0,1-.64,0,1,1,0,0,1-.48-.3l-.17.19s.25.44.39.63l.21.27a3.37,3.37,0,0,1-.43-.26,4.4,4.4,0,0,1-.48-.39l-.29.24.35.69.17.32-.79-.82L94,17.4a2.82,2.82,0,0,1,.18.68c0,.38.05.53.05.53s-.17-.46-.23-.59-.27-.52-.27-.52l-.27.13a2.51,2.51,0,0,1,0,.54,5.21,5.21,0,0,1-.05.58s0-.31-.07-.5-.17-.55-.17-.55l-.4.13a2.91,2.91,0,0,1,0,.5,3,3,0,0,1-.16.47,1.73,1.73,0,0,0,0-.4,4.69,4.69,0,0,0-.07-.5l-.37.07a1.49,1.49,0,0,1-.11.52,1.8,1.8,0,0,1-.21.32,1.11,1.11,0,0,0,.12-.32A4,4,0,0,0,92,18l-.39.05a1.79,1.79,0,0,1-.13.32,1.29,1.29,0,0,1-.3.34,2,2,0,0,0,.22-.45.9.9,0,0,0,0-.24h-.2a1.91,1.91,0,0,1-.18.21,2.3,2.3,0,0,1-.34.24.88.88,0,0,0,.18-.24A1,1,0,0,0,91,18a.78.78,0,0,0-.41.1c-.17.11-.31.33-.39.38S89.93,18.53,89.91,18.43Z"/><path class="cls-4" d="M90.35,16.42a2.73,2.73,0,0,1,1.41-2.15A5,5,0,0,1,95,13.77s.35.1.34.17-.29,0-.54,0a4.78,4.78,0,0,0-2.2.17,3.45,3.45,0,0,0-1.81,1.32,5.08,5.08,0,0,0-.41.93C90.41,16.43,90.39,16.45,90.35,16.42Z"/></g></svg>