<svg xmlns="http://www.w3.org/2000/svg" viewBox="0 0 185.14 66.2"><defs><style>.cls-1{fill:#3d3d3d;}.cls-2{fill:#647384;}.cls-3{fill:#fff;}.cls-4{fill:none;stroke:#647384;stroke-miterlimit:10;stroke-width:0.3px;}.cls-5{fill:#ad8066;}.cls-6{opacity:0.5;}</style></defs><title>lesson_cont</title><g id="圖層_15" data-name="圖層 15"><path class="cls-1" d="M47,23.14a.5.5,0,0,1,.1.13.17.17,0,0,1-.09.14.19.19,0,0,0-.06.1l-.22,1.26h.09a.29.29,0,0,1,.12.06s.07.07.07.09,0,0-.12,0l-1.54.14v2.34l1.51-1,.07,0a0,0,0,0,1,0,0s0,.06-.11.12a18.52,18.52,0,0,0-1.45,1.25c0,.1-.1.15-.17.15a.31.31,0,0,1-.18-.06c-.09,0-.13-.08-.13-.11a.23.23,0,0,1,0-.09.48.48,0,0,0,.09-.12.68.68,0,0,0,.09-.43v-2c0-.09,0-.19,0-.3a2.3,2.3,0,0,1,0-.27s0-.06.06-.06.07.07.12.21.05.2.07.29a9.79,9.79,0,0,0,1.18-.11l.24-1.39-1.4.17-.18,0a.22.22,0,0,1-.14-.05s-.07-.05-.07-.06l0,0,1.58-.22a.2.2,0,0,0,.17-.11c0-.07.09-.12.11-.12A.46.46,0,0,1,47,23.14Zm1.29-.69a.59.59,0,0,1,.12.23.31.31,0,0,1,0,.16,2.68,2.68,0,0,0-.25.66c-.07.22-.14.43-.2.61L49.29,24a3.74,3.74,0,0,0,.64-.1h.14a.49.49,0,0,1,.18.07c.07,0,.11.08.11.09a0,0,0,0,1,0,0l-1,.09.06.11a.58.58,0,0,1,.1.22.36.36,0,0,1-.08.17,6.42,6.42,0,0,0-.28.78,7.43,7.43,0,0,1-.48,1.16c.15.25.31.49.47.72a3.19,3.19,0,0,0,.86.9,4.29,4.29,0,0,0,.81.2s.06,0,.06,0a.07.07,0,0,1,0,.06l-1.09.11c-.07,0-.12-.05-.15-.14-.32-.62-.65-1.2-1-1.75a4.37,4.37,0,0,1-1,1.23,8.77,8.77,0,0,1-1.18.82l-.17.07a0,0,0,0,1,0,0s0,0,.09-.08a11.92,11.92,0,0,0,1.1-.8,4.41,4.41,0,0,0,.83-.9,4.46,4.46,0,0,0,.29-.46.17.17,0,0,1,0-.05c-.41-.67-.69-1.11-.85-1.32a.12.12,0,0,1-.06-.09c-.16.3-.33.59-.51.87a.25.25,0,0,1-.07.09s0,0,0,0a.17.17,0,0,1,0-.09,7.75,7.75,0,0,0,.55-1.18A12.74,12.74,0,0,0,48,23.27a4,4,0,0,0,.12-.93s0-.06,0-.06S48.23,22.34,48.32,22.45ZM47.64,25a.14.14,0,0,1,.11.06q.36.72.76,1.37a6.18,6.18,0,0,0,.65-2.28l-1.29.12c-.09.23-.17.43-.25.59l-.08.16Z"/><path class="cls-1" d="M53.86,22.39c.19.23.33.41.41.54a.57.57,0,0,1,.07.23.69.69,0,0,1,0,.21l.65-.05.34,0a5.63,5.63,0,0,0,.2-.61,3.55,3.55,0,0,0,.12-.54s0-.05,0-.05.07.06.13.17a.54.54,0,0,1,.06.23.13.13,0,0,1,0,.06c-.1.16-.25.4-.43.73l.43,0,.47-.06.21,0a.27.27,0,0,1,.14.07.22.22,0,0,1,.08.13,0,0,0,0,1,0,0l-1.75.1v.62l.68-.08L56,24l.17,0a.29.29,0,0,1,.14.06c.05,0,.08.08.08.11s0,0,0,0L55,24.26v.68h.21l1.08-.1.59-.07.26,0a.25.25,0,0,1,.14.06.25.25,0,0,1,.08.14s0,0,0,0L56,25l.07.12a.64.64,0,0,1,.05.2.09.09,0,0,1,0,.06l-.52.67-.07.07a12.16,12.16,0,0,0,2-.3.54.54,0,0,1,.18,0,.67.67,0,0,1,.2.09c.09.07.14.12.14.13s0,.06-.06.06q-1.36.08-3.51.26c-1.27.12-2,.19-2.05.22a.66.66,0,0,1-.2,0,.38.38,0,0,1-.22-.1c-.06,0-.09-.06-.09-.09s0-.06.08-.06c.36,0,1.09,0,2.16-.09a.3.3,0,0,1,0-.07l-.35-.61a.65.65,0,0,1-.1-.19,0,0,0,0,1,0,0l.07,0c.2.17.35.3.44.38a.29.29,0,0,1,.09.17.86.86,0,0,1,0,.24s0,.06-.05.06l.62,0,.7-.06s0,0,0,0a.07.07,0,0,1,0,0,4.56,4.56,0,0,0,.26-.56,2,2,0,0,0,.14-.46h0l-1.15.08c-.9.06-1.46.11-1.66.14l-.19,0a.2.2,0,0,1-.13-.06c-.07-.05-.09-.09-.09-.11a0,0,0,0,1,0,0q1.11,0,1.52-.09l.6,0v-.68h-.06c-.58,0-.93.08-1.06.1l-.12,0a.23.23,0,0,1-.12-.05s-.07-.07-.07-.09,0,0,0,0l1-.06.46,0V23.5h-.14c-.72,0-1.17.08-1.32.1l-.15,0a.22.22,0,0,1-.13-.07c-.06,0-.09-.08-.09-.11a0,0,0,0,1,0,0l1.21-.06h0a0,0,0,0,1,0,0c-.11-.25-.22-.5-.33-.74a1,1,0,0,1-.09-.23,0,0,0,0,1,0,0S53.83,22.36,53.86,22.39Zm-.07,4.5a1.18,1.18,0,0,1,.07.3l1.87-.27c.13,0,.22-.06.25-.12s.09-.11.12-.11.08,0,.16.11.07.09.07.12a.21.21,0,0,1-.07.12.26.26,0,0,0-.07.17l-.15,1h0a.23.23,0,0,1,.12.06c.05,0,.08.07.08.08s-.07.05-.18.06l-2.23.19c0,.09,0,.17,0,.27s0,.11-.06.11-.05,0-.09-.12a.67.67,0,0,1,0-.19.75.75,0,0,1,0-.14c0-.14,0-.37,0-.69s0-.48,0-.76a2.49,2.49,0,0,0,0-.35,0,0,0,0,1,0,0S53.73,26.76,53.79,26.89Zm2,1.36L56,27.07l-2.11.28c0,.2,0,.56,0,1.08A15.87,15.87,0,0,0,55.84,28.25Z"/><path class="cls-1" d="M59.55,23.37a1.61,1.61,0,0,1,.08.4l1.15-.12a.14.14,0,0,0,.12-.07c0-.07.07-.11.08-.11a.27.27,0,0,1,.14.06c.07,0,.11.08.11.11s0,.07-.09.12a.43.43,0,0,0-.05.22c0,.64,0,1.21,0,1.73s0,1,0,1.36,0,.35-.06.35-.07,0-.12-.13a.46.46,0,0,1-.05-.18.76.76,0,0,1,0-.22c0-.17,0-.4,0-.68,0-1.18.05-2,.07-2.46l-1.27.15c0,.06,0,.11,0,.15v1.13a4.09,4.09,0,0,0,.69-.1h.07a.21.21,0,0,1,.1.06s.07.07.07.09,0,0-.08,0l-.85.1v1.56a5.1,5.1,0,0,0,.84-.09h.09a.26.26,0,0,1,.12.07c.05,0,.08.06.08.08s0,0-.09,0l-1,.1v.43c0,.16,0,.25-.09.25s-.06,0-.09-.12a.41.41,0,0,1-.06-.22,2.27,2.27,0,0,1,0-.29c0-.26,0-.78,0-1.57s0-1.46,0-1.89c0-.24,0-.38,0-.41s0-.09,0-.09S59.5,23.25,59.55,23.37Zm4.82-.11c.06.05.09.09.09.13a0,0,0,0,1,0,0l-.91.09.09.14a.64.64,0,0,1,.05.2.27.27,0,0,1,0,.09c-.11.23-.27.6-.49,1.11l0,0h0L64,25l.47-.07.22,0a.29.29,0,0,1,.16.07c.06.05.09.09.09.13a0,0,0,0,1,0,0l-2.09.16c-.73.06-1.18.09-1.35.12l-.15,0a.27.27,0,0,1-.15-.07c-.07,0-.1-.08-.1-.11s0,0,0,0c.59,0,1-.06,1.23-.09l.67-.06a0,0,0,0,0,0,0c.11-.32.19-.59.25-.82a4.9,4.9,0,0,0,.14-.68s0-.05,0-.05l-.67.07c-.57.06-.92.11-1,.14l-.12,0a.2.2,0,0,1-.13-.06c-.07-.05-.09-.09-.09-.11a0,0,0,0,1,0,0c.46,0,.78-.06,1-.09L63,23.4l.69-.1a2.67,2.67,0,0,0,.38-.07l.16,0A.25.25,0,0,1,64.36,23.26ZM62,25.85a1.36,1.36,0,0,1,.07.31L63.68,26a.14.14,0,0,0,.12-.07c0-.06.07-.1.09-.1a.38.38,0,0,1,.14.06q.11.08.11.11s0,.07-.09.12a.37.37,0,0,0-.06.22c0,.47,0,.9,0,1.28s0,.76,0,1,0,.27,0,.27-.08-.05-.12-.14a.55.55,0,0,1-.05-.17.61.61,0,0,1,0-.17c0-.13,0-.29,0-.5,0-.84,0-1.44,0-1.79l-1.76.23c0,.08,0,.16,0,.24v.61a6.12,6.12,0,0,0,1-.12h.11a.21.21,0,0,1,.1.06s.07.06.07.08,0,0-.1,0l-1.22.13v1a8.06,8.06,0,0,0,1.25-.14h.13a.22.22,0,0,1,.12.06s.07.06.07.08,0,0-.12,0c-.54,0-1,.09-1.46.15v.26c0,.16,0,.24-.09.25s-.06,0-.09-.12a.4.4,0,0,1-.06-.22,1,1,0,0,1,0-.2,9.77,9.77,0,0,0,0-1c0-.59,0-1,0-1.36s0-.26,0-.28,0-.09,0-.09S61.93,25.74,62,25.85Zm0-1.92a4.66,4.66,0,0,1,.36.48.45.45,0,0,1,.07.21.85.85,0,0,1,0,.23c0,.05,0,.07-.08.07s0,0-.05-.09L62,24.14a1.06,1.06,0,0,1-.08-.22,0,0,0,0,1,0,0Zm.38-1.74a4.08,4.08,0,0,1,.48.52.4.4,0,0,1,.11.19.45.45,0,0,1,0,.18q-.06.13-.11.13s-.07,0-.09-.09a4.79,4.79,0,0,0-.43-.84.3.3,0,0,1-.05-.11,0,0,0,0,1,0,0Z"/><path class="cls-1" d="M68,24.52s0,.06,0,.12c-.17.67-.33,1.24-.44,1.72-.17.64-.32,1.16-.45,1.58,0,.07-.05.11-.07.11s-.12,0-.19-.14-.35-.46-.57-.72c-.06-.07-.09-.11-.09-.13s0,0,0,0a2.9,2.9,0,0,1,.3.22,1.47,1.47,0,0,0,.41.28s.07,0,.11-.13.21-.62.43-1.29c.14-.48.32-1,.51-1.58,0,0,0-.06,0-.06A0,0,0,0,1,68,24.52Zm-1.61-.41c.35.17.6.3.75.38s.13.12.13.17a.87.87,0,0,1,0,.24c0,.05,0,.07-.08.07s-.06,0-.1-.07c-.2-.2-.41-.41-.62-.61a.77.77,0,0,1-.18-.19,0,0,0,0,1,0,0ZM67,22.59a6,6,0,0,1,.7.48.33.33,0,0,1,.13.21,1,1,0,0,1,0,.24.08.08,0,0,1-.09.07s-.06,0-.1-.09c-.18-.24-.38-.48-.58-.72a.7.7,0,0,1-.17-.22,0,0,0,0,1,0,0A.25.25,0,0,1,67,22.59Zm2.46,2a1.22,1.22,0,0,1,.12.37A10.24,10.24,0,0,1,69.46,26a4.49,4.49,0,0,1-.27,1,3.83,3.83,0,0,1-.49.87,6.81,6.81,0,0,1-.64.66.32.32,0,0,1-.1.07,0,0,0,0,1,0,0,.3.3,0,0,1,.06-.07c.2-.22.38-.42.51-.59a2.9,2.9,0,0,0,.4-.64,4.48,4.48,0,0,0,.31-1A6.73,6.73,0,0,0,69.31,25c0-.09,0-.22,0-.38s0-.2,0-.24a0,0,0,0,1,0,0A.79.79,0,0,1,69.41,24.57Zm-.72-1.63c0,.13,0,.25,0,.36l1.2-.12c.78-.07,1.23-.12,1.34-.15a.39.39,0,0,0,.27-.17c0-.05.06-.08.1-.08a.85.85,0,0,1,.14.12c.07.07.11.13.11.17a.11.11,0,0,1-.09.12,4.3,4.3,0,0,0-.61.83s0,0,0,0,0,0,0-.05a.59.59,0,0,1,.08-.2c.1-.23.19-.43.25-.61l-2.76.29a3,3,0,0,1-.15.77c-.06.16-.11.25-.17.26s-.06,0-.1-.1a.48.48,0,0,1,0-.12.2.2,0,0,1,.05-.14,2.92,2.92,0,0,0,.38-1.33s0-.06,0-.06S68.69,22.8,68.69,22.93Zm1.91,1.35c.08.07.12.12.12.14a.39.39,0,0,1-.05.16,1,1,0,0,0-.07.38v2a3.25,3.25,0,0,0,.06.8.6.6,0,0,0,.18.33,1.08,1.08,0,0,0,.56.17,2.1,2.1,0,0,0,.38,0,.64.64,0,0,0,.22-.09.22.22,0,0,0,.06-.14c0-.14,0-.48,0-1,0,0,0-.06,0-.06s0,0,0,.06a4.51,4.51,0,0,0,.28,1.08.48.48,0,0,1,.06.16.09.09,0,0,1-.07.09,2.21,2.21,0,0,1-.41.09,3.75,3.75,0,0,1-.57.05,1.7,1.7,0,0,1-.51-.09.63.63,0,0,1-.28-.2.89.89,0,0,1-.17-.39,3.22,3.22,0,0,1-.05-.64V24.83c0-.14,0-.27,0-.41s0-.2,0-.21a0,0,0,0,1,0,0S70.51,24.21,70.6,24.29Z"/><path class="cls-1" d="M76.69,25.83a.94.94,0,0,1-.43.34h0a1.12,1.12,0,0,0,.29-.33.8.8,0,0,0,.14-.33c0-.09-.07-.14-.19-.14s-.25-.07-.25-.22.09-.24.29-.24a.34.34,0,0,1,.27.13.53.53,0,0,1,.1.33A.82.82,0,0,1,76.69,25.83Z"/><path class="cls-1" d="M83.62,22.68a.28.28,0,0,1,.07.12.22.22,0,0,1-.06.1.23.23,0,0,0-.06.15l-.27,1.89h.07a.25.25,0,0,1,.12.07s.07.07.07.08-.05.05-.14.05l-1.78.17v1.83L83,26.35l-.41-.63a.26.26,0,0,1-.07-.13,0,0,0,0,1,0,0s.07,0,.14.1a7.88,7.88,0,0,1,.76.9.73.73,0,0,1,.17.38,1.67,1.67,0,0,1,0,.25c0,.1,0,.15-.07.15s-.07,0-.09-.15a6.82,6.82,0,0,0-.4-.78h0a15.54,15.54,0,0,0-1.37,1,.18.18,0,0,1-.17.12.3.3,0,0,1-.18-.06c-.09-.05-.13-.09-.13-.12a.35.35,0,0,1,0-.14,1.23,1.23,0,0,0,.09-.2,1.62,1.62,0,0,0,.09-.69V23c0-.09,0-.19,0-.3a2.27,2.27,0,0,1,0-.26s0-.06.06-.06.08.07.13.21a1.42,1.42,0,0,1,.07.35h0l1.5-.21c.12,0,.2-.06.23-.12s.08-.12.11-.12S83.55,22.61,83.62,22.68Zm-2,1.37a4.17,4.17,0,0,0,1-.17h.1a.29.29,0,0,1,.12.06s.07.07.07.09,0,0-.09,0l-1.2.17v.91A9.63,9.63,0,0,0,83.13,25l.23-2-1.71.22Zm4.64-1.14.11.14a.15.15,0,0,1-.05.1.92.92,0,0,0-.14.49c-.1,1-.2,1.74-.27,2.15a4.29,4.29,0,0,1-.2.8c0,.11-.09.16-.12.16a2.81,2.81,0,0,1-.49-.46,3.06,3.06,0,0,1-.39-.44s0,0,0,0a2.2,2.2,0,0,1,.31.19,1.27,1.27,0,0,0,.48.29s.07,0,.08-.09a4.91,4.91,0,0,0,.17-.91c.06-.44.14-1.14.22-2.1l-1.52.17c0,2.88,0,4.59,0,5.13a1.06,1.06,0,0,1,0,.27c0,.07,0,.12-.07.12s-.08-.07-.14-.22a.79.79,0,0,1-.07-.32.71.71,0,0,1,.05-.23,2.28,2.28,0,0,0,.07-.51q0-1.14,0-4.12a3.07,3.07,0,0,0,0-.57c0-.15,0-.25,0-.27s0-.05.06-.06.07.1.14.27a1.56,1.56,0,0,1,.08.33L85.83,23a.25.25,0,0,0,.2-.12c.06-.07.1-.11.14-.11S86.23,22.85,86.29,22.91Z"/><path class="cls-1" d="M91.48,23.71c.06.05.09.09.09.13a0,0,0,0,1,0,0L90,24A.49.49,0,0,1,90,24a.73.73,0,0,1,0,.16.06.06,0,0,1,0,.06,3.31,3.31,0,0,0-.28.42l-.35.56-.2.31,1.21-.14a2.9,2.9,0,0,0,.44-.9c0-.07.05-.12.09-.12s0,.06.09.17a.5.5,0,0,1,0,.17,6.4,6.4,0,0,1-.56.8,8.12,8.12,0,0,1-.87,1.08,9.8,9.8,0,0,1-1.3,1l-.43.24s0,0,0,0,0,0,.06-.06a10.37,10.37,0,0,0,1.19-.94,8.43,8.43,0,0,0,1.15-1.29l0,0c-.35,0-.64.09-.86.13l-.39.09-.08,0-.09-.08c-.05,0-.07-.07-.07-.09s0,0,0,0a.45.45,0,0,0,.27-.16,6.21,6.21,0,0,0,.41-.63,5.24,5.24,0,0,0,.31-.59c0-.07.06-.15.08-.22h-.09l-1.13.09-.12,0A.25.25,0,0,1,88.4,24c-.06,0-.09-.08-.09-.1s0,0,0,0l1-.06.66-.06.74-.07.4-.05.17,0A.23.23,0,0,1,91.48,23.71Zm-.22,2.11a.56.56,0,0,1,.05.17,5.72,5.72,0,0,1-.51.64c-.12.14-.22.27-.33.38l.07,0a6,6,0,0,1,.69.59c.1.1.15.18.15.25a1.44,1.44,0,0,1,0,.24c0,.09,0,.13-.06.13s-.07,0-.09-.1a5,5,0,0,0-.78-1.06s0,0,0,0a4.28,4.28,0,0,1-.41.4,8.47,8.47,0,0,1-1.17.84l-.39.19a0,0,0,0,1,0,0s0,0,.05,0a10.2,10.2,0,0,0,1.07-.77,6.9,6.9,0,0,0,1-1,2.52,2.52,0,0,0,.51-.87c0-.07.05-.12.09-.12S91.21,25.7,91.26,25.82ZM89.7,22.4a4.89,4.89,0,0,1,.57.6c.09.1.14.17.14.22a.45.45,0,0,1,0,.18q-.06.13-.11.13c-.05,0-.09,0-.12-.1a5.28,5.28,0,0,0-.52-.93.33.33,0,0,1-.07-.12,0,0,0,0,1,0,0A.32.32,0,0,1,89.7,22.4Zm2.52,1.36c.09.09.14.16.14.2a1,1,0,0,1,0,.17,1.45,1.45,0,0,0,0,.3v2.34c0,.06,0,.09,0,.09s-.08,0-.14-.14a.41.41,0,0,1-.06-.2.76.76,0,0,1,0-.11,1.47,1.47,0,0,0,0-.28V24.21a1.93,1.93,0,0,0,0-.41.61.61,0,0,1,0-.12,0,0,0,0,1,0,0A.63.63,0,0,1,92.22,23.76Zm1-1.4q.15.13.15.17a.36.36,0,0,1,0,.1.5.5,0,0,0,0,.16V28.1a1.52,1.52,0,0,1,0,.38c0,.1-.06.16-.1.16s-.06,0-.09-.09q-.44-.54-.78-.91l-.07-.07s0-.06,0-.06a3.85,3.85,0,0,1,.37.27,1.78,1.78,0,0,0,.43.35s.05,0,.06-.14V23.27a3.88,3.88,0,0,0-.07-.81.63.63,0,0,1-.05-.18,0,0,0,0,1,0,0A.48.48,0,0,1,93.22,22.36Z"/><path class="cls-1" d="M97,22.39a.54.54,0,0,1,.11.23.23.23,0,0,1-.06.14,2.32,2.32,0,0,0-.34.59c-.09.18-.17.35-.25.49v4.92c0,.07,0,.11,0,.11s-.08-.06-.16-.16a.42.42,0,0,1-.07-.2.78.78,0,0,1,.07-.25,2,2,0,0,0,0-.46V24.13c-.1.17-.2.31-.29.43a7.13,7.13,0,0,1-.86,1,.28.28,0,0,1-.09.07s0,0,0,0l0-.07a6.09,6.09,0,0,0,.82-1,8.21,8.21,0,0,0,.73-1.35,2.26,2.26,0,0,0,.18-.83s0-.06,0-.06S97,22.28,97,22.39Zm.25,1.71c.07.07.12.13.12.16a.78.78,0,0,1,0,.14,1.34,1.34,0,0,0,0,.25v2.49s0,.06,0,.06-.07,0-.12-.12a.36.36,0,0,1-.05-.17.35.35,0,0,1,0-.09.64.64,0,0,0,0-.22V24.46a1.28,1.28,0,0,0,0-.33.38.38,0,0,1,0-.1s0,0,0,0S97.22,24,97.29,24.1Zm3.18,2.65a.7.7,0,0,1,0,.19,4.66,4.66,0,0,1-.56.46,7.57,7.57,0,0,1-.88.62,12.37,12.37,0,0,1-1.3.61l-.43.14a0,0,0,0,1,0,0s0,0,.05,0a11.45,11.45,0,0,0,1.19-.58,6.5,6.5,0,0,0,1.15-.79,1.88,1.88,0,0,0,.57-.66c0-.07.05-.12.08-.12S100.42,26.64,100.47,26.76Zm-.34-3.15a.61.61,0,0,1,0,.17,4.62,4.62,0,0,1-.46.56l-.29.33.19.15a3.9,3.9,0,0,0,1,.63,3.45,3.45,0,0,0,1,.14s.05,0,.05,0a.05.05,0,0,1-.05.06c-.55.15-.85.22-.87.22a.17.17,0,0,1-.15-.06c-.19-.2-.46-.44-.79-.73-.14-.12-.27-.24-.38-.35-.13.13-.25.25-.35.33a7.15,7.15,0,0,1-1.08.73l-.35.17s0,0,0,0l0,0a7.52,7.52,0,0,0,1-.68,6.72,6.72,0,0,0,.66-.6L98.48,24s-.06,0-.06,0,0-.06.09-.06a.16.16,0,0,1,.11,0,8.58,8.58,0,0,0,.67.62l.19-.22a2.2,2.2,0,0,0,.47-.77c0-.07.05-.12.09-.12S100.08,23.5,100.13,23.61Zm-1.21-1.12a.53.53,0,0,1,.1.22.14.14,0,0,1,0,.1,1.55,1.55,0,0,0-.24.41l-.08.17.58-.06.38,0,.44-.06.24-.05.1,0a.24.24,0,0,1,.14.07c.06.05.09.09.09.13a0,0,0,0,1,0,0l-1,.09-.66.09h-.07a.25.25,0,0,1-.14-.06l-.07-.06a5.61,5.61,0,0,1-.38.62,5.2,5.2,0,0,1-.6.69l-.07.05s0,0,0,0a.11.11,0,0,1,0-.06,5,5,0,0,0,.54-.76,6.42,6.42,0,0,0,.48-1,1.75,1.75,0,0,0,.12-.6s0-.06,0-.06S98.84,22.39,98.92,22.49Zm1,3.64a.52.52,0,0,1,0,.17.05.05,0,0,1,0,.06c-.14.09-.3.21-.47.35a7.3,7.3,0,0,1-.84.61,8,8,0,0,1-.82.43l-.09,0s0,0,0,0,0,0,.08-.06a7.67,7.67,0,0,0,1.26-.8,2.85,2.85,0,0,0,.75-.85.06.06,0,0,1,.06,0S99.87,26,99.91,26.13Zm-.48-.62a.52.52,0,0,1,0,.17,0,0,0,0,1,0,0L99.1,26a6.55,6.55,0,0,1-.61.46,4.3,4.3,0,0,1-.59.32h-.07s0,0,0,0l0,0a5.46,5.46,0,0,0,.9-.64,2,2,0,0,0,.54-.67,0,0,0,0,1,0,0S99.38,25.41,99.42,25.51Z"/><path class="cls-1" d="M104.84,23.48a.22.22,0,0,1,.08.13,0,0,0,0,1,0,0l-1.36.12-.88.11-.1,0a.22.22,0,0,1-.13-.06c-.06,0-.09-.08-.09-.1a0,0,0,0,1,0,0l.8-.07.51-.05.58-.08.31-.06.14,0A.25.25,0,0,1,104.84,23.48Zm-.34.84c.06,0,.09.08.09.11a0,0,0,0,1,0,0l-.85.07-.54.06h-.07a.17.17,0,0,1-.12-.06c-.06,0-.08-.07-.08-.09a0,0,0,0,1,0,0l.48,0,.31,0,.35,0,.19,0h.08A.26.26,0,0,1,104.5,24.32Zm0,.87c.06,0,.09.08.09.11a0,0,0,0,1,0,0l-.8.07-.51.06h-.06a.21.21,0,0,1-.12-.06s-.07-.07-.07-.09a0,0,0,0,1,0,0l.46,0,.29,0,.33,0,.17,0h.08A.26.26,0,0,1,104.5,25.2Zm-1.3.88a1.74,1.74,0,0,1,.08.29l.85-.15c.12,0,.2-.06.23-.11s.08-.12.11-.12.07,0,.13.12a.22.22,0,0,1,.07.11.2.2,0,0,1-.06.11.27.27,0,0,0-.05.14l-.13,1h0a.24.24,0,0,1,.12.06c.05,0,.08.07.08.09s0,0-.1,0l-1.25.14V28c0,.17,0,.27-.09.28s-.07-.05-.1-.14a.55.55,0,0,1-.06-.25.45.45,0,0,1,0-.12,2.81,2.81,0,0,0,0-.63c0-.43,0-.77,0-1s0-.2,0-.21,0-.09,0-.09S103.14,25.94,103.2,26.07Zm1.06,1.42.09-1.12-1,.15c0,.09,0,.2,0,.3v.79A7.75,7.75,0,0,0,104.26,27.5Zm-.69-5.11a3.86,3.86,0,0,1,.42.53.49.49,0,0,1,.09.19.42.42,0,0,1,0,.17c0,.09-.07.14-.1.14s-.07,0-.08-.09a5.1,5.1,0,0,0-.35-.84.3.3,0,0,1,0-.12,0,0,0,0,1,0,0Zm4,3.88.13.09c.06.07.09.11.09.14a.13.13,0,0,1,0,.09l-.71.77a3,3,0,0,1-.33.34c.14.1.3.19.45.27a3.21,3.21,0,0,0,.83.35c.17,0,.43.06.78.08,0,0,.05,0,.05,0a.06.06,0,0,1,0,.06l-1,.14a.21.21,0,0,1-.15-.06,11.26,11.26,0,0,0-1-.77,4.3,4.3,0,0,1-.46.33,5.69,5.69,0,0,1-1.16.55l-.38.13s0,0,0,0a.06.06,0,0,1,.05-.06A9.7,9.7,0,0,0,106,28a5,5,0,0,0,.42-.32c-.35-.25-.61-.42-.75-.51s-.06,0-.06-.06,0,0,.06,0h.11a.17.17,0,0,1,.12.05,5.81,5.81,0,0,0,.64.48,3.63,3.63,0,0,0,.41-.41,4.06,4.06,0,0,0,.4-.54l-.77.08-.78.09-.22,0a.25.25,0,0,1-.12,0c-.05,0-.07,0-.07-.07s0,0,0,0l1.92-.22a.16.16,0,0,0,.12-.08c.05-.06.08-.09.09-.09Zm-1.87-2.7a.59.59,0,0,1,.06.18s0,.05,0,.06a2.4,2.4,0,0,0-.18.27v.14l1-.12h0l-.23-.43a.47.47,0,0,1-.07-.13,0,0,0,0,1,0,0l0,0,.3.24a.24.24,0,0,1,.05.11.69.69,0,0,1,0,.21,0,0,0,0,1,0,0l.26,0a3.45,3.45,0,0,0,.62-.12l.14,0a.31.31,0,0,1,.14.06c.05,0,.08.07.08.08a0,0,0,0,1,0,0l-1.16.12v.47l.43-.05.25,0h.11a.28.28,0,0,1,.12,0s.07.07.07.09v0l-1,.09v.46h0l.48-.05.26,0h.12a.23.23,0,0,1,.12,0c.05,0,.08.07.08.09v0l-1.11.09V26l.35,0a5.16,5.16,0,0,0,.68-.1l.15,0a.4.4,0,0,1,.16.05c.06,0,.1.07.1.09a0,0,0,0,1,0,0l-2.6.25v.24c0,.06,0,.08-.06.08s-.06,0-.14-.14a.37.37,0,0,1-.06-.2,1,1,0,0,1,.05-.21,2,2,0,0,0,0-.41V24.37l-.22.33a2.74,2.74,0,0,1-.36.39l0,0s0,0,0,0a.07.07,0,0,1,0-.05,4.93,4.93,0,0,0,.5-.77,3.21,3.21,0,0,0,.3-.8s0,0,0,0S105.67,23.47,105.72,23.57Zm.18-1.14c.09.07.13.14.13.19a.35.35,0,0,1,0,.11.64.64,0,0,0,0,.09v1s0,.06-.06.06,0,0-.09-.08a.18.18,0,0,1-.06-.12.63.63,0,0,1,0-.15,1.41,1.41,0,0,0,0-.19s0-.09,0-.13l-.56.1-.2.06a.28.28,0,0,1-.13-.07s-.07-.06-.07-.08l0,0,.92-.15a3.43,3.43,0,0,0-.07-.48.42.42,0,0,1-.05-.12s0-.06,0-.06A.5.5,0,0,1,105.9,22.43Zm.69,3.54v-.53c-.37,0-.59.06-.68.07l-.09,0s-.06,0-.1-.06-.07-.07-.07-.09a0,0,0,0,1,0,0l.68-.05h.22v-.46l-.68.08h-.09a.17.17,0,0,1-.1-.05s-.07-.07-.07-.09a0,0,0,0,1,0,0l.64-.05.27,0v-.47l-1,.11v1.73Zm.71-3.67a.31.31,0,0,1,.11.18.83.83,0,0,0-.12.27l-.08.22a3.62,3.62,0,0,0,.72-.12H108a.25.25,0,0,1,.12.07c.05,0,.08.06.08.08s0,0-.09,0l-1,.12-.13.38c0,.1-.07.14-.12.14s0,0,0-.06a.62.62,0,0,1,0-.1c.06-.2.12-.43.18-.67a5.49,5.49,0,0,0,.05-.59s0-.05,0-.05S107.24,22.24,107.3,22.3Z"/><path class="cls-1" d="M111.5,22.75a1,1,0,0,1,.09.33v0l2.06-.22c.14,0,.22-.06.25-.11s.09-.12.12-.12.08,0,.16.12a.22.22,0,0,1,.06.11.19.19,0,0,1-.06.12.28.28,0,0,0-.07.17L113.93,28a11.4,11.4,0,0,0,1.43-.17l.18,0a.61.61,0,0,1,.2.1c.09.06.14.11.14.12s0,.06-.06.06c-.93,0-2.12.09-3.59.19-1.3.08-2,.13-2.11.16l-.2,0a.42.42,0,0,1-.22-.1c-.06,0-.09-.07-.09-.09s0-.06.09-.06l1.78-.05-.06-2.74c0-.5,0-1.21-.05-2.13a7.31,7.31,0,0,0-.06-.73,0,0,0,0,1,0,0S111.41,22.57,111.5,22.75Zm1.09,5.32,1.17-.09.14-4.92-2.32.23v1.44a7.17,7.17,0,0,0,1.45-.2l.14,0a.29.29,0,0,1,.12.06s.07.07.07.08,0,.06-.13.06l-1.66.2,0,1.44a6.48,6.48,0,0,0,1.46-.2h.15a.24.24,0,0,1,.12.06c.05,0,.08.06.08.08s0,.06-.13.06l-1.67.19,0,1.59Z"/><path class="cls-1" d="M50.17,31.77c.09.07.14.12.14.13s0,.06-.06.06L48.63,32l.08.06c.12.11.19.18.19.22a.37.37,0,0,1,0,.12.64.64,0,0,0,0,.19V37a2.23,2.23,0,0,1-.05.46c0,.13-.08.2-.12.2s-.07,0-.1-.09c-.33-.37-.63-.67-.9-.91,0,0-.07-.06-.07-.08s0-.05,0-.05l.42.22a2.44,2.44,0,0,0,.48.28s.07,0,.08-.14V33.2a4.68,4.68,0,0,0-.08-1,.82.82,0,0,1-.05-.17l-1.53.11c-1.19.1-1.84.16-1.94.18a.62.62,0,0,1-.19,0,.37.37,0,0,1-.22-.1c-.06,0-.09-.06-.09-.09s0-.06.09-.06c.4,0,1.29,0,2.68-.11a18.68,18.68,0,0,0,2.55-.3l.17,0A.7.7,0,0,1,50.17,31.77Zm-4.43,1.54a1.38,1.38,0,0,1,.08.35l1.08-.18c.12,0,.2-.06.23-.12s.08-.12.11-.12.06,0,.13.12a.28.28,0,0,1,.07.12.22.22,0,0,1-.06.1.28.28,0,0,0,0,.15L47.19,35h.11a.23.23,0,0,1,.12.06c.05,0,.08.07.08.08s0,.05-.12.05l-1.52.17v.29c0,.19,0,.28-.08.29s-.07,0-.1-.14a.49.49,0,0,1-.07-.25.63.63,0,0,1,0-.14,4.41,4.41,0,0,0,0-.77c0-.5,0-.88,0-1.13s0-.22,0-.25,0-.08,0-.08S45.68,33.18,45.74,33.31ZM47,35l.09-1.36-1.27.19c0,.08,0,.16,0,.25v1.06A8.67,8.67,0,0,0,47,35Z"/><path class="cls-1" d="M52.6,31.89c.09.1.14.17.14.21a.35.35,0,0,1,0,.13.76.76,0,0,0,0,.27v3.61l1.7-1.4a.2.2,0,0,1,.11-.06,0,0,0,0,1,0,0s0,.07-.09.12a15.16,15.16,0,0,0-1.74,1.74.15.15,0,0,1-.14.08.3.3,0,0,1-.14-.08c-.06,0-.09-.09-.09-.12a.11.11,0,0,1,0-.07.53.53,0,0,0,.1-.17,1.73,1.73,0,0,0,0-.43V32.44a2.24,2.24,0,0,0,0-.4,2,2,0,0,1-.07-.25s0-.06,0-.06S52.5,31.79,52.6,31.89Zm3.87-.39c.09.11.14.17.14.2a.34.34,0,0,1,0,.13,2.22,2.22,0,0,0-.13.69,14.79,14.79,0,0,1-.24,1.75,5.12,5.12,0,0,1-.37,1,.85.85,0,0,1,.2.1,8.74,8.74,0,0,1,1.1.89c.16.14.24.27.24.37a1.44,1.44,0,0,1,0,.24c0,.09,0,.13-.06.13s-.09-.05-.14-.14a7.54,7.54,0,0,0-1.25-1.44.29.29,0,0,1-.09-.09l-.07.16a4,4,0,0,1-.77,1,4.89,4.89,0,0,1-.93.74,2.62,2.62,0,0,1-.66.35,0,0,0,0,1,0,0s0,0,.07-.06a8.19,8.19,0,0,0,1-.72,4.52,4.52,0,0,0,1.39-2,7.37,7.37,0,0,0,.35-1.55A11.69,11.69,0,0,0,56.28,32c0-.07,0-.23,0-.48a1.05,1.05,0,0,1,0-.22s0,0,.06,0S56.37,31.38,56.47,31.5Zm-2.58.45a6.36,6.36,0,0,1,.8.67c.12.11.18.2.18.27a1.52,1.52,0,0,1,0,.25c0,.09,0,.12-.07.12s-.07,0-.1-.1a5.89,5.89,0,0,0-.9-1.16c-.06,0-.08-.07-.08-.09a0,0,0,0,1,0,0A.45.45,0,0,1,53.89,31.95Z"/><path class="cls-1" d="M61.85,31.17c.1.1.16.17.16.2a.83.83,0,0,1,0,.2,4.94,4.94,0,0,0,0,.73v.4l.59-.05a7.65,7.65,0,0,0,.3-.73A3.66,3.66,0,0,0,63,31.3a.05.05,0,0,1,.06-.05s.08.06.14.17a.54.54,0,0,1,.06.23s0,0,0,.07l-.59.91h0c.74-.06,1.19-.12,1.32-.14a.39.39,0,0,0,.26-.17c0-.05.06-.08.1-.08a.61.61,0,0,1,.14.12c.07.07.12.13.12.17s0,.09-.09.1a3.55,3.55,0,0,0-.64.74s0,0,0,0,0,0,0-.06a.49.49,0,0,1,.09-.17q.16-.3.26-.52l-4.28.4a1.54,1.54,0,0,1-.17.56c-.07.13-.13.2-.2.21s-.06,0-.1-.11a.43.43,0,0,1,0-.14.14.14,0,0,1,.06-.11,1.79,1.79,0,0,0,.42-1s0-.06,0-.06,0,.08,0,.23,0,.21,0,.3l1.94-.17v-.93a1.75,1.75,0,0,0-.07-.51,1,1,0,0,1-.08-.22s0,0,.06,0A.86.86,0,0,1,61.85,31.17ZM60.24,34.9a1.44,1.44,0,0,1,.08.38l3-.28a.14.14,0,0,0,.12-.06c0-.07.07-.11.08-.11a.39.39,0,0,1,.14.06c.07.05.11.09.11.11s0,.07-.09.13a.38.38,0,0,0-.05.21c0,.4-.05.77-.05,1.1s0,.65-.06.85-.06.22-.09.22-.07,0-.12-.13a.53.53,0,0,1-.05-.18.24.24,0,0,1,0-.14,2.53,2.53,0,0,0,.07-.43q.06-1.06.09-1.52l-1.52.15V36l.43,0,.27,0h.12a.25.25,0,0,1,.14.06c.06.05.09.09.09.12a0,0,0,0,1,0,0l-1,.06V37a6.19,6.19,0,0,0,.92-.1l.24,0a.29.29,0,0,1,.12.06c.05,0,.08.06.08.09s-.07.05-.22.06l-2.7.19v.15c0,.16,0,.25-.08.26s-.06,0-.09-.12a.4.4,0,0,1-.06-.22.88.88,0,0,1,0-.17c0-.15,0-.45,0-.9s0-.94,0-1.21,0-.24,0-.26,0-.09,0-.09S60.19,34.79,60.24,34.9Zm.12-3.27a5.43,5.43,0,0,1,.51.42.31.31,0,0,1,.09.19.89.89,0,0,1,0,.23c0,.06,0,.08-.08.08s0,0-.07-.09c-.13-.22-.26-.43-.41-.65a.84.84,0,0,1-.12-.2,0,0,0,0,1,0,0ZM61.73,37v-.85l-.77.05h-.08a.19.19,0,0,1-.12-.05c-.06,0-.08-.07-.08-.09a0,0,0,0,1,0,0l.69,0,.33,0v-.73l-1.4.14c0,.06,0,.12,0,.17v1.52Zm-1-3.73a1.08,1.08,0,0,1,.08.27l1.67-.22a.31.31,0,0,0,.21-.1c0-.06.08-.09.1-.09s.06,0,.12.09a.21.21,0,0,1,.06.1.2.2,0,0,1,0,.09.24.24,0,0,0,0,.13l-.12.64h.12a.21.21,0,0,1,.1.06s.06.07.06.09-.06.05-.16.05l-2,.2c0,.06,0,.1,0,.14s0,.12-.06.12-.09,0-.13-.13a.27.27,0,0,1,0-.15.86.86,0,0,1,0-.14c0-.09,0-.26,0-.51s0-.21,0-.3,0-.22,0-.29,0-.12,0-.12S60.74,33.26,60.76,33.31Zm1.87.95.09-.77-1.88.21a.85.85,0,0,1,0,.13c0,.21,0,.41,0,.6A15,15,0,0,0,62.64,34.26Z"/><path class="cls-1" d="M70.81,31.8c.06.05.09.09.09.13a0,0,0,0,1,0,0L69,32.1l.09.1a.6.6,0,0,1,.14.21.33.33,0,0,1,0,.13,2.19,2.19,0,0,0-.13.69c0,.23-.05.44-.07.64l.2,0,1.32-.14c.26,0,.49-.06.71-.11l.31-.06a.34.34,0,0,1,.18.08c.07.06.1.11.1.15s0,.05,0,.05L69,34c.18.28.43.66.75,1.13A11.49,11.49,0,0,0,71,36.79a2.82,2.82,0,0,0,1.14.48,0,0,0,0,1,0,0s0,0-.06.06l-.67.05-.35,0q-.09,0-.15-.13c-.3-.5-.69-1.1-1.14-1.81-.28-.42-.56-.88-.86-1.35,0,.24-.08.44-.12.61a4.61,4.61,0,0,1-.47,1.09,3.46,3.46,0,0,1-.77.88,5.12,5.12,0,0,1-.93.64,3,3,0,0,1-.67.3,0,0,0,0,1,0,0s0,0,.07-.06a8.58,8.58,0,0,0,1-.62,4.14,4.14,0,0,0,.76-.71,3.78,3.78,0,0,0,.63-1,5.37,5.37,0,0,0,.31-1.14h-.12c-1.09.09-1.76.15-2,.2l-.23,0a.29.29,0,0,1-.17-.07c-.08-.06-.12-.1-.12-.13s0,0,.06,0C67.1,34,67.71,34,68,34l.78-.07s0,0,0,0a8.77,8.77,0,0,0,.09-1.08c0-.07,0-.23,0-.48a.74.74,0,0,1,0-.15h-.06c-.72.05-1.17.09-1.32.12l-.15,0a.27.27,0,0,1-.15-.06c-.07-.05-.1-.09-.1-.11a0,0,0,0,1,0,0c.59,0,1-.05,1.21-.08l.77-.07.87-.09.47-.07.21,0A.3.3,0,0,1,70.81,31.8Z"/><path class="cls-1" d="M74.16,36a2.13,2.13,0,0,1-.26,1.17c-.08.14-.17.22-.25.24s-.06,0-.1-.09a.42.42,0,0,1,0-.13.14.14,0,0,1,.06-.12,2,2,0,0,0,.53-1.2s0-.06,0-.06S74.16,35.87,74.16,36Zm1-4.7a.59.59,0,0,1,.08.21.14.14,0,0,1-.05.09,3.92,3.92,0,0,0-.26.31L74,33.53l1.07-.15a4.29,4.29,0,0,0,.41-1,.05.05,0,0,1,.05-.06s.07.06.14.19a.6.6,0,0,1,.08.21.14.14,0,0,1-.07.11l-.33.36-1.18,1.87,1.39-.36c-.07-.14-.14-.3-.23-.44a.29.29,0,0,1-.06-.13,0,0,0,0,1,0,0,.2.2,0,0,1,.09.06,4.94,4.94,0,0,1,.5.62A.56.56,0,0,1,76,35a.45.45,0,0,1,0,.18c0,.09-.07.13-.1.13s-.08,0-.09-.1-.11-.29-.17-.44a11.63,11.63,0,0,0-1.39.5.51.51,0,0,1-.21.07s-.06,0-.09-.09a.22.22,0,0,1-.05-.11.07.07,0,0,1,0-.07,1.12,1.12,0,0,0,.35-.35A11.54,11.54,0,0,0,75,33.48a9.2,9.2,0,0,0-1,.25l-.17,0s-.06,0-.09-.09a.21.21,0,0,1,0-.11.07.07,0,0,1,0-.06,1,1,0,0,0,.27-.3c.22-.38.43-.76.6-1.14a4,4,0,0,0,.33-.92s0-.05,0-.05S75.1,31.17,75.18,31.3Zm-.4,4.51a4.4,4.4,0,0,1,.3.79.48.48,0,0,1-.06.2c-.06.09-.11.14-.14.14s-.05,0-.05-.07c0-.35-.07-.64-.1-.85a1.65,1.65,0,0,1,0-.3,0,0,0,0,1,0,0A.53.53,0,0,1,74.78,35.8Zm.73-.31a4.57,4.57,0,0,1,.41.58.63.63,0,0,1,.09.21.43.43,0,0,1,0,.18c0,.09-.07.13-.1.13s-.07,0-.08-.09a5.92,5.92,0,0,0-.35-.91.36.36,0,0,1,0-.12,0,0,0,0,1,0,0Zm1.76-4.18a.41.41,0,0,1,.1.2.49.49,0,0,1-.08.15,2.81,2.81,0,0,0-.24.58,8.48,8.48,0,0,1-.34.79l1.59-.16q.22,0,.26-.13c.06-.06.1-.1.13-.1a.42.42,0,0,1,.14.09.26.26,0,0,1,.09.14.32.32,0,0,1-.07.12.51.51,0,0,0-.07.27c-.13,1.58-.24,2.68-.33,3.31a4.3,4.3,0,0,1-.23.88c-.06.15-.11.23-.14.23s-.3-.3-.83-.9a.9.9,0,0,1-.17-.2s0-.06,0-.06l.11.09a3.56,3.56,0,0,0,.74.56c.07,0,.14-.12.2-.36A15.83,15.83,0,0,0,78.45,35c.07-.74.12-1.4.14-2l-1.5.19-.17,0a.46.46,0,0,1-.2,0l-.06,0c0,.07-.07.14-.09.2a5.47,5.47,0,0,1-.56.9c-.05.07-.08.1-.09.1s0,0,0,0l0-.07a7.09,7.09,0,0,0,.6-1.08,7.24,7.24,0,0,0,.4-1,3.37,3.37,0,0,0,.15-.87c0-.07,0-.12.06-.12S77.19,31.19,77.27,31.31Zm-.54,2.89a3.71,3.71,0,0,1,.48.6.5.5,0,0,1,.11.21.45.45,0,0,1,0,.18c0,.09-.08.13-.1.13s-.08,0-.09-.1a6.22,6.22,0,0,0-.42-.93.24.24,0,0,1-.06-.12,0,0,0,0,1,0,0S76.69,34.15,76.73,34.2Z"/><path class="cls-1" d="M83.52,31.15a.6.6,0,0,1,.09.22.12.12,0,0,1,0,.08l-.09.11c.19.17.45.39.77.67a9.57,9.57,0,0,0,1.35,1,4.14,4.14,0,0,0,1.22.3s0,0,0,0,0,0-.05.06a4.19,4.19,0,0,1-.65.22,1.28,1.28,0,0,1-.34.09.21.21,0,0,1-.17-.09l-.43-.42a.18.18,0,0,1,0,.09.22.22,0,0,0-.06.14l-.15,1h0a.33.33,0,0,1,.12.06c.05,0,.08.06.08.08s-.08.06-.24.06l-3,.21a2.05,2.05,0,0,0,0,.21c0,.09,0,.14-.06.14s-.08-.05-.13-.14a.28.28,0,0,1,0-.17,1.24,1.24,0,0,1,0-.19c0-.12,0-.34,0-.68,0-.14,0-.26,0-.38s0-.29,0-.36,0-.14,0-.14.05,0,.09.12a1.48,1.48,0,0,1,.06.28l2.83-.31c.12,0,.2-.06.23-.12l.06-.09-.62-.59c-.32-.29-.64-.59-1-.92l-.12.14a8.09,8.09,0,0,1-1.35,1.32,15.81,15.81,0,0,1-1.48,1l-.18.09s0,0,0,0l.06-.06A17.12,17.12,0,0,0,81.84,33a8,8,0,0,0,1-1,2.6,2.6,0,0,0,.44-.87c0-.05,0-.08.06-.08S83.46,31,83.52,31.15Zm-.25,3.61V33.7l-1.4.14c0,.07,0,.14,0,.22,0,.27,0,.54,0,.78Zm-1,.62a.78.78,0,0,1,.05.19l2-.17a.15.15,0,0,0,.12-.06c0-.06.06-.1.08-.1a.38.38,0,0,1,.14.06q.11.08.11.11s0,.07-.09.12a.43.43,0,0,0-.05.22q0,.52,0,1a7.24,7.24,0,0,1-.06.74c0,.13,0,.2-.07.2s-.07-.05-.12-.14a.45.45,0,0,1-.05-.17.28.28,0,0,1,0-.12h-.09l-1.92.12c0,.09,0,.2,0,.3s0,.12-.06.12-.05,0-.09-.12a.6.6,0,0,1,0-.19,1,1,0,0,1,0-.17c0-.16,0-.43,0-.82s0-.55,0-.87a3.39,3.39,0,0,0,0-.41,0,0,0,0,1,0,0S82.26,35.25,82.31,35.38Zm2.16-2.6c.06,0,.09.08.09.11a0,0,0,0,1,0,0l-1.2.09-.77.07-.09,0a.2.2,0,0,1-.12-.06c-.05,0-.07-.07-.07-.09a0,0,0,0,1,0,0l.69,0,.45,0,.5-.05.27,0h.12A.25.25,0,0,1,84.46,32.78Zm-2.07,1.14.35.35a.31.31,0,0,1,.06.15.76.76,0,0,1,0,.22s0,.07-.07.07,0,0,0-.07l-.27-.55a.61.61,0,0,1-.08-.17,0,0,0,0,1,0,0S82.37,33.89,82.39,33.91Zm1.68,3.14h.17a.22.22,0,0,1,.12.06l0,0a2,2,0,0,0,0-.31c0-.61.06-1,.07-1.3l-2.14.18c0,.09,0,.3,0,.6a11.38,11.38,0,0,0,1.51-.13H84a.22.22,0,0,1,.1.06s.07.06.07.08,0,0-.13,0l-1.7.13c0,.21,0,.45,0,.71C83.33,37.13,83.9,37.09,84.07,37.05Zm-.31-2.33a.35.35,0,0,1,.07-.13,1.56,1.56,0,0,0,.32-.82.06.06,0,0,1,.07-.06s.06,0,.13.11a.42.42,0,0,1,.07.14s0,0,0,.07l-.45.59a.37.37,0,0,1-.08.09,4.9,4.9,0,0,0,.89-.11h.06l.12-1.08-1.4.15v1.07Z"/><path class="cls-1" d="M90.86,34.69a1,1,0,0,1-.43.34h0a1.11,1.11,0,0,0,.29-.33.8.8,0,0,0,.14-.33c0-.09-.07-.14-.19-.14s-.25-.07-.25-.22.09-.24.29-.24a.34.34,0,0,1,.27.13.53.53,0,0,1,.1.33A.82.82,0,0,1,90.86,34.69Z"/><path class="cls-1" d="M96.45,32.88a.22.22,0,0,1,.08.13,0,0,0,0,1,0,0l-1,.09v1.2l1-.56.05,0a0,0,0,0,1,0,0,.19.19,0,0,1-.08.13l-1,.64v2.16a1.77,1.77,0,0,1-.05.41c0,.12-.08.18-.12.18s-.06,0-.09-.08c-.29-.34-.55-.62-.78-.84l-.06-.07s0-.06,0-.06a2.59,2.59,0,0,1,.35.22,1.91,1.91,0,0,0,.41.27c.06,0,.1,0,.11-.14V34.68l-.41.25a4.7,4.7,0,0,0-.63.41.16.16,0,0,1-.12.07.28.28,0,0,1-.15-.09.46.46,0,0,1-.1-.11.14.14,0,0,1,.05-.12,7.19,7.19,0,0,0,1-.44l.4-.22V33.15h-.13c-.48,0-.77.08-.87.1l-.1,0a.22.22,0,0,1-.13-.06c-.07,0-.09-.08-.09-.1a0,0,0,0,1,0,0l.8-.06.5-.06v-1a4.06,4.06,0,0,0-.08-.9.68.68,0,0,1-.06-.2,0,0,0,0,1,0,0,.69.69,0,0,1,.22.12c.12.09.17.16.17.2a.23.23,0,0,1,0,.12.51.51,0,0,0,0,.17v1.54l.38,0,.3-.06.14,0A.25.25,0,0,1,96.45,32.88Zm3.32-.65c.06.06.09.1.09.13a0,0,0,0,1,0,0l-1.53.11h0c.12.1.17.17.17.2a.27.27,0,0,1,0,.11.41.41,0,0,0-.05.17v3.76a1.78,1.78,0,0,1-.05.41c0,.12-.07.18-.12.18s-.08,0-.12-.09a11.09,11.09,0,0,0-1-.93L97,36.23s0-.05,0-.05a4.18,4.18,0,0,1,.49.26,2.59,2.59,0,0,0,.56.33c.06,0,.1-.05.12-.14V33.51a4,4,0,0,0-.08-.9l0-.11H98c-.65,0-1,.08-1.19.1l-.14,0a.26.26,0,0,1-.15-.06c-.07-.05-.1-.09-.1-.11a0,0,0,0,1,0,0l1.09-.07.7-.06.78-.07.43-.06.19,0A.29.29,0,0,1,99.77,32.23Z"/><path class="cls-1" d="M102.67,33.7c.05.06.08.1.08.13a.14.14,0,0,1-.06.1,4.55,4.55,0,0,0-.56.88.45.45,0,0,0-.07.16.3.3,0,0,0,.07.14,4.27,4.27,0,0,1,.2.38.55.55,0,0,1,.07.24,1,1,0,0,1-.14.42,2.47,2.47,0,0,1-.15.27,7.93,7.93,0,0,1,.88.11c.55.12,1.19.22,1.92.32a11.56,11.56,0,0,0,1.37.15,4.38,4.38,0,0,0,.75-.19l.3-.09s.05,0,.05,0,0,0-.05.06c-.23.13-.48.29-.75.46a1.61,1.61,0,0,1-.27.16.63.63,0,0,1-.24,0c-1.48-.37-2.55-.61-3.2-.72a5.62,5.62,0,0,0-.85-.12,1.36,1.36,0,0,0-.33,0,.79.79,0,0,1-.27.05.22.22,0,0,1-.16-.07s-.07-.07-.07-.09,0,0,.07,0H102l0-.07a1.57,1.57,0,0,0,.19-.62,1.36,1.36,0,0,0-.26-.66.12.12,0,0,1-.05-.1.15.15,0,0,1,.05-.11,5.69,5.69,0,0,0,.28-.58,1.49,1.49,0,0,0,.12-.34l-.7.1-.3.06a.64.64,0,0,1-.19,0A.23.23,0,0,1,101,34C101,34,101,34,101,34a0,0,0,0,1,0,0l1.1-.18a.59.59,0,0,0,.3-.09c.06-.06.1-.09.14-.09A.25.25,0,0,1,102.67,33.7Zm-1-2a4.57,4.57,0,0,1,.59.54c.09.09.14.16.14.2a.39.39,0,0,1,0,.17c0,.09-.08.14-.11.14s-.09,0-.12-.09a4.29,4.29,0,0,0-.54-.86.28.28,0,0,1-.07-.12,0,0,0,0,1,0,0Zm2.26-.18a.46.46,0,0,1,.11.21.2.2,0,0,1,0,.09,1.72,1.72,0,0,0-.13.35l-.13.37.88-.12V31.6a3.25,3.25,0,0,0,0-.58,2.11,2.11,0,0,1-.07-.24,0,0,0,0,1,0,0,1,1,0,0,1,.2.15c.12.11.17.18.17.21a1.1,1.1,0,0,1,0,.23,6.16,6.16,0,0,0,0,.82v.23l.17,0a2.83,2.83,0,0,0,.59-.13l.14,0a.42.42,0,0,1,.17.07c.07,0,.11.07.11.09a0,0,0,0,1,0,0l-1.16.15V33.7h.09l.85-.09.46-.08.21,0a.29.29,0,0,1,.16.06c.06.05.09.09.09.13a0,0,0,0,1,0,0l-2,.17q-1.06.09-1.3.13a.38.38,0,0,1-.15,0A.31.31,0,0,1,103,34c-.07,0-.1-.08-.1-.11a0,0,0,0,1,0,0q.87,0,1.19-.09l.48,0V32.6l-1,.12-.09.19a4.53,4.53,0,0,1-.34.6l0,0s0,0,0,0l0,0a4.88,4.88,0,0,0,.25-.67c.1-.32.18-.61.23-.85a2.81,2.81,0,0,0,.06-.53s0-.05,0-.05S103.84,31.42,103.91,31.53Zm-.16,3a.77.77,0,0,1,.05.21l1.71-.25a.17.17,0,0,0,.14-.08s.07-.06.08-.06a.28.28,0,0,1,.12.07c.06.05.1.09.1.1s0,0-.06.06a1,1,0,0,0-.11.41c0,.27-.06.55-.08.84h.08a.33.33,0,0,1,.12.06s.08.07.08.08-.06.05-.16.05l-2,.17c0,.09,0,.2,0,.3s0,.1-.06.1-.05,0-.09-.12a.54.54,0,0,1,0-.19.89.89,0,0,1,0-.14c0-.13,0-.35,0-.68s0-.48,0-.75a2.47,2.47,0,0,0,0-.35,0,0,0,0,1,0,0S103.7,34.41,103.75,34.54Zm1.77,1.33.12-1.18-1.82.22c0,.19,0,.56,0,1.11A13.6,13.6,0,0,0,105.52,35.87Z"/><path class="cls-1" d="M110.65,33.59c.06.05.09.09.09.13a0,0,0,0,1,0,0l-.9,0v.28l0,0,.66.51a.2.2,0,0,1,.08.15s0,.11,0,.2,0,.12,0,.12-.06,0-.09-.07a6.93,6.93,0,0,0-.61-.8v2.63c0,.17,0,.33,0,.5s0,.23-.06.23-.07-.06-.14-.2a.31.31,0,0,1-.06-.17.24.24,0,0,1,0-.11,1,1,0,0,0,0-.2,4.53,4.53,0,0,0,0-.54V34.26c-.08.19-.17.4-.29.62a8.25,8.25,0,0,1-.93,1.41c-.18.21-.29.31-.33.31s0,0,0,0,0,0,.06-.09a8.73,8.73,0,0,0,.93-1.4,9.74,9.74,0,0,0,.56-1.28h-.14l-.83.06h-.09a.26.26,0,0,1-.14-.07c-.06,0-.09-.08-.09-.1a0,0,0,0,1,0,0l.76,0,.49,0h.06V31.79a3.49,3.49,0,0,0-.05-.59,1.09,1.09,0,0,1-.07-.2,0,0,0,0,1,0,0,.73.73,0,0,1,.2.12c.09.09.14.16.14.19a.48.48,0,0,1,0,.15.75.75,0,0,0,0,.3v1.86l.28,0,.3,0h.13A.23.23,0,0,1,110.65,33.59Zm-2-1.54a4.38,4.38,0,0,1,.41.56.62.62,0,0,1,.09.2.65.65,0,0,1,0,.17c0,.09-.08.14-.11.14s-.07,0-.08-.09a4.7,4.7,0,0,0-.35-.89.36.36,0,0,1,0-.12s0,0,0,0Zm2.09-.17a.52.52,0,0,1,.06.2.13.13,0,0,1,0,.08q-.18.28-.56.91a.31.31,0,0,1-.08.09s0,0,0,0l0-.05a6.73,6.73,0,0,0,.3-.7,3.45,3.45,0,0,0,.16-.58s0-.06.06-.06S110.69,31.79,110.74,31.88Zm2.45,1.88c.08.06.12.1.12.12a.15.15,0,0,1-.09.12.63.63,0,0,0-.09.19c-.14,1.06-.3,1.91-.44,2.56-.09.35-.17.52-.21.52a7,7,0,0,1-.72-.81.1.1,0,0,1,0-.07,0,0,0,0,1,0,0l.12.07a2.5,2.5,0,0,0,.56.41s.07-.08.11-.18a15,15,0,0,0,.39-2.66l-.93.08h-.14l.06.1a.47.47,0,0,1,.08.2.07.07,0,0,1,0,.05,2.21,2.21,0,0,0-.14.34,8.63,8.63,0,0,1-.35.91,5.63,5.63,0,0,1-.49.87,5.85,5.85,0,0,1-.75.81l-.1.07s0,0,0,0a.06.06,0,0,1,0-.06,6.66,6.66,0,0,0,.46-.54,5.09,5.09,0,0,0,.51-.75,6.23,6.23,0,0,0,.43-1,4.12,4.12,0,0,0,.21-1h0l-.43,0h-.13a.27.27,0,0,1-.14-.05c-.06,0-.09-.07-.09-.09s0,0,0,0l1.75-.12a.39.39,0,0,0,.19-.11c.06-.07.1-.12.12-.12Zm-1.4-2.11a.55.55,0,0,1,.11.23.22.22,0,0,1,0,.12,2.19,2.19,0,0,0-.24.51,6.67,6.67,0,0,1-.51,1.06,5.63,5.63,0,0,1-.62.86s0,.07-.06.07,0,0,0,0a.15.15,0,0,1,0-.06,6,6,0,0,0,.54-.93,8.05,8.05,0,0,0,.48-1.2,2.55,2.55,0,0,0,.12-.74s0-.06,0-.06S111.7,31.54,111.79,31.65Zm.84-.54c.06,0,.09.06.09.09a1,1,0,0,0,.09.42l.56,1.35a1.33,1.33,0,0,0,.34.51,2,2,0,0,0,.77.24.07.07,0,0,1,0,.06.05.05,0,0,1-.06.05h-.87c-.09,0-.14,0-.16-.08l-.75-2.16a1.3,1.3,0,0,0-.14-.35.35.35,0,0,1-.08-.13,0,0,0,0,1,.05-.05Z"/><path class="cls-1" d="M116.88,31a.89.89,0,0,1,.09.22.33.33,0,0,1-.06.14,8,8,0,0,0-.24,1.16c0,.19-.07.47-.12.82l.65-.09c0-.2,0-.36,0-.5a0,0,0,0,1,0,0s.05,0,.11.13a.47.47,0,0,1,.09.18.47.47,0,0,1,0,.16c0,.17-.1.43-.16.75A11.53,11.53,0,0,1,117,35v0a5.57,5.57,0,0,1,.54.32.56.56,0,0,1,.1.41c0,.06,0,.09-.05.09a.13.13,0,0,1-.09-.05l-.54-.53,0,0a4.42,4.42,0,0,1-.52,1,5.66,5.66,0,0,1-.67.77c-.05,0-.08.07-.09.07a0,0,0,0,1,0,0s0,0,0-.06a7.8,7.8,0,0,0,.61-.76,4.45,4.45,0,0,0,.46-.84c0-.09.07-.17.1-.26a3.83,3.83,0,0,0-.57-.35.1.1,0,0,1-.08-.1.67.67,0,0,1,0-.21c.08-.33.15-.69.22-1.07l-.09,0a2.84,2.84,0,0,0-.43.13l-.05,0a.27.27,0,0,1-.16-.09c-.07,0-.1-.08-.1-.11s0,0,0,0a5.08,5.08,0,0,0,.56-.06l.26,0c.06-.35.12-.7.17-1.07.07-.62.12-1.08.14-1.37,0,0,0-.06,0-.06S116.82,30.88,116.88,31Zm-.35,2.46c0,.26-.1.54-.17.86a2.77,2.77,0,0,0-.06.43s0,.06.09.1l.44.2c.09-.29.17-.62.25-1s.09-.54.12-.75Zm2.76-1.3c.06,0,.09.06.09.08a0,0,0,0,1,0,0l-.82.07v.84l.48-.06a.12.12,0,0,0,.11-.08s0-.07.06-.07l.09.06c.05,0,.08.07.08.09a.09.09,0,0,1,0,.06.55.55,0,0,0-.12.3c0,.19-.05.38-.07.58h0a.21.21,0,0,1,.1.06s.07.07.07.08,0,0-.12,0l-.71.07v.38l.61.52a.23.23,0,0,1,.07.17s0,.09,0,.16,0,.1,0,.1-.06,0-.09-.08a6.63,6.63,0,0,0-.56-.73v2c0,.14,0,.3,0,.45s0,.2-.06.2-.07-.06-.12-.17a.27.27,0,0,1-.05-.15.22.22,0,0,1,0-.1.77.77,0,0,0,0-.19,3.62,3.62,0,0,0,0-.5V34.79c-.06.14-.12.3-.2.47a7.17,7.17,0,0,1-.75,1.23c-.14.19-.24.27-.27.27s0,0,0,0,0,0,.05-.08a7.78,7.78,0,0,0,.74-1.24,8,8,0,0,0,.45-1.12l-.46.06a1.84,1.84,0,0,0,0,.2c0,.08,0,.12-.05.12s-.09,0-.13-.13a.26.26,0,0,1,0-.15,1.17,1.17,0,0,1,0-.17c0-.09,0-.28,0-.57,0-.12,0-.23,0-.33s0-.25,0-.32,0-.11,0-.11,0,0,.06.08a.83.83,0,0,1,.07.27l.52-.07v-.85l-.44.05-.24,0a.15.15,0,0,1-.12-.05.11.11,0,0,1-.05-.09s0,0,0,0l.82-.06v-.56a3,3,0,0,0-.05-.53.76.76,0,0,1-.07-.18,0,0,0,0,1,0,0,.76.76,0,0,1,.18.12c.09.09.13.14.13.17a.43.43,0,0,1,0,.14.69.69,0,0,0,0,.28v.58l.46-.05.19,0Zm-.93,2V33.3l-.51.07a1.62,1.62,0,0,0,0,.18c0,.22,0,.43,0,.64Zm.17,0,.43-.06.14-.85-.57.06Zm1.62-3a.38.38,0,0,1,.11.2,1,1,0,0,1-.05.18,4.87,4.87,0,0,0-.14.69c-.07.34-.14.67-.22,1l.79-.17a1.36,1.36,0,0,0,.38-.13l.09,0a.29.29,0,0,1,.14.06c.06,0,.09.06.09.08a0,0,0,0,1,0,0l-.74.13.05.07a.69.69,0,0,1,.09.2.16.16,0,0,1,0,.09,2,2,0,0,0-.17.65,9,9,0,0,1-.27,1.16l.07.14A4.14,4.14,0,0,0,121,36.7a1.53,1.53,0,0,0,.72.3s.06,0,.06,0a.07.07,0,0,1,0,.06l-.84,0s-.07-.06-.09-.12c-.1-.3-.3-.81-.61-1.51a.25.25,0,0,0,0,.08,4.88,4.88,0,0,1-.51,1,4.74,4.74,0,0,1-.64.7.31.31,0,0,1-.12.07,0,0,0,0,1,0,0s0,0,.06-.06a4.88,4.88,0,0,0,.67-.87,5,5,0,0,0,.41-.84c0-.09.07-.19.09-.29q-.39-.89-.52-1.13a.06.06,0,0,1,0,0l-.15.43c0,.09-.05.12-.06.12s0,0,0,0a.32.32,0,0,1,0-.07c.12-.39.22-.82.32-1.29s.17-.86.21-1.22.07-.67.08-1c0-.07,0-.12,0-.12S120.08,31,120.15,31.09Zm-.46,3a.2.2,0,0,1,.14.09,4.66,4.66,0,0,0,.33,1c.05-.2.09-.42.14-.65a11,11,0,0,0,.15-1.29l-.64.12c0,.07,0,.15-.05.21s-.12.38-.17.54Z"/><path class="cls-1" d="M125.35,33.08c.06.06.1.1.1.13a.22.22,0,0,1,0,.1,1.91,1.91,0,0,0-.25.5,6.49,6.49,0,0,1-.43,1,3.83,3.83,0,0,1-.49.67,4.7,4.7,0,0,1-.77.72,4.58,4.58,0,0,1-.71.44l-.09,0s0,0,0-.06l.07-.06c.23-.16.44-.32.64-.48a4.67,4.67,0,0,0,.68-.67,4.75,4.75,0,0,0,.56-.85,6.46,6.46,0,0,0,.46-1.16,12.39,12.39,0,0,0-1.34.28.28.28,0,0,1-.13.06.33.33,0,0,1-.16-.05c-.09,0-.12-.06-.12-.09s0,0,0,0l1.58-.33a.24.24,0,0,0,.18-.11c.06-.08.1-.12.13-.12A.58.58,0,0,1,125.35,33.08Zm.46-2.18c.12.11.19.18.19.22a.28.28,0,0,1,0,.12.65.65,0,0,0,0,.19v1.45l.58.95h0q.4-.37.69-.67a1.42,1.42,0,0,0,.36-.57s0-.06.07-.06.09.09.15.23a.92.92,0,0,1,0,.25s0,.06-.07.07a2.75,2.75,0,0,0-.35.22l-.87.63.09.14a13.27,13.27,0,0,0,1.23,1.7,2.53,2.53,0,0,0,1.11.51.08.08,0,0,1,0,.06s0,0-.09.06-.36.06-.67.09a2.18,2.18,0,0,1-.35.05c-.05,0-.09,0-.14-.14-.29-.54-.65-1.19-1.08-1.95-.25-.42-.49-.86-.75-1.32v3.52a2.18,2.18,0,0,1-.05.46c0,.13-.08.2-.12.2s-.06,0-.09-.09a11.36,11.36,0,0,0-.75-.91l-.06-.07s0-.06,0-.06l.34.22a1.82,1.82,0,0,0,.4.28s.07,0,.09-.14V32a4.25,4.25,0,0,0-.09-1,.76.76,0,0,1-.06-.22s0,0,0,0A.66.66,0,0,1,125.81,30.9Z"/><path class="cls-1" d="M130.76,34.28a1.13,1.13,0,0,1,.07.31v.05l1.41-.14a.14.14,0,0,0,.12-.07c0-.06.06-.1.08-.1a.31.31,0,0,1,.14.06c.07.05.11.09.11.11s0,.07-.09.12a.43.43,0,0,0-.05.22c0,.44,0,.84,0,1.19s0,.72,0,.93,0,.25-.06.25-.07,0-.12-.13a.53.53,0,0,1-.05-.18.34.34,0,0,1,0-.15v0h-.08l-1.37.12c0,.09,0,.2,0,.3s0,.17-.06.17-.06,0-.09-.12a.52.52,0,0,1-.05-.19,2.15,2.15,0,0,1,0-.22c0-.2,0-.57,0-1.09,0-.32,0-.68,0-1.08a5,5,0,0,0,0-.51,0,0,0,0,1,0,0S130.7,34.15,130.76,34.28Zm1.22,2.3h.12a.25.25,0,0,1,.12.06l.06,0a3.85,3.85,0,0,0,0-.39c0-.79,0-1.34.06-1.66l-1.54.15v.8a5.3,5.3,0,0,0,1-.13h.1a.21.21,0,0,1,.1.06s.07.07.07.09,0,0-.09,0l-1.2.13c0,.26,0,.55,0,.88v.08A7.24,7.24,0,0,0,132,36.58Zm0-5.43a1.17,1.17,0,0,1,.07.3v.11l1.86-.25c.14,0,.22-.06.25-.12s.09-.11.12-.11.08,0,.16.11a.27.27,0,0,1,.06.12.19.19,0,0,1-.06.12.26.26,0,0,0-.07.17l-.17,1.58h.05a.29.29,0,0,1,.12.06c.05,0,.08.06.08.08s-.06.06-.17.06l-2.23.19v.25c0,.1,0,.15-.06.15s-.06,0-.09-.12a.49.49,0,0,1-.05-.19,1.57,1.57,0,0,1,0-.2c0-.19,0-.52,0-1,0-.3,0-.64,0-1a4.47,4.47,0,0,0,0-.47,0,0,0,0,1,0,0S131.89,31,131.95,31.15Zm2,2.06.13-1.74-2.11.26v.74a7.22,7.22,0,0,0,1.38-.17h.14l.1.06s.07.06.07.08,0,.05-.12.05l-1.57.17c0,.22,0,.44,0,.69v.09A17,17,0,0,0,134,33.21Zm-.44,1a.75.75,0,0,1,.06.27l1.53-.13a.14.14,0,0,0,.12-.07c0-.07.07-.11.09-.11a.32.32,0,0,1,.14.07q.11.06.11.11s0,.07-.09.12a.43.43,0,0,0-.05.22c0,.46,0,.89,0,1.27s0,.76,0,1,0,.25,0,.25-.08,0-.12-.13a.53.53,0,0,1-.05-.18.59.59,0,0,1,0-.16s0,0,0,0h-.09l-1.49.1v.3c0,.1,0,.16-.06.16s-.05,0-.09-.12a.67.67,0,0,1,0-.19,2.17,2.17,0,0,1,0-.22q0-.3,0-1.08c0-.33,0-.69,0-1.09a4.85,4.85,0,0,0,0-.51,0,0,0,0,1,0,0S133.5,34,133.55,34.17Zm1.35,2.32H135a.32.32,0,0,1,.12.06l.06,0c0-.11,0-.24,0-.39,0-.85,0-1.44.06-1.77l-1.67.16c0,.17,0,.45,0,.85a6.75,6.75,0,0,0,1-.09h.1a.21.21,0,0,1,.12.06c.05,0,.08.07.08.08s0,0-.09,0l-1.17.11c0,.27,0,.57,0,.9v.09C134.33,36.56,134.77,36.52,134.9,36.49Z"/><path class="cls-1" d="M138.5,31.08a1.1,1.1,0,0,1,.12.37v0c.75-.06,1.4-.12,2-.18a5.41,5.41,0,0,0,.88-.12.89.89,0,0,1,.2,0l.16.06c.06,0,.09.06.09.09a0,0,0,0,1,0,0l-3.28.3c0,.38,0,.78-.07,1.19a7.25,7.25,0,0,1-.25,1.25,5.33,5.33,0,0,1-.46,1.07,6.39,6.39,0,0,1-.6.8l-.08.09s0,0,0,0l.05-.09c.19-.27.34-.52.46-.74a4.13,4.13,0,0,0,.36-.8,6.68,6.68,0,0,0,.29-1.19,11.22,11.22,0,0,0,.1-1.66c0-.09,0-.22,0-.38s0-.2,0-.24a0,0,0,0,1,0,0A.84.84,0,0,1,138.5,31.08Zm3.85,1.57c.06.05.09.09.09.13a0,0,0,0,1,0,0l-2.08.17h-.07a11.9,11.9,0,0,0,.82.88l0,0,.53-.51a1.08,1.08,0,0,0,.27-.43s0,0,.06,0,.07.06.1.17a.84.84,0,0,1,0,.19s0,0-.06.05l-.26.17-.65.47a4.52,4.52,0,0,0,.41.37,2.68,2.68,0,0,0,1.35.44s.05,0,.05.06,0,.06-.11.06l-.71.05a1.8,1.8,0,0,1-.35,0c-.07,0-.14-.06-.22-.17-.47-.59-1-1.18-1.45-1.76l-.64.06v1.56l.79-.51c.06,0,.09,0,.09,0a.13.13,0,0,1,0,.07,8.7,8.7,0,0,0-.93.78.18.18,0,0,1-.09.06.25.25,0,0,1-.1-.07c-.05,0-.07-.08-.07-.1a.06.06,0,0,1,0,0l.09-.08a.29.29,0,0,0,.05-.13c0-.07,0-.17,0-.29V33.08l-.27,0a.42.42,0,0,1-.15,0,.25.25,0,0,1-.14-.06c-.06,0-.09-.08-.09-.11a0,0,0,0,1,0,0c.59,0,1-.06,1.22-.09l.77-.07.88-.09.46-.08.22,0A.22.22,0,0,1,142.34,32.65ZM139,35.18a1.12,1.12,0,0,1,.06.31v.07l2.18-.27a.36.36,0,0,0,.25-.12c0-.07.09-.12.12-.12s.08,0,.15.12.07.09.07.12,0,.06-.07.12a.25.25,0,0,0-.07.17l-.16,1.07h0a.3.3,0,0,1,.12.06s.07.06.07.09-.07,0-.2.05L139,37c0,.09,0,.18,0,.28s0,.12-.06.12-.05,0-.09-.12a.6.6,0,0,1,0-.19.89.89,0,0,1,0-.15q0-.22,0-.76,0-.37,0-.82a2.84,2.84,0,0,0,0-.38,0,0,0,0,1,0,0S138.92,35.05,139,35.18Zm2.55-3.25c.06,0,.09.08.09.11a0,0,0,0,1,0,0l-1.39.12-.89.09-.09,0a.17.17,0,0,1-.12-.06c-.06,0-.08-.07-.08-.09a0,0,0,0,1,0,0l.81-.06.51-.06.58-.06.31-.05.14,0A.27.27,0,0,1,141.53,31.94Zm-.2,4.74h0l.12-1.22-2.42.28c0,.24,0,.62,0,1.14A20.13,20.13,0,0,0,141.33,36.67Z"/><path class="cls-1" d="M148,34.74a.84.84,0,0,1-.62.25.86.86,0,0,1-.87-.87.88.88,0,1,1,1.5.62Zm-.12-1.13a.71.71,0,0,0-.51-.21.69.69,0,0,0-.51.21.7.7,0,0,0-.2.51.69.69,0,0,0,.71.71.71.71,0,0,0,.51-.2.69.69,0,0,0,.21-.51A.71.71,0,0,0,147.91,33.61Z"/><rect class="cls-2" width="17.88" height="66.2"/><path class="cls-3" d="M7.88,17.9H7.53v-.55H6.58v.71H6.23V12.56H7.88Zm-.36-3.14V12.93H6.58v1.83Zm0,2.23V15.11H6.58V17Zm4.25-3.73H10.19v1h1.4v.35H8.42v-.35H9.84v-1H8.18v-.37H9.84v-.76h.35v.76h1.58Zm.16,2.58h-.75v1.81a.5.5,0,0,1-.19.47,1.53,1.53,0,0,1-.72.11H9.88l-.14-.37.58,0a1,1,0,0,0,.42-.05.19.19,0,0,0,.09-.18V15.84H8.18v-.36h2.65v-.65h.35v.65h.75Zm-2,1.41-.3.19a5.78,5.78,0,0,0-.88-1.07l.3-.21A7.23,7.23,0,0,1,9.89,17.25Z"/><path class="cls-3" d="M11.49,24.78a.46.46,0,0,1-.09.3.4.4,0,0,1-.26.14,4.41,4.41,0,0,1-.6,0h-.36l-.11-.38.89,0c.12,0,.19-.05.19-.16V21.51H6.8v3.73H6.45V21.15H8.8v-2h.34v2h2.34Zm-3.58-4-.34.17a5.51,5.51,0,0,0-.92-1.38l.3-.19A8.16,8.16,0,0,1,7.91,20.76Zm2.26,3.48H7.77V22.29h2.41Zm-.36-.36V22.63H8.11v1.25Zm1.5-4.29a8.91,8.91,0,0,1-1,1.35L10,20.74a7,7,0,0,0,1-1.31Z"/><path class="cls-3" d="M8.38,27.67a5.86,5.86,0,0,1-2.15,3.95L6,31.32A5.35,5.35,0,0,0,8,28H6.24v-.37ZM12,31.26l-.24.33a6.94,6.94,0,0,1-2.49-2.81v2.91a.58.58,0,0,1-.08.35.35.35,0,0,1-.21.14,3.31,3.31,0,0,1-.54,0H7.87l-.12-.37.93,0a.16.16,0,0,0,.18-.18V26.08h.36v1.51a2.1,2.1,0,0,0,.34,1.07,9.61,9.61,0,0,0,1.75-1.71l.29.25A10.4,10.4,0,0,1,9.74,29,6,6,0,0,0,12,31.26Z"/><path class="cls-3" d="M8.59,39.17H8.25v-.36H6.6v.36H6.27v-3H8.59Zm-.35-1.86V36.5H6.6v.81Zm0,1.17v-.84H6.6v.84ZM11,35.56H7V33.22h4Zm-.36-1.35v-.65H7.36v.65Zm0,1v-.67H7.36v.67Zm1.08,3.94h-.34v-.36H9.61v.36H9.26v-3h2.41Zm-.34-1.86V36.5H9.61v.81Zm0,1.17v-.84H9.61v.84Z"/><path class="cls-3" d="M8.29,42.72a3.54,3.54,0,0,1-.51.75l.33.4-.21.3a4.24,4.24,0,0,0-.69-.8v2.79H6.87V43.53a8.84,8.84,0,0,1-.65.63L6,43.91a4.93,4.93,0,0,0,1.63-2.38H6.08v-.34H7.94v.34A4,4,0,0,1,7.27,43a2.12,2.12,0,0,1,.26.24A2.8,2.8,0,0,0,8,42.55Zm-.86-2L7.15,41a2.94,2.94,0,0,0-.61-.74L6.77,40A2.51,2.51,0,0,1,7.43,40.77Zm4.49,4.85-.2.29A5.5,5.5,0,0,1,10.14,44v2.17H9.81V44A6.76,6.76,0,0,1,8.2,45.88l-.26-.23a6.3,6.3,0,0,0,1.64-1.93H8.2v-.36H9.81v-.59H8.45V40.24h3.11v2.53H10.14v.59H11.9v.36H10.34A5.06,5.06,0,0,0,11.92,45.62ZM9.81,41.3v-.73h-1v.73Zm0,1.12v-.8h-1v.8Zm1.41-1.12v-.73H10.14v.73Zm0,1.12v-.8H10.14v.8Z"/><path class="cls-3" d="M11.76,49.3H7.95v1A8,8,0,0,0,9.14,50l.08.32q-.72.22-1.59.41l-.12-.32a.22.22,0,0,0,.1-.19V49.3H6.79a3.49,3.49,0,0,1-.66,1.79l-.29-.27a2.91,2.91,0,0,0,.52-1.06,7.7,7.7,0,0,0,.12-1.56v-1h5.17v.35H6.84v.52h4.47v.33H6.83a4.89,4.89,0,0,1,0,.54h5Zm-.47,3.84h-.35v-.37H7.07v.37H6.71V51H11.3Zm-.35-.72V51.36H7.07v1.06Zm1.17-1.77-.18.32A3.58,3.58,0,0,1,9.41,49.6l.33-.15a2.56,2.56,0,0,0,.58.56,4.25,4.25,0,0,0,.8-.59l.31.21a3.63,3.63,0,0,1-.75.57A4.78,4.78,0,0,0,12.11,50.66Z"/><line class="cls-4" x1="36.96" y1="24.05" x2="29.13" y2="37.38"/><line class="cls-4" x1="160.06" y1="25.21" x2="152.22" y2="38.54"/><path class="cls-5" d="M162.46,20.75A3.19,3.19,0,0,1,161,21.89l-.05,0a3.8,3.8,0,0,0,1-1.12,2.69,2.69,0,0,0,.46-1.12c0-.29-.22-.46-.63-.46s-.83-.24-.83-.76.32-.8,1-.8a1.17,1.17,0,0,1,.92.44,1.79,1.79,0,0,1,.34,1.1A2.75,2.75,0,0,1,162.46,20.75Z"/><path class="cls-5" d="M165.16,20.75a3.19,3.19,0,0,1-1.46,1.14l-.05,0a3.81,3.81,0,0,0,1-1.12,2.69,2.69,0,0,0,.46-1.12c0-.29-.22-.46-.63-.46s-.83-.24-.83-.76.32-.8,1-.8a1.17,1.17,0,0,1,.92.44,1.79,1.79,0,0,1,.34,1.1A2.75,2.75,0,0,1,165.16,20.75Z"/><g class="cls-6"><path class="cls-2" d="M174.37,31.81a40.1,40.1,0,0,1,5.84.59,21.77,21.77,0,0,1-5.84,1.12,21.89,21.89,0,0,1-5.85-1.12,40.3,40.3,0,0,1,5.84-.59Zm9.92-.66a42.85,42.85,0,0,1-4.87-2.87,4.56,4.56,0,0,0-3.88-.77,4.33,4.33,0,0,0-1.19.53,4.32,4.32,0,0,0-2.83-.55,4.94,4.94,0,0,0-1.88.7l-.34.21-5.66,3.21,5.44,4.82a7.63,7.63,0,0,0,3,1.67,9,9,0,0,0,2.46.35,8,8,0,0,0,3-.56,5.63,5.63,0,0,0,1.63-1l6-5.31-.85-.41Z"/><polygon class="cls-2" points="180.14 42.44 183.06 41.2 183.38 41.52 184.15 43.32 180.92 44.7 180.15 42.9 180.14 42.44"/><polygon class="cls-2" points="180.1 42.29 182.98 41.07 182.01 38.8 181.15 38.62 180.46 37 178.91 37.66 179.61 39.29 179.13 40.03 180.1 42.29"/><path class="cls-3" d="M178.23,35.86c.25.54.37.46.46.66a6.55,6.55,0,0,1,.12.68,1.13,1.13,0,0,0,.11.2l.72-.31.72-.31a1.12,1.12,0,0,0-.07-.21c-.05-.12-.32-.34-.41-.55s.05-.24-.16-.79-.3-.43-.76-.87-.88-1.07-.93-1.06.13.77.12,1.41S178,35.33,178.23,35.86Z"/></g></g></svg>