<svg id="圖層_1" data-name="圖層 1" xmlns="http://www.w3.org/2000/svg" viewBox="0 0 100 35"><defs><style>.cls-1{fill:#f5f5f5;stroke:#fff;}.cls-1,.cls-5{stroke-miterlimit:10;}.cls-2{fill:#3d3d3d;}.cls-3{fill:#647384;}.cls-4{fill:#fff;}.cls-5{fill:none;stroke:#647384;stroke-width:0.3px;}.cls-6{fill:#ad8066;}</style></defs><title>lesson_cont_3</title><rect class="cls-1" x="-268.5" y="-14.5" width="375" height="177"/><path class="cls-2" d="M29.73,16.14s0,0,0,.07a0,0,0,0,1,0,0l-.78.07-.5.05h-.05l-.07,0s0,0,0-.05a0,0,0,0,1,0,0l.46,0,.29,0,.33,0,.18,0,.08,0A.11.11,0,0,1,29.73,16.14Zm-.19.88s0,0,0,0l0,0-.74.07-.13,0-.07,0a.06.06,0,0,1,0,0l0,0,.76-.07h.1Zm0-.42,0,0s0,0,0,0l-.71.08-.11,0a.08.08,0,0,1-.07,0,.06.06,0,0,1,0,0l0,0,.72-.06h.09Zm-.77.82a.67.67,0,0,1,0,.16l.49-.1c.07,0,.11,0,.12-.06s0-.06.06-.06l.07.06a.17.17,0,0,1,0,.06.13.13,0,0,1,0,.06.12.12,0,0,0,0,.08l-.06.56h.06l.05,0,0,0s0,0-.06,0l-.73.09v.17c0,.08,0,.13,0,.13s0,0,0-.07a.22.22,0,0,1,0-.11.27.27,0,0,1,0-.07,3.57,3.57,0,0,0,0-.38c0-.24,0-.43,0-.55a1,1,0,0,1,0-.11s0,0,0,0S28.71,17.36,28.74,17.42Zm.6.79,0-.63-.6.1s0,.07,0,.11v.49A4.89,4.89,0,0,0,29.34,18.21ZM29,15.47a1.62,1.62,0,0,1,.23.29.29.29,0,0,1,.05.11.24.24,0,0,1,0,.1s0,.07-.05.07,0,0,0,0a2.54,2.54,0,0,0-.2-.47.16.16,0,0,1,0-.06,0,0,0,0,1,0,0Zm1,.08a.76.76,0,0,1,0,.2l1.19-.13s0,0,.08-.07,0,0,.05,0l.08,0s.05.05.05.08,0,0-.07.09a.14.14,0,0,0,0,.09v2.64a1.35,1.35,0,0,1,0,.31.09.09,0,0,1,0,.07l-.05,0a4.58,4.58,0,0,0-.41-.43,0,0,0,0,1,0,0l0,0,.06,0a1.15,1.15,0,0,0,.33.21s0,0,0,0,0-.1,0-.16,0-.12,0-.23V15.7L30,15.84v0c0,.5,0,.94-.06,1.31a4.35,4.35,0,0,1-.15.89,2.07,2.07,0,0,1-.22.5c-.11.18-.17.27-.2.27s0,0,0,0a.18.18,0,0,1,0-.06,2.53,2.53,0,0,0,.28-.54,4.23,4.23,0,0,0,.16-.75,14.58,14.58,0,0,0,.08-1.65c0-.07,0-.15,0-.24a.5.5,0,0,0,0-.13s0,0,0,0S29.94,15.48,30,15.55ZM31,16.3l0,0,0,0-.4,0v.41l.25,0,.14,0h.06l.07,0s0,0,0,.06a0,0,0,0,1,0,0l-.61.06-.39,0h0l-.07,0,0,0a0,0,0,0,1,0,0l.35,0,.14,0V16.4l-.2,0-.11,0a.09.09,0,0,1-.07,0,.07.07,0,0,1,0,0l0,0,.39,0V16.1a.54.54,0,0,0,0-.17.31.31,0,0,1,0-.09s0,0,0,0a.14.14,0,0,1,.08,0s.07.07.07.09a.11.11,0,0,1,0,0,.42.42,0,0,0,0,.1v.21l.22,0H31Zm-.69.95a.68.68,0,0,1,0,.09l.47-.07a.07.07,0,0,0,.06,0l0,0,0,0,0,0a0,0,0,0,1,0,0,.39.39,0,0,0,0,.17q0,.17,0,.34h0l.05,0,0,0s0,0,0,0l-.62.06v.18s0,0,0,0,0,0,0-.06a.24.24,0,0,1,0-.09.27.27,0,0,1,0-.06,2.71,2.71,0,0,0,0-.31c0-.1,0-.21,0-.34a1,1,0,0,0,0-.16v0S30.32,17.18,30.34,17.25Zm.48.58.06-.5-.52.07h0v.46Z"/><path class="cls-2" d="M33.69,15.82s0,0,0,.06a0,0,0,0,1,0,0l-.63,0v.27l.24,0a.15.15,0,0,0,.11,0s0-.05.05-.05l.06.05,0,0a.08.08,0,0,1,0,0,.13.13,0,0,0,0,.07l-.06.27h0l.05,0,0,0s0,0-.07,0l-.44,0v.05l.38.26a.1.1,0,0,1,0,.08s0,0,0,.07v0a.07.07,0,0,1-.06,0,3.67,3.67,0,0,0-.35-.39v.71s0,0,0,0,0,0-.06-.07a.21.21,0,0,1,0-.1.17.17,0,0,1,0,0,.41.41,0,0,0,0-.13v-.32a1.71,1.71,0,0,1-.18.21,3,3,0,0,1-.56.47.72.72,0,0,1-.2.1s0,0,0,0l0,0a3.49,3.49,0,0,0,.57-.49,3,3,0,0,0,.32-.41l-.35,0a.86.86,0,0,0,0,.11s0,.06,0,.06,0,0-.07-.07a.14.14,0,0,1,0-.08.29.29,0,0,1,0-.07s0-.12,0-.24,0-.1,0-.14,0-.11,0-.14,0-.06,0-.06,0,0,0,0a.33.33,0,0,1,0,.11l.41-.06v-.28H33l-.49,0h-.06l-.06,0s0,0,0,0a0,0,0,0,1,0,0l.44,0,.25,0v-.24a.79.79,0,0,0,0-.19l0-.06v0l.09.06s.08.08.08.1a.22.22,0,0,1,0,.08.5.5,0,0,0,0,.15v.11l.28,0,.17,0h.08Zm.78,1.6a.12.12,0,0,1,0,.07,0,0,0,0,1,0,0l-.86.07V18L34,18l.2,0h0l.08,0,.05,0,0,0-.78.08v.52a8.78,8.78,0,0,0,1.12-.14l.08,0,.1,0,.07.06a0,0,0,0,1,0,0l-1.53.1c-.55,0-.85.07-.9.08h-.09a.22.22,0,0,1-.11,0s0,0,0,0,0,0,0,0l.58,0V18.1a.42.42,0,0,0,0-.15.24.24,0,0,1,0-.08s0,0,0,0l.08,0s.06.06.06.08a.18.18,0,0,1,0,0,.35.35,0,0,0,0,.09v.53l.52,0v-1h-.06l-.65.07-.08,0-.07,0s0,0,0-.05a0,0,0,0,1,0,0l.6,0,.38,0,.43,0,.23,0,.1,0A.13.13,0,0,1,34.46,17.42ZM33,16.63V16.3l-.4.05s0,0,0,.07,0,.16,0,.24Zm.07,0,.31,0,0-.34-.36,0Zm1-1.15a.26.26,0,0,1,0,.1.16.16,0,0,1,0,.06,1,1,0,0,0-.08.23c0,.11-.06.2-.08.27l.57-.07.27,0h.06l.08,0s.05,0,.05,0l0,0-.43,0a1.77,1.77,0,0,1-.16.46l-.11.17a3.15,3.15,0,0,0,.49.39,1.59,1.59,0,0,0,.5.14l0,0s0,0,0,0l-.28.07-.14,0a.09.09,0,0,1-.07,0c-.14-.15-.31-.34-.53-.55h0l-.12.13a3.44,3.44,0,0,1-.5.36l-.1,0s0,0,0,0v0a2.93,2.93,0,0,0,.61-.49l.05-.06-.34-.35c-.05.11-.11.21-.17.31l0,0h0v0a3.48,3.48,0,0,0,.18-.43,4.7,4.7,0,0,0,.17-.55,1.56,1.56,0,0,0,0-.34v0S34,15.43,34.06,15.47Zm.1,1.24v0a1.41,1.41,0,0,0,.14-.26.89.89,0,0,0,.08-.31l-.5.05-.06.15v0Z"/><path class="cls-2" d="M36.2,15.78a.71.71,0,0,1,0,.18l.52-.07a.07.07,0,0,0,.06,0l0-.05.08,0s.06,0,.06.06,0,0,0,.07a.23.23,0,0,0,0,.11c0,.37,0,.71,0,1s0,.6,0,.8,0,.2,0,.2,0,0-.06-.07a.2.2,0,0,1,0-.1.52.52,0,0,1,0-.13c0-.1,0-.23,0-.4,0-.69,0-1.17,0-1.44l-.6.08v.49a1.25,1.25,0,0,0,.34-.07h0l.05,0,0,0s0,0,0,0l-.43.07v.48a1.19,1.19,0,0,0,.34-.07h0l.05,0,0,0s0,0,0,0l-.43.06c0,.25,0,.45,0,.6a1.56,1.56,0,0,0,.38-.07h0l.06,0,0,0s0,0,0,0l-.49.07c0,.1,0,.18,0,.23a.48.48,0,0,1,0,.14s0,.06,0,.06,0,0-.07-.1a.33.33,0,0,1,0-.15.31.31,0,0,1,0-.1.64.64,0,0,0,0-.21c0-.31,0-.86,0-1.66a2.63,2.63,0,0,0,0-.27c0-.07,0-.12,0-.13s0,0,0,0S36.17,15.7,36.2,15.78Zm2.31-.11a.12.12,0,0,1,0,.06.11.11,0,0,1,0,.06.12.12,0,0,0,0,.08l-.1,1h0l.05,0,0,0s0,0-.07,0l-.69.09.34.5.06.08,0,0,.33-.31a.58.58,0,0,0,.18-.26,0,0,0,0,1,0,0s0,0,.06.1a.49.49,0,0,1,0,.11s0,0,0,0l-.16.1-.42.3a4.84,4.84,0,0,0,.51.61,1.27,1.27,0,0,0,.53.22l0,0s0,0,0,0l-.29.07-.15,0s-.05,0-.07-.07l-.56-.83-.45-.67-.19,0v1.4L38,18l0,0v0l0,.06c-.29.33-.46.53-.51.61s0,.08-.06.08l-.1,0-.07-.06a.24.24,0,0,1,0-.09,1.11,1.11,0,0,0,.05-.13,1.26,1.26,0,0,0,0-.45V15.89s0-.1,0-.16,0-.13,0-.14,0,0,0,0,0,0,.07.11a.78.78,0,0,1,0,.16l.78-.11c.07,0,.11,0,.12-.06s0-.06.06-.06S38.47,15.63,38.51,15.67Zm-1,.73a1.91,1.91,0,0,0,.5-.09h0l.05,0,0,0s0,0,0,0l-.59.08V17a5,5,0,0,0,.81-.12l.08-1.06-.89.12Z"/><path class="cls-2" d="M41.51,15.54s0,0,0,.07a0,0,0,0,1,0,0l-.45,0v.68h.09l.23,0,.1,0a.12.12,0,0,1,.08,0s0,0,0,.07a0,0,0,0,1,0,0l-.52,0v1s0,0,0,0,0,0-.08-.08a.16.16,0,0,1,0-.11.58.58,0,0,1,0-.13,1,1,0,0,0,0-.24v-.44l-.38,0h-.08v.05a1.48,1.48,0,0,1-.16.43,2,2,0,0,1-.16.23,2.6,2.6,0,0,1-.21.23s-.08.06-.09.06,0,0,0,0v0a2.42,2.42,0,0,0,.36-.49,1.43,1.43,0,0,0,.15-.46l-.45,0h-.07l-.07,0s-.05,0-.05-.05a0,0,0,0,1,0,0l.58,0h.05c0-.19,0-.42,0-.7l-.33,0h-.06l-.07,0s0,0,0-.05a0,0,0,0,1,0,0l.49,0,.31,0,.35,0,.19,0h.08A.11.11,0,0,1,41.51,15.54Zm.79,2.33s0,0,0,.07a0,0,0,0,1,0,0l-.86,0v.58c.65,0,1.06-.08,1.22-.11l.09,0,.1.05s.08.05.08.07a0,0,0,0,1,0,0l-1.72.08-1,.07h-.1a.22.22,0,0,1-.12-.05s0,0,0,0,0,0,0,0l1.38,0h0V18h-.09l-.67,0h-.08l-.07,0s0,0,0-.06a0,0,0,0,1,0,0l.62,0,.33,0v-.22a.93.93,0,0,0,0-.27.63.63,0,0,1,0-.12s0,0,0,0l.09.08c.05.05.08.09.08.1a.59.59,0,0,1,0,.11,2,2,0,0,0,0,.33l.42,0,.24,0h.11A.11.11,0,0,1,42.3,17.87ZM41,15.65l-.3,0h-.09q0,.46-.06.7l.21,0,.24,0Zm.88,0s.08.08.08.1a.59.59,0,0,1,0,.1.72.72,0,0,0,0,.16v.78s0,0,0,0,0,0-.07-.07a.22.22,0,0,1,0-.1.42.42,0,0,1,0-.06,1.38,1.38,0,0,0,0-.15v-.55a1.28,1.28,0,0,0,0-.21l0-.07a0,0,0,0,1,0,0Zm.52-.24s.08.08.08.1a.13.13,0,0,1,0,0,.22.22,0,0,0,0,.08v1.63a1,1,0,0,1,0,.19c0,.06,0,.09-.05.09s0,0,0,0a5.52,5.52,0,0,0-.41-.44l0,0s0,0,0,0l.2.13a1,1,0,0,0,.22.16s0,0,0-.08V15.86a2,2,0,0,0,0-.43.46.46,0,0,1,0-.09s0,0,0,0Z"/><path class="cls-2" d="M45.22,17.26a.5.5,0,0,1-.23.18h0a.59.59,0,0,0,.15-.18.42.42,0,0,0,.07-.18s0-.07-.1-.07S45,17,45,16.89s.05-.13.15-.13a.18.18,0,0,1,.15.07.28.28,0,0,1,.05.17A.43.43,0,0,1,45.22,17.26Z"/><path class="cls-2" d="M48.57,16.26s0,.05,0,.07a0,0,0,0,1,0,0l-.51.07v.66l.39-.17h0v0a.07.07,0,0,1,0,0l-.4.21v1.31a.83.83,0,0,1,0,.2c0,.05,0,.08,0,.08a.07.07,0,0,1-.05,0c-.15-.16-.28-.29-.4-.41l0,0s0,0,0,0l.19.11a1,1,0,0,0,.22.13s0,0,0-.08v-1.2l-.21.11-.28.15-.05,0a.15.15,0,0,1-.08,0l-.05-.06a0,0,0,0,1,0,0,3.61,3.61,0,0,0,.43-.15l.22-.1v-.68h0l-.41.07,0,0-.07,0s0,0,0-.05a0,0,0,0,1,0,0l.37,0,.21,0v-.43a2.06,2.06,0,0,0,0-.43.33.33,0,0,1,0-.1,0,0,0,0,1,0,0l.1.06q.08.07.08.09a.19.19,0,0,1,0,.05.27.27,0,0,0,0,.08v.66l.2,0,.14,0,.07,0A.11.11,0,0,1,48.57,16.26Zm.57.36,0,.07s0,0,0,0A.69.69,0,0,0,49,17a2.21,2.21,0,0,1-.26.55,2.52,2.52,0,0,1-.38.42l-.05,0s0,0,0,0l0,0a3,3,0,0,0,.33-.39,2.24,2.24,0,0,0,.26-.47c0-.14.08-.26.11-.37l-.41.06-.11,0a.08.08,0,0,1-.06,0s0,0,0,0a0,0,0,0,1,0,0l.54-.08a.18.18,0,0,0,.08,0s0,0,0,0Zm1.17,1.76.07.06s0,0,0,0l-1.12.06-.65,0h-.06a.21.21,0,0,1-.1,0l0,0s0,0,0,0l.89,0a7.22,7.22,0,0,0,.86-.09h.06Zm-.45-2.71s0-.07.06-.07l.08,0,.06.07,0,0h0l-.08.07h0q-.2.17-.62.59a1.35,1.35,0,0,1,.11.26s0,0,0,0l.18.24,0,0,.28-.31a.6.6,0,0,0,.15-.26s0,0,0,0,0,0,.05.1a.5.5,0,0,1,0,.11s0,0,0,0l-.14.1-.36.29a4.91,4.91,0,0,0,.59.72,1.21,1.21,0,0,0,.45.15l0,0-.06,0-.29,0-.18,0a.08.08,0,0,1-.08,0l-.63-1a.71.71,0,0,1,0,.09,4.85,4.85,0,0,1,0,.49,2.53,2.53,0,0,1,0,.4,1,1,0,0,1-.1.33c0,.07-.06.1-.08.1s-.06,0-.1-.11a2.52,2.52,0,0,0-.26-.33.11.11,0,0,1,0-.05,0,0,0,0,1,0,0,.63.63,0,0,1,.15.1.59.59,0,0,0,.21.13s0,0,0,0a1,1,0,0,0,.06-.22,2.26,2.26,0,0,0,0-.34c0-.21,0-.39,0-.54s0-.19-.05-.28a2.1,2.1,0,0,0-.09-.25l0-.1a0,0,0,0,1,0,0s0,0,.07.1l0,0,.45-.54-.84.1-.14,0-.09,0,0,0s0,0,0,0l1.14-.1.06,0Z"/><path class="cls-2" d="M53,16.18s0,0,0,.07a0,0,0,0,1,0,0l-.76.06v.94l.08,0a4.71,4.71,0,0,1,.49.37c.07.06.11.11.11.16a.56.56,0,0,1,0,.11s0,.06,0,.06,0,0-.06-.06a3.34,3.34,0,0,0-.54-.61l0,0v1.17a1,1,0,0,1,0,.22c0,.06,0,.1-.06.1s0,0,0,0a5,5,0,0,0-.4-.43l0,0s0,0,0,0l.18.11a.87.87,0,0,0,.21.13s.05,0,.06-.08v-1.1l-.51.46a1.88,1.88,0,0,0-.21.2s0,0,0,0a.17.17,0,0,1-.09,0l-.06-.06s0,0,0-.06a1.88,1.88,0,0,0,.34-.21l.55-.39v-.9h0l-.59.06-.07,0-.07,0s-.05,0-.05-.06a0,0,0,0,1,0,0l.54,0,.27,0v-.31a1.92,1.92,0,0,0,0-.48.34.34,0,0,1,0-.11h0l.12.06c.06,0,.09.08.09.11a.11.11,0,0,1,0,.06.26.26,0,0,0,0,.09v.58l.36,0,.21,0h.09A.11.11,0,0,1,53,16.18Zm-1.43.51.35.24s.06.07.06.1a.37.37,0,0,1,0,.11s0,0,0,0,0,0-.05,0l-.29-.35c-.06-.06-.09-.09-.09-.1a0,0,0,0,1,0,0Zm1.22-.06a.48.48,0,0,1,0,.11s0,0,0,0l-.1.1-.27.31s0,0,0,0,0,0,0,0l.18-.3a.79.79,0,0,0,.1-.25s0,0,0,0S52.73,16.57,52.75,16.63Zm-.2-1,.31.18s.06.05.06.08a.46.46,0,0,1,0,.13,0,0,0,0,1,0,0s0,0,0,0l-.26-.29c-.05,0-.08-.08-.08-.09a0,0,0,0,1,0,0Zm.89-.19a.28.28,0,0,1,.06.12.17.17,0,0,1,0,.08,1.92,1.92,0,0,0-.11.34c0,.17-.1.32-.15.45l.58-.07.27,0h.06l.1,0s.05,0,.05.05l0,0-.4,0,0,0a.36.36,0,0,1,0,.12.25.25,0,0,1,0,.08,2.65,2.65,0,0,0-.11.41,4.77,4.77,0,0,1-.2.61l0,.05a2.13,2.13,0,0,0,.46.65,1.34,1.34,0,0,0,.53.16l0,0a0,0,0,0,1,0,0l-.58,0a.12.12,0,0,1-.07-.07q-.1-.24-.37-.76a2.2,2.2,0,0,1-.38.55,3.38,3.38,0,0,1-.48.42l-.07,0a0,0,0,0,1,0,0s0,0,0,0a4.71,4.71,0,0,0,.44-.41,2.12,2.12,0,0,0,.33-.47l.09-.17,0-.08c-.2-.37-.33-.6-.39-.7a.07.07,0,0,1,0,0l-.18.34,0,0s0,0,0,0l0,0a4.77,4.77,0,0,0,.25-.61,7.21,7.21,0,0,0,.23-.78,2.15,2.15,0,0,0,.06-.48s0,0,0,0S53.39,15.37,53.44,15.43Zm-.35,1.46a.12.12,0,0,1,.08.06,2.65,2.65,0,0,0,.33.72,3.43,3.43,0,0,0,.17-.54,4.23,4.23,0,0,0,.11-.68l-.6.07a1.58,1.58,0,0,1-.07.16l-.09.2Z"/><path class="cls-2" d="M56.12,15.41a.27.27,0,0,1,.05.11.08.08,0,0,1,0,.05.81.81,0,0,0-.16.22l-.13.2,1.22-.1a4.44,4.44,0,0,0,.55-.07l.12,0,.1,0s.06,0,.06.05l0,0-.4,0,0,0s.08.07.08.09a.17.17,0,0,1,0,0,.26.26,0,0,0,0,.11l-.06.52.24,0,.15,0a.15.15,0,0,1,.08,0s0,.05,0,.07a0,0,0,0,1,0,0l-.52,0-.09.75a4.07,4.07,0,0,0,.59-.09l.09,0,.1.05.08.07s0,0,0,0l-1.79.11c-.64,0-1,.08-1,.1l-.1,0a.2.2,0,0,1-.12-.05s0,0,0-.05,0,0,0,0l.8,0c0-.27,0-.52-.05-.76l-.32,0-.1,0-.08,0s-.06,0-.06-.05a0,0,0,0,1,0,0l.54,0c0-.15,0-.29,0-.44a1.91,1.91,0,0,0,0-.21l0-.11h0l.1.07.07.07a.31.31,0,0,1,0,.09.45.45,0,0,0,0,.1c0,.14,0,.29,0,.44l.24,0h.15q0-.24,0-.48c0-.06,0-.13,0-.23l0-.08-.51,0v0l-.15.18a2.71,2.71,0,0,1-.41.37l0,0s0,0,0,0l0,0a2.77,2.77,0,0,0,.38-.41,3.05,3.05,0,0,0,.34-.53.74.74,0,0,0,.08-.32s0,0,0,0S56.08,15.35,56.12,15.41ZM55.8,18a1.45,1.45,0,0,1-.06.41,2.28,2.28,0,0,1-.19.32c-.08.1-.14.15-.17.15s0,0,0,0a.82.82,0,0,1,0-.17s0-.06.07-.1a1.3,1.3,0,0,0,.16-.18.93.93,0,0,0,.19-.42s0,0,0,0S55.8,18,55.8,18Zm.6-.32c0-.27,0-.52,0-.77l-.39,0c0,.24,0,.5.06.76Zm-.1.37a2.7,2.7,0,0,1,.18.51.34.34,0,0,1,0,.12s-.06.08-.07.08,0,0,0,0c0-.23,0-.4-.07-.54a1,1,0,0,1,0-.18,0,0,0,0,1,0,0S56.28,18,56.3,18.06Zm.59-1.94a.41.41,0,0,0,0-.1v0l-.49,0,0,0s.07.06.07.07a.26.26,0,0,1,0,.09.45.45,0,0,0,0,.1c0,.16,0,.32,0,.49l.31,0h.1Zm-.3,1.55.24,0,0-.77-.33,0h-.06c0,.24,0,.5,0,.77Zm.35.34a3,3,0,0,1,.25.38.32.32,0,0,1,.06.14.31.31,0,0,1,0,.12c0,.06-.05.09-.07.09s0,0,0-.07a3.81,3.81,0,0,0-.21-.6.25.25,0,0,1,0-.08,0,0,0,0,1,0,0Zm.34-.4.08-.76-.41,0,0,.77Zm.16-1.49a.32.32,0,0,0,0-.12.19.19,0,0,1,0-.05l-.46,0h0s.07.07.07.08a.14.14,0,0,1,0,0,.27.27,0,0,0,0,.1l0,.56.42,0ZM57.59,18a3.15,3.15,0,0,1,.36.38.26.26,0,0,1,.08.16,1.43,1.43,0,0,1,0,.16c0,.05,0,.08,0,.08s0,0,0-.06a3.51,3.51,0,0,0-.39-.68.1.1,0,0,1,0-.06,0,0,0,0,1,0,0Z"/><path class="cls-2" d="M60.06,16.25a.17.17,0,0,1,0,.08s0,0,0,.06a1.49,1.49,0,0,0-.2.28,2.71,2.71,0,0,1-.17.27h0l.39.21a.07.07,0,0,1,0,.06s0,.06,0,.1,0,.06,0,.06l-.06,0a2.92,2.92,0,0,0-.36-.36v1.81s0,.06,0,.06,0,0-.08-.09a.22.22,0,0,1,0-.11.49.49,0,0,1,0-.13,1,1,0,0,0,0-.24V17.07l-.09.11a4.15,4.15,0,0,1-.54.57.34.34,0,0,1-.11.07s0,0,0,0l0,0a6.63,6.63,0,0,0,.72-.87,3.26,3.26,0,0,0,.28-.5l-.52,0-.22,0h-.07l-.07,0s0,0,0-.05,0,0,0,0a7.71,7.71,0,0,0,.88-.06.17.17,0,0,0,.09-.08l0,0Zm-.51-.79a2.51,2.51,0,0,1,.29.31.27.27,0,0,1,.07.11.24.24,0,0,1,0,.1s0,.07-.06.07,0,0-.05-.05a2.62,2.62,0,0,0-.27-.48.17.17,0,0,1,0-.07,0,0,0,0,1,0,0Zm.82.67a.93.93,0,0,1,0,.16l.55-.05v-.42a1.53,1.53,0,0,0,0-.34.4.4,0,0,1,0-.11,0,0,0,0,1,0,0l.11.08q.08.08.08.1a.29.29,0,0,1,0,.09.68.68,0,0,0,0,.18v.42l.54-.05a.18.18,0,0,0,.1,0s0-.06.07-.06l.08.06.06.08s0,0,0,.07a.15.15,0,0,0-.06.08c0,.41,0,.85-.06,1.32,0,0,0,.07,0,.07s0,0-.06-.07a.49.49,0,0,1,0-.1.42.42,0,0,1,0-.09h-.07l-.48,0v.91c0,.1,0,.2,0,.3s0,.13,0,.13,0,0-.08-.11a.2.2,0,0,1,0-.1.19.19,0,0,1,0-.07.26.26,0,0,0,0-.11,2.42,2.42,0,0,0,0-.31v-.64l-.54,0v.07c0,.1,0,.15,0,.15s0,0-.05-.08a.24.24,0,0,1,0-.13.67.67,0,0,1,0-.1,3.88,3.88,0,0,0,0-.54c0-.33,0-.57,0-.73s0-.15,0-.16,0,0,0,0S60.34,16.06,60.37,16.13Zm.6.2-.54.06s0,.1,0,.14v.36l.35,0,.18,0Zm0,1.14v-.54h0l-.39,0h0l-.07,0,0,0v.58Zm.11,0a1.91,1.91,0,0,0,.36-.05h.1l.06,0,0,0c0-.05,0-.15,0-.27s0-.55.05-.93l-.64.07v.52l.19,0,.14,0h.06l.08,0s0,0,0,.06a0,0,0,0,1,0,0l-.49,0Z"/><path class="cls-2" d="M63.49,15.48a.19.19,0,0,1,0,.1l0,.05a.83.83,0,0,0-.12.19l-.09.15v.08a4.11,4.11,0,0,0,.81-.12h.08l.05,0,0,0s0,0-.08,0l-.37,0v.29l.16,0h.08l.06,0,0,0,0,0-.33,0v.3l.2,0h.09l.06,0s0,0,0,0l0,0-.37,0v.36a1.47,1.47,0,0,0,.32-.05h.09l.05,0,0,0s0,0-.08,0l-1,.1v.22s0,0,0,0,0,0-.07-.08a.2.2,0,0,1,0-.1.68.68,0,0,1,0-.11,1,1,0,0,0,0-.21v-.95l-.07.09a2,2,0,0,1-.29.3l0,0s0,0,0,0l0,0a2.43,2.43,0,0,0,.31-.37,2.31,2.31,0,0,0,.21-.36.84.84,0,0,0,.08-.31s0-.06,0-.06S63.45,15.43,63.49,15.48Zm1.59,1.92s0,.06,0,.07a.06.06,0,0,1,0,0l-.47.46a1.78,1.78,0,0,1-.21.19l.08,0a3.59,3.59,0,0,0,.68.28,5,5,0,0,0,.68.06l0,0s0,0,0,0l-.55.16a.16.16,0,0,1-.11,0c-.14-.1-.34-.21-.58-.35l-.26-.15a3.5,3.5,0,0,1-.34.22,4.4,4.4,0,0,1-.78.32l-.26.08a0,0,0,0,1,0,0,0,0,0,0,1,0,0,6.93,6.93,0,0,0,1-.44l.31-.21-.54-.33,0,0s0,0,.06,0a.08.08,0,0,1,.07,0,5.34,5.34,0,0,0,.52.29,2,2,0,0,0,.26-.23,2.19,2.19,0,0,0,.29-.34l-.58.05-.55.06-.15,0-.07,0s0,0,0,0l0,0,1.39-.15.06,0,0,0,0,0Zm-1.35-.23v-.36l-.2,0-.11,0-.07,0a.07.07,0,0,1,0,0h0l.39,0v-.3l-.21,0-.1,0-.07,0a.06.06,0,0,1,0,0v0l.39,0v-.28l-.45.06v1.08Zm0-1.7a1.71,1.71,0,0,1,.18.2.18.18,0,0,1,0,.07.27.27,0,0,1,0,.08s0,.07,0,.07,0,0,0,0a2,2,0,0,0-.15-.34l0,0v0Zm1,0a.19.19,0,0,1,0,.1l0,0a1.33,1.33,0,0,0-.09.19l-.09.19a4,4,0,0,0,.83-.11l.08,0,.05,0,0,0s0,0-.07,0l-.41,0v.27l.21,0h.09l.07,0,0,0,0,0-.39,0v.28l.23,0h.1l.06,0,0,0v0l-.42,0v.34a1.83,1.83,0,0,0,.43-.08l.1,0,.05,0,0,0s0,0-.08,0l-1.07.12v.15s0,0,0,0,0,0-.07-.08a.2.2,0,0,1,0-.1.71.71,0,0,1,0-.11,1,1,0,0,0,0-.21v-.72a1.8,1.8,0,0,1-.21.3l0,0s0,0,0,0v0a2.39,2.39,0,0,0,.22-.37,2.55,2.55,0,0,0,.15-.35,1.1,1.1,0,0,0,.05-.3s0-.06,0-.06S64.69,15.41,64.73,15.47Zm.27,1.6v-.34l-.22,0-.12,0a.09.09,0,0,1-.07,0,.07.07,0,0,1,0,0v0l.42,0v-.28l-.21,0-.11,0a.09.09,0,0,1-.07,0,.07.07,0,0,1,0,0v0l.41,0V16l-.45.05v1Zm-.1-1.64a1.62,1.62,0,0,1,.21.18s0,.05,0,.07a.29.29,0,0,1,0,.09s0,.06,0,.06a0,0,0,0,1,0,0,2.16,2.16,0,0,0-.18-.33l0,0v0Z"/><path class="cls-2" d="M66.78,15.78a.71.71,0,0,1,0,.18l.52-.07a.07.07,0,0,0,.06,0l0-.05.08,0s.06,0,.06.06,0,0,0,.07a.23.23,0,0,0,0,.11c0,.37,0,.71,0,1s0,.6,0,.8,0,.2,0,.2,0,0-.06-.07a.2.2,0,0,1,0-.1.52.52,0,0,1,0-.13c0-.1,0-.23,0-.4,0-.69,0-1.17,0-1.44l-.6.08v.49a1.25,1.25,0,0,0,.34-.07h0l.05,0,0,0s0,0,0,0l-.43.07v.48a1.19,1.19,0,0,0,.34-.07h0l.05,0,0,0s0,0,0,0l-.43.06c0,.25,0,.45,0,.6a1.56,1.56,0,0,0,.38-.07h0l.06,0,0,0s0,0,0,0l-.49.07c0,.1,0,.18,0,.23a.48.48,0,0,1,0,.14s0,.06,0,.06,0,0-.07-.1a.33.33,0,0,1,0-.15.31.31,0,0,1,0-.1.64.64,0,0,0,0-.21c0-.31,0-.86,0-1.66a2.63,2.63,0,0,0,0-.27c0-.07,0-.12,0-.13s0,0,0,0S66.75,15.7,66.78,15.78Zm2.31-.11a.12.12,0,0,1,0,.06.11.11,0,0,1,0,.06.12.12,0,0,0,0,.08l-.1,1h0l.05,0,0,0s0,0-.07,0l-.69.09.34.5.06.08,0,0,.33-.31a.58.58,0,0,0,.18-.26,0,0,0,0,1,0,0s0,0,.06.1a.49.49,0,0,1,0,.11s0,0,0,0l-.16.1-.42.3a4.84,4.84,0,0,0,.51.61,1.27,1.27,0,0,0,.53.22l0,0s0,0,0,0l-.29.07-.15,0s-.05,0-.07-.07l-.56-.83-.45-.67-.19,0v1.4l.51-.46,0,0v0l0,.06c-.29.33-.46.53-.51.61s0,.08-.06.08l-.1,0-.07-.06a.24.24,0,0,1,0-.09,1.11,1.11,0,0,0,.05-.13A1.26,1.26,0,0,0,68,18V15.89s0-.1,0-.16,0-.13,0-.14,0,0,0,0,0,0,.07.11a.78.78,0,0,1,0,.16l.78-.11c.07,0,.11,0,.12-.06s0-.06.06-.06S69.05,15.63,69.09,15.67Zm-1,.73a1.91,1.91,0,0,0,.5-.09h0l.05,0,0,0s0,0,0,0l-.59.08V17a5,5,0,0,0,.81-.12L69,15.81l-.89.12Z"/><path class="cls-2" d="M70.64,18.47a.14.14,0,0,1-.15-.15.14.14,0,0,1,0-.1.15.15,0,0,1,.11,0,.15.15,0,0,1,.11,0,.15.15,0,0,1,0,.11C70.79,18.42,70.74,18.47,70.64,18.47Zm.09-1.62c0,.37-.06.72-.07,1h0q0-.45-.07-1t0-.62.14-.15c.09,0,.13.05.13.15S70.76,16.52,70.73,16.85Z"/><rect class="cls-3" width="9.45" height="35"/><path class="cls-4" d="M4.16,7.84s-.1.33-.29.88a1.53,1.53,0,0,1,.26.82A.48.48,0,0,1,4,9.84q-.09.11-.42.1l-.06-.21h.18c.09,0,.15,0,.17-.05a.37.37,0,0,0,0-.19,1.3,1.3,0,0,0-.28-.76A9.48,9.48,0,0,0,4,7.84h-.5v3H3.29V7.65h.86Zm.41,2.29a2.18,2.18,0,0,1-.43.54L4,10.55A2.15,2.15,0,0,0,4.42,10ZM6.23,8.86h-2V8.69h.91V8.52H4.41V8.35H6.06v.17H5.34v.17h.9Zm.07.68H6V9.9H4.42V9.73H5.83V9.54H4.25V9.38H5.83V9.2H4.42V9H6v.35H6.3ZM6.11,7.73a7.49,7.49,0,0,1-1.68.21l-.07-.18A6.76,6.76,0,0,0,6,7.57ZM4.84,8.2l-.16.1a1,1,0,0,0-.22-.22L4.62,8A1.51,1.51,0,0,1,4.84,8.2Zm.9,2.14a.53.53,0,0,1-.12.34.3.3,0,0,1-.18.06H4.9a.22.22,0,0,1-.15-.06.22.22,0,0,1-.06-.17V10h.18v.44a.08.08,0,0,0,0,.08.85.85,0,0,0,.26,0,1.18,1.18,0,0,0,.3,0,.1.1,0,0,0,.06-.08l0-.2Zm-.33-.06-.15.12A1.67,1.67,0,0,0,5,10.1L5.16,10A1.37,1.37,0,0,1,5.41,10.28ZM5.36,8.23l-.17.06A.9.9,0,0,0,5.07,8L5.23,8A.8.8,0,0,1,5.36,8.23ZM6,8a1.3,1.3,0,0,1-.27.25l-.14-.11a1.53,1.53,0,0,0,.28-.24Zm.27,2.53-.17.11a2.16,2.16,0,0,0-.4-.56L5.87,10A2.63,2.63,0,0,1,6.29,10.55Z"/><path class="cls-4" d="M5.05,12.78H4.63v1.69H4.44V12.78h-.6a3.42,3.42,0,0,1-.51,1.71l-.15-.13a3,3,0,0,0,.47-1.57H3.18v-.19h.47V11.53H3.26v-.19H5v.19h-.4v1.06h.43Zm-.61-.19V11.53H3.85v1.06Zm1.86.73A2.87,2.87,0,0,1,5,14.48l-.14-.16a2.64,2.64,0,0,0,1.31-1.12Zm-.08-2a3.11,3.11,0,0,1-1,.95L5,12.16a2.71,2.71,0,0,0,1-.92Zm.07,1a3,3,0,0,1-1.11,1L5,13.15a2.71,2.71,0,0,0,1.1-.95Z"/><path class="cls-4" d="M6.11,17.85A.28.28,0,0,1,6,18a.27.27,0,0,1-.18.08H5.34l-.08-.2.53,0a.13.13,0,0,0,.09,0,.14.14,0,0,0,0-.1v-2h-1a2.49,2.49,0,0,0,.92,1.53l-.13.14a2.89,2.89,0,0,1-.91-1.36,3.55,3.55,0,0,1-.93,1.35l-.13-.14a3.14,3.14,0,0,0,1-1.51H3.55v2.36H3.36V15.61H4.68c0-.11,0-.27,0-.48H4.31v-.19h.52c0,.06,0,.12,0,.18a4.35,4.35,0,0,0,0,.49H6.11Z"/><path class="cls-4" d="M4.18,21.56H4v-.21H3.5v.3H3.32V18.8h.86Zm-.18-2V19H3.5v.57Zm0,.78v-.6H3.5v.6Zm0,.83v-.64H3.5v.64Zm2.05-1H4.74v1.46a6,6,0,0,0,.63-.24l0,.18a7.68,7.68,0,0,1-.82.3l-.09-.17a.14.14,0,0,0,.07-.11V18.73H6.05Zm-.18-.8v-.45H4.74v.45Zm0,.62v-.45H4.74V20Zm.42,1.76-.14.15a2.42,2.42,0,0,1-1-1.47l.17-.06a2.32,2.32,0,0,0,.18.5,3.07,3.07,0,0,0,.53-.47l.15.11a4,4,0,0,1-.6.53A2.23,2.23,0,0,0,6.29,21.74Z"/><path class="cls-4" d="M3.57,24.65a4.34,4.34,0,0,1-.23.91l-.17-.09a3.83,3.83,0,0,0,.23-.84ZM4.46,23a6.28,6.28,0,0,1-.94,1.29,3.09,3.09,0,0,0,.58-.14A1.73,1.73,0,0,0,4,23.92l.17,0a3.12,3.12,0,0,1,.21.55l-.17.07a1.47,1.47,0,0,0-.05-.19,4,4,0,0,1-.92.2l0-.15a7.79,7.79,0,0,0,.72-.85,5.12,5.12,0,0,1-.62.08v-.15a3.81,3.81,0,0,0,.64-1.12l.18.07a4.24,4.24,0,0,1-.55,1,2.37,2.37,0,0,0,.5-.08,3.61,3.61,0,0,0,.22-.38ZM4,25.44l-.19,0a4.72,4.72,0,0,0-.08-.83l.18,0A4.85,4.85,0,0,1,4,25.44ZM4.47,25,4.3,25a1.94,1.94,0,0,0-.16-.43l.18,0A2,2,0,0,1,4.47,25Zm.64-.87a1.67,1.67,0,0,1-.71,1.31l-.12-.15a1.36,1.36,0,0,0,.62-1H4.48v-.18Zm1.23,1.12-.13.15a2.27,2.27,0,0,1-.75-.8v.68a.29.29,0,0,1-.07.2c0,.05-.16.08-.34.08H4.88l-.06-.18H5a.48.48,0,0,0,.2,0,.09.09,0,0,0,0-.08V23.82h-.7V22.67H5a2.25,2.25,0,0,0,.2-.37l.18.08a1.58,1.58,0,0,1-.16.29h.86v1.15H5.45v.42a1.28,1.28,0,0,0,.1.21A2.21,2.21,0,0,0,6,24l.13.15a3.27,3.27,0,0,1-.47.46A2.46,2.46,0,0,0,6.33,25.25Zm-.41-2.1v-.31H4.75v.31Zm0,.49v-.31H4.75v.31Z"/><line class="cls-5" x1="25.22" y1="13.63" x2="21.08" y2="20.68"/><line class="cls-5" x1="77.57" y1="13.63" x2="73.43" y2="20.68"/><path class="cls-6" d="M79,10.63a1.68,1.68,0,0,1-.77.61l0,0a2,2,0,0,0,.52-.59A1.42,1.42,0,0,0,79,10c0-.15-.11-.24-.33-.24s-.44-.13-.44-.4S78.4,9,78.75,9a.62.62,0,0,1,.49.23,1,1,0,0,1,.18.58A1.46,1.46,0,0,1,79,10.63Z"/><path class="cls-6" d="M80.48,10.63a1.68,1.68,0,0,1-.77.61l0,0a2,2,0,0,0,.52-.59,1.42,1.42,0,0,0,.24-.59c0-.15-.11-.24-.33-.24s-.44-.13-.44-.4.17-.42.52-.42a.62.62,0,0,1,.49.23,1,1,0,0,1,.18.58A1.46,1.46,0,0,1,80.48,10.63Z"/></svg>