<svg id="圖層_1" data-name="圖層 1" xmlns="http://www.w3.org/2000/svg" viewBox="0 0 100 35"><defs><style>.cls-1{fill:#f5f5f5;stroke:#fff;}.cls-1,.cls-3,.cls-5{stroke-miterlimit:10;}.cls-2{fill:#3d3d3d;}.cls-3,.cls-5{fill:none;stroke:#647384;}.cls-3{stroke-width:0.5px;}.cls-4{fill:#647384;}.cls-5{stroke-width:0.3px;}.cls-6{fill:#ad8066;}.cls-7{opacity:0.4;}</style></defs><title>lesson_cont_8</title><rect class="cls-1" x="-148.5" y="-127.5" width="375" height="177"/><path class="cls-2" d="M24,15l0,.07s0,0,0,0a4.6,4.6,0,0,0-.55.53l0,.08,0,0a6.71,6.71,0,0,0,1.16-.16l.09,0,.1.05.08.07s0,0,0,0l-1.38.1,0,.09a1.69,1.69,0,0,1,0,.32,1.62,1.62,0,0,1,0,.29.7.7,0,0,1-.08.24s-.05.07-.07.07-.06,0-.1-.11a3.26,3.26,0,0,0-.26-.35.11.11,0,0,1,0-.05,0,0,0,0,1,0,0l.14.12c.11.11.19.17.21.17a0,0,0,0,0,0,0,.67.67,0,0,0,0-.14,1,1,0,0,0,0-.23,2.49,2.49,0,0,0,0-.34h0l-.31,0-1,.11L22,16a.2.2,0,0,1-.12-.05s0,0,0-.05,0,0,0,0q.32,0,1.42-.07h.12l0-.1a1.26,1.26,0,0,0-.1-.16s0-.05,0-.06a0,0,0,0,1,0,0l.07.07.09.11.32-.42-1,.13-.15,0-.08,0s0,0,0,0a0,0,0,0,1,0,0l1.27-.16a.11.11,0,0,0,.08-.06l.05-.06Zm-1.1-1.63a.21.21,0,0,1,0,.06,0,0,0,0,1,0,0l-.18.13-.23.16s0,0,0,0l0,.29a.94.94,0,0,0,.35-.09h0l.05,0,0,0s0,0,0,0l-.43.09,0,.28a1.12,1.12,0,0,0,.37-.09h0l.05,0,0,0s0,0,0,0l-.45.09,0,.31.78-.07.88-.09,0-.34-.25,0-.09,0-.07,0,0,0,0,0,.44-.05,0-.3L24,14l-.09,0a.09.09,0,0,1-.07,0l0,0,0,0,.45-.06,0-.31-.22,0-.16,0h0a.11.11,0,0,1-.07,0,.06.06,0,0,1,0,0,0,0,0,0,1,0,0l.2,0,.21,0a.11.11,0,0,0,.08,0l0,0,.06,0s0,0,0,.05l0,0a1.82,1.82,0,0,0,0,.29c0,.32-.05.61-.08.88l.29,0a.24.24,0,0,0,.14-.09s0,0,.05,0l.08.07s.06.07.06.08a.06.06,0,0,1-.05.07,2.34,2.34,0,0,0-.36.47l0,0s0,0,0,0a.31.31,0,0,1,.05-.11q.1-.2.16-.34L22.15,15a1.22,1.22,0,0,1-.09.33c0,.08-.08.13-.11.13s0,0-.05-.06a.27.27,0,0,1,0-.08.1.1,0,0,1,0-.07,1.25,1.25,0,0,0,.24-.67s0,0,0,0,0,0,0,.12a2.16,2.16,0,0,1,0,.24l.28,0,0-.67c0-.12,0-.3,0-.53a.74.74,0,0,0,0-.18h0s0,0,.08.14a.77.77,0,0,1,0,.13l.22-.22a.72.72,0,0,0,.13-.18l0,0S22.85,13.35,22.87,13.39Zm.7.72a.25.25,0,0,1,0,.08,0,0,0,0,1,0,0l-.13.14,0,0,.19.13a.1.1,0,0,1,.06.09s0,0,0,.07,0,0,0,0a.09.09,0,0,1-.07,0l-.21-.22-.14.15a1.41,1.41,0,0,1-.21.17h0v0l0,0a2.17,2.17,0,0,0,.31-.33h0l-.24-.21s0,0,0,0l.08,0,.23.15a1.11,1.11,0,0,0,.15-.29s0,0,0,0S23.55,14.07,23.57,14.11Zm.06-.69a.3.3,0,0,1,0,.08,0,0,0,0,1,0,0l-.13.15-.08.1.22.12a.11.11,0,0,1,.05.09s0,0,0,.06,0,0,0,0a.11.11,0,0,1-.07,0l-.23-.22-.11.11a1.82,1.82,0,0,1-.23.18h0s0,0,0,0a2,2,0,0,0,.29-.3l-.24-.18,0,0,.08,0,.23.13a1.17,1.17,0,0,0,.2-.36,0,0,0,0,1,0,0S23.6,13.38,23.63,13.42Z"/><path class="cls-2" d="M27.11,13.47s.05,0,.05.06a.05.05,0,0,1,0,0,.4.4,0,0,0-.08.24c0,.37-.06.68-.1,1,0,.11,0,.16-.05.16s0,0,0-.07a.37.37,0,0,1,0-.11.26.26,0,0,1,0-.09,1.74,1.74,0,0,0,0-.24h0l-.84.49-.06,0h-.07c-.07,0-.1-.05-.1-.08l0,0,1-.44h0l0-.31,0-.45-.76.11-.14,0H26l-.07,0s0,0,0,0,0,0,0,0l1-.13a.11.11,0,0,0,.08-.06s0,0,.05,0Zm-1,.49.27.2a.14.14,0,0,1,0,.08.39.39,0,0,1,0,.11s0,0,0,0,0,0,0,0L26.16,14,26.1,14a0,0,0,0,1,0,0Zm1,.85a.29.29,0,0,1,0,.12.07.07,0,0,1,0,0l-.26.38h0l1-.11a.07.07,0,0,0,.06,0s0-.06,0-.06l.08,0s.06,0,.06.06,0,0,0,.06a.2.2,0,0,0,0,.11c0,.24,0,.47,0,.66s0,.4,0,.52,0,.13-.05.13,0,0-.06-.07a.24.24,0,0,1,0-.1.14.14,0,0,1,0-.08,1.72,1.72,0,0,0,0-.26c0-.44,0-.74,0-.92l-1.4.17s0,.07,0,.11v.34a4.93,4.93,0,0,0,.93-.11l.09,0,.06,0,0,0s0,0-.08,0l-1,.12v.46a6.38,6.38,0,0,0,1.06-.11h.1l.07,0,0,.05s0,0-.09,0l-1.19.09v.11c0,.09,0,.14,0,.15s0,0-.06-.08a.29.29,0,0,1,0-.13.56.56,0,0,1,0-.1,3.66,3.66,0,0,0,0-.52c0-.32,0-.56,0-.72s0-.14,0-.15,0,0,0,0,0,0,.06.1a.88.88,0,0,1,.05.22l.34,0h0A3,3,0,0,0,27,15a1.41,1.41,0,0,0,.07-.27,0,0,0,0,1,0,0S27.17,14.75,27.2,14.8Zm1.24-1.38s0,0,0,.06a.08.08,0,0,1,0,0,.45.45,0,0,0-.08.26c0,.4-.07.75-.11,1,0,.12,0,.18-.06.18s0,0-.05-.08a.49.49,0,0,1,0-.11.28.28,0,0,1,0-.1,3.93,3.93,0,0,0,.08-.44l-.78.39-.05,0h-.07c-.07,0-.1-.05-.1-.08l0,0,1-.36s0-.09,0-.15,0-.35,0-.5l-.66.08-.16,0-.08,0-.08,0s-.05,0-.05-.06,0,0,0,0l.95-.11a.13.13,0,0,0,.09-.05l.06,0Zm-.94.44.27.17a.13.13,0,0,1,0,.08.67.67,0,0,1,0,.11s0,0,0,0,0,0,0,0L27.51,14a.28.28,0,0,1-.06-.09,0,0,0,0,1,0,0Z"/><path class="cls-2" d="M31.33,15.46l-.28-.32-.2-.23a1.73,1.73,0,0,0-.22-.2l0,0a3.05,3.05,0,0,1,.68.53.86.86,0,0,1,0,.24S31.35,15.48,31.33,15.46Z"/><path class="cls-2" d="M34.5,13.86s0,0,0,.06a0,0,0,0,1,0,0L34,14v.78h.18l.13,0h.06l.08,0s0,0,0,.06a0,0,0,0,1,0,0l-.48,0v.88l.51-.18h0v0s0,0,0,0l-.76.34-.29.13-.06,0a.17.17,0,0,1-.09,0L33.31,16a0,0,0,0,1,0,0l.45-.14.16-.06v-.9h0l-.37,0h0a.09.09,0,0,1-.07,0s0,0,0,0a0,0,0,0,1,0,0l.34,0H34V14h0l-.4,0h0l-.07,0,0,0a0,0,0,0,1,0,0l.36,0,.23,0,.26,0h.2Zm.2-.28a.82.82,0,0,1,0,.17l1.07-.13c.07,0,.11,0,.12-.06s0-.06.06-.06l.07.06a.17.17,0,0,1,0,.06.13.13,0,0,1,0,.05.12.12,0,0,0,0,.08L35.93,15H36L36,15l0,0s0,0-.1,0l-.63,0v.55h0l.35,0,.18,0H36a.13.13,0,0,1,.08,0s0,.05,0,.07h0l-.75,0v.63h.05l.51,0,.27,0h.12l.08,0s0,0,0,.07a0,0,0,0,1,0,0l-1.2.06-.77,0h-.09l-.08,0s-.05,0-.05-.05,0,0,0,0l.71,0,.31,0v-.63l-.51,0H34.7l-.07,0s0,0,0-.06a0,0,0,0,1,0,0l.48,0,.19,0v-.55l-.51,0v0c0,.08,0,.13,0,.13s0,0,0-.07a.25.25,0,0,1,0-.12.63.63,0,0,1,0-.11c0-.09,0-.29,0-.58s0-.59,0-.76,0-.15,0-.16,0,0,0,0S34.68,13.52,34.71,13.58ZM35.27,15v-.62l-.26,0h-.14a.08.08,0,0,1-.06,0,.06.06,0,0,1,0,0l0,0,.48,0v-.56l-.52.06a1.06,1.06,0,0,0,0,.11v1.12Zm.09-.7.28,0h.11l.06,0,0,0v0l-.48,0V15l.48-.06.1-1.27-.58.07Z"/><path class="cls-2" d="M37.79,13.42a.29.29,0,0,1,0,.1.08.08,0,0,1,0,.05.85.85,0,0,0-.13.23l-.1.18.44-.08a.15.15,0,0,0,.1-.07s0,0,0,0l.06,0,0,.06a.12.12,0,0,1,0,.07,1.11,1.11,0,0,0-.19.25l-.14.24h0l.4-.07a.12.12,0,0,0,.07,0l0,0,.06,0,0,.05,0,0a.14.14,0,0,0,0,.09v1.92a.88.88,0,0,1,0,.22s0,.05,0,.05l0,0a3.17,3.17,0,0,0-.32-.34v0s0,0,0,0l0,0a.88.88,0,0,0,.25.16s0,0,0,0v-.11s0-.09,0-.16V15.09l-.43,0v.44l.22,0h.09l.06,0,0,0,0,0-.69.08h-.11a.08.08,0,0,1-.07,0,.06.06,0,0,1,0,0h0l.39,0v-.44l-.19,0-.12,0a.09.09,0,0,1-.07,0,.07.07,0,0,1,0,0l0,0,.39,0v-.52l-.41.06a1,1,0,0,1,0,.1c0,.35,0,.66,0,.91a2.71,2.71,0,0,1-.12.63,1.66,1.66,0,0,1-.18.35c-.08.12-.14.19-.16.19a0,0,0,0,1,0,0l0,0a1.67,1.67,0,0,0,.21-.37,2.7,2.7,0,0,0,.13-.52,9.42,9.42,0,0,0,.06-1.14c0-.06,0-.14,0-.23a.56.56,0,0,1,0-.07l-.24.26,0,0s0,0,0,0l0,0a2.34,2.34,0,0,0,.32-.41,3,3,0,0,0,.29-.53.88.88,0,0,0,.07-.32v0S37.75,13.37,37.79,13.42Zm.06,1.06,0-.06.21-.44-.34.07h-.08l-.07,0,0,0a2.75,2.75,0,0,1-.16.25l-.07.08,0,.07a.69.69,0,0,1,0,.12Zm.08.58.25,0h.1l.06,0,0,0v-.58l-.43.07ZM39,14.9A.17.17,0,0,1,39,15l0,0-.07.13,0,.08.31,0h.12v-.26a1,1,0,0,0,0-.21l0-.07a0,0,0,0,1,0,0s0,0,.09.06.07.08.07.1a.59.59,0,0,1,0,.1.72.72,0,0,0,0,.16v.13l.24,0,.13,0h.06l.07,0s0,0,0,.06h0l-.54,0v.44l.35,0,.2,0,.09,0a.12.12,0,0,1,.08,0s0,0,0,.07a0,0,0,0,1,0,0l-.75.06v.94s0,0,0,0,0,0-.08-.07a.26.26,0,0,1,0-.11.17.17,0,0,1,0-.06s0-.09,0-.15v-.59h0l-.57.05h-.07a.1.1,0,0,1-.07,0s-.05,0-.05-.06a0,0,0,0,1,0,0l.52,0,.25,0v-.45l-.33,0h0l-.06,0h0l-.07.12a1.28,1.28,0,0,1-.16.21l0,0s0,0,0,0h0a1.79,1.79,0,0,0,.14-.27,1.76,1.76,0,0,0,.1-.26,1,1,0,0,0,0-.22s0,0,0,0S39,14.85,39,14.9Zm1-1.33s.06.05.06.06a.09.09,0,0,1,0,.06.31.31,0,0,0,0,.09,7.13,7.13,0,0,1-.2.77c0,.11-.08.16-.1.16a2.41,2.41,0,0,1-.31-.37l0,0a0,0,0,0,1,0,0l.05,0a1.09,1.09,0,0,0,.23.16.08.08,0,0,0,.05,0,3,3,0,0,0,.18-.75l-.57.06h-.06l0,0a.27.27,0,0,1,0,.1v0a1.31,1.31,0,0,0-.06.17,1.9,1.9,0,0,1-.1.25.92.92,0,0,1-.23.28,1.73,1.73,0,0,1-.25.17l0,0s0,0,0,0l0,0a1.83,1.83,0,0,0,.21-.18,1,1,0,0,0,.16-.2,1.33,1.33,0,0,0,.14-.34,1.29,1.29,0,0,0,.05-.3l-.3,0h-.08a.13.13,0,0,1-.08,0s0,0,0,0h0l1-.09.09,0,.06,0Z"/><path class="cls-2" d="M43.94,13.93,44,14s0,0,0,0l-1.59.13.07.05c.05,0,.08.08.08.1a.29.29,0,0,1,0,.09.52.52,0,0,0,0,.18v.22l.72-.07a.12.12,0,0,0,.1-.05s0,0,0,0l.07,0s0,0,0,.05a0,0,0,0,1,0,0,.17.17,0,0,0,0,.12c0,.54-.08.88-.11,1a1.49,1.49,0,0,1-.08.27s0,.07,0,.07l0,0-.42-.46a.07.07,0,0,1,0,0,0,0,0,0,1,0,0l0,0,.3.24a.08.08,0,0,0,.06,0s0,0,.06-.06a2,2,0,0,0,.08-.46c0-.18,0-.42.05-.7l-.8.07v1.5c0,.1,0,.2,0,.3s0,.14,0,.14,0,0-.08-.11a.21.21,0,0,1,0-.1.13.13,0,0,1,0-.07.38.38,0,0,0,0-.12,2.53,2.53,0,0,0,0-.31V14.9l-.73.07V16s0,.07,0,.07,0,0-.06-.07a.29.29,0,0,1,0-.11.66.66,0,0,1,0-.1c0-.09,0-.25,0-.48s0-.31,0-.49a1.92,1.92,0,0,0,0-.23s0,0,0,0,0,0,.07.12a1.18,1.18,0,0,1,0,.16l.73-.08V14.6a1.53,1.53,0,0,0,0-.34.31.31,0,0,1,0-.1h-.07l-1,.11-.1,0a.21.21,0,0,1-.12,0s0,0,0-.05,0,0,0,0c.21,0,.67,0,1.38-.07a7.84,7.84,0,0,0,1.31-.19l.09,0Zm-1.68-.57a2.59,2.59,0,0,1,.26.35.34.34,0,0,1,.06.12.3.3,0,0,1,0,.1c0,.05,0,.08-.06.08s0,0-.05-.06a3,3,0,0,0-.23-.54.17.17,0,0,1,0-.07,0,0,0,0,1,0,0Z"/><path class="cls-2" d="M45.35,13.45c.05.05.08.09.08.1a.48.48,0,0,1,0,.11,2.59,2.59,0,0,0,0,.39v.58l.17,0,.13,0,.06,0a.11.11,0,0,1,.07,0s0,0,0,.07a0,0,0,0,1,0,0l-.46.06v.86l.53-.21h0v0s0,0,0,0l-.77.38-.3.16a.08.08,0,0,1-.06,0s0,0-.08,0l0-.06a0,0,0,0,1,0,0l.46-.16.16-.07v-.89h0l-.37.06h0l-.07,0s0,0,0-.05a0,0,0,0,1,0,0l.34,0,.21,0v-.87a1,1,0,0,0,0-.28.52.52,0,0,1,0-.11s0,0,0,0Zm2.53,1.39s0,.05,0,.07h0l-1.2.09-.34,0,0,0a.35.35,0,0,1,0,.09,0,0,0,0,1,0,0l-.16.19,0,.05,1.19-.12.09,0,.06,0,.06,0s.06,0,.06.06a.09.09,0,0,1,0,.06.32.32,0,0,0,0,.09,9.57,9.57,0,0,1-.27,1.07c-.06.15-.1.22-.13.22a3,3,0,0,1-.4-.4l0,0s0,0,0,0l.07,0a1.92,1.92,0,0,0,.31.19.14.14,0,0,0,.08-.07,3.9,3.9,0,0,0,.26-1.08l-.45.05,0,0a.41.41,0,0,1,0,.1.07.07,0,0,1,0,.05.52.52,0,0,0-.13.17l-.2.3a3.49,3.49,0,0,1-.35.39,2.5,2.5,0,0,1-.33.25l-.15.06s0,0,0,0,0,0,0,0a2.37,2.37,0,0,0,.45-.36,3.44,3.44,0,0,0,.39-.46,3.26,3.26,0,0,0,.25-.49l-.16,0-.28,0v0a.35.35,0,0,1,0,.1s0,0,0,0a.42.42,0,0,0-.1.11l-.16.18a2,2,0,0,1-.27.24l-.26.16-.12,0s0,0,0,0l0,0a1.54,1.54,0,0,0,.35-.24,1.82,1.82,0,0,0,.29-.31,1.61,1.61,0,0,0,.19-.31l-.14,0-.09,0a.12.12,0,0,1-.08,0l0,0a1.77,1.77,0,0,1-.2.22,2.36,2.36,0,0,1-.27.23h0s0,0,0,0l0,0a2.61,2.61,0,0,0,.41-.43,1.43,1.43,0,0,0,.24-.44l-.38,0-.09,0a.13.13,0,0,1-.08,0s-.05,0-.05-.06a0,0,0,0,1,0,0l.71,0,.45,0,.51-.05.27,0,.12,0A.15.15,0,0,1,47.88,14.84Zm-1.67-1.2a.41.41,0,0,1,0,.13l.83-.12c.06,0,.11,0,.12-.06s0-.06.06-.06l.07.06,0,.06a.11.11,0,0,1,0,.06.12.12,0,0,0,0,.08l-.07.69h.05l.05,0,0,0s0,0-.08,0l-1,.1v.08s0,.06,0,.06,0,0-.05-.06a.2.2,0,0,1,0-.09.52.52,0,0,1,0-.08c0-.08,0-.21,0-.41s0-.27,0-.43a1.47,1.47,0,0,0,0-.2v0S46.19,13.57,46.21,13.64Zm.91.86.05-.76-.94.12v.32a2.65,2.65,0,0,0,.61-.1h.06l.05,0,0,0s0,0-.06,0l-.7.1c0,.08,0,.18,0,.28v0A7.68,7.68,0,0,0,47.13,14.5Z"/><path class="cls-2" d="M49.65,14.23a.31.31,0,0,1,.06.12.07.07,0,0,1,0,.05.93.93,0,0,0-.19.23l-.1.13v2s0,.06,0,.06,0,0-.09-.1a.24.24,0,0,1,0-.13.73.73,0,0,1,0-.15,1.61,1.61,0,0,0,0-.27V14.92l-.19.19a3.35,3.35,0,0,1-.5.38l-.05,0s0,0,0,0l0,0a3.31,3.31,0,0,0,.48-.42,3.21,3.21,0,0,0,.43-.55.65.65,0,0,0,.11-.33s0,0,0,0S49.6,14.18,49.65,14.23Zm-.11-.8a.28.28,0,0,1,.05.12.08.08,0,0,1,0,0,.7.7,0,0,0-.16.19,2.78,2.78,0,0,1-.32.4,3.48,3.48,0,0,1-.39.32l0,0s0,0,0,0l0,0a2.34,2.34,0,0,0,.37-.36,2.44,2.44,0,0,0,.33-.46.6.6,0,0,0,.08-.28s0,0,0,0S49.49,13.38,49.54,13.44Zm2.21,1.12.07.06s0,0,0,0l-.95.07,0,0c.06.05.09.09.09.11a.14.14,0,0,1,0,.06.21.21,0,0,0,0,.09v1.54a1,1,0,0,1,0,.22c0,.06,0,.09-.07.09s0,0,0,0a5.86,5.86,0,0,0-.4-.48l0,0s0,0,0,0l.18.13a1.1,1.1,0,0,0,.21.16s.05,0,.06-.07v-1.2a2.1,2.1,0,0,0,0-.47.4.4,0,0,1,0-.08h-.15l-.7.07h-.07a.22.22,0,0,1-.11,0s0,0,0,0,0,0,0,0l1,0a5.79,5.79,0,0,0,.91-.12l.06,0Zm-.36-.83a.13.13,0,0,1,0,.07h0l-.68,0-.44,0h0l-.07,0s-.05,0-.05-.06h0l.4,0,.26,0,.28,0,.16,0h.07A.13.13,0,0,1,51.38,13.72Z"/><path class="cls-2" d="M53.3,13.43a.31.31,0,0,1,.06.12.12.12,0,0,1,0,.08,1,1,0,0,0-.1.17l.05,0,.42.31a.11.11,0,0,1,0,.09s0,.06,0,.1,0,.06,0,.06,0,0-.06,0a3.46,3.46,0,0,0-.44-.5h0l-.05.12a4.68,4.68,0,0,1-.36.67l.26,0,.18,0,.2,0,.11,0h.05l.07,0s0,0,0,.06a0,0,0,0,1,0,0l-.45,0v.45l.23,0,.15,0h.07a.14.14,0,0,1,.08,0,.11.11,0,0,1,0,.07,0,0,0,0,1,0,0l-.55,0v1l.57-.14h0l0,0s0,0,0,0l-.85.28-.33.11h-.06a.17.17,0,0,1-.09,0l-.06-.06s0,0,0,0l.51-.11.19-.05v-1l-.42,0h0l-.07,0s0,0,0-.05a0,0,0,0,1,0,0l.38,0,.19,0v-.45l-.25,0h0a.09.09,0,0,1-.06,0l0,0a4,4,0,0,1-.42.51l0,0s0,0,0,0l0,0a3.78,3.78,0,0,0,.42-.58,4.76,4.76,0,0,0,.37-.75,1.26,1.26,0,0,0,.09-.45s0,0,0,0S53.26,13.37,53.3,13.43Zm-.63,2.08a2.32,2.32,0,0,1,.2.35.33.33,0,0,1,0,.12.23.23,0,0,1,0,.09s0,.07-.06.07,0,0,0-.06a3.91,3.91,0,0,0-.17-.53.19.19,0,0,1,0-.07,0,0,0,0,1,0,0Zm1-.08a.27.27,0,0,1,0,.11.05.05,0,0,1,0,0l-.25.43,0,0h0v0a3.53,3.53,0,0,0,.12-.34,1.46,1.46,0,0,0,.07-.28,0,0,0,0,1,0,0S53.68,15.39,53.71,15.43Zm.22-1.59a2.35,2.35,0,0,1,.29.38.36.36,0,0,1,.07.13.27.27,0,0,1,0,.08s0,.07,0,.07,0,0-.06-.06a3,3,0,0,0-.27-.55.22.22,0,0,1,0-.08v0Zm.68-.44c.05.05.08.09.08.1a.42.42,0,0,1,0,.11,2.62,2.62,0,0,0,0,.39v.69l.43,0s0,0,.07-.06,0,0,0,0l.07,0s.05,0,.05.06,0,0-.06.08a.12.12,0,0,0,0,.08v1.82a.79.79,0,0,1,0,.21.07.07,0,0,1,0,.05.07.07,0,0,1-.05,0,5.66,5.66,0,0,0-.42-.44,0,0,0,0,1,0,0h0l.06,0a1.23,1.23,0,0,0,.34.23s0,0,0,0,0-.07,0-.11,0-.08,0-.15v-1.6l-1,.11v.4a3.53,3.53,0,0,0,.68-.09h.07l.06,0,0,0s0,0-.07,0l-.79.09c0,.15,0,.29,0,.42a3.54,3.54,0,0,0,.7-.09h.07l.06,0,0,0s0,0-.07,0l-.81.09c0,.43,0,.7,0,.81a.68.68,0,0,1,0,.13s0,.06,0,.06,0,0-.07-.1a.34.34,0,0,1,0-.15.18.18,0,0,1,0-.08.58.58,0,0,0,0-.18c0-.26,0-.74,0-1.43a2.68,2.68,0,0,0,0-.28c0-.07,0-.11,0-.13s0,0,0,0,0,.05.07.13a.58.58,0,0,1,0,.15l.44,0v-1a.91.91,0,0,0,0-.27.52.52,0,0,1,0-.12s0,0,0,0Zm.65.34a.27.27,0,0,1,0,.1.08.08,0,0,1,0,0l-.34.52,0,0s0,0,0,0v0a3.15,3.15,0,0,0,.18-.39,1.59,1.59,0,0,0,.1-.33,0,0,0,0,1,0,0S55.24,13.7,55.26,13.75Z"/><path class="cls-2" d="M57.82,15.23a.5.5,0,0,1-.23.18h0a.59.59,0,0,0,.15-.18.42.42,0,0,0,.07-.18s0-.07-.1-.07-.13,0-.13-.12.05-.13.15-.13a.18.18,0,0,1,.15.07.28.28,0,0,1,.05.17A.43.43,0,0,1,57.82,15.23Z"/><path class="cls-2" d="M61.13,13.94s0,0,0,.07a0,0,0,0,1,0,0l-.63.07-.41.05h0l-.07,0s0,0,0-.05a0,0,0,0,1,0,0l.37,0,.24,0,.27,0,.15,0h.06A.11.11,0,0,1,61.13,13.94Zm-.13.45s0,0,0,0h0l-.64.08h-.1a.09.09,0,0,1-.07,0,.07.07,0,0,1,0-.05h0l.65-.06h.08Zm0,.43s0,0,0,0l0,0-.64.07h-.11a.08.08,0,0,1-.06,0,.06.06,0,0,1,0,0v0l.65-.07H61Zm-.67.43,0,.11.44-.1c.07,0,.11,0,.12-.06s0-.06.06-.06l.07.06a.14.14,0,0,1,0,.06.13.13,0,0,1,0,.06.12.12,0,0,0,0,.08l-.07.54h0l.06,0,0,0s0,0-.05,0l-.65.1v.13c0,.1,0,.15,0,.15s0,0-.05-.07a.3.3,0,0,1,0-.14.2.2,0,0,1,0-.06,1.49,1.49,0,0,0,0-.33c0-.23,0-.4,0-.52s0-.1,0-.11,0,0,0,0S60.32,15.18,60.35,15.25Zm.54.72.05-.62-.55.1c0,.06,0,.13,0,.21v.4Zm-.35-2.59a1.82,1.82,0,0,1,.22.26.27.27,0,0,1,0,.09.2.2,0,0,1,0,.09c0,.05,0,.07-.05.07s0,0,0,0a2.58,2.58,0,0,0-.19-.42l0-.06a0,0,0,0,1,0,0Zm2.31,1.44a.1.1,0,0,1,0,.06,0,0,0,0,1,0,0l-.51,0c0,.08,0,.16,0,.24h.09l.17,0,.08,0,.08,0s0,0,0,.06a0,0,0,0,1,0,0l-.45,0v.28l.36,0,.25,0,.11,0a.14.14,0,0,1,.08,0,.11.11,0,0,1,0,.07,0,0,0,0,1,0,0l-.49,0a.29.29,0,0,1,0,.08.37.37,0,0,1,0,.1s0,0,0,0l-.1.08-.25.23a3,3,0,0,0,.39.32,1.54,1.54,0,0,0,.46.14l0,0s0,0,0,0l-.29.06-.15,0s0,0-.06,0l-.45-.54-.32-.38a2.37,2.37,0,0,1-.24.28h0s.06.06.06.08a.18.18,0,0,1,0,0,.23.23,0,0,0,0,.1v.4l.43-.35h0l0,0a4.37,4.37,0,0,0-.47.5l0,0,0,0a.08.08,0,0,1,0,0,0,0,0,0,1,0,0l0-.07a.74.74,0,0,0,0-.16v-.28a1.44,1.44,0,0,0,0-.16l-.08.07a4,4,0,0,1-.58.39l-.1,0a0,0,0,0,1,0,0l0,0a4.71,4.71,0,0,0,.62-.47,3.16,3.16,0,0,0,.35-.41l-.49.06-.08,0-.07,0s-.05,0-.05-.05a0,0,0,0,1,0,0l.62-.05c0-.1,0-.19,0-.28l-.23,0H61.5a.1.1,0,0,1-.07,0s0,0,0,0a0,0,0,0,1,0,0l.37,0c0-.09,0-.17,0-.25l-.35,0-.06,0a.09.09,0,0,1-.07,0l0,0a0,0,0,0,1,0,0l.5,0v0l0-.13a.13.13,0,0,1,0-.06h0l.06,0a.15.15,0,0,1,0,.08.13.13,0,0,1,0,0,.18.18,0,0,0,0,.05l.28,0,.17,0s0,0,0-.06,0-.08,0-.13a.21.21,0,0,1,0-.07h0l.06,0a.14.14,0,0,1,0,.08.1.1,0,0,1,0,0,.24.24,0,0,0,0,.06v0l.12,0,.2,0,.09,0Zm-.93-1.53a1.74,1.74,0,0,1,.22.23s.05.07.05.08a.28.28,0,0,1,0,.08l0,.05h0l.42-.05.23,0,.1,0a.13.13,0,0,1,.08,0,.12.12,0,0,1,0,.07,0,0,0,0,1,0,0l-1,.1-.65.08-.07,0-.07,0s-.05,0-.05-.06a0,0,0,0,1,0,0l.59,0,.3,0,0,0a2,2,0,0,0-.19-.37l0,0h0Zm-.43.78a.74.74,0,0,1,0,.12l.31-.07a.14.14,0,0,0,.1,0s0,0,0,0l.06,0,0,0,0,0a.09.09,0,0,0,0,.06l0,.26h0l.05,0,0,0s0,0,0,0l-.5.05a.54.54,0,0,0,0,.08s0,.06,0,.06,0,0-.06-.07a.11.11,0,0,1,0-.07.34.34,0,0,1,0-.06s0-.1,0-.21,0-.09,0-.13,0-.1,0-.12,0-.06,0-.06S61.48,14,61.49,14.07Zm.41.42,0-.31-.4.07s0,0,0,0,0,.17,0,.25Zm.39.45L62,15h-.15c0,.08,0,.17,0,.25l.27,0,.14,0C62.28,15.11,62.28,15,62.29,15Zm0,.33-.22,0-.18,0c0,.1,0,.19,0,.28l.35,0h0C62.26,15.46,62.26,15.37,62.27,15.28Zm0,.72.1.1h0l.19-.26a.57.57,0,0,0,.1-.22h0l-.58.06h-.13l0,0Zm0-2,0,.08.35-.07a.15.15,0,0,0,.1,0s0,0,0,0l.06,0,0,0s0,0,0,0a.1.1,0,0,0,0,.07l-.05.27h0l.05,0,0,0h0l-.52,0v0s0,.06,0,.06,0,0-.05-.06a.11.11,0,0,1,0-.07.18.18,0,0,1,0-.05,1.8,1.8,0,0,0,0-.19s0-.08,0-.11,0-.08,0-.11,0-.06,0-.06S62.22,14,62.23,14Zm.44.41,0-.32-.44.06v.3Z"/><path class="cls-2" d="M66.58,13.71s0,.05,0,.07a0,0,0,0,1,0,0l-1.18.07v.3l.61-.06c.07,0,.11,0,.13-.06s0-.06.05-.06l.07.06a.14.14,0,0,1,0,.06.11.11,0,0,1,0,.05.12.12,0,0,0,0,.08l-.07.54h.07l.05,0,0,0s0,0-.12,0h-.13l0,0,.34.31a.13.13,0,0,1,0,.09s0,.06,0,.11,0,.07,0,.07,0,0,0,0l-.13-.22-.38,0,0,0s.06.07.06.09a.38.38,0,0,1,0,.07.64.64,0,0,0,0,.13v.07a4.79,4.79,0,0,0,.74-.11l.1,0,.1,0,.08.07s0,0,0,0l-1,.06v.67a.87.87,0,0,1,0,.29c0,.06,0,.1-.07.11s0,0-.06,0-.25-.28-.35-.38,0,0,0-.05a0,0,0,0,1,0,0l.08,0a.87.87,0,0,0,.31.21s0-.05,0-.12,0-.18,0-.27v-.42l-.72.05-.32,0a2.12,2.12,0,0,1,.24.32.32.32,0,0,1,.06.12.21.21,0,0,1,0,.09s0,.07-.05.07,0,0-.05-.06a2.76,2.76,0,0,0-.23-.53v0l-.66.07-.1,0a.21.21,0,0,1-.12-.05s0,0,0,0,0,0,0,0c.22,0,.71,0,1.46-.06l.54,0v-.2a1.18,1.18,0,0,0,0-.15v-.06l-.87.1-.58.08-.08,0a.17.17,0,0,1-.09,0s-.06,0-.06-.06h0l.7-.05.42,0V15l-.66,0s0,.1,0,.14,0,.06,0,.06,0,0,0-.07a.31.31,0,0,1,0-.1.4.4,0,0,1,0-.07c0-.07,0-.18,0-.35s0-.24,0-.39a1.3,1.3,0,0,0,0-.18,0,0,0,0,1,0,0s0,0,.07.11a.38.38,0,0,1,0,.08l.67-.06v-.3h-.07l-.88.07-.1,0-.07,0s0,0,0-.06a0,0,0,0,1,0,0l.8,0,.35,0v-.07a1.7,1.7,0,0,0,0-.31l0-.13a0,0,0,0,1,0,0l.1.08c.06.06.09.1.09.11a.54.54,0,0,1,0,.12c0,.06,0,.12,0,.2h.05l.57,0,.31,0,.14,0A.12.12,0,0,1,66.58,13.71Zm-1.25,1.17V14.6h0l-.41,0h0l-.07,0,0,0s0,0,0,0l.37,0h.18v-.26l-.66.06c0,.07,0,.27,0,.6Zm.1-.37.23,0,.15,0h.07l.07,0s0,0,0,.06a0,0,0,0,1,0,0l-.54,0v.28a5,5,0,0,0,.68-.08l.05-.61-.73.07Zm0,.74.83-.08-.18-.24s0,0,0,0l-.63.05Z"/><path class="cls-2" d="M69,13.4s.07.07.07.09a.13.13,0,0,1,0,.05.27.27,0,0,0,0,.1v.59h.33v-.63a.71.71,0,0,0,0-.17.32.32,0,0,1,0-.09s0,0,0,0l.08,0s.07.07.07.09a.11.11,0,0,1,0,0,.28.28,0,0,0,0,.1v.62l.21,0a3.89,3.89,0,0,0,.19-.4,1.38,1.38,0,0,0,.11-.33,0,0,0,0,1,0,0s0,0,.06.07a.27.27,0,0,1,0,.11.06.06,0,0,1,0,0l-.36.52h0c.36,0,.6-.05.72-.08l.09,0,.1,0,.07.06s0,0,0,0l-1,0h0a.31.31,0,0,1,0,.11l0,0-.24.34.24,0,.23,0H70a.11.11,0,0,1,.07,0s0,0,0,.07a0,0,0,0,1,0,0l-.82,0v.32l.34,0,.19,0h.08a.12.12,0,0,1,.08,0s0,.05,0,.07a0,0,0,0,1,0,0l-.72,0v.3h.07l.6,0,.32,0,.15,0a.15.15,0,0,1,.08,0s0,0,0,.07a0,0,0,0,1,0,0l-1.25.07.37.26a4.6,4.6,0,0,0,.6.36,2.45,2.45,0,0,0,.55.11h0s0,0,0,0l-.34.06-.18,0a.11.11,0,0,1-.07,0l-.53-.44-.38-.31v1a0,0,0,0,1,0,0s0,0-.09-.1a.26.26,0,0,1,0-.13.74.74,0,0,1,0-.15,1.7,1.7,0,0,0,0-.27v-.39a3.36,3.36,0,0,1-.52.41,6.19,6.19,0,0,1-.83.42l-.15,0a0,0,0,0,1,0,0l.06,0a6,6,0,0,0,.89-.5,3.71,3.71,0,0,0,.49-.42l-.9.06h-.1l-.08,0s-.06,0-.06-.05a0,0,0,0,1,0,0l.85,0,.35,0v-.3h0l-.54,0h-.06l-.07,0s0,0,0-.06a0,0,0,0,1,0,0l.5,0h.22v-.32H69.1l-.65,0h-.07l-.07,0s0,0,0-.06a0,0,0,0,1,0,0l.59,0h0v0l-.15-.31a.41.41,0,0,1,0-.1,0,0,0,0,1,0,0l0,0,.19.21a.17.17,0,0,1,0,.09.37.37,0,0,1,0,.11v0l.34,0h.14a2.38,2.38,0,0,0,.12-.28,1.53,1.53,0,0,0,.07-.21l-.58,0-1,.07h-.1a.19.19,0,0,1-.11,0s0,0,0,0,0,0,0,0l1.21,0v-.59a.53.53,0,0,0,0-.17.35.35,0,0,1,0-.09,0,0,0,0,1,0,0A.15.15,0,0,1,69,13.4Zm-.72.27a3.24,3.24,0,0,1,.31.28.22.22,0,0,1,.05.12.38.38,0,0,1,0,.11s0,0,0,0,0,0,0,0l-.26-.4a.43.43,0,0,1-.07-.12h0Z"/><path class="cls-2" d="M72,15.06a.79.79,0,0,1-.09.41c0,.05-.06.08-.09.08s0,0,0-.05a.32.32,0,0,1,0-.07.06.06,0,0,1,0,0,.67.67,0,0,0,.19-.41s0,0,0,0S72,15,72,15.06Zm.32-1.63a.22.22,0,0,1,0,.07s0,0-.05.09a1.21,1.21,0,0,0-.15.22l-.18.36.38,0,.1-.18.06-.14s0,0,0,0,0,0,0,.08a.38.38,0,0,1,0,.08,0,0,0,0,1,0,0,2.14,2.14,0,0,0-.18.24l-.23.32-.12.16.5-.09-.08-.19a.13.13,0,0,1,0-.05v0l0,0a1.83,1.83,0,0,1,.18.25.24.24,0,0,1,0,.09.27.27,0,0,1,0,.08s0,.07,0,.07,0,0,0,0l0-.15-.45.1-.19.06,0,0,0,0s0,0,0-.05,0,0,0,0a.33.33,0,0,0,.17-.09,3.1,3.1,0,0,0,.26-.36l.07-.11-.35.08,0,0-.06,0s0,0,0,0,0,0,0,0a.85.85,0,0,0,.22-.33,1.7,1.7,0,0,0,.15-.44s0,0,0,0A.23.23,0,0,1,72.27,13.43Zm.51,1.9a.35.35,0,0,1,0,.1,0,0,0,0,1,0,0l-.14.17.83-.06.39,0H74l.08,0,0,0,0,0-.35,0a2.11,2.11,0,0,1-.36.52l0,0a3.44,3.44,0,0,0,.65.3,4,4,0,0,0,.65.07h0s0,0,0,0l-.58.15a.14.14,0,0,1-.1,0c-.13-.1-.31-.22-.54-.36l-.15-.1a1.82,1.82,0,0,1-.42.26,4.21,4.21,0,0,1-.78.26l-.18,0s0,0,0,0l.05,0c.25-.08.51-.16.77-.27a2.2,2.2,0,0,0,.49-.3l-.58-.38,0,0-.16.18a1.61,1.61,0,0,1-.26.23h0s0,0,0,0l0,0a3,3,0,0,0,.38-.44,1.66,1.66,0,0,0,.23-.45s0,0,0,0S72.75,15.28,72.78,15.34ZM72.19,15a2.21,2.21,0,0,1,.11.34.2.2,0,0,1,0,.09s0,.06,0,.06,0,0,0,0,0-.28,0-.37,0-.1,0-.13a0,0,0,0,1,0,0Zm.27-.07a1,1,0,0,1,.14.19.16.16,0,0,1,0,.07.2.2,0,0,1,0,.09c0,.05,0,.07-.05.07s0,0,0,0a3.35,3.35,0,0,0-.1-.35.11.11,0,0,1,0,0,0,0,0,0,1,0,0Zm.12.83a.09.09,0,0,1,.08,0,5.59,5.59,0,0,0,.57.35,1.83,1.83,0,0,0,.38-.48l-1,.07,0,0Zm1-2s0,0,0,.05l0,0-.72.08-.12,0a.1.1,0,0,1-.07,0,.06.06,0,0,1,0,0l0,0c.36,0,.6-.05.73-.08h.1Zm-.2.33,0,0,0,0-.5.06-.08,0-.05,0a0,0,0,0,1,0,0h0l.5-.06h.07Zm.06.28s0,0,0,0h0l-.51.07h-.08a.07.07,0,0,1-.05,0,0,0,0,0,1,0,0h0l.52-.06h.07Zm-.59.28a1,1,0,0,1,0,.11l.34-.05a.16.16,0,0,0,.11-.05s0-.05.05-.05l.06.05a.13.13,0,0,1,0,.05.09.09,0,0,1,0,0,.13.13,0,0,0,0,.07l0,.27h0l.05,0,0,0h0l-.54,0s0,0,0,.07,0,.06,0,.06,0,0-.06-.06a.11.11,0,0,1,0-.07v-.07s0-.11,0-.23,0-.09,0-.13,0-.1,0-.13,0-.06,0-.06S72.81,14.64,72.82,14.67Zm.44.46,0-.33-.45,0s0,0,0,.06,0,.18,0,.26ZM73,13.3l.16.2a.17.17,0,0,1,0,.08.5.5,0,0,1,0,.13,0,0,0,0,1,0,0s0,0,0,0L73,13.39a.37.37,0,0,1,0-.1,0,0,0,0,1,0,0ZM73.68,15a1,1,0,0,1-.06.39c0,.05,0,.08-.06.08s0,0,0-.05a.32.32,0,0,1,0-.07,0,0,0,0,1,0,0,.72.72,0,0,0,.13-.38,0,0,0,0,1,0,0S73.68,14.91,73.68,15ZM74,13.43a.19.19,0,0,1,0,.07.14.14,0,0,1,0,.08,1.07,1.07,0,0,0-.14.21l-.16.33.37,0,.1-.18.05-.13s0,0,0,0,0,0,0,.08a.4.4,0,0,1,0,.08,0,0,0,0,1,0,0,1.85,1.85,0,0,0-.16.23l-.21.31-.1.15.49-.08-.07-.18a.12.12,0,0,1,0-.05v0l0,0a1.74,1.74,0,0,1,.18.24.24.24,0,0,1,0,.09.32.32,0,0,1,0,.09s0,.06,0,.06,0,0,0,0l0-.16-.43.09-.18.07h0l0,0s0,0,0,0,0,0,0,0a.25.25,0,0,0,.15-.08,2.6,2.6,0,0,0,.24-.34l.06-.09-.35.08h0l-.06,0s0,0,0,0l0,0a.89.89,0,0,0,.21-.31,1.82,1.82,0,0,0,.14-.41s0,0,0,0A.28.28,0,0,1,74,13.43Zm-.08,1.48a2,2,0,0,1,.12.33.23.23,0,0,1,0,.09s0,.06,0,.06,0,0,0,0,0-.27,0-.36a.73.73,0,0,1,0-.12,0,0,0,0,1,0,0Zm.26-.1a2,2,0,0,1,.24.27.22.22,0,0,1,.06.1.27.27,0,0,1,0,.08s0,.07,0,.07,0,0,0,0a2.23,2.23,0,0,0-.21-.42.16.16,0,0,1,0-.06v0Z"/><path class="cls-2" d="M78.13,14.14s.05,0,.05.05v0l-1,.1c0,.23,0,.46.07.68a3.55,3.55,0,0,0,.18.75,3.43,3.43,0,0,0,.28-.52,1.8,1.8,0,0,0,.14-.53s0,0,0,0,0,0,.07.08a.26.26,0,0,1,0,.11,0,0,0,0,1,0,0,1.14,1.14,0,0,0-.09.18,4.39,4.39,0,0,1-.23.49,2.64,2.64,0,0,1-.18.28.9.9,0,0,0,.08.16,1.73,1.73,0,0,0,.39.44.53.53,0,0,0,.27.13s0,0,0,0,0-.29,0-.75c0,0,0,0,0-.05s0,0,0,.05a5.43,5.43,0,0,0,.13.88.33.33,0,0,1,0,.12s0,0,0,0a.65.65,0,0,1-.22-.08,1.48,1.48,0,0,1-.34-.23,1.88,1.88,0,0,1-.31-.38,1.12,1.12,0,0,1-.11-.21l-.09.11a2.94,2.94,0,0,1-.49.43l-.07,0a0,0,0,0,1,0,0,0,0,0,0,1,0,0,3.55,3.55,0,0,0,.31-.29,2.94,2.94,0,0,0,.29-.33,2.15,2.15,0,0,1-.12-.37A9.39,9.39,0,0,1,77,14.32l-1.1.1c0,.19,0,.38,0,.58a.2.2,0,0,0,0,0l.56-.06a.11.11,0,0,0,.09-.05s0,0,.06,0l.05,0,.05.07a.07.07,0,0,1,0,0,.33.33,0,0,0-.08.21,7.6,7.6,0,0,1-.13.83,1.59,1.59,0,0,1-.1.31s0,.06-.06.06a1.29,1.29,0,0,1-.19-.24A1.59,1.59,0,0,1,76,16a0,0,0,0,1,0,0l.12.11c.09.11.15.16.19.17s0,0,0,0a1.56,1.56,0,0,0,.09-.34c0-.17.07-.43.11-.79l-.65.06a5.33,5.33,0,0,1-.1.6,3.63,3.63,0,0,1-.21.62,5.26,5.26,0,0,1-.28.46l0,.05h0l0-.05c.08-.16.15-.3.21-.42a2.26,2.26,0,0,0,.16-.45,4.39,4.39,0,0,0,.13-.68,7.83,7.83,0,0,0,0-.94s0-.12,0-.2,0-.11,0-.13a0,0,0,0,1,0,0s0,0,.07.1a.66.66,0,0,1,.06.2v.1l1.09-.1c0-.12,0-.24,0-.37a2.09,2.09,0,0,0-.06-.41.79.79,0,0,1,0-.11s0,0,0,0l.11.09.1.12a.22.22,0,0,1,0,.07,1.42,1.42,0,0,0,0,.17c0,.16,0,.31,0,.46l.18,0a5,5,0,0,0,.6-.08H78Zm-.56-.73a2.14,2.14,0,0,1,.29.24s.07.07.07.08a.2.2,0,0,1,0,.09c0,.05,0,.07-.06.07a.05.05,0,0,1-.05,0,2.05,2.05,0,0,0-.27-.4.11.11,0,0,1,0-.05s0,0,0,0Z"/><path class="cls-2" d="M82,13.82l.07.06s0,0,0,0l-1.3.07v.34l.65-.06s0,0,.07-.05l0,0,.06,0,0,.06a0,0,0,0,1,0,0,.22.22,0,0,0,0,.13c0,.08,0,.16,0,.24h.05l.05,0,0,0s0,0-.12,0l-.8.05v.32l.73-.06a.12.12,0,0,0,.08-.05s0-.06,0-.06l.06,0,0,.07a.08.08,0,0,1,0,.06.08.08,0,0,0,0,.05l0,.27a3,3,0,0,0,.49-.08l.09,0,.1,0,.07.06s0,0,0,0l-.72,0,0,.3h0a.13.13,0,0,1,.08,0,.12.12,0,0,1,0,.07,0,0,0,0,1,0,0l-1,.05v.53a.82.82,0,0,1,0,.2c0,.06,0,.09-.05.09s0,0,0,0a5.23,5.23,0,0,0-.39-.39l0,0s0,0,0,0l.18.1.21.12s0,0,0-.07V16l-.68,0h-.08l-.07,0s0,0,0-.05a0,0,0,0,1,0,0l.63,0,.23,0V15.6h-.1c-.65.05-1,.08-1.06.1h-.1a.19.19,0,0,1-.11,0s0,0,0,0,0,0,0,0c.21,0,.67,0,1.37-.05v-.32l-.62,0-.2,0a.08.08,0,0,1-.06,0l0,0,0,0,.89-.07v-.32l-.62,0s0,.07,0,.09,0,.06,0,.06,0,0-.06-.07a.14.14,0,0,1,0-.08.25.25,0,0,1,0-.07s0-.11,0-.23,0-.1,0-.14,0-.1,0-.13,0-.06,0-.06,0,0,0,0a.31.31,0,0,1,0,.12l.65-.06V14h-.15l-.91.08h-.09a.19.19,0,0,1-.1,0s0,0,0,0,0,0,0,0l1.25,0h0v-.09a2,2,0,0,0,0-.43.45.45,0,0,1,0-.09s0,0,0,0l.1.05s.08.08.08.1a.13.13,0,0,1,0,0,.31.31,0,0,0,0,.08v.33a8.13,8.13,0,0,0,1.08-.12l.08,0Zm-1.37.92V14.4l-.64.06s0,0,0,.07,0,.17,0,.24Zm.11,0a5.79,5.79,0,0,0,.67-.06l0-.34-.71.06Zm0,.81.81-.07,0-.31-.83.06Zm0,.37h.06l.45,0,.24,0h0l0-.31-.8.05Z"/><path class="cls-2" d="M84.33,13.4s.07.07.07.09a.12.12,0,0,1,0,.05.27.27,0,0,0,0,.1v.59h.33v-.63a.71.71,0,0,0,0-.17.32.32,0,0,1,0-.09s0,0,0,0l.08,0s.07.07.07.09a.11.11,0,0,1,0,0,.28.28,0,0,0,0,.1v.62l.21,0a3.9,3.9,0,0,0,.19-.4,1.37,1.37,0,0,0,.11-.33,0,0,0,0,1,0,0s0,0,.06.07a.27.27,0,0,1,0,.11.06.06,0,0,1,0,0l-.36.52h0c.36,0,.6-.05.72-.08l.09,0,.1,0,.07.06s0,0,0,0l-1,0h0a.31.31,0,0,1,0,.11l0,0-.24.34.24,0,.23,0h.1a.11.11,0,0,1,.07,0s0,0,0,.07a0,0,0,0,1,0,0l-.82,0v.32l.34,0,.19,0h.08a.12.12,0,0,1,.08,0s0,.05,0,.07a0,0,0,0,1,0,0l-.72,0v.3h.07l.6,0,.32,0,.15,0a.15.15,0,0,1,.08,0s0,0,0,.07a0,0,0,0,1,0,0l-1.25.07.37.26a4.61,4.61,0,0,0,.6.36,2.45,2.45,0,0,0,.55.11h0s0,0,0,0l-.34.06-.18,0a.11.11,0,0,1-.07,0L85,16.07l-.38-.31v1a0,0,0,0,1,0,0s0,0-.09-.1a.26.26,0,0,1,0-.13.74.74,0,0,1,0-.15,1.7,1.7,0,0,0,0-.27v-.39a3.36,3.36,0,0,1-.52.41,6.18,6.18,0,0,1-.83.42l-.15,0a0,0,0,0,1,0,0l.06,0a6,6,0,0,0,.89-.5,3.71,3.71,0,0,0,.49-.42l-.9.06h-.1l-.08,0s-.06,0-.06-.05a0,0,0,0,1,0,0l.85,0,.35,0v-.3h0l-.54,0h-.06l-.07,0s0,0,0-.06a0,0,0,0,1,0,0l.5,0h.22v-.32h-.07l-.65,0h-.07l-.07,0s0,0,0-.06a0,0,0,0,1,0,0l.59,0h0v0L84,14.47a.41.41,0,0,1,0-.1,0,0,0,0,1,0,0l0,0,.19.21a.17.17,0,0,1,0,.09.37.37,0,0,1,0,.11v0l.34,0h.14a2.37,2.37,0,0,0,.12-.28,1.52,1.52,0,0,0,.07-.21l-.58,0-1,.07h-.1a.19.19,0,0,1-.11,0s0,0,0,0,0,0,0,0l1.21,0v-.59a.53.53,0,0,0,0-.17.35.35,0,0,1,0-.09,0,0,0,0,1,0,0A.15.15,0,0,1,84.33,13.4Zm-.72.27a3.24,3.24,0,0,1,.31.28.22.22,0,0,1,.05.12.39.39,0,0,1,0,.11s0,0,0,0,0,0,0,0l-.26-.4a.43.43,0,0,1-.07-.12h0Z"/><path class="cls-2" d="M88.4,15.23a.5.5,0,0,1-.23.18h0a.59.59,0,0,0,.15-.18.42.42,0,0,0,.07-.18s0-.07-.1-.07-.13,0-.13-.12.05-.13.15-.13a.18.18,0,0,1,.15.07.28.28,0,0,1,.05.17A.43.43,0,0,1,88.4,15.23Z"/><path class="cls-2" d="M24,20.84s0,0,0,.07a0,0,0,0,1,0,0l-.73.06v.68h.15c.31-.26.54-.48.72-.66a1.4,1.4,0,0,0,.27-.42s0,0,0,0,0,0,.07.1a.44.44,0,0,1,0,.13l-.07.05a3,3,0,0,0-.44.41l-.44.41a5.26,5.26,0,0,0,1.06-.18l.09,0,.1,0,.08.07s0,0,0,0l-1.36.11-.55.45h0a.2.2,0,0,1,0,.08.52.52,0,0,0,0,.2v.26h0a4.55,4.55,0,0,0,.7-.35,1.41,1.41,0,0,0,.42-.37l0,0s0,0,.06.1a.38.38,0,0,1,0,.11s0,0,0,0L24,22.3a4.48,4.48,0,0,1-.47.23,3.61,3.61,0,0,1-.46.16h0v.23a.31.31,0,0,0,0,.2.28.28,0,0,0,.15.08,2.59,2.59,0,0,0,.45,0l.42,0,.25,0a.11.11,0,0,0,.07-.08,5.08,5.08,0,0,0,0-.55s0,0,0,0,0,0,0,0a2.63,2.63,0,0,0,.12.58.31.31,0,0,1,0,.09s0,0-.06,0l-.37.05-.51,0-.38,0a.85.85,0,0,1-.21-.06.29.29,0,0,1-.13-.1.32.32,0,0,1,0-.18v-.75a5.9,5.9,0,0,1-.95.57.91.91,0,0,1-.26.11s0,0,0,0l.12-.07a6.61,6.61,0,0,0,1.1-.71h0c0-.07,0-.1,0-.11a0,0,0,0,1,0,0l.09.06.13-.1.31-.26-.3,0c-.66.07-1,.11-1.07.13l-.11,0a.19.19,0,0,1-.12-.05s0,0,0-.05,0,0,0,0c.21,0,.68,0,1.4-.08V21h-.08l-.59.06-.06,0-.07,0s0,0,0-.06a0,0,0,0,1,0,0l.53,0,.3,0v-.48a1.7,1.7,0,0,0,0-.31.78.78,0,0,1,0-.13,0,0,0,0,1,0,0l.1.08c.06.06.09.1.09.11a.57.57,0,0,1,0,.12,3.35,3.35,0,0,0,0,.43v.17l.32,0,.21,0H24A.11.11,0,0,1,24,20.84Z"/><path class="cls-2" d="M26.38,20.09a.28.28,0,0,1,0,.12.11.11,0,0,1,0,0l-.27.5.43-.06c.07,0,.11,0,.13-.06s0-.06.05-.06l.07.06a.12.12,0,0,1,0,.06.11.11,0,0,1,0,.06.12.12,0,0,0,0,.08l-.08.5h.07l.05,0,0,0s0,0-.07,0l-.86.08v.41l.69-.09c.07,0,.11,0,.12-.06s0-.06.06-.06,0,0,.07.06a.12.12,0,0,1,0,.06.11.11,0,0,1,0,.06.14.14,0,0,0,0,.08l-.08.59h.07l.06,0,0,0s0,0-.08,0l-.93.08c0,.09,0,.15,0,.2a.68.68,0,0,1,0,.14s0,.06,0,.06,0,0-.07-.1a.33.33,0,0,1,0-.15.21.21,0,0,1,0-.09.74.74,0,0,0,0-.2c0-.3,0-.85,0-1.63a2.66,2.66,0,0,0,0-.28c0-.07,0-.12,0-.13s0,0,0,0a.36.36,0,0,1,.07.13.76.76,0,0,1,0,.16l.15,0c.05-.15.1-.29.13-.39a2.37,2.37,0,0,0,.07-.34,0,0,0,0,1,0,0S26.35,20,26.38,20.09Zm.29,2.47.06-.66-.8.09c0,.26,0,.47,0,.63C26.29,22.61,26.54,22.59,26.67,22.57Zm-.06-1.21.07-.57-.74.09v.54A6.4,6.4,0,0,0,26.61,21.36Zm2-1s0,0,0,.07a0,0,0,0,1,0,0l-.81.05v.64l.43-.05a.2.2,0,0,0,.13-.11,0,0,0,0,1,0,0h0l.06,0,0,.06s0,0,0,0a.46.46,0,0,0,0,.19,10,10,0,0,1-.08,1.19c0,.13-.05.2-.08.2s-.14-.08-.28-.23-.18-.19-.18-.22a0,0,0,0,1,0,0,.74.74,0,0,1,.18.13.5.5,0,0,0,.22.11s0,0,0-.08,0-.6.05-1.22l-.54.07v2.3a0,0,0,0,1,0,0s0,0-.09-.1a.26.26,0,0,1,0-.13.74.74,0,0,1,0-.15,1.71,1.71,0,0,0,0-.27V21.2l-.49.06c0,.17,0,.49,0,1,0,.09,0,.18,0,.29s0,.08,0,.08,0,0-.05-.07a.28.28,0,0,1,0-.1,1.07,1.07,0,0,1,0-.11c0-.11,0-.3,0-.58s0-.36,0-.58,0-.23,0-.27l0,0s0,0,.07.11a.62.62,0,0,1,0,.16h0l.49-.05v-.64h0l-.61,0h-.07l-.07,0s0,0,0-.05a0,0,0,0,1,0,0l.55,0,.35,0,.4,0,.21,0h.1A.12.12,0,0,1,28.64,20.32Z"/><path class="cls-2" d="M30.54,20.28a.33.33,0,0,1,0,.1v0l-.12.09-.21.15-.19.1,0,.45a1.18,1.18,0,0,0,.38-.08h0l.05,0,0,0s0,0,0,0l-.47.08,0,.45a1.78,1.78,0,0,0,.4-.06h0l.05,0,0,0s0,0,0,0l-.48.07,0,.57.65,0v-.62a.43.43,0,0,0,0-.15.24.24,0,0,1,0-.08,0,0,0,0,1,0,0l.07,0s.06.06.06.08a.21.21,0,0,1,0,0,.32.32,0,0,0,0,.09v.62H31l.2,0,.07-1.14-.26,0a.25.25,0,0,0-.11,0l0,0a.09.09,0,0,1-.06,0s0,0,0,0a.18.18,0,0,1,0-.06.58.58,0,0,0,0-.18c0-.17,0-.37,0-.6,0-.05,0-.11,0-.19a1.31,1.31,0,0,1,0-.14s0,0,0,0l.08.05s.07.08.07.1a.27.27,0,0,1,0,.09.32.32,0,0,0,0,.13v.21a1.43,1.43,0,0,0,.36-.07h0l.05,0,0,0s0,0,0,0l-.46.07,0,.47.29-.05a.09.09,0,0,0,.08,0s0-.06,0-.06l.05,0s0,.05,0,.07a.1.1,0,0,1,0,0,.12.12,0,0,0,0,.09l-.07,1.08.63-.06,0-.58-.28,0-.1,0-.07,0,0,0,0,0,.47-.05,0-.49-.28,0-.1,0a.1.1,0,0,1-.07,0l0,0v0L32,21l0-.48-.4.06h-.05a.1.1,0,0,1-.07,0l0,0v0l.45-.07a.12.12,0,0,0,.09-.06s0-.06.06-.06l.06,0,.06.07a.08.08,0,0,1,0,.07.26.26,0,0,0,0,.13L32,22.24l.45-.07.1,0,.1.05.08.07s0,0,0,0l-1.92.11c-.69,0-1.06.08-1.12.1l-.11,0a.2.2,0,0,1-.12-.05s0,0,0-.05,0,0,0,0l.64,0-.07-1c0-.18,0-.43-.06-.76a1,1,0,0,0-.06-.26v0s0,0,.09.14a.6.6,0,0,1,0,.18h0a1.74,1.74,0,0,0,.26-.22.85.85,0,0,0,.18-.26h0S30.51,20.23,30.54,20.28Zm0,2.31a.47.47,0,0,1,0,.11,0,0,0,0,1,0,0l-.18.21a3.68,3.68,0,0,1-.32.37,3.35,3.35,0,0,1-.31.25h0a0,0,0,0,1,0,0l0,0a3.42,3.42,0,0,0,.47-.5,1.76,1.76,0,0,0,.28-.52,0,0,0,0,1,0,0S30.53,22.53,30.55,22.59Zm1.12,0a4.24,4.24,0,0,1,.45.49.36.36,0,0,1,.1.21,1,1,0,0,1,0,.14s0,.07,0,.07,0,0-.06-.08a4.06,4.06,0,0,0-.51-.8.11.11,0,0,1,0-.07,0,0,0,0,1,0,0Z"/><path class="cls-2" d="M35.44,21.71l0,.07s0,0,0,0a4.6,4.6,0,0,0-.55.53l0,.08,0,0a6.71,6.71,0,0,0,1.16-.16l.09,0,.1.05.08.07s0,0,0,0l-1.38.1,0,.09a1.7,1.7,0,0,1,0,.32,1.62,1.62,0,0,1,0,.29.7.7,0,0,1-.08.24s-.05.07-.07.07-.06,0-.1-.11a3.27,3.27,0,0,0-.26-.35.11.11,0,0,1,0-.05,0,0,0,0,1,0,0l.14.12c.11.11.19.17.21.17a0,0,0,0,0,0,0,.66.66,0,0,0,0-.14,1,1,0,0,0,0-.23,2.5,2.5,0,0,0,0-.34h0l-.31,0-1,.11-.1,0a.2.2,0,0,1-.12-.05s0,0,0-.05,0,0,0,0q.32,0,1.42-.07h.12l0-.1a1.26,1.26,0,0,0-.1-.16s0-.05,0-.06a0,0,0,0,1,0,0l.07.07.09.11.32-.42-1,.13-.15,0L34,22s0,0,0,0a0,0,0,0,1,0,0l1.27-.16a.11.11,0,0,0,.08-.06l.05-.06Zm-1.1-1.63a.21.21,0,0,1,0,.06,0,0,0,0,1,0,0l-.18.13-.23.16s0,0,0,0l0,.29a.94.94,0,0,0,.35-.09h0l.05,0,0,0s0,0,0,0l-.43.09,0,.28a1.12,1.12,0,0,0,.37-.09h0l.05,0,0,0s0,0,0,0l-.45.09,0,.31.78-.07.88-.09,0-.34-.25,0-.09,0-.07,0,0,0,0,0,.44-.05,0-.3-.26,0-.09,0a.09.09,0,0,1-.07,0l0,0,0,0,.45-.06,0-.31-.22,0-.16,0h0a.11.11,0,0,1-.07,0,.06.06,0,0,1,0,0,0,0,0,0,1,0,0l.2,0,.21,0a.11.11,0,0,0,.08,0l0,0,.06,0s0,0,0,.05l0,0a1.83,1.83,0,0,0,0,.29c0,.32-.05.61-.08.88l.29,0a.24.24,0,0,0,.14-.09s0,0,.05,0l.08.07s.06.07.06.08a.06.06,0,0,1-.05.07,2.34,2.34,0,0,0-.36.47l0,0s0,0,0,0a.31.31,0,0,1,.05-.11q.1-.2.16-.34l-2.51.24a1.23,1.23,0,0,1-.09.33c0,.08-.08.13-.11.13s0,0-.05-.06a.27.27,0,0,1,0-.08.1.1,0,0,1,0-.07,1.25,1.25,0,0,0,.24-.67s0,0,0,0,0,0,0,.12a2.16,2.16,0,0,1,0,.24l.28,0,0-.67c0-.12,0-.3,0-.53a.74.74,0,0,0,0-.18h0s0,0,.08.14a.76.76,0,0,1,0,.13l.22-.22a.72.72,0,0,0,.13-.18l0,0S34.31,20,34.34,20.08Zm.7.72a.27.27,0,0,1,0,.08,0,0,0,0,1,0,0l-.13.14,0,0,.19.13a.1.1,0,0,1,.06.09s0,0,0,.07a.23.23,0,0,1,0,0,.09.09,0,0,1-.07,0l-.21-.22-.14.15a1.41,1.41,0,0,1-.21.17h0v0l0,0a2.17,2.17,0,0,0,.31-.33h0l-.24-.21s0,0,0,0l.08,0,.23.15a1.11,1.11,0,0,0,.15-.29s0,0,0,0S35,20.76,35,20.8Zm.06-.69a.3.3,0,0,1,0,.08,0,0,0,0,1,0,0l-.13.15-.08.1.22.12a.11.11,0,0,1,.05.09s0,0,0,.06,0,0,0,0a.11.11,0,0,1-.07,0l-.23-.22-.11.11a1.82,1.82,0,0,1-.23.18h0s0,0,0,0a2,2,0,0,0,.29-.3l-.24-.18,0,0,.08,0,.23.13a1.17,1.17,0,0,0,.2-.36,0,0,0,0,1,0,0S35.07,20.07,35.09,20.11Z"/><path class="cls-2" d="M38,20.58a.31.31,0,0,1,.06.12.12.12,0,0,1,0,.07,1.06,1.06,0,0,0-.14.28l-.12.28.59,0,.25,0v-.76a1.59,1.59,0,0,0,0-.32.65.65,0,0,1,0-.14s0,0,0,0,0,0,.11.1.1.11.1.13a.73.73,0,0,1,0,.13,2.49,2.49,0,0,0,0,.45v.44h0l.45,0,.24,0,.11,0a.15.15,0,0,1,.08,0s.05.05.05.07a0,0,0,0,1,0,0l-1,.08v.77l.44,0,.24,0h.11a.15.15,0,0,1,.08,0s0,.05,0,.07a0,0,0,0,1,0,0l-.91.05v.87a10.43,10.43,0,0,0,1.18-.1H40l.1.05.08.07s0,0,0,0l-1.74.08-1,.07h-.1a.22.22,0,0,1-.12-.05s0,0,0,0,0,0,0,0l1.4,0h0v-.87h0l-.68,0h-.08l-.08,0s-.05,0-.05-.05a0,0,0,0,1,0,0l.63,0,.3,0v-.77l-.68.07-.08,0a.14.14,0,0,1-.08,0l0,0-.14.26a3.29,3.29,0,0,1-.36.47l0,0s0,0,0,0l0,0a3.17,3.17,0,0,0,.32-.51,5.14,5.14,0,0,0,.29-.66,1.31,1.31,0,0,0,.07-.41s0,0,0,0S38,20.52,38,20.58Z"/><path class="cls-2" d="M43.66,20.4s.05.05.05.07a0,0,0,0,1,0,0l-1.39.07h0l-.16.69.77-.08c.07,0,.11,0,.12-.06S43,21,43,21s0,0,.07.06a.12.12,0,0,1,0,.06.1.1,0,0,1,0,.06.14.14,0,0,0,0,.08L42.77,23c.54,0,.89-.07,1-.09l.09,0L44,23l.08.07s0,0,0,0l-1.8.08-1.05.07h-.1a.25.25,0,0,1-.12,0s0,0,0-.05,0,0,0,0l1.45,0,.24,0,.12-.73-.73.06-.23,0-.07,0s0,0-.06,0l0,0s0,0,0-.07a.69.69,0,0,0,.11-.26l.34-1.47-.75,0h-.1l-.08,0s-.05,0-.05-.06a0,0,0,0,1,0,0l.82,0,.52,0,.59,0,.32,0,.14,0A.16.16,0,0,1,43.66,20.4Zm-.68.84-.9.09-.23,1,1-.08Z"/><path class="cls-2" d="M46.24,21.05s0,.05,0,.07h0l-.55,0v.25h0l.39.3a.12.12,0,0,1,0,.09s0,0,0,.1,0,.05,0,.05,0,0-.05,0a3.66,3.66,0,0,0-.36-.45v1.61c0,.1,0,.2,0,.3s0,.13,0,.13,0,0-.08-.11a.23.23,0,0,1,0-.1.11.11,0,0,1,0-.07.4.4,0,0,0,0-.12,2.37,2.37,0,0,0,0-.31V21.48c0,.1-.1.2-.17.32a4.36,4.36,0,0,1-.58.75c-.11.11-.18.17-.21.17a0,0,0,0,1,0,0s0,0,0,0a4.23,4.23,0,0,0,.56-.75,3.78,3.78,0,0,0,.36-.72h-.13l-.52,0H44.9l-.07,0s0,0,0-.06a0,0,0,0,1,0,0l.47,0,.3,0h.05v-.62a1.52,1.52,0,0,0,0-.34.41.41,0,0,1,0-.11h0l.11.07c.05.05.08.09.08.1a.28.28,0,0,1,0,.09.68.68,0,0,0,0,.18v.62l.18,0,.18,0h.08A.12.12,0,0,1,46.24,21.05Zm.15-.52a.7.7,0,0,1,.05.2h0l1-.11a.09.09,0,0,0,.07,0l0,0,.08,0s.07,0,.07.06,0,0-.05.07a.22.22,0,0,0,0,.12q0,.7,0,1.27c0,.43,0,.76,0,1s0,.26,0,.26,0,0-.06-.08a.3.3,0,0,1,0-.1.53.53,0,0,1,0-.11h-.05l-.86.05v0a1.17,1.17,0,0,1,0,.2s0,.05,0,.05,0,0-.06-.08a.31.31,0,0,1,0-.13s0,0,0-.07a1.2,1.2,0,0,0,0-.2c0-.49,0-1,0-1.58,0-.3,0-.54,0-.72l0-.2s0,0,0,0S46.36,20.45,46.4,20.54ZM47.22,23h.07l.07,0,0,0v0c0-.12,0-.29,0-.49,0-.89,0-1.5,0-1.82l-1,.11v.67a3.63,3.63,0,0,0,.59-.06h.06l.07,0,0,0s0,0-.06,0l-.7.07c0,.22,0,.43,0,.61a3.53,3.53,0,0,0,.59-.07h.06l.07,0,0,0s0,0-.06,0l-.7.07c0,.1,0,.19,0,.28s0,.36,0,.48A5,5,0,0,0,47.22,23Z"/><path class="cls-2" d="M49.67,20.46a.33.33,0,0,1,.07.14.11.11,0,0,1,0,.07,1.17,1.17,0,0,0-.21.31,4.41,4.41,0,0,1-.44.64,4.15,4.15,0,0,1-.54.52l-.06,0s0,0,0,0l0,0a3.73,3.73,0,0,0,.52-.56,4.45,4.45,0,0,0,.47-.73,1,1,0,0,0,.11-.44s0,0,0,0S49.62,20.39,49.67,20.46Zm1.11,1s.06.07.06.08a.05.05,0,0,1,0,0,.2.2,0,0,0-.06.1q-.15.89-.23,1.19a2.59,2.59,0,0,1-.16.45c0,.06-.06.1-.08.1l0,0-.36-.57,0,0a0,0,0,0,1,0,0l0,0,.29.31a.1.1,0,0,0,.07,0s0,0,.07-.09a4,4,0,0,0,.17-.65c0-.26.08-.5.11-.73l-.81.09,0,.05a.35.35,0,0,1,0,.12.11.11,0,0,1,0,.06,1.66,1.66,0,0,0-.11.28,3,3,0,0,1-.21.42,1.61,1.61,0,0,1-.43.47,4,4,0,0,1-.48.29l-.07,0a0,0,0,0,1,0,0l0,0a4,4,0,0,0,.44-.29,1.7,1.7,0,0,0,.33-.33,1.85,1.85,0,0,0,.29-.56,2.08,2.08,0,0,0,.11-.49l-.17,0-.26,0h-.08a.12.12,0,0,1-.08,0s-.05,0-.05,0,0,0,0,0l1.37-.16a.13.13,0,0,0,.13-.07s0-.06.05-.06Zm-.47-1.4a3.07,3.07,0,0,0,.33.6,4.2,4.2,0,0,0,.52.72,1.08,1.08,0,0,0,.3.26,1.17,1.17,0,0,0,.36.1l0,0s0,0,0,0l-.45,0-.08,0,0,0-1-1.55a.76.76,0,0,0-.15-.17s0,0,0,0l.07,0h.09Z"/><path class="cls-2" d="M54.65,21.63l.06.07a0,0,0,0,1,0,0l0,0a.65.65,0,0,0-.12.11l-.42.43v0l0,.07a9.55,9.55,0,0,0,1.22-.15l.09,0,.1,0,.08.07s0,0,0,0l-1.44.08a.2.2,0,0,0,0,.05,1.39,1.39,0,0,1,0,.31,1.8,1.8,0,0,1,0,.34.69.69,0,0,1-.09.28c0,.06-.06.09-.07.09s-.07,0-.12-.12a2.69,2.69,0,0,0-.33-.37.13.13,0,0,1,0-.06,0,0,0,0,1,0,0,.91.91,0,0,1,.18.13.8.8,0,0,0,.28.18s0,0,0,0a.57.57,0,0,0,.06-.18,1.6,1.6,0,0,0,0-.29,2.79,2.79,0,0,0,0-.31l-.33,0-1.07.1h-.1a.21.21,0,0,1-.12,0s0,0,0-.05,0,0,0,0L54,22.41h.12a.86.86,0,0,0-.05-.12,1,1,0,0,0-.12-.16l-.05-.06a0,0,0,0,1,0,0l.08.06.13.15.23-.29.15-.21-.49,0-.7.08h-.08a.1.1,0,0,1-.07,0l0,0a0,0,0,0,1,0,0l.76,0,.58,0a.16.16,0,0,0,.11-.05s0-.05.05-.05ZM53.76,20a1.79,1.79,0,0,1,.27.26.25.25,0,0,1,.06.1.35.35,0,0,1,0,.1l0,0a9,9,0,0,0,1.08-.13l.08,0,.1,0s.07.05.07.06a0,0,0,0,1,0,0l-1.6.09-.94.08h-.09a.18.18,0,0,1-.11,0s0,0,0,0,0,0,0,0l1.29,0H54v0a2.23,2.23,0,0,0-.24-.43.13.13,0,0,1,0-.06,0,0,0,0,1,0,0Zm-.52.78a.43.43,0,0,1,0,.16l1.26-.12s0,0,.07,0l0,0,.06,0,0,.05a0,0,0,0,1,0,0,.27.27,0,0,0,0,.14c0,.08,0,.16,0,.25h0l.05,0,0,0s0,0-.11,0l-1.36.1a1,1,0,0,0,0,.11s0,.06,0,.06,0,0-.07-.07a.12.12,0,0,1,0-.08.56.56,0,0,1,0-.08s0-.14,0-.28,0-.11,0-.16,0-.12,0-.15,0-.06,0-.06S53.23,20.75,53.25,20.78Zm1.3.48,0-.37-1.3.11s0,0,0,.06,0,.2,0,.3A12.33,12.33,0,0,0,54.55,21.26Z"/><path class="cls-2" d="M56.56,22.56a1.29,1.29,0,0,1-.1.58c0,.07-.07.11-.11.12s0,0-.05-.06a.31.31,0,0,1,0-.08.08.08,0,0,1,0-.06,1.07,1.07,0,0,0,.22-.6s0,0,0,0S56.56,22.48,56.56,22.56Zm.52-2.46a.32.32,0,0,1,0,.11.07.07,0,0,1,0,.05l-.13.15-.48.8.51-.08a2.12,2.12,0,0,0,.18-.46s0,0,0,0,0,0,.08.1a.32.32,0,0,1,0,.11.07.07,0,0,1,0,.06l-.17.19-.6,1,.73-.2-.11-.26,0-.07s0,0,0,0l0,0a2.21,2.21,0,0,1,.23.33.31.31,0,0,1,0,.12.2.2,0,0,1,0,.09c0,.05,0,.07-.05.07s0,0,0-.05,0-.14-.07-.21a4.68,4.68,0,0,0-.73.26.25.25,0,0,1-.11,0s0,0-.05,0a.1.1,0,0,1,0-.06,0,0,0,0,1,0,0,.66.66,0,0,0,.18-.18c.15-.23.29-.46.41-.68l0,0-.48.14-.08,0s0,0,0,0a.12.12,0,0,1,0-.06,0,0,0,0,1,0,0,.44.44,0,0,0,.14-.15,6.1,6.1,0,0,0,.32-.57A1.84,1.84,0,0,0,57,20l0,0S57,20,57.09,20.1Zm-.21,2.34a3,3,0,0,1,.13.44.23.23,0,0,1,0,.1s0,.07-.06.07,0,0,0,0c0-.19,0-.35-.05-.46a1.37,1.37,0,0,1,0-.16,0,0,0,0,1,0,0Zm.34-.14a2.56,2.56,0,0,1,.2.29.3.3,0,0,1,0,.1.23.23,0,0,1,0,.09s0,.07-.05.07,0,0,0-.05a3.63,3.63,0,0,0-.17-.45.18.18,0,0,1,0-.06,0,0,0,0,1,0,0Zm1.71-.16s0,0,0,.07a0,0,0,0,1,0,0l-.61,0v.83a5,5,0,0,0,.8-.1h.06l.1,0,.07.06s0,0,0,0l-1.2.08-.7.07h-.07a.19.19,0,0,1-.11,0s0,0,0,0,0,0,0,0l1,0v-.84l-.47,0H57.7l-.07,0s0,0,0-.05a0,0,0,0,1,0,0l.43,0,.28,0,.31,0,.16,0h.08A.13.13,0,0,1,58.92,22.14Zm.13-1.81s0,0,0,.07a0,0,0,0,1,0,0l-.87.07-.56.05h-.06l-.07,0s0,0,0-.05a0,0,0,0,1,0,0l.51,0,.33,0,.37,0,.2,0,.09,0A.11.11,0,0,1,59.05,20.34Zm-1.1.39a.27.27,0,0,1,0,.09.13.13,0,0,1,0,.08,2.63,2.63,0,0,0-.28.45.18.18,0,0,0,0,.09.08.08,0,0,0,0,.06l.2.21a.27.27,0,0,1,.08.16A.56.56,0,0,1,58,22s0,.06,0,.06,0,0,0,0a2.57,2.57,0,0,0-.31-.5.06.06,0,0,1,0,0,.18.18,0,0,1,0-.08,2.25,2.25,0,0,0,.12-.28c.07-.17.11-.31.14-.42v0S57.93,20.68,58,20.72Zm.43,0a.27.27,0,0,1,0,.09.14.14,0,0,1,0,.08,2.63,2.63,0,0,0-.23.43.24.24,0,0,0,0,.09.09.09,0,0,0,0,.07l.19.22a.28.28,0,0,1,.08.16.56.56,0,0,1,0,.11s0,.06,0,.06,0,0,0,0a2.66,2.66,0,0,0-.29-.51.07.07,0,0,1,0-.05.16.16,0,0,1,0-.08A2.17,2.17,0,0,0,58.2,21c.05-.16.09-.3.11-.4l0,0S58.36,20.64,58.39,20.68Zm.51-.06a.31.31,0,0,1,0,.09.14.14,0,0,1,0,.08,2.36,2.36,0,0,0-.23.42.22.22,0,0,0,0,.09.1.1,0,0,0,0,.07l.21.23a.3.3,0,0,1,.1.17.52.52,0,0,1,0,.1s0,.06,0,.06,0,0,0,0a2.75,2.75,0,0,0-.33-.53.07.07,0,0,1,0-.05.15.15,0,0,1,0-.07l.09-.27c.05-.16.09-.29.11-.39v0S58.87,20.58,58.9,20.62Z"/><path class="cls-2" d="M60.17,22.26a2.42,2.42,0,0,1,0,.42A2,2,0,0,1,60,23c0,.1-.08.15-.1.15s0,0,0,0a.92.92,0,0,1,0-.18.17.17,0,0,1,0-.1l.1-.17a1.48,1.48,0,0,0,.12-.42s0,0,0,0S60.17,22.24,60.17,22.26Zm1.15-1.85,0,0s0,0-.08,0l-.43.06v.36l.14,0,.11,0h0l.08,0a.1.1,0,0,1,0,.06s0,0,0,0l-.41,0v.35l.16,0,.1,0h0l.08,0s0,0,0,.06a0,0,0,0,1,0,0l-.42,0v.41l.26,0a.17.17,0,0,0,.09,0l.06,0,.06,0,.06.06a.09.09,0,0,1,0,.06.3.3,0,0,0,0,.09c-.07.51-.13.93-.19,1.24s-.07.25-.09.25a3.53,3.53,0,0,1-.36-.42l0,0a0,0,0,0,1,0,0l.06,0a1.45,1.45,0,0,0,.27.2s0,0,.05-.09a8.14,8.14,0,0,0,.17-1.28l-.43.07-.31.05-.06,0-.06,0v.08c0,.08,0,.13,0,.13s0,0,0-.07a.21.21,0,0,1,0-.11.76.76,0,0,1,0-.12c0-.1,0-.31,0-.63s0-.62,0-.8,0-.16,0-.17,0,0,0,0,0,0,.05.1a.82.82,0,0,1,0,.17,3.66,3.66,0,0,0,.85-.15l.08,0Zm-1,1.92a2.47,2.47,0,0,1,.16.24.33.33,0,0,1,0,.11.39.39,0,0,1,0,.11s0,0,0,0,0,0,0,0l-.12-.36a.66.66,0,0,1,0-.11s0,0,0,0Zm.43-1.76-.42.06s0,.07,0,.11V21l.27,0,.15,0Zm0,1.3v-.41l-.25,0h0l-.06,0s0,0,0,0a0,0,0,0,1,0,0l.27,0h.11V21l-.31,0h0l-.07,0h0v.89Zm-.2.39.18.21a.19.19,0,0,1,0,.1.31.31,0,0,1,0,.1s0,0,0,0,0,0,0,0l-.14-.31a.32.32,0,0,1,0-.09,0,0,0,0,1,0,0Zm.25-.1.18.2a.2.2,0,0,1,0,.09.35.35,0,0,1,0,.1s0,0,0,0,0,0,0,0l-.15-.31,0-.09h0Zm1.37-2a.27.27,0,0,1,.05.11.06.06,0,0,1,0,0l-.06.14.29.39a3.68,3.68,0,0,0,.48.55,1,1,0,0,0,.43.17v0s0,0,0,0l-.25.06-.13,0s0,0-.06,0L62.46,21l-.33-.49a4.3,4.3,0,0,1-.34.66l0,.07h0l.21,0,.13,0,.15,0,.08,0h0l.07,0s0,0,0,.06a0,0,0,0,1,0,0l-.36,0-.23,0h0a.09.09,0,0,1-.07,0s0,0,0,0h0a3.24,3.24,0,0,1-.21.29s0,0,0,.09a.84.84,0,0,1,0,.13l.27,0s0,0,.06,0l0,0,0,0,0,0,0,0a.55.55,0,0,0,0,.16c0,.1,0,.21,0,.32h0l.05,0,0,0h0l-.24,0v0a.32.32,0,0,1,0,.1.08.08,0,0,1,0,0,2.42,2.42,0,0,0-.13.26,3.85,3.85,0,0,1-.23.45,2.5,2.5,0,0,1-.22.31l0,0a0,0,0,0,1,0,0,.07.07,0,0,1,0,0,3.73,3.73,0,0,0,.31-.58,2.83,2.83,0,0,0,.18-.57l-.14,0v.09c0,.08,0,.12,0,.12s0,0,0-.06a.2.2,0,0,1,0-.11.16.16,0,0,1,0-.05,1.74,1.74,0,0,0,0-.27c0-.18,0-.33,0-.42a.64.64,0,0,1,0-.09h0l-.1.13,0,0s0,0,0,0l0,0c.14-.22.26-.41.35-.58s.17-.38.23-.55a2.32,2.32,0,0,0,.1-.45s0,0,0,0S62.15,20,62.18,20.1Zm-.26,2.09,0-.46-.32.05s0,.09,0,.14v.31Zm-.14.55.27.18s0,.05,0,.08a.39.39,0,0,1,0,.11s0,0,0,0,0,0,0,0l-.23-.28a.28.28,0,0,1-.07-.09h0Zm.47-1.25a.72.72,0,0,1,0,.16l.32,0a.06.06,0,0,0,.06,0l0,0,.05,0,0,0h0a.33.33,0,0,0,0,.16c0,.1,0,.2,0,.31h0l.05,0,0,0h0l-.21,0,0,.06a.38.38,0,0,1,0,.1.07.07,0,0,1,0,0l-.15.29,0,.05,0,0a4.5,4.5,0,0,1,.43.29.21.21,0,0,1,.08.13.42.42,0,0,1,0,.11s0,0,0,0,0,0-.06-.05-.24-.27-.37-.41l-.09-.09a3.93,3.93,0,0,1-.22.4,2.89,2.89,0,0,1-.26.35l0,0a0,0,0,0,1,0,0,.06.06,0,0,1,0,0,4.16,4.16,0,0,0,.39-.63,2.93,2.93,0,0,0,.23-.67h0l-.23,0v.11c0,.08,0,.12,0,.12s0,0,0-.06a.21.21,0,0,1,0-.11.14.14,0,0,1,0,0,1.94,1.94,0,0,0,0-.28c0-.19,0-.33,0-.43a.59.59,0,0,1,0-.09s0,0,0,0S62.23,21.44,62.25,21.49Zm.38.62,0-.44-.37.05s0,.07,0,.11v.31Z"/><path class="cls-2" d="M64.74,20.13a.19.19,0,0,1,0,.1l0,0a1,1,0,0,0-.06.18,2.8,2.8,0,0,1-.13.36,2.23,2.23,0,0,1-.13.26l.6-.11a.07.07,0,0,0,.06,0s0-.06,0-.06l.08,0s.06,0,.06.06,0,0,0,.07a.2.2,0,0,0,0,.11c0,.36,0,.68,0,1s0,.58,0,.76,0,.2-.06.2,0,0-.06-.07a.24.24,0,0,1,0-.1.32.32,0,0,1,0-.12,2.77,2.77,0,0,0,0-.38c0-.66,0-1.12,0-1.38l-.89.16c0,.26,0,.5,0,.7a2.45,2.45,0,0,0,.54-.08h.06l.05,0,0,0s0,0-.05,0l-.64.08c0,.2,0,.37,0,.52s0,.24,0,.32a2.56,2.56,0,0,0,.59-.09h.07l.06,0,0,0s0,0-.06,0l-.7.09v0a1.08,1.08,0,0,1,0,.2s0,0,0,0,0,0-.06-.08a.28.28,0,0,1,0-.13s0,0,0-.07a1.22,1.22,0,0,0,0-.21c0-.37,0-.77,0-1.2,0-.23,0-.41,0-.55l0-.15s0,0,0,0,0,0,.08.13a.71.71,0,0,1,.06.2l.18,0q.06-.16.11-.34a2.7,2.7,0,0,0,.08-.34,2.45,2.45,0,0,0,0-.29s0-.06,0-.06S64.7,20.08,64.74,20.13Zm1.17,0a.22.22,0,0,1,.05.1.31.31,0,0,1,0,.09,2.29,2.29,0,0,0-.1.34c0,.15-.09.29-.14.43l.82-.13c.08,0,.12,0,.14-.06s0-.06.07-.06l.07,0s0,.06,0,.08,0,0,0,.07a.27.27,0,0,0,0,.14c-.07.84-.13,1.42-.17,1.75a2,2,0,0,1-.13.46c0,.08-.05.12-.08.12s-.15-.17-.42-.5l-.08-.11s0,0,0,0l.06,0a1.85,1.85,0,0,0,.37.32s.07-.07.11-.19a8.37,8.37,0,0,0,.15-1c0-.39.06-.74.07-1.05l-.76.14-.09,0a.19.19,0,0,1-.1,0l0,0-.06.16a3.91,3.91,0,0,1-.25.53s0,.06,0,.06,0,0,0,0v0a5.39,5.39,0,0,0,.26-.64,4.49,4.49,0,0,0,.17-.6,2.73,2.73,0,0,0,.07-.52s0-.06,0-.06S65.87,20,65.92,20.11Zm-.19,1.58A2.35,2.35,0,0,1,66,22a.32.32,0,0,1,.07.13.21.21,0,0,1,0,.09s0,.07-.05.07,0,0-.06-.06a2.81,2.81,0,0,0-.27-.54.2.2,0,0,1,0-.07,0,0,0,0,1,0,0Z"/><path class="cls-2" d="M69.17,20.72l0,0h0a1.5,1.5,0,0,0,.19-.39h0s0,0,.06.08a.29.29,0,0,1,0,.11l0,0a2.2,2.2,0,0,0-.31.38l-.26.32.24,0,.23,0,.1,0a.13.13,0,0,1,.08,0,.14.14,0,0,1,0,.07,0,0,0,0,1,0,0l-.76,0-.41.44.34,0,.3,0a.14.14,0,0,0,.1,0s0,0,0,0l.05,0,0,.07h0l0,0-.1.1-.34.39,0,.08,0,.07.57-.17h0s0,0,0,0l-.55.21v.06a2.4,2.4,0,0,1,0,.34,1.34,1.34,0,0,1,0,.29.68.68,0,0,1-.08.24s0,.08-.07.08-.06,0-.1-.12a2.43,2.43,0,0,0-.26-.37l0-.06a0,0,0,0,1,0,0s.06,0,.15.13.18.18.21.18l0,0a.74.74,0,0,0,0-.15,1.08,1.08,0,0,0,0-.24c0-.13,0-.24,0-.33l-.34.12-.37.15-.07,0a.15.15,0,0,1-.08,0l-.05-.06s0,0,0,0l.56-.15.31-.09,0-.14-.06-.18,0-.07a0,0,0,0,1,0,0l.05.07.05.1L69,22l.13-.19-.21,0-.4.06h0a.1.1,0,0,1-.07,0h0a4.25,4.25,0,0,1-.71.57.69.69,0,0,1-.18.1s0,0,0,0l.08-.07a5.31,5.31,0,0,0,.92-.81l.23-.25h-.13l-.66.05H67.8l-.07,0s-.05,0-.05-.06a0,0,0,0,1,0,0l.6,0,.26,0v-.47h-.06l-.44,0H68l-.07,0,0,0a0,0,0,0,1,0,0l.4,0,.24,0v-.27a1.67,1.67,0,0,0,0-.31.91.91,0,0,1,0-.13,0,0,0,0,1,0,0l.1.08c.06.05.09.09.09.11a.58.58,0,0,1,0,.12,2.79,2.79,0,0,0,0,.4l.2,0,.15,0h.07Zm0,.08-.48,0v.46h.08C68.92,21.09,69,20.93,69.15,20.8Zm.84-.7a.29.29,0,0,1,.06.12.27.27,0,0,1,0,.09,2.06,2.06,0,0,0-.11.37c0,.16-.08.31-.12.44l.56-.06.27,0h.06l.1,0s.05,0,.05.05,0,0,0,0l-.42,0,0,0a.34.34,0,0,1,.05.12.19.19,0,0,1,0,.08,3.18,3.18,0,0,0-.11.39,4.09,4.09,0,0,1-.2.59l0,0a2.1,2.1,0,0,0,.44.65,1.17,1.17,0,0,0,.49.16l0,0s0,0,0,0l-.55,0a.11.11,0,0,1-.07-.07c-.07-.16-.19-.41-.36-.75a2.17,2.17,0,0,1-.37.54,3.49,3.49,0,0,1-.47.41l-.07,0a0,0,0,0,1,0,0s0,0,0,0a4,4,0,0,0,.42-.41,2,2,0,0,0,.32-.45l.09-.17,0-.06c-.18-.36-.31-.58-.37-.67l0,0c-.07.15-.14.3-.22.44l0,0s0,0,0,0l0,0a5.53,5.53,0,0,0,.25-.66,8.62,8.62,0,0,0,.23-.86,2.55,2.55,0,0,0,.06-.52s0,0,0,0S69.94,20,70,20.1Zm-.33,1.53a.11.11,0,0,1,.08.06,2.62,2.62,0,0,0,.3.66,3.69,3.69,0,0,0,.16-.52,4.14,4.14,0,0,0,.11-.67l-.56.05c0,.1-.06.18-.09.25l-.06.14Z"/><path class="cls-2" d="M73.67,21.71l0,.07s0,0,0,0a4.6,4.6,0,0,0-.55.53l0,.08,0,0a6.71,6.71,0,0,0,1.16-.16l.09,0,.1.05.08.07s0,0,0,0l-1.38.1,0,.09a1.69,1.69,0,0,1,0,.32,1.62,1.62,0,0,1,0,.29.7.7,0,0,1-.08.24s-.05.07-.07.07-.06,0-.1-.11a3.26,3.26,0,0,0-.26-.35.11.11,0,0,1,0-.05,0,0,0,0,1,0,0l.14.12c.11.11.19.17.21.17a0,0,0,0,0,0,0,.67.67,0,0,0,0-.14,1,1,0,0,0,0-.23,2.49,2.49,0,0,0,0-.34h0l-.31,0-1,.11-.1,0a.2.2,0,0,1-.12-.05s0,0,0-.05,0,0,0,0q.32,0,1.42-.07h.12l0-.1a1.26,1.26,0,0,0-.1-.16s0-.05,0-.06a0,0,0,0,1,0,0l.07.07.09.11.32-.42-1,.13-.15,0-.08,0s0,0,0,0a0,0,0,0,1,0,0l1.27-.16a.11.11,0,0,0,.08-.06l.05-.06Zm-1.1-1.63a.21.21,0,0,1,0,.06,0,0,0,0,1,0,0l-.18.13-.23.16s0,0,0,0l0,.29a.94.94,0,0,0,.35-.09h0l.05,0,0,0s0,0,0,0l-.43.09,0,.28a1.12,1.12,0,0,0,.37-.09h0l.05,0,0,0s0,0,0,0l-.45.09,0,.31.78-.07.88-.09,0-.34-.25,0-.09,0-.07,0,0,0,0,0,.44-.05,0-.3-.26,0-.09,0a.09.09,0,0,1-.07,0l0,0,0,0,.45-.06,0-.31-.22,0-.16,0h0a.11.11,0,0,1-.07,0,.06.06,0,0,1,0,0,0,0,0,0,1,0,0l.2,0,.21,0a.11.11,0,0,0,.08,0l0,0,.06,0s0,0,0,.05l0,0a1.82,1.82,0,0,0,0,.29c0,.32-.05.61-.08.88l.29,0a.24.24,0,0,0,.14-.09s0,0,.05,0l.08.07s.06.07.06.08a.06.06,0,0,1-.05.07,2.34,2.34,0,0,0-.36.47l0,0s0,0,0,0a.31.31,0,0,1,.05-.11q.1-.2.16-.34l-2.51.24a1.22,1.22,0,0,1-.09.33c0,.08-.08.13-.11.13s0,0-.05-.06a.27.27,0,0,1,0-.08.1.1,0,0,1,0-.07,1.25,1.25,0,0,0,.24-.67s0,0,0,0,0,0,0,.12a2.16,2.16,0,0,1,0,.24l.28,0,0-.67c0-.12,0-.3,0-.53a.74.74,0,0,0,0-.18h0s0,0,.08.14a.77.77,0,0,1,0,.13l.22-.22a.72.72,0,0,0,.13-.18l0,0S72.54,20,72.57,20.08Zm.7.72a.25.25,0,0,1,0,.08,0,0,0,0,1,0,0l-.13.14,0,0,.19.13a.1.1,0,0,1,.06.09s0,0,0,.07,0,0,0,0a.09.09,0,0,1-.07,0l-.21-.22-.14.15a1.41,1.41,0,0,1-.21.17h0v0l0,0A2.17,2.17,0,0,0,73,21.1h0l-.24-.21s0,0,0,0l.08,0,.23.15a1.11,1.11,0,0,0,.15-.29s0,0,0,0S73.24,20.76,73.26,20.8Zm.06-.69a.3.3,0,0,1,0,.08,0,0,0,0,1,0,0l-.13.15-.08.1.22.12a.11.11,0,0,1,.05.09s0,0,0,.06,0,0,0,0a.11.11,0,0,1-.07,0l-.23-.22-.11.11a1.82,1.82,0,0,1-.23.18h0s0,0,0,0a2,2,0,0,0,.29-.3l-.24-.18,0,0,.08,0,.23.13a1.17,1.17,0,0,0,.2-.36,0,0,0,0,1,0,0S73.3,20.07,73.32,20.11Z"/><path class="cls-2" d="M77.92,20.32s.05,0,.05.07a0,0,0,0,1,0,0l-1,.07V21.8a9.27,9.27,0,0,0,1.22-.15l.09,0,.11.06q.08.06.08.08a0,0,0,0,1,0,0L77,21.88v1.6a0,0,0,0,1,0,0s0,0-.09-.1a.2.2,0,0,1,0-.13.74.74,0,0,1,0-.15,1.71,1.71,0,0,0,0-.27v-1l-.19,0-1,.1-.1,0a.22.22,0,0,1-.13-.05s-.05,0-.05,0,0,0,.06,0l1.43-.06h0V20.49h-.07l-.77.07-.08,0-.08,0s-.06,0-.06-.05a0,0,0,0,1,0,0l.7,0,.45,0,.5,0,.27,0h.12A.14.14,0,0,1,77.92,20.32ZM76,20.88a3.14,3.14,0,0,1,.26.39.37.37,0,0,1,.06.14.3.3,0,0,1,0,.1c0,.05,0,.08-.06.08s0,0,0-.07a4.17,4.17,0,0,0-.23-.59.17.17,0,0,1,0-.08,0,0,0,0,1,0,0Zm1.71-.16a.31.31,0,0,1,0,.13.11.11,0,0,1,0,.06l-.36.65a.15.15,0,0,1,0,.06s0,0,0,0v0a4.74,4.74,0,0,0,.19-.49,2.92,2.92,0,0,0,.1-.41s0,0,0,0S77.72,20.66,77.75,20.72Z"/><path class="cls-2" d="M80.67,20.09a.36.36,0,0,1,.05.11.05.05,0,0,1,0,.06l-.21.27-.75,1,1.87-.21a6,6,0,0,0-.49-.49s-.07-.05-.07-.07a0,0,0,0,1,0,0,.34.34,0,0,1,.13.05,5.88,5.88,0,0,1,.66.52c.1.08.15.16.15.22s0,.08,0,.13,0,.07,0,.07-.06,0-.09-.08a2.77,2.77,0,0,0-.21-.28L80,21.57l-.31.07-.13.05s0,0-.07-.06,0-.05,0-.06,0,0,0,0a.71.71,0,0,0,.3-.21,6.56,6.56,0,0,0,.58-.8,1.9,1.9,0,0,0,.21-.48s0,0,0,0S80.63,20,80.67,20.09ZM79.92,22a.78.78,0,0,1,0,.19l1.3-.16a.19.19,0,0,0,.13-.06s0-.06.06-.06l.08.06s0,.05,0,.06a.11.11,0,0,1,0,.06.14.14,0,0,0,0,.09l-.1.87h0l.07,0,0,.05s0,0-.12,0L80,23.21v.15c0,.1,0,.16,0,.16s0,0-.07-.08a.29.29,0,0,1,0-.14.43.43,0,0,1,0-.09,4,4,0,0,0,0-.48c0-.3,0-.53,0-.68s0-.13,0-.15,0,0,0,0S79.89,21.89,79.92,22ZM81.32,23h0l.08-.94L80,22.25v.17c0,.27,0,.5,0,.7A12.4,12.4,0,0,0,81.32,23Z"/><path class="cls-2" d="M84.85,22.1a.45.45,0,0,1-.33.13.46.46,0,0,1,0-.93.47.47,0,0,1,.47.47A.44.44,0,0,1,84.85,22.1Zm-.06-.6a.38.38,0,0,0-.27-.11.36.36,0,0,0-.27.11.37.37,0,0,0-.11.27.37.37,0,0,0,.37.37.37.37,0,0,0,.27-.11.36.36,0,0,0,.11-.27A.38.38,0,0,0,84.78,21.5Z"/><rect class="cls-3" width="9.45" height="35"/><path class="cls-4" d="M6.3,8.76H5.73l0,.37h-2l0-.37H3.18V8.62h.57l0-.36h2l0,.36H6.3Zm-.46,1.67H4.4l.08.12a3.24,3.24,0,0,1-1.16.39l-.11-.17a3.25,3.25,0,0,0,1.13-.34H3.64V9.33H5.85Zm.32-2H6V8.07H3.5V8.4H3.32V7.91H4.64a.89.89,0,0,0-.09-.16l.17-.06.13.22H6.17Zm-.5,1.23V9.48H3.81v.17Zm0,.32V9.79H3.81V10Zm0,.32v-.17H3.81v.17Zm-1-1.52H3.92L3.9,9h.72Zm0-.35H4l0,.21h.73Zm.88.35H4.82L4.8,9h.73Zm0-.35H4.86l0,.21h.73Zm.67,2.36-.07.16A5.35,5.35,0,0,0,5,10.66l.08-.15A5.75,5.75,0,0,1,6.26,10.78Z"/><path class="cls-4" d="M4.94,14.09H4.19v.53H4v-.53H3.18v-.17H4v-.29H3.35V12.4H4.85v1.23H4.19v.29h.75ZM4,12.18H3.26v-.71H4ZM3.82,12v-.36H3.44V12Zm.19.9v-.33H3.53v.33Zm0,.54v-.36H3.53v.36Zm.66-.54v-.33H4.19v.33Zm0,.54v-.36H4.19v.36Zm.27-1.27H4.22v-.71h.72ZM4.77,12v-.36H4.39V12ZM6.31,14a1.81,1.81,0,0,1-.16.51.25.25,0,0,1-.22.15q-.25,0-.42-.65a4,4,0,0,1-.6.56l-.13-.13a3.76,3.76,0,0,0,.7-.65,7.75,7.75,0,0,1-.1-1.1l-.35,0v-.18l.35,0V11.39h.18v1l.72-.07,0,.19-.72.06a7.4,7.4,0,0,0,.07.91A3.4,3.4,0,0,0,6,12.75l.16.09a4.73,4.73,0,0,1-.54.95,2.61,2.61,0,0,0,.09.35.83.83,0,0,0,.1.22s.06.06.08.06H6a.65.65,0,0,0,.08-.18,2.18,2.18,0,0,0,.1-.39Zm-.12-1.89-.16.1a2.45,2.45,0,0,0-.33-.51l.15-.1A2.46,2.46,0,0,1,6.19,12.07Z"/><path class="cls-4" d="M4.28,15.93a3.79,3.79,0,0,1-.35.51v1.89H3.74V16.66a5.16,5.16,0,0,1-.47.44L3.18,17a4.25,4.25,0,0,0,.94-1.13Zm-.08-.73a3.35,3.35,0,0,1-.9.77l-.11-.15A3.13,3.13,0,0,0,4,15.08Zm2.11,1.18H5.74V18a.28.28,0,0,1-.06.19.24.24,0,0,1-.14.08l-.31,0H4.91l-.08-.2h.67a.06.06,0,0,0,0-.06V16.38H4.28v-.19h2Zm-.18-.93H4.43v-.19h1.7Z"/><path class="cls-4" d="M4.46,19.45l-.15.13a2.89,2.89,0,0,0-.47-.5,4.56,4.56,0,0,1-.41.59h.85v.17H3.91v.4h.46v.17H3.91v1.14l.41-.12v.19a11.15,11.15,0,0,1-1.11.31l-.06-.18.58-.14V20.42H3.25v-.17h.49v-.4H3.4V19.7l-.12.12-.12-.14a3.6,3.6,0,0,0,.65-.93l.15.09,0,.08A4.16,4.16,0,0,1,4.46,19.45Zm-.88,2-.18.05a3.28,3.28,0,0,0-.14-.73l.16-.06A5.32,5.32,0,0,1,3.57,21.41Zm.8-.7a4,4,0,0,1-.15.63L4,21.29a2.65,2.65,0,0,0,.15-.63Zm1.76,1a.21.21,0,0,1-.08.19.62.62,0,0,1-.33.06H5.51l-.06-.19h.32l.15,0a.05.05,0,0,0,0,0v-.8q-.5.26-1.13.54l-.1-.13a2,2,0,0,1-.27.65l-.15-.12a2.24,2.24,0,0,0,.3-1.24v-.76h.66v-1.1h.18v1.1h.69ZM5,19.6l-.16.08A3.25,3.25,0,0,0,4.48,19l.16-.1A3.54,3.54,0,0,1,5,19.6Zm1,1.14v-.68H4.78v.31a4.27,4.27,0,0,1,1,.13l-.06.18a4.23,4.23,0,0,0-.91-.13,5.23,5.23,0,0,1-.06.76A10.15,10.15,0,0,0,5.94,20.74Zm.33-1.79a4.22,4.22,0,0,1-.41.73l-.16-.1a3.7,3.7,0,0,0,.41-.72Z"/><path class="cls-4" d="M6.29,25.08H4.83v.37a.21.21,0,0,1-.07.16.23.23,0,0,1-.16.06H4.18l-.06-.18h.21a1,1,0,0,0,.28,0,.09.09,0,0,0,0-.09v-.31H3.18V24.9H4.65v-.15a6.07,6.07,0,0,0,.58-.24H3.78v-.17H5.61v.17a8,8,0,0,1-.79.36v0H6.29Zm-.08-.5H6v-.46H3.43v.46H3.25v-.64h.19V22.61a2.5,2.5,0,0,0,.67-.18l.08.15a2.4,2.4,0,0,1-.57.17V23h.58v.17H3.61v.29h.57v.17H3.62v.3h2.2v-.3H5.26v-.17h.57v-.29H5.26V23h.58v-.27H5.23v-.17H6l0,1.36h.22Zm-1-.84-.12.12-.32-.27a2.62,2.62,0,0,1-.43.26l-.09-.15.39-.22-.15-.12-.13-.09.11-.12.31.23A1.38,1.38,0,0,0,5,23.16l.14.1a2,2,0,0,1-.24.23Zm0-.7-.12.11a2.48,2.48,0,0,0-.31-.25,2.88,2.88,0,0,1-.41.24L4.28,23a2.48,2.48,0,0,0,.36-.2,2,2,0,0,0-.26-.2l.12-.11.27.21A1.6,1.6,0,0,0,5,22.42l.14.07a1.84,1.84,0,0,1-.26.28A2.57,2.57,0,0,1,5.19,23Z"/><line class="cls-5" x1="18.28" y1="15.87" x2="14.14" y2="22.92"/><line class="cls-5" x1="90.01" y1="15.87" x2="85.87" y2="22.92"/><path class="cls-6" d="M91.49,12.59a1.68,1.68,0,0,1-.77.61l0,0a2,2,0,0,0,.52-.59,1.42,1.42,0,0,0,.24-.59c0-.15-.11-.24-.33-.24s-.44-.13-.44-.4.17-.42.52-.42a.62.62,0,0,1,.49.23,1,1,0,0,1,.18.58A1.46,1.46,0,0,1,91.49,12.59Z"/><path class="cls-6" d="M92.92,12.59a1.68,1.68,0,0,1-.77.61l0,0a2,2,0,0,0,.52-.59,1.42,1.42,0,0,0,.24-.59c0-.15-.11-.24-.33-.24s-.44-.13-.44-.4.17-.42.52-.42a.62.62,0,0,1,.49.23,1,1,0,0,1,.18.58A1.46,1.46,0,0,1,92.92,12.59Z"/><g class="cls-7"><path class="cls-4" d="M92.7,15.73v6.73h6.73V15.73Zm5.26.52h.95v.95H98Zm-1.21,0h1v.95h-1Zm-1.21,0h1v.95h-1Zm-2.33,0h.95v.95h-.95Zm0,1.12h.95v1h-.95Zm0,2.24v-1h.89l.23-.37v-.84h.54l.11-.17h-.65v-.95h1v.95h-.13l.3.48v-.31h1v1H96l.11.17h.48V19l.17-.18v-.2h.19l.16-.17h-.35v-1h1V18l.17.09v-.77h.95v1h-.44l.33.17h.12v.32l-1.28-.68L96.42,19.5l-1.28-2.07-1.92,3v-.66h.12l.11-.17Zm2.16,2.33h-1V21h1Zm1.21,0h-1V21h1Zm1.21,0h-1V21h1Zm1.12,0H98V21h.95Zm0-1.12H98v-1h.95ZM98,19.61v-.5L97.79,19v.59h-.64l-.16.17h.8v1h-1V20l-.17.18v.6h-1v-1h.29l-.11-.17h-.19v-.3L95.37,19v.58h-.91l-.11.17h1v1h-1v-1l-.17.27v.73H93.7l-.11.17h.58v.95h-.95v-.79l1.92-3,1.23,2,1.35-1.44,1.21.64v.29Zm0,0"/></g></svg>