<svg id="圖層_1" data-name="圖層 1" xmlns="http://www.w3.org/2000/svg" viewBox="0 0 100 35"><defs><style>.cls-1{fill:#f5f5f5;stroke:#fff;}.cls-1,.cls-5{stroke-miterlimit:10;}.cls-2{fill:#3d3d3d;}.cls-3,.cls-7{fill:#647384;}.cls-4{fill:#fff;}.cls-5{fill:none;stroke:#647384;stroke-width:0.3px;}.cls-6{fill:#ad8066;}.cls-7{opacity:0.4;}</style></defs><title>lesson_cont_5</title><rect class="cls-1" x="-148.5" y="-71.5" width="375" height="177"/><path class="cls-2" d="M29.33,16.59l.08.07s0,0,0,0l-1.69.1a5,5,0,0,1-.22.48l0,0,0,.1a.07.07,0,0,0,0,0l1-.11s.05,0,.08-.07,0,0,.06,0l.08,0s.06.05.06.08,0,0-.07.09a.14.14,0,0,0,0,.09v1.72a.59.59,0,0,1,0,.2.06.06,0,0,1,0,0,.07.07,0,0,1-.05,0,4.48,4.48,0,0,0-.44-.49,0,0,0,0,1,0,0l0,0,.06,0a1.37,1.37,0,0,0,.35.26s0,0,0,0,0-.06,0-.1a1.16,1.16,0,0,0,0-.15V17.41l-1.07.12V18a2.82,2.82,0,0,0,.62-.09h.06l.07,0,0,0s0,0-.06,0l-.73.09v.37a3.61,3.61,0,0,0,.69-.09h.07l.06,0,0,0s0,0-.06,0l-.8.09c0,.4,0,.65,0,.75a.47.47,0,0,1,0,.13s0,.06,0,.06,0,0-.07-.1a.33.33,0,0,1,0-.15.19.19,0,0,1,0-.07.4.4,0,0,0,0-.16c0-.24,0-.67,0-1.29,0-.11,0-.2,0-.28a.33.33,0,0,1,0-.07,2.12,2.12,0,0,1-.69.78,2.51,2.51,0,0,1-.37.24l-.07,0s0,0,0,0l0,0a3.67,3.67,0,0,0,.54-.42,3,3,0,0,0,.7-1.11l0,0-.93.08h-.1a.2.2,0,0,1-.12-.05s0,0,0-.05,0,0,0,0l1.18,0c0-.12.07-.22.1-.31a1,1,0,0,0,0-.23s0,0,0-.1a.75.75,0,0,1,0-.11h0s0,0,.1.1a.51.51,0,0,1,.08.13.09.09,0,0,1,0,.05,2.93,2.93,0,0,0-.14.37l0,.1h.1a10.5,10.5,0,0,0,1.33-.15l.09,0Z"/><path class="cls-2" d="M31.18,16a.5.5,0,0,1,0,.11.19.19,0,0,1,0,.08,4.54,4.54,0,0,0-.16.67c0,.08,0,.18-.05.29l.57,0a2.35,2.35,0,0,0,0-.3s0,0,0,0,0,0,.07.09a.34.34,0,0,1,.05.12.3.3,0,0,1,0,.1,3.1,3.1,0,0,0-.13.44,5,5,0,0,1-.24.68l-.09.18a3.07,3.07,0,0,1,.41.24s.07.13.07.29,0,0,0,0a.09.09,0,0,1-.07,0c-.11-.11-.24-.24-.38-.37l-.07-.05a2.42,2.42,0,0,1-.37.46,4.53,4.53,0,0,1-.56.46l-.08,0a0,0,0,0,1,0,0l0,0A4.85,4.85,0,0,0,30.7,19a2.65,2.65,0,0,0,.4-.5,2.44,2.44,0,0,0-.37-.21.07.07,0,0,1-.05-.07.36.36,0,0,1,0-.13c.07-.24.14-.51.2-.8l-.22,0-.37.05-.05,0a.17.17,0,0,1-.09,0s-.06,0-.06-.06h0l.48,0,.32,0c0-.14.05-.28.08-.42.05-.36.09-.62.1-.79,0,0,0,0,0,0S31.14,16,31.18,16ZM31,17.26c0,.19-.09.41-.15.67a1.31,1.31,0,0,0,0,.25s0,0,.07.07l.32.13a3.31,3.31,0,0,0,.29-.76c0-.16.07-.3.09-.42Zm1.12-.43a.69.69,0,0,1,.06.2v0l.64-.13c.07,0,.11,0,.13-.06s0-.06.06-.06,0,0,.08.06,0,0,0,.06a.11.11,0,0,1,0,.06.15.15,0,0,0,0,.09l-.1,1.23h0l.07,0,0,0s0,0-.07,0l-.83.1v.15a1.15,1.15,0,0,1,0,.2s0,0,0,0,0,0-.06-.08a.3.3,0,0,1,0-.13s0,0,0-.07a1.21,1.21,0,0,0,0-.2c0-.34,0-.7,0-1.08,0-.2,0-.37,0-.49l0-.13s0,0,0,0S32,16.75,32.08,16.83Zm.74,1.51L32.91,17l-.77.13q0,.68,0,1.1c0,.07,0,.12,0,.17A4.67,4.67,0,0,0,32.83,18.34Z"/><path class="cls-2" d="M34.78,16.28a.59.59,0,0,1,.07.2v0l1.49-.16c.07,0,.11,0,.12-.06s0-.06.06-.06l.07.06a.17.17,0,0,1,0,.06.12.12,0,0,1,0,.06.11.11,0,0,0,0,.08l-.11.56h.09l.07,0,0,0s0,0-.13,0l-1.72.13s0,0,0,.05a4.71,4.71,0,0,1-.15.81,3.74,3.74,0,0,1-.28.69,4.3,4.3,0,0,1-.36.52l-.06.06a0,0,0,0,1,0,0l0-.06c.11-.18.21-.34.29-.47a2.52,2.52,0,0,0,.22-.52,4.86,4.86,0,0,0,.18-.77,8,8,0,0,0,.06-1.07c0-.05,0-.12,0-.2s0-.11,0-.13,0,0,0,0A.32.32,0,0,1,34.78,16.28Zm.81.88v-.63l-.75.08c0,.2,0,.4,0,.6Zm-.44.47,0,.1,1.17-.12a.07.07,0,0,0,.06,0l0-.05.08,0s.06,0,.06.06,0,0,0,.07a.23.23,0,0,0,0,.11c0,.28,0,.54,0,.77s0,.46,0,.6,0,.15-.06.15,0,0-.06-.07a.29.29,0,0,1,0-.09.23.23,0,0,1,0-.1,1.39,1.39,0,0,0,0-.3c0-.51,0-.87.06-1.07l-1.24.13v.35a4.87,4.87,0,0,0,.83-.08h.08l.05,0,0,0s0,0-.07,0l-.93.08v.35A5.54,5.54,0,0,0,36,18.5h.08l.05,0,0,0s0,0-.07,0l-.93.08v.39a7.62,7.62,0,0,0,.9-.07h.09l.07,0,0,0s0,0-.08,0l-1,.07v.18c0,.06,0,.1,0,.1s0,0-.07-.07a.31.31,0,0,1,0-.11.63.63,0,0,1,0-.13c0-.12,0-.34,0-.65s0-.4,0-.63a2.8,2.8,0,0,0,0-.29s0,0,0,0S35.12,17.55,35.15,17.62Zm1.2-.56.1-.63-.74.07v.63A4.63,4.63,0,0,0,36.35,17.07Z"/><path class="cls-2" d="M39,17.44s0,0,0,.07a0,0,0,0,1,0,0l-.48,0v.15h0l.35.27a.11.11,0,0,1,0,.08s0,.06,0,.1,0,.06,0,.06,0,0-.05,0a3.71,3.71,0,0,0-.32-.42v1.39c0,.09,0,.18,0,.26s0,.12,0,.12,0,0-.08-.1a.16.16,0,0,1,0-.09.13.13,0,0,1,0-.06.52.52,0,0,0,0-.11,2.29,2.29,0,0,0,0-.28v-1.1c0,.1-.09.21-.15.32a4.34,4.34,0,0,1-.49.75c-.1.11-.15.16-.18.16s0,0,0,0,0,0,0,0a4.67,4.67,0,0,0,.49-.74,5.13,5.13,0,0,0,.3-.68h-.08l-.44,0h0l-.07,0s0,0,0-.05a0,0,0,0,1,0,0l.4,0h.29v-1a1.85,1.85,0,0,0,0-.31.58.58,0,0,1,0-.11,0,0,0,0,1,0,0l.1.07c0,.05.08.08.08.1a.25.25,0,0,1,0,.08.4.4,0,0,0,0,.16v1h.15l.16,0h.07A.12.12,0,0,1,39,17.44Zm-1.06-.81a2.28,2.28,0,0,1,.22.3.33.33,0,0,1,0,.11.32.32,0,0,1,0,.09c0,.05,0,.07-.06.07s0,0,0,0a2.49,2.49,0,0,0-.19-.47.19.19,0,0,1,0-.07h0Zm1.1-.09a.28.28,0,0,1,0,.1.07.07,0,0,1,0,0l-.3.48,0,0s0,0,0,0v0a3.55,3.55,0,0,0,.16-.37,1.82,1.82,0,0,0,.08-.31s0,0,0,0S39,16.49,39.05,16.53Zm1.3,1s.07.05.07.07a.08.08,0,0,1,0,.07.33.33,0,0,0,0,.1c-.08.56-.16,1-.23,1.35,0,.18-.09.28-.11.28A3.67,3.67,0,0,1,39.6,19a.05.05,0,0,1,0,0,0,0,0,0,1,0,0l.06,0a1.31,1.31,0,0,0,.29.21s0,0,.06-.1a7.93,7.93,0,0,0,.21-1.41l-.49,0h-.07l0,.05a.25.25,0,0,1,0,.1,0,0,0,0,1,0,0,1.19,1.19,0,0,0-.07.18,4.65,4.65,0,0,1-.19.48,3,3,0,0,1-.26.46,3.07,3.07,0,0,1-.4.43l-.05,0h0a0,0,0,0,1,0,0,3.51,3.51,0,0,0,.24-.29,2.67,2.67,0,0,0,.27-.4,3.29,3.29,0,0,0,.23-.52,2.18,2.18,0,0,0,.11-.52h0l-.23,0h-.07l-.08,0,0,0,0,0,.93-.06a.21.21,0,0,0,.1-.06s.05-.06.07-.06Zm-.74-1.12a.29.29,0,0,1,.06.12.11.11,0,0,1,0,.07,1.15,1.15,0,0,0-.13.27,3.55,3.55,0,0,1-.27.56,3,3,0,0,1-.33.45l0,0s0,0,0,0l0,0a3.14,3.14,0,0,0,.29-.49,4.27,4.27,0,0,0,.26-.63,1.35,1.35,0,0,0,.07-.39s0,0,0,0S39.56,16.36,39.61,16.41Zm.44-.28s.05,0,.05,0a.51.51,0,0,0,0,.22l.29.71a.7.7,0,0,0,.18.27,1,1,0,0,0,.41.13,0,0,0,0,1,0,0,0,0,0,0,1,0,0h-.46s-.08,0-.08,0l-.4-1.14a.68.68,0,0,0-.07-.18.18.18,0,0,1,0-.07,0,0,0,0,1,0,0Z"/><path class="cls-2" d="M42.52,16a.19.19,0,0,1,0,.08.16.16,0,0,1,0,.06l-.24.47,0,0,.31,0a.11.11,0,0,0,.08,0l.05-.05.06,0,0,.06a.23.23,0,0,1,0,.05.19.19,0,0,0,0,.1v.73l.22-.05h0s0,0,0,0l-.22.07V19a1.2,1.2,0,0,1,0,.26s0,.06,0,.06l0,0a3.59,3.59,0,0,0-.34-.34l0,0a0,0,0,0,1,0,0l0,0a.92.92,0,0,0,.26.14s0,0,0,0,0-.08,0-.13,0-.1,0-.19V17.61l-.6.18h0V18a4.6,4.6,0,0,1-.12.79,2.59,2.59,0,0,1-.19.44c-.09.16-.15.24-.18.24a0,0,0,0,1,0,0l0-.05a2.25,2.25,0,0,0,.23-.47,4.55,4.55,0,0,0,.13-.66c0-.11,0-.25,0-.42l-.26.08-.07,0a.17.17,0,0,1-.08,0l0-.06s0,0,0,0L42,17.7c0-.26,0-.57,0-.93,0-.07,0-.15,0-.25a.54.54,0,0,0,0-.12s0,0,0,0,0,0,.07.11a.76.76,0,0,1,0,.21h.12l0-.07a1.64,1.64,0,0,0,.16-.63s0,0,0,0Zm-.42,1.66.59-.13v-.83l-.57.09h0c0,.32,0,.62,0,.88Zm.16-.64.23.21a.21.21,0,0,1,0,.1.67.67,0,0,1,0,.11s0,0,0,0,0,0,0,0l-.18-.32L42.2,17a0,0,0,0,1,0,0Zm0,.86a2,2,0,0,1,.22.28.25.25,0,0,1,.05.1.21.21,0,0,1,0,.09s0,.07-.05.07,0,0,0-.05a2.75,2.75,0,0,0-.19-.44.16.16,0,0,1,0-.06h0Zm2-.26a.19.19,0,0,1,0,.07s0,0,0,0l0,.05a6.15,6.15,0,0,1-.34.78l0,0,.21.24a1.31,1.31,0,0,0,.41.32,1.84,1.84,0,0,0,.38.07h0a0,0,0,0,1,0,0l-.52.06a.08.08,0,0,1-.07,0c-.15-.23-.31-.44-.46-.63a2.38,2.38,0,0,1-.24.32l-.26.23a2.39,2.39,0,0,1-.32.21l-.12.06a0,0,0,0,1,0,0l0,0a2.94,2.94,0,0,0,.5-.39,2.28,2.28,0,0,0,.35-.46h0c-.19-.24-.33-.41-.41-.49s0,0,0,0l0,0h0a.09.09,0,0,1,.06,0,4.79,4.79,0,0,0,.35.47l0-.05c0-.1.1-.22.16-.37a3.12,3.12,0,0,0,.12-.34l-.46,0-.28,0H43.3a.13.13,0,0,1-.08,0s0,0,0-.05h0l.82-.07a.25.25,0,0,0,.13,0s0,0,.07,0Zm-.85-1.41a.56.56,0,0,1,.05.18v0l.37-.08a.2.2,0,0,0,.12-.06l.06,0,.06,0,0,0a.15.15,0,0,1,0,.07.15.15,0,0,0,0,.09,3.12,3.12,0,0,0,0,.77s.06,0,.13,0a.92.92,0,0,0,.31-.05l.1,0,.06,0,0,.05s0,0-.06,0l-.49,0c-.1,0-.16,0-.18-.07a3.41,3.41,0,0,1-.06-.92l-.48.1c0,.08,0,.17,0,.26a2.37,2.37,0,0,1-.07.34,1.46,1.46,0,0,1-.12.29l-.15.22,0,0s0,0,0,0v0l.1-.2a1,1,0,0,0,.08-.21,2.29,2.29,0,0,0,.07-.31,3.38,3.38,0,0,0,0-.44s0-.1,0-.18,0-.1,0-.11a0,0,0,0,1,0,0A.35.35,0,0,1,43.42,16.22Z"/><path class="cls-2" d="M46.65,17.44s0,0,0,.07a0,0,0,0,1,0,0l-.48,0v.15h0l.36.27a.11.11,0,0,1,0,.08s0,.06,0,.1,0,.06,0,.06,0,0-.05,0a3.7,3.7,0,0,0-.32-.42v1.39c0,.09,0,.18,0,.26s0,.12,0,.12,0,0-.08-.1a.16.16,0,0,1,0-.09.13.13,0,0,1,0-.06.52.52,0,0,0,0-.11,2.4,2.4,0,0,0,0-.28v-1.1c0,.1-.09.21-.15.32a4.34,4.34,0,0,1-.49.75c-.1.11-.15.16-.18.16s0,0,0,0,0,0,0,0a4.64,4.64,0,0,0,.49-.74,5.13,5.13,0,0,0,.3-.68H46l-.44,0h0l-.07,0s0,0,0-.05a0,0,0,0,1,0,0l.4,0h.29v-1a1.85,1.85,0,0,0,0-.31.58.58,0,0,1,0-.11,0,0,0,0,1,0,0l.1.07c0,.05.08.08.08.1a.25.25,0,0,1,0,.08.4.4,0,0,0,0,.16v1h.15l.16,0h.07A.12.12,0,0,1,46.65,17.44Zm-1.06-.81a2.28,2.28,0,0,1,.22.3.33.33,0,0,1,0,.11.34.34,0,0,1,0,.09c0,.05,0,.07-.06.07s0,0,0,0a2.49,2.49,0,0,0-.19-.47.19.19,0,0,1,0-.07h0Zm1.1-.09a.28.28,0,0,1,0,.1.07.07,0,0,1,0,0l-.3.48,0,0s0,0,0,0v0a3.55,3.55,0,0,0,.16-.37,1.82,1.82,0,0,0,.08-.31s0,0,0,0S46.67,16.49,46.7,16.53Zm1.3,1s.07.05.07.07a.08.08,0,0,1,0,.07.33.33,0,0,0,0,.1c-.08.56-.16,1-.23,1.35,0,.18-.09.28-.11.28a3.67,3.67,0,0,1-.38-.43.05.05,0,0,1,0,0,0,0,0,0,1,0,0l.06,0a1.31,1.31,0,0,0,.29.21s0,0,.06-.1a7.93,7.93,0,0,0,.21-1.41l-.49,0H47.3l0,.05a.25.25,0,0,1,0,.1,0,0,0,0,1,0,0,1.19,1.19,0,0,0-.07.18,4.66,4.66,0,0,1-.19.48,3,3,0,0,1-.26.46,3.07,3.07,0,0,1-.4.43l-.05,0h0a0,0,0,0,1,0,0,3.51,3.51,0,0,0,.24-.29,2.67,2.67,0,0,0,.27-.4,3.29,3.29,0,0,0,.23-.52,2.18,2.18,0,0,0,.11-.52h0l-.23,0h-.07l-.08,0,0,0,0,0,.93-.06a.21.21,0,0,0,.1-.06s.05-.06.07-.06Zm-.74-1.12a.29.29,0,0,1,.06.12.11.11,0,0,1,0,.07,1.15,1.15,0,0,0-.13.27,3.55,3.55,0,0,1-.27.56,3,3,0,0,1-.33.45l0,0s0,0,0,0l0,0a3.14,3.14,0,0,0,.29-.49,4.27,4.27,0,0,0,.26-.63,1.35,1.35,0,0,0,.07-.39s0,0,0,0S47.21,16.36,47.25,16.41Zm.44-.28s.05,0,.05,0a.51.51,0,0,0,0,.22l.29.71a.7.7,0,0,0,.18.27,1,1,0,0,0,.41.13,0,0,0,0,1,0,0,0,0,0,0,1,0,0h-.46s-.08,0-.08,0l-.4-1.14a.68.68,0,0,0-.07-.18.18.18,0,0,1,0-.07,0,0,0,0,1,0,0Z"/><path class="cls-2" d="M49.68,16.5s0,0,0,.06a.16.16,0,0,1,0,.08.19.19,0,0,0,0,.06v.63l.57-.06v-.75a1.5,1.5,0,0,0,0-.33.35.35,0,0,1,0-.11,0,0,0,0,1,0,0s0,0,.11.07.08.09.08.11a.33.33,0,0,1,0,.09.49.49,0,0,0,0,.18V19c0,.1,0,.2,0,.3s0,.14,0,.14,0,0-.08-.11a.2.2,0,0,1,0-.1.12.12,0,0,1,0-.07.4.4,0,0,0,0-.12,2.41,2.41,0,0,0,0-.31v-.83l-.47.1a3.18,3.18,0,0,1-.09.5,1.68,1.68,0,0,1-.15.38,2.31,2.31,0,0,1-.27.37l0,0h0l0,0a2.53,2.53,0,0,0,.29-.5,2.75,2.75,0,0,0,.11-.4,2.11,2.11,0,0,0,0-.33h0l-.26.07,0,0a.2.2,0,0,1-.1,0s-.07-.05-.07-.07l0,0,.35,0,.68-.09v-.52l-.2,0-.36.07,0,0h0a.12.12,0,0,1-.07,0s-.05,0-.05-.05a0,0,0,0,1,0,0l0,0a.11.11,0,0,0,0-.07v-.5a1,1,0,0,0,0-.19.69.69,0,0,0,0-.11s0,0,0,0Zm1.71-.41a.29.29,0,0,1,.07.11.16.16,0,0,1,0,.08,1,1,0,0,0-.08.24l-.21,1h.19l.33,0c0-.06,0-.13,0-.19s0,0,0,0,0,0,.07.07a.33.33,0,0,1,.06.11.12.12,0,0,1,0,0,2.09,2.09,0,0,0,.37-.07l.05,0,.1,0,.07.06s0,0,0,0l-.6,0a2,2,0,0,0-.06.3,3.19,3.19,0,0,1-.24.72l-.05.1.42.21a1.65,1.65,0,0,1,.34.23s0,.11,0,.27,0,0,0,0a.07.07,0,0,1-.06,0,5.78,5.78,0,0,0-.54-.46l-.26-.17a1.61,1.61,0,0,1-.3.34,3.59,3.59,0,0,1-.36.26.88.88,0,0,1-.19.11,0,0,0,0,1,0,0s0,0,.07-.07a3.07,3.07,0,0,0,.69-.59l.05-.07a3.78,3.78,0,0,0-.43-.19.06.06,0,0,1,0-.06.34.34,0,0,1,0-.11c.05-.19.11-.44.18-.74l-.42,0h-.06a.19.19,0,0,1-.11,0s0,0,0,0,0,0,0,0l.61,0c.05-.24.11-.53.18-.85a4.22,4.22,0,0,0,0-.59s0,0,0,0Zm-.13,1.45h-.13c-.07.34-.13.57-.17.71a.48.48,0,0,0,0,.12,0,0,0,0,0,0,0l.39.15a1.75,1.75,0,0,0,.17-.4,2.92,2.92,0,0,0,.13-.67Z"/><path class="cls-2" d="M54,16.08a.19.19,0,0,1,0,.1l0,0a1,1,0,0,0-.06.18,2.79,2.79,0,0,1-.13.36,2.23,2.23,0,0,1-.13.26l.6-.11a.07.07,0,0,0,.06,0s0-.06,0-.06l.08,0s.06,0,.06.06,0,0,0,.07a.2.2,0,0,0,0,.11c0,.36,0,.68,0,1s0,.58,0,.76,0,.2-.06.2,0,0-.06-.07a.24.24,0,0,1,0-.1.32.32,0,0,1,0-.12,2.78,2.78,0,0,0,0-.38c0-.66,0-1.12,0-1.38l-.89.16c0,.26,0,.5,0,.7a2.45,2.45,0,0,0,.54-.08h.06l.05,0,0,0s0,0-.05,0l-.64.08c0,.2,0,.37,0,.52s0,.24,0,.32a2.56,2.56,0,0,0,.59-.09h.07l.06,0,0,0s0,0-.06,0l-.7.09v0a1.08,1.08,0,0,1,0,.2s0,0,0,0,0,0-.06-.08a.28.28,0,0,1,0-.13s0,0,0-.07a1.22,1.22,0,0,0,0-.21c0-.37,0-.77,0-1.2,0-.23,0-.41,0-.55l0-.15s0,0,0,0,0,0,.08.13a.71.71,0,0,1,.06.2l.18,0q.06-.16.11-.34a2.71,2.71,0,0,0,.08-.34,2.44,2.44,0,0,0,0-.29s0-.06,0-.06S53.92,16,54,16.08Zm1.17,0a.22.22,0,0,1,.05.1.31.31,0,0,1,0,.09,2.29,2.29,0,0,0-.1.34c0,.15-.09.29-.14.43l.82-.13c.08,0,.12,0,.14-.06s0-.06.07-.06l.07,0s0,.06,0,.08,0,0,0,.07a.27.27,0,0,0,0,.14c-.07.84-.13,1.42-.17,1.75a2,2,0,0,1-.13.46c0,.08-.05.12-.08.12s-.15-.17-.42-.5l-.08-.11s0,0,0,0l.06,0a1.86,1.86,0,0,0,.37.32s.07-.07.11-.19a8.39,8.39,0,0,0,.15-1c0-.39.06-.74.07-1.05l-.76.14-.09,0a.19.19,0,0,1-.1,0l0,0-.06.16a3.92,3.92,0,0,1-.25.53s0,.06,0,.06,0,0,0,0v0a5.39,5.39,0,0,0,.26-.64,4.5,4.5,0,0,0,.17-.6A2.73,2.73,0,0,0,55,16S55,16,55,16,55.09,16,55.13,16.06Zm-.19,1.58a2.34,2.34,0,0,1,.29.36.32.32,0,0,1,.07.13.21.21,0,0,1,0,.09s0,.07-.05.07,0,0-.06-.06a2.81,2.81,0,0,0-.27-.54.2.2,0,0,1,0-.07,0,0,0,0,1,0,0Z"/><path class="cls-2" d="M57.22,16.17a.72.72,0,0,1,0,.16l.88-.11c.07,0,.11,0,.13-.06s0-.06.05-.06l.07.06a.15.15,0,0,1,0,.06.1.1,0,0,1,0,.06.11.11,0,0,0,0,.08l-.1.83h0l.07,0,0,0s0,0-.08,0l-.54.06v.37l.27,0,.18,0h.08a.13.13,0,0,1,.08,0s0,.05,0,.07,0,0,0,0l-.64,0v.09l0,0,.43.35a.12.12,0,0,1,0,.1s0,.05,0,.1,0,.06,0,.06,0,0-.06,0a3.74,3.74,0,0,0-.4-.5v1.43a0,0,0,0,1,0,0s0,0-.08-.09a.18.18,0,0,1,0-.11.67.67,0,0,1,0-.13,1.08,1.08,0,0,0,0-.24V18c0,.08-.08.16-.14.25a3.53,3.53,0,0,1-.47.6c-.09.09-.15.13-.17.13s0,0,0,0l0,0a3.69,3.69,0,0,0,.46-.6,3.25,3.25,0,0,0,.28-.55h-.07l-.53,0H57a.11.11,0,0,1-.07,0s0,0,0-.06a0,0,0,0,1,0,0l.48,0,.29,0v-.37l-.43,0v.13c0,.08,0,.13,0,.13s0,0,0-.07a.25.25,0,0,1,0-.11.43.43,0,0,1,0-.09c0-.08,0-.24,0-.49s0-.5,0-.65,0-.13,0-.14,0,0,0,0S57.19,16.11,57.22,16.17Zm.49,1.1v-.45l-.27,0h0l-.05,0s0,0,0,0v0l.25,0h.12v-.37l-.44.05a1,1,0,0,1,0,.11v.77Zm.09-.54.13,0,.1,0h0l.07,0s0,0,0,.05h0l-.37,0v.45l.37-.05.08-.9-.46.06ZM59,18.5a.37.37,0,0,1,0,.11,0,0,0,0,1,0,0l-.15.19a3.33,3.33,0,0,1-.27.33,2.1,2.1,0,0,1-.26.23l0,0s0,0,0,0a0,0,0,0,1,0,0,3.16,3.16,0,0,0,.37-.46,1.79,1.79,0,0,0,.23-.49s0,0,0,0S59,18.44,59,18.5Zm.91-2.33s0,0,0,.07a0,0,0,0,1,0,0l-.84.07h-.07l0,0a.31.31,0,0,1,0,.12,0,0,0,0,1,0,0l-.19.33.65-.09a.07.07,0,0,0,.06,0s0-.06,0-.06l.08,0s.06,0,.06.06,0,0,0,.07a.18.18,0,0,0,0,.11c0,.3,0,.58,0,.82s0,.49,0,.64,0,.16,0,.16,0,0-.06-.07a.24.24,0,0,1,0-.1.26.26,0,0,1,0-.1,2.67,2.67,0,0,0,0-.32c0-.56,0-.94,0-1.15L58.7,17a.77.77,0,0,0,0,.1v.26a2.15,2.15,0,0,0,.57-.1h.06l.05,0,0,0s0,0-.05,0l-.66.1v.37a2.48,2.48,0,0,0,.58-.09h.06l.05,0,0,0s0,0-.05,0l-.68.09v.42a3.54,3.54,0,0,0,.66-.1h.07l.07,0,0,0s0,0-.07,0l-.77.1v.17c0,.08,0,.13,0,.13s0,0,0-.06a.25.25,0,0,1,0-.11.87.87,0,0,1,0-.13c0-.11,0-.34,0-.69s0-.67,0-.86,0-.17,0-.18,0,0,0,0,0,0,.05.09a.74.74,0,0,1,0,.2l.18,0,.08-.3a2,2,0,0,0,0-.23l-.41,0h-.06l-.07,0s0,0,0-.06h0l.49,0,.32,0,.36,0,.19,0,.09,0A.12.12,0,0,1,59.94,16.17Zm-.52,2.41a3.49,3.49,0,0,1,.41.38.25.25,0,0,1,.09.16.94.94,0,0,1,0,.13s0,.07,0,.07,0,0-.05-.06a3.55,3.55,0,0,0-.46-.66s0,0,0-.06a0,0,0,0,1,0,0Z"/><path class="cls-2" d="M62.14,17.35s0,.05,0,.07a0,0,0,0,1,0,0l-.54.05v.18h0l.36.24a.09.09,0,0,1,0,.07s0,.06,0,.1,0,.06,0,.06,0,0-.05,0a3.55,3.55,0,0,0-.34-.39v1.4c0,.09,0,.18,0,.27s0,.12,0,.12,0,0-.08-.1a.16.16,0,0,1,0-.09.13.13,0,0,1,0-.06.53.53,0,0,0,0-.11,2.3,2.3,0,0,0,0-.28V17.71c0,.1-.1.21-.17.33a4.12,4.12,0,0,1-.54.73c-.11.11-.17.16-.2.16a0,0,0,0,1,0,0l0,0a4.51,4.51,0,0,0,.54-.73,4.15,4.15,0,0,0,.32-.64h-.1l-.5.06h-.06l-.07,0s-.05,0-.05-.06a0,0,0,0,1,0,0l.45,0,.29,0h0v-1a1.9,1.9,0,0,0,0-.31.43.43,0,0,1,0-.11,0,0,0,0,1,0,0l.1.07c.05,0,.08.08.08.1a.27.27,0,0,1,0,.08.4.4,0,0,0,0,.16v1l.18,0,.18,0h.08A.12.12,0,0,1,62.14,17.35ZM61,16.6a2.23,2.23,0,0,1,.27.32.27.27,0,0,1,.06.12.22.22,0,0,1,0,.09c0,.05,0,.07-.05.07s0,0-.05-.05a2.69,2.69,0,0,0-.24-.49.17.17,0,0,1,0-.07,0,0,0,0,1,0,0Zm1.15-.15a.31.31,0,0,1,0,.11.07.07,0,0,1,0,0l-.3.51s0,0,0,0,0,0,0,0v0a3.84,3.84,0,0,0,.16-.39,1.93,1.93,0,0,0,.08-.32s0,0,0,0S62.13,16.4,62.15,16.44Zm1.6.71s0,0,0,.07a0,0,0,0,1,0,0l-.41,0,0,0c0,.05.08.09.08.1a.08.08,0,0,1,0,.05,1.27,1.27,0,0,0-.12.38A10.62,10.62,0,0,1,63,19l0,.09h0l.48,0,.26,0,.11,0A.15.15,0,0,1,64,19s0,.05,0,.07h0l-1.15.08a7.17,7.17,0,0,0-.74.07l-.08,0-.08,0s-.05,0-.05-.06,0,0,0,0l.68,0,.34,0,.06-.26a13.78,13.78,0,0,0,.26-1.55l-.33,0-.54.07h-.06l-.07,0s0,0,0-.06a0,0,0,0,1,0,0l.49,0,.31,0,.35,0,.19,0,.08,0A.13.13,0,0,1,63.75,17.15Zm-1.25.59c.05.15.14.38.24.7a.35.35,0,0,1,0,.07.28.28,0,0,1,0,.13c0,.05,0,.08-.07.08s0,0,0-.05a7.63,7.63,0,0,0-.12-.77,1,1,0,0,1,0-.12s0,0,0,0Zm.2-1.47a2.75,2.75,0,0,1,.26.4.4.4,0,0,1,.06.14.29.29,0,0,1,0,.1c0,.05,0,.08-.06.08s0,0,0-.07a4.09,4.09,0,0,0-.23-.6.21.21,0,0,1,0-.08,0,0,0,0,1,0,0Z"/><path class="cls-2" d="M66.42,18.1l-.28-.32-.2-.23a1.73,1.73,0,0,0-.22-.2l0,0a3.05,3.05,0,0,1,.68.53.86.86,0,0,1,0,.24S66.43,18.12,66.42,18.1Z"/><path class="cls-2" d="M69.14,17.33v.07l-.21.89c-.08.33-.15.6-.21.82,0,0,0,.06,0,.06s-.06,0-.09-.06l-.27-.32s0,0,0-.05a0,0,0,0,1,0,0l.14.09a.67.67,0,0,0,.19.11s0,0,0-.07.11-.33.21-.68.15-.53.24-.83h0Zm-.78-.1.35.23a.17.17,0,0,1,.06.1.4.4,0,0,1,0,.11s0,0,0,0,0,0-.05,0l-.29-.34a.41.41,0,0,1-.09-.1,0,0,0,0,1,0,0Zm.21-1,.35.22s.06.07.06.1a.38.38,0,0,1,0,.11s0,0,0,0,0,0-.05,0l-.29-.34a.36.36,0,0,1-.09-.1,0,0,0,0,1,0,0Zm1.72.38s0,0,0,.06a0,0,0,0,1,0,0l-.51,0v.39l.3,0a.06.06,0,0,0,.06,0l0,0,0,0,0,0a0,0,0,0,1,0,0,.46.46,0,0,0-.06.23c0,.15,0,.29,0,.45h.05l.06,0,0,0s0,0-.07,0l-.44,0v.39l.23,0,.16,0,.07,0a.13.13,0,0,1,.08,0l0,0a5.73,5.73,0,0,0,.1-.65c0-.25,0-.57,0-1,0,0,0-.11,0-.19s0-.1,0-.12h0s0,0,.06.09a.48.48,0,0,1,.06.18v.07l0,0,.32-.34a.7.7,0,0,0,.17-.28,0,0,0,0,1,0,0s0,0,.05.1a.49.49,0,0,1,0,.11,0,0,0,0,1,0,0l-.16.11-.43.35c0,.18,0,.38,0,.58a3.29,3.29,0,0,0,.81-.13h.08l.06,0,0,0s0,0-.07,0l-.41.05v2a0,0,0,0,1,0,0s0,0-.09-.1a.2.2,0,0,1,0-.13.73.73,0,0,1,0-.15,1.71,1.71,0,0,0,0-.27V17.42l-.4.05h0a6.42,6.42,0,0,1-.09.73,4,4,0,0,1-.17.62,5.16,5.16,0,0,1-.22.47l0,0s0,0,0,0l0,0,.16-.43a3.39,3.39,0,0,0,.13-.46l-.56.05V19c0,.09,0,.18,0,.27s0,.12,0,.12,0,0-.07-.1a.18.18,0,0,1,0-.09.14.14,0,0,1,0-.06.34.34,0,0,0,0-.11,2.13,2.13,0,0,0,0-.28v-.33h0l-.46.05h-.05a.11.11,0,0,1-.07,0s0,0,0-.06a0,0,0,0,1,0,0l.42,0,.24,0V18l-.31,0v0c0,.09,0,.13,0,.14s0,0,0-.07a.22.22,0,0,1,0-.11.17.17,0,0,1,0-.06,1.69,1.69,0,0,0,0-.31c0-.21,0-.37,0-.47v-.1s0,0,0,0,0,0,.05.1a.67.67,0,0,1,0,.11l.34,0v-.39h0l-.41,0h0l-.07,0s0,0,0,0a0,0,0,0,1,0,0l.37,0,.21,0v-.26a1.56,1.56,0,0,0,0-.31.36.36,0,0,1,0-.11,0,0,0,0,1,0,0l.1.07c.05,0,.08.08.08.1a.27.27,0,0,1,0,.08.51.51,0,0,0,0,.16v.28l.2,0,.14,0h.07Zm-.58.58-.33,0c0,.06,0,.13,0,.2v0l.31,0Zm0,.66v-.33l-.16,0h-.09l-.05,0h0v.35Zm.1,0,.27,0,.08-.67-.35,0v.25l.12,0H70l.05,0s0,0,0,0v0l-.27,0Z"/><path class="cls-2" d="M74.85,16.11l.05.05s0,0,0,0a.29.29,0,0,0-.07.16l0,.3h.07l.05,0,0,0s0,0-.15,0l-.35,0,0,0a.19.19,0,0,1,0,.08l0,0-.22.28,0,0,.49-.05s0,0,.07,0l0,0,.06,0,0,.05a0,0,0,0,1,0,0,.47.47,0,0,0-.07.21l0,.41h.08l.05,0,0,0s0,0-.13,0l-1.61.13h0c0,.1,0,.15,0,.15s0,0-.05-.07a.26.26,0,0,1,0-.13.17.17,0,0,1,0,0,1,1,0,0,0,0-.26,4.28,4.28,0,0,0,0-.45l0-.09s0,0,0,0,0,0,.06.11l0,.11.44,0v0a2.23,2.23,0,0,0-.21-.39l0,0-.51,0c0,.31,0,.58-.06.82a3.45,3.45,0,0,1-.18.87,1.89,1.89,0,0,1-.27.49c-.13.17-.22.26-.25.26a0,0,0,0,1,0,0l0-.06a2.25,2.25,0,0,0,.35-.52,3.56,3.56,0,0,0,.21-.73,10.81,10.81,0,0,0,.1-1.6c0-.07,0-.15,0-.25a.6.6,0,0,0,0-.13s0,0,0,0,0,0,.07.11a.7.7,0,0,1,0,.19l1.73-.18a.09.09,0,0,0,.08,0l0,0Zm-1.9.34c0,.13,0,.26,0,.37a12.49,12.49,0,0,0,1.72-.15l.07-.43-1.79.17S72.95,16.44,72.95,16.44Zm1,1.51v-.62l-.69.07c0,.07,0,.15,0,.23V18Zm-.48-.5a2.7,2.7,0,0,1,.19.25.24.24,0,0,1,0,.11.31.31,0,0,1,0,.1s0,0,0,0,0,0,0,0l-.15-.35a.47.47,0,0,1,0-.11,0,0,0,0,1,0,0Zm0,.86,0,.07,1-.11a.08.08,0,0,0,.06,0l0,0,.08,0s.07,0,.07.06,0,0-.05.07a.21.21,0,0,0,0,.13c0,.17,0,.32,0,.45s0,.27,0,.36,0,.09,0,.09,0,0-.06-.08a.24.24,0,0,1,0-.1.12.12,0,0,1,0-.05,1.72,1.72,0,0,0,0-.18c0-.29,0-.49,0-.62l-1.05.11a2.09,2.09,0,0,1,0,.26v0a4.38,4.38,0,0,0,.65-.07h.07l.05,0,0,0s0,0-.07,0l-.74.07v.33a6.81,6.81,0,0,0,.81-.08h.08l.05,0s0,0,0,0,0,0-.07,0l-.91.08v.06c0,.1,0,.15,0,.15s0,0-.05-.08a.27.27,0,0,1,0-.13.19.19,0,0,1,0-.06,1.45,1.45,0,0,0,0-.32c0-.23,0-.4,0-.51l0-.11s0,0,0,0S73.46,18.24,73.49,18.31Zm.71-1.06,0,0a.91.91,0,0,0,.14-.4l-.87.07h0l.2.19a.13.13,0,0,1,0,.08.76.76,0,0,1,0,.13v0Zm.52.61.08-.61-.77.08v.62A5,5,0,0,0,74.71,17.86Zm-.2-.47a.33.33,0,0,1,0,.1l0,0-.25.34,0,0s0,0,0,0v0a2.72,2.72,0,0,0,.12-.29,1.09,1.09,0,0,0,.07-.24s0,0,0,0S74.49,17.34,74.52,17.39Z"/><path class="cls-2" d="M78.78,16.5s0,0,0,0,0,0,0,0l-.9.1a7.42,7.42,0,0,0,.08.75l.07.32.06-.07a1.94,1.94,0,0,0,.23-.36,1.11,1.11,0,0,0,.11-.36s0,0,0,0,0,0,.05.07a.23.23,0,0,1,0,.09h0l-.07.12a2.46,2.46,0,0,1-.19.32,1.53,1.53,0,0,1-.23.27c0,.19.08.34.12.47a2.33,2.33,0,0,0,.33.66c.11.15.19.23.25.23a.05.05,0,0,0,.06-.06l.08-.63a0,0,0,0,1,0,0l0,0c0,.4,0,.65,0,.78s0,.15,0,.2a0,0,0,0,1,0,0,.25.25,0,0,1-.12-.05,1.58,1.58,0,0,1-.28-.26,2.51,2.51,0,0,1-.32-.5,3.81,3.81,0,0,1-.25-.79,2.82,2.82,0,0,1-.36.25l-.05,0s0,0,0,0l0,0,.26-.2.14-.13a.4.4,0,0,1,0-.08,7.21,7.21,0,0,1-.15-1.06l-1.14.12a.5.5,0,0,1,0,.13c0,.07,0,.13,0,.2l.27,0,.18,0,.2,0,.11,0h0l.07,0s0,0,0,.06a0,0,0,0,1,0,0l-.49,0-.31,0h0a.09.09,0,0,1-.06,0l0,0c0,.16,0,.32,0,.5a4.22,4.22,0,0,1-.12.68,3,3,0,0,1-.23.58,4,4,0,0,1-.3.44l0,0a0,0,0,0,1,0,0l0,0,.23-.39a2.64,2.64,0,0,0,.18-.44,3.69,3.69,0,0,0,.14-.64,6.28,6.28,0,0,0,.05-.9s0-.11,0-.2,0-.1,0-.13a0,0,0,0,1,0,0,.41.41,0,0,1,.07.1l1.16-.12c0-.09,0-.19,0-.28a1.11,1.11,0,0,0,0-.26l0-.1s0,0,0,0l.13.07c.05,0,.08.08.08.11a.17.17,0,0,1,0,.06.24.24,0,0,0,0,.09c0,.11,0,.22,0,.33H78a4.1,4.1,0,0,0,.58-.09l.13,0Zm-2,1.94a1.71,1.71,0,0,1-.07.56c0,.07-.05.11-.08.11s0,0-.05-.05a.24.24,0,0,1,0-.07.09.09,0,0,1,0-.06,1.16,1.16,0,0,0,.17-.57s0,0,0,0S76.79,18.38,76.79,18.45Zm.09-1a.35.35,0,0,1,0,.11l.38-.07a.14.14,0,0,0,.11-.05s0,0,.05,0l.06,0,0,.05a.11.11,0,0,1,0,0,.12.12,0,0,0,0,.07l-.05.3h0l.05,0,0,0s0,0,0,0l-.57.07s0,.08,0,.12,0,.06,0,.06,0,0-.07-.07a.13.13,0,0,1,0-.08.34.34,0,0,1,0-.07s0-.13,0-.26,0-.11,0-.15,0-.11,0-.15,0-.06,0-.06S76.86,17.39,76.88,17.41Zm.5.49,0-.37-.49.06a.68.68,0,0,0,0,.09c0,.1,0,.19,0,.28Zm-.37.44a2.09,2.09,0,0,0,.19.44.78.78,0,0,0,.22.25.46.46,0,0,0,.28.1s0,0,0,0a.39.39,0,0,0,0-.11,1.36,1.36,0,0,1-.06-.23.15.15,0,0,1,0-.05,0,0,0,0,1,0,0h0a3,3,0,0,0,.24.44.11.11,0,0,1,0,.05,0,0,0,0,1,0,0l-.15,0a.49.49,0,0,1-.24-.07.59.59,0,0,1-.2-.15.85.85,0,0,1-.17-.26,2.36,2.36,0,0,1-.11-.3.73.73,0,0,1,0-.16,0,0,0,0,1,0,0Zm.26-.07.19.21a.17.17,0,0,1,0,.09.34.34,0,0,1,0,.1s0,0,0,0,0,0,0,0l-.15-.31a.32.32,0,0,1,0-.09h0Zm.47,0,.21.22a.22.22,0,0,1,0,.1.31.31,0,0,1,0,.1s0,0,0,0,0,0,0,0l-.17-.32a.41.41,0,0,1-.05-.1,0,0,0,0,1,0,0Zm.41-2.23.25.2a.13.13,0,0,1,0,.08.36.36,0,0,1,0,.11s0,0,0,0l0,0-.2-.3-.06-.09a0,0,0,0,1,0,0Z"/><path class="cls-2" d="M81.7,18a.45.45,0,0,1-.33.13.46.46,0,0,1,0-.93.47.47,0,0,1,.47.47A.44.44,0,0,1,81.7,18Zm-.06-.6a.38.38,0,0,0-.27-.11.36.36,0,0,0-.27.11.37.37,0,0,0-.11.27.37.37,0,0,0,.37.37.37.37,0,0,0,.27-.11.36.36,0,0,0,.11-.27A.38.38,0,0,0,81.64,17.45Z"/><rect class="cls-3" width="9.45" height="35"/><path class="cls-4" d="M6.29,8.56H5.62A3.2,3.2,0,0,1,5,9.92a12.65,12.65,0,0,1,1.07.72L6,10.81a8.87,8.87,0,0,0-1.08-.73,3.44,3.44,0,0,1-1.64.72l-.09-.19A3.32,3.32,0,0,0,4.71,10a10.19,10.19,0,0,0-1.1-.57Q3.85,9,4,8.56H3.18v-.2h.95q.16-.36.32-.82l.2.06-.3.76h1.1a2.5,2.5,0,0,0,.06-.3l.2,0c0,.08,0,.16,0,.27h.64Zm-.88,0H4.27q-.16.36-.37.76.48.23,1,.5A2.84,2.84,0,0,0,5.41,8.56Z"/><path class="cls-4" d="M4.41,13.26l-.14.12a3.32,3.32,0,0,0-.37-.53v1.62H3.71V13a4.27,4.27,0,0,1-.43.43l-.13-.14a3.44,3.44,0,0,0,.93-1.22H3.23v-.19H4.29v.19a3.28,3.28,0,0,1-.31.57A3.78,3.78,0,0,1,4.41,13.26ZM4,11.76l-.16.08a4.07,4.07,0,0,0-.32-.53l.16-.08A3.17,3.17,0,0,1,4,11.76Zm2.19,1.92H5.44v.82H5.25v-.82H4.52V11.82h.73v-.56h.19v.56h.74Zm-.93-1V12H4.71v.65Zm0,.82v-.64H4.71v.64ZM6,12.66V12H5.44v.65Zm0,.82v-.64H5.44v.64Z"/><path class="cls-4" d="M4.34,17.44a5.07,5.07,0,0,1-1,.62l-.12-.15a4.19,4.19,0,0,0,1-.59Zm2-.33H4.82v1.06H4.64V17.11H3.19v-.18H4.64v-.16h.19v.16H6.3Zm-.14-1.23a1.92,1.92,0,0,1-.63.61l-.12-.14A1.72,1.72,0,0,0,6,15.86H5v.56a.25.25,0,0,1-.07.19.3.3,0,0,1-.19.07H4.35l-.05-.18h.37c.09,0,.14,0,.14-.09v-.53a3.73,3.73,0,0,1-1.5.88l-.11-.17a3.3,3.3,0,0,0,1.38-.74H3.28v-.18H4.65a4.88,4.88,0,0,0-.58-.26l.12-.12a4,4,0,0,1,.57.24,6.54,6.54,0,0,0,.74-.32H3.54V15H5.86v.17a6.3,6.3,0,0,1-.91.42l0,0,0,0H6.16Zm.16,2L6.19,18a4.42,4.42,0,0,0-1-.61l.12-.14A4.42,4.42,0,0,1,6.32,17.9Z"/><path class="cls-4" d="M4.62,20.65a2,2,0,0,1-.28.67l-.14-.1a2.57,2.57,0,0,0,.2-.41H4.1v.79q0,.24-.26.24H3.58l-.07-.19h.23a.33.33,0,0,0,.15,0,.08.08,0,0,0,0-.07v-.77a2.37,2.37,0,0,1-.66.74l-.09-.15a1.65,1.65,0,0,0,.56-.59H3.21v-.17h.63a1.76,1.76,0,0,0-.37-.21l.15-.12.25.15a3.14,3.14,0,0,0,.39-.23H3.35v-.17H4.56v.17L4,20.58l.08.07Zm1.6-.81H6v-.56H4.84V20H4.66v-.68H3.45v.56H3.26v-.73H4.66v-.24H3.38v-.16H6.12v.16H4.84v.24H6.22Zm-1.74,0a5,5,0,0,1-.84.13l-.06-.15a5.22,5.22,0,0,0,.84-.12Zm0-.34-.06.13a5.44,5.44,0,0,0-.8-.14l.06-.14A4.49,4.49,0,0,1,4.49,19.51Zm1.58,1.54a3.73,3.73,0,0,1,0,.43.74.74,0,0,1-.06.27.21.21,0,0,1-.12.08,1.52,1.52,0,0,1-.36,0l-.07-.19a1.12,1.12,0,0,0,.38,0s.06-.17.07-.43H5.35a1.17,1.17,0,0,1-.8.64l-.11-.16a1.09,1.09,0,0,0,.71-.48H4.67v-.17h.56a.93.93,0,0,0,.06-.19l.17,0a.68.68,0,0,1,0,.16Zm.23-.3-.09.17a2.62,2.62,0,0,1-.74-.19,2.54,2.54,0,0,1-.73.2l-.07-.16a2.21,2.21,0,0,0,.6-.14A1.07,1.07,0,0,1,5,20.46l.13-.11a1.44,1.44,0,0,0,.33.19.73.73,0,0,0,.28-.26H5a2.44,2.44,0,0,1-.33.23l-.11-.13A2,2,0,0,0,5.12,20l.16.06-.09.11h1v.16H5.94a.9.9,0,0,1-.29.33A2.27,2.27,0,0,0,6.29,20.75Zm-.41-1.24a5.3,5.3,0,0,1-.81.13L5,19.5a4.65,4.65,0,0,0,.82-.13Zm0,.33,0,.14a7.7,7.7,0,0,0-.84-.1l0-.15A5.54,5.54,0,0,1,5.89,19.84Z"/><path class="cls-4" d="M6.15,23.2H3.7v.63a4.06,4.06,0,0,1-.36,1.72l-.16-.13a3.56,3.56,0,0,0,.34-1.6V22.4H6.15ZM4.75,23v-.44h-1V23Zm1.34,2.53H5.9v-.26H4.23v.26H4v-2h2ZM5.9,24v-.32H4.23V24Zm0,.52v-.34H4.23v.34Zm0,.53v-.35H4.23v.35ZM6,23v-.44h-1V23Z"/><line class="cls-5" x1="22.79" y1="14.48" x2="18.64" y2="21.53"/><line class="cls-5" x1="87.4" y1="14.48" x2="83.26" y2="21.53"/><path class="cls-6" d="M89,10.6a1.68,1.68,0,0,1-.77.61l0,0a2,2,0,0,0,.52-.59,1.42,1.42,0,0,0,.24-.59c0-.15-.11-.24-.33-.24s-.44-.13-.44-.4.17-.42.52-.42a.62.62,0,0,1,.49.23,1,1,0,0,1,.18.58A1.46,1.46,0,0,1,89,10.6Z"/><path class="cls-6" d="M90.41,10.6a1.68,1.68,0,0,1-.77.61l0,0a2,2,0,0,0,.52-.59,1.42,1.42,0,0,0,.24-.59c0-.15-.11-.24-.33-.24s-.44-.13-.44-.4.17-.42.52-.42a.62.62,0,0,1,.49.23,1,1,0,0,1,.18.58A1.46,1.46,0,0,1,90.41,10.6Z"/><path class="cls-7" d="M89,17.86a1,1,0,0,0-.45.56c-.13.41-.23.8,0,.82a24,24,0,0,0,2.72-1.09A20.78,20.78,0,0,1,95,16.93a8.45,8.45,0,0,1,2.68.19,4.55,4.55,0,0,1,1,.42,2.53,2.53,0,0,0-.62-.47,7.4,7.4,0,0,0-3-.9,13.63,13.63,0,0,0-3.62.76C90.09,17.41,89,17.86,89,17.86Z"/><polygon class="cls-7" points="96.75 22.78 98.44 21.69 98.67 21.86 99.35 22.9 97.48 24.11 96.81 23.07 96.75 22.78"/><polygon class="cls-7" points="96.71 22.69 98.38 21.62 97.53 20.31 96.97 20.29 96.36 19.35 95.47 19.93 96.08 20.87 95.86 21.38 96.71 22.69"/><path class="cls-7" d="M94.85,18.88c.21.31.28.25.36.36a4.14,4.14,0,0,1,.14.41.71.71,0,0,0,.09.11l.41-.27.41-.27a.71.71,0,0,0-.07-.13c0-.07-.24-.18-.31-.3s0-.15-.19-.47-.23-.24-.57-.46-.66-.57-.69-.56.16.47.23.86S94.64,18.58,94.85,18.88Z"/></svg>