<svg id="圖層_1" data-name="圖層 1" xmlns="http://www.w3.org/2000/svg" viewBox="0 0 100 35"><defs><style>.cls-1{fill:#f5f5f5;stroke:#fff;}.cls-1,.cls-3,.cls-7,.cls-8{stroke-miterlimit:10;}.cls-2{fill:#3d3d3d;}.cls-3,.cls-7,.cls-8{fill:none;stroke:#647384;}.cls-3{stroke-width:0.3px;}.cls-4{fill:#ad8066;}.cls-5{opacity:0.4;}.cls-6{fill:#647384;}.cls-7{stroke-width:0.2px;}.cls-8{stroke-width:0.5px;}</style></defs><title>lesson_cont_6</title><rect class="cls-1" x="-258.5" y="-71.5" width="375" height="177"/><path class="cls-2" d="M28.22,13.74s.07.08.07.09,0,0,0,0l-.41.14-.42.15,0,0s.08.08.08.1a.35.35,0,0,1,0,.1.79.79,0,0,0,0,.23v.24l.37,0a4.93,4.93,0,0,0,.61-.1h.08l.08,0,.06.05s0,0,0,0l-1.16.13v.7l.63-.07a6.76,6.76,0,0,0,.82-.13l.11,0,.08,0,.07.05s0,0,0,0l-1.66.18v.24a2.59,2.59,0,0,0,0,.53.38.38,0,0,0,.11.21.59.59,0,0,0,.33.11l.51,0,.3-.05a.12.12,0,0,0,.08-.08c0-.09,0-.29,0-.62,0,0,0,0,0,0s0,0,0,0a3.31,3.31,0,0,0,.13.67.35.35,0,0,1,0,.1s0,0-.07.06a3.08,3.08,0,0,1-.44.06c-.2,0-.4,0-.6,0a.9.9,0,0,1-.31-.06.38.38,0,0,1-.18-.13.64.64,0,0,1-.1-.25,2.23,2.23,0,0,1,0-.42v-.35l-1,.13-.13,0-.08,0c-.06,0-.09,0-.09-.07s0,0,.06,0l1.27-.12v-.7l-.8.11-.09,0-.07,0c-.05,0-.08,0-.08-.05l0,0,1-.11v-.33c0-.09,0-.17,0-.26a.91.91,0,0,1,0-.1l-.42.12a2,2,0,0,1-.45.09s0,0,0,0,0,0,0,0A7,7,0,0,0,27.53,14a1.52,1.52,0,0,0,.52-.29s.05,0,.07,0Z"/><path class="cls-2" d="M31,14.86v.06l-.29.9c-.11.33-.21.6-.29.82,0,0,0,.06-.05.06s-.06,0-.1-.07l-.29-.35,0-.06a0,0,0,0,1,0,0l.16.11a.64.64,0,0,0,.2.13s.05,0,.07-.07.15-.32.28-.68.21-.54.34-.83c0,0,0,0,0,0Zm-1-.2a3.65,3.65,0,0,1,.37.26s.07.08.07.11a.46.46,0,0,1,0,.13,0,0,0,0,1,0,0s0,0-.05,0L30,14.77a.51.51,0,0,1-.09-.11,0,0,0,0,1,0,0Zm.31-.81.35.24a.17.17,0,0,1,.06.11.45.45,0,0,1,0,.12s0,0,0,0,0,0,0-.05L30.35,14a.48.48,0,0,1-.08-.11,0,0,0,0,1,0,0Zm1,1.64c0,.05.06.08.06.1a.14.14,0,0,1,0,.08,1.23,1.23,0,0,0,0,.23,2.37,2.37,0,0,1-.18.52,1.37,1.37,0,0,1-.3.38l-.27.19-.14.08a0,0,0,0,1,0,0s0,0,.05-.05a2.11,2.11,0,0,0,.49-.43,1.24,1.24,0,0,0,.2-.41,2.43,2.43,0,0,0,.1-.68s0,0,0,0S31.3,15.45,31.34,15.5Zm1.56-1.31.06.06a0,0,0,0,1,0,0l-1.17.08h0l0,0s0,.06,0,.08,0,0,0,0a.45.45,0,0,0-.11.11l-.39.52L32.48,15l-.26-.32s0,0,0,0v0l.08,0a3.34,3.34,0,0,1,.39.35.26.26,0,0,1,.09.15.52.52,0,0,1,0,.1s0,.06,0,.06,0,0,0-.06A2.11,2.11,0,0,0,32.5,15c-.53.07-.94.13-1.25.19l-.13,0s0,0,0,0a.08.08,0,0,1,0,0,0,0,0,0,1,0,0,.58.58,0,0,0,.2-.1.82.82,0,0,0,.17-.18,2,2,0,0,0,.26-.52h0l-.61.06H31l-.1,0s0,0,0,0,0,0,0,0l.93,0a5.36,5.36,0,0,0,.89-.11h.06Zm-1.25-.6a2.12,2.12,0,0,1,.24.28.23.23,0,0,1,.05.1.28.28,0,0,1,0,.1c0,.05,0,.08-.05.08s0,0,0-.05a2.65,2.65,0,0,0-.21-.45.16.16,0,0,1,0-.06,0,0,0,0,1,0,0Zm.13,1.85s.08.08.08.09a.23.23,0,0,1,0,.09.51.51,0,0,0,0,.15v1.16s0,0,0,0,0,0-.06-.06a.26.26,0,0,1,0-.1.14.14,0,0,1,0,0,.44.44,0,0,0,0-.13v-1a.8.8,0,0,0,0-.2.2.2,0,0,1,0-.06v0Zm.52-.09s.07.06.07.08a.21.21,0,0,1,0,.08.52.52,0,0,0,0,.2v.69a1.46,1.46,0,0,0,0,.28.18.18,0,0,0,.06.11.31.31,0,0,0,.18.06l.21,0,.12,0a.09.09,0,0,0,0-.07c0-.07,0-.23,0-.49,0,0,0,0,0,0s0,0,0,0a1.91,1.91,0,0,0,.13.52.21.21,0,0,1,0,.08,0,0,0,0,1,0,0l-.22,0-.3,0-.19,0a.31.31,0,0,1-.1-.07.37.37,0,0,1-.07-.14,1.3,1.3,0,0,1,0-.23v-.84c0-.08,0-.15,0-.22s0-.1,0-.11a0,0,0,0,1,0,0Z"/><path class="cls-2" d="M35.28,13.67a.24.24,0,0,1,0,.09.16.16,0,0,1,0,.08l-.25.57,0,.06,1-.14a.14.14,0,0,0,.11-.06s0,0,.06,0l.07,0h0s.06,0,.06.06a.14.14,0,0,1,0,.07.22.22,0,0,0,0,.14l-.09,2.33c0,.09,0,.13,0,.13s0,0-.07-.11a.47.47,0,0,1,0-.13.17.17,0,0,1,0-.08l0-.06-.09,0-1.33.13v.06a1.51,1.51,0,0,1,0,.23s0,.05,0,.05,0,0-.06-.08a.36.36,0,0,1,0-.14.13.13,0,0,1,0-.07,1.49,1.49,0,0,0,0-.23q0-.71,0-1.5c0-.28,0-.51,0-.69l0-.18s0-.05,0-.06,0,0,.09.15a.8.8,0,0,1,.06.21v0l.4-.05,0-.08a2.37,2.37,0,0,0,.17-.75s0-.06,0-.06Zm.52,2.85.11,0,.07,0,0,0s0-.1,0-.16l.07-2-1.55.2c0,.21,0,.42,0,.6a4.32,4.32,0,0,0,1-.15l.1,0,.06,0,0,0s0,0-.09,0l-1.11.14q0,.32,0,.58a5.56,5.56,0,0,0,1-.15l.1,0,.07,0,0,0s0,0-.09,0L34.6,16c0,.09,0,.17,0,.24s0,.32,0,.43A6.41,6.41,0,0,0,35.81,16.52Z"/><path class="cls-2" d="M38.54,13.72a.26.26,0,0,1,.06.11.11.11,0,0,1,0,.07,1.09,1.09,0,0,0-.16.28l-.13.26.51-.1a.1.1,0,0,0,.08,0s0-.06.05-.06,0,0,.07,0,0,0,0,.06a.1.1,0,0,1,0,.06,1.44,1.44,0,0,0-.11.28,4.06,4.06,0,0,1-.21.53,1.74,1.74,0,0,1-.23.37,2.28,2.28,0,0,1-.37.39,2.16,2.16,0,0,1-.34.24l0,0s0,0,0,0l0,0a3.62,3.62,0,0,0,.31-.26,2.54,2.54,0,0,0,.33-.37,2.7,2.7,0,0,0,.27-.47,4.08,4.08,0,0,0,.23-.66l-.43.09,0,0-.07,0,0,0a2.84,2.84,0,0,1-.19.3,3.6,3.6,0,0,1-.41.47l0,0s0,0,0,0l0,0a3.64,3.64,0,0,0,.38-.5,4.26,4.26,0,0,0,.34-.66,1.11,1.11,0,0,0,.08-.4s0,0,0,0S38.5,13.66,38.54,13.72Zm-.44,2.49a1.37,1.37,0,0,1-.06.41,2.34,2.34,0,0,1-.19.32c-.08.1-.14.15-.17.15v0a1.18,1.18,0,0,1,0-.13s0-.06.07-.1a1.34,1.34,0,0,0,.16-.18,1.07,1.07,0,0,0,.19-.44l0,0Zm-.17-1.15a2.72,2.72,0,0,1,.26.25.2.2,0,0,1,0,.11.3.3,0,0,1,0,.1s0,0,0,0,0,0,0,0l-.21-.35a.33.33,0,0,1-.07-.11,0,0,0,0,1,0,0Zm.24-.31.25.18a.13.13,0,0,1,0,.08.32.32,0,0,1,0,.1s0,0,0,0,0,0,0,0l-.2-.27a.29.29,0,0,1-.06-.08s0,0,0,0Zm2.2-.07s0,0,0,.07a0,0,0,0,1,0,0l-.83.07h0l.23.36a4,4,0,0,0,.44.56.91.91,0,0,0,.4.17v0s0,0,0,0l-.29,0-.15,0s0,0-.05,0l-.36-.64-.26-.46h0a2.25,2.25,0,0,1-.16.48,1.51,1.51,0,0,1-.26.39,1.6,1.6,0,0,1-.32.28.83.83,0,0,1-.23.13h0l0,0a3,3,0,0,0,.35-.28,1.69,1.69,0,0,0,.25-.31,2.06,2.06,0,0,0,.21-.47c0-.06,0-.13.05-.21l-.38,0H39a.11.11,0,0,1-.07,0s0,0,0-.06a0,0,0,0,1,0,0l.49,0h.07c0-.09,0-.19,0-.3a4.33,4.33,0,0,0,0-.48s0-.11,0-.23a.58.58,0,0,1,0-.1,0,0,0,0,1,0,0s0,0,.1.09.07.09.07.1a.17.17,0,0,1,0,.06,1.34,1.34,0,0,0-.06.33c0,.21,0,.39-.06.53h.14l.35,0,.19,0,.08,0A.11.11,0,0,1,40.37,14.67Zm-1.74,1.62a2.73,2.73,0,0,1,.19.37.4.4,0,0,1,0,.13.33.33,0,0,1,0,.12c0,.06,0,.09-.07.09s0,0,0-.07a4.86,4.86,0,0,0-.15-.59.31.31,0,0,1,0-.08,0,0,0,0,1,0,0Zm.74,0a3.23,3.23,0,0,1,.24.4.42.42,0,0,1,.05.14.28.28,0,0,1,0,.1c0,.05,0,.08-.06.08s0,0,0-.06a3.84,3.84,0,0,0-.21-.6.26.26,0,0,1,0-.08,0,0,0,0,1,0,0ZM39.84,14l.27.21a.18.18,0,0,1,0,.1.51.51,0,0,1,0,.13,0,0,0,0,1,0,0s0,0,0,0l-.21-.33a.39.39,0,0,1-.07-.1,0,0,0,0,1,0,0Zm.22,2.21a4.53,4.53,0,0,1,.4.44.31.31,0,0,1,.09.18,1,1,0,0,1,0,.14s0,.07,0,.07,0,0-.05-.07a3.6,3.6,0,0,0-.45-.73s0,0,0-.07a0,0,0,0,1,0,0Z"/><path class="cls-2" d="M43,15.5a.5.5,0,0,1-.23.18h0a.59.59,0,0,0,.15-.18.42.42,0,0,0,.07-.18s0-.07-.1-.07-.13,0-.13-.12.05-.13.15-.13a.18.18,0,0,1,.15.07.28.28,0,0,1,.05.17A.43.43,0,0,1,43,15.5Z"/><path class="cls-2" d="M46,14.73a.39.39,0,0,1,0,.07l-.21.95c-.08.35-.15.64-.21.86,0,0,0,.06,0,.06s-.06,0-.1-.08l-.28-.38s0-.06,0-.07h0l.15.12a.72.72,0,0,0,.19.15s0,0,.05-.07.1-.34.21-.71.15-.56.24-.88c0,0,0,0,0,0Zm-.74-.13c.17.1.29.17.36.23s.07.07.07.1a.46.46,0,0,1,0,.13,0,0,0,0,1,0,0s0,0,0,0l-.29-.34c-.06-.06-.09-.1-.09-.11a0,0,0,0,1,0,0Zm.28-.85.33.24a.16.16,0,0,1,.06.1.46.46,0,0,1,0,.13s0,0,0,0,0,0,0,0l-.26-.36a.45.45,0,0,1-.08-.11,0,0,0,0,1,0,0Zm1,0a.6.6,0,0,1,0,.15l.84-.09c.07,0,.11,0,.12-.06s0-.06.06-.06,0,0,.07.06a.12.12,0,0,1,0,.06.1.1,0,0,1,0,.06.11.11,0,0,0,0,.08l-.07.82.36,0a.2.2,0,0,0,.14-.09s0,0,.06,0l.08.07a.17.17,0,0,1,.06.08s0,.05-.05.06a2,2,0,0,0-.34.39l0,0s0,0,0,0a.27.27,0,0,1,.05-.1l.15-.27L46.33,15a1.62,1.62,0,0,1-.07.32c0,.08,0,.12-.07.13s0,0-.05-.06a.32.32,0,0,1,0-.07.12.12,0,0,1,0-.07,1.43,1.43,0,0,0,.17-.64s0,0,0,0,0,0,0,.12,0,.15,0,.2l.26,0,0-.59c0-.11,0-.26,0-.46a1,1,0,0,0,0-.16,0,0,0,0,1,0,0S46.54,13.66,46.57,13.74Zm.06,1.39a1.13,1.13,0,0,1,0,.15l.8-.09s0,0,.07-.06,0,0,0,0l.07,0s.05,0,.05.07,0,0-.06.08a.16.16,0,0,0,0,.08v1.46a.54.54,0,0,1,0,.17,0,0,0,0,1,0,0l-.05,0a4.55,4.55,0,0,0-.44-.43,0,0,0,0,1,0,0h0l.07,0a1.24,1.24,0,0,0,.36.22l0,0s0-.05,0-.08,0-.06,0-.12V15.27l-.85.09v.33a3,3,0,0,0,.55-.07h.06l.05,0,0,0s0,0-.05,0l-.65.07v.31a3.4,3.4,0,0,0,.58-.07h.06l.05,0,0,0s0,0-.05,0l-.68.07c0,.36,0,.58,0,.68a.44.44,0,0,1,0,.13s0,.05,0,.05,0,0-.06-.09a.32.32,0,0,1,0-.13.13.13,0,0,1,0-.07.49.49,0,0,0,0-.15c0-.22,0-.62,0-1.2a2.09,2.09,0,0,0,0-.24c0-.07,0-.1,0-.12s0,0,0,0S46.6,15.05,46.64,15.13Zm.42-.32,0-.36c0-.07,0-.17,0-.3a.67.67,0,0,0,0-.1,0,0,0,0,1,0,0s0,0,.07.12a.72.72,0,0,1,0,.13l.42,0,0-.35-.95.09.05.86Zm.46,0,0-.47-.42,0,0,.46Z"/><path class="cls-2" d="M49.38,13.82c.05,0,.08.08.08.1a.38.38,0,0,1,0,.08,1,1,0,0,0,0,.15c0,.75,0,1.23,0,1.46a3.27,3.27,0,0,1-.09.49,2.4,2.4,0,0,1-.19.47,3.13,3.13,0,0,1-.22.35l0,0h0a.15.15,0,0,1,0-.06,3.33,3.33,0,0,0,.3-.66,2.74,2.74,0,0,0,.11-.54c0-.23,0-.72,0-1.47a2.6,2.6,0,0,0,0-.28.69.69,0,0,1,0-.12s0,0,0,0Zm.42.32s.08.08.08.09a.23.23,0,0,1,0,.09.51.51,0,0,0,0,.15v1.72s0,0,0,0,0,0-.06-.07a.21.21,0,0,1,0-.1.15.15,0,0,1,0-.05.39.39,0,0,0,0-.13V14.36a1.07,1.07,0,0,0,0-.2l0-.06v0Zm.4-.47s.08.08.08.1a.28.28,0,0,1,0,.08.38.38,0,0,0,0,.16v2.55c0,.09,0,.18,0,.27s0,.12,0,.12,0,0-.08-.1a.18.18,0,0,1,0-.09.16.16,0,0,1,0-.06.4.4,0,0,0,0-.11,2.14,2.14,0,0,0,0-.28V14a2,2,0,0,0,0-.31.41.41,0,0,1,0-.11,0,0,0,0,1,0,0Zm.86,2.51a.4.4,0,0,1,0,.1,0,0,0,0,1,0,0,1.75,1.75,0,0,0-.17.19,3.52,3.52,0,0,1-.3.33l-.3.23,0,0a0,0,0,0,1,0,0s0,0,0,0a3.31,3.31,0,0,0,.44-.44,1.53,1.53,0,0,0,.26-.46s0,0,0,0S51,16.13,51.07,16.18Zm1-2.39s0,0,0,.07a0,0,0,0,1,0,0l-.91,0h0l0,.06a.29.29,0,0,1,0,.12.09.09,0,0,1,0,0c0,.08-.11.22-.19.4l.65-.06a.09.09,0,0,0,.07,0s0-.05,0-.05l.08,0s.06,0,.06.06,0,0,0,.06a.2.2,0,0,0,0,.12c0,.3,0,.57,0,.82s0,.49,0,.64,0,.17,0,.17,0,0-.06-.07a.21.21,0,0,1,0-.09.33.33,0,0,1,0-.1s0,0,0,0h-.06l-.9.09v.06c0,.09,0,.13,0,.14s0,0,0-.07a.22.22,0,0,1,0-.11.71.71,0,0,1,0-.12c0-.1,0-.3,0-.62s0-.61,0-.79,0-.15,0-.17,0,0,0,0,0,0,.05.09a.69.69,0,0,1,0,.11l.27,0c0-.13.06-.24.08-.34s0-.21,0-.28l-.5,0h-.07l-.07,0s0,0,0-.05a0,0,0,0,1,0,0l.54,0,.34,0,.39,0,.21,0H52A.13.13,0,0,1,52.06,13.79Zm-.56,2.11h.08l.07,0,0,0c0-.08,0-.16,0-.26,0-.55,0-.93,0-1.15l-1,.11V15a3.18,3.18,0,0,0,.68-.11h.07l.05,0,0,0s0,0-.06,0l-.78.1v.39a3.4,3.4,0,0,0,.7-.11h.07l.05,0,0,0s0,0-.07,0l-.79.1V16A4.39,4.39,0,0,0,51.51,15.9Zm0,.33a4.23,4.23,0,0,1,.44.39.25.25,0,0,1,.1.16,1,1,0,0,1,0,.13S52,17,52,17s0,0-.05-.06a3.36,3.36,0,0,0-.5-.66s0,0,0-.06a0,0,0,0,1,0,0Z"/><path class="cls-2" d="M53.7,13.71a.19.19,0,0,1,0,.1l0,0a1,1,0,0,0-.06.18,2.79,2.79,0,0,1-.13.36,2.23,2.23,0,0,1-.13.26l.6-.11a.07.07,0,0,0,.06,0s0-.06,0-.06l.08,0s.06,0,.06.06,0,0,0,.07a.2.2,0,0,0,0,.11c0,.36,0,.68,0,1s0,.58,0,.76,0,.2-.06.2,0,0-.06-.07a.25.25,0,0,1,0-.1.33.33,0,0,1,0-.12A2.78,2.78,0,0,0,54,16c0-.66,0-1.12,0-1.38l-.89.16c0,.26,0,.5,0,.7a2.45,2.45,0,0,0,.54-.08h.06l.05,0,0,0s0,0-.05,0l-.64.08c0,.2,0,.37,0,.52s0,.24,0,.32a2.56,2.56,0,0,0,.59-.09h.07l.06,0,0,0s0,0-.06,0l-.7.09v0a1.09,1.09,0,0,1,0,.2s0,0,0,0,0,0-.06-.08a.29.29,0,0,1,0-.13s0,0,0-.07a1.22,1.22,0,0,0,0-.21c0-.37,0-.77,0-1.2,0-.23,0-.41,0-.55l0-.15s0,0,0,0,0,0,.08.13a.71.71,0,0,1,.06.2l.18,0q.06-.16.11-.34a2.71,2.71,0,0,0,.08-.34,2.45,2.45,0,0,0,0-.29s0-.06,0-.06S53.66,13.65,53.7,13.71Zm1.17,0a.22.22,0,0,1,.05.1.31.31,0,0,1,0,.09,2.29,2.29,0,0,0-.1.34c0,.15-.09.29-.14.43l.82-.13c.08,0,.12,0,.14-.06s0-.06.07-.06l.07,0s0,.06,0,.08,0,0,0,.07a.27.27,0,0,0,0,.14c-.07.84-.13,1.42-.17,1.75a2,2,0,0,1-.13.46c0,.08-.05.12-.08.12s-.15-.17-.42-.5l-.08-.11s0,0,0,0l.06,0a1.86,1.86,0,0,0,.37.32s.07-.07.11-.19a8.27,8.27,0,0,0,.15-1c0-.39.06-.74.07-1.05l-.76.14-.09,0a.19.19,0,0,1-.1,0l0,0-.06.16a3.92,3.92,0,0,1-.25.53s0,.06,0,.06,0,0,0,0v0a5.4,5.4,0,0,0,.26-.64,4.49,4.49,0,0,0,.17-.6,2.73,2.73,0,0,0,.07-.52s0-.06,0-.06S54.83,13.62,54.88,13.68Zm-.19,1.58a2.35,2.35,0,0,1,.29.36.32.32,0,0,1,.07.13.21.21,0,0,1,0,.09s0,.07-.05.07,0,0-.06-.06a2.81,2.81,0,0,0-.27-.54.2.2,0,0,1,0-.07,0,0,0,0,1,0,0Z"/><path class="cls-2" d="M59.31,13.73l.05.05s0,0,0,0a.29.29,0,0,0-.07.16l0,.3h.07l.05,0,0,0s0,0-.15,0l-.35,0,0,0a.19.19,0,0,1,0,.08l0,0-.22.28,0,0,.49-.05s0,0,.07,0l0,0,.06,0,0,.05a0,0,0,0,1,0,0,.47.47,0,0,0-.07.21l0,.41h.08l.05,0,0,0s0,0-.13,0l-1.61.13h0c0,.1,0,.15,0,.15s0,0-.05-.07a.26.26,0,0,1,0-.13.17.17,0,0,1,0,0,1,1,0,0,0,0-.26,4.28,4.28,0,0,0,0-.45l0-.09s0,0,0,0,0,0,.06.11l0,.11.44,0v0a2.23,2.23,0,0,0-.21-.39l0,0-.51,0c0,.31,0,.58-.06.82a3.45,3.45,0,0,1-.18.87,1.89,1.89,0,0,1-.27.49c-.13.17-.22.26-.25.26a0,0,0,0,1,0,0l0-.06a2.25,2.25,0,0,0,.35-.52,3.55,3.55,0,0,0,.21-.73,10.82,10.82,0,0,0,.1-1.6c0-.07,0-.15,0-.25a.6.6,0,0,0,0-.13s0,0,0,0,0,0,.07.11a.7.7,0,0,1,0,.19l1.73-.18a.09.09,0,0,0,.08,0l0,0Zm-1.9.34c0,.13,0,.26,0,.37a12.5,12.5,0,0,0,1.72-.15l.07-.43L57.4,14S57.41,14.06,57.41,14.07Zm1,1.51V15l-.69.07c0,.07,0,.15,0,.23v.36Zm-.48-.5a2.7,2.7,0,0,1,.19.25.24.24,0,0,1,0,.11.32.32,0,0,1,0,.1s0,0,0,0,0,0,0,0l-.15-.35a.47.47,0,0,1,0-.11,0,0,0,0,1,0,0Zm0,.86L58,16l1-.11a.08.08,0,0,0,.06,0l0,0,.08,0s.07,0,.07.06,0,0-.05.07a.21.21,0,0,0,0,.13c0,.17,0,.32,0,.45s0,.27,0,.36,0,.09,0,.09,0,0-.06-.08a.24.24,0,0,1,0-.1.12.12,0,0,1,0-.05,1.75,1.75,0,0,0,0-.18c0-.29,0-.49,0-.62L58,16.08a2.09,2.09,0,0,1,0,.26v0a4.38,4.38,0,0,0,.65-.07h.07l.05,0,0,0s0,0-.07,0l-.74.07v.33a6.81,6.81,0,0,0,.81-.08h.08l.05,0s0,0,0,0,0,0-.07,0l-.91.08v.06c0,.1,0,.15,0,.15s0,0-.05-.08a.27.27,0,0,1,0-.13.19.19,0,0,1,0-.06,1.45,1.45,0,0,0,0-.32c0-.23,0-.4,0-.51l0-.11s0,0,0,0S57.92,15.87,57.95,15.94Zm.71-1.06,0,0a.91.91,0,0,0,.14-.4l-.87.07h0l.2.19a.13.13,0,0,1,0,.08.76.76,0,0,1,0,.13v0Zm.52.61.08-.61-.77.08v.62A5,5,0,0,0,59.17,15.49ZM59,15a.33.33,0,0,1,0,.1l0,0-.25.34,0,0s0,0,0,0v0a2.71,2.71,0,0,0,.12-.29,1.09,1.09,0,0,0,.07-.24s0,0,0,0S58.95,15,59,15Z"/><path class="cls-2" d="M61.53,14.8v.06c-.11.32-.2.59-.26.82s-.18.55-.26.75c0,0,0,0,0,0s-.06,0-.1-.08l-.3-.38,0-.07a0,0,0,0,1,0,0l.16.12a.79.79,0,0,0,.21.15s0,0,.06-.06.13-.29.25-.6.18-.47.3-.73c0,0,0,0,0,0Zm-.75-.61a3.39,3.39,0,0,1,.37.29.19.19,0,0,1,.08.12.9.9,0,0,1,0,.14c0,.05,0,.07,0,.07s0,0-.05,0a2.77,2.77,0,0,0-.41-.55s0,0,0,0a0,0,0,0,1,0,0Zm1.58.8a.41.41,0,0,1,.05.11.05.05,0,0,1,0,0,.94.94,0,0,0-.13.31,8.53,8.53,0,0,0,.9,1.21,1.32,1.32,0,0,0,.51.18s0,0,0,0,0,0-.06,0l-.33,0h-.2a.1.1,0,0,1-.09,0l-.78-1.34a3,3,0,0,1-.24.62,2,2,0,0,1-.4.52,2.6,2.6,0,0,1-.49.34l-.09,0a0,0,0,0,1,0,0s0,0,0,0a3.18,3.18,0,0,0,.55-.43,2.14,2.14,0,0,0,.33-.42,2.65,2.65,0,0,0,.23-.57,3.29,3.29,0,0,0,.13-.68,0,0,0,0,1,0,0S62.32,14.94,62.36,15Zm-.1-1.34a.3.3,0,0,1,.06.12.15.15,0,0,1,0,.08,1.38,1.38,0,0,0-.13.33c-.07.19-.13.36-.19.5l.46-.05.57-.08a.2.2,0,0,0,.14-.09s0,0,.05,0l.08.07s.06.07.06.08a.07.07,0,0,1-.05.08,2.43,2.43,0,0,0-.4.53s0,0,0,0,0,0,0,0a.36.36,0,0,1,.07-.13c.08-.16.15-.29.19-.41l-1.18.14,0,.1a3.52,3.52,0,0,1-.34.55l0,0s0,0,0,0l0,0a4,4,0,0,0,.31-.58,5.84,5.84,0,0,0,.28-.76,1.75,1.75,0,0,0,.07-.47s0,0,0,0S62.22,13.59,62.26,13.65Z"/><path class="cls-2" d="M67.06,14.13s0,0,0,0,0,0,0,0l-.9.1a7.42,7.42,0,0,0,.08.75l.07.32.06-.07a1.94,1.94,0,0,0,.23-.36,1.11,1.11,0,0,0,.11-.36s0,0,0,0,0,0,.05.07a.23.23,0,0,1,0,.09h0l-.07.12a2.46,2.46,0,0,1-.19.32,1.53,1.53,0,0,1-.23.27c0,.19.08.34.12.47a2.33,2.33,0,0,0,.33.66c.11.15.19.23.25.23a.05.05,0,0,0,.06-.06l.08-.63a0,0,0,0,1,0,0l0,0c0,.4,0,.65,0,.78s0,.15,0,.2a0,0,0,0,1,0,0,.25.25,0,0,1-.12-.05,1.58,1.58,0,0,1-.28-.26,2.51,2.51,0,0,1-.32-.5,3.8,3.8,0,0,1-.25-.79,2.82,2.82,0,0,1-.36.25l-.05,0s0,0,0,0l0,0,.26-.2.14-.13a.4.4,0,0,1,0-.08,7.21,7.21,0,0,1-.15-1.06L65,14.42a.5.5,0,0,1,0,.13c0,.07,0,.13,0,.2l.27,0,.18,0,.2,0,.11,0h0l.07,0s0,0,0,.06a0,0,0,0,1,0,0l-.49,0-.31,0h0a.09.09,0,0,1-.06,0h0c0,.16,0,.32,0,.5a4.21,4.21,0,0,1-.12.68,3,3,0,0,1-.23.58,4,4,0,0,1-.3.44l0,0a0,0,0,0,1,0,0l0,0,.23-.39a2.64,2.64,0,0,0,.18-.44,3.69,3.69,0,0,0,.14-.64,6.29,6.29,0,0,0,.05-.9s0-.11,0-.2,0-.1,0-.13a0,0,0,0,1,0,0,.41.41,0,0,1,.07.1l1.16-.12c0-.09,0-.19,0-.28a1.11,1.11,0,0,0,0-.26l0-.1s0,0,0,0l.13.07c.05,0,.08.08.08.11a.17.17,0,0,1,0,.06.25.25,0,0,0,0,.09c0,.11,0,.22,0,.33h.07a4.1,4.1,0,0,0,.58-.09l.13,0Zm-2,1.94a1.71,1.71,0,0,1-.07.56c0,.07-.05.11-.08.11s0,0-.05-.05a.24.24,0,0,1,0-.07.09.09,0,0,1,0-.06A1.16,1.16,0,0,0,65,16s0,0,0,0S65.07,16,65.07,16.07Zm.09-1a.35.35,0,0,1,0,.11l.38-.07a.14.14,0,0,0,.11-.05s0,0,.05,0l.06,0,0,.05a.11.11,0,0,1,0,0,.12.12,0,0,0,0,.07l-.05.3h0l.05,0,0,0s0,0,0,0l-.57.07s0,.08,0,.12,0,.06,0,.06,0,0-.07-.07a.13.13,0,0,1,0-.08.34.34,0,0,1,0-.07s0-.13,0-.26,0-.11,0-.15,0-.11,0-.15,0-.06,0-.06S65.14,15,65.16,15Zm.5.49,0-.37-.49.06a.68.68,0,0,0,0,.09c0,.1,0,.19,0,.28Zm-.37.44a2.09,2.09,0,0,0,.19.44.78.78,0,0,0,.22.25.46.46,0,0,0,.28.1s0,0,0,0a.39.39,0,0,0,0-.11,1.35,1.35,0,0,1-.06-.23.15.15,0,0,1,0-.05,0,0,0,0,1,0,0h0a3,3,0,0,0,.24.44.11.11,0,0,1,0,.05,0,0,0,0,1,0,0l-.15,0a.49.49,0,0,1-.24-.07.59.59,0,0,1-.2-.15.85.85,0,0,1-.17-.26,2.36,2.36,0,0,1-.11-.3.73.73,0,0,1,0-.16,0,0,0,0,1,0,0Zm.26-.07.19.21a.17.17,0,0,1,0,.09.34.34,0,0,1,0,.1s0,0,0,0,0,0,0,0L65.55,16a.32.32,0,0,1,0-.09h0Zm.47,0,.21.22a.22.22,0,0,1,0,.1.31.31,0,0,1,0,.1s0,0,0,0,0,0,0,0L66,16a.41.41,0,0,1-.05-.1,0,0,0,0,1,0,0Zm.41-2.23.25.2a.13.13,0,0,1,0,.08.36.36,0,0,1,0,.11s0,0,0,0l0,0-.2-.3-.06-.09a0,0,0,0,1,0,0Z"/><path class="cls-2" d="M69.72,15.5a.5.5,0,0,1-.23.18h0a.59.59,0,0,0,.15-.18.42.42,0,0,0,.07-.18s0-.07-.1-.07-.13,0-.13-.12.05-.13.15-.13a.18.18,0,0,1,.15.07.28.28,0,0,1,.05.17A.43.43,0,0,1,69.72,15.5Z"/><path class="cls-2" d="M26.78,20.47a1.24,1.24,0,0,1,0,.18l1.56-.15c.07,0,.11,0,.13-.06s0-.06.06-.06,0,0,.08.06,0,0,0,.06a.11.11,0,0,1,0,.06.14.14,0,0,0,0,.09l-.13.94h0l.06,0,0,0s0,0-.13,0l-.9.06,0,0a.35.35,0,0,1,0,.12.15.15,0,0,1,0,.07,2.08,2.08,0,0,0-.13.31l1-.08a.12.12,0,0,0,.11-.06s0-.06.05-.06l.07,0s0,.06,0,.07a.08.08,0,0,1,0,0,.14.14,0,0,0-.05.08c-.1.47-.17.78-.22.94a1.94,1.94,0,0,1-.16.36s-.06.08-.07.08,0,0,0,0l-.37-.56,0,0a0,0,0,0,1,0,0l0,0,.31.32a.12.12,0,0,0,.07,0s0,0,.07-.07a2.32,2.32,0,0,0,.16-.5c0-.2.08-.39.11-.56l-1.09.1a4.13,4.13,0,0,1-.24.45,1.93,1.93,0,0,1-.56.57,4.81,4.81,0,0,1-.61.36l-.08,0a0,0,0,0,1,0,0l0,0a5.07,5.07,0,0,0,.57-.36,2.09,2.09,0,0,0,.79-1l-.42,0-.39,0-.12,0a.12.12,0,0,1-.07,0l0,0s0,0,0,0l1.08-.09a2.31,2.31,0,0,0,.13-.54l-.69,0v0c0,.1,0,.15,0,.15s0,0-.06-.08a.29.29,0,0,1,0-.13.48.48,0,0,1,0-.09,3.09,3.09,0,0,0,0-.48c0-.3,0-.52,0-.67s0-.13,0-.14,0,0,0,0S26.75,20.41,26.78,20.47Zm.81,1.21v-.46h0l-.45,0h-.05l-.06,0s0,0,0,0a0,0,0,0,1,0,0l.41,0h.19v-.47l-.75.07s0,.09,0,.14v.85Zm.79-.08h0l.11-1-.8.08v.47l.25,0,.16,0h.07l.07,0s0,0,0,.06a0,0,0,0,1,0,0l-.58,0v.46A5.41,5.41,0,0,0,28.38,21.61Z"/><path class="cls-2" d="M31.43,20.37a.34.34,0,0,1,.07.12.11.11,0,0,1,0,.07.7.7,0,0,0-.1.22c-.1.34-.18.63-.25.86l.28,0,.56,0c0-.07,0-.13,0-.19s0-.06,0-.06,0,0,.1.08a.33.33,0,0,1,.08.13s0,0,0,0a6,6,0,0,0,.73-.1l.1,0,.1.05.08.07s0,0,0,0l-1,.06A1.75,1.75,0,0,0,32,22a2.79,2.79,0,0,1-.36.76l-.05.07L32,23a2.33,2.33,0,0,1,.43.26s.06.13.06.31,0,0,0,0a.09.09,0,0,1-.07,0,6.33,6.33,0,0,0-.66-.53l-.2-.13a2,2,0,0,1-.47.39c-.18.11-.37.2-.55.28a1.38,1.38,0,0,1-.29.11,0,0,0,0,1,0,0s0,0,.12-.07a4.22,4.22,0,0,0,1-.64l.1-.1a4.14,4.14,0,0,0-.66-.29.07.07,0,0,1,0-.07.27.27,0,0,1,0-.11c.07-.18.15-.41.24-.7l-.93.08H30a.2.2,0,0,1-.12-.05s0,0,0-.05,0,0,0,0l1.18,0,.24-.79a2.43,2.43,0,0,0,.06-.56s0,0,0,0Zm-.23,1.34h-.11c-.1.32-.17.54-.23.68a.39.39,0,0,0,0,.12.05.05,0,0,0,0,0,6.37,6.37,0,0,1,.63.24,1.71,1.71,0,0,0,.24-.4,2.59,2.59,0,0,0,.19-.74Z"/><path class="cls-2" d="M35.06,20.36a.26.26,0,0,1,.06.12.09.09,0,0,1,0,.06,1.12,1.12,0,0,0-.19.26l-.1.15.93-.11s0,0,.06,0,0,0,.06,0l.07,0a.15.15,0,0,1,0,.07.06.06,0,0,1,0,0l-.5.65a.54.54,0,0,1-.08.11l.44.31a2.06,2.06,0,0,0,.58.28,4.92,4.92,0,0,0,.55.06l0,0s0,0,0,0l-.73.08a.13.13,0,0,1-.1,0c-.24-.22-.48-.44-.74-.63l0,0a3.45,3.45,0,0,1-.52.49l-.19.13,0,.07a.84.84,0,0,1,.05.22l1.09-.13a.09.09,0,0,0,.08,0l0,0,.07,0,.05.05s0,0,0,0a.78.78,0,0,0,0,.27c0,.18,0,.36,0,.54H36l.07,0s0,0,0,0,0,0-.1,0l-1.26.09v.08c0,.1,0,.15,0,.15s0,0-.05-.08a.31.31,0,0,1,0-.21,2.15,2.15,0,0,0,0-.41,5.81,5.81,0,0,0,0-.6.92.92,0,0,1,0-.11,4.28,4.28,0,0,1-.6.31l-.27.12s0,0,0,0,0,0,0,0a6,6,0,0,0,1-.6,3.53,3.53,0,0,0,.52-.48l-.44-.33s0,0,0,0l0,0h.06a.09.09,0,0,1,.06,0l.38.32.11-.14a3.53,3.53,0,0,0,.34-.55l-.39,0L35,21h-.11l-.07,0h0a3.35,3.35,0,0,1-.27.35,3.65,3.65,0,0,1-.49.44l-.05,0s0,0,0,0l0,0a3.1,3.1,0,0,0,.46-.48,3.44,3.44,0,0,0,.42-.62.84.84,0,0,0,.1-.38s0,0,0,0S35,20.3,35.06,20.36Zm.75,3,.05-.78-1.15.12s0,.07,0,.1v.64C35.28,23.43,35.65,23.4,35.81,23.38Z"/><path class="cls-2" d="M40.39,21.24l.08.07s0,0,0,0l-1.09.08c0,.16,0,.32.05.47a2.75,2.75,0,0,0,.33,1,1.88,1.88,0,0,0,.42.43.58.58,0,0,0,.29.13s0,0,0,0,0-.3,0-.77c0,0,0,0,0-.05s0,0,0,.05a7.17,7.17,0,0,0,.12.91.26.26,0,0,1,0,.11s0,0,0,0a.71.71,0,0,1-.24-.08,1.5,1.5,0,0,1-.36-.23A1.58,1.58,0,0,1,39.7,23a1.94,1.94,0,0,1-.29-.67,7.27,7.27,0,0,1-.16-.92l-.41,0c-.57.06-.88.09-.92.11h-.09a.2.2,0,0,1-.11,0s0,0,0-.05,0,0,0,0c.19,0,.62,0,1.27-.07l.26,0c0-.18,0-.37-.06-.58a2.32,2.32,0,0,0-.06-.4.81.81,0,0,1,0-.11s0,0,0,0a.42.42,0,0,1,.11.09l.1.11a.22.22,0,0,1,0,.07,1.43,1.43,0,0,0,0,.17c0,.23,0,.45,0,.66a5,5,0,0,0,.87-.15l.08,0ZM39,22s0,0,0,.07a0,0,0,0,1,0,0l-.51.05,0,0s.07.07.07.09a.12.12,0,0,1,0,.05.24.24,0,0,0,0,.1V23l.57-.2h0l0,0s0,0,0,0l-.87.37-.34.15-.07,0a.15.15,0,0,1-.08,0l-.05-.06a0,0,0,0,1,0,0,4.91,4.91,0,0,0,.52-.15l.2-.07v-.6a.53.53,0,0,0,0-.17.26.26,0,0,1,0-.08l-.36,0h0l-.07,0s0,0,0-.05a0,0,0,0,1,0,0l.34,0,.22,0,.24,0,.13,0h.06A.11.11,0,0,1,39,22Zm.7-1.53a3.55,3.55,0,0,1,.36.24.17.17,0,0,1,.06.11.39.39,0,0,1,0,.11s0,0,0,0,0,0-.05,0l-.31-.36c-.06-.06-.09-.1-.09-.11a0,0,0,0,1,0,0Z"/><path class="cls-2" d="M42.17,20.59a.59.59,0,0,1,.07.2v0l1.49-.16c.07,0,.11,0,.12-.06s0-.06.06-.06l.07.06a.16.16,0,0,1,0,.06.12.12,0,0,1,0,.06.11.11,0,0,0,0,.08l-.11.56h.09l.07,0,0,0s0,0-.13,0l-1.72.13s0,0,0,.05a4.71,4.71,0,0,1-.15.81,3.73,3.73,0,0,1-.28.69,4.3,4.3,0,0,1-.36.52l-.06.06a0,0,0,0,1,0,0l0-.06c.11-.18.21-.34.29-.47a2.52,2.52,0,0,0,.22-.52,4.87,4.87,0,0,0,.18-.77,8,8,0,0,0,.06-1.07c0-.05,0-.12,0-.2s0-.11,0-.13,0,0,0,0A.32.32,0,0,1,42.17,20.59Zm.81.88v-.63l-.75.08c0,.2,0,.4,0,.6Zm-.44.47,0,.1,1.17-.12a.07.07,0,0,0,.06,0l0-.05.08,0s.06,0,.06.06,0,0,0,.07a.23.23,0,0,0,0,.11c0,.28,0,.54,0,.77a6,6,0,0,1,0,.6c0,.1,0,.15-.06.15s0,0-.06-.07a.29.29,0,0,1,0-.09.23.23,0,0,1,0-.1,1.39,1.39,0,0,0,0-.3c0-.51,0-.87.06-1.07l-1.24.13v.35a4.87,4.87,0,0,0,.83-.08h.08l.05,0,0,0s0,0-.07,0l-.93.08v.35a5.54,5.54,0,0,0,.83-.08h.08l.05,0,0,0s0,0-.07,0l-.93.08v.39a7.61,7.61,0,0,0,.9-.07h.09l.07,0,0,0s0,0-.08,0l-1,.07v.18c0,.06,0,.1,0,.1s0,0-.07-.07a.31.31,0,0,1,0-.11.63.63,0,0,1,0-.13c0-.12,0-.34,0-.65s0-.4,0-.63a2.79,2.79,0,0,0,0-.29s0,0,0,0S42.52,21.86,42.55,21.94Zm1.2-.56.1-.63-.74.07v.63A4.63,4.63,0,0,0,43.75,21.38Z"/><path class="cls-2" d="M46.9,20.47s0,0,0,.07a0,0,0,0,1,0,0l-.45,0v.68h.09l.23,0,.1,0a.13.13,0,0,1,.08,0s0,0,0,.07a0,0,0,0,1,0,0l-.52,0v1s0,0,0,0,0,0-.08-.08a.16.16,0,0,1,0-.11.59.59,0,0,1,0-.13,1.05,1.05,0,0,0,0-.24v-.44l-.38,0h-.08v.05a1.48,1.48,0,0,1-.16.43,2,2,0,0,1-.16.23,2.56,2.56,0,0,1-.21.23s-.08.07-.09.07,0,0,0,0v0a2.42,2.42,0,0,0,.36-.49,1.43,1.43,0,0,0,.15-.46l-.45,0H45.3l-.07,0s-.05,0-.05-.05a0,0,0,0,1,0,0l.58,0h.05c0-.19,0-.42,0-.7l-.33,0h-.06l-.07,0s0,0,0-.05a0,0,0,0,1,0,0l.49,0,.31,0,.35,0,.19,0h.08A.11.11,0,0,1,46.9,20.47Zm.79,2.33s0,0,0,.07a0,0,0,0,1,0,0l-.86,0v.58a12.21,12.21,0,0,0,1.22-.11l.09,0,.1.05s.08.05.08.07a0,0,0,0,1,0,0l-1.72.08-1,.07h-.1a.22.22,0,0,1-.12-.05s0,0,0,0,0,0,0,0l1.38,0h0v-.58h-.09L46,23h-.08l-.07,0s0,0,0-.06a0,0,0,0,1,0,0l.62,0,.33,0v-.22a.92.92,0,0,0,0-.27.64.64,0,0,1,0-.12s0,0,0,0l.09.08c.05.05.08.09.08.1a.59.59,0,0,1,0,.11,2,2,0,0,0,0,.33l.42,0,.24,0h.11A.12.12,0,0,1,47.69,22.8Zm-1.3-2.21-.3,0H46q0,.46-.06.7l.21,0,.24,0Zm.88,0s.08.08.08.1a.59.59,0,0,1,0,.1.72.72,0,0,0,0,.16v.78s0,0,0,0,0,0-.07-.07a.22.22,0,0,1,0-.1.42.42,0,0,1,0-.06,1.38,1.38,0,0,0,0-.15v-.55a1.29,1.29,0,0,0,0-.21l0-.07a0,0,0,0,1,0,0Zm.52-.24s.08.08.08.1a.13.13,0,0,1,0,0,.22.22,0,0,0,0,.08v1.63a1,1,0,0,1,0,.2c0,.06,0,.09-.05.09s0,0,0,0A5.54,5.54,0,0,0,47.3,22l0,0s0,0,0,0l.2.13a1.06,1.06,0,0,0,.22.16s0,0,0-.08V20.79a2,2,0,0,0,0-.43.45.45,0,0,1,0-.09s0,0,0,0Z"/><path class="cls-2" d="M50.87,22.36a.45.45,0,0,1-.33.13.46.46,0,0,1,0-.93A.47.47,0,0,1,51,22,.44.44,0,0,1,50.87,22.36Zm-.06-.6a.38.38,0,0,0-.27-.11.36.36,0,0,0-.27.11.37.37,0,0,0-.11.27.37.37,0,0,0,.37.37.37.37,0,0,0,.27-.11.36.36,0,0,0,.11-.27A.38.38,0,0,0,50.81,21.76Z"/><line class="cls-3" x1="23.12" y1="16.89" x2="18.98" y2="23.94"/><line class="cls-3" x1="72.7" y1="16.89" x2="68.56" y2="23.94"/><path class="cls-4" d="M74.09,13a1.68,1.68,0,0,1-.77.61l0,0A2,2,0,0,0,73.8,13,1.42,1.42,0,0,0,74,12.4c0-.15-.11-.24-.33-.24s-.44-.13-.44-.4.17-.42.52-.42a.62.62,0,0,1,.49.23,1,1,0,0,1,.18.58A1.46,1.46,0,0,1,74.09,13Z"/><path class="cls-4" d="M75.52,13a1.68,1.68,0,0,1-.77.61l0,0a2,2,0,0,0,.52-.59,1.42,1.42,0,0,0,.24-.59c0-.15-.11-.24-.33-.24s-.44-.13-.44-.4.17-.42.52-.42a.62.62,0,0,1,.49.23,1,1,0,0,1,.18.58A1.46,1.46,0,0,1,75.52,13Z"/><g class="cls-5"><rect class="cls-6" x="90.27" y="22.04" width="1.65" height="2.04" transform="translate(176.94 -15.15) rotate(141.81)"/><polygon class="cls-6" points="91.04 21.65 89.74 22.67 89.35 22.17 89.41 21.64 90.12 21.08 90.66 21.17 91.04 21.65"/><rect class="cls-7" x="89.09" y="20.72" width="0.78" height="0.62" transform="translate(6.15 59.83) rotate(-38.19)"/><polygon class="cls-7" points="89.6 20.55 89.03 19.82 88.81 20.82 88.99 21.03 89.6 20.55"/><line class="cls-7" x1="88.99" y1="20.11" x2="89.21" y2="20.39"/><line class="cls-7" x1="88.91" y1="20.28" x2="89.08" y2="20.5"/><path class="cls-6" d="M81.77,20.05a.89.89,0,0,0-.42.53c-.12.38-.21.75,0,.77a22.53,22.53,0,0,0,2.55-1,19.53,19.53,0,0,1,3.5-1.16,7.94,7.94,0,0,1,2.52.17,4.28,4.28,0,0,1,1,.39,2.38,2.38,0,0,0-.59-.44,7,7,0,0,0-2.84-.83,12.81,12.81,0,0,0-3.4.74C82.76,19.63,81.77,20.05,81.77,20.05Z"/></g><rect class="cls-8" width="9.45" height="35"/><path class="cls-6" d="M6.3,7.93a1.61,1.61,0,0,1-.16.69.43.43,0,0,1-.36.14,1.05,1.05,0,0,1-.47-.07q-.11-.07-.09-.27l.11-2h-.9a3.86,3.86,0,0,1-.31,1.37,2.79,2.79,0,0,1-.76,1L3.2,8.65a2.71,2.71,0,0,0,1-2.17h-1V6.29h1q0-.48,0-.71h.19q0,.34,0,.71h1.1L5.41,8.46a.1.1,0,0,0,0,.1,1.09,1.09,0,0,0,.35,0,.22.22,0,0,0,.15,0A.48.48,0,0,0,6,8.32a2.52,2.52,0,0,0,.06-.46Z"/><path class="cls-6" d="M6.26,9.77H3.67v1a3.17,3.17,0,0,1-.39,1.66l-.16-.12a3.26,3.26,0,0,0,.38-1.72v-1H4.82a2,2,0,0,0-.17-.28l.21-.05A3.74,3.74,0,0,1,5,9.58H6.26Zm.08,2.57-.12.18A4.56,4.56,0,0,1,5,12.17a4.24,4.24,0,0,1-1.33.34l-.09-.19a3.8,3.8,0,0,0,1.21-.25,1.81,1.81,0,0,1-.64-.68H4v-.19H5.84v.19a1.62,1.62,0,0,1-.62.67A4.51,4.51,0,0,0,6.34,12.34Zm-.08-2H5.64V11H4.36v-.6H3.81v-.18h.54v-.3h.19v.3h.91v-.3h.19v.3h.62Zm-.65,1H4.38A1.48,1.48,0,0,0,5,12,1.53,1.53,0,0,0,5.62,11.38Zm-.16-.61v-.42H4.54v.42Z"/><path class="cls-6" d="M3.58,15.35a3.26,3.26,0,0,1-.25.82l-.16-.07a3.9,3.9,0,0,0,.24-.82Zm1-.26-.16.06L4.33,15l-1.1.2L3.18,15A2.83,2.83,0,0,0,4,14.17l-.69.08,0-.17A2.78,2.78,0,0,0,3.86,13L4,13a3.4,3.4,0,0,1-.53,1L4.07,14a4.39,4.39,0,0,0,.25-.44l.17.09a4.49,4.49,0,0,1-1,1.31l.75-.14a1.19,1.19,0,0,0-.12-.26l.17-.07A2.67,2.67,0,0,1,4.55,15.09Zm-.55,1-.18,0c0-.07,0-.14,0-.21a3.86,3.86,0,0,0,0-.59l.17,0a4.06,4.06,0,0,1,.05.62C4,16,4,16,4,16.09Zm.46-.29-.16.06a2.87,2.87,0,0,0-.16-.56l.17-.05A2.52,2.52,0,0,1,4.46,15.8Zm.65-.66a3,3,0,0,1-.42.85l-.15-.1A3,3,0,0,0,5,15.07Zm1.2-.26-.16.07L6,14.69l-.5.09v1.14a.22.22,0,0,1-.1.2.52.52,0,0,1-.28.06H5L5,16h.17a.36.36,0,0,0,.17,0,.11.11,0,0,0,0-.09V14.82l-.66.1-.05-.17a2.19,2.19,0,0,0,.79-.68l-.72.08L4.68,14a2.66,2.66,0,0,0,.64-1l.16.08a3.29,3.29,0,0,1-.53.92q.23,0,.65-.08a4.8,4.8,0,0,0,.28-.45l.17.08a3.61,3.61,0,0,1-1,1.2L6,14.52a1.57,1.57,0,0,0-.13-.24L6,14.21A3.11,3.11,0,0,1,6.3,14.87Zm0,1-.15.09a3.85,3.85,0,0,0-.38-.79l.15-.1A3.74,3.74,0,0,1,6.31,15.84Z"/><path class="cls-6" d="M3.87,18.08l-.11.14a3,3,0,0,0-.61-.49l.13-.13A3,3,0,0,1,3.87,18.08Zm.13.65a5.69,5.69,0,0,1-.66,1.17l-.13-.13a6,6,0,0,0,.66-1.17Zm0-1.6-.13.14a2.69,2.69,0,0,0-.59-.49l.12-.15A2.53,2.53,0,0,1,4,17.13Zm1.86,2.47a.28.28,0,0,1,0,.16.23.23,0,0,1-.12.09,1.13,1.13,0,0,1-.29,0H5.24l-.06-.18h.44c.05,0,.08,0,.08-.09v-.45a7.83,7.83,0,0,1-1.19.31l-.07-.15a1.63,1.63,0,0,1-.34.57L4,19.76a1.32,1.32,0,0,0,.33-.6,4.27,4.27,0,0,0,.08-1H5.88Zm.35-1.26H6v-.45H4.19v.45H4v-.63h.26v-1H6v1h.26Zm-.46-1.13v-.3H4.45v.8H4.9v-.5ZM5.7,18.94v-.56H4.55c0,.05,0,.12,0,.2a3.76,3.76,0,0,1,.89.13l-.07.17a4.35,4.35,0,0,0-.83-.13,2.28,2.28,0,0,1-.08.52A6.5,6.5,0,0,0,5.7,18.94Zm.07-1.23V17.4H5.09v.32Z"/><path class="cls-6" d="M3.65,22.76a2.77,2.77,0,0,1-.32.69l-.15-.1a2.61,2.61,0,0,0,.33-.66Zm.89-.2H4v1H3.83v-1H3.19v-.17H4.54Zm.06-2H4.18v.35h.36v.78H3.29v-.78h.37v-.35H3.22v-.17H4.6Zm-.08,1.54H3.3v-.17H4.51Zm-.86-.57v-.44H3.46v.45ZM4,20.93v-.35H3.82v.35Zm0,.62v-.44H3.82v.44Zm.45,1.59-.16.07a1.64,1.64,0,0,0-.15-.44l.15-.06A1.56,1.56,0,0,1,4.46,23.14Zm-.09-1.59v-.44H4.18v.44Zm2,1.41a1.85,1.85,0,0,1-.07.44q-.05.17-.13.17c-.09,0-.16-.13-.2-.38A7.64,7.64,0,0,1,5.87,22v-1.4h-1v1a6,6,0,0,1-.26,1.94l-.15-.1a5.6,5.6,0,0,0,.24-1.84V20.41H6V22a9.64,9.64,0,0,0,0,1,.85.85,0,0,0,.05.29h0s0-.05,0-.15a1.4,1.4,0,0,0,0-.25Zm-.46.45-.16.06-.06-.21a7.44,7.44,0,0,1-.75.17l-.05-.18a1.9,1.9,0,0,0,.41-.07v-.55H5V21.46h.28v-.39H5V20.9h.76v.17H5.44v.39h.28v1.16H5.44v.52l.15,0a1.32,1.32,0,0,0-.1-.23l.15-.06A2.81,2.81,0,0,1,5.89,23.41Zm-.6-1v-.82H5.16v.82Zm.29,0v-.82H5.44v.82Z"/><path class="cls-6" d="M6.15,24.92H3.7v.63a4.06,4.06,0,0,1-.36,1.72l-.16-.13a3.56,3.56,0,0,0,.34-1.6V24.11H6.15Zm-1.4-.18V24.3h-1v.44Zm1.34,2.53H5.9V27H4.23v.26H4v-2h2Zm-.19-1.5v-.32H4.23v.32Zm0,.52v-.34H4.23v.34Zm0,.53v-.35H4.23v.35ZM6,24.74V24.3h-1v.44Z"/></svg>