<svg id="圖層_1" data-name="圖層 1" xmlns="http://www.w3.org/2000/svg" viewBox="0 0 100 35"><defs><style>.cls-1{fill:#f5f5f5;stroke:#fff;}.cls-1,.cls-5,.cls-8{stroke-miterlimit:10;}.cls-2{fill:#3d3d3d;}.cls-3{fill:#647384;}.cls-4{fill:#fff;}.cls-5,.cls-8{fill:none;stroke:#647384;}.cls-5{stroke-width:0.3px;}.cls-6{fill:#ad8066;}.cls-7{opacity:0.4;}.cls-8{stroke-width:0.2px;}</style></defs><title>lesson_cont_7</title><rect class="cls-1" x="-13.5" y="-127.5" width="375" height="177"/><path class="cls-2" d="M25.17,16.67a.27.27,0,0,1,.05.11.09.09,0,0,1,0,.06.93.93,0,0,0-.17.24l-.12.18.08.14a2,2,0,0,1,.15.45,3.6,3.6,0,0,1,.07.72,5.08,5.08,0,0,1,0,.62,1.91,1.91,0,0,1-.12.52c0,.11-.07.16-.1.16s-.07,0-.11-.14a3.48,3.48,0,0,0-.29-.42l0-.07a0,0,0,0,1,0,0s.07.05.16.16.21.23.24.23,0,0,.06-.06a1.77,1.77,0,0,0,.08-.39,5,5,0,0,0,0-.64,5.52,5.52,0,0,0-.07-.61,2.92,2.92,0,0,1-.19.36,4,4,0,0,1-.53.68c-.11.1-.17.15-.2.15a0,0,0,0,1,0,0l0,0a4.19,4.19,0,0,0,.54-.68,3.87,3.87,0,0,0,.33-.62v0a1.77,1.77,0,0,0-.16-.38,2.36,2.36,0,0,1-.19.24,2.94,2.94,0,0,1-.44.41l0,0s0,0,0,0l0,0a3.07,3.07,0,0,0,.42-.44,3.22,3.22,0,0,0,.2-.27,2.42,2.42,0,0,0-.27-.34.6.6,0,0,1-.13-.15h0a.84.84,0,0,1,.18.15,3.06,3.06,0,0,1,.25.28L25,17a.78.78,0,0,0,.1-.35s0,0,0,0S25.13,16.61,25.17,16.67Zm.38.08a.5.5,0,0,1,0,.13l1.24-.15s0,0,.07,0l0,0,.06,0,0,.05a0,0,0,0,1,0,0,.33.33,0,0,0-.08.18c0,.11,0,.23-.05.34H27l.05,0,0,0s0,0-.1,0l-1,.1a.2.2,0,0,1,0,.08.05.05,0,0,1,0,0,.45.45,0,0,0-.1.15l-.08.13L27,17.77a.12.12,0,0,0,.1,0s0,0,.05,0l.08,0s0,0,0,0a0,0,0,0,1,0,0,.25.25,0,0,0-.07.16c-.06.73-.11,1.2-.14,1.41a2.77,2.77,0,0,1-.1.36c0,.06-.05.1-.07.1l0,0-.45-.42a.06.06,0,0,1,0,0,0,0,0,0,1,0,0l0,0,.32.2.07,0s.06,0,.08-.08a2.88,2.88,0,0,0,.12-.65c0-.27.06-.61.07-1L26,18l0,0s.06.06.06.08a.2.2,0,0,1,0,0,.32.32,0,0,0,0,.09v.15l.34,0a.06.06,0,0,0,.06,0l0,0,0,0,0,0a0,0,0,0,1,0,0,.19.19,0,0,0-.05.11c0,.07,0,.14,0,.21h0l.06,0,0,0s0,0-.08,0l-.49,0v.37l.38-.09-.11-.15a.11.11,0,0,1,0-.05h0l.05,0a2.39,2.39,0,0,1,.26.26s.06.08.06.09a.23.23,0,0,1,0,.08s0,.06,0,.06a.06.06,0,0,1-.05,0,1.64,1.64,0,0,0-.1-.2l-.71.18-.31.11,0,0a.17.17,0,0,1-.09,0s-.06,0-.06-.06h0a2.81,2.81,0,0,0,.4-.07l.29-.06v-.38l-.39,0s0,.09,0,.12,0,.06,0,.06,0,0-.06-.06a.11.11,0,0,1,0-.07.27.27,0,0,1,0-.07s0-.12,0-.23,0-.1,0-.14,0-.1,0-.13,0-.06,0-.06,0,0,0,0a1,1,0,0,1,0,.11l.41,0V18.2a.43.43,0,0,0,0-.15A.28.28,0,0,1,26,18s0,0,0,0l-.28,0-.08.1a2.16,2.16,0,0,1-.27.26l0,0,0,0a1.94,1.94,0,0,0,.24-.29,2,2,0,0,0,.22-.37.63.63,0,0,0,.05-.17l-.27,0h0c0,.05,0,.11,0,.17s0,0,0,0,0,0,0-.06a.23.23,0,0,1,0-.1.37.37,0,0,1,0-.07,2.82,2.82,0,0,0,0-.33c0-.11,0-.23,0-.37a1.14,1.14,0,0,0,0-.18l0,0S25.52,16.68,25.55,16.75Zm.41.67,0-.52-.36,0c0,.07,0,.24,0,.51ZM26,18.74v-.31l-.41,0s0,0,0,.06,0,.16,0,.24Zm0-1.32.33,0,0-.53-.34,0Zm.06,1.32.33,0,.06-.31-.39,0Zm.36-1.36.32-.05.09-.52-.38,0Z"/><path class="cls-2" d="M30.3,17.55s0,.05,0,.07a0,0,0,0,1,0,0l-.69.06v0a.27.27,0,0,1,0,.09s0,0,0,0l-.22.15.08.07a1.1,1.1,0,0,1,.22.29l0,.07,0,0,0,0,.32-.31a.58.58,0,0,0,.17-.26,0,0,0,0,1,0,0s0,0,.05.1a.48.48,0,0,1,0,.11s0,0,0,0l-.16.1-.42.31.27.25a4.32,4.32,0,0,0,.58.45,1.72,1.72,0,0,0,.52.14h0s0,0,0,0l-.31.08-.16,0a.09.09,0,0,1-.07,0l-.53-.55-.31-.32v.06a2.27,2.27,0,0,1,0,.44,2.52,2.52,0,0,1,0,.44,1,1,0,0,1-.12.36c0,.07-.07.11-.09.11s-.06,0-.1-.13a2.75,2.75,0,0,0-.26-.39.13.13,0,0,1,0-.07,0,0,0,0,1,0,0s.06,0,.14.13.19.18.22.18,0,0,.05,0a.87.87,0,0,0,.08-.24,1.91,1.91,0,0,0,0-.39c0-.09,0-.18,0-.26a2,2,0,0,1-.34.28,5.45,5.45,0,0,1-.91.5,1.4,1.4,0,0,1-.33.11v0l.06,0a5.77,5.77,0,0,0,.93-.51,3.12,3.12,0,0,0,.58-.48v-.07a1.13,1.13,0,0,0-.09-.23,1.54,1.54,0,0,1-.26.22,3.93,3.93,0,0,1-.66.37,1,1,0,0,1-.24.08,0,0,0,0,1,0,0l0,0a3.81,3.81,0,0,0,.67-.39,2.59,2.59,0,0,0,.41-.35l-.1-.13,0-.07a3,3,0,0,1-.41.27,3,3,0,0,1-.41.2h0s0,0,0,0l0,0a4.08,4.08,0,0,0,.63-.38,1.37,1.37,0,0,0,.35-.35h-.1l-.57.06H28.8l-.07,0s0,0,0-.05a0,0,0,0,1,0,0l.52,0,.33,0,.37,0,.2,0h.09A.11.11,0,0,1,30.3,17.55ZM28.63,17a2.08,2.08,0,0,1,0,.24l.94-.09,1-.11a.2.2,0,0,0,.14-.09s0,0,.05,0l.08.06s.06.07.06.09,0,.05,0,.06a1.94,1.94,0,0,0-.34.43l0,0s0,0,0,0a.28.28,0,0,1,0-.1l.14-.31-2.08.21a.82.82,0,0,1-.12.31c0,.08-.09.12-.14.13s0,0-.05,0a.23.23,0,0,1,0-.07.09.09,0,0,1,0-.07,1,1,0,0,0,.29-.65s0,0,0,0S28.63,16.92,28.63,17Zm.73-.45a1.77,1.77,0,0,1,.25.26s.06.07.06.09a.23.23,0,0,1,0,.09s0,.07-.05.07a.05.05,0,0,1,0,0,2.35,2.35,0,0,0-.22-.42.13.13,0,0,1,0-.06,0,0,0,0,1,0,0Z"/><path class="cls-2" d="M33.13,17.41s0,0,0,.07a0,0,0,0,1,0,0l-.51.05v.65l.45-.24h0a.09.09,0,0,1,0,.07l-.45.29v1.28a.8.8,0,0,1,0,.2c0,.05,0,.08,0,.08a.07.07,0,0,1,0,0c-.15-.16-.29-.29-.41-.41l0,0s0,0,0,0l.2.11a1,1,0,0,0,.22.13s0,0,0-.08V18.38l-.23.14a2.38,2.38,0,0,0-.3.2.07.07,0,0,1-.06,0,.14.14,0,0,1-.08,0l-.05-.06a.06.06,0,0,1,0-.06,3.67,3.67,0,0,0,.47-.21l.23-.12v-.7H32.5l-.43.07h0l-.07,0s0,0,0-.05a0,0,0,0,1,0,0l.39,0,.25,0V17a2,2,0,0,0,0-.43.33.33,0,0,1,0-.1h0l.1.05s.08.08.08.1a.13.13,0,0,1,0,.05.19.19,0,0,0,0,.08v.73l.18,0,.15,0,.07,0A.12.12,0,0,1,33.13,17.41Zm1.66-.06s0,.05,0,.07a0,0,0,0,1,0,0l-.9.08v.58l.37,0,.06,0s0,0,.06,0l.07,0s0,.06,0,.07a.07.07,0,0,1,0,0l-.36.63a2.33,2.33,0,0,1-.2.31l.18.21a1.41,1.41,0,0,0,.43.34,2.91,2.91,0,0,0,.41.07l0,0s0,0,0,0l-.55.06a.09.09,0,0,1-.08-.05c-.15-.22-.3-.43-.45-.62l-.23.26a2.49,2.49,0,0,1-.59.44l-.19.11a0,0,0,0,1,0,0s0,0,0,0a4.53,4.53,0,0,0,.7-.58,2.91,2.91,0,0,0,.23-.27l0,0c-.21-.26-.35-.43-.43-.52s0,0,0,0l0,0h0a.08.08,0,0,1,.06,0,6.85,6.85,0,0,0,.41.56,3,3,0,0,0,.2-.32,3.33,3.33,0,0,0,.24-.52l-.45.05-.42.05-.12,0-.07,0s0,0,0,0v0l.55-.07v-.58l-.47.06-.06,0-.07,0s0,0,0-.05a0,0,0,0,1,0,0l.53,0h.11v-.56a1.66,1.66,0,0,0,0-.31,1,1,0,0,1,0-.13h0l.1.08c.06.06.09.1.09.11a.56.56,0,0,1,0,.12,3.36,3.36,0,0,0,0,.43v.25l.12,0,.38,0,.2,0,.09,0A.12.12,0,0,1,34.79,17.35Z"/><path class="cls-2" d="M36.62,17.31a.27.27,0,0,1,.05.11.07.07,0,0,1,0,.05.83.83,0,0,0-.18.21l-.17.23v2s0,.06,0,.06,0,0-.08-.09a.21.21,0,0,1,0-.11.5.5,0,0,1,0-.13,1,1,0,0,0,0-.24V18l-.11.11a3.34,3.34,0,0,1-.46.36l0,0s0,0,0,0l0,0a2.8,2.8,0,0,0,.44-.39,2.84,2.84,0,0,0,.4-.51.6.6,0,0,0,.1-.31s0,0,0,0S36.58,17.26,36.62,17.31Zm-.15-.66a.22.22,0,0,1,.05.1s0,0,0,0a.9.9,0,0,0-.13.2,2.7,2.7,0,0,1-.28.38,2.12,2.12,0,0,1-.32.31l-.05,0s0,0,0,0l0,0A2.82,2.82,0,0,0,36,17.3a2,2,0,0,0,.23-.37.81.81,0,0,0,.08-.31s0-.06,0-.06S36.43,16.59,36.47,16.65Zm.4,1.3a.15.15,0,0,1,0,.08.32.32,0,0,1,0,.05s0,.1,0,.19a2.55,2.55,0,0,1-.08.45,1.48,1.48,0,0,1-.15.35.93.93,0,0,1-.14.19l-.05,0s0,0,0,0v0a1.44,1.44,0,0,0,.16-.26,1.32,1.32,0,0,0,.1-.25,2.78,2.78,0,0,0,.07-.35,4.5,4.5,0,0,0,0-.51v0Zm.89-.51s0,0,0,.06a0,0,0,0,1,0,0l-.55.05v1.86c0,.09,0,.18,0,.27s0,.12,0,.12,0,0-.08-.1a.18.18,0,0,1,0-.09.16.16,0,0,1,0-.06.42.42,0,0,0,0-.11,2.26,2.26,0,0,0,0-.28V17.58l-.29,0h0l-.06,0s0,0,0,0a0,0,0,0,1,0,0l.33,0h.08v-.58a1.9,1.9,0,0,0,0-.31.35.35,0,0,1,0-.11s0,0,0,0l.1.07s.08.08.08.1a.27.27,0,0,1,0,.08.51.51,0,0,0,0,.16v.6h0l.24,0,.13,0,.06,0Zm-.37-.56.22.18a.14.14,0,0,1,0,.08.37.37,0,0,1,0,.11s0,0,0,0,0,0,0,0L37.4,17a.28.28,0,0,1-.05-.09,0,0,0,0,1,0,0Zm.1,1a.15.15,0,0,1,0,.07.12.12,0,0,1,0,.05.3.3,0,0,0,0,.11v.65a.42.42,0,0,0,0,.19s.06.05.14.06a.5.5,0,0,0,.2,0l.06,0L38,19S38,19,38,19s0,0-.06,0l-.26,0a.31.31,0,0,1-.24-.08.41.41,0,0,1-.06-.25v-.58c0-.18,0-.29,0-.33s0,0,0,0Zm1.42-.26s0,0,0,.06a0,0,0,0,1,0,0l-.65,0,0,0s.08.08.08.1a.13.13,0,0,1,0,0,.23.23,0,0,0,0,.08v1.57a1,1,0,0,1,0,.2c0,.05,0,.08-.05.08s0,0,0,0a4.85,4.85,0,0,0-.33-.43l0,0s0,0,0,0l.15.12a.77.77,0,0,0,.17.15s0,0,0-.08V18.24a2.06,2.06,0,0,0,0-.43l0-.07-.34,0h0l-.07,0,0,0s0,0,0,0l.38,0,.24,0,.27,0,.15,0h.07Zm-.28-.52s0,0,0,.06a0,0,0,0,1,0,0l-.39,0-.25,0h0l-.07,0s0,0,0,0a0,0,0,0,1,0,0l.23,0,.15,0,.16,0,.09,0h0Z"/><path class="cls-2" d="M41.13,18.36a.5.5,0,0,1-.23.18h0a.59.59,0,0,0,.15-.18.42.42,0,0,0,.07-.18s0-.07-.1-.07-.13,0-.13-.12.05-.13.15-.13a.18.18,0,0,1,.15.07.28.28,0,0,1,.05.17A.43.43,0,0,1,41.13,18.36Z"/><path class="cls-2" d="M44.25,16.54a.29.29,0,0,1,.06.12.12.12,0,0,1,0,.07,1.21,1.21,0,0,0-.18.31L44,17.3v2.6s0,.06,0,.06,0,0-.08-.08a.23.23,0,0,1,0-.11.42.42,0,0,1,0-.13,1.05,1.05,0,0,0,0-.24V17.46l-.15.23a3.79,3.79,0,0,1-.46.52l0,0s0,0,0,0l0,0a3.24,3.24,0,0,0,.43-.55,4.36,4.36,0,0,0,.39-.72,1.2,1.2,0,0,0,.1-.44s0,0,0,0S44.2,16.48,44.25,16.54Zm.13.91s.06.07.06.08a.41.41,0,0,1,0,.08.71.71,0,0,0,0,.13v1.32s0,0,0,0,0,0-.07-.06a.19.19,0,0,1,0-.09v0a.33.33,0,0,0,0-.12V17.63a.68.68,0,0,0,0-.17l0-.05h0Zm1.68,1.4a.37.37,0,0,1,0,.1,2.42,2.42,0,0,1-.29.24,4,4,0,0,1-.46.33,6.43,6.43,0,0,1-.69.32l-.23.07a0,0,0,0,1,0,0l0,0a6,6,0,0,0,.63-.31,3.42,3.42,0,0,0,.61-.42,1,1,0,0,0,.3-.35s0-.06,0-.06S46,18.79,46.06,18.85Zm-.18-1.66a.32.32,0,0,1,0,.09,2.4,2.4,0,0,1-.24.29l-.15.17.1.08a2,2,0,0,0,.5.33,1.81,1.81,0,0,0,.51.08h0a0,0,0,0,1,0,0l-.46.12a.09.09,0,0,1-.08,0L45.66,18l-.2-.18-.19.18a3.8,3.8,0,0,1-.57.39l-.19.09s0,0,0,0l0,0A3.9,3.9,0,0,0,45,18a3.52,3.52,0,0,0,.35-.32L45,17.39l0,0s0,0,0,0h.06a4.53,4.53,0,0,0,.36.33l.1-.12a1.16,1.16,0,0,0,.25-.41s0-.06,0-.06S45.85,17.12,45.88,17.18Zm-.64-.59a.27.27,0,0,1,.05.11.08.08,0,0,1,0,.05.8.8,0,0,0-.13.22l0,.09.31,0,.2,0,.23,0L46,17H46a.13.13,0,0,1,.08,0s0,0,0,.07a0,0,0,0,1,0,0l-.55,0-.35,0h0l-.07,0,0,0a3,3,0,0,1-.2.33,2.76,2.76,0,0,1-.32.37l0,0s0,0,0,0l0,0a2.7,2.7,0,0,0,.29-.4,3.38,3.38,0,0,0,.26-.52.91.91,0,0,0,.07-.32s0,0,0,0S45.2,16.54,45.24,16.59Zm.52,1.92a.27.27,0,0,1,0,.09,0,0,0,0,1,0,0l-.25.19a3.89,3.89,0,0,1-.44.32,4.21,4.21,0,0,1-.43.23h0s0,0,0,0l0,0a4,4,0,0,0,.67-.42,1.51,1.51,0,0,0,.4-.45l0,0S45.74,18.47,45.76,18.51Zm-.26-.33a.27.27,0,0,1,0,.09,0,0,0,0,1,0,0l-.18.14-.32.24a2.27,2.27,0,0,1-.31.17h0s0,0,0,0l0,0a2.87,2.87,0,0,0,.47-.34,1.07,1.07,0,0,0,.28-.36l0,0S45.48,18.14,45.5,18.19Z"/><path class="cls-2" d="M48.27,17.26a.14.14,0,0,1,0,.07s0,0,0,.05a1.51,1.51,0,0,0-.2.26l-.15.21v.34l0,0h0l.21-.23a.53.53,0,0,0,.11-.2l0,0s0,0,0,.08a.43.43,0,0,1,0,.08s0,0,0,0l-.1.07-.26.21.34.27a.11.11,0,0,1,0,.09s0,0,0,.08a.37.37,0,0,1,0,.05s0,0-.06,0a3.7,3.7,0,0,0-.38-.44v1.62s0,.06,0,.06,0,0-.08-.09a.2.2,0,0,1,0-.11.48.48,0,0,1,0-.13,1.05,1.05,0,0,0,0-.24V18l-.13.15a4.61,4.61,0,0,1-.55.53.35.35,0,0,1-.11.07s0,0,0,0l0,0a6.28,6.28,0,0,0,.76-.81,3,3,0,0,0,.29-.45l-.48.05-.2,0h-.07a.11.11,0,0,1-.07,0s0,0,0,0,0,0,0,0a4.26,4.26,0,0,0,.81-.09.14.14,0,0,0,.08-.08l0,0Zm-.56-.7.3.26a.18.18,0,0,1,.06.11.46.46,0,0,1,0,.13,0,0,0,0,1,0,0s0,0,0,0l-.24-.39a.45.45,0,0,1-.07-.12,0,0,0,0,1,0,0Zm2.48.52s0,0,0,.07a0,0,0,0,1,0,0l-.88.05v.45l.55-.05s0,0,.07-.06,0,0,0,0l.07,0s.05,0,.05.07,0,0-.06.08a.14.14,0,0,0,0,.08V19.6a.79.79,0,0,1,0,.21.07.07,0,0,1,0,.05l-.06,0a4.17,4.17,0,0,0-.46-.38,0,0,0,0,1,0,0l0,0,.07,0a1.53,1.53,0,0,0,.38.16s0,0,0,0,0-.06,0-.1,0-.08,0-.15V17.7l-.61.06v.44l.18,0,.12,0h0l.08,0s0,0,0,.06a0,0,0,0,1,0,0l-.45,0v.38l.18,0,.12,0h0l.08,0s0,0,0,.06a0,0,0,0,1,0,0l-.45,0v.7c0,.09,0,.18,0,.26s0,.12,0,.12,0,0-.08-.1a.19.19,0,0,1,0-.09.13.13,0,0,1,0-.06.46.46,0,0,0,0-.11,2.24,2.24,0,0,0,0-.28v-.43l-.29,0h0a.09.09,0,0,1-.06,0s0,0,0,0a0,0,0,0,1,0,0l.29,0h.12V18.3l-.28,0h0a.09.09,0,0,1-.06,0s0,0,0,0a0,0,0,0,1,0,0l.29,0h.11v-.44l-.53.05c0,1.06,0,1.69,0,1.88a.44.44,0,0,1,0,.13s0,.05,0,.05,0,0-.06-.09a.32.32,0,0,1,0-.13.22.22,0,0,1,0-.08.77.77,0,0,0,0-.19c0-.28,0-.8,0-1.54a2.22,2.22,0,0,0,0-.24,1.19,1.19,0,0,1,0-.12s0,0,0,0,0,0,.07.12a.73.73,0,0,1,0,.16l.53-.05v-.45h0l-.64,0h-.07l-.07,0s-.05,0-.05-.05a0,0,0,0,1,0,0l.58,0,.24,0v-.26a2,2,0,0,0,0-.31.36.36,0,0,1,0-.11h0l.1.07c.05,0,.08.08.08.1a.25.25,0,0,1,0,.08.51.51,0,0,0,0,.16v.29h0l.42,0,.23,0h.1A.12.12,0,0,1,50.19,17.08Zm-.6-.49a1.8,1.8,0,0,1,.24.18.13.13,0,0,1,0,.08.39.39,0,0,1,0,.11s0,0,0,0l0,0-.2-.29a.31.31,0,0,1-.06-.09,0,0,0,0,1,0,0Z"/><path class="cls-2" d="M53.27,16.67l.06.07a.09.09,0,0,1,0,.07s-.07,0-.08.07l-.32.89.5,0a.15.15,0,0,0,.11-.07c0-.05.06-.08.07-.08l.09.06s.06.06.06.08,0,0,0,.07a1.4,1.4,0,0,0-.19.31,4,4,0,0,1-.36.61,1.92,1.92,0,0,1-.19.23,4,4,0,0,0,.41.38,1.55,1.55,0,0,0,.41.26,2.48,2.48,0,0,0,.49.1l0,0h0l-.61.06H53.5L52.86,19l-.13.12a3.52,3.52,0,0,1-.62.45,4.33,4.33,0,0,1-.57.28l-.08,0s0,0,0,0l.07,0,.53-.3a3.18,3.18,0,0,0,.57-.42l.18-.18-.6-.7a.71.71,0,0,0-.13-.15s0,0,0,0,0,0,.07,0h.08l0,0a3.19,3.19,0,0,0,.44.6l.21.24a2.76,2.76,0,0,0,.23-.28,3.85,3.85,0,0,0,.39-.75l-1.11.07h-.11l-.09,0s-.07,0-.07,0,0,0,0,0l.7,0,.36-1-1,.07,0,.06a.41.41,0,0,1,.06.13.12.12,0,0,1,0,.06,1.67,1.67,0,0,0-.12.47,6.37,6.37,0,0,1-.25,1,3.39,3.39,0,0,1-.37.75,2.7,2.7,0,0,1-.45.5l-.08,0a0,0,0,0,1,0,0s0,0,0,0a3.06,3.06,0,0,0,.48-.63,3.23,3.23,0,0,0,.29-.6,5.27,5.27,0,0,0,.2-.81,9.12,9.12,0,0,0,.11-.95l-.49,0h-.2l-.07,0,0,0h0l1.79-.12a.13.13,0,0,0,.1-.06s0-.07.05-.07Z"/><path class="cls-2" d="M56,16.94l.05.07a.09.09,0,0,1,0,.08.1.1,0,0,0,0,.05l-.12.67h0l.07,0,0,0s0,0-.06,0l-.81.08v1.24l.8-.55,0,0h0s0,0-.06.07a9.92,9.92,0,0,0-.76.66c0,.05-.05.08-.09.08a.16.16,0,0,1-.1,0s-.07,0-.07-.06l0,0,.05-.07a.36.36,0,0,0,0-.23V17.95s0-.1,0-.16a1.21,1.21,0,0,1,0-.14s0,0,0,0,0,0,.07.11,0,.11,0,.15a5.27,5.27,0,0,0,.62-.06l.13-.73-.74.09-.1,0a.11.11,0,0,1-.07,0l0,0,0,0,.84-.12a.1.1,0,0,0,.09-.06s0-.06.06-.06Zm.68-.37a.31.31,0,0,1,.06.12.16.16,0,0,1,0,.08,1.41,1.41,0,0,0-.13.35l-.11.32.72-.07a2,2,0,0,0,.34-.05h.07l.1,0s.06,0,.06,0v0l-.55,0,0,.06a.31.31,0,0,1,.05.12.19.19,0,0,1,0,.09,3.39,3.39,0,0,0-.15.41,3.91,3.91,0,0,1-.26.62c.08.13.16.26.25.38a1.68,1.68,0,0,0,.45.47,2.21,2.21,0,0,0,.43.1s0,0,0,0a0,0,0,0,1,0,0l-.57.06s-.06,0-.08-.07c-.17-.33-.34-.64-.53-.93a2.3,2.3,0,0,1-.54.65,4.57,4.57,0,0,1-.62.43l-.09,0a0,0,0,0,1,0,0l0,0a6.15,6.15,0,0,0,.58-.42,2.55,2.55,0,0,0,.59-.72l0,0c-.21-.35-.37-.58-.45-.7s0,0,0,0c-.08.16-.17.31-.27.46l0,0s0,0,0,0a.09.09,0,0,1,0,0,4.08,4.08,0,0,0,.29-.62,6.77,6.77,0,0,0,.27-.8,2.09,2.09,0,0,0,.07-.49s0,0,0,0S56.67,16.51,56.71,16.57Zm-.36,1.36a.07.07,0,0,1,.06,0q.19.38.4.72a3.26,3.26,0,0,0,.34-1.2l-.68.06c0,.12-.09.23-.13.31l0,.08Z"/><path class="cls-2" d="M59.64,16.54l.21.28a.3.3,0,0,1,0,.12.37.37,0,0,1,0,.11l.34,0,.18,0a3,3,0,0,0,.1-.32,1.88,1.88,0,0,0,.06-.29s0,0,0,0,0,0,.07.09a.29.29,0,0,1,0,.12.07.07,0,0,1,0,0l-.23.39.23,0,.25,0,.11,0a.14.14,0,0,1,.08,0,.11.11,0,0,1,0,.07,0,0,0,0,1,0,0l-.93.05v.33l.36,0,.2,0h.09l.08,0s0,0,0,.06,0,0,0,0l-.75.06v.36h.11l.57-.05.31,0,.14,0a.14.14,0,0,1,.12.11h0l-.71,0,0,.06a.34.34,0,0,1,0,.1,0,0,0,0,1,0,0l-.28.36,0,0a6.38,6.38,0,0,0,1.05-.16l.1,0,.1,0,.08.07s0,0,0,0l-1.85.14-1.09.12h-.1a.2.2,0,0,1-.12-.05s0,0,0-.05,0,0,0,0l1.14,0,0,0-.18-.32a.35.35,0,0,1-.05-.1,0,0,0,0,1,0,0l0,0,.23.2a.15.15,0,0,1,0,.09.46.46,0,0,1,0,.13s0,0,0,0l.33,0,.37,0v0a2.4,2.4,0,0,0,.14-.3,1,1,0,0,0,.08-.24h0l-.61,0-.88.07h-.1A.11.11,0,0,1,59,18s0,0,0-.06a0,0,0,0,1,0,0l.8,0,.32,0v-.36h0l-.56.05h-.07l-.07,0,0,0h0l.51,0,.24,0v-.33h-.07l-.7.05-.08,0-.07,0s0,0,0-.06a0,0,0,0,1,0,0l.64,0h0l-.18-.39a.5.5,0,0,1,0-.12,0,0,0,0,1,0,0Zm0,2.38a.62.62,0,0,1,0,.16l1-.14c.07,0,.11,0,.13-.06s0-.06.06-.06,0,0,.08.06,0,0,0,.06a.11.11,0,0,1,0,.06.14.14,0,0,0,0,.09l-.08.54h0l.06,0,0,0s0,0-.1,0l-1.18.1s0,.09,0,.14,0,.06,0,.06,0,0-.05-.07a.35.35,0,0,1,0-.1.4.4,0,0,1,0-.07c0-.07,0-.2,0-.37s0-.26,0-.4a1.32,1.32,0,0,0,0-.19,0,0,0,0,1,0,0S59.58,18.85,59.61,18.92Zm1.08.72.07-.62-1.12.15c0,.11,0,.3,0,.57A8.42,8.42,0,0,0,60.69,19.64Z"/><path class="cls-2" d="M64.61,16.6s.07.08.07.09,0,0,0,0l-.41.14-.42.15,0,0s.08.08.08.1a.35.35,0,0,1,0,.1.79.79,0,0,0,0,.23v.24l.37,0a4.93,4.93,0,0,0,.61-.1h.08l.08,0,.06.05s0,0,0,0l-1.16.13v.7l.63-.07a6.76,6.76,0,0,0,.82-.13l.11,0,.08,0,.07.05s0,0,0,0l-1.66.18v.24a2.59,2.59,0,0,0,0,.53.38.38,0,0,0,.11.21.59.59,0,0,0,.33.11l.51,0,.3-.05a.12.12,0,0,0,.08-.08c0-.09,0-.29,0-.62,0,0,0,0,0,0s0,0,0,0a3.3,3.3,0,0,0,.13.67.35.35,0,0,1,0,.1s0,0-.07.06a3.08,3.08,0,0,1-.44.06c-.2,0-.4,0-.6,0a.9.9,0,0,1-.31-.06.38.38,0,0,1-.18-.13.64.64,0,0,1-.1-.25,2.23,2.23,0,0,1,0-.42v-.35l-1,.13-.13,0-.08,0c-.06,0-.09,0-.09-.07s0,0,.06,0l1.27-.12v-.7l-.8.11-.09,0-.07,0c-.05,0-.08,0-.08-.05l0,0,1-.11v-.33c0-.09,0-.17,0-.26a.93.93,0,0,1,0-.1l-.42.12a2,2,0,0,1-.45.09s0,0,0,0,0,0,0,0a7,7,0,0,0,1.06-.33,1.52,1.52,0,0,0,.52-.29s.05,0,.07,0Z"/><path class="cls-2" d="M69.33,17.67s0,.05,0,.07a0,0,0,0,1,0,0l-1.73.11q-.91.06-1.11.09l-.13,0-.07,0s0,0,0-.06h0l1-.06.65-.05.73-.06.39,0,.18,0A.11.11,0,0,1,69.33,17.67Zm-2.18.49,0,.1,1.22-.16c.07,0,.11,0,.12-.06s0-.06.06-.06,0,0,.07.06a.12.12,0,0,1,0,.06.1.1,0,0,1,0,.06.14.14,0,0,0,0,.08l-.07.55h0l.07,0,0,0s0,0-.11,0l-.65.05v.31h0l.4,0,.21,0,.1,0a.13.13,0,0,1,.08,0s0,0,0,.07a0,0,0,0,1,0,0l-.85.06v.36a9.21,9.21,0,0,0,1.22-.15l.08,0,.1.05s.08.05.08.07a0,0,0,0,1,0,0l-1.63.11c-.59,0-.91.07-1,.09l-.09,0a.23.23,0,0,1-.12-.05s0,0,0-.05,0,0,0,0l1.23-.05v-.36l-.59.05-.07,0-.07,0s0,0,0-.06a0,0,0,0,1,0,0l.56,0,.2,0V19l-.6.06v.1s0,.05,0,.05,0,0-.05-.07a.23.23,0,0,1,0-.1.37.37,0,0,1,0-.07,2.82,2.82,0,0,0,0-.33c0-.11,0-.23,0-.37a1.29,1.29,0,0,0,0-.18h0S67.12,18.09,67.15,18.16Zm0-1.52a.6.6,0,0,1,0,.14l1.19-.15c.07,0,.11,0,.12-.06s0-.06.06-.06,0,0,.07.06a.12.12,0,0,1,0,.06.11.11,0,0,1,0,.06.12.12,0,0,0,0,.08l-.11.59h0l.05,0,0,0s0,0-.1,0l-1.32.11v.07c0,.08,0,.13,0,.13s0,0,0-.06a.23.23,0,0,1,0-.12.2.2,0,0,1,0-.06,2.72,2.72,0,0,0,0-.34c0-.22,0-.38,0-.5a.81.81,0,0,1,0-.1s0,0,0,0S67.16,16.58,67.19,16.64Zm.59,2.24V18.6l-.27,0h-.13a.07.07,0,0,1-.06,0,.06.06,0,0,1,0,0h0l.48,0v-.25l-.6.07c0,.08,0,.28,0,.58Zm.65-1.51.09-.65-1.29.15s0,.09,0,.14v.11a4.78,4.78,0,0,0,.86-.1h.08l.05,0,0,0s0,0-.08,0l-1,.1v.27A9,9,0,0,0,68.43,17.37Zm-.53,1.15.21,0h.1l.06,0,0,0s0,0,0,0l-.41,0v.28a2.93,2.93,0,0,0,.54-.08h0l0-.61-.61.08Z"/><path class="cls-2" d="M72,18.53a.45.45,0,0,1-.33.13.46.46,0,0,1,0-.93.47.47,0,0,1,.47.47A.44.44,0,0,1,72,18.53Zm-.06-.6a.38.38,0,0,0-.27-.11.36.36,0,0,0-.27.11.37.37,0,0,0-.11.27.37.37,0,0,0,.37.37.37.37,0,0,0,.27-.11A.36.36,0,0,0,72,18.2.38.38,0,0,0,71.92,17.93Z"/><rect class="cls-3" width="9.45" height="35"/><path class="cls-4" d="M3.57,12.91a3.42,3.42,0,0,1-.26.71l-.16-.07a3.86,3.86,0,0,0,.25-.69Zm.81-1.35a4.64,4.64,0,0,1-.81.94,3.79,3.79,0,0,0,.52-.09L4,12.25l.15-.06a2.14,2.14,0,0,1,.17.47l-.16,0a.76.76,0,0,0,0-.13,6.83,6.83,0,0,1-.92.13l-.05-.15a2.37,2.37,0,0,0,.71-.61,5.15,5.15,0,0,1-.65.06l0-.14a2.85,2.85,0,0,0,.67-.79l.16.09a2.54,2.54,0,0,1-.52.65A4.29,4.29,0,0,0,4,11.75l.2-.28Zm.26-.71h-.4v.22H4v-.22H3.18v-.17H4v-.29h.19v.29h.4ZM4,13.44l-.17,0a3.69,3.69,0,0,0-.1-.6l.16,0A4,4,0,0,1,4,13.44Zm.39-.2-.16.06A3.4,3.4,0,0,0,4,12.82l.16-.06A3.62,3.62,0,0,1,4.36,13.24Zm1.94.32H4.19v-.17h.27v-.84H6.11v.84H6.3ZM6,12.32H4.53v-1.1H6ZM5,13.39v-.67H4.64v.67Zm.85-1.24v-.76H4.73v.76Zm-.08-.22-.1.14a3,3,0,0,0-.37-.28,2.2,2.2,0,0,1-.34.29L4.79,12a1.62,1.62,0,0,0,.5-.5l.16.06-.09.14A2.34,2.34,0,0,1,5.73,11.92Zm.57-1.08H5.4v.22H5.21v-.22H4.8v-.17h.41v-.29H5.4v.29h.9Zm-.85,2.54v-.67H5.14v.67Zm.48,0v-.67H5.63v.67Z"/><path class="cls-4" d="M6.15,15H3.7v.63a4.06,4.06,0,0,1-.36,1.72l-.16-.13a3.56,3.56,0,0,0,.34-1.6V14.15H6.15Zm-1.4-.18v-.44h-1v.44ZM6.08,17.3H5.9V17H4.23v.26H4v-2h2ZM5.9,15.8v-.32H4.23v.32Zm0,.52V16H4.23v.34Zm0,.53V16.5H4.23v.35ZM6,14.78v-.44h-1v.44Z"/><path class="cls-4" d="M3.57,20.29a3.42,3.42,0,0,1-.26.71l-.16-.07a3.86,3.86,0,0,0,.25-.69Zm.81-1.35a4.64,4.64,0,0,1-.81.94,3.78,3.78,0,0,0,.52-.09L4,19.63l.15-.06a2.14,2.14,0,0,1,.17.47l-.16,0a.76.76,0,0,0,0-.13,6.83,6.83,0,0,1-.92.13l-.05-.15a2.38,2.38,0,0,0,.71-.61,5.14,5.14,0,0,1-.65.06l0-.14a2.85,2.85,0,0,0,.67-.79l.16.09a2.54,2.54,0,0,1-.52.65A4.29,4.29,0,0,0,4,19.13l.2-.28Zm.26-.71h-.4v.22H4v-.22H3.18V18H4v-.29h.19V18h.4ZM4,20.82l-.17,0a3.69,3.69,0,0,0-.1-.6l.16,0A4,4,0,0,1,4,20.82Zm.39-.2-.16.06A3.39,3.39,0,0,0,4,20.2l.16-.06A3.62,3.62,0,0,1,4.36,20.62Zm1.94.32H4.19v-.17h.27v-.84H6.11v.84H6.3ZM6,19.7H4.53v-1.1H6ZM5,20.76V20.1H4.64v.67Zm.85-1.24v-.76H4.73v.76Zm-.08-.22-.1.14a3,3,0,0,0-.37-.28,2.2,2.2,0,0,1-.34.29l-.12-.12a1.62,1.62,0,0,0,.5-.5l.16.06L5.37,19A2.34,2.34,0,0,1,5.73,19.3Zm.57-1.08H5.4v.22H5.21v-.22H4.8V18h.41v-.29H5.4V18h.9Zm-.85,2.54V20.1H5.14v.67Zm.48,0V20.1H5.63v.67Z"/><path class="cls-4" d="M4.05,24.2H3.88V24h-.4v.22H3.3V21.68h.75Zm-.17-1.81v-.53h-.4v.53Zm0,.71v-.53h-.4v.53Zm0,.76v-.58h-.4v.58Zm2.45.57-.06.18H5.55a1.22,1.22,0,0,1-1.07-.42,2.26,2.26,0,0,1-.33.49L4,24.55a1.84,1.84,0,0,0,.5-1l.18.06a2.59,2.59,0,0,1-.11.37.77.77,0,0,0,.51.4v-1H4.33v-.18h.74v-.35h-.9v-.18h.9v-.32H4.33v-.18h.75v-.28H4.25v-.18h.83v-.3h.18v.3h1v.18h-1v.28H6v.5h.31v.18H6v.52H5.25v.32h.88v.18H5.25v.5H6.32Zm-.51-1.72v-.32H5.25v.32Zm0,.53v-.35H5.25v.35Z"/><line class="cls-5" x1="21.3" y1="15.35" x2="17.15" y2="22.39"/><line class="cls-5" x1="77.33" y1="15.35" x2="73.19" y2="22.39"/><path class="cls-6" d="M79.55,9.7a1.68,1.68,0,0,1-.77.61l0,0a2,2,0,0,0,.52-.59,1.42,1.42,0,0,0,.24-.59c0-.15-.11-.24-.33-.24s-.44-.13-.44-.4.17-.42.52-.42a.62.62,0,0,1,.49.23,1,1,0,0,1,.18.58A1.46,1.46,0,0,1,79.55,9.7Z"/><path class="cls-6" d="M81,9.7a1.68,1.68,0,0,1-.77.61l0,0a2,2,0,0,0,.52-.59,1.42,1.42,0,0,0,.24-.59c0-.15-.11-.24-.33-.24s-.44-.13-.44-.4.17-.42.52-.42a.62.62,0,0,1,.49.23,1,1,0,0,1,.18.58A1.46,1.46,0,0,1,81,9.7Z"/><g class="cls-7"><rect class="cls-3" x="91.99" y="15.02" width="3.01" height="3.72" transform="translate(43.68 -64.02) rotate(48.15)"/><polygon class="cls-3" points="90.94 17.14 92.95 19.38 92.08 20.16 91.11 20.11 90.01 18.88 90.11 17.89 90.94 17.14"/><rect class="cls-8" x="89.43" y="19.33" width="1.12" height="1.43" transform="translate(9.59 65.16) rotate(-41.85)"/><polygon class="cls-8" points="89.1 19.89 87.85 21.01 89.68 21.29 90.05 20.95 89.1 19.89"/><line class="cls-8" x1="88.37" y1="21.06" x2="88.86" y2="20.61"/><line class="cls-8" x1="88.7" y1="21.18" x2="89.07" y2="20.85"/><path class="cls-3" d="M83.76,21.18c-.28.23-.44-.08-.12-.66a23.5,23.5,0,0,0,2.19-5.19S85.25,20,83.76,21.18Z"/><path class="cls-3" d="M84.71,21.55c-.28.23-.44-.08-.12-.66a23.5,23.5,0,0,0,2.19-5.19S86.2,20.36,84.71,21.55Z"/><path class="cls-3" d="M85.7,21.81c-.28.23-.44-.08-.12-.66A23.5,23.5,0,0,0,87.77,16S87.19,20.62,85.7,21.81Z"/></g></svg>