<svg id="圖層_1" data-name="圖層 1" xmlns="http://www.w3.org/2000/svg" viewBox="0 0 100 35"><defs><style>.cls-1{fill:#f5f5f5;stroke:#fff;}.cls-1,.cls-6{stroke-miterlimit:10;}.cls-2,.cls-4{fill:#647384;}.cls-2{opacity:0.4;}.cls-3{fill:#3d3d3d;}.cls-5{fill:#fff;}.cls-6{fill:none;stroke:#647384;stroke-width:0.3px;}.cls-7{fill:#ad8066;}</style></defs><title>lesson_cont_9</title><rect class="cls-1" x="-269.5" y="-127.5" width="375" height="177"/><path class="cls-2" d="M84.66,17.13a.57.57,0,0,0,.13.29,1.87,1.87,0,0,0,1.58,1.63c.82,0,1.41-.93,1.54-1.63a.72.72,0,0,0,.14-.32.74.74,0,0,0,0-.53l0,0a1.38,1.38,0,0,0-.21-1.47,2.34,2.34,0,0,0-1-.55,1.55,1.55,0,0,0-2.07.93,1.62,1.62,0,0,0,0,1.09l0,0c-.1.13,0,.4,0,.56Zm0,0"/><path class="cls-2" d="M89.93,22.07a4.57,4.57,0,0,0-.6-2.4,1.21,1.21,0,0,0-.52-.35,5.27,5.27,0,0,1-1.16-.5l-.17.11,0,1.08-1,2.67a.15.15,0,0,1-.14.1.15.15,0,0,1-.14-.1l-1-2.67,0-1.08-.17-.11a5.24,5.24,0,0,1-1.16.5,1.2,1.2,0,0,0-.52.35,4.57,4.57,0,0,0-.6,2.4c0,.43.07.59.18.63a13.85,13.85,0,0,0,6.78,0c.11,0,.2-.21.18-.63Zm0,0"/><path class="cls-2" d="M86.39,19.4h0a1.36,1.36,0,0,1-.44-.08l.4.61-.36.34.37,2.23a0,0,0,0,0,.08,0l.37-2.23-.36-.34.39-.6a1.68,1.68,0,0,1-.4.07Zm0,0"/><path class="cls-3" d="M30.85,16.31a1.71,1.71,0,0,1,0,.35,1.4,1.4,0,0,1-.12.27c0,.08-.08.13-.1.13s0,0,0,0a.83.83,0,0,1,0-.17.12.12,0,0,1,0-.08.78.78,0,0,0,.1-.14,1,1,0,0,0,.12-.34s0,0,0,0S30.85,16.3,30.85,16.31ZM31.38,14a.31.31,0,0,1,0,.11.06.06,0,0,1,0,0l-.14.16-.49.83.55-.08a1.85,1.85,0,0,0,.25-.53,0,0,0,0,1,0,0s0,0,.08.1a.31.31,0,0,1,0,.11.07.07,0,0,1,0,.06l-.19.18-.68.94.79-.16-.09-.21a.16.16,0,0,1,0-.06h0l0,0a2.59,2.59,0,0,1,.2.27.24.24,0,0,1,0,.1.24.24,0,0,1,0,.1s0,.07-.06.07,0,0,0,0a1.7,1.7,0,0,0-.06-.18,7.56,7.56,0,0,0-.78.23l-.12,0s0,0,0,0a.15.15,0,0,1,0-.06,0,0,0,0,1,0,0,.62.62,0,0,0,.2-.17,6.27,6.27,0,0,0,.42-.6l-.51.13-.08,0s0,0,0,0a.13.13,0,0,1,0-.06s0,0,0,0a.52.52,0,0,0,.14-.16c.12-.2.23-.39.33-.58a2.38,2.38,0,0,0,.18-.47s0,0,0,0S31.34,14,31.38,14Zm-.2,2.26a2.18,2.18,0,0,1,.14.41.2.2,0,0,1,0,.1s0,.07-.06.07,0,0,0,0c0-.18,0-.33,0-.43a1.09,1.09,0,0,1,0-.15,0,0,0,0,1,0,0ZM33,15.09a.34.34,0,0,1,.05.12.21.21,0,0,1,0,.08,2.77,2.77,0,0,0-.15.37,3.73,3.73,0,0,1-.26.58l0,0a2.08,2.08,0,0,0,.5.64,1.51,1.51,0,0,0,.59.17l0,0s0,0,0,0l-.65,0a.11.11,0,0,1-.08-.07c-.08-.16-.21-.42-.41-.76a2.26,2.26,0,0,1-.48.52,4.11,4.11,0,0,1-.6.39l-.08,0a0,0,0,0,1,0,0l0,0a4.43,4.43,0,0,0,.56-.39,2.1,2.1,0,0,0,.43-.44l.11-.15-.07-.12c-.22-.37-.36-.61-.44-.71a.09.09,0,0,1,0-.07,0,0,0,0,1,0,0l.07,0a.13.13,0,0,1,.1.06,2.66,2.66,0,0,0,.39.77,3.14,3.14,0,0,0,.23-.52,2.57,2.57,0,0,0,.14-.68s0,0,0,0S32.93,15,33,15.09Zm-1.43,1a2.36,2.36,0,0,1,.2.28.23.23,0,0,1,0,.1.24.24,0,0,1,0,.1s0,.07-.06.07,0,0,0,0a2.81,2.81,0,0,0-.17-.44.16.16,0,0,1,0-.06s0,0,0,0Zm1.85-1.28s0,.05,0,.07a0,0,0,0,1,0,0l-.91.1-.59.08-.07,0a.14.14,0,0,1-.08,0s-.05,0-.05-.06a0,0,0,0,1,0,0l.54-.05.34,0,.39-.06.21,0,.09,0A.15.15,0,0,1,33.38,14.85ZM32.3,14a2.47,2.47,0,0,1,.25.34.31.31,0,0,1,.05.12.3.3,0,0,1,0,.1c0,.05,0,.08-.05.08s0,0,0-.06a3.22,3.22,0,0,0-.23-.53.22.22,0,0,1,0-.07,0,0,0,0,1,0,0Z"/><path class="cls-3" d="M34.48,16.24a1.7,1.7,0,0,1-.1.66c0,.08-.06.13-.1.13s0,0-.05-.05l0-.07a.1.1,0,0,1,0-.07,1.38,1.38,0,0,0,.21-.68s0,0,0,0S34.48,16.17,34.48,16.24ZM35.05,14a.36.36,0,0,1,0,.1.07.07,0,0,1,0,0l-.12.15-.44.77L35,15a2.28,2.28,0,0,0,.21-.5s0,0,0,0,0,0,.07.09a.27.27,0,0,1,0,.1.07.07,0,0,1,0,.05l-.16.18-.57.92.59-.15-.08-.19,0-.07a0,0,0,0,1,0,0l0,0a2.07,2.07,0,0,1,.21.31.3.3,0,0,1,0,.11.24.24,0,0,1,0,.1s0,.07-.05.07,0,0,0-.05l-.08-.25a4.8,4.8,0,0,0-.6.21l-.09,0s0,0,0,0a.09.09,0,0,1,0-.05,0,0,0,0,1,0,0,.59.59,0,0,0,.17-.17c.14-.21.26-.41.37-.6l-.44.11-.07,0s0,0,0,0a.09.09,0,0,1,0-.05s0,0,0,0a.63.63,0,0,0,.13-.15c.11-.18.21-.36.3-.54A2,2,0,0,0,35,14s0,0,0,0S35,14,35.05,14Zm-.29,2.13a2,2,0,0,1,.16.41.2.2,0,0,1,0,.1s0,.07-.06.07,0,0,0,0c0-.18,0-.32-.07-.43s0-.11,0-.15a0,0,0,0,1,0,0S34.75,16.12,34.77,16.16Zm.29-.13a2.39,2.39,0,0,1,.2.29.25.25,0,0,1,0,.1.27.27,0,0,1,0,.08s0,.06,0,.06,0,0,0,0a3.28,3.28,0,0,0-.17-.44L35,16v0Zm.57-.68s.06.08.06.1a.21.21,0,0,1,0,.05.94.94,0,0,0,0,.29v0l.27,0c0-.17,0-.33,0-.49s0,0,0-.08a.15.15,0,0,1,0,0h0l.06,0a.13.13,0,0,1,0,.08l0,0v0q0,.19,0,.41H36l.05,0,0,0s0,0,0,0l-.46,0c0,.18,0,.33,0,.44s0,.13,0,.18l.27,0a0,0,0,0,0,0,0s0,0,0,0l.06,0,0,0s0,0,0,.05a.18.18,0,0,0,0,.1c0,.11,0,.2,0,.29s0,.17,0,.23,0,.06,0,.06,0,0-.05-.06a.24.24,0,0,1,0-.08.07.07,0,0,1,0,0,1,1,0,0,0,0-.11c0-.17,0-.3,0-.38l-.33,0c0,.05,0,.1,0,.15a1.67,1.67,0,0,1-.11.31,2,2,0,0,1-.13.23c-.05.07-.08.11-.1.11a0,0,0,0,1,0,0l0,0,.13-.22a2.19,2.19,0,0,0,.1-.26c0-.11.06-.24.08-.38a4.74,4.74,0,0,0,0-.49c0-.16,0-.29,0-.39s0-.12,0-.19a.41.41,0,0,1,0-.09s0,0,0,0ZM37,14.25l.05.06a.08.08,0,0,1,0,.06.06.06,0,0,0,0,0l0,.21h0l.26,0,.12,0,.07,0s0,0,0,.06a0,0,0,0,1,0,0l-.52,0,0,.26h0L37,15s0,0,0,0v0l-.64,0v1l.23,0,.16,0h.07l.07,0s0,0,0,.06a0,0,0,0,1,0,0l-.57,0v.78c0,.09,0,.18,0,.26s0,.12,0,.12,0,0-.07-.1a.17.17,0,0,1,0-.09.13.13,0,0,1,0-.06.3.3,0,0,0,0-.11,2.37,2.37,0,0,0,0-.28v-.51h0l-.45,0h0l-.07,0,0,0s0,0,0,0l.41,0,.22,0v-1h0l-.5,0h-.06s0,0-.05,0l0,0a0,0,0,0,1,0,0L36,15l.22,0v-.27l-.7.06h-.08a.09.09,0,0,1-.06,0s0,0,0,0a0,0,0,0,1,0,0l.67,0h.2v-.25l-.45,0-.13,0a.08.08,0,0,1-.06,0s0,0,0,0h0l.66-.06v0a1.56,1.56,0,0,0,0-.31.36.36,0,0,1,0-.11h0l.1.07s.08.08.08.1a.26.26,0,0,1,0,.08.49.49,0,0,0,0,.16v.05l.42,0a.12.12,0,0,0,.08-.05l0-.05Zm-.61.43h.13l.36,0,0-.24-.52,0Zm0,.34.29,0,.16,0,0-.26-.48,0Zm.3.15a.12.12,0,0,1,0,.07v.05a.24.24,0,0,0,0,0v.35l.3-.07v-.24a.8.8,0,0,0,0-.2l0-.06v0l.09.06s.07.08.07.09a.25.25,0,0,1,0,.09.46.46,0,0,0,0,.15v1.87s0,0,0,0,0,0-.07-.07a.24.24,0,0,1,0-.1.14.14,0,0,1,0,0,.43.43,0,0,0,0-.13v-.6l-.35,0a.56.56,0,0,0,0,.08V17a.49.49,0,0,1,0,.15h0s0,0,0,0a.1.1,0,0,1,0-.07.16.16,0,0,1,0-.08,1.55,1.55,0,0,0,0-.36s0-.09,0-.18a.15.15,0,0,0,0-.1v0l.06,0s0,0,0,.06h0l.33,0v-.69l-.15,0a.26.26,0,0,0-.13.08l-.06,0h0a.08.08,0,0,1,0,0,.27.27,0,0,1,0-.08.31.31,0,0,0,0-.1v-.24s0-.07,0-.13a.58.58,0,0,0,0-.09,0,0,0,0,1,0,0Z"/><path class="cls-3" d="M39.14,15.27v.07l-.13.43.7,0,.25,0V15h0l-.57,0h-.07l-.07,0s0,0,0-.05a0,0,0,0,1,0,0l.52,0,.24,0v-.56a1.75,1.75,0,0,0,0-.31.92.92,0,0,1,0-.13h0L40,14c.06.06.09.1.09.11a.83.83,0,0,1,0,.12,3.27,3.27,0,0,0,0,.43v.25l.35,0,.2,0h.09a.12.12,0,0,1,.07,0s0,.05,0,.07a0,0,0,0,1,0,0L40,15v.72h.1l.5,0,.28,0H41a.14.14,0,0,1,.08,0s.05,0,.05.07a0,0,0,0,1,0,0L40,15.8h0l0,0A.34.34,0,0,1,40,16s0,0,0,.05a3.52,3.52,0,0,0-.35.47l-.34.48,1.32-.14c-.09-.15-.2-.31-.32-.48a.11.11,0,0,1,0-.07,0,0,0,0,1,0,0l.09,0a4.57,4.57,0,0,1,.45.48.37.37,0,0,1,.1.2,1.32,1.32,0,0,1,0,.16c0,.05,0,.08,0,.08s0,0-.06-.08a2.64,2.64,0,0,0-.14-.28l-.86.13a3.36,3.36,0,0,0-.52.11h-.07l-.08-.06a.21.21,0,0,1,0-.07l0,0a.46.46,0,0,0,.21-.15,5.88,5.88,0,0,0,.42-.67.91.91,0,0,0,.1-.33l-.67,0h-.09l-.08,0,0,0-.14.45c-.1.34-.2.62-.28.83,0,0,0,.06,0,.06s-.06,0-.1-.07l-.29-.36s0-.05,0-.07a0,0,0,0,1,0,0l.15.11a.67.67,0,0,0,.21.14s0,0,.07-.07.13-.33.26-.69.2-.54.31-.85h0Zm-.93-.21a4.1,4.1,0,0,1,.41.24s.07.08.07.11a.46.46,0,0,1,0,.13s0,0,0,0,0,0-.06,0l-.34-.36c-.07-.07-.1-.1-.1-.12a0,0,0,0,1,0,0Zm.31-.81.39.24s.07.07.07.1a.46.46,0,0,1,0,.13s0,0,0,0,0,0-.05,0l-.33-.36c-.07-.06-.1-.1-.1-.11h0Z"/><path class="cls-3" d="M42.87,14.84a.37.37,0,0,1,0,.11,0,0,0,0,1,0,0l-.24.26-.11.14v2s0,.06,0,.06,0,0-.08-.08a.22.22,0,0,1,0-.11.53.53,0,0,1,0-.13,1,1,0,0,0,0-.24V15.5l-.22.22a3.08,3.08,0,0,1-.41.32l0,0s0,0,0,0l0,0a4.51,4.51,0,0,0,.62-.6,2.15,2.15,0,0,0,.37-.63,0,0,0,0,1,0,0S42.85,14.78,42.87,14.84Zm0-.75a.46.46,0,0,1,0,.11,0,0,0,0,1,0,0l-.23.25a4.05,4.05,0,0,1-.41.44,3.22,3.22,0,0,1-.4.3l0,0s0,0,0,0l0,0a3.84,3.84,0,0,0,.6-.57,2,2,0,0,0,.36-.6s0,0,0,0S42.83,14,42.86,14.09Zm1.73.34.06.07a.09.09,0,0,1,0,.07.14.14,0,0,0,0,.07l0,.34h.13l.29,0,.13,0a.15.15,0,0,1,.08,0s0,.05,0,.07a0,0,0,0,1,0,0l-.68,0,0,.39h.05a.12.12,0,0,1,.07,0s0,.05,0,.07a0,0,0,0,1,0,0l-.76,0V16h0l.37,0,.2,0h.09a.12.12,0,0,1,.08,0s0,.05,0,.07a0,0,0,0,1,0,0l-.81.05v.38H44l.54,0,.29,0,.13,0a.15.15,0,0,1,.08,0s.05,0,.05.07a0,0,0,0,1,0,0l-1.21.06v.49c0,.1,0,.2,0,.3s0,.13,0,.13,0,0-.08-.11a.2.2,0,0,1,0-.1.19.19,0,0,1,0-.07.26.26,0,0,0,0-.11,2.64,2.64,0,0,0,0-.31v-.21l-.79.05h-.09l-.08,0s-.05,0-.05-.05a0,0,0,0,1,0,0l.75,0h.24v-.38l-.55,0h-.07l-.07,0s0,0,0-.05a0,0,0,0,1,0,0l.52,0,.19,0v-.38l-.46,0h-.06a.12.12,0,0,1-.07,0s0,0,0-.06a0,0,0,0,1,0,0l.48,0h.15v-.4l-.66.06H43l-.08,0s-.05,0-.05-.05a0,0,0,0,1,0,0l.75,0h.13v-.4l-.38,0-.14,0-.07,0,0,0v0l.61-.07v-.26a1.5,1.5,0,0,0,0-.33.4.4,0,0,1,0-.11,0,0,0,0,1,0,0l.11.07c.05.05.08.09.08.11a.32.32,0,0,1,0,.09.63.63,0,0,0,0,.18v.27l.51-.06a.12.12,0,0,0,.09-.06s0-.07.06-.07Zm-.72.62.25,0,.31,0,0-.42-.6.06Zm0,.49h0l.34,0h.11l0-.4-.49,0h0Z"/><path class="cls-3" d="M46.16,14.13a.62.62,0,0,1,0,.18l.63-.1c.07,0,.11,0,.12-.06s0-.06.06-.06l.07.06a.17.17,0,0,1,0,.06.14.14,0,0,1,0,.05.13.13,0,0,0,0,.08l-.06.73h0l.06,0,0,0s0,0-.06,0l-.85.08c0,1.08,0,1.74,0,2a.57.57,0,0,1,0,.15s0,.06,0,.06,0,0-.08-.11a.41.41,0,0,1,0-.17A.39.39,0,0,1,46,17a1.51,1.51,0,0,0,0-.28c0-.42,0-1.18,0-2.28a1.63,1.63,0,0,0,0-.3,1.32,1.32,0,0,1,0-.15s0,0,0,0S46.12,14,46.16,14.13Zm.75,1,0-.8-.74.1v.32a2.1,2.1,0,0,0,.47-.07h0l.05,0,0,0s0,0,0,0l-.57.07v.36A4.9,4.9,0,0,0,46.9,15.09Zm-.13.57a1.12,1.12,0,0,1,0,.22l.72-.11c.07,0,.11,0,.12-.06s0-.06.06-.06l.07.06a.14.14,0,0,1,0,.06s0,0,0,.05a.12.12,0,0,0,0,.08l-.07.51h0l.06,0,0,0s0,0-.07,0l-.92.09c0,.06,0,.11,0,.17s0,.06,0,.06,0,0-.07-.07a.14.14,0,0,1,0-.08.87.87,0,0,1,0-.12c0-.07,0-.21,0-.42s0-.16,0-.24,0-.18,0-.23,0-.06,0-.06S46.75,15.63,46.77,15.66Zm.82.77.05-.58-.83.12s0,.06,0,.09,0,.3,0,.45A6,6,0,0,0,47.59,16.43Zm-.05-2.31a.48.48,0,0,1,0,.13l.78-.08s0,0,.07-.07,0,0,0,0l.07,0s.05,0,.05.07,0,0-.06.08a.14.14,0,0,0,0,.08V17a1.64,1.64,0,0,1,0,.31.09.09,0,0,1,0,.07.11.11,0,0,1-.07,0,5.82,5.82,0,0,0-.54-.51,0,0,0,0,1,0,0l0,0,.08,0a1.6,1.6,0,0,0,.45.29s0,0,0,0,0-.1,0-.16,0-.12,0-.23V15.09l-.84.08v.12s0,.06,0,.06,0,0-.05-.07a.29.29,0,0,1,0-.1.6.6,0,0,1,0-.08c0-.08,0-.22,0-.42s0-.28,0-.45a1.51,1.51,0,0,0,0-.21,0,0,0,0,1,0,0S47.51,14.05,47.54,14.12Zm.87.12-.84.1c0,.07,0,.17,0,.31a3,3,0,0,0,.54-.07h.06l.05,0,0,0s0,0-.05,0l-.63.07c0,.1,0,.22,0,.34h0l.84-.08Z"/><path class="cls-3" d="M51.16,15.41s0,.05,0,.07a0,0,0,0,1,0,0l-.66.06V16a1.65,1.65,0,0,0,.43-.09h0l.05,0,0,0s0,0,0,0l-.52.08v.58c.43.18.75.3,1,.37a4.09,4.09,0,0,0,1.19.15s.06,0,.06,0,0,0,0,0l-.46.13-.11,0-.09,0-.6-.26q-.67-.29-1.48-.6l0,.08a2.77,2.77,0,0,1-.18.4,2.05,2.05,0,0,1-.28.37l0,0a0,0,0,0,1,0,0s0,0,0,0l.16-.25a3.26,3.26,0,0,0,.18-.35,4.42,4.42,0,0,0,.15-.45,2.39,2.39,0,0,0,.07-.46s0,0,0,0,0,0,.07.08a.29.29,0,0,1,0,.1,0,0,0,0,1,0,0,1.11,1.11,0,0,0-.05.16c0,.1,0,.18-.07.26l.44.18v-1h-.1l-.55.07-.06,0-.07,0s0,0,0-.06a0,0,0,0,1,0,0l.5,0,.32,0,.36,0,.19,0,.08,0A.13.13,0,0,1,51.16,15.41ZM50,14.11a.62.62,0,0,1,0,.15l.64-.11c.07,0,.11,0,.12-.06s0-.06.06-.06l.07.06a.14.14,0,0,1,0,.06.1.1,0,0,1,0,.06.13.13,0,0,0,0,.08l-.07.74h0l.05,0,0,0s0,0-.07,0L50,15.2v.05c0,.08,0,.13,0,.13s0,0,0-.06a.23.23,0,0,1,0-.12.28.28,0,0,1,0-.07c0-.07,0-.2,0-.4s0-.43,0-.56a1,1,0,0,1,0-.11s0,0,0,0S50,14,50,14.11Zm.75.93,0-.8-.75.11s0,.08,0,.13v.23a1.56,1.56,0,0,0,.45-.09h0l.05,0,0,0s0,0,0,0L50,14.8v.31A4,4,0,0,0,50.73,15Zm1.79-.86s0,0,0,.06a0,0,0,0,1,0,0l-.77.07,0,.06a.31.31,0,0,1,0,.11l0,0-.18.34.53-.08a.09.09,0,0,0,.07,0s0-.05,0-.05l.08,0s.06,0,.06.06,0,0,0,.06a.2.2,0,0,0,0,.12c0,.24,0,.46,0,.66s0,.39,0,.52,0,.14,0,.14,0,0-.06-.07a.25.25,0,0,1,0-.09.16.16,0,0,1,0-.08,1.71,1.71,0,0,0,0-.26c0-.44,0-.75,0-.92l-.87.13s0,.08,0,.12v.19a1.66,1.66,0,0,0,.47-.09h0l.05,0,0,0s0,0,0,0l-.57.09v.28a2.19,2.19,0,0,0,.52-.1h0l.05,0,0,0s0,0,0,0l-.61.09v.31A2.83,2.83,0,0,0,52,16h.06l.05,0,0,0s0,0-.06,0l-.72.09v.13c0,.08,0,.11,0,.12s0,0,0-.06a.18.18,0,0,1,0-.11.62.62,0,0,1,0-.1c0-.09,0-.28,0-.55s0-.55,0-.71,0-.14,0-.15,0,0,0,0,0,0,0,.08a.83.83,0,0,1,0,.13l.23,0,.08-.28c0-.11,0-.19,0-.25h0l-.52.06h-.06l-.07,0,0,0a0,0,0,0,1,0,0l.47,0,.31,0,.34,0,.18,0,.08,0Zm-.81,2.06a.27.27,0,0,1,0,.09,0,0,0,0,1,0,0l-.11.12a2.09,2.09,0,0,1-.2.21l-.19.15h0s0,0,0,0v0a1.93,1.93,0,0,0,.27-.31,1,1,0,0,0,.16-.32l0,0S51.68,16.19,51.7,16.24Zm.34,0a2.55,2.55,0,0,1,.33.24s.07.07.07.1a.77.77,0,0,1,0,.13s0,.07,0,.07,0,0,0,0a2.51,2.51,0,0,0-.36-.47s0,0,0,0a0,0,0,0,1,0,0Z"/><path class="cls-3" d="M56.31,14.26l.08.07s0,0,0,0l-1.17.07v0a.35.35,0,0,1,0,.1,3.4,3.4,0,0,1-.32.47l0,.07a.57.57,0,0,0,0,.08v2.21s0,0,0,0,0,0-.07-.07a.24.24,0,0,1,0-.1.4.4,0,0,1,0-.06s0-.09,0-.15V15.24a3.94,3.94,0,0,1-.35.41,5.6,5.6,0,0,1-.75.62l-.25.14s0,0,0,0l0,0a6.3,6.3,0,0,0,.69-.55,4.62,4.62,0,0,0,.64-.72v0a1.32,1.32,0,0,0,0-.21l0-.07a0,0,0,0,1,0,0l.09.06a.29.29,0,0,1,.07.09,1.7,1.7,0,0,0,.22-.47l-.39,0-1,.08h-.1a.21.21,0,0,1-.11,0s0,0,0-.05,0,0,0,0l1.33-.05a9.34,9.34,0,0,0,1.26-.14h.08Zm-.76,1.18a5.49,5.49,0,0,1,.62.47c.09.08.14.15.14.2a.82.82,0,0,1,0,.13s0,.07,0,.07,0,0-.08-.07a4.14,4.14,0,0,0-.71-.76s-.06,0-.06-.06a0,0,0,0,1,0,0Z"/><path class="cls-3" d="M60,14.12l.08.07s0,0,0,0l-1.31.06v.57l.72-.08s0,0,.08-.07,0,0,.05,0l.08,0s.06,0,.06.07,0,0-.07.09a.14.14,0,0,0,0,.09v1a3.43,3.43,0,0,0,.47-.06h.1l.1.05.08.07s0,0,0,0l-.72,0V17a.67.67,0,0,1,0,.24.06.06,0,0,1,0,.06l-.07,0a5.24,5.24,0,0,0-.51-.46,0,0,0,0,1,0,0l0,0,.08,0a1.65,1.65,0,0,0,.43.23s0,0,0,0v-.12s0-.09,0-.18v-.6l-1.08.06-.54,0c0,.51,0,.83,0,1a.62.62,0,0,1,0,.15s0,.06,0,.06,0,0-.07-.12a.4.4,0,0,1,0-.16.28.28,0,0,1,0-.1.68.68,0,0,0,0-.21c0-.14,0-.34,0-.58l-.47,0h-.11a.19.19,0,0,1-.12-.05s0,0,0-.05,0,0,0,0l.7,0c0-.28,0-.62,0-1a2.16,2.16,0,0,0,0-.3l0-.15s0,0,0,0,0,.05.08.15a.82.82,0,0,1,0,.18l.7-.07v-.57h-.17l-.94.07h-.09a.2.2,0,0,1-.11,0s0,0,0-.05,0,0,0,0l1.29,0a10.23,10.23,0,0,0,1.23-.12l.08,0Zm-1.39,1.94V15.5l-.4,0h0l-.07,0s0,0,0-.05,0,0,0,0l.39,0h.16V15l-.7.07V16.1Zm.91-.07V14.86l-.79.08v.46l.24,0,.15,0h.07a.13.13,0,0,1,.08,0s0,0,0,.07a0,0,0,0,1,0,0l-.57,0v.56Z"/><path class="cls-3" d="M62.19,14.72a.49.49,0,0,1,0,.11,0,0,0,0,1,0,0l-.12.12-.31.34c0,.25,0,.44,0,.54l0,0,.42.34a.13.13,0,0,1,0,.1s0,.06,0,.1,0,.06,0,.06,0,0-.06,0a4.22,4.22,0,0,0-.43-.54h0a2.62,2.62,0,0,1-.14.54,2.42,2.42,0,0,1-.24.44,1.05,1.05,0,0,1-.2.24l-.1.09a0,0,0,0,1,0,0,.06.06,0,0,1,0,0,2.08,2.08,0,0,0,.24-.34,1.89,1.89,0,0,0,.22-.46,2.2,2.2,0,0,0,.12-.47c0-.16,0-.46.06-.88,0-.27,0-.5,0-.7s0-.21,0-.27a1,1,0,0,1,0-.11,0,0,0,0,1,0,0l.1.08c.06.05.09.09.09.1a.2.2,0,0,1,0,.08.58.58,0,0,0,0,.22c0,.34,0,.63,0,.86l.23-.34a.82.82,0,0,0,.12-.29s0,0,0,0S62.17,14.66,62.19,14.72Zm-1.07.1a3.1,3.1,0,0,1,.24.39.39.39,0,0,1,.06.14.3.3,0,0,1,0,.1c0,.05,0,.08-.06.08s0,0,0-.06a3.74,3.74,0,0,0-.21-.59.22.22,0,0,1,0-.08,0,0,0,0,1,0,0Zm1.81,1.67a.47.47,0,0,1,0,.11,0,0,0,0,1,0,0l-.17.18a2.57,2.57,0,0,1-.31.3l-.3.21,0,0a0,0,0,0,1,0,0s0,0,0,0a2.73,2.73,0,0,0,.44-.43,1.42,1.42,0,0,0,.26-.45l0,0S62.9,16.44,62.93,16.5Zm1-2.35a.13.13,0,0,1,0,.07h0l-.94.08,0,0a.22.22,0,0,1,0,.09.08.08,0,0,1,0,0l-.19.34,0,0,.63-.08a.07.07,0,0,0,.06,0s0-.06,0-.06l.08,0s.06,0,.06.06,0,0,0,.07a.2.2,0,0,0,0,.11c0,.28,0,.54,0,.77s0,.46,0,.6,0,.15,0,.15,0,0-.06-.07a.21.21,0,0,1,0-.1.17.17,0,0,1,0-.08h0l-.87.09v.14c0,.08,0,.13,0,.13s0,0,0-.06a.21.21,0,0,1,0-.11.78.78,0,0,1,0-.12c0-.1,0-.31,0-.64s0-.62,0-.81,0-.16,0-.17,0,0,0,0,0,0,0,.1a.59.59,0,0,1,0,.15l.26,0a.14.14,0,0,1,0-.06,1.42,1.42,0,0,0,.11-.49h0l-.58.06-.07,0-.07,0s-.05,0-.05-.06a0,0,0,0,1,0,0l.57,0,.36,0,.41,0,.22,0,.1,0A.13.13,0,0,1,64,14.15Zm-.58,2h.08l.06,0,0,0c0-.08,0-.16,0-.27q0-.77,0-1.08l-1,.13s0,.1,0,.14v.2a2.8,2.8,0,0,0,.6-.08h.06l.05,0,0,0s0,0-.05,0l-.69.08v.31a2.83,2.83,0,0,0,.64-.08h.07l.05,0,0,0s0,0-.06,0l-.73.08v.44A4.2,4.2,0,0,0,63.37,16.17Zm0,.36a4,4,0,0,1,.48.38c.07.06.11.12.11.16a1,1,0,0,1,0,.13s0,.07,0,.07,0,0-.06-.06a3.41,3.41,0,0,0-.55-.66s0,0,0-.06a0,0,0,0,1,0,0Z"/><path class="cls-3" d="M65.13,15a1.3,1.3,0,0,1-.12.62c0,.08-.08.12-.12.13s0,0-.05-.06a.32.32,0,0,1,0-.07.1.1,0,0,1,0-.07A1.09,1.09,0,0,0,65.1,15s0,0,0,0S65.13,15,65.13,15Zm.36-1c.05,0,.08.08.08.1a.27.27,0,0,1,0,.08.51.51,0,0,0,0,.16v.33h0l.33.23a.08.08,0,0,1,0,.07s0,.06,0,.1,0,.06,0,.06,0,0,0,0a3.59,3.59,0,0,0-.31-.38V17c0,.09,0,.18,0,.27s0,.12,0,.12,0,0-.08-.1a.21.21,0,0,1,0-.09.13.13,0,0,1,0-.06.59.59,0,0,0,0-.11,2.13,2.13,0,0,0,0-.28V14.37a2,2,0,0,0,0-.31.36.36,0,0,1,0-.11,0,0,0,0,1,0,0Zm1.22,1.29a.22.22,0,0,1,0,.09.07.07,0,0,1,0,0l-.2.31v0l.92-.12a.08.08,0,0,0,.06,0l0,0,.08,0s.07,0,.07.06,0,0-.05.07a.2.2,0,0,0,0,.12c0,.27,0,.51,0,.72s0,.43,0,.57,0,.15-.06.15,0,0-.06-.08a.29.29,0,0,1,0-.1.19.19,0,0,1,0-.09,1.81,1.81,0,0,0,0-.28c0-.49,0-.83,0-1l-1.37.17c0,.1,0,.21,0,.34s0,.54,0,.8a7.28,7.28,0,0,0,1-.08h.1l.07,0,0,.05-.09,0-1.14.07c0,.06,0,.12,0,.18s0,.08,0,.08,0,0-.07-.08a.18.18,0,0,1,0-.09s0-.1,0-.19,0-.34,0-.68c0-.13,0-.25,0-.36s0-.27,0-.34,0-.08,0-.08,0,0,0,.06,0,.11,0,.19l.36,0,0-.05a1.24,1.24,0,0,0,.11-.46s0,0,0,0Zm-.33-1.22a.3.3,0,0,1,0,.09.18.18,0,0,1,0,.1,3,3,0,0,0-.25.53.33.33,0,0,0,0,.11.07.07,0,0,0,0,.06l.19.19a.25.25,0,0,1,.08.15.56.56,0,0,1,0,.11s0,.06,0,.06,0,0,0,0a2.68,2.68,0,0,0-.29-.46.07.07,0,0,1,0,0,.19.19,0,0,1,0-.09,2.61,2.61,0,0,0,.11-.32q.09-.29.13-.47v0S66.35,14,66.38,14.07Zm.72,1.79a.34.34,0,0,1,0,.09,0,0,0,0,1,0,0l-.18.23-.05.07.18.14c.08.07.13.12.13.17a.79.79,0,0,1,0,.1s0,.05,0,.05,0,0-.08-.06a2.71,2.71,0,0,0-.28-.31l-.2.23a2.62,2.62,0,0,1-.31.28l0,0s0,0,0,0,0,0,0,0a3.53,3.53,0,0,0,.47-.52h0l-.35-.29s-.05,0-.05-.06v0l.11,0,.35.23a1.8,1.8,0,0,0,.21-.44s0,0,0,0S67.08,15.82,67.09,15.86Zm-.16-1.8a.28.28,0,0,1,0,.09.12.12,0,0,1,0,.08,2.73,2.73,0,0,0-.28.47.2.2,0,0,0,0,.09.09.09,0,0,0,0,.06l.24.22c.07.06.11.12.11.16a.56.56,0,0,1,0,.11s0,.06,0,.06,0,0,0,0a2.66,2.66,0,0,0-.37-.51.06.06,0,0,1,0,0,.15.15,0,0,1,0-.08,2.37,2.37,0,0,0,.12-.29,4.06,4.06,0,0,0,.14-.42l0,0S66.9,14,66.93,14.06Zm.57,0a.31.31,0,0,1,0,.09.15.15,0,0,1,0,.09,2.55,2.55,0,0,0-.31.47.21.21,0,0,0,0,.1s0,0,.05.06l.31.2c.09.06.13.11.13.16a.57.57,0,0,1,0,.1v.06a0,0,0,0,1,0,0,2.9,2.9,0,0,0-.46-.49.07.07,0,0,1,0,0,.12.12,0,0,1,0-.08,3,3,0,0,0,.13-.29,3.64,3.64,0,0,0,.16-.43h0S67.47,14,67.5,14Z"/><path class="cls-3" d="M70.25,15.81A.5.5,0,0,1,70,16h0a.59.59,0,0,0,.15-.18.42.42,0,0,0,.07-.18s0-.07-.1-.07-.13,0-.13-.12.05-.13.15-.13a.18.18,0,0,1,.15.07.28.28,0,0,1,.05.17A.43.43,0,0,1,70.25,15.81Z"/><path class="cls-3" d="M35,21s0,.05,0,.07a0,0,0,0,1,0,0l-1.18.07v.3l.61-.06c.07,0,.11,0,.13-.06s0-.06.05-.06l.07.06a.14.14,0,0,1,0,.06.11.11,0,0,1,0,.05.13.13,0,0,0,0,.08l-.07.54h.07l.05,0,0,0s0,0-.12,0h-.13l0,0,.34.31a.13.13,0,0,1,0,.09s0,.06,0,.11,0,.07,0,.07,0,0,0,0l-.13-.22-.38,0,0,0s.06.07.06.09a.39.39,0,0,1,0,.07.68.68,0,0,0,0,.13v.07a4.79,4.79,0,0,0,.74-.11l.1,0,.1,0,.08.07s0,0,0,0l-1,.06v.67a.89.89,0,0,1,0,.29c0,.06,0,.1-.07.11s0,0-.06,0-.25-.28-.35-.38,0,0,0-.05a0,0,0,0,1,0,0l.08,0a.87.87,0,0,0,.31.21s0-.05,0-.12,0-.18,0-.27V23l-.72.05-.32,0a2.12,2.12,0,0,1,.24.32.32.32,0,0,1,.06.12.21.21,0,0,1,0,.09s0,.07-.05.07,0,0-.05-.06a2.8,2.8,0,0,0-.23-.53v0l-.66.07-.1,0a.21.21,0,0,1-.12-.05s0,0,0,0,0,0,0,0c.22,0,.71,0,1.46-.06l.54,0v-.2a1.1,1.1,0,0,0,0-.15v-.06l-.87.1-.58.08-.08,0a.17.17,0,0,1-.09,0s-.06,0-.06-.06h0l.7-.05.42,0v-.3l-.66,0s0,.1,0,.14,0,.06,0,.06,0,0,0-.07a.32.32,0,0,1,0-.1.4.4,0,0,1,0-.07c0-.07,0-.18,0-.35s0-.24,0-.39a1.28,1.28,0,0,0,0-.18,0,0,0,0,1,0,0s0,0,.07.11a.41.41,0,0,1,0,.08l.67-.06v-.3h-.07l-.88.07-.1,0-.07,0s0,0,0-.06a0,0,0,0,1,0,0l.8,0,.35,0V21a1.7,1.7,0,0,0,0-.31l0-.13a0,0,0,0,1,0,0l.1.08c.06.06.09.1.09.11a.54.54,0,0,1,0,.12c0,.06,0,.12,0,.2H34l.57,0,.31,0,.14,0A.12.12,0,0,1,35,21Zm-1.25,1.17v-.28h0l-.41,0h0l-.07,0,0,0s0,0,0,0l.37,0h.18v-.26l-.66.06c0,.07,0,.27,0,.6Zm.1-.37.23,0,.15,0h.07l.07,0s0,0,0,.06a0,0,0,0,1,0,0l-.54,0v.28a5,5,0,0,0,.68-.08l.05-.61-.73.07Zm0,.74.83-.08-.18-.24s0,0,0,0l-.63.05Z"/><path class="cls-3" d="M37.5,20.67s.07.07.07.09a.13.13,0,0,1,0,.05.26.26,0,0,0,0,.1v.59h.33v-.63a.71.71,0,0,0,0-.17.32.32,0,0,1,0-.09s0,0,0,0l.08,0s.07.07.07.09a.11.11,0,0,1,0,0,.28.28,0,0,0,0,.1v.62l.21,0a3.9,3.9,0,0,0,.19-.4,1.37,1.37,0,0,0,.11-.33,0,0,0,0,1,0,0s0,0,.06.07a.27.27,0,0,1,0,.11.06.06,0,0,1,0,0l-.36.52h0c.36,0,.6-.05.72-.08l.09,0,.1,0,.07.06s0,0,0,0l-1,0h0a.26.26,0,0,1,0,.11l0,0-.24.34.24,0,.23,0h.1a.11.11,0,0,1,.07,0s0,0,0,.07a0,0,0,0,1,0,0l-.82,0v.32l.34,0,.19,0h.08a.12.12,0,0,1,.08,0s0,.05,0,.07a0,0,0,0,1,0,0l-.72,0v.3h.07l.6,0,.32,0,.15,0a.15.15,0,0,1,.08,0s0,0,0,.07a0,0,0,0,1,0,0l-1.25.07.37.26a4.61,4.61,0,0,0,.6.36,2.45,2.45,0,0,0,.55.11h0s0,0,0,0l-.34.06-.18,0a.11.11,0,0,1-.07,0l-.53-.44L37.75,23v1a0,0,0,0,1,0,0s0,0-.09-.1a.26.26,0,0,1,0-.13.74.74,0,0,1,0-.15,1.7,1.7,0,0,0,0-.27v-.39a3.36,3.36,0,0,1-.52.41,6.18,6.18,0,0,1-.83.42l-.15,0a0,0,0,0,1,0,0l.06,0a6,6,0,0,0,.89-.5,3.71,3.71,0,0,0,.49-.42l-.9.06h-.1l-.08,0s-.06,0-.06-.05a0,0,0,0,1,0,0l.85,0,.35,0v-.3h0l-.54,0H37l-.07,0s0,0,0-.06a0,0,0,0,1,0,0l.5,0h.22v-.32h-.07l-.65,0h-.07l-.07,0s0,0,0-.06a0,0,0,0,1,0,0l.59,0h0v0l-.15-.31a.41.41,0,0,1,0-.1,0,0,0,0,1,0,0l0,0,.19.21a.17.17,0,0,1,0,.09.37.37,0,0,1,0,.11v0l.34,0h.14a2.37,2.37,0,0,0,.12-.28,1.53,1.53,0,0,0,.07-.21l-.58,0-1,.07h-.1a.19.19,0,0,1-.11,0s0,0,0,0,0,0,0,0l1.21,0v-.59a.53.53,0,0,0,0-.17.35.35,0,0,1,0-.09,0,0,0,0,1,0,0A.15.15,0,0,1,37.5,20.67Zm-.72.27a3.24,3.24,0,0,1,.31.28.22.22,0,0,1,.05.12.39.39,0,0,1,0,.11s0,0,0,0,0,0,0,0l-.26-.4a.43.43,0,0,1-.07-.12h0Z"/><path class="cls-3" d="M40.35,23.26a1.27,1.27,0,0,1-.13.63c0,.08-.08.12-.13.13s0,0-.05-.06a.29.29,0,0,1,0-.07.09.09,0,0,1,0-.07,1.1,1.1,0,0,0,.26-.65s0,0,0,0S40.35,23.18,40.35,23.26Zm.46-2.52a.27.27,0,0,1,0,.11.07.07,0,0,1,0,.05l-.13.16-.47.88.63-.12a2.34,2.34,0,0,0,.21-.53s0,0,0,0,0,0,.08.1a.32.32,0,0,1,0,.11.08.08,0,0,1,0,.06l-.18.2-.66,1.06.7-.16-.09-.23,0-.07a0,0,0,0,1,0,0l0,0a2.1,2.1,0,0,1,.21.33.32.32,0,0,1,0,.12.23.23,0,0,1,0,.09s0,.07-.05.07,0,0,0-.06a2.4,2.4,0,0,0-.07-.24,5.63,5.63,0,0,0-.7.23l-.11,0s0,0,0,0a.14.14,0,0,1,0-.06,0,0,0,0,1,0,0,.75.75,0,0,0,.19-.19q.24-.37.44-.72h0a5.26,5.26,0,0,0-.58.16l-.09,0s0,0,0,0a.15.15,0,0,1,0-.06,0,0,0,0,1,0,0,.61.61,0,0,0,.14-.16c.11-.21.22-.41.31-.62a2.28,2.28,0,0,0,.17-.5s0,0,0,0S40.77,20.68,40.81,20.74Zm-.15,2.42a2,2,0,0,1,.16.41.2.2,0,0,1,0,.1s0,.07-.06.07,0,0,0,0c0-.18,0-.33-.07-.43s0-.12,0-.15a0,0,0,0,1,0,0ZM41,23a1.76,1.76,0,0,1,.21.28.22.22,0,0,1,0,.1.21.21,0,0,1,0,.09s0,.07-.05.07,0,0,0-.05a2.61,2.61,0,0,0-.18-.44l0-.06a0,0,0,0,1,0,0Zm.45-1.57a.67.67,0,0,1,.06.2v0l1.28-.17a.12.12,0,0,0,.1-.07s0-.05.05-.05l.06,0h0s.06,0,.06.06a.13.13,0,0,1,0,.07.19.19,0,0,0,0,.13l-.06,2.09c0,.08,0,.12,0,.12s0,0-.06-.1a.35.35,0,0,1,0-.12.16.16,0,0,1,0-.07,1,1,0,0,0,0-.24l.06-1.77-.64.07v.84l.23,0,.15,0h.07l.08,0s0,0,0,.06a0,0,0,0,1,0,0l-.55,0v.93l.28,0,.1,0,.07,0,0,.05s0,0-.09,0l-1.12.1v.14a1.14,1.14,0,0,1,0,.2s0,.05,0,.05,0,0-.06-.08a.31.31,0,0,1,0-.13.1.1,0,0,1,0-.06,1.24,1.24,0,0,0,0-.2c0-.44,0-.91,0-1.41,0-.27,0-.48,0-.64s0-.11,0-.17,0,0,0,0S41.4,21.38,41.44,21.46Zm.68,1.15-.4,0h0a.09.09,0,0,1-.06,0s0,0,0,0a0,0,0,0,1,0,0l.38,0,.16,0v-.84l-.63.07q0,.94,0,1.53c0,.12,0,.23,0,.31l.6-.05Z"/><path class="cls-3" d="M44.27,22.09a1.68,1.68,0,0,1-.2.91c-.06.11-.13.18-.2.18s0,0-.05,0l0-.07a.13.13,0,0,1,.05-.1,1.58,1.58,0,0,0,.39-.94s0,0,0,0S44.27,22,44.27,22.09Zm.43-.27A4.83,4.83,0,0,0,45.16,23a1.46,1.46,0,0,0,.44.44,1.51,1.51,0,0,0,.68.2s0,0,0,0,0-.16,0-.41,0-.3,0-.32,0,0,0,0v0a4,4,0,0,0,.24.84.13.13,0,0,1,0,.05s0,.06-.09.06a2.08,2.08,0,0,1-.78-.16,1.25,1.25,0,0,1-.58-.48,2.12,2.12,0,0,1-.31-.69,3.46,3.46,0,0,1-.14-.7s0,0,0,0S44.7,21.8,44.7,21.82Zm.59-.68a3.27,3.27,0,0,1,.35.47.44.44,0,0,1,.08.17.29.29,0,0,1,0,.1c0,.05,0,.08-.05.08s-.06,0-.07-.08a3.86,3.86,0,0,0-.32-.68.2.2,0,0,1,0-.09,0,0,0,0,1,0,0S45.27,21.11,45.3,21.14Zm1.14.86a3.77,3.77,0,0,1,.42.44.33.33,0,0,1,.09.19,1.34,1.34,0,0,1,0,.16c0,.05,0,.08,0,.08s0,0-.05-.07a4.13,4.13,0,0,0-.46-.76s0,0,0-.07a0,0,0,0,1,0,0Z"/><path class="cls-3" d="M48.5,20.71a.19.19,0,0,1,0,.1l0,0a1,1,0,0,0-.06.18,2.8,2.8,0,0,1-.13.36,2.22,2.22,0,0,1-.13.26l.6-.11a.07.07,0,0,0,.06,0s0-.06,0-.06l.08,0s.06,0,.06.06,0,0,0,.07a.2.2,0,0,0,0,.11c0,.36,0,.68,0,1s0,.58,0,.76,0,.2-.06.2,0,0-.06-.07a.24.24,0,0,1,0-.1.32.32,0,0,1,0-.12,2.77,2.77,0,0,0,0-.38c0-.66,0-1.12,0-1.38l-.89.16c0,.26,0,.5,0,.7a2.45,2.45,0,0,0,.54-.08h.06l.05,0,0,0s0,0-.05,0l-.64.08c0,.2,0,.37,0,.52s0,.24,0,.32a2.56,2.56,0,0,0,.59-.09h.07l.06,0,0,0s0,0-.06,0l-.7.09v0a1.08,1.08,0,0,1,0,.2s0,0,0,0,0,0-.06-.08a.28.28,0,0,1,0-.13s0,0,0-.07a1.22,1.22,0,0,0,0-.21c0-.37,0-.77,0-1.2,0-.23,0-.41,0-.55l0-.15s0,0,0,0,0,0,.08.13a.71.71,0,0,1,.06.2l.18,0q.06-.16.11-.34a2.71,2.71,0,0,0,.08-.34,2.45,2.45,0,0,0,0-.29s0-.06,0-.06S48.46,20.66,48.5,20.71Zm1.17,0a.22.22,0,0,1,.05.1.31.31,0,0,1,0,.09,2.29,2.29,0,0,0-.1.34c0,.15-.09.29-.14.43l.82-.13c.08,0,.12,0,.14-.06s0-.06.07-.06l.07,0s0,.06,0,.08,0,0,0,.07a.27.27,0,0,0,0,.14c-.07.84-.13,1.42-.17,1.75a2,2,0,0,1-.13.46c0,.08-.05.12-.08.12s-.15-.17-.42-.5l-.08-.11s0,0,0,0l.06,0a1.85,1.85,0,0,0,.37.32s.07-.07.11-.19a8.37,8.37,0,0,0,.15-1c0-.39.06-.74.07-1.05l-.76.14-.09,0a.19.19,0,0,1-.1,0l0,0-.06.16a3.91,3.91,0,0,1-.25.53s0,.06,0,.06,0,0,0,0v0a5.39,5.39,0,0,0,.26-.64,4.49,4.49,0,0,0,.17-.6,2.73,2.73,0,0,0,.07-.52s0-.06,0-.06S49.63,20.63,49.67,20.69Zm-.19,1.58a2.34,2.34,0,0,1,.29.36.32.32,0,0,1,.07.13.21.21,0,0,1,0,.09s0,.07-.05.07,0,0-.06-.06a2.81,2.81,0,0,0-.27-.54.2.2,0,0,1,0-.07,0,0,0,0,1,0,0Z"/><path class="cls-3" d="M52.43,21.53a.38.38,0,0,1,0,.11,0,0,0,0,1,0,0L52.2,22l-.11.14v2s0,.06,0,.06,0,0-.08-.08a.22.22,0,0,1,0-.11.53.53,0,0,1,0-.13,1,1,0,0,0,0-.24V22.19l-.22.22a3.08,3.08,0,0,1-.41.32l0,0s0,0,0,0l0,0a4.51,4.51,0,0,0,.62-.6,2.15,2.15,0,0,0,.37-.63,0,0,0,0,1,0,0S52.4,21.47,52.43,21.53Zm0-.75a.46.46,0,0,1,0,.11,0,0,0,0,1,0,0l-.23.25a4.05,4.05,0,0,1-.41.44,3.23,3.23,0,0,1-.4.3l0,0s0,0,0,0l0,0a3.84,3.84,0,0,0,.6-.57,2,2,0,0,0,.36-.6s0,0,0,0S52.39,20.72,52.42,20.78Zm1.73.34.06.07a.09.09,0,0,1,0,.07.14.14,0,0,0,0,.07l0,.34h.13l.29,0,.13,0a.15.15,0,0,1,.08,0s0,.05,0,.07a0,0,0,0,1,0,0l-.68,0,0,.39h.05a.11.11,0,0,1,.07,0s0,.05,0,.07a0,0,0,0,1,0,0l-.76,0v.38h0l.37,0,.2,0h.09a.12.12,0,0,1,.08,0s0,.05,0,.07a0,0,0,0,1,0,0l-.81.05v.38h.13l.54,0,.29,0,.13,0a.15.15,0,0,1,.08,0s.05,0,.05.07a0,0,0,0,1,0,0l-1.21.06v.49c0,.1,0,.2,0,.3s0,.13,0,.13,0,0-.08-.11a.2.2,0,0,1,0-.1.19.19,0,0,1,0-.07.26.26,0,0,0,0-.11,2.64,2.64,0,0,0,0-.31v-.21l-.79.05h-.09l-.08,0s-.05,0-.05-.05a0,0,0,0,1,0,0l.75,0h.24v-.38l-.55,0h-.07l-.07,0s0,0,0-.05a0,0,0,0,1,0,0l.52,0,.19,0v-.38l-.46,0H52.8a.12.12,0,0,1-.07,0s0,0,0-.06a0,0,0,0,1,0,0l.48,0h.15v-.4l-.67.06-.1,0-.08,0s-.05,0-.05-.05a0,0,0,0,1,0,0l.75,0h.13v-.4l-.38,0-.14,0-.07,0,0,0v0l.61-.07V21a1.5,1.5,0,0,0,0-.33.4.4,0,0,1,0-.11,0,0,0,0,1,0,0l.11.07c.05.05.08.09.08.11a.32.32,0,0,1,0,.09.63.63,0,0,0,0,.18v.27l.51-.06a.12.12,0,0,0,.09-.06s0-.07.06-.07Zm-.72.62.25,0,.31,0,0-.42-.6.06Zm0,.49h0l.34,0h.11l0-.4-.49,0h0Z"/><path class="cls-3" d="M56,20.67a.28.28,0,0,1,0,.12.11.11,0,0,1,0,0l-.27.5.43-.06c.07,0,.11,0,.13-.06s0-.06.05-.06l.07.06a.12.12,0,0,1,0,.06.11.11,0,0,1,0,.06.12.12,0,0,0,0,.08l-.08.5h.07l.05,0,0,0s0,0-.06,0l-.86.08v.41l.69-.09c.07,0,.11,0,.12-.06s0-.06.06-.06,0,0,.07.06a.12.12,0,0,1,0,.06.11.11,0,0,1,0,.06.14.14,0,0,0,0,.08l-.08.59h.07l.06,0,0,0s0,0-.08,0l-.93.08c0,.09,0,.15,0,.2a.68.68,0,0,1,0,.14s0,.06,0,.06,0,0-.07-.1a.33.33,0,0,1,0-.15.21.21,0,0,1,0-.09.74.74,0,0,0,0-.2c0-.3,0-.85,0-1.63a2.66,2.66,0,0,0,0-.28c0-.07,0-.12,0-.13s0,0,0,0a.35.35,0,0,1,.07.13.76.76,0,0,1,0,.16l.15,0c.05-.15.1-.29.13-.39a2.37,2.37,0,0,0,.07-.34,0,0,0,0,1,0,0S56,20.62,56,20.67Zm.29,2.47.07-.66-.8.09c0,.26,0,.47,0,.63C55.92,23.19,56.17,23.17,56.3,23.15Zm-.06-1.21.07-.57-.74.09V22A6.41,6.41,0,0,0,56.24,21.94Zm2-1s0,0,0,.07a0,0,0,0,1,0,0l-.81.05v.64l.43-.05a.2.2,0,0,0,.13-.11,0,0,0,0,1,0,0h0l.06,0,0,.06s0,0,0,0a.45.45,0,0,0,0,.19A10.09,10.09,0,0,1,58.06,23c0,.13-.05.2-.08.2s-.14-.08-.28-.23-.18-.19-.18-.22a0,0,0,0,1,0,0,.74.74,0,0,1,.18.13.5.5,0,0,0,.22.11s0,0,0-.08,0-.6.05-1.22l-.54.07v2.3a0,0,0,0,1,0,0s0,0-.09-.1a.26.26,0,0,1,0-.13.74.74,0,0,1,0-.15,1.71,1.71,0,0,0,0-.27V21.78l-.49.06c0,.17,0,.49,0,1,0,.09,0,.18,0,.29s0,.08,0,.08,0,0-.05-.07a.29.29,0,0,1,0-.1,1.06,1.06,0,0,1,0-.11c0-.11,0-.3,0-.58s0-.36,0-.58,0-.23,0-.27l0,0s0,0,.07.11a.62.62,0,0,1,0,.16h0l.49-.05V21h0l-.61,0h-.07l-.07,0s0,0,0-.05a0,0,0,0,1,0,0l.55,0,.35,0,.4,0,.21,0h.1A.12.12,0,0,1,58.26,20.9Z"/><path class="cls-3" d="M59.51,20.82a.71.71,0,0,1,0,.18h0l.61-.1c.07,0,.11,0,.13-.06s0-.06.05-.06l.07.06a.14.14,0,0,1,0,.06.11.11,0,0,1,0,.05.12.12,0,0,0,0,.08l-.07.8h0l.07,0,0,0s0,0-.07,0l-.84.09c0,1,0,1.59,0,1.81a.68.68,0,0,1,0,.14s0,.06,0,.06,0,0-.07-.1a.32.32,0,0,1,0-.15.39.39,0,0,1,0-.13,1.37,1.37,0,0,0,0-.28q0-.62,0-2.26a2.7,2.7,0,0,0,0-.27c0-.07,0-.11,0-.13s0,0,0,0S59.48,20.73,59.51,20.82Zm.71,1,.05-.87-.73.1v.35a1.87,1.87,0,0,0,.42-.07h0l.06,0,0,0s0,0,0,0l-.51.07v.4A5,5,0,0,0,60.22,21.86Zm1,.39a.1.1,0,0,1,0,.06s0,0,0,0l-.37,0v.41l.21,0,.23,0,.1,0a.12.12,0,0,1,.07,0s0,0,0,.07a0,0,0,0,1,0,0l-.64.05v1s0,.06,0,.06,0,0-.08-.08a.23.23,0,0,1,0-.12l0-.1a1.35,1.35,0,0,0,0-.28v-.49l-.25,0h-.17c0,.08,0,.15,0,.19a1.11,1.11,0,0,1-.14.34l-.14.18-.19.18-.08.05a0,0,0,0,1,0,0l0,0a2.06,2.06,0,0,0,.32-.39,1.08,1.08,0,0,0,.13-.38s0-.08,0-.13l-.36,0h-.07l-.07,0s0,0,0-.06a0,0,0,0,1,0,0l.54,0c0-.12,0-.26,0-.41l-.26,0H60a.09.09,0,0,1-.07,0s0,0,0,0a0,0,0,0,1,0,0l.43,0,.28,0,.31,0,.17,0h.07Zm-.44.11-.28,0h-.1c0,.17,0,.31,0,.41l.29,0h.11Zm.13-1.59a.59.59,0,0,1,0,.13l.78-.07s0,0,.08-.07,0,0,.05,0l.08,0s.06.05.06.08,0,0-.07.09a.14.14,0,0,0,0,.09V23.7a1.41,1.41,0,0,1,0,.31.08.08,0,0,1,0,.07.09.09,0,0,1-.06,0,5.45,5.45,0,0,0-.49-.47,0,0,0,0,1,0,0h0l.08,0a1.57,1.57,0,0,0,.4.24s0,0,0,0v-.16s0-.12,0-.23v-1.5l-.85.07v.14s0,.07,0,.07,0,0-.05-.07a.31.31,0,0,1,0-.1.86.86,0,0,1,0-.1q0-.13,0-.47c0-.15,0-.31,0-.49a2.14,2.14,0,0,0,0-.23,0,0,0,0,1,0,0S60.89,20.71,60.92,20.78Zm.88,1v-.85L61,21c0,.08,0,.2,0,.36a2.81,2.81,0,0,0,.53-.07h.05l.05,0,0,0s0,0,0,0l-.63.07c0,.11,0,.24,0,.38h0Z"/><path class="cls-3" d="M64.13,21.29s0,0,0,.07a0,0,0,0,1,0,0l-.71.07-.46.06h-.05l-.07,0s0,0,0-.06a0,0,0,0,1,0,0l.42,0,.27,0,.3,0,.16,0h.07A.12.12,0,0,1,64.13,21.29Zm-.16.45s0,0,0,0l0,0-.7.07-.12,0a.11.11,0,0,1-.07,0,.06.06,0,0,1,0,0l0,0c.36,0,.59-.05.72-.08h.09Zm0,.43s0,0,0,.05h0l-.65.08-.11,0a.1.1,0,0,1-.07,0,.06.06,0,0,1,0,0l0,0,.66-.08h.08Zm-.7.46a1,1,0,0,1,0,.16l.44-.08c.07,0,.11,0,.12-.06s0-.06.06-.06l.07.06a.14.14,0,0,1,0,.06.13.13,0,0,1,0,.06.12.12,0,0,0,0,.08l-.07.54h0l.07,0,0,0s0,0-.05,0l-.63.08v.11c0,.09,0,.14,0,.15s0,0-.05-.07a.29.29,0,0,1,0-.13.24.24,0,0,1,0-.07,1.48,1.48,0,0,0,0-.33c0-.23,0-.41,0-.52s0-.1,0-.11,0,0,0,0S63.21,22.56,63.24,22.63Zm.54.77,0-.61-.54.08v.58A3.18,3.18,0,0,0,63.78,23.4Zm-.32-2.74a2.09,2.09,0,0,1,.23.28.23.23,0,0,1,.05.1.28.28,0,0,1,0,.1c0,.05,0,.08-.06.08s0,0,0-.05a2.52,2.52,0,0,0-.2-.45.14.14,0,0,1,0-.06,0,0,0,0,1,0,0Zm1,.11a.75.75,0,0,1,0,.2l1-.13c.07,0,.11,0,.12-.06s0-.06.06-.06l.07.06a.17.17,0,0,1,0,.06.12.12,0,0,1,0,.06.11.11,0,0,0,0,.08l-.1.91h0l.05,0,0,0s0,0-.09,0L65,22v.39a4.35,4.35,0,0,0,.78-.12l.06,0,.09,0,.07.06s0,0,0,0l-.91.07a5.29,5.29,0,0,0,.5.76.87.87,0,0,0,.54.26s0,0,0,0,0,0-.08,0l-.27,0-.13,0s-.06,0-.09-.1c-.19-.33-.38-.66-.58-1V24a0,0,0,0,1,0,0s0,0-.09-.1a.2.2,0,0,1,0-.13.73.73,0,0,1,0-.15,1.71,1.71,0,0,0,0-.27V22.7a3.54,3.54,0,0,1-.34.49,3.93,3.93,0,0,1-.56.52l-.1.05a0,0,0,0,1,0,0l0,0a5,5,0,0,0,.6-.62,4.07,4.07,0,0,0,.35-.56l-.62.07h-.07a.19.19,0,0,1-.11,0s0,0,0,0,0,0,0,0l.82,0v-.39l-.44,0v.07c0,.08,0,.13,0,.13s0,0,0-.07a.21.21,0,0,1,0-.11.48.48,0,0,1,0-.1c0-.08,0-.25,0-.5s0-.52,0-.66,0-.13,0-.14,0,0,0,0S64.4,20.71,64.43,20.77ZM64.91,22V21.5l-.26,0h0a.09.09,0,0,1-.06,0s0,0,0,0a0,0,0,0,1,0,0l.29,0h.1V21l-.44.05v1ZM65,21.4l.17,0,.11,0h0l.07,0s0,0,0,.06a0,0,0,0,1,0,0l-.43,0V22a2.67,2.67,0,0,0,.45-.07l.08-1L65,21Z"/><path class="cls-3" d="M68.6,22.68a.45.45,0,0,1-.33.13.46.46,0,0,1,0-.93.47.47,0,0,1,.47.47A.44.44,0,0,1,68.6,22.68Zm-.06-.6a.38.38,0,0,0-.27-.11.36.36,0,0,0-.27.11.37.37,0,0,0-.11.27.37.37,0,0,0,.37.37.37.37,0,0,0,.27-.11.36.36,0,0,0,.11-.27A.38.38,0,0,0,68.54,22.08Z"/><rect class="cls-4" width="9.45" height="35"/><path class="cls-5" d="M6.2,9.25H4.76a1.09,1.09,0,0,1-.4.56,3.49,3.49,0,0,1-1.08.44l-.11-.17a4,4,0,0,0,.93-.33,1,1,0,0,0,.47-.5H3.28V9.07H4.61a1.09,1.09,0,0,0,0-.28h.19a1.76,1.76,0,0,1,0,.28H6.2Zm.1-.57H3.18V8.49H4.64V8.15H3.48V8H4.64V7.63H3.34V7.45h2.8v.18H4.83V8H6v.18H4.83v.34H6.3ZM4.39,7.28l-.17.11a1.57,1.57,0,0,0-.37-.29L4,7A1.5,1.5,0,0,1,4.39,7.28Zm1.89,2.83-.12.16a6.78,6.78,0,0,0-1.3-.65L5,9.46A6.81,6.81,0,0,1,6.27,10.11Zm-.7-3a1.79,1.79,0,0,1-.39.29L5,7.28A1.74,1.74,0,0,0,5.4,7Z"/><path class="cls-5" d="M6.3,12.8,6.21,13l-.41-.18V14H5.61v-.23H3.85v.2H3.66V12.77l-.4.18-.11-.16a4.44,4.44,0,0,0,1.61-1l.16.1-.08.1A4.44,4.44,0,0,0,6.3,12.8ZM4.52,11.52a5,5,0,0,1-1.1.77l-.11-.15a4.91,4.91,0,0,0,1.07-.75Zm1.64.2H6V11.2H3.52v.49H3.33V11H4.7a1.68,1.68,0,0,0-.12-.3l.18,0a2,2,0,0,1,.14.34H6.15Zm-.51,1a4.46,4.46,0,0,1-.94-.63,4.46,4.46,0,0,1-.93.63Zm0,.82v-.63H3.85v.63Zm.57-1.41-.11.15A7.88,7.88,0,0,0,5,11.56l.11-.15A8,8,0,0,1,6.18,12.14Z"/><path class="cls-5" d="M3.95,16.38a6.9,6.9,0,0,1-.64,1.24l-.16-.12a6,6,0,0,0,.64-1.23Zm0-.59-.13.15a2.7,2.7,0,0,0-.59-.48l.11-.15A3.07,3.07,0,0,1,3.94,15.8ZM4,14.88,3.88,15a3,3,0,0,0-.58-.48l.12-.14A3,3,0,0,1,4,14.88ZM6.3,16.06H5.18a6.35,6.35,0,0,1-.78,1.26,11.85,11.85,0,0,0,1.44-.25,5.13,5.13,0,0,0-.39-.58l.16-.1a6.55,6.55,0,0,1,.69,1.13l-.16.12a2.61,2.61,0,0,0-.2-.41,16.92,16.92,0,0,1-1.77.3l-.08-.2a1.22,1.22,0,0,0,.41-.44A6,6,0,0,0,5,16.06H4.08v-.18h1v-.73H4.25V15h.86v-.57h.18V15h.85v.18H5.29v.73h1Z"/><path class="cls-5" d="M4,19a4.5,4.5,0,0,1-.22.47v1.9H3.61V19.74a2.88,2.88,0,0,1-.36.4L3.14,20a3,3,0,0,0,.7-1.06Zm0-.81a2.76,2.76,0,0,1-.73.84l-.12-.14a2.79,2.79,0,0,0,.68-.78Zm2.29,1H6v.59H5.18v.34h.89v.18H5.18v.37h1v.18h-1v.52H5v-.52H4v-.18H5v-.37H4.15v-.18H5v-.34H4.23v-.17H5v-.41H4.08V19H5v-.39H4.23v-.17H5V18.1h.19v.32H6V19h.29ZM5.82,19v-.39H5.18V19Zm0,.59v-.41H5.18v.41Z"/><path class="cls-5" d="M4.28,22.34H3.18v-.18h.49a1.72,1.72,0,0,0-.17-.33l.17-.08a2.08,2.08,0,0,1,.2.42h.42Zm-.07.51H3.27v-.19h.94Zm0,.55H3.27v-.19h.94Zm0,1.51H4v-.19H3.48V25H3.3V23.78h.88ZM4,24.54V24H3.48v.58Zm2.32.15-.11.15a2.66,2.66,0,0,1-.8-1V25H5.21V23.86a3.1,3.1,0,0,1-.83,1l-.12-.14a3.08,3.08,0,0,0,.84-1H4.36V23.5h.85v-.31H4.5V21.86H6.14v1.33H5.4v.31h.86v.19H5.51A2.57,2.57,0,0,0,6.31,24.68Zm-1.1-2.25V22H4.67v.39Zm0,.58v-.4H4.67V23Zm.73-.58V22H5.4v.39Zm0,.58v-.4H5.4V23Z"/><line class="cls-6" x1="23.08" y1="16.45" x2="18.93" y2="23.5"/><line class="cls-6" x1="77.75" y1="16.45" x2="73.61" y2="23.5"/><path class="cls-7" d="M79.24,13.17a1.68,1.68,0,0,1-.77.61l0,0a2,2,0,0,0,.52-.59,1.42,1.42,0,0,0,.24-.59c0-.15-.11-.24-.33-.24s-.44-.13-.44-.4.17-.42.52-.42a.62.62,0,0,1,.49.23,1,1,0,0,1,.18.58A1.46,1.46,0,0,1,79.24,13.17Z"/><path class="cls-7" d="M80.67,13.17a1.68,1.68,0,0,1-.77.61l0,0a2,2,0,0,0,.52-.59,1.42,1.42,0,0,0,.24-.59c0-.15-.11-.24-.33-.24s-.44-.13-.44-.4.17-.42.52-.42a.62.62,0,0,1,.49.23,1,1,0,0,1,.18.58A1.46,1.46,0,0,1,80.67,13.17Z"/></svg>