<svg id="圖層_1" data-name="圖層 1" xmlns="http://www.w3.org/2000/svg" viewBox="0 0 50 50"><defs><style>.cls-1{fill:#fff;}</style></defs><title>工作區域 3</title><path class="cls-1" d="M7.5,26.1s-.09-.14-.27-.31-.26-.21-.31-.21-.11,0-.19.14a1.55,1.55,0,0,1-.21.28H3.85a4.33,4.33,0,0,0,.08-.45s.09-.09.24-.12.12,0,.12-.09-.06-.07-.18-.11l-.58-.16a7.06,7.06,0,0,1-.12.93H1a4.59,4.59,0,0,1-.85-.06l.13.36A2.61,2.61,0,0,1,1,26.24H3.36a3.17,3.17,0,0,1-.21.55,2.45,2.45,0,0,1-.88.93A7.91,7.91,0,0,1,0,28.58l.07.14A8.81,8.81,0,0,0,2.35,28a2.74,2.74,0,0,0,1-.91,3.16,3.16,0,0,0,.39-.83h.08a3.49,3.49,0,0,0,.58,1,3.54,3.54,0,0,0,1,.8,6.27,6.27,0,0,0,1,.42,2.81,2.81,0,0,0,.45.11s.07,0,.12-.11a.53.53,0,0,1,.44-.22v-.12a6.09,6.09,0,0,1-1.9-.48,3.29,3.29,0,0,1-1.13-.78,2.36,2.36,0,0,1-.4-.59H7.34C7.45,26.24,7.5,26.2,7.5,26.1Z"/><path class="cls-1" d="M2.52,21.72a1.8,1.8,0,0,1,.23.45.22.22,0,0,0,.19.17.23.23,0,0,0,.17-.09.69.69,0,0,0,0-.24.49.49,0,0,0-.19-.31,3.32,3.32,0,0,0-.7-.49l-.1.11A1.91,1.91,0,0,1,2.52,21.72Z"/><path class="cls-1" d="M1.06,24.79a3.58,3.58,0,0,1-.85-.07l.12.36A2.71,2.71,0,0,1,1.06,25H7.28c.1,0,.16,0,.16-.12s-.09-.13-.26-.29-.24-.21-.29-.21-.1,0-.17.14a2.65,2.65,0,0,1-.19.26H4v-1H6.34q.17,0,.17-.14s-.08-.11-.25-.26S6,23.2,6,23.2s-.09,0-.16.12a2.3,2.3,0,0,1-.21.24H4v-.88H7q.17,0,.17-.14s-.09-.12-.26-.28S6.69,22,6.65,22s-.1,0-.17.13l-.19.26H4.55a5.86,5.86,0,0,0,.77-.73s.1,0,.25,0,.22,0,.22-.08,0-.11-.14-.14l-.59-.23A2.87,2.87,0,0,1,4.7,22a2.89,2.89,0,0,1-.36.46h-3a4.2,4.2,0,0,1-.87-.07l.14.36a2.6,2.6,0,0,1,.73-.07H3.6v.88H1.92a4.88,4.88,0,0,1-.87-.06l.13.36a2.7,2.7,0,0,1,.74-.07H3.6v1Z"/><path class="cls-1" d="M15.47,22.67c.08-.05.12-.1.12-.14s-.06-.1-.17-.19-.22-.17-.26-.17-.05,0-.12.09l-.12.12H13.18a1.2,1.2,0,0,0-.42-.24,4,4,0,0,1,.07.76v.4l0,.44c0,.1,0,.16.11.16l.13,0c.11,0,.17-.07.17-.13l0-.44V22.6H15v.77a1.49,1.49,0,0,1,0,.33c0,.11,0,.17.1.17l.16,0c.09,0,.14-.07.14-.14a2.14,2.14,0,0,1,0-.33v-.56S15.38,22.73,15.47,22.67Z"/><path class="cls-1" d="M10,22.9a3.27,3.27,0,0,1,.35.35,1.63,1.63,0,0,1,.21.38.2.2,0,0,0,.17.14.18.18,0,0,0,.13-.08.71.71,0,0,0,0-.21q0-.11-.17-.27a3.52,3.52,0,0,0-.64-.39Z"/><path class="cls-1" d="M13.59,22.9a2.88,2.88,0,0,1,.36.35,1.64,1.64,0,0,1,.22.38.2.2,0,0,0,.17.14.16.16,0,0,0,.12-.08.56.56,0,0,0,0-.21q0-.11-.17-.27a4.63,4.63,0,0,0-.68-.39Z"/><path class="cls-1" d="M11.85,22.67c.07-.05.11-.1.11-.14s-.06-.1-.17-.19-.21-.17-.25-.17-.07,0-.13.09l-.11.12H9.61a1.2,1.2,0,0,0-.42-.24,4,4,0,0,1,.07.76v.4l0,.44c0,.1,0,.16.11.16l.14,0c.1,0,.15-.07.15-.13l0-.44V22.6H11.4v.79a1.53,1.53,0,0,1,0,.34c0,.1,0,.16.11.16l.16,0c.09,0,.13-.07.13-.13a2.3,2.3,0,0,1,0-.34v-.59S11.77,22.73,11.85,22.67Z"/><path class="cls-1" d="M9.55,21.91h2.62a.12.12,0,0,0,.13-.13s-.08-.1-.24-.25-.22-.17-.26-.17-.09,0-.14.11l-.16.22h-2a4.09,4.09,0,0,1-.85-.07l.12.36A2.42,2.42,0,0,1,9.55,21.91Z"/><path class="cls-1" d="M10.64,28.1v-.91h1.69a.12.12,0,0,0,.13-.13,1,1,0,0,0-.21-.24q-.17-.15-.22-.15s-.09.05-.16.16l-.11.14H10.64v-.24q0-.1.15-.14c.12,0,.18-.08.18-.12s-.06-.09-.19-.12l-.54-.11a6.84,6.84,0,0,1,.07,1.09v.8q-.55.07-1,.08.06.15.17.39t.15.18s.07-.07.07-.21.18-.08.54-.14a23.44,23.44,0,0,0,2.3-.51l-.07-.11Q11.38,28,10.64,28.1Z"/><path class="cls-1" d="M15.5,23.83s-.1.06-.17.17l-.12.16H12.58l0,0a.79.79,0,0,0,0-.23q0-.08-.15-.22a3.77,3.77,0,0,0-.57-.34l-.07.11a1.83,1.83,0,0,1,.28.29,1.49,1.49,0,0,1,.17.34.28.28,0,0,0,.07.1H9.57a2.93,2.93,0,0,0-.45-.3,5.4,5.4,0,0,1,.09,1.06A9.76,9.76,0,0,1,9,27.2a4.29,4.29,0,0,1-.62,1.41l.13.07a4.08,4.08,0,0,0,.78-1.45,4.54,4.54,0,0,0,.17-1.11h5.35a.92.92,0,0,1,0,.14q0,.16.1.16l.17,0c.08,0,.12-.07.12-.13a2.14,2.14,0,0,1,0-.33v-.57s0-.07.14-.12.13-.09.13-.13-.06-.11-.19-.2-.2-.17-.24-.17-.07,0-.13.11L14.8,25H13.32v-.59h2.5a.12.12,0,0,0,.13-.13s-.07-.11-.22-.26S15.53,23.83,15.5,23.83Zm-4.42,2.08H9.52q0-.31,0-.69h1.53Zm0-.93H9.55v-.59h1.53Zm1.92.93H11.4v-.69H13ZM13,25H11.4v-.59H13Zm1.88.24v.69H13.32v-.69Z"/><path class="cls-1" d="M15.86,21.56c-.13-.12-.22-.17-.26-.17s-.08,0-.13.11l-.16.22h-2a4.2,4.2,0,0,1-.87-.07l.14.36a2.6,2.6,0,0,1,.73-.07H16a.12.12,0,0,0,.14-.14S16,21.7,15.86,21.56Z"/><path class="cls-1" d="M15.77,27.67V27h-.14a6.56,6.56,0,0,1-.08.65c0,.29-.1.45-.21.48a6.3,6.3,0,0,1-1.06,0,3.28,3.28,0,0,1-1-.08.24.24,0,0,1-.12-.21v-.5A12.19,12.19,0,0,0,15,27l.26,0s.07,0,.07,0,0-.09-.1-.12l-.44-.31a3.83,3.83,0,0,1-1.62.78V26.8a.19.19,0,0,1,.14-.17c.1,0,.16-.07.16-.12s-.07-.08-.22-.12l-.44-.07a4.55,4.55,0,0,1,0,.49v1.13a.54.54,0,0,0,.2.46,3.47,3.47,0,0,0,1.26.12,8,8,0,0,0,1.42-.07c.17,0,.26-.07.26-.15a.14.14,0,0,0-.07-.13C15.81,28.11,15.77,27.95,15.77,27.67Z"/><path class="cls-1" d="M23.57,23s-.09,0-.18.15-.11.12-.12.12H20.92V21.84c0-.08.05-.13.16-.16s.21-.09.21-.14-.07-.09-.21-.12l-.59-.11a8.11,8.11,0,0,1,.07,1.18v.73H18.23a1.44,1.44,0,0,0-.49-.3,3.08,3.08,0,0,1,.11.83v4.16l0,.5c0,.1,0,.16.1.16l.15,0c.12,0,.18-.07.18-.13l0-.46h5.11v.46q0,.12.17.12l.1,0q.12,0,.12-.09,0-2.24,0-4.73s0-.09.14-.14.19-.1.19-.12-.06-.12-.17-.25S23.6,23,23.57,23Zm-3,4.77H18.21V25.55h2.34Zm0-2.42H18.21V23.47h2.34Zm2.78,2.42H20.92V25.55h2.41Zm0-2.42H20.92V23.47h2.41Z"/><path class="cls-1" d="M29.4,23.73q-.22-.21-.28-.21t-.25.22l-.15.17h-.66V21.81c0-.08,0-.13.15-.16s.21-.09.21-.14-.07-.09-.21-.12l-.59-.11a7.29,7.29,0,0,1,.07,1.18v4.85l-.86.26-.23.06V23.1c0-.07,0-.12.14-.15s.19-.09.19-.12-.07-.09-.2-.11l-.54-.12a6.29,6.29,0,0,1,.07,1.1v4a8,8,0,0,1-.83.14l.24.49q.09.21.2.21t.1-.22.69-.32a22.17,22.17,0,0,0,2.93-1.24l-.09-.12q-.79.32-1.45.55v-3h1.49q.12,0,.12-.14S29.58,23.89,29.4,23.73Z"/><path class="cls-1" d="M32.69,27.75V26.4h-.1l-.18.9q-.09.53-.26.64a3.52,3.52,0,0,1-.84.06,2.7,2.7,0,0,1-.88-.08q-.12,0-.12-.28V24.76a10.32,10.32,0,0,0,1.85-1.26l.36,0c.08,0,.13,0,.14-.06s-.06-.09-.18-.15L32,23a4.42,4.42,0,0,1-1,1.06,4.77,4.77,0,0,1-.68.51v-2.8q0-.08.17-.16t.22-.11c0-.07-.06-.11-.19-.12l-.63-.13a8.36,8.36,0,0,1,.06,1.19v5.19q0,.45.24.57a3,3,0,0,0,1.12.12,6.08,6.08,0,0,0,1.36-.09c.14,0,.21-.09.21-.14s0-.07-.09-.11A.3.3,0,0,1,32.69,27.75Z"/><path class="cls-1" d="M38.64,21.88a3.13,3.13,0,0,1,.29.56.17.17,0,0,0,.16.12.18.18,0,0,0,.13-.07.53.53,0,0,0,0-.22.68.68,0,0,0-.21-.39,4.64,4.64,0,0,0-.8-.59l-.07.1A3.16,3.16,0,0,1,38.64,21.88Z"/><path class="cls-1" d="M35.79,24.29a8.39,8.39,0,0,0,1-1.16q0,.8,0,3.34,0,.22-.07.93c0,.11,0,.17.07.17l.2,0c.09,0,.13-.07.13-.12V27h4.07q.12,0,.12-.14s-.09-.13-.26-.29-.23-.21-.26-.21-.12.07-.22.22l-.14.17H39.06V25.58h1.65c.09,0,.13,0,.13-.14s-.08-.12-.25-.27-.21-.19-.25-.19-.12.07-.21.2l-.12.17h-1V24.25h1.65c.09,0,.13,0,.13-.12s-.08-.13-.25-.28-.21-.19-.25-.19-.12.07-.21.2L40,24h-1V22.93H41c.09,0,.14,0,.14-.12s-.09-.14-.26-.31-.23-.19-.27-.19-.12.07-.21.21l-.15.19H37.18l-.09-.09a9.88,9.88,0,0,0,.52-.93s.08,0,.18,0,.21,0,.21-.1-.08-.1-.23-.15l-.5-.18a6.94,6.94,0,0,1-.67,1.72,6.64,6.64,0,0,1-.89,1.26Zm1.31-1.35h1.63V24H37.11Zm0,1.32h1.63v1.09H37.11Zm0,1.33h1.63v1.15H37.11Z"/><path class="cls-1" d="M35.22,22.57a.24.24,0,0,0,.21.17.21.21,0,0,0,.15-.08.62.62,0,0,0,0-.25A.78.78,0,0,0,35.4,22a4.79,4.79,0,0,0-.84-.68l-.09.1a3.27,3.27,0,0,1,.46.56A2.45,2.45,0,0,1,35.22,22.57Z"/><path class="cls-1" d="M38.84,28.12a6.66,6.66,0,0,1-2.58-.33,2.37,2.37,0,0,1-.88-.72,8.77,8.77,0,0,0,.48-1.43s0-.08.12-.1.15-.06.15-.1-.06-.13-.18-.23-.24-.2-.29-.2-.07,0-.11.09l-.12.17H34.8l.85-1.58c0-.05.06-.09.14-.12s.22-.09.22-.12-.07-.13-.21-.26a1.08,1.08,0,0,0-.22-.14s-.06,0-.13.12l-.1.11a10.23,10.23,0,0,1-1.42-.07l.14.36a8.48,8.48,0,0,1,1.32-.07l-1.2,2.18c0,.06.08.1.24.11a.11.11,0,0,0,.12-.11l.11-.19h.83A5.64,5.64,0,0,1,35,27.23a5.55,5.55,0,0,1-1.19,1.46l.06.07a5,5,0,0,0,1.26-1.16,2.68,2.68,0,0,0,.22-.4,3,3,0,0,0,.83.84,2.19,2.19,0,0,0,.86.33,28.84,28.84,0,0,0,3.87.14.12.12,0,0,0,.12-.09c0-.14.2-.24.48-.31l0-.09Q40.29,28.12,38.84,28.12Z"/><path class="cls-1" d="M47.91,26.71a7,7,0,0,1-1.18-2.23,6.63,6.63,0,0,1-.33-2.1s.07-.1.22-.17.21-.1.21-.13-.09-.15-.26-.28a.63.63,0,0,0-.31-.18s-.07,0-.12.09a1.14,1.14,0,0,1-.17.17H45a8.77,8.77,0,0,1-1.09-.07l.13.36a7.35,7.35,0,0,1,1-.07h1.16q0,.47,0,.92a13.56,13.56,0,0,1-1,2.4,7.15,7.15,0,0,1-1.07,1.53,8.11,8.11,0,0,1-1.86,1.57l.07.17a8.43,8.43,0,0,0,1.91-1.38A6.52,6.52,0,0,0,45.37,26a11.46,11.46,0,0,0,1-2,7.24,7.24,0,0,0,.2.75,6.92,6.92,0,0,0,.77,1.75A7.65,7.65,0,0,0,48.6,28q.51.5.68.5s.06,0,.14-.11a1.13,1.13,0,0,1,.55-.12l0-.14A5.5,5.5,0,0,1,47.91,26.71Z"/></svg>