<svg id="圖層_1" data-name="圖層 1" xmlns="http://www.w3.org/2000/svg" viewBox="0 0 50 50"><defs><style>.cls-1{fill:#808081;}</style></defs><title>logo_text02</title><rect class="cls-1" x="0.02" y="16.65" width="0.98" height="16.33"/><path class="cls-1" d="M8.12,32.37C6.23,32.37,5,30.6,5,27.86v-.42l6.87,0c-.07-2.48-.22-3.19-.86-4.34a3.46,3.46,0,0,0-2.89-1.67c-2.55,0-4.19,2.45-4.19,6.2,0,3.43,1.64,5.57,4.19,5.57,1.69,0,2.75-.66,3.9-2.57l-.78-.47C10.25,31.76,9.37,32.37,8.12,32.37Zm0-10a2.31,2.31,0,0,1,2,1,5.14,5.14,0,0,1,.78,3.21H5C5.25,23.84,6.33,22.34,8.12,22.34Z"/><path class="cls-1" d="M17.64,26.78c-2.06-.69-2.77-1.3-2.77-2.4a2,2,0,0,1,2.18-2c1.13,0,1.79.42,2.65,1.74l.86-.42a3.84,3.84,0,0,0-3.51-2.23,3,3,0,0,0-3.19,2.94,2.65,2.65,0,0,0,.91,2.06,6.69,6.69,0,0,0,2.5,1.2c1.82.59,2.48,1.25,2.48,2.43a2.33,2.33,0,0,1-2.55,2.26,2.88,2.88,0,0,1-2.8-2.13l-.93.34a3.67,3.67,0,0,0,3.73,2.65c2.13,0,3.58-1.3,3.58-3.24C20.78,28.45,19.87,27.51,17.64,26.78Z"/><path class="cls-1" d="M26.35,26.78c-2.06-.69-2.77-1.3-2.77-2.4a2,2,0,0,1,2.18-2c1.13,0,1.79.42,2.65,1.74l.86-.42a3.84,3.84,0,0,0-3.51-2.23,3,3,0,0,0-3.19,2.94,2.65,2.65,0,0,0,.91,2.06,6.69,6.69,0,0,0,2.5,1.2c1.82.59,2.48,1.25,2.48,2.43a2.33,2.33,0,0,1-2.55,2.26,2.88,2.88,0,0,1-2.8-2.13l-.93.34a3.67,3.67,0,0,0,3.73,2.65c2.13,0,3.58-1.3,3.58-3.24C29.49,28.45,28.58,27.51,26.35,26.78Z"/><path class="cls-1" d="M35.58,21.63c-2.57,0-4.29,2.3-4.29,5.76,0,3.63,1.64,6,4.19,6s4.29-2.3,4.29-5.93S38.13,21.63,35.58,21.63Zm-.1,10.89c-1.91,0-3.21-2-3.21-5s1.32-5.05,3.21-5.05,3.29,1.94,3.29,4.9C38.76,30.53,37.51,32.52,35.48,32.52Z"/><path class="cls-1" d="M49.56,23A3,3,0,0,0,47,21.6c-1.27,0-2.18.54-3.26,1.89V21.73l-1,0V33h1V25c.78-1.69,1.86-2.55,3.14-2.55,1.55,0,2.23.88,2.23,3V33H50V25.31A4.62,4.62,0,0,0,49.56,23Z"/></svg>