<svg id="圖層_1" data-name="圖層 1" xmlns="http://www.w3.org/2000/svg" viewBox="0 0 50 50"><defs><style>.cls-1{fill:#808081;}</style></defs><title>logo_text01</title><path class="cls-1" d="M8.63,31.07V24.72a2.89,2.89,0,0,0-3.19-3.09,3.84,3.84,0,0,0-3.65,2.5l.88.52c.83-1.57,1.57-2.13,2.82-2.13a2.09,2.09,0,0,1,2.18,2.35v.78a7.2,7.2,0,0,1-1.57.61l-1.42.39c-2.23.61-3.31,1.77-3.31,3.51a2.81,2.81,0,0,0,2.94,3c1.32,0,2.26-.51,3.36-2A9.67,9.67,0,0,0,7.9,33h.88l-.1-.91Zm-1-1.35c0,.37-.24.76-.81,1.3a3.45,3.45,0,0,1-2.5,1.2,1.92,1.92,0,0,1-2-2c0-1.47.91-2.31,3.09-2.89a16.3,16.3,0,0,0,2.21-.69Z"/><path class="cls-1" d="M16.24,21.7a3.81,3.81,0,0,0-3,1.52V16.65h-1v14a22.22,22.22,0,0,1-.12,2.5h.69l.32-1.59a3.75,3.75,0,0,0,3,1.57c2.5,0,4.14-2.33,4.14-5.93C20.21,23.91,18.59,21.7,16.24,21.7Zm-.29,10.57a3.23,3.23,0,0,1-2.8-1.72V24.3c1.08-1.28,1.89-1.74,3-1.74,1.89,0,3.06,1.82,3.06,4.68C19.23,30.41,18,32.27,15.95,32.27Z"/><path class="cls-1" d="M26.45,21.63c-2.57,0-4.29,2.3-4.29,5.76,0,3.63,1.64,6,4.19,6s4.29-2.3,4.29-5.93S29,21.63,26.45,21.63Zm-.1,10.89c-1.91,0-3.21-2-3.21-5s1.32-5.05,3.21-5.05,3.29,1.94,3.29,4.9C29.64,30.53,28.38,32.52,26.35,32.52Z"/><path class="cls-1" d="M39.74,29.77c-.71,1.59-1.86,2.53-3.09,2.53-1.59,0-2.23-.86-2.23-3V21.75h-1v7.9c0,2.26,1.05,3.46,3,3.46,1.37,0,2.16-.44,3.34-2V33h1V21.75h-1Z"/><path class="cls-1" d="M46.93,32.3c-.86,0-1.23-.49-1.23-1.59l0-8h2.45v-.86H45.71V17.07l-.93.44v4.32h-2v.88h1.91v8.12c0,1.74.56,2.33,2.13,2.33a4.23,4.23,0,0,0,1.77-.37v-.86A5.09,5.09,0,0,1,46.93,32.3Z"/></svg>