<svg id="圖層_1" data-name="圖層 1" xmlns="http://www.w3.org/2000/svg" viewBox="0 0 50 50"><defs><style>.cls-1{fill:#808081;}</style></defs><title>logo_text01</title><path class="cls-1" d="M9.32,30.82V24.73a2.77,2.77,0,0,0-3.05-3,3.68,3.68,0,0,0-3.5,2.4l.85.49c.8-1.5,1.5-2,2.7-2A2,2,0,0,1,8.4,24.87v.75a6.9,6.9,0,0,1-1.5.59l-1.36.38c-2.14.59-3.17,1.69-3.17,3.36a2.69,2.69,0,0,0,2.82,2.84c1.27,0,2.16-.49,3.22-1.88a9.26,9.26,0,0,0,.21,1.74h.85l-.09-.87ZM8.4,29.52c0,.35-.23.73-.77,1.25a3.3,3.3,0,0,1-2.4,1.15,1.84,1.84,0,0,1-1.9-2c0-1.41.87-2.21,3-2.77a15.61,15.61,0,0,0,2.11-.66Z"/><path class="cls-1" d="M16.61,21.84a3.65,3.65,0,0,0-2.91,1.46V17h-1V30.42a21.29,21.29,0,0,1-.12,2.4h.66l.31-1.53a3.59,3.59,0,0,0,2.89,1.5c2.4,0,4-2.23,4-5.69C20.41,24,18.86,21.84,16.61,21.84ZM16.32,32a3.09,3.09,0,0,1-2.68-1.65v-6c1-1.22,1.81-1.67,2.89-1.67,1.81,0,2.94,1.74,2.94,4.49C19.47,30.18,18.32,32,16.32,32Z"/><path class="cls-1" d="M26.39,21.77c-2.47,0-4.11,2.21-4.11,5.52,0,3.48,1.57,5.71,4,5.71s4.11-2.21,4.11-5.69S28.83,21.77,26.39,21.77ZM26.29,32.2c-1.83,0-3.08-1.93-3.08-4.79s1.27-4.84,3.08-4.84,3.15,1.86,3.15,4.7C29.44,30.3,28.24,32.2,26.29,32.2Z"/><path class="cls-1" d="M39.12,29.57c-.68,1.53-1.79,2.42-3,2.42C34.64,32,34,31.17,34,29.15V21.89h-1v7.57c0,2.16,1,3.31,2.89,3.31,1.32,0,2.07-.42,3.2-1.88v1.76h.92V21.89h-.94Z"/><path class="cls-1" d="M46,32c-.82,0-1.17-.47-1.17-1.53l0-7.68h2.35V22H44.84V17.4l-.89.42V22H42.07v.85H43.9v7.78c0,1.67.54,2.23,2,2.23a4.06,4.06,0,0,0,1.69-.35v-.82A4.88,4.88,0,0,1,46,32Z"/></svg>