<svg id="圖層_1" data-name="圖層 1" xmlns="http://www.w3.org/2000/svg" viewBox="0 0 50 50"><defs><style>.cls-1{fill:#fff;}</style></defs><title>logo_text04</title><path class="cls-1" d="M9.93,29.8a12.38,12.38,0,0,0-3.3-.64v.15A12.3,12.3,0,0,1,10,30.5a.5.5,0,0,0,.28.15q.23,0,.26-.26T9.93,29.8Z"/><path class="cls-1" d="M9.34,25.59q.27-.14.27-.19s-.09-.16-.26-.32S9,24.81,9,24.81a.6.6,0,0,0-.25.15l-.15.14H2.89a1.87,1.87,0,0,0-.62-.33,6.08,6.08,0,0,1,.1,1.14v2.48l0,.64c0,.16,0,.24.15.24l.22,0c.15,0,.22-.11.22-.2v-.21H8.66V29q0,.19.26.19l.14,0q.15-.06.15-.15,0-1.5,0-3.17S9.21,25.68,9.34,25.59Zm-.68,2.88H2.87v-.8H8.66Zm0-1.14H2.86v-.8H8.66Zm0-1.15H2.86v-.74H8.66Z"/><path class="cls-1" d="M5.1,29.41l-.79-.35A8.51,8.51,0,0,1,.73,30.55l.1.15a18.82,18.82,0,0,0,3.71-1h.54c.14,0,.21,0,.21-.09S5.23,29.47,5.1,29.41Z"/><path class="cls-1" d="M11.13,22.61c-.2-.19-.33-.28-.4-.28s-.12.06-.22.17a2.47,2.47,0,0,1-.27.32H9.13l0-.4c0-.07.08-.13.24-.17s.22-.1.22-.16-.11-.19-.32-.35S9,21.49,9,21.49a.42.42,0,0,0-.21.1l-.19.15H3.46a4.68,4.68,0,0,0-.64-.36,11.67,11.67,0,0,1-.17,1.44H1.59a7.14,7.14,0,0,1-1.3-.09l.21.54a3.92,3.92,0,0,1,1.09-.1h1a9.58,9.58,0,0,1-.31,1.32c0,.11.09.16.26.16s.28-.05.28-.16l0-.14H8.54l0,.24s.08.06.24.06a.49.49,0,0,0,.2,0A.14.14,0,0,0,9,24.5l.09-1.32h2.13c.17,0,.25-.07.25-.21S11.36,22.8,11.13,22.61ZM5.38,24H2.91c.07-.25.13-.53.19-.83H5.54Zm.24-1.19H3.16l.12-.73H5.76Zm3,1.19H5.82L6,23.17H8.63Zm.09-1.19H6.06l.14-.73H8.7Z"/><path class="cls-1" d="M10.6,20.34a1.06,1.06,0,0,0-.22.15.54.54,0,0,1-.19.16h-4c.09,0,.14-.16.15-.36a.51.51,0,0,0-.22-.37,4.08,4.08,0,0,0-1.36-.62l-.11.16a3.51,3.51,0,0,1,1.15,1,.91.91,0,0,0,.2.22H1.81q0-.27,0-.59H1.54a2.36,2.36,0,0,1-.24,1,2.14,2.14,0,0,1-.52.63c-.16.13-.24.24-.24.32s.12.22.33.24a.63.63,0,0,0,.37-.15,1.18,1.18,0,0,0,.4-.57A2.08,2.08,0,0,0,1.77,21h8.47a6.39,6.39,0,0,1-.4.93L10,22l.78-.76.38-.06c.24,0,.36-.06.36-.12s-.12-.22-.36-.45A1.13,1.13,0,0,0,10.6,20.34Z"/><path class="cls-1" d="M19.4,28.08l-.15,0a3,3,0,0,1,.45,1.4c0,.12.07.19.2.19a.28.28,0,0,0,.24-.11.62.62,0,0,0,.11-.38,1,1,0,0,0-.19-.43A3.75,3.75,0,0,0,19.4,28.08Z"/><path class="cls-1" d="M23.21,26.39c.17-.09.25-.16.25-.21s-.08-.14-.24-.3-.34-.3-.4-.3-.12.06-.24.19-.16.17-.17.17H19.09a2.16,2.16,0,0,0-.62-.36,6.08,6.08,0,0,1,.1,1.14v.66l0,.64c0,.16,0,.24.14.24l.21,0c.17,0,.25-.11.25-.2l0-.26h3.43V28q0,.19.26.19l.12,0c.11,0,.16-.08.16-.14q0-.66,0-1.4S23.08,26.47,23.21,26.39Zm-.69,1H19.06V26.29h3.45Z"/><path class="cls-1" d="M23.34,24.33a2,2,0,0,1-.27.33H19a5.62,5.62,0,0,1-1.3-.11l.21.54A3.92,3.92,0,0,1,19,25h5.09q.26,0,.26-.19s-.12-.17-.36-.38-.33-.26-.4-.26S23.43,24.22,23.34,24.33Z"/><path class="cls-1" d="M24,29.61c-.21-.21-.35-.31-.42-.31s-.14.07-.24.2a2.41,2.41,0,0,1-.31.35H21.35a7.92,7.92,0,0,0,.73-1.14s.13,0,.32,0,.32,0,.32-.09-.07-.14-.2-.19l-.79-.31a5.27,5.27,0,0,1-.31,1.1,5.87,5.87,0,0,1-.26.67H18.71a6.07,6.07,0,0,1-1.27-.1l.19.54a4.09,4.09,0,0,1,1.09-.1h5.4q.26,0,.26-.19S24.23,29.83,24,29.61Z"/><path class="cls-1" d="M17.16,24.3l-.09-.06a6.73,6.73,0,0,0,.69-.83,1.13,1.13,0,0,1,.26-.06l.19,0,0,.59q0,.26.15.26a.63.63,0,0,0,.22-.06c.15,0,.22-.1.22-.2v-.19h4.17v.14c0,.13.09.2.26.2l.14,0q.15-.06.15-.15,0-1.21,0-2.57s.06-.11.19-.19.27-.16.27-.21-.09-.14-.26-.3-.33-.3-.38-.3-.12.06-.25.19a1.06,1.06,0,0,1-.15.17h-1V20c0-.1.06-.16.19-.2s.27-.11.27-.16-.09-.11-.27-.14l-.73-.16a8.25,8.25,0,0,1,.1,1.3H20.2V20c0-.1.06-.16.17-.2s.27-.11.27-.16-.09-.11-.27-.14l-.72-.16a9.72,9.72,0,0,1,.09,1.3h-1a1.8,1.8,0,0,0-.63-.36,6.07,6.07,0,0,1,.1,1.14v1.71A1,1,0,0,0,18,22.9a.74.74,0,0,0-.41-.22s0,0-.1.07l-.19.21h-.26V20.5a.21.21,0,0,1,.15-.2q.26-.11.26-.15s-.07-.12-.22-.25-.31-.26-.37-.26a.25.25,0,0,0-.15.07l-.21.24H14.58a1.69,1.69,0,0,0-.63-.4,17.71,17.71,0,0,1,.1,2V23h-.35c0-.15,0-.31,0-.5l-.21,0a1.93,1.93,0,0,1-.11.68,3.64,3.64,0,0,1-.53,1.16c0,.16.09.24.26.24a.59.59,0,0,0,.41-.38,2.64,2.64,0,0,0,.16-.89h3.74q-.22.36-.52.8a.26.26,0,0,0-.12-.07.38.38,0,0,0-.22.14l-.12.12H14.58A1.8,1.8,0,0,0,14,24a6.09,6.09,0,0,1,.1,1.14v4.65l0,.64q0,.26.16.26a.77.77,0,0,0,.21,0c.15,0,.22-.11.22-.21l0-.64v-2h2v1.7q0,.33-.14.33-.46,0-1.19,0l-.06.15c.64.12,1,.28,1,.46s.08.2.12.2a1,1,0,0,0,.37-.21.76.76,0,0,0,.37-.68V25q0-.11.17-.22t.22-.22T17.16,24.3ZM21.83,21h1.09v.93H21.83Zm0,1.27h1.09v1.09H21.83ZM20.2,21h1.18v.93H20.2Zm0,1.27h1.18v1.09H20.2ZM18.71,21h1v.93h-1Zm0,1.27h1v1.09h-1V22.27ZM16.63,23h-.88V21.59h.88Zm0-1.73h-.82a5.45,5.45,0,0,0-.56-.3,4.53,4.53,0,0,1,0,.71V23h-.8V20.29h2.13Zm-.1,6.2h-2V26.18h2Zm0-1.58h-2V24.66h2Z"/><path class="cls-1" d="M27.72,21a.33.33,0,0,0,.31.24.32.32,0,0,0,.22-.11.9.9,0,0,0,.06-.38A1,1,0,0,0,28,20.2a7.15,7.15,0,0,0-1.16-.9l-.16.16a4.38,4.38,0,0,1,.64.74A3.7,3.7,0,0,1,27.72,21Z"/><path class="cls-1" d="M27.27,23.36h2.19q.2,0,.2-.19s-.11-.16-.33-.35-.3-.25-.36-.25-.13,0-.21.15l-.24.28H27.27a6.09,6.09,0,0,1-1.27-.1l.19.54A4.08,4.08,0,0,1,27.27,23.36Z"/><path class="cls-1" d="M27.32,25h2.19q.2,0,.2-.19s-.11-.16-.33-.35-.3-.25-.36-.25-.12,0-.21.15l-.24.3H27.32A5.64,5.64,0,0,1,26,24.55l.2.54A4.08,4.08,0,0,1,27.32,25Z"/><path class="cls-1" d="M29.8,21.78q.26,0,.26-.19s-.12-.17-.36-.38-.33-.27-.4-.27-.13.06-.22.17a1.63,1.63,0,0,1-.27.32H26.73a6.09,6.09,0,0,1-1.27-.1l.19.54a4.08,4.08,0,0,1,1.09-.1Z"/><path class="cls-1" d="M33.72,26h3q.26,0,.26-.19s-.13-.19-.4-.43-.38-.32-.46-.32-.14.07-.24.21l-.31.38H33.41V24.4H35.3v.26c0,.13.08.2.24.2l.16,0q.2-.06.2-.15,0-1.75,0-3.66c0-.06.06-.13.19-.21s.25-.14.25-.19-.09-.18-.26-.37-.37-.32-.43-.32-.13.07-.26.21-.17.17-.19.17h-4a2.29,2.29,0,0,0-.74-.45,4.68,4.68,0,0,1,.16,1.25V24l-.06.76c0,.16.05.24.16.24l.22,0c.18,0,.27-.11.27-.2l0-.36h1.76v1.24H31a6.08,6.08,0,0,1-1.27-.1l.19.54A4.08,4.08,0,0,1,31,26h1.35a7.79,7.79,0,0,1-1.25,2,7.4,7.4,0,0,1-1.78,1.5l0,.15a8.76,8.76,0,0,0,2.09-1.56,7.79,7.79,0,0,0,1.44-2v2.6l0,1.58q0,.41.14.41a.73.73,0,0,0,.35-.11q.15-.06.15-.3l0-1.58V26h.07a6.38,6.38,0,0,0,1.62,2.46q1,1,1.24,1s.08,0,.14-.14a.84.84,0,0,1,.61-.16v-.2A7.54,7.54,0,0,1,35,27.74,6.2,6.2,0,0,1,33.72,26Zm-.31-5.33H35.3v1.53H33.41Zm0,1.87H35.3v1.53H33.41Zm-.53,1.53H31.1V22.52h1.78Zm0-1.87H31.1V20.65h1.78Z"/><path class="cls-1" d="M29.28,26.89c.16-.1.24-.17.24-.21s-.09-.14-.26-.3-.33-.3-.4-.3-.12.06-.22.19l-.16.17H26.83a1.92,1.92,0,0,0-.64-.36,5.44,5.44,0,0,1,.11,1.14v2.19l-.06.64c0,.16.05.24.16.24l.2,0c.17,0,.25-.11.25-.2l-.06-.64V29.3h1.84V30c0,.13.08.2.24.2l.15,0c.11,0,.16-.09.16-.15q0-1.36,0-2.88S29.17,27,29.28,26.89ZM28.62,29H26.78V26.79h1.84Z"/><path class="cls-1" d="M43.46,23.32l0,.63c0,.17,0,.26.14.26a.77.77,0,0,0,.22,0c.15,0,.22-.11.22-.21l0-.45h4v.35c0,.13.08.2.24.2l.14,0c.12,0,.17-.09.17-.15q-.05-1.36,0-2.86c0-.06.06-.13.19-.21s.25-.14.25-.19-.08-.16-.24-.32-.34-.27-.41-.27-.12.06-.22.17-.16.16-.17.16H44a1.73,1.73,0,0,0-.61-.33,6.9,6.9,0,0,1,.09,1.14ZM44,20.69h4v2.49H44Z"/><path class="cls-1" d="M49.35,29.23c-.2-.17-.33-.26-.4-.26s-.13.05-.22.16a2.35,2.35,0,0,1-.26.33H46.14V27.38h2.72c.17,0,.26-.07.26-.21s-.12-.16-.36-.36-.34-.28-.4-.28-.13.06-.22.17a1.62,1.62,0,0,1-.27.32H46.14v-1.7a11.74,11.74,0,0,0,1.78-.42l.61.09a.12.12,0,0,0,.1-.14c0-.07-.09-.16-.26-.25l-.59-.35a4,4,0,0,1-1,.47,8.07,8.07,0,0,1-1.46.38,17.78,17.78,0,0,1-2.44.32l.1.15q1.34,0,2.62-.2V27H44.06a7,7,0,0,1-1.27-.09l.19.54a4.09,4.09,0,0,1,1.09-.1h1.58v2.08H43.16a5.64,5.64,0,0,1-1.29-.11l.2.54a4.09,4.09,0,0,1,1.09-.1h6.29q.26,0,.26-.19S49.59,29.44,49.35,29.23Z"/><path class="cls-1" d="M42.19,25.69a.27.27,0,0,0,.2-.11,1.07,1.07,0,0,0,0-.32,1,1,0,0,0-.37-.62,6.12,6.12,0,0,0-1.16-.8V23h1.79c.16,0,.24-.06.24-.19s-.12-.17-.35-.38-.33-.26-.38-.26-.14.05-.24.16a2.34,2.34,0,0,1-.26.33h-.8V20.55q.51-.16,1.19-.45l.5,0,.11,0a.31.31,0,0,0-.15-.24,4.13,4.13,0,0,0-.61-.41,6.78,6.78,0,0,1-1.67.85,11.63,11.63,0,0,1-1.94.52l.1.21q1.21-.17,1.93-.35v1.93h-.83a5.72,5.72,0,0,1-1.3-.11l.2.56a3.62,3.62,0,0,1,1.1-.11h.69a12.83,12.83,0,0,1-.85,2.69,6.85,6.85,0,0,1-1.23,1.88l.09.14a7.14,7.14,0,0,0,1.51-1.93,7.24,7.24,0,0,0,.62-1.44v4.36l0,1.58q0,.41.15.41a.68.68,0,0,0,.35-.11q.15-.06.15-.3l0-1.58V24.09a3.22,3.22,0,0,1,.53.53,3.61,3.61,0,0,1,.51.87A.28.28,0,0,0,42.19,25.69Z"/></svg>