<svg id="圖層_1" data-name="圖層 1" xmlns="http://www.w3.org/2000/svg" viewBox="0 0 50 50"><defs><style>.cls-1{fill:#808081;}</style></defs><title>logo_text03</title><path class="cls-1" d="M5.25,27.15c-2.67,0-3.72-.36-3.72-1.2,0-.53.28-.92,1-1.27a4,4,0,0,0,2,.48,3.82,3.82,0,0,0,3.82-4.07,3.93,3.93,0,0,0-.89-2.7c.51-.59.76-.69,1.91-.74v-1a2.6,2.6,0,0,0-2.42,1.15,3.55,3.55,0,0,0-2.47-.92A3.87,3.87,0,0,0,.56,21a4.06,4.06,0,0,0,1.32,3.18C.89,24.88.59,25.32.59,26s.41,1.25,1.5,1.76C.53,28.6,0,29.24,0,30.39c0,1.81,1.73,2.93,4.51,2.93,3.16,0,4.91-1.15,4.91-3.21C9.42,28.3,7.87,27.18,5.25,27.15ZM1.58,21a2.93,2.93,0,0,1,2.88-3.23c1.68,0,2.85,1.32,2.85,3.26a3,3,0,0,1-2.88,3.23C2.7,24.27,1.58,23,1.58,21ZM4.41,32.45c-2,0-3.44-.89-3.44-2.19,0-1,.76-1.68,2.44-2.32l1.3.1c2.8.18,3.74.71,3.74,2.14S7,32.45,4.41,32.45Z"/><path class="cls-1" d="M12.81,20V17.09H11.72V28.76h1v-6.7a9.63,9.63,0,0,1,1.4-2.52,3.56,3.56,0,0,1,2.9-1.63V17a3.62,3.62,0,0,0-2.11.56A6.85,6.85,0,0,0,12.81,20Z"/><path class="cls-1" d="M22.77,17c-2.67,0-4.46,2.39-4.46,6,0,3.77,1.71,6.19,4.35,6.19s4.46-2.39,4.46-6.16S25.42,17,22.77,17Zm-.1,11.3c-2,0-3.34-2.09-3.34-5.19s1.37-5.25,3.34-5.25,3.41,2,3.41,5.09C26.08,26.21,24.78,28.27,22.67,28.27Z"/><path class="cls-1" d="M36.58,25.42C35.84,27.08,34.64,28,33.37,28c-1.66,0-2.32-.89-2.32-3.08V17.09H30v8.2c0,2.34,1.09,3.59,3.13,3.59,1.43,0,2.24-.46,3.46-2v1.91h1V17.09h-1Z"/><path class="cls-1" d="M45.7,17a3.64,3.64,0,0,0-3,1.6V17.07h-1V33.26h1V27.2a3.75,3.75,0,0,0,3.18,1.65c2.55,0,4.15-2.24,4.15-5.93C50,19.39,48.27,17,45.7,17Zm.08,11a3.56,3.56,0,0,1-3.08-1.88V19.67a3.57,3.57,0,0,1,2.93-1.81c2.09,0,3.36,2,3.36,5.22S47.81,28,45.78,28Z"/></svg>