<svg id="圖層_1" data-name="圖層 1" xmlns="http://www.w3.org/2000/svg" viewBox="0 0 50 50"><title>logo_text01</title><path d="M8,31.81q-.25,0-.25-.54V25.5q0-3.42-3.62-3.42a4.4,4.4,0,0,0-2.6.75,2.05,2.05,0,0,0-1,1.67q0,.69.6.69T1.92,24a1.36,1.36,0,0,1,.52-1,2.78,2.78,0,0,1,1.77-.44q2.63,0,2.63,3.5a10.54,10.54,0,0,0-4.5,1A3.68,3.68,0,0,0,0,30.5a2,2,0,0,0,.71,1.6,2.55,2.55,0,0,0,1.75.6,6.06,6.06,0,0,0,4.38-2.1v1.27q0,.83.58.83a1.91,1.91,0,0,0,1.33-.81l-.19-.33A1,1,0,0,1,8,31.81ZM6.83,30a5.82,5.82,0,0,1-1.69,1.4,4.17,4.17,0,0,1-2,.69Q1,32,1,30.35a3.14,3.14,0,0,1,2-2.85,8.93,8.93,0,0,1,3.77-.92Z"/><path d="M15.94,22.13a3.53,3.53,0,0,0-3,1.75V17.29A4.7,4.7,0,0,1,10.5,18v.46a3.26,3.26,0,0,1,1.06.1.82.82,0,0,1,.5.88V32.71h.19L13,31.48a3.68,3.68,0,0,0,2.63,1.23,3.35,3.35,0,0,0,3-1.67,6.76,6.76,0,0,0,1-3.77,6.45,6.45,0,0,0-.94-3.56A3.07,3.07,0,0,0,15.94,22.13Zm1.85,8.58a2.71,2.71,0,0,1-2.48,1.48,2.24,2.24,0,0,1-1.56-.73,2.14,2.14,0,0,1-.77-1.6V24.69a3.64,3.64,0,0,1,1.17-1.46,2.54,2.54,0,0,1,1.52-.6,2.45,2.45,0,0,1,2.15,1.46,6,6,0,0,1,.75,3.06A7,7,0,0,1,17.79,30.71Z"/><path d="M25.73,22.08a3.56,3.56,0,0,0-3.08,1.67,6.21,6.21,0,0,0-1,3.67,6.17,6.17,0,0,0,1,3.65,3.58,3.58,0,0,0,3.08,1.65,3.52,3.52,0,0,0,3.06-1.65,6.27,6.27,0,0,0,1-3.67,6.21,6.21,0,0,0-1-3.67A3.52,3.52,0,0,0,25.73,22.08Zm2.48,8.52a2.7,2.7,0,0,1-5,0,7.32,7.32,0,0,1-.6-3.19,7.61,7.61,0,0,1,.6-3.23,2.7,2.7,0,0,1,5,0,7.23,7.23,0,0,1,.63,3.23A7.25,7.25,0,0,1,28.21,30.6Z"/><path d="M39.81,31V22.17a5.21,5.21,0,0,1-2.19.67v.48a2.14,2.14,0,0,1,1,.17q.25.19.25.88v5.92A3.33,3.33,0,0,1,36,32.06a1.85,1.85,0,0,1-1.42-.6A2.11,2.11,0,0,1,34,29.9V22.17a4.78,4.78,0,0,1-2,.67v.48a1.55,1.55,0,0,1,.92.19,1.13,1.13,0,0,1,.23.83v5.52A2.83,2.83,0,0,0,33.81,32a2.63,2.63,0,0,0,1.92.73,3.7,3.7,0,0,0,3.17-1.79v1.56h1.94V32a1.37,1.37,0,0,1-.83-.17C39.88,31.76,39.81,31.49,39.81,31Z"/><path d="M49.77,30.71Q48.81,32,48,32a.8.8,0,0,1-.81-.46A2.93,2.93,0,0,1,47,30.4V22.58h2.56v-.46H47v-4h-.5a7.27,7.27,0,0,1-.38,2.73,2.07,2.07,0,0,1-2,1.23v.46h2V30.4q0,2.31,1.46,2.31A3,3,0,0,0,50,30.94Z"/></svg>