<svg id="圖層_1" data-name="圖層 1" xmlns="http://www.w3.org/2000/svg" viewBox="0 0 50 50"><defs><style>.cls-1{fill:#604c3f;}</style></defs><title>logo_text07</title><path class="cls-1" d="M.95,25.42s0,.07,0,.06.06,0,.09-.07a.2.2,0,0,0,0-.13q0-.1-.26-.31s0,0,0,0a.86.86,0,0,1,.09.23l-.66.1q.18-.22.37-.5L1,24.29q.14,0,0-.08l-.13-.13h0l-.09.2a3,3,0,0,1-.13.29H.17a5.82,5.82,0,0,0,.53-.76q.11,0,0-.06l-.16-.12h0a1.79,1.79,0,0,0-.1.29,2.35,2.35,0,0,1-.28.53.26.26,0,0,1-.13.13s0,0,0,0,0,0,0,0l.05.09,0,0,.08,0,.18-.06.26-.05a4.3,4.3,0,0,1-.4.62q-.07.09-.11.08t-.07,0s0,0,0,0l.06.12s0,.05,0,0l.12,0,.2-.08.45-.14A.47.47,0,0,1,.95,25.42Z"/><path class="cls-1" d="M.65,25.9a1.07,1.07,0,0,0-.13-.16s0,0,0,0a.85.85,0,0,1,.05.44s0,.05.05,0,0,0,.06,0a.23.23,0,0,0,0-.14A.37.37,0,0,0,.65,25.9Z"/><path class="cls-1" d="M.85,25.59s0,0,0,0A.78.78,0,0,1,1,26s0,.06,0,.06.06,0,.08-.07a.32.32,0,0,0,0-.12Q1.15,25.82.85,25.59Z"/><path class="cls-1" d="M1.88,24.21A.15.15,0,0,0,2,24.14.27.27,0,0,0,2,24s0-.08-.09-.14a3.63,3.63,0,0,0-.33-.28s-.05,0,0,0a1,1,0,0,1,.24.55S1.84,24.21,1.88,24.21Z"/><path class="cls-1" d="M.21,25.8s0,0,0,0a.63.63,0,0,1-.13.36s-.05.06,0,.09,0,.08.1.08S.26,26.2.25,26v0A.93.93,0,0,0,.21,25.8Z"/><path class="cls-1" d="M2,25.65a2.49,2.49,0,0,0,.39-1.27h.42s0,0,0,0l-.05-.07-.1-.08s-.06-.06-.07,0,0,0,0,0l-.08.1H1.13l.12.1.07,0h.13a2.81,2.81,0,0,0,.35,1.26,2.61,2.61,0,0,1-1.06.71s0,0,0,0a3.52,3.52,0,0,0,.6-.25,2,2,0,0,0,.52-.38,2.33,2.33,0,0,0,.6.57s0,0,.05,0a.62.62,0,0,1,.34-.07s0,0,0,0A1.6,1.6,0,0,1,2,25.65ZM1.63,25a2.69,2.69,0,0,1-.13-.59h.7a2.08,2.08,0,0,1-.31,1.13A2.57,2.57,0,0,1,1.63,25Z"/><path class="cls-1" d="M5.7,25.45l-.06,0s0,0,0,0l-.05.07H5.27l.08-.33.08,0s0,0,0,0,0,0,0,0L5.33,25l0,0s0,0,0,0l-.09.1H4.24l.13.1.07,0h.15a1.17,1.17,0,0,1-.18.73,2,2,0,0,1-.79.55s0,0,0,0a1.75,1.75,0,0,0,.86-.51,1.27,1.27,0,0,0,.25-.8h.43l-.07.32-.05.05s0,0,0,0,0,0,0,0l.09.07,0,0s0,0,0,0l0-.07h.3q0,.59-.27.58H5.14l-.25,0s0,0,0,0a.85.85,0,0,1,.25.08.19.19,0,0,1,.11.16q.41,0,.48-.75l.06,0s0,0,0,0,0,0,0,0Z"/><path class="cls-1" d="M3.87,25.57s0,0,0,0A.82.82,0,0,1,4,26s0,.06,0,.05A.09.09,0,0,0,4.13,26a.31.31,0,0,0,0-.12Q4.17,25.8,3.87,25.57Z"/><path class="cls-1" d="M3.31,25.73s0,0,0,0a.58.58,0,0,1-.13.36.11.11,0,0,0,0,.09q0,.08.1.07t.14-.36a.37.37,0,0,0,0,0Z"/><path class="cls-1" d="M3.66,26.18s.08-.06.1-.19a.56.56,0,0,0-.18-.3s-.05,0,0,0a.9.9,0,0,1,0,.44A.05.05,0,0,0,3.66,26.18Z"/><path class="cls-1" d="M5.12,24.32H5.9s0,0,0,0,0,0,0-.07l-.12-.1-.07,0s0,0,0,0l-.09.11H5v-.39l.53,0q.16.06.09,0l-.13-.18h0l-.22.07-.51.13-.55.09s0,0,0,0l.68-.05v.37H4.26l.12.1.07,0h.22a2,2,0,0,1-.27.35A2.57,2.57,0,0,1,4,25s0,0,0,0a2.84,2.84,0,0,0,.54-.36,2.17,2.17,0,0,0,.33-.36h0v.19q0,.18,0,.31V25s0,0,0,0,.15,0,.16-.1,0,0,0-.12,0-.16,0-.25v-.19h0a1.22,1.22,0,0,0,.28.41,1.1,1.1,0,0,0,.37.25s0,0,0,0A.31.31,0,0,1,6,24.84s0,0,0,0A1.06,1.06,0,0,1,5.12,24.32Z"/><path class="cls-1" d="M4,25.34a.55.55,0,0,1,0,.15s0,.06,0,.05a.12.12,0,0,0,.09-.07.2.2,0,0,0,0-.13q0-.1-.3-.31s0,0,0,0l.12.2-.36,0H3.37a6.28,6.28,0,0,0,.79-1.06q.16,0,0-.1l-.14-.1,0,0-.08.2a3,3,0,0,1-.13.29H3.29a6.34,6.34,0,0,0,.55-.76q.12,0,0-.07l-.16-.12h0a2,2,0,0,0-.11.26,2.4,2.4,0,0,1-.3.56.26.26,0,0,1-.13.13s0,0,0,0,0,0,0,0l.05.09a.06.06,0,0,0,0,0l.08,0,.19-.06.28-.06a5.34,5.34,0,0,1-.46.64l-.12.09q-.08,0-.06,0s0,0,0,0l.06.12s0,.05,0,0l.13,0,.24-.07Z"/><path class="cls-1" d="M8.94,26.2l-.1-.09-.07,0s0,0,0,0l-.1.11H7.78v-.42h.67s0,0,0,0,0,0,0-.05l-.12-.08s-.06,0-.07,0,0,0,0,0l-.09.09H7.78v-.27l.06-.06,0,0s0,0-.05,0l-.15-.08-.06,0h0s0,0,0,0v.28s0,.07,0,.13v.07H7l.13.1.06,0h.45v.42H6.41l.13.1.09,0H9S9,26.24,8.94,26.2Z"/><path class="cls-1" d="M8.14,25.15h1s0,0,0,0,0,0-.07-.07L9,25l-.07,0,0,0-.1.13H8.34v-1H9s0,0,0,0S9,24,9,24l-.12-.09-.08,0s0,0,0,0L8.67,24H8.34v-.17l.07-.06,0,0s0,0-.05,0l-.15-.08-.05,0h0s0,0,0,0v.27s0,.07,0,.12H7.27v-.17l.06-.06,0,0s0,0,0,0l-.15-.08-.05,0h0s0,0,0,0v.27s0,.06,0,.11h-.7l.13.12.09,0h.48v1H6.29l.12.1.1,0h.64a1.64,1.64,0,0,1-.33.38,2.7,2.7,0,0,1-.57.34s0,0,0,0a2.08,2.08,0,0,0,1.14-.76H8a1.48,1.48,0,0,0,.36.4,2.06,2.06,0,0,0,.45.27s.05,0,.08-.05.1-.06.21-.07,0,0,0,0A1.57,1.57,0,0,1,8.14,25.15Zm-.87-1.07h.92v.27H7.27Zm0,.34h.92v.28H7.27Zm0,.67v-.31h.92v.31Z"/><path class="cls-1" d="M10.82,26q-.08,0,0,0a.49.49,0,0,1,.24.31s0,.06.06.06.09-.07.1-.18S11.06,26.07,10.82,26Z"/><path class="cls-1" d="M12.13,24,12,23.9,12,23.85s0,0-.07,0l-.07.1H9.92l-.13-.1,0,0h0s0,0,0,0v.28s0,.07,0,.13v.48a2.53,2.53,0,0,1-.36,1.56q0,.09,0,0a1.28,1.28,0,0,0,.36-.56,3.25,3.25,0,0,0,.14-1v-.71h2.28s0,0,0,0Z"/><path class="cls-1" d="M12.09,25.1,12,25l-.07,0-.05,0-.1.12h-.59a3.59,3.59,0,0,1-.08-.63l.54-.08q.14.06.1,0l-.13-.16,0,0-.24.1-.4.1-.49.09,0,0-.12-.09,0,0h0s0,0,0,0v.28s0,.07,0,.13v1.11q0,.18-.05.22a0,0,0,0,0,0,0s0,0,0,0l.07.1s0,.06,0,0l0-.05.21-.24.35-.35s0-.05,0,0l-.46.34v-.85H11a2.43,2.43,0,0,0,.31.76,1.31,1.31,0,0,0,.57.49l.14,0a0,0,0,0,0,0,0s0,0,0-.06a.45.45,0,0,1,0-.14,3.21,3.21,0,0,1,0-.49s0,0,0,0,0,0,0,0a3.63,3.63,0,0,1-.09.37s0,.06-.05.06l-.07,0a1.48,1.48,0,0,1-.58-1h1s0,0,0,0Zm-1.74,0v-.55h0l.55,0a2.88,2.88,0,0,0,.07.6Z"/><path class="cls-1" d="M10.85,23.89a.06.06,0,0,0,.07.05q.08,0,.09-.18a.13.13,0,0,0-.08-.11,1.39,1.39,0,0,0-.3-.12q-.09,0,0,0A.58.58,0,0,1,10.85,23.89Z"/><path class="cls-1" d="M13.47,24.68a2.5,2.5,0,0,0,.4-.54.65.65,0,0,1,.2.4s0,.07.06.07,0,0,.07-.07a.33.33,0,0,0,0-.14.17.17,0,0,0-.07-.13,1.51,1.51,0,0,0-.27-.18l.16-.3q.11,0,0-.07l-.18-.1h0a1.26,1.26,0,0,0-.07.26,3.42,3.42,0,0,1-.15.38,2.29,2.29,0,0,1-.23.4S13.42,24.71,13.47,24.68Z"/><path class="cls-1" d="M13.39,23.74l-.16-.12h0l-.18.24a3.17,3.17,0,0,1-.48.45s0,0,0,0a4.58,4.58,0,0,0,.79-.54Q13.46,23.81,13.39,23.74Z"/><path class="cls-1" d="M14.42,26.05v-.68h.74s0,0,0,0,0,0,0-.07l-.12-.1s-.05,0-.06,0l0,0-.09.11h-.42V25l.06,0,0,0s0,0-.05,0l-.15-.06-.05,0h0s0,0,0,0v.28s0,.07,0,.12V26a.89.89,0,0,1-.49-.48l.08-.33q.15,0,0-.09L13.69,25h0l-.07.42a2.06,2.06,0,0,1-.39.85s0,.05,0,0a1.92,1.92,0,0,0,.51-.74,1.08,1.08,0,0,0,.53.53,2.45,2.45,0,0,0,.82.2s.06,0,.06,0a.39.39,0,0,1,.24-.16s0,0,0,0A3.81,3.81,0,0,1,14.42,26.05Z"/><path class="cls-1" d="M13.14,24.84l0,0,.27-.31q.12,0,0-.08l-.15-.12h0l-.13.27a3.1,3.1,0,0,1-.54.71s0,0,0,0a3.92,3.92,0,0,0,.36-.3V26q0,.17,0,.3t0,.15s0,0,0,0,.14,0,.15-.1V25l.06-.06,0,0Z"/><path class="cls-1" d="M14.19,24.79a1.49,1.49,0,0,0,.36-.36l.14-.23a.82.82,0,0,1,.32.42s0,.06.07.05.05,0,.07-.08a.24.24,0,0,0,0-.13s0-.08-.1-.13a1.64,1.64,0,0,0-.36-.16q.11-.27.15-.4t0-.09l-.21-.09h0a2.2,2.2,0,0,0-.08.35,1.87,1.87,0,0,1-.45.84S14.15,24.8,14.19,24.79Z"/><path class="cls-1" d="M15.84,24.82h1.64s0,0,0,0l-.06-.06-.1-.09-.07,0s0,0,0,0l-.08.1H15.64l.13.1Z"/><path class="cls-1" d="M18.2,24.48l-.14.2a2.77,2.77,0,0,1-.33.34,3.58,3.58,0,0,1-.39.3s0,0,0,0a5.11,5.11,0,0,0,.95-.66q.12,0,.05-.05l-.16-.14Z"/><path class="cls-1" d="M17.88,24.16l.33-.3q.12,0,.06-.07l-.15-.16h0l-.12.2a3.88,3.88,0,0,1-.59.62s0,.06,0,0A3.64,3.64,0,0,0,17.88,24.16Z"/><path class="cls-1" d="M16,24s0,.07,0,.12q0,.41,0,.45s0,0,0,0,.12,0,.13-.06v-.06h.27a.3.3,0,0,1,.09.09l.07.12s0,.07.07.07.09,0,.09-.1-.1-.13-.24-.19H17v.08s0,0,0,0a.16.16,0,0,0,.15-.1s0-.06,0-.15,0-.19,0-.32V23.9l.06-.07s0,0,0,0l0,0-.09-.08,0,0,0,0-.11.1H16.1l-.1-.09,0,0h0s0,0,0,0V24Zm.16-.14H17v.24h-.92Zm0,.32H17v.21h-.92Z"/><path class="cls-1" d="M16.34,25.7l-.16-.13h0a.72.72,0,0,0-.08.15,2.17,2.17,0,0,1-.44.52s0,0,0,0a2.42,2.42,0,0,0,.6-.52Q16.4,25.76,16.34,25.7Z"/><path class="cls-1" d="M16.66,25.42H17v.06s0,0,0,0,.13,0,.15-.08,0-.1,0-.24h0l.06-.07s0,0,0,0,0,0,0,0l-.1-.07,0,0s0,0,0,0L17,25h-.81L16,25l0,0h0s0,0,0,0v.14q0,.11,0,.13v.09q0,.21,0,.21l0,0q.12,0,.13-.07v-.05h.36V26q0,.12-.1.12h-.1l-.16,0s0,0,0,0l.2.08a.15.15,0,0,1,.09.13.24.24,0,0,0,.23-.23s0-.15,0-.44Zm-.52-.07v-.27H17v.27Z"/><path class="cls-1" d="M17.06,26s0,.07,0,.07a.1.1,0,0,0,.09-.07.29.29,0,0,0,0-.11q0-.12-.43-.3-.08,0,0,0A.75.75,0,0,1,17.06,26Z"/><path class="cls-1" d="M18.33,25.24l0,0-.18.25a3.3,3.3,0,0,1-.6.52,5.64,5.64,0,0,1-.72.4s0,0,0,0a3.75,3.75,0,0,0,1.56-1q.13,0,0-.07Z"/><path class="cls-1" d="M20.16,23.91s0,.06.06.06,0,0,.07-.06a.26.26,0,0,0,0-.11s0-.08-.08-.11l-.32-.14s0,0,0,.05A.71.71,0,0,1,20.16,23.91Z"/><path class="cls-1" d="M21,25.17l-.12-.09,0,0s0,0,0,0l-.1.1H19.58l-.13-.09-.05,0h0s0,0,0,0v.28s0,.07,0,.13V26q0,.18,0,.31t0,.15a0,0,0,0,0,0,0q.13,0,.15-.1v-.13h1.21v.18s0,0,0,0a.16.16,0,0,0,.15-.1s0-.05,0-.13,0-.15,0-.24v-.65l.09-.07s0,0,0,0S21,25.19,21,25.17Zm-.24,1H19.56v-.44h1.21Zm0-.5H19.56v-.43h1.21Z"/><path class="cls-1" d="M19.24,24.07h2.09s0,0,0,0,0,0-.07-.08l-.09-.07-.08-.05s0,0,0,0L21,24H19l.12.1Z"/><path class="cls-1" d="M19.9,24.7a.29.29,0,0,0,.05-.15q0-.15-.33-.35s-.06,0,0,0a.83.83,0,0,1,.16.48.09.09,0,0,0,0,.08A.18.18,0,0,0,19.9,24.7Z"/><path class="cls-1" d="M21.55,24.77l-.09-.08-.07,0s0,0-.05,0l-.09.1h-.79l.31-.48q.14,0,0-.07l-.2-.13h0l-.06.27q-.07.23-.15.43H18.74l.13.1.09,0h2.63s0,0,0,0S21.61,24.82,21.55,24.77Z"/></svg>