<svg id="圖層_1" data-name="圖層 1" xmlns="http://www.w3.org/2000/svg" viewBox="0 0 50 50"><defs><style>.cls-1{fill:#604c3f;}</style></defs><title>工作區域 1</title><path class="cls-1" d="M5.51,26.3l-.21-.17Q5.15,26,5.15,26s0,0-.11.07l-.17.21h-1V26l.14-.1s.07,0,.06,0,0,0-.1-.07l-.31-.12-.12,0s0,0,0,0,0,0,0,.06l0,.3q0,.19,0,.36H0l.25.2.21-.06h1a2,2,0,0,1,.4.85q0,.14.11.14t.22-.35q.06-.17-.59-.63h2v.74q0,.21-.19.23H3.11l-.41-.06q-.11,0,0,.1a2,2,0,0,1,.46.19.38.38,0,0,1,.21.32.57.57,0,0,0,.33-.16.5.5,0,0,0,.19-.3s0-.34,0-.88v-.16h1.7s.07,0,.06,0S5.62,26.39,5.51,26.3Z"/><path class="cls-1" d="M.4,22.82l.14-.06h2.1v.54H1.36l-.24-.16-.1,0s0,0,0,0,0,0,0,.05l0,.28q0,.22,0,.29s0,.11,0,.18v.53q0,.22,0,.43t0,.24s0,0,0,0,.28-.08.31-.21V24.8H2.64v.49l-1.12,0q-.47,0-.89,0t-.28,0s0,0,0,.09l.12.2q0,.09,0,.07l.3,0q.59-.09,1.37-.15l2.32-.16a2.65,2.65,0,0,1,.48.4q.12.13.16.12t.15-.33q0-.25-1.35-.63-.17,0,0,.1a4.16,4.16,0,0,1,.47.24H3V24.8H4.32v.12s0,0,0,0,.26-.05.3-.15,0-.11,0-.26,0-.32,0-.5v-.43l.1-.12q.09-.06.07-.06s0,0-.1-.11l-.2-.17-.11,0-.06,0-.16.16H3v-.54H5.33s.07,0,.06,0,0,0-.1-.11L5,22.39q-.09-.07-.11-.06s0,0-.07,0l-.19.24H3v-.22l.14-.09.06,0s0,0-.1-.07L2.75,22l-.12,0s0,0,0,0,0,0,0,.06l0,.29q0,.17,0,.25H.15Zm2.24,1.83H1.36v-.54H2.64Zm0-.68H1.36v-.53H2.64ZM3,23.44H4.32V24H3Zm0,.67H4.32v.54H3Z"/><path class="cls-1" d="M9.5,26.11h2.29s.07,0,.06,0,0,0-.1-.14l-.22-.19q-.12-.11-.14-.09s0,0-.07.07l-.19.21H9.3v-.52h1.82s.07,0,.06,0,0,0-.11-.12l-.24-.19L10.73,25s0,0-.07.07l-.19.2H9.3v-.57h2.41c.06,0,.09,0,.07,0s0-.05-.12-.14l-.21-.17-.15-.09s0,0-.1.07l-.17.2H9.75l.47-.48q.27,0,.06-.2l-.17-.14H12s.07,0,.06,0,0-.05-.09-.14l-.25-.2q-.12-.11-.14-.09s0,0-.09.07l-.15.22h-1q.44-.43.77-.79.28,0,.12-.16l-.28-.26,0,0-.2.41a8.43,8.43,0,0,1-.49.83H9.8v-1l.11-.14.06-.07s0,0-.1-.09l-.28-.16-.12,0s0,0,0,0,0,0,0,.05l0,.28q0,.2,0,.28t0,.25v.58H8.86v-1L9,22.5l0-.07s0,0-.07-.07l-.31-.17-.11,0s0,0,0,0,0,0,0,.05l0,.28q0,.2,0,.28t0,.24v.63H6.5l.24.21.21-.06h3l-.15.4-.22.42H6.67l.26.2.1-.06H9v.57H7.11l.25.21.12-.06H9V26H6.42l.26.21.19-.06H8.49a6.21,6.21,0,0,1-2.07,1.44q-.11.09,0,.07a4.62,4.62,0,0,0,2.46-1.52H9V27q0,.34,0,.6t0,.29s0,0,0,0q.27,0,.31-.21s0-.1,0-.24,0-.3,0-.47v-.87h0a4.57,4.57,0,0,0,2.09,1.49s.09,0,.2-.15a.68.68,0,0,1,.37-.15q.09,0,0-.08A4.34,4.34,0,0,1,9.5,26.11Z"/><path class="cls-1" d="M7.77,23.3q0,.13.09.12.25-.06.24-.37t-.71-.63,0,.07A2,2,0,0,1,7.77,23.3Z"/><path class="cls-1" d="M8.53,24.56q.16,0,.2-.3t-.58-.47,0,.06a2.07,2.07,0,0,1,.31.62Q8.41,24.58,8.53,24.56Z"/><path class="cls-1" d="M14.54,24.38a5.07,5.07,0,0,0,.82-1.1,1.31,1.31,0,0,1,.4.8q0,.14.12.14s.09-.05.14-.14a.67.67,0,0,0,.07-.28.35.35,0,0,0-.14-.26,3.09,3.09,0,0,0-.54-.36q.19-.31.33-.61.22,0,0-.14l-.36-.2h0a2.54,2.54,0,0,0-.14.53,6.93,6.93,0,0,1-.31.76,4.64,4.64,0,0,1-.47.81Q14.41,24.46,14.54,24.38Z"/><path class="cls-1" d="M14.38,22.47l-.32-.25h0l-.37.49a6.43,6.43,0,0,1-1,.92q-.09.11,0,.07a9.28,9.28,0,0,0,1.61-1.1Q14.52,22.6,14.38,22.47Z"/><path class="cls-1" d="M13.88,24.69l-.06,0,.54-.63q.24,0,.06-.16l-.31-.24a.07.07,0,0,0-.06,0l-.26.56a6.28,6.28,0,0,1-1.1,1.45q0,.08,0,.06a7.89,7.89,0,0,0,.73-.61V27q0,.35,0,.61t0,.3s0,0,0,0,.28-.09.31-.21V24.95l.12-.12.06-.07S14,24.73,13.88,24.69Z"/><path class="cls-1" d="M16,24.59a3,3,0,0,0,.74-.74l.29-.47a1.67,1.67,0,0,1,.64.84q0,.12.14.11t.15-.16a.48.48,0,0,0,0-.26q0-.12-.19-.26a3.33,3.33,0,0,0-.73-.33q.23-.54.31-.8.22-.11.07-.17L17,22.16h0a4.46,4.46,0,0,0-.16.72,3.79,3.79,0,0,1-.9,1.71S15.93,24.61,16,24.59Z"/><path class="cls-1" d="M16.47,27.15V25.76H18s.07,0,.06,0,0,0-.1-.14l-.24-.2q-.1-.09-.12-.07s0,0-.07.06l-.19.22h-.85v-.67l.12-.07q.09-.06.07-.06s0,0-.11-.07l-.31-.12-.11,0s0,0,0,0,0,0,0,.05l0,.28q0,.21,0,.29t0,.25V27a1.8,1.8,0,0,1-1-1l.16-.67q.31-.06,0-.17L15,25.11l-.06,0-.14.85A4.19,4.19,0,0,1,14,27.66q-.09.13,0,.07a3.88,3.88,0,0,0,1-1.49,2.18,2.18,0,0,0,1.07,1.07,5,5,0,0,0,1.66.41q.12,0,.12-.07a.79.79,0,0,1,.48-.33s0,0,0,0A7.72,7.72,0,0,1,16.47,27.15Z"/><path class="cls-1" d="M20.55,27.19q.14,0,.16-.32a.79.79,0,0,0-.41-.56,7.05,7.05,0,0,0,.47-2.36l.15-.11q.13,0,0-.11l-.2-.19q-.1-.12-.17,0l-.14.17H20l.21-1.15q.28-.14,0-.24l-.35-.11h0s0,.24-.06.63-.09.57-.14.88h-.85l.25.21.14-.07h.43a19.07,19.07,0,0,1-.46,2.1,3.7,3.7,0,0,1,.73.48,2.92,2.92,0,0,1-1,1.23q-.12.13,0,.1a3.14,3.14,0,0,0,1.19-1.11,1.76,1.76,0,0,1,.26.37Q20.51,27.24,20.55,27.19Zm-.52-1a5.2,5.2,0,0,1-.53-.27q.25-1,.47-2.08h.47A7.05,7.05,0,0,1,20,26.17Z"/><path class="cls-1" d="M24.7,24.42l-.22-.2q-.14-.11-.14-.09s0,0-.06.07l-.16.22H24v-.48l.14-.15s.07-.06.06-.06,0-.05-.09-.11l-.19-.17q-.09-.06-.1,0l-.09,0-.15.19h-.82v-.57h1.71s.07,0,.06,0,0,0-.14-.15l-.19-.16q-.13-.11-.15-.09s0,0-.07.07l-.16.21H22.77v-.41l.12-.14L23,22.3s0,0-.1-.09L22.54,22l-.11,0s0,0,0,0,0,0,0,.06l0,.29v.29q0,.09,0,.28H21l.27.21.12-.07h1v.57H21.23l.25.2.14-.06h.83v.67H20.92l.25.2.14,0h1.14v.71H21.1l.25.22.14-.07h1v1.7a1.81,1.81,0,0,1-.93-.72,2.55,2.55,0,0,0,.15-.52q.27-.06,0-.16l-.33-.15h0s0,.19,0,.51a2.93,2.93,0,0,1-1,1.83q-.07.11.07.06a2.94,2.94,0,0,0,1.18-1.42,2,2,0,0,0,1.11.92,5.36,5.36,0,0,0,1.59.3s.08,0,.11-.07a.9.9,0,0,1,.42-.21q.09-.06,0-.11a9.36,9.36,0,0,1-1.94-.12v-.92h1.67s.07,0,.06,0,0,0-.12-.14l-.22-.24q-.12-.1-.14-.07s0,0-.06.06l-.22.26h-1v-.75h.9v.15s0,0,0,0,.27-.08.31-.2,0-.33,0-.84h.77s.07,0,.06,0S24.8,24.51,24.7,24.42Zm-1,.87h-.9v-.71h.9Zm0-.85h-.9v-.67h.9Z"/><path class="cls-1" d="M26.81,26.68q.12.22.24.17t.15-.32q0-.23-.36-.42A7,7,0,0,0,27.18,25q.11-.52.21-1.17l.09,0q.18,0,0-.15l-.26-.25q-.12-.14-.19,0l-.11.16h-.51l.14-.64a4.88,4.88,0,0,1,.14-.53q.19,0,0-.15l-.38-.16h0s0,.26-.1.77q0,.35-.1.73H25.2l.26.21.11-.06h.53q-.12.59-.24,1.13t-.23.9l.43.25a2.8,2.8,0,0,1,.38.27,5.93,5.93,0,0,1-1.18,1.34q-.11.1,0,0a4,4,0,0,0,1.32-1.21A1.38,1.38,0,0,1,26.81,26.68ZM26,25.74q.24-.93.47-2.05H27A7.49,7.49,0,0,1,26.54,26Q26.23,25.85,26,25.74Z"/><path class="cls-1" d="M30.7,24.54l-.19-.16s-.08-.06-.1,0,0,0-.07,0l-.2.21h-1.3l-.28-.2-.1-.06h0a.18.18,0,0,0,0,.07l0,.29q0,.19,0,.28t0,.26v1.83q0,.36,0,.62t0,.3s0,0,0,0q.27,0,.31-.2V27.5h1.48v.35s0,0,0,0a.32.32,0,0,0,.31-.21s0-.1,0-.24,0-.31,0-.49V24.85l.11-.14q.09-.09.07-.09S30.77,24.59,30.7,24.54Zm-.42,2.81H28.79v-.77h1.48Zm0-.91H28.79v-.83h1.48Zm0-1H28.79v-.77h1.48Z"/><path class="cls-1" d="M30.8,22.55l-.19-.16q-.09-.06-.1,0s0,0-.07,0l-.21.21H28.17l-.28-.2-.11-.06s0,0,0,0,0,0,0,.06l0,.29q0,.2,0,.28t0,.26v1.13a6.19,6.19,0,0,1-.26,2,3.68,3.68,0,0,1-.89,1.41q-.11.13,0,.06a3.37,3.37,0,0,0,1.11-1.36,5.15,5.15,0,0,0,.32-2v-.62h2.24V24s0,0,0,0a.46.46,0,0,0,.3-.15,8.3,8.3,0,0,0,0-.88v-.16l.14-.12s.07-.07.06-.09S30.86,22.6,30.8,22.55Zm-1.66,1.14h-1v-1h1Zm1.21,0h-.92v-1h.92Z"/><path class="cls-1" d="M37.12,26.28q0-.1-.1,0a3.09,3.09,0,0,1-.14.88.31.31,0,0,1-.32.22H35.34q-.28,0-.26-.24V25.22h.84v.22a.07.07,0,0,0,.07.07.36.36,0,0,0,.27-.22,1.28,1.28,0,0,0,0-.33q0-.27,0-.61V23l.14-.15c.06,0,.09,0,.07-.06s0,0-.09-.11l-.21-.16-.1-.06s0,0-.07,0l-.16.17H34.47l.19.22.14-.07h1.13v1H34.57l.25.21.12-.06h1v1.08H32.84V24h1.37c.08,0,.12,0,.1,0s0,0-.07-.11L34,23.7s-.07-.07-.1-.06-.05,0-.09,0l-.17.21h-.8V22.81l1.21-.21q.36.11.21-.07L34,22.21s0,0,0,0a1.35,1.35,0,0,0-.32.19l-.44.2-.32.1-.06,0-.2-.1-.11,0h0s0,.19,0,.45,0,.26,0,.33,0,.16,0,.25v1q0,.93,0,1s0,0,0,0q.27,0,.31-.19v-.16h.79v.59a1.72,1.72,0,0,1-.54,1.26,3.07,3.07,0,0,1-1.35.71q-.12.06,0,.06a2.85,2.85,0,0,0,1.56-.63A1.82,1.82,0,0,0,34,25.83v-.61h.78v1.83q0,.61.58.58h1.29a.81.81,0,0,0,.58-.22q.17-.19.16-.28Q37.06,27,37.12,26.28Z"/><path class="cls-1" d="M41.55,26.32v-.46h1q.09,0,.07,0s0,0-.1-.12l-.26-.21q-.09-.09-.11-.09s-.07,0-.11.1l-.15.21h-.35v-1h.71q.09,0,.07,0s0,0-.06-.09L42,24.38q-.14-.09-.14-.07s0,0-.07.06l-.15.2h-2.3l.26.2.12-.06h.38v1h-1l.27.2.19-.06h.53a1.76,1.76,0,0,1-.31,1,2.5,2.5,0,0,1-.71.63q-.12.1,0,.07a1.87,1.87,0,0,0,1.3-1.7h.77V27.5s0,0,0,0q.28,0,.33-.21s0-.16,0-.37S41.55,26.53,41.55,26.32Zm-.32-.59h-.77v-1h.77Z"/><path class="cls-1" d="M43.28,22.31a.7.7,0,0,0-.2-.14.71.71,0,0,0-.19.19H41.55a1.23,1.23,0,0,0-.33-.2s0,0,0,0q0,.38,0,.8v.32q0,.66,0,.84t.06.06a.34.34,0,0,0,.18-.08.26.26,0,0,0,.11-.14v-.11H43V27.1q0,.25-.21.24h-.31l-.41,0q-.09,0,0,0a2.07,2.07,0,0,1,.45.22.41.41,0,0,1,.2.33.76.76,0,0,0,.41-.14.41.41,0,0,0,.19-.3s0-.26,0-.7,0-1,0-1.81V22.62l.11-.1s0,0,0,0A.75.75,0,0,0,43.28,22.31ZM43,23.74H41.55v-.57H43ZM43,23H41.55V22.5H43Z"/><path class="cls-1" d="M39.82,24.13q0,.11,0,.09a.31.31,0,0,0,.31-.22q0-.17,0-.74v-.64l.14-.07s.06-.05,0-.07a.47.47,0,0,0-.15-.17L40,22.16a.15.15,0,0,0-.09,0l-.17.16H38.67a.93.93,0,0,0-.33-.19s0,0,0,0q0,.45,0,.85V27q0,.65,0,.81t0,.07q.28,0,.31-.25V23.95h1.15ZM38.67,22.5h1.15v.61H38.67Zm0,1.3v-.56h1.15v.56Z"/><path class="cls-1" d="M49.67,25.42l-.2-.17-.11,0s0,0-.06,0l-.15.19H47.6l-.27-.2-.09,0s0,0,0,0,0,0,0,.05l0,.28q0,.21,0,.29t0,.25V27q0,.35,0,.61t0,.3s0,0,0,0q.27,0,.31-.2v-.41h1.67v.51s0,0,0,0a.32.32,0,0,0,.3-.21s0-.1,0-.24,0-.31,0-.49v-1.2l.14-.15q.09-.06.07-.07S49.75,25.49,49.67,25.42Zm-.43,1.79H47.56V25.55h1.67Z"/><path class="cls-1" d="M49.74,23.89a6.9,6.9,0,0,0-.89-.55q-.16,0-.07.07a3,3,0,0,1,.71.72v0l-2.23.15a9.7,9.7,0,0,0,.7-.93q.28-.43.54-.86.3,0,.1-.15l-.4-.3-.06,0-.2.59a5.81,5.81,0,0,1-.62,1.29.88.88,0,0,1-.37.36q-.09,0-.07,0s0,0,.06.09l.2.21q.07.11.09.09l.2-.06.81-.15,1.31-.19h0a2.21,2.21,0,0,1,.14.38s0,.07.12.07.09-.06.13-.15a.88.88,0,0,0,.07-.3Q50,24.11,49.74,23.89Z"/><path class="cls-1" d="M46.71,24s0-.09,0-.15l-.24-.25q-.07-.09-.15,0l-.21.21H45.5q.18-.71.32-1.36.27-.08.12-.16l-.4-.16h0a5,5,0,0,0-.09.61q-.09.54-.22,1.09h-.83l.25.21.14-.06h.42q-.22,1-.48,1.91a3.41,3.41,0,0,1,1,.58,3.83,3.83,0,0,1-1.4,1.4s0,.07.06.06a4,4,0,0,0,1.53-1.27,2.76,2.76,0,0,1,.54.67q.12.23.17.19t.15-.37q0-.37-.72-.74a5.56,5.56,0,0,0,.52-2.29Zm-.94,2.25L45,25.86q.25-.94.47-1.91h.72A5.84,5.84,0,0,1,45.77,26.25Z"/></svg>