<svg id="圖層_1" data-name="圖層 1" xmlns="http://www.w3.org/2000/svg" viewBox="0 0 50 50"><defs><style>.cls-1{fill:#604c3f;}</style></defs><title>logo_text07-2</title><path class="cls-1" d="M.42,26.4a1.1,1.1,0,0,1-.33.86.24.24,0,0,0-.06.3s.1.06.2,0a.45.45,0,0,0,.28-.24,1.86,1.86,0,0,0,0-.93Q.45,26.28.42,26.4Z"/><path class="cls-1" d="M3.53,25.71l.1-.06q.1-.06.08-.08s0,0-.08-.08l-.19-.19q0-.08-.06-.06a.08.08,0,0,0-.08,0l-.16.16H2.28l.27.24.13-.1h.47a2.84,2.84,0,0,1-1.38,1.79q-.06.08.06.08a3.57,3.57,0,0,0,1.11-.79A3.36,3.36,0,0,0,3.53,25.71Z"/><path class="cls-1" d="M4.71,25.92l.47-.22a4.5,4.5,0,0,1,.49-.21q.22.07.11-.08l-.27-.34-.06,0-.3.36a3.69,3.69,0,0,1-.51.42,7,7,0,0,1-.46-1v-.22H5v.13s0,0,.05,0a.29.29,0,0,0,.3-.2s0-.1,0-.25,0-.33,0-.54v-.62l.14-.13q.1-.09.08-.1s0,0-.09-.09l-.19-.15q-.09-.08-.1-.06s0,0-.08.06l-.2.2H3.56q.2-.27.41-.6.28,0,.1-.15L3.72,22s0,0-.05,0-.05.22-.11.52-.11.32-.15.46H3.1l-.28-.19-.09-.08s0,0,0,0a.19.19,0,0,0,0,.07l0,.3v.28q0,.09,0,.26V24q0,.37,0,.64t0,.3s0,.06,0,.05q.27,0,.32-.22v-.15h.79v2.59q0,.25-.2.26H3.38L3,27.39q-.09,0,0,.1a4.33,4.33,0,0,1,.49.19.34.34,0,0,1,.22.3A.61.61,0,0,0,4,27.82a.47.47,0,0,0,.19-.3q0-.09,0-1.49v-.94a4.55,4.55,0,0,0,1.28,2.31q0,.09.13-.05A.72.72,0,0,1,6,27.17q.08,0,0-.1A2.58,2.58,0,0,1,4.71,25.92ZM3.07,23.06H5v.63H3.07Zm0,1.43v-.65H5v.65Z"/><path class="cls-1" d="M1,26.25q-.1-.1-.09,0a2.42,2.42,0,0,1,.18.87.19.19,0,0,0,0,.18q.21,0,.3-.23a.42.42,0,0,0-.06-.32A3.75,3.75,0,0,0,1,26.25Z"/><path class="cls-1" d="M2,27q.18,0,.25-.29T1.62,26t-.06.06a1.73,1.73,0,0,1,.33.76Q1.9,27,2,27Z"/><path class="cls-1" d="M.14,24.56s0,.06,0,.05l.1,0a3.62,3.62,0,0,1,1-.29,8,8,0,0,1-.65,1,1.13,1.13,0,0,1-.42.39q-.08,0-.06.05s0,0,0,.09L.31,26l.05.08L.48,26A2,2,0,0,1,1,25.76l.71-.26h.05a.9.9,0,0,1,.09.28q0,.13.1.15t.16-.09a.61.61,0,0,0,.1-.23q0-.23-.74-.75-.13,0-.09,0a1.59,1.59,0,0,1,.33.51l-1.17.23a14.33,14.33,0,0,0,1.55-2q.22,0,.1-.13l-.35-.29-.05,0a1.62,1.62,0,0,0-.15.36,5.65,5.65,0,0,1-.29.6l-1,0a12.37,12.37,0,0,0,1.08-1.81q.28,0,.09-.15L1.16,22l-.06,0a1.81,1.81,0,0,0-.13.51,6.55,6.55,0,0,1-.26.72,4.62,4.62,0,0,1-.33.65.53.53,0,0,1-.28.29q-.08,0-.06.05s0,0,0,.08Z"/><path class="cls-1" d="M12.35,27.37l-.25-.22q-.15-.14-.15-.11s0,0-.1.1l-.24.27H9.4V24.34H12c.05,0,.07,0,.06,0s0-.05-.11-.15l-.24-.23q-.15-.13-.19-.1a.3.3,0,0,0-.1.09l-.23.28H9.4V22.59l.18-.13q.1-.08.08-.08s0,0-.11-.1l-.41-.16L9,22.07H9v.64q0,.09,0,.26v4.42H6.51l.27.23L7,27.56h5.45q.1,0,.08,0S12.47,27.47,12.35,27.37Z"/><path class="cls-1" d="M18.36,23.93a4.68,4.68,0,0,0-.29.41,5.75,5.75,0,0,1-.68.71,7.45,7.45,0,0,1-.81.62q-.1.11.09.06a10.62,10.62,0,0,0,2-1.37q.25,0,.11-.11L18.41,24Z"/><path class="cls-1" d="M13.44,24.62h3.4q.1,0,.08,0s0,0-.13-.13l-.2-.18q-.14-.1-.14-.08s0,0-.06.06l-.16.22H13l.28.2Z"/><path class="cls-1" d="M13.69,22.88q0,.09,0,.26,0,.84,0,.93s0,0,.05,0,.24,0,.28-.13v-.13h.57a.62.62,0,0,1,.19.2l.16.25q0,.15.14.15t.18-.2q-.05-.2-.49-.39h1.2V24s0,0,0,0a.33.33,0,0,0,.32-.2s0-.13,0-.31,0-.4,0-.66v-.15l.13-.14q.08-.07.06-.1s0,0-.08-.08l-.19-.16q-.09-.06-.1-.05s0,0-.06.05l-.23.22H14l-.22-.18-.1-.05s0,0,0,0,0,0,0,.06l0,.3Zm.33-.29h1.91v.51H14Zm0,.66h1.91v.44H14Z"/><path class="cls-1" d="M17.69,23.25l.69-.61q.24,0,.13-.14l-.32-.33h-.06a4.46,4.46,0,0,0-.25.42,8,8,0,0,1-1.22,1.29q-.11.13,0,.09A7.55,7.55,0,0,0,17.69,23.25Z"/><path class="cls-1" d="M14.48,26.46l-.33-.27H14.1a1.5,1.5,0,0,0-.16.32A4.5,4.5,0,0,1,13,27.58q0,.09.06.06a5,5,0,0,0,1.26-1.07Q14.61,26.58,14.48,26.46Z"/><path class="cls-1" d="M18.63,25.5s0,0-.05,0l-.37.52A6.85,6.85,0,0,1,17,27.06a11.72,11.72,0,0,1-1.5.84q-.07.09.08.06a7.79,7.79,0,0,0,3.25-2q.27.05.1-.15Z"/><path class="cls-1" d="M16,27.08q0,.15.1.14a.22.22,0,0,0,.18-.14.6.6,0,0,0,.07-.23q0-.24-.9-.62-.16,0,0,.1A1.56,1.56,0,0,1,16,27.08Z"/><path class="cls-1" d="M15.15,25.88h.72V26s0,0,0,0,.27-.06.3-.16,0-.22,0-.49v0l.13-.14q.08-.05.06-.09s0,0-.08-.09l-.2-.15s-.06-.06-.08-.05-.05,0-.09.05l-.14.13H14.13l-.28-.11-.09-.05s0,0,0,0,0,0,0,.05l0,.29q0,.23,0,.28v.18q0,.43,0,.44s0,0,0,0q.25,0,.28-.15v-.11h.75v1.28q0,.25-.2.25h-.21l-.34-.05q-.11,0,0,.1a3.14,3.14,0,0,1,.42.16.31.31,0,0,1,.19.27.5.5,0,0,0,.48-.48s0-.32,0-.91Zm-1.08-.14v-.57h1.8v.57Z"/><path class="cls-1" d="M24.18,25.35l-.24-.19q-.09-.1-.1-.08s-.05,0-.08.05l-.22.22H21.23l-.28-.19-.11-.08s0,0,0,0,0,0,0,.06l0,.3v.29q0,.09,0,.27v1.08q0,.37,0,.64t0,.3a0,0,0,0,0,.05,0q.27,0,.3-.2v-.28h2.51V28s0,0,0,0a.33.33,0,0,0,.32-.2s0-.11,0-.26,0-.32,0-.51V25.68l.19-.15q.08,0,.06-.08S24.25,25.4,24.18,25.35Zm-.49,2.1H21.18v-.91h2.51Zm0-1H21.18v-.9h2.51Z"/><path class="cls-1" d="M21.88,24.38a.6.6,0,0,0,.11-.3q0-.3-.68-.72-.15,0-.06.05a1.73,1.73,0,0,1,.34,1,.18.18,0,0,0,.08.16A.37.37,0,0,0,21.88,24.38Z"/><path class="cls-1" d="M20.52,23.06h4.35c.05,0,.07,0,.06,0s0-.05-.15-.16l-.18-.15q-.17-.14-.16-.11s0,0-.09.1l-.19.2H20.07l.25.2Z"/><path class="cls-1" d="M25.31,24.52l-.19-.16q-.14-.13-.14-.1s-.06,0-.11.09l-.18.22H23.05l.65-1q.29,0,.09-.15l-.41-.27-.08,0s0,.22-.13.56-.2.61-.3.89h-3.4l.27.2.19-.06h5.45q.08,0,.06,0S25.42,24.62,25.31,24.52Z"/><path class="cls-1" d="M22.42,22.75q0,.12.13.13t.14-.13a.54.54,0,0,0,.07-.23q0-.13-.17-.23a5.18,5.18,0,0,0-.66-.29q-.09,0,0,.11A1.48,1.48,0,0,1,22.42,22.75Z"/><path class="cls-1" d="M31.88,24.85l-.24-.23-.15-.09s-.06,0-.11.08l-.2.28H26l.28.2.19-.06h5.45q.1,0,.08,0S32,24.94,31.88,24.85Z"/><path class="cls-1" d="M38.3,23.55l-.23-.18q-.11-.11-.11-.09s-.05,0-.09.08l-.16.19h-.79V22.42l.14-.1s.06,0,.05-.05,0,0-.09-.08l-.32-.13-.13,0s0,0,0,0,0,0,0,.06l0,.3v.29q0,.09,0,.26v2.23h-.43L35.9,25l-.1-.05h0s0,0,0,.06l0,.3v.29q0,.09,0,.27v1.05q0,.36,0,.63t0,.31a0,0,0,0,0,.05,0q.29,0,.3-.22v-.39h1.57v.42s0,0,0,0a.34.34,0,0,0,.32-.2s0-.11,0-.25,0-.32,0-.53V25.45l.14-.13q.08-.09.06-.1s0,0-.08-.09L38,25q-.09-.08-.1-.06s0,0-.08.06l-.15.19h-.72V23.68h1.43q.08,0,.06,0S38.4,23.61,38.3,23.55Zm-.6,1.76V27.1H36.14V25.31Z"/><path class="cls-1" d="M35.48,22.65q.1-.07.08-.09s0,0-.09-.09l-.22-.16a.1.1,0,0,0-.18,0l-.13.22H33.27L33,22.37l-.09-.05s0,0,0,0a.19.19,0,0,0,0,.07l0,.3V23q0,.09,0,.26V24q0,.29,0,.51t0,.24s0,0,0,0q.25,0,.3-.16v-.11H34v.62H32.73l.25.22.14-.08H34v.6l-1.14.1q-.21,0-.16.05s0,0,.05.09l.08.2c0,.06,0,.08,0,.08l.23-.06.89-.21,1.46-.3q.11-.07,0-.09l-1.09.11v-.57h1.19q.1,0,.08,0s0,0-.11-.11l-.2-.18q-.12-.07-.13-.05s0,0-.08,0l-.15.19h-.6v-.62H35v.22s0,0,0,0,.28-.06.3-.16,0-.26,0-.62v-1.2ZM34,24.36h-.71v-1.7H34Zm1.07,0h-.74v-1.7H35Z"/><path class="cls-1" d="M34.2,26.42q-.11,0-.08.06a1.85,1.85,0,0,1,.32.92q0,.15.11.14a.35.35,0,0,0,.18-.29.65.65,0,0,0-.11-.35A3.26,3.26,0,0,0,34.2,26.42Z"/><path class="cls-1" d="M34.39,24l.52-.6q.16,0,0-.09l-.23-.22h-.05l-.1.3-.25.58Q34.29,24.06,34.39,24Z"/><path class="cls-1" d="M33.52,26.6a2.45,2.45,0,0,1,.11.94q0,.13.09.13t.23-.34a1.68,1.68,0,0,0-.37-.79Q33.49,26.45,33.52,26.6Z"/><path class="cls-1" d="M34.92,26.25q-.13-.08-.06.08a2.91,2.91,0,0,1,.37.94q0,.12.08.12a.33.33,0,0,0,.23-.34.51.51,0,0,0-.13-.29A5.83,5.83,0,0,0,34.92,26.25Z"/><path class="cls-1" d="M33.08,26.68q-.05-.08-.1,0a1,1,0,0,1-.32.82.17.17,0,0,0-.1.2.19.19,0,0,0,.19.19.36.36,0,0,0,.31-.22.87.87,0,0,0,.1-.37,1.55,1.55,0,0,0,0-.2Z"/><path class="cls-1" d="M33.55,24q0,.13.08.13t.19-.32a.46.46,0,0,0-.11-.29,3.39,3.39,0,0,0-.37-.36q-.08,0,0,.1A1.31,1.31,0,0,1,33.55,24Z"/><path class="cls-1" d="M43.43,27.39H41.88a2.42,2.42,0,0,1-.91-.13,1.64,1.64,0,0,1-.65-.52V24.93l.14-.13q.08-.07.06-.09s0,0-.09-.11l-.23-.19q-.11-.08-.11-.06s0,0-.06,0l-.15.16H39l.19.23.14-.09H40v2q-.44.22-.89.48-.27.16-.22.15s0,0,.06.09l.19.16.1.05s.08,0,.16-.15a2.32,2.32,0,0,1,.47-.46q.27-.17.25-.14a.13.13,0,0,1,.14.05,1.56,1.56,0,0,0,.94.63,10.68,10.68,0,0,0,2.22.13h1q0-.22.52-.37.1,0,0-.07A15.21,15.21,0,0,1,43.43,27.39Z"/><path class="cls-1" d="M40,23.6q0,.13.11.13a.3.3,0,0,0,.22-.15.58.58,0,0,0,.11-.32.49.49,0,0,0-.18-.32,4.6,4.6,0,0,0-.67-.52q-.13,0-.05.08A2,2,0,0,1,40,23.6Z"/><path class="cls-1" d="M41.23,22.65H43.5l-.81.66a2.63,2.63,0,0,0-.72-.38s-.05,0,0,.06a1.36,1.36,0,0,1,.51.7v0h-.93l-.29-.2-.1-.08s0,0,0,0,0,0,0,.06l0,.3v.29q0,.09,0,.27v1.81q0,.37,0,.64t0,.31s0,0,0,0q.28,0,.32-.2V25.87h1v.25q0,.37,0,.64t0,.3s0,0,.05,0q.29,0,.34-.2s0-.1,0-.25,0-.32,0-.52v-.25h1.07v.65a.19.19,0,0,1-.2.22h-.21l-.35-.06q-.09,0,0,.08a2.9,2.9,0,0,1,.42.21.37.37,0,0,1,.2.29.48.48,0,0,0,.47-.47q0-.1,0-1.58V24l.13-.14q.08-.05.06-.09s0,0-.09-.1l-.22-.14q-.09-.08-.1-.06s-.05,0-.09.05l-.15.15h-1a.37.37,0,0,0,.06-.16.27.27,0,0,0-.05-.13l.6-.38a2.8,2.8,0,0,1,.45-.22,1.71,1.71,0,0,1,.53-.06q.09,0,0-.11L44,22.37q-.1-.14-.2-.05l-.2.18h-2.8l.27.25Zm1.24,3.08h-1v-.87h1Zm0-1h-1v-.84h1Zm.33-.84h1.07v.84H42.81Zm0,1h1.07v.87H42.81Z"/><path class="cls-1" d="M49.8,24.76a.86.86,0,0,0-1.22,0,.87.87,0,0,0,0,1.11.79.79,0,0,0,.61.25.8.8,0,0,0,.61-.25.82.82,0,0,0,.21-.55A.84.84,0,0,0,49.8,24.76Zm-.14,1a.59.59,0,0,1-.47.19.61.61,0,0,1-.47-.2.68.68,0,0,1,0-.87.61.61,0,0,1,.47-.2.63.63,0,0,1,.48.2.65.65,0,0,1,.16.44A.66.66,0,0,1,49.65,25.76Z"/></svg>