<svg id="圖層_1" data-name="圖層 1" xmlns="http://www.w3.org/2000/svg" viewBox="0 0 50 50"><title>logo_text03</title><path d="M8,18.57a1.84,1.84,0,0,0-1.55,1A3.09,3.09,0,0,0,4,18.45a3,3,0,0,0-2.31,1,4.23,4.23,0,0,0-.46,4.37A2.59,2.59,0,0,0,2.4,25q-1.19.6-1.19,1.35t1.35,1.11a4,4,0,0,0-1.71.76A1.89,1.89,0,0,0,0,29.68q0,1.87,3.54,1.87a9.67,9.67,0,0,0,2.84-.36q1.79-.58,1.79-2A1.65,1.65,0,0,0,7.59,28a3.26,3.26,0,0,0-1.31-.66l-3.2-.81Q2,26.24,2,25.88c0-.17.15-.33.44-.46l.64-.22a3.14,3.14,0,0,0,.76.1,3.36,3.36,0,0,0,2.35-.83,3.35,3.35,0,0,0,1-2.6,3.8,3.8,0,0,0-.48-2,.67.67,0,0,1,.6-.46c.18,0,.34.12.5.36a.75.75,0,0,0,.62.38.44.44,0,0,0,.4-.24A.67.67,0,0,0,9,19.54a1,1,0,0,0-.28-.66A.92.92,0,0,0,8,18.57ZM3.12,27.49,6,28.21q1.27.3,1.27,1.27T5.74,30.83a8.77,8.77,0,0,1-2.19.24A4.23,4.23,0,0,1,2,30.75q-1-.4-1-1.07a1.76,1.76,0,0,1,.7-1.43A7.33,7.33,0,0,1,3.12,27.49ZM4,24.79A1.91,1.91,0,0,1,2.4,24a3.08,3.08,0,0,1-.58-2,4.31,4.31,0,0,1,.5-2.19,1.86,1.86,0,0,1,1.69-1,1.87,1.87,0,0,1,1.69.89,3.69,3.69,0,0,1,.5,2.05Q6.2,24.79,4,24.79Z"/><path d="M16.67,18.51q-1.57,0-2.82,2.7V18.47a4.61,4.61,0,0,1-2.17.79v.42a2.66,2.66,0,0,1,.95.1q.36.18.36.89v6.16a1.06,1.06,0,0,1-.38.95,1.89,1.89,0,0,1-.93.16v.42h3.46v-.42a2,2,0,0,1-1-.16,1.13,1.13,0,0,1-.32-.95V22.29q1-2.9,2.17-2.9a.77.77,0,0,1,.64.36.75.75,0,0,0,.62.4.55.55,0,0,0,.42-.2.52.52,0,0,0,.2-.38,1,1,0,0,0-.4-.74A1.23,1.23,0,0,0,16.67,18.51Z"/><path d="M25.12,18.45a3.44,3.44,0,0,0-3,1.61,6,6,0,0,0-1,3.54,6,6,0,0,0,1,3.52,3.46,3.46,0,0,0,3,1.59,3.4,3.4,0,0,0,3-1.59,6.06,6.06,0,0,0,1-3.54,6,6,0,0,0-1-3.54A3.41,3.41,0,0,0,25.12,18.45Zm2.4,8.23a2.61,2.61,0,0,1-4.79,0,7.09,7.09,0,0,1-.58-3.08,7.37,7.37,0,0,1,.58-3.12,2.61,2.61,0,0,1,4.79,0,7,7,0,0,1,.6,3.12A7,7,0,0,1,27.52,26.68Z"/><path d="M38.73,27.1V18.53a5,5,0,0,1-2.11.64v.46a2.07,2.07,0,0,1,1,.16q.24.18.24.85v5.72A3.22,3.22,0,0,1,35,28.09a1.79,1.79,0,0,1-1.37-.58A2,2,0,0,1,33.07,26V18.53a4.62,4.62,0,0,1-2,.64v.46a1.5,1.5,0,0,1,.89.18,1.09,1.09,0,0,1,.22.81V26A2.74,2.74,0,0,0,32.93,28a2.55,2.55,0,0,0,1.85.7A3.58,3.58,0,0,0,37.84,27v1.51h1.87v-.42a1.33,1.33,0,0,1-.81-.16C38.79,27.8,38.73,27.53,38.73,27.1Z"/><path d="M49.15,20.1a3,3,0,0,0-2.7-1.67,3.49,3.49,0,0,0-2.74,1.49V18.47a4.67,4.67,0,0,1-2.05.79v.42a2,2,0,0,1,.89.12c.22.12.32.39.32.81V30q0,1-1.45,1.09v.44h3.7v-.44a2.67,2.67,0,0,1-1-.14,1,1,0,0,1-.44-.95V27.37a3.16,3.16,0,0,0,5.33-.28A6.45,6.45,0,0,0,50,23.52,6.6,6.6,0,0,0,49.15,20.1Zm-.93,6.7A2.55,2.55,0,0,1,46,28.19a2.36,2.36,0,0,1-1.25-.44,3,3,0,0,1-1-1.09V20.58A3,3,0,0,1,46.2,19a2.4,2.4,0,0,1,2.21,1.59A7.25,7.25,0,0,1,49,23.72,5.62,5.62,0,0,1,48.23,26.8Z"/></svg>