<svg id="圖層_1" data-name="圖層 1" xmlns="http://www.w3.org/2000/svg" viewBox="0 0 50 50"><defs><style>.cls-1{fill:#fff;}</style></defs><title>logo_text05</title><path class="cls-1" d="M9.2,27a12.85,12.85,0,0,0,1.67-1h.4a.12.12,0,0,0,.1-.1s0-.1-.15-.19l-.58-.36a6.21,6.21,0,0,1-1.49,1.52,13.31,13.31,0,0,1-.81-2.28H9.77v.31q0,.19.26.19l.14,0c.1,0,.15-.09.15-.14q0-1.6,0-3.38c0-.06.06-.13.19-.21s.27-.15.27-.19-.08-.16-.25-.32-.34-.27-.4-.27-.12.06-.25.17-.14.16-.16.16H7.51a5,5,0,0,0,.57-.93.82.82,0,0,1,.25-.07c.14,0,.21-.05.21-.09s-.08-.13-.24-.19l-.67-.21a4.41,4.41,0,0,1-.39,1.49H5.92a1.9,1.9,0,0,0-.61-.34,6,6,0,0,1,.1,1.14v2.59l0,.65c0,.16,0,.24.14.24l.22,0c.16,0,.24-.11.24-.2l0-.31h1.7v5c0,.19-.17.29-.5.29L6,29.79V30q1,.16,1.18.42t.22.22a.78.78,0,0,0,.39-.21.85.85,0,0,0,.35-.73V24.57h.09a11.9,11.9,0,0,0,.93,3,8,8,0,0,0,1.24,1.78c.32.32.51.48.57.48a.24.24,0,0,0,.19-.11c.07-.08.29-.12.66-.12v-.21a5.12,5.12,0,0,1-1.53-1A6.1,6.1,0,0,1,9.2,27ZM5.9,21.2H9.77v1.28H5.9Zm0,3v-1.4H9.77v1.4Z"/><path class="cls-1" d="M4,29.3a.31.31,0,0,0,.26-.14.72.72,0,0,0,.14-.46A2.16,2.16,0,0,0,4.21,28a5.49,5.49,0,0,0-.66-1.09l-.15,0a7.11,7.11,0,0,1,.41,2.09C3.82,29.22,3.88,29.3,4,29.3Z"/><path class="cls-1" d="M2.31,27.26q0,.81,0,1.63a4,4,0,0,1-.14.91q0,.26.19.26t.34-.3A1.19,1.19,0,0,0,3,29a8.18,8.18,0,0,0-.5-1.8Z"/><path class="cls-1" d="M1,28.92a3.18,3.18,0,0,1-.61.91.9.9,0,0,0-.27.46c0,.12.1.18.29.2a.69.69,0,0,0,.44-.21,1.56,1.56,0,0,0,.45-.78,6.85,6.85,0,0,0,.22-2.08H1.22A4,4,0,0,1,1,28.92Z"/><path class="cls-1" d="M7.1,26.37c.17,0,.25-.1.25-.16s-.09-.15-.26-.29-.32-.26-.4-.26a.36.36,0,0,0-.15.09A1.82,1.82,0,0,1,6.3,26h0a7.53,7.53,0,0,1-1.75-.15l.26.6a8.81,8.81,0,0,1,1.49-.1H6.4A8.93,8.93,0,0,1,5.3,28.45,11.81,11.81,0,0,1,3.72,30l.1.1a7.8,7.8,0,0,0,1.7-1.38,8.4,8.4,0,0,0,1.38-2.2S7,26.44,7.1,26.37Z"/><path class="cls-1" d="M3.9,26.47c0,.12.07.19.21.19a.27.27,0,0,0,.22-.11.63.63,0,0,0,.11-.39,1.52,1.52,0,0,0-.24-.61,5.15,5.15,0,0,0-.86-1l-.14,0a3.76,3.76,0,0,1,.53,1.07q-1.35.12-2.27.14a26.38,26.38,0,0,0,2.57-3.58A.38.38,0,0,1,4.43,22q.34,0,.34-.11c0-.07-.1-.14-.3-.21l-.65-.34A11.94,11.94,0,0,1,3.1,23c-.7,0-1.3,0-1.78,0A18.81,18.81,0,0,0,3,20.11s.16-.07.36-.07.35,0,.35-.12-.07-.16-.21-.21l-.88-.35a10.83,10.83,0,0,1-.76,2.23A11.06,11.06,0,0,1,1.08,23L.43,23a4.25,4.25,0,0,0,.21.66c0,.1.08.15.12.15s.11-.07.16-.21v0a1.15,1.15,0,0,1,.51-.11A13.48,13.48,0,0,0,3,23.18c-.1.18-.21.36-.32.53a18.58,18.58,0,0,1-1.49,2.11l-.8,0c.07.24.17.49.27.76.06.12.12.17.17.17s.11-.08.16-.24l0,0q.06-.1.63-.16a17.91,17.91,0,0,0,2.18-.39A2.71,2.71,0,0,1,3.9,26.47Z"/><path class="cls-1" d="M23.88,29.11c-.29-.27-.48-.41-.57-.41s-.19.09-.32.29a3.28,3.28,0,0,1-.39.52H18.49V24.07h4.43c.12,0,.19-.07.19-.2s-.15-.22-.46-.51-.41-.34-.47-.34-.22.12-.4.37l-.26.34h-3V20.39c0-.13.08-.22.25-.26s.35-.15.35-.22-.13-.2-.39-.24l-1-.21a11.74,11.74,0,0,1,.15,2.14v7.91H14.26A5.65,5.65,0,0,1,13,29.39l.21.55a3.89,3.89,0,0,1,1.09-.1H24c.24,0,.36-.06.36-.19S24.23,29.41,23.88,29.11Z"/><path class="cls-1" d="M27.82,21.05a.33.33,0,0,0,.31.24.32.32,0,0,0,.22-.11.89.89,0,0,0,.06-.39,1,1,0,0,0-.31-.58,7.12,7.12,0,0,0-1.17-.91l-.16.16a4.42,4.42,0,0,1,.65.75A3.73,3.73,0,0,1,27.82,21.05Z"/><path class="cls-1" d="M33.85,26h3q.26,0,.26-.19s-.13-.2-.4-.44-.39-.32-.46-.32-.14.07-.24.21l-.31.39H33.54V24.42h1.9v.26c0,.13.08.2.24.2l.16,0c.13,0,.2-.09.2-.15q0-1.75,0-3.68c0-.06.06-.13.19-.21s.25-.15.25-.19-.09-.18-.26-.37-.37-.32-.44-.32-.13.07-.26.21-.17.17-.19.17h-4a2.29,2.29,0,0,0-.75-.45,4.72,4.72,0,0,1,.16,1.26V24l-.06.76c0,.16.05.24.16.24L31,25c.18,0,.27-.11.27-.2l0-.36H33v1.24H31.1a6.2,6.2,0,0,1-1.28-.1l.19.55A4,4,0,0,1,31.1,26h1.35a7.88,7.88,0,0,1-1.26,2,7.52,7.52,0,0,1-1.79,1.5l0,.15a8.86,8.86,0,0,0,2.1-1.57,7.87,7.87,0,0,0,1.44-2V28.7l0,1.59c0,.27,0,.41.14.41a.73.73,0,0,0,.35-.11q.15-.06.15-.3l0-1.59V26h.07a6.43,6.43,0,0,0,1.63,2.47q1,1,1.24,1s.08,0,.14-.14a.84.84,0,0,1,.61-.16V29a7.62,7.62,0,0,1-2.09-1.18A6.27,6.27,0,0,1,33.85,26Zm-.31-5.36h1.9V22.2h-1.9Zm0,1.88h1.9v1.54h-1.9ZM33,24.07H31.22V22.53H33Zm0-1.88H31.22V20.66H33Z"/><path class="cls-1" d="M29.91,21.79q.26,0,.26-.19s-.12-.17-.36-.39-.33-.27-.4-.27-.13.06-.22.17a1.71,1.71,0,0,1-.27.32H26.83a6.2,6.2,0,0,1-1.28-.1l.19.55a4,4,0,0,1,1.09-.1Z"/><path class="cls-1" d="M29.39,26.92c.16-.1.24-.17.24-.21s-.09-.14-.26-.3-.33-.3-.4-.3-.12.06-.22.19l-.16.17H26.93a1.92,1.92,0,0,0-.65-.36,5.45,5.45,0,0,1,.11,1.14v2.2l-.06.65c0,.16.05.24.16.24l.2,0c.17,0,.25-.11.25-.2l-.06-.65v-.11h1.85V30c0,.13.08.2.24.2l.15,0c.11,0,.16-.09.16-.15q0-1.37,0-2.9S29.28,27,29.39,26.92ZM28.73,29H26.88V26.82h1.85Z"/><path class="cls-1" d="M27.37,23.38h2.2c.13,0,.2-.06.2-.19s-.11-.16-.34-.35-.3-.25-.36-.25-.13,0-.21.15l-.24.29H27.37a6.2,6.2,0,0,1-1.28-.1l.19.55A4,4,0,0,1,27.37,23.38Z"/><path class="cls-1" d="M27.42,25h2.2c.13,0,.2-.06.2-.19s-.11-.16-.34-.35-.3-.25-.36-.25-.12,0-.21.15l-.24.3H27.42a5.66,5.66,0,0,1-1.29-.11l.2.55A4,4,0,0,1,27.42,25Z"/><path class="cls-1" d="M49.55,29.27c-.2-.17-.33-.26-.4-.26s-.13.05-.22.16a2.5,2.5,0,0,1-.26.34H46.32V27.42h2.74c.17,0,.26-.07.26-.21S49.2,27,49,26.85s-.34-.29-.4-.29-.13.06-.22.17a1.65,1.65,0,0,1-.27.32H46.32v-1.7a12.1,12.1,0,0,0,1.79-.42l.61.09a.13.13,0,0,0,.1-.14c0-.07-.09-.16-.26-.25l-.6-.35a4.15,4.15,0,0,1-1,.47,8.21,8.21,0,0,1-1.47.39,18.23,18.23,0,0,1-2.45.32l.1.15q1.34,0,2.64-.2v1.64H44.23A7.11,7.11,0,0,1,43,27l.19.55a4.05,4.05,0,0,1,1.09-.1h1.59v2.09H43.34A5.67,5.67,0,0,1,42,29.39l.2.55a4.05,4.05,0,0,1,1.09-.1h6.32q.26,0,.26-.19S49.79,29.49,49.55,29.27Z"/><path class="cls-1" d="M42.35,25.71a.28.28,0,0,0,.2-.11,1.08,1.08,0,0,0,0-.32,1,1,0,0,0-.37-.62A6,6,0,0,0,41,23.85V23h1.8c.16,0,.24-.06.24-.19s-.12-.17-.35-.39-.33-.26-.39-.26-.15.05-.24.16a2.5,2.5,0,0,1-.26.34H41V20.56q.51-.16,1.19-.45l.5,0,.11,0a.31.31,0,0,0-.15-.24,4.12,4.12,0,0,0-.61-.41,6.89,6.89,0,0,1-1.68.86,11.91,11.91,0,0,1-2,.52l.1.21q1.22-.18,1.94-.35v1.94h-.83a5.74,5.74,0,0,1-1.31-.11l.2.56A3.64,3.64,0,0,1,39.67,23h.7a12.92,12.92,0,0,1-.86,2.7,6.91,6.91,0,0,1-1.23,1.89l.09.14a7.21,7.21,0,0,0,1.52-1.94,7.3,7.3,0,0,0,.62-1.44V28.7l0,1.59q0,.41.15.41a.68.68,0,0,0,.35-.11q.15-.06.15-.3l0-1.59V24.11a3.18,3.18,0,0,1,.53.53,3.57,3.57,0,0,1,.51.87A.28.28,0,0,0,42.35,25.71Z"/><path class="cls-1" d="M43.64,23.34l0,.63c0,.17,0,.26.14.26a.82.82,0,0,0,.22,0c.15,0,.22-.11.22-.21l0-.45h4v.35c0,.13.08.2.24.2l.14,0c.12,0,.17-.09.17-.15q-.05-1.37,0-2.87c0-.06.06-.13.19-.21s.25-.15.25-.19-.08-.16-.24-.32-.34-.27-.41-.27-.12.06-.22.17-.16.16-.17.16h-3.9a1.74,1.74,0,0,0-.61-.34,6.93,6.93,0,0,1,.09,1.14Zm.51-2.65h4v2.5h-4Z"/></svg>