<svg id="圖層_1" data-name="圖層 1" xmlns="http://www.w3.org/2000/svg" viewBox="0 0 50 50"><defs><style>.cls-1{fill:#604c3f;}</style></defs><title>logo_text07-1</title><path class="cls-1" d="M2,25.86q0,.14.1.13t.18-.15a.43.43,0,0,0,.06-.27q0-.21-.54-.65-.1,0,0,.1a1.8,1.8,0,0,1,.18.47l-1.39.22q.38-.47.78-1.06l.77-1.16q.3,0,.09-.17l-.28-.27-.08,0a3.91,3.91,0,0,0-.18.41,6.22,6.22,0,0,1-.27.6l-1,0a12.22,12.22,0,0,0,1.1-1.59q.23,0,.1-.13l-.35-.26-.06,0a3.76,3.76,0,0,0-.21.6,4.94,4.94,0,0,1-.59,1.1A.55.55,0,0,1,.07,24q-.08,0-.06.05s0,0,0,.1l.12.19a.17.17,0,0,0,.06.09.45.45,0,0,0,.17-.06l.38-.12.55-.11a9,9,0,0,1-.83,1.31q-.15.18-.23.17t-.14.05s0,0,0,.1l.13.24q0,.12.05.09L.58,26A3.11,3.11,0,0,1,1,25.88L2,25.58A1,1,0,0,1,2,25.86Z"/><path class="cls-1" d="M1.37,26.88a2.24,2.24,0,0,0-.26-.34q-.11-.09-.06,0a1.78,1.78,0,0,1,.12.92q0,.12.12.1s.07,0,.13-.1a.48.48,0,0,0,.1-.29A.77.77,0,0,0,1.37,26.88Z"/><path class="cls-1" d="M1.79,26.24q-.11,0,0,.1a1.64,1.64,0,0,1,.32.85q0,.13.09.13t.16-.14a.68.68,0,0,0,.07-.26Q2.41,26.7,1.79,26.24Z"/><path class="cls-1" d="M3.94,23.33a.31.31,0,0,0,.22-.15.56.56,0,0,0,.11-.31q0-.1-.18-.29A7.64,7.64,0,0,0,3.4,22q-.12,0-.09,0a2,2,0,0,1,.51,1.15Q3.83,23.33,3.94,23.33Z"/><path class="cls-1" d="M.44,26.67s0,0-.06.05a1.33,1.33,0,0,1-.27.76q-.12.09-.09.18t.22.17q.32-.09.28-.76s0,0,0-.09A1.94,1.94,0,0,0,.44,26.67Z"/><path class="cls-1" d="M4.21,26.35A5.24,5.24,0,0,0,5,23.68h.88q.08,0,.06,0l-.12-.14-.22-.17q-.12-.13-.14-.1s0,0-.09.09l-.17.21H2.38l.26.21.14-.06H3a5.9,5.9,0,0,0,.74,2.65,5.49,5.49,0,0,1-2.23,1.49q-.13.1,0,.08a7.39,7.39,0,0,0,1.26-.52A4.19,4.19,0,0,0,4,26.6a4.9,4.9,0,0,0,1.27,1.2s.07,0,.12,0A1.31,1.31,0,0,1,6,27.65q.08,0,0-.1A3.36,3.36,0,0,1,4.21,26.35Zm-.79-1.44a5.65,5.65,0,0,1-.26-1.23H4.62A4.36,4.36,0,0,1,4,26.06,5.4,5.4,0,0,1,3.42,24.92Z"/><path class="cls-1" d="M12,25.94q-.12-.1-.13-.08s0,0-.06.06l-.12.14h-.62l.17-.69.17-.05q.12-.05.08-.1s0,0-.09-.08l-.19-.21q-.08-.06-.09-.05s-.06,0-.09.05l-.18.21H8.9l.27.21.14-.08h.31a2.46,2.46,0,0,1-.39,1.52A4.18,4.18,0,0,1,7.58,28s0,.06.08.05a3.67,3.67,0,0,0,1.8-1.07A2.67,2.67,0,0,0,10,25.27h.91l-.14.67-.12.12c-.06.05-.08.08-.06.09s0,0,.06.09l.18.15.08.05s.05,0,.09-.08l.06-.15h.63q0,1.23-.58,1.21h-.32l-.52-.05q-.09,0,0,.1a1.79,1.79,0,0,1,.52.17A.39.39,0,0,1,11,28q.86-.08,1-1.57l.13-.09c.05,0,.07-.08.06-.09s0-.06-.08-.1Z"/><path class="cls-1" d="M8.13,26.19q-.1,0,0,.09a1.72,1.72,0,0,1,.31.86q0,.13.09.12a.2.2,0,0,0,.16-.13.65.65,0,0,0,.07-.25Q8.76,26.66,8.13,26.19Z"/><path class="cls-1" d="M7,26.53s0,0-.06.05a1.22,1.22,0,0,1-.27.76.23.23,0,0,0-.09.19q0,.16.21.15T7,26.94a.78.78,0,0,0,0-.1S7,26.69,7,26.53Z"/><path class="cls-1" d="M7.69,27.46q.15,0,.22-.4a1.17,1.17,0,0,0-.37-.63q-.13-.13-.08,0a1.9,1.9,0,0,1,.1.92A.11.11,0,0,0,7.69,27.46Z"/><path class="cls-1" d="M10.76,23.56h1.63q.08,0,.06,0s0-.06-.09-.14l-.24-.21q-.14-.11-.14-.09s0,0-.09.08l-.19.23H10.6v-.82l1.12-.1q.33.13.19-.05l-.28-.37-.06,0-.46.15a10.08,10.08,0,0,1-1.07.26q-.62.12-1.16.2-.12.06,0,.09.71,0,1.42-.12v.78H8.94l.26.22.14-.06H9.8a4.27,4.27,0,0,1-.57.74A5.39,5.39,0,0,1,8.4,25q-.07.1,0,.09a6,6,0,0,0,1.13-.75,4.57,4.57,0,0,0,.7-.77h0V24q0,.37,0,.65t0,.3s0,0,0,0q.31,0,.35-.21s0-.1,0-.25,0-.33,0-.53v-.4h0a2.57,2.57,0,0,0,.59.87,2.3,2.3,0,0,0,.79.52s.08,0,.1,0a.65.65,0,0,1,.45-.24q.1,0,0-.08A2.22,2.22,0,0,1,10.76,23.56Z"/><path class="cls-1" d="M8.33,25.71a1.15,1.15,0,0,1,0,.31q0,.13.09.12A.25.25,0,0,0,8.64,26a.43.43,0,0,0,.07-.26q0-.22-.63-.65-.1,0,0,.1a3.93,3.93,0,0,1,.24.42l-.76,0-.46,0a13.19,13.19,0,0,0,1.65-2.23q.34-.06.1-.21L8.53,23l-.08,0a3.49,3.49,0,0,0-.17.41A6.32,6.32,0,0,1,8,24L6.92,24a13.33,13.33,0,0,0,1.15-1.59q.24,0,.09-.14L7.81,22s0,0,0,0a4.15,4.15,0,0,0-.23.54,5.05,5.05,0,0,1-.63,1.17.55.55,0,0,1-.28.27q-.08,0-.06.05s0,0,0,.1l.12.19a.12.12,0,0,0,.06.08s.07,0,.17-.05l.4-.12.58-.12a11.23,11.23,0,0,1-1,1.33,1.34,1.34,0,0,1-.24.18q-.16,0-.13.05s0,0,0,.1l.13.24c0,.08.06.11.06.09l.28-.1.5-.16Z"/><path class="cls-1" d="M18.78,27.5l-.22-.19q-.15-.13-.15-.1s0,0-.08.09l-.21.22h-1.8v-.89h1.4s.06,0,.05,0,0,0-.1-.12l-.24-.17q-.12-.11-.14-.09s0,0-.08.08l-.18.18h-.71v-.56l.13-.13q.1-.08.08-.08s0,0-.12-.1l-.32-.17q-.12-.06-.13-.05s0,0,0,0,0,0,0,.06l0,.3,0,.29q0,.09,0,.27v.15H14.65l.27.22.13-.06H16v.89H13.46l.27.21.19-.06h4.94q.08,0,.06,0S18.89,27.6,18.78,27.5Z"/><path class="cls-1" d="M17.1,25.3h2.09c.05,0,.07,0,.06,0s0-.06-.14-.14l-.27-.23q-.15-.1-.15-.08s0,0-.09.08l-.22.27h-.86V23h1.4q.1,0,.08,0s0,0-.14-.14l-.24-.18q-.17-.13-.17-.1s0,0-.06.1l-.18.19h-.68v-.36l.14-.13q.08-.08.06-.08s0-.06-.12-.1l-.32-.17L17.18,22s0,0,0,0,0,0,0,.06l0,.3v.27q0,.1,0,.24H15.26v-.36l.13-.13q.08-.08.06-.08s0-.06-.1-.1L15,22.06,14.92,22s0,0,0,0,0,0,0,.06l0,.3v.27q0,.09,0,.22H13.46l.28.26.19-.08h1v2.12H13.2l.26.21.22-.06H15a3.44,3.44,0,0,1-.69.79,5.68,5.68,0,0,1-1.19.72q-.11.1,0,.09a4.37,4.37,0,0,0,2.39-1.6h1.37a3.1,3.1,0,0,0,.76.83,4.33,4.33,0,0,0,.94.57q.08,0,.17-.12t.45-.15,0-.06A3.31,3.31,0,0,1,17.1,25.3ZM15.26,23h1.92v.58H15.26Zm0,.72h1.92v.59H15.26Zm0,1.4v-.65h1.92v.65Z"/><path class="cls-1" d="M22.72,27.1q-.17,0-.06.08a1,1,0,0,1,.5.66q0,.13.13.13t.22-.38Q23.47,27.32,22.72,27.1Z"/><path class="cls-1" d="M25.49,22.85l-.21-.17q-.15-.14-.15-.12s-.06,0-.14.1l-.15.21h-4l-.28-.22-.1-.08s0,0,0,0,0,0,0,.06l0,.3v.29q0,.09,0,.27v1a5.31,5.31,0,0,1-.76,3.28q-.1.18,0,.09a2.69,2.69,0,0,0,.75-1.17,6.83,6.83,0,0,0,.3-2.19V23h4.78c.05,0,.07,0,.06,0Z"/><path class="cls-1" d="M25.4,25.2l-.27-.26q-.15-.11-.15-.09s0,0-.12.09l-.21.26H23.41a7.54,7.54,0,0,1-.17-1.32l1.13-.17q.3.12.21,0l-.27-.33q-.08-.08-.1-.06l-.51.21-.84.22q-.52.12-1,.19l-.08,0-.26-.18-.1,0s0,0,0,0,0,0,0,0l0,.3,0,.29q0,.09,0,.27V26.9q0,.38-.12.47a.08.08,0,0,0,0,.09s0,0,.05.09l.15.21q.06.13.06.1s0,0,.1-.12.27-.32.43-.5l.73-.74q.08-.13-.08-.06l-1,.71v-1.8H23.1a5.11,5.11,0,0,0,.64,1.6,2.75,2.75,0,0,0,1.21,1,.89.89,0,0,0,.29.05.09.09,0,0,0,.08-.06s0-.06-.05-.13a.94.94,0,0,1-.07-.3,6.74,6.74,0,0,1,0-1q0-.1,0-.08s0,0-.05.08a7.63,7.63,0,0,1-.2.79q-.05.13-.11.13a.31.31,0,0,1-.15,0,3.11,3.11,0,0,1-1.22-2h2q.08,0,.06,0S25.5,25.29,25.4,25.2Zm-3.65,0V24h0q.54,0,1.15-.1a6.05,6.05,0,0,0,.15,1.27Z"/><path class="cls-1" d="M22.78,22.66a.12.12,0,0,0,.14.12q.16-.07.19-.37a.28.28,0,0,0-.16-.24,2.91,2.91,0,0,0-.62-.25q-.18,0-.06.08A1.21,1.21,0,0,1,22.78,22.66Z"/><path class="cls-1" d="M28.28,24.33a5.26,5.26,0,0,0,.85-1.14,1.36,1.36,0,0,1,.41.83q0,.14.13.14s.09-.05.14-.14a.7.7,0,0,0,.08-.29.36.36,0,0,0-.14-.27,3.18,3.18,0,0,0-.56-.37q.19-.32.35-.63.23,0,0-.14l-.37-.21h-.05a2.64,2.64,0,0,0-.14.55,7.18,7.18,0,0,1-.32.79,4.81,4.81,0,0,1-.49.84Q28.15,24.41,28.28,24.33Z"/><path class="cls-1" d="M28.11,22.35l-.33-.26h-.05l-.38.51a6.66,6.66,0,0,1-1,.95q-.09.11,0,.08A9.61,9.61,0,0,0,28,22.48Q28.26,22.49,28.11,22.35Z"/><path class="cls-1" d="M30.28,27.2V25.76h1.56q.08,0,.06,0s0,0-.1-.14l-.24-.21q-.1-.1-.13-.08s0,0-.08.06l-.19.23h-.88v-.69l.13-.08q.1-.06.08-.06s0,0-.12-.08l-.32-.13-.12,0s0,0,0,0,0,0,0,.05l0,.29q0,.22,0,.3t0,.26v1.63a1.86,1.86,0,0,1-1-1l.17-.69q.32-.06,0-.18l-.35-.13-.06,0q0,.1-.14.88a4.33,4.33,0,0,1-.82,1.79q-.09.13,0,.08a4,4,0,0,0,1.08-1.55A2.26,2.26,0,0,0,30,27.37a5.14,5.14,0,0,0,1.72.42q.12,0,.13-.08a.82.82,0,0,1,.5-.35q.08,0,0,0A8,8,0,0,1,30.28,27.2Z"/><path class="cls-1" d="M27.6,24.65l-.06-.05.56-.65q.25,0,.06-.17l-.32-.24a.07.07,0,0,0-.06,0l-.27.58a6.5,6.5,0,0,1-1.14,1.5q0,.08.05.06a8.22,8.22,0,0,0,.76-.63v2q0,.36,0,.63t0,.31s0,0,0,0,.29-.09.32-.22V24.92l.13-.13q.08-.08.06-.08S27.69,24.69,27.6,24.65Z"/><path class="cls-1" d="M29.81,24.54a3.12,3.12,0,0,0,.76-.77l.3-.49a1.73,1.73,0,0,1,.67.87q0,.13.14.12t.15-.16a.5.5,0,0,0,0-.27q0-.13-.2-.27a3.45,3.45,0,0,0-.76-.34q.24-.56.32-.83.23-.11.08-.18L30.86,22h-.05a4.62,4.62,0,0,0-.17.74,3.93,3.93,0,0,1-.94,1.77S29.72,24.57,29.81,24.54Z"/><path class="cls-1" d="M33.26,24.61h3.44c.06,0,.09,0,.08,0s0,0-.13-.13l-.21-.18q-.14-.1-.14-.08s0,0-.06.06l-.17.22H32.85l.28.21Z"/><path class="cls-1" d="M38.23,23.9a4.71,4.71,0,0,0-.29.41,5.83,5.83,0,0,1-.69.71,7.52,7.52,0,0,1-.82.63q-.1.11.09.06a10.74,10.74,0,0,0,2-1.39q.26,0,.12-.12l-.33-.29Z"/><path class="cls-1" d="M37.56,23.22l.7-.62q.24,0,.13-.14l-.32-.33H38a4.52,4.52,0,0,0-.26.42,8.14,8.14,0,0,1-1.23,1.31q-.11.13,0,.09A7.65,7.65,0,0,0,37.56,23.22Z"/><path class="cls-1" d="M33.51,22.85q0,.09,0,.26,0,.85,0,.94s0,0,.05,0,.24,0,.28-.13v-.13h.58a.63.63,0,0,1,.19.2l.16.25q0,.15.14.15t.18-.21q-.05-.21-.5-.4h1.22V24s0,0,0,0a.34.34,0,0,0,.32-.21s0-.13,0-.32,0-.41,0-.67v-.15l.13-.14q.08-.07.06-.1s0,0-.08-.08L36,22.2q-.09-.06-.1-.05s0,0-.06.05l-.23.22H33.82l-.22-.18-.1-.05s0,0,0,0,0,0,0,.06l0,.3Zm.34-.29h1.94v.51H33.85Zm0,.67h1.94v.45H33.85Z"/><path class="cls-1" d="M34.31,26.47,34,26.2h-.05a1.52,1.52,0,0,0-.17.32,4.55,4.55,0,0,1-.92,1.1q0,.09.06.06a5.08,5.08,0,0,0,1.27-1.08Q34.44,26.58,34.31,26.47Z"/><path class="cls-1" d="M35,25.88h.73V26s0,0,0,0,.27-.06.31-.17,0-.22,0-.5v0l.13-.14q.08-.05.06-.09s0,0-.08-.09L36,24.88s-.06-.06-.08-.05-.06,0-.09.05l-.14.13H33.95l-.28-.12-.09-.05s0,0,0,0,0,0,0,.05l0,.29q0,.23,0,.28v.18q0,.44,0,.45s0,0,0,0q.26,0,.28-.15v-.12h.76v1.3q0,.25-.21.25h-.21l-.34-.05q-.11,0,0,.1a3.19,3.19,0,0,1,.42.17.31.31,0,0,1,.2.27.5.5,0,0,0,.49-.49s0-.32,0-.92Zm-1.09-.14v-.58h1.82v.58Z"/><path class="cls-1" d="M35.82,27.1q0,.15.1.14a.22.22,0,0,0,.18-.14.61.61,0,0,0,.07-.23q0-.24-.91-.63-.17,0,0,.1A1.58,1.58,0,0,1,35.82,27.1Z"/><path class="cls-1" d="M38.5,25.49s0,0-.05,0l-.37.53a6.94,6.94,0,0,1-1.25,1.1,11.85,11.85,0,0,1-1.52.85q-.07.09.08.06a7.88,7.88,0,0,0,3.28-2.06q.27.05.1-.15Z"/><path class="cls-1" d="M42.34,22.71q0,.12.13.13t.14-.13a.55.55,0,0,0,.07-.23q0-.13-.17-.24a5.24,5.24,0,0,0-.66-.29q-.09,0,0,.12A1.49,1.49,0,0,1,42.34,22.71Z"/><path class="cls-1" d="M44.12,25.34l-.24-.19q-.09-.1-.1-.08s-.05,0-.08.05l-.22.22H41.13l-.28-.19-.12-.08s0,0,0,0,0,0,0,.06l0,.3v.29q0,.09,0,.27V27.1q0,.37,0,.65t0,.31a0,0,0,0,0,.05,0q.28,0,.31-.21V27.6h2.54V28s0,0,0,0a.34.34,0,0,0,.32-.21s0-.11,0-.26,0-.32,0-.51V25.67l.19-.15q.08,0,.06-.08S44.19,25.4,44.12,25.34Zm-.5,2.12H41.08v-.92h2.54Zm0-1.06H41.08v-.91h2.54Z"/><path class="cls-1" d="M40.41,23h4.4c.05,0,.07,0,.06,0s0-.05-.15-.17l-.18-.15q-.17-.14-.17-.12s0,0-.09.1l-.19.21H40l.26.21Z"/><path class="cls-1" d="M41.79,24.36a.61.61,0,0,0,.11-.3q0-.31-.69-.73-.15,0-.06.05a1.75,1.75,0,0,1,.35,1,.19.19,0,0,0,.08.17A.38.38,0,0,0,41.79,24.36Z"/><path class="cls-1" d="M45.26,24.51l-.19-.17q-.14-.13-.14-.1s-.06,0-.12.09l-.18.22H43l.65-1q.29,0,.09-.15l-.41-.27-.08,0s0,.22-.13.56-.2.62-.31.9H39.36l.27.21.19-.06h5.51q.08,0,.06,0S45.38,24.61,45.26,24.51Z"/><path class="cls-1" d="M49.79,24.58a.52.52,0,0,0-.3-.11.46.46,0,0,0-.35.13q-.1.12-.09.13a.48.48,0,0,0,0,.39q.09.13.13.14a.32.32,0,0,0,.19.07h.12l.1,0a.9.9,0,0,1-.29.62,1.75,1.75,0,0,1-.28.22l.08.05a1.36,1.36,0,0,0,.69-.52,1.07,1.07,0,0,0,.18-.4Q50,24.71,49.79,24.58Z"/></svg>