<svg id="圖層_1" data-name="圖層 1" xmlns="http://www.w3.org/2000/svg" viewBox="0 0 50 50"><title>logo_text02</title><path d="M2,29.81V18.55L1.1,19a2.08,2.08,0,0,1-1,.23v.4a2.13,2.13,0,0,1,.91.12c.13.08.19.32.19.73v9.33q0,1-1.22,1v.37H3.2v-.37a1.88,1.88,0,0,1-.91-.16A.9.9,0,0,1,2,29.81Z"/><path d="M13.88,26.24q-.45-3.67-3.29-3.67A2.89,2.89,0,0,0,8,24a5.72,5.72,0,0,0-.85,3.26,4.71,4.71,0,0,0,.91,2.89,2.84,2.84,0,0,0,2.37,1.27,4,4,0,0,0,3.41-2.16l-.26-.19a5,5,0,0,1-1.22,1.17,2.8,2.8,0,0,1-1.51.52,2.44,2.44,0,0,1-2.11-1.08A4,4,0,0,1,8,27.29a10.31,10.31,0,0,1,0-1ZM8.88,24a2.1,2.1,0,0,1,1.71-1,2.06,2.06,0,0,1,1.83.94A3.67,3.67,0,0,1,13,25.86H8.13A4,4,0,0,1,8.88,24Z"/><path d="M20.56,26.75l-1.65-.52q-1.57-.52-1.57-1.55a1.5,1.5,0,0,1,.59-1.2A2,2,0,0,1,19.27,23q1.55,0,2.91,2.18l.3-.16-.82-2.19a.85.85,0,0,1-.54.33l-.73-.3a3.09,3.09,0,0,0-1.15-.3,2.94,2.94,0,0,0-1.9.63,2,2,0,0,0-.78,1.65q0,1.37,1.69,1.93l2.35.78a1.78,1.78,0,0,1,1.32,1.83,1.4,1.4,0,0,1-.59,1.13A2,2,0,0,1,20,31a3.83,3.83,0,0,1-3.46-2.49l-.31.12,1.08,2.79a1.19,1.19,0,0,1,.82-.33,3.3,3.3,0,0,1,.85.17,3.42,3.42,0,0,0,1,.19,3,3,0,0,0,1.78-.54,2,2,0,0,0,.89-1.72A2.51,2.51,0,0,0,20.56,26.75Z"/><path d="M29.47,26.75l-1.65-.52q-1.57-.52-1.57-1.55a1.5,1.5,0,0,1,.59-1.2A2,2,0,0,1,28.19,23q1.55,0,2.91,2.18l.3-.16-.82-2.19a.85.85,0,0,1-.54.33l-.73-.3a3.09,3.09,0,0,0-1.15-.3,2.94,2.94,0,0,0-1.9.63,2,2,0,0,0-.78,1.65q0,1.37,1.69,1.93l2.35.78a1.78,1.78,0,0,1,1.32,1.83,1.4,1.4,0,0,1-.59,1.13,2,2,0,0,1-1.31.49,3.83,3.83,0,0,1-3.46-2.49l-.31.12,1.08,2.79a1.19,1.19,0,0,1,.82-.33,3.3,3.3,0,0,1,.85.17,3.42,3.42,0,0,0,1,.19,3,3,0,0,0,1.78-.54,2,2,0,0,0,.89-1.72A2.51,2.51,0,0,0,29.47,26.75Z"/><path d="M37.27,22.57A3,3,0,0,0,34.7,24,5.19,5.19,0,0,0,33.83,27a5.16,5.16,0,0,0,.87,3,3,3,0,0,0,2.58,1.38,2.94,2.94,0,0,0,2.56-1.38A5.24,5.24,0,0,0,40.7,27a5.19,5.19,0,0,0-.87-3.06A3,3,0,0,0,37.27,22.57Zm2.07,7.12a2.26,2.26,0,0,1-4.14,0A6.13,6.13,0,0,1,34.7,27a6.37,6.37,0,0,1,.5-2.7,2.25,2.25,0,0,1,4.14,0,6,6,0,0,1,.52,2.7A6.06,6.06,0,0,1,39.35,29.69Z"/><path d="M49.08,30V25a2.45,2.45,0,0,0-.66-1.76,2.14,2.14,0,0,0-1.64-.71,3.32,3.32,0,0,0-2.72,1.76V22.61a3.18,3.18,0,0,1-1.72.66v.38q1,0,1,.61V30q0,.71-.94.77v.37H45v-.37q-.91,0-.91-.77V25a3.68,3.68,0,0,1,1.11-1.43A2.22,2.22,0,0,1,46.52,23a1.57,1.57,0,0,1,1.31.66,2.31,2.31,0,0,1,.52,1.5V30q0,.71-.91.77v.37H50v-.37Q49.08,30.72,49.08,30Z"/></svg>