<svg id="圖層_1" data-name="圖層 1" xmlns="http://www.w3.org/2000/svg" viewBox="0 0 50 50"><defs><style>.cls-1{fill:#808081;}</style></defs><title>logo_text02</title><rect class="cls-1" x="1.07" y="17" width="0.94" height="15.65"/><path class="cls-1" d="M8.83,32.06c-1.81,0-3-1.69-3-4.32v-.4l6.58,0c-.07-2.37-.21-3.05-.82-4.16a3.32,3.32,0,0,0-2.77-1.6c-2.44,0-4,2.35-4,5.94,0,3.29,1.57,5.33,4,5.33,1.62,0,2.63-.64,3.74-2.47L11.81,30C10.87,31.47,10,32.06,8.83,32.06Zm0-9.61a2.21,2.21,0,0,1,1.88,1,4.93,4.93,0,0,1,.75,3.08H5.87C6.08,23.88,7.11,22.45,8.83,22.45Z"/><path class="cls-1" d="M17.95,26.7c-2-.66-2.65-1.25-2.65-2.3a1.92,1.92,0,0,1,2.09-1.9c1.08,0,1.71.4,2.54,1.67l.82-.4a3.68,3.68,0,0,0-3.36-2.14,2.83,2.83,0,0,0-3.06,2.82,2.54,2.54,0,0,0,.87,2,6.41,6.41,0,0,0,2.4,1.15c1.74.56,2.37,1.2,2.37,2.33a2.23,2.23,0,0,1-2.44,2.16,2.76,2.76,0,0,1-2.68-2l-.89.33a3.52,3.52,0,0,0,3.57,2.54A3.11,3.11,0,0,0,21,29.78C21,28.3,20.09,27.41,17.95,26.7Z"/><path class="cls-1" d="M26.29,26.7c-2-.66-2.65-1.25-2.65-2.3a1.92,1.92,0,0,1,2.09-1.9c1.08,0,1.71.4,2.54,1.67l.82-.4a3.68,3.68,0,0,0-3.36-2.14,2.83,2.83,0,0,0-3.06,2.82,2.54,2.54,0,0,0,.87,2,6.41,6.41,0,0,0,2.4,1.15c1.74.56,2.37,1.2,2.37,2.33a2.23,2.23,0,0,1-2.44,2.16,2.76,2.76,0,0,1-2.68-2l-.89.33a3.52,3.52,0,0,0,3.57,2.54,3.11,3.11,0,0,0,3.43-3.1C29.3,28.3,28.43,27.41,26.29,26.7Z"/><path class="cls-1" d="M35.13,21.77C32.67,21.77,31,24,31,27.29,31,30.77,32.6,33,35,33s4.11-2.21,4.11-5.69S37.58,21.77,35.13,21.77ZM35,32.2c-1.83,0-3.08-1.93-3.08-4.79s1.27-4.84,3.08-4.84,3.15,1.86,3.15,4.7C38.19,30.3,37,32.2,35,32.2Z"/><path class="cls-1" d="M48.53,23a2.85,2.85,0,0,0-2.47-1.29,3.78,3.78,0,0,0-3.12,1.81V21.86l-1,0V32.65h.91V25c.75-1.62,1.79-2.44,3-2.44,1.48,0,2.14.85,2.14,2.84v7.24h.89V25.29A4.43,4.43,0,0,0,48.53,23Z"/></svg>