<svg id="圖層_1" data-name="圖層 1" xmlns="http://www.w3.org/2000/svg" viewBox="0 0 16 16"><defs><style>.cls-1{fill:#604c3f;opacity:0.2;isolation:isolate;}.cls-2{fill:#f7f7f7;}.cls-3{opacity:0.8;}.cls-4{fill:#a57f60;}</style></defs><title>icon_new</title><circle class="cls-1" cx="8" cy="8" r="8"/><circle class="cls-2" cx="8" cy="8" r="6.93"/><g class="cls-3"><path class="cls-4" d="M5.41,6.4A1.15,1.15,0,0,0,5,6.69a1.15,1.15,0,0,0-.14.62V9.85H4.42L3.15,7.39v2a.6.6,0,0,0,.24.4h0Q3.11,9.66,3.11,9V7.27L3,7V8.53a3,3,0,0,0,.09,1,.64.64,0,0,0,.46.33l.23.25H2.29V10H3.64L3.5,9.86H2.2a.76.76,0,0,0,.44-.32,1.55,1.55,0,0,0,.1-.68V6.7l-.36-.3H3.74l-.38.25L4.67,9.19V8.88L3.52,6.7l.38-.25h0l-.33.23,1,2V7.34a1.65,1.65,0,0,0-.08-.62.78.78,0,0,0-.25-.31Zm.09.2v.08a.4.4,0,0,0-.28.18.94.94,0,0,0-.07.44v2.78H4.58V10h.54V7.34a1,1,0,0,1,.1-.53.53.53,0,0,1,.31-.2Z"/><path class="cls-4" d="M8.59,6.4h0a2.69,2.69,0,0,0-.44.77V7.08a.87.87,0,0,0-.45-.36,1.37,1.37,0,0,0-.61-.09H6.61V7.88h.17V6.73h.39a1.3,1.3,0,0,1,.53.16A.68.68,0,0,1,8,7.17H8a1.3,1.3,0,0,0-.29-.29,1.45,1.45,0,0,0-.38,0H6.9v1h.49l.34-.47V8.59l-.34-.45H6.66V9.62h.17V8.24h.59l.07.07H6.9V9.62a2.69,2.69,0,0,0,.8-.08A.64.64,0,0,0,8,9.19l.14-.24V8.89a1.75,1.75,0,0,0,.17.47,2.17,2.17,0,0,0,.34.41h-3l.41-.31V8.31a1,1,0,0,0-.41.14h0a1,1,0,0,1,.45-.15v-.2H6.11a.74.74,0,0,0-.51.2.54.54,0,0,1,.56-.43V6.73L5.75,6.4ZM9,9.85l-.18.23H6V10H8.85l.09-.17a2.07,2.07,0,0,1-.55-.76h.08A2.19,2.19,0,0,0,9,9.77ZM7.89,7.55V8.7H7.82V7.55Zm.79-.9h0a3.16,3.16,0,0,0-.44.74h0a3.21,3.21,0,0,1,.46-.76Z"/><path class="cls-4" d="M13.64,5.49a3.3,3.3,0,0,0-.56.82,9.42,9.42,0,0,0-.45,1.36l-.46,1.69v.21l.33.3H11.32l.36-.3-.53-1.71-.46,1.69.46.55H9.77V10H11l-.4-.46.51-1.85-.09-.32-.55,2v.17l.31.3H9.65l.36-.3L9.22,6.75,8.85,6.4h1.31l-.37.33L10.42,9l.09-.32L10,6.78l.24-.22h.06l-.3.24.47,1.69L11,6.4h.25L12,8.93l.08-.3L11.46,6.4h.08l.57,2.09.25-.91a5.6,5.6,0,0,0,.24-1.15A.51.51,0,0,0,12.35,6a5.14,5.14,0,0,0,.71-.25,3.11,3.11,0,0,0,.54-.31Zm.16.21a3.15,3.15,0,0,0-.53.8,8,8,0,0,0-.43,1.24l-.47,1.74.52.6H11.52L11.46,10h1.28L12.3,9.5l.49-1.8a8.26,8.26,0,0,1,.43-1.23,3.63,3.63,0,0,1,.54-.83Z"/></g></svg>