<svg id="圖層_1" data-name="圖層 1" xmlns="http://www.w3.org/2000/svg" viewBox="0 0 92.81 21.56"><defs><style>.cls-1{fill:#776956;}</style></defs><title>title</title><path class="cls-1" d="M0,8.46a13.59,13.59,0,0,0,2.46.16h16a4.38,4.38,0,0,0,.59-.8q.35-.4.54-.4t.89.63q.8.7.8.84,0,.4-.49.4H9.49V20.81q0,.45-.23.56a1.06,1.06,0,0,1-.54.19q-.26,0-.26-.75l.09-2.6v-.89a51.39,51.39,0,0,1-5.46,1.62q-1.38.33-1.38.49,0,.54-.19.54T1,19.45Q.68,18.73.49,18.3q1.15-.09,2.6-.33V9.3H2.46A7.39,7.39,0,0,0,.4,9.49Zm4-8a3.85,3.85,0,0,1,1.22.66H15.94s.14-.11.33-.33.37-.33.45-.33.36.17.75.52.45.51.45.59-.16.2-.47.38-.37.3-.37.4q0,2.63.09,5.06,0,.14-.3.26l-.23.09q-.49,0-.49-.35V6.94H5.23l0,.66q0,.28-.47.4a1.27,1.27,0,0,1-.37.09q-.3,0-.3-.49l.12-1.2V2.63A10.18,10.18,0,0,0,4,.49Zm0,11H8.55V9.3H4Zm0,2.84H8.55V12.21H4Zm0,3.47q1.87-.28,4.52-.89V15H4ZM5.16,3.75h11v-2h-11Zm0,2.55h11V4.43h-11Zm5.09,4.78a13.88,13.88,0,0,0,3.28.28H18a5,5,0,0,0,.49-.45.6.6,0,0,1,.26-.14q.23,0,.77.49t.45.54q0,.16-.42.3t-.42.28A21.36,21.36,0,0,1,16,16.9a9.84,9.84,0,0,0,1.05.91,12,12,0,0,0,4,2.06v.4a1.39,1.39,0,0,0-1,.3,1.09,1.09,0,0,1-.3.23,5.23,5.23,0,0,1-1.52-.87A11.22,11.22,0,0,1,16,18.07l-.52-.54a2.27,2.27,0,0,1-.33.28,22.78,22.78,0,0,1-5,3.4L9.94,21a31.08,31.08,0,0,0,4.87-3.77l.16-.16q-.52-.61-1-1.27A15,15,0,0,1,12.26,12a12.07,12.07,0,0,0-1.55.16Zm2.48.91a11.62,11.62,0,0,0,1.64,3.12,14.75,14.75,0,0,0,1.17,1.31A24.3,24.3,0,0,0,18.19,12H12.73Z"/><path class="cls-1" d="M23.91,11.72a11.93,11.93,0,0,0,2.46.19H29v-.63a6.9,6.9,0,0,0-.19-2l1.66.26q.49.07.49.28t-.54.33q-.49.14-.49.35v1.38h2.81a4.83,4.83,0,0,0,.52-.61q.28-.33.45-.33t.73.54q.66.59.66.7,0,.35-.45.35H29.91v1A9.39,9.39,0,0,1,33,15.21a1.54,1.54,0,0,1,.54,1.12q0,.54-.4.54t-.73-.66a8.41,8.41,0,0,0-2.55-2.3v6.8q0,.4-.47.54a1.29,1.29,0,0,1-.28,0q-.28,0-.28-.49,0-1.1.09-2.3V12.63a15.37,15.37,0,0,1-2,3.49,17,17,0,0,1-3,2.81l-.26-.28A15.76,15.76,0,0,0,26.27,16a16.21,16.21,0,0,0,1.8-3.4H26.37a7.39,7.39,0,0,0-2.06.19Zm7.71-7.78,1.24.4q.45.16.45.35t-.4.16a2.57,2.57,0,0,0-.45.12,18,18,0,0,1-1.78,3.21h2.41a6,6,0,0,0,.47-.63q.23-.3.37-.3t.75.49q.68.61.68.73,0,.35-.4.35H26.46A7.39,7.39,0,0,0,24.4,9L24,8a10.63,10.63,0,0,0,2.46.21h3.82A11.39,11.39,0,0,0,31.62,3.94ZM24.3,2.81A11.41,11.41,0,0,0,26.72,3h5.84a7.54,7.54,0,0,0,.54-.66q.3-.37.49-.38t.8.56q.68.63.68.77,0,.35-.45.35h-7.9a7.42,7.42,0,0,0-2,.19Zm2.41,1.52A6.84,6.84,0,0,1,28,5.77a2,2,0,0,1,.4.89,1,1,0,0,1-.26.73.51.51,0,0,1-.42.21.31.31,0,0,1-.35-.35,6,6,0,0,0-.94-2.81ZM27.4,0a7.54,7.54,0,0,1,2.51,1.29,1,1,0,0,1,.4.8q0,.63-.49.63-.16,0-.49-.49A6.65,6.65,0,0,0,27.3.3ZM44,1.88q-3.63.8-6.84,1.17V8h6.12l.35-.47q.37-.56.56-.56t.73.54q.7.66.7.8,0,.35-.4.35H41.81v12q0,.45-.21.56a1,1,0,0,1-.54.21q-.28,0-.28-.77L40.87,18V8.63H37.12q-.14,5.09-1.05,7.05A13.67,13.67,0,0,1,32.46,21l-.4-.19a13.54,13.54,0,0,0,3.21-5.25q.91-2.23.91-8.41a46.82,46.82,0,0,0-.28-5.46,15.06,15.06,0,0,1,1.43,1q4.59-.94,6.09-2,1.27.91,1.24.91a.35.35,0,0,1,.23.3s-.06.08-.19.09Z"/><path class="cls-1" d="M48.09,6.12a8.2,8.2,0,0,1,2.84,1.48,1.35,1.35,0,0,1,.47.94q0,.87-.59.87-.19,0-.59-.63a7,7,0,0,0-2.32-2.27Zm6.66-1.52.28.09Q53.6,9.07,52.2,13.5a8,8,0,0,0-.52,2.65A9.42,9.42,0,0,0,51.87,18q.33,1.17.47,1.88a1.37,1.37,0,0,1-.16.8.56.56,0,0,1-.49.23.86.86,0,0,1-.73-.3,2.35,2.35,0,0,1-.23-1.17q.09-1,.09-2.46a1.08,1.08,0,0,0-.21-.7q-.28-.42-2.2-.77V15h1.66q.61,0,1.05-1.05Q52.59,10,54.75,4.59Zm-5-4a8.38,8.38,0,0,1,2.86,1.8,1.74,1.74,0,0,1,.42,1.13q0,.84-.54.84-.21,0-.61-.73A8,8,0,0,0,49.62.94Zm5.84.87a13,13,0,0,1,3,3A2.31,2.31,0,0,1,59,5.53q0,.87-.54.87-.23,0-.66-1a15.59,15.59,0,0,0-2.34-3.7ZM60.94,0,62.6.35q.59.07.59.3t-.59.4q-.45.12-.45.47V7.43h4l.3-.42q.3-.45.45-.45t.84.59q.68.68.68.82t-.4.35q-.45.21-.45.49v10a1.89,1.89,0,0,1-.77,1.66,2.22,2.22,0,0,1-1,.49q-.19,0-.37-.49t-2.53-.91v-.35l3.28.09q.4,0,.4-.49V14.72H57v4.8l.09,1.38q0,.28-.47.4a1.74,1.74,0,0,1-.47.09q-.28,0-.28-.49L56,19.52V8.91a10.07,10.07,0,0,0-.26-2.34,4.4,4.4,0,0,1,1.38.87h4v-4A24,24,0,0,0,60.94,0ZM57,10.59h9.59V8.09H57Zm0,3.49h9.59V11.27H57ZM66.68,1.15l1.48.52q.42.12.4.3t-.45.26l-.59.14a23.73,23.73,0,0,1-3.09,4.29l-.3-.16A18.13,18.13,0,0,0,66.68,1.15Z"/><path class="cls-1" d="M74.81,15.21h.59a8.49,8.49,0,0,1-.49,3.4,2.39,2.39,0,0,1-1,1.29,1.55,1.55,0,0,1-.91.38q-.52,0-.54-.4t.56-.75a4.58,4.58,0,0,0,1.24-1.48A5.67,5.67,0,0,0,74.81,15.21ZM81.75,0l1.41.45q.49.16.49.4t-.47.23a1.4,1.4,0,0,0-.47.16A7.73,7.73,0,0,1,81.47,3h6.47s.15-.13.35-.4.41-.42.49-.42.4.2.82.61.49.59.49.7-.16.18-.47.35-.35.3-.35.4q0,4.76.09,9.09,0,.16-.37.26l-.28.09q-.47,0-.47-.35v-.59h-11l0,.68q0,.26-.52.38a1.93,1.93,0,0,1-.42.07q-.3,0-.3-.45L76.12,12V4.52a9.27,9.27,0,0,0-.28-2.34A4,4,0,0,1,77.25,3h3.68A8.11,8.11,0,0,0,81.75,0ZM77.16,5.81H88.24V3.66H77.16Zm0,3.09H88.24V6.49H77.16Zm0,3.21H88.24V9.56H77.16ZM78,14.18l1.38.26q.68.16.68.38t-.45.4a.56.56,0,0,0-.37.54v3.49a.81.81,0,0,0,.37.66,11.24,11.24,0,0,0,3.47.28A19.44,19.44,0,0,0,86.72,20q.63-.16.75-1.59a15.9,15.9,0,0,0,.28-2.16h.37v2.09q0,1.36.47,1.59a.5.5,0,0,1,.28.45q0,.35-.91.49a27,27,0,0,1-4.87.26q-3.56,0-4.22-.42a1.61,1.61,0,0,1-.68-1.45V15.75A8.26,8.26,0,0,0,78,14.18Zm3.49-.49a7.11,7.11,0,0,1,2.58,1.64,1.48,1.48,0,0,1,.42,1q0,.84-.59.84-.19,0-.52-.66a7.54,7.54,0,0,0-2.09-2.44Zm7.57,1.22a16.5,16.5,0,0,1,3,2,2.18,2.18,0,0,1,.8,1.31,1.56,1.56,0,0,1-.12.68.57.57,0,0,1-.42.26.63.63,0,0,1-.56-.49,9.38,9.38,0,0,0-1.1-1.83,12.44,12.44,0,0,0-1.83-1.62Z"/></svg>