<svg id="圖層_1" data-name="圖層 1" xmlns="http://www.w3.org/2000/svg" viewBox="0 0 101.59 23.28"><defs><style>.cls-1{fill:#907965;}</style></defs><title>all</title><path class="cls-1" d="M10.05,1.93A39.14,39.14,0,0,1,3.66,4V7.31H9.27A2.49,2.49,0,0,0,9.6,7q.33-.46.46-.46t.81.61q.53.48.53.63T11,8.15q-.28.23-.28.38,0,3,.08,5.71,0,.18-.3.3l-.3.1q-.51,0-.51-.41v-.61H3.55a18.16,18.16,0,0,1-.61,4.14A14.32,14.32,0,0,1,.41,22.85L0,22.65a16.4,16.4,0,0,0,2.06-5,35.17,35.17,0,0,0,.61-8.1,65.15,65.15,0,0,0-.33-7,9.66,9.66,0,0,1,1.5,1Q8.1,2.16,9.47.63q1.35,1,1.32,1,.28.13.28.33c0,.05-.07.08-.2.1Zm-6.47,11H9.65V8h-6v1.5Q3.66,11.45,3.58,12.9Zm17.24-11A42,42,0,0,1,14,4V9h6.6l.46-.58q.46-.63.66-.63t.84.58q.81.79.81.94,0,.38-.43.38h-3v12.8q0,.48-.25.61a.94.94,0,0,1-.53.23q-.33,0-.33-.84l.13-2.84v-10H14q-.05,5.74-1,7.9a14.46,14.46,0,0,1-3.53,5.31L9,22.65a14.23,14.23,0,0,0,3-5.26q.86-2.23.86-8.43,0-3.71-.28-6.5a9.4,9.4,0,0,1,1.63,1.09q4.49-1.4,6-2.92,1.35,1,1.32,1,.28.13.28.33c0,.05-.07.08-.2.1Z"/><path class="cls-1" d="M26.63,3.68a12.34,12.34,0,0,0,2.62.2h5.28A21.51,21.51,0,0,0,35.65.1L37.5.69q.48.18.48.43t-.43.28q-.74.15-.79.36-.51,1.14-1,2.13H46.13A5.63,5.63,0,0,0,46.77,3q.38-.43.58-.43t1,.69q.84.76.84.91,0,.43-.51.43H35.37A37.69,37.69,0,0,1,33.26,8l.56.28H44.38l.33-.38q.33-.43.51-.43a2.61,2.61,0,0,1,.84.56q.56.46.56.66t-.46.51q-.46.25-.46.51v11.5a1.61,1.61,0,0,1-1.14,1.47,3.49,3.49,0,0,1-1.19.46q-.15,0-.3-.43-.2-.61-3.12-1l.08-.41q2.56.2,4.19.2.38,0,.38-.79V17H33.82v5.69q0,.36-.48.48a1.75,1.75,0,0,1-.53.15q-.3,0-.3-.43a17.38,17.38,0,0,0,.2-2.64V10.56q0-1.07-.05-1.65l-.28.36a30.74,30.74,0,0,1-5.74,5.56l-.23-.18a38,38,0,0,0,5.71-6.27A24.14,24.14,0,0,0,34.25,4.6h-5A8.35,8.35,0,0,0,27,4.8Zm7.19,8.53H44.59V9.06H33.82Zm0,4H44.59V12.9H33.82Z"/><path class="cls-1" d="M51.82,4.16a12.56,12.56,0,0,0,2.62.2H58.7a3.4,3.4,0,0,0,.56-.66q.28-.36.46-.36t.81.56q.74.66.74.79,0,.38-.53.38h-6.3a8.35,8.35,0,0,0-2.23.2Zm1.12,3.25a12.57,12.57,0,0,0,2.62.2h2.56q.25-.28.48-.58t.43-.3q.18,0,.74.51t.69.71q0,.38-.41.38H55.55a8.35,8.35,0,0,0-2.23.2ZM53,10.77a11.57,11.57,0,0,0,2.64.23h2.56q.25-.3.48-.61t.43-.3q.18,0,.74.51t.69.71q0,.38-.41.38H55.66a8.35,8.35,0,0,0-2.23.2Zm.3,3.15a3.93,3.93,0,0,1,1.32.74H58a2.49,2.49,0,0,0,.33-.36q.33-.38.46-.38t.81.61q.53.48.53.61t-.48.43q-.33.25-.33.38,0,3.12.1,5.92,0,.18-.33.3l-.3.1q-.48,0-.48-.41V20.52H54.54v.23l.13,1.32q0,.28-.51.41a1.76,1.76,0,0,1-.41.08q-.33,0-.33-.48l.13-1.32V16.25A11.16,11.16,0,0,0,53.32,13.91ZM54.67,0a14.56,14.56,0,0,1,2.39,1.85A2.1,2.1,0,0,1,57.69,3a1.85,1.85,0,0,1-.13.79.66.66,0,0,1-.46.23.67.67,0,0,1-.63-.48,7.59,7.59,0,0,0-.81-1.73A9,9,0,0,0,54.34.33Zm-.13,19.83h3.78V15.36H54.54ZM62,1.12A4.69,4.69,0,0,1,63.48,2H71.7s.16-.12.38-.36.45-.43.53-.43.43.22.89.66.53.64.53.76-.17.21-.51.38-.38.31-.38.43q0,3.94.1,7.52,0,.18-.41.3l-.33.1Q72,11.4,72,11v-.53H68.15V13h4.37q.33-.38.63-.79t.48-.43q.23,0,.94.66t.81.89q0,.38-.53.38H68.78a12.74,12.74,0,0,0,2.64,3.61,15.53,15.53,0,0,0,4.27,2.41v.41a1.71,1.71,0,0,0-1.24.33q-.18.28-.28.28-.41,0-2.54-2a13.09,13.09,0,0,1-3.33-5.05h-.15V19.2l.1,3.25q0,.48-.3.61a1.5,1.5,0,0,1-.71.23q-.28,0-.28-.84l.1-3.25V13.86A16,16,0,0,1,64.11,18a18.06,18.06,0,0,1-4.29,3.2l-.1-.3a15.23,15.23,0,0,0,3.66-3.07,16,16,0,0,0,2.56-4.06H63.17a8.35,8.35,0,0,0-2.23.2l-.38-1.12a12.56,12.56,0,0,0,2.62.2h3.88V10.46H63.45l.05.74q0,.28-.56.41a2.08,2.08,0,0,1-.46.08q-.33,0-.33-.48l.13-1.55v-6A9.6,9.6,0,0,0,62,1.12Zm1.45,4.8h3.66V2.77H63.4Zm0,3.83h3.66V6.6H63.4Zm4.75-7V5.92H72V2.77Zm0,3.83V9.75H72V6.6Z"/><path class="cls-1" d="M85.92,1.65q-1.4.58-2.44.91V6.83h1.65a5,5,0,0,0,.53-.69q.28-.33.48-.33t.79.53q.71.66.71.79,0,.38-.48.38H83.48V9.29a12.47,12.47,0,0,1,2.39,1.65,2.08,2.08,0,0,1,.76,1.27,2.19,2.19,0,0,1-.08.66.56.56,0,0,1-.41.23.57.57,0,0,1-.53-.41,7.34,7.34,0,0,0-1-1.78,6.55,6.55,0,0,0-1.09-1.09V19.2l.1,3.25q0,.48-.3.61a1.4,1.4,0,0,1-.71.23q-.3,0-.3-.84l.1-3.25V10.26A14.89,14.89,0,0,1,81.1,13.2a14.72,14.72,0,0,1-3.1,4l-.18-.28A14.07,14.07,0,0,0,80.34,13a26.49,26.49,0,0,0,1.75-5.51H80.67a7.43,7.43,0,0,0-2.26.23L78,6.6a11.73,11.73,0,0,0,2.67.23h1.7v-4q-1.47.36-4,.71l-.2-.43a24,24,0,0,0,4-1.07A14,14,0,0,0,85.62.33a8.41,8.41,0,0,1,1.24.84.63.63,0,0,1,.3.48s-.08.05-.23.1Zm12,9.85a24.31,24.31,0,0,1-3.66.86v3.48H97.8a3.41,3.41,0,0,0,.56-.66q.28-.36.46-.36t.81.58q.74.61.74.74,0,.43-.53.43H94.25v4.27H99a5,5,0,0,0,.53-.69q.28-.33.46-.33t.81.53q.74.66.74.79,0,.38-.53.38H88.16a8.33,8.33,0,0,0-2.23.2l-.41-1.12a11.58,11.58,0,0,0,2.64.23h5.08V16.58H90a8.35,8.35,0,0,0-2.23.2l-.38-1.12a14.32,14.32,0,0,0,2.62.18h3.25V12.49q-2.64.33-5.38.41l-.2-.3a36.79,36.79,0,0,0,5-.66,16.62,16.62,0,0,0,3-.79,8.37,8.37,0,0,0,2-1l1.22.71q.53.28.53.51a.26.26,0,0,1-.2.28ZM88.59,1.45a3.56,3.56,0,0,1,1.24.69h8S98,2,98.16,1.8s.37-.36.46-.36.41.19.84.56.48.56.48.66-.17.21-.51.38-.38.31-.38.43q0,3.07.1,5.87,0,.18-.36.3a1.12,1.12,0,0,1-.28.1q-.48,0-.48-.41V8.63h-8.2l.05.91q0,.3-.46.43a1.61,1.61,0,0,1-.46.1q-.28,0-.28-.53l.08-1.29V3.78A14.29,14.29,0,0,0,88.59,1.45Zm1.22,6.5H98V2.84H89.81Z"/></svg>