<svg id="圖層_1" data-name="圖層 1" xmlns="http://www.w3.org/2000/svg" viewBox="0 0 50 50"><title>calendar.svg</title><path d="M8.75,21.05a.33.33,0,0,0,.31.24.32.32,0,0,0,.22-.11.9.9,0,0,0,.06-.39A1,1,0,0,0,9,20.21a7.13,7.13,0,0,0-1.17-.91l-.16.16a4.4,4.4,0,0,1,.65.75A3.72,3.72,0,0,1,8.75,21.05Z"/><path d="M8.35,25h2.2q.2,0,.2-.19s-.11-.16-.34-.35-.3-.25-.36-.25-.12,0-.21.15l-.24.3H8.35a5.67,5.67,0,0,1-1.29-.11l.2.55A4.08,4.08,0,0,1,8.35,25Z"/><path d="M10.84,21.79q.26,0,.26-.19s-.12-.17-.36-.39-.33-.27-.4-.27-.13.06-.22.17a1.67,1.67,0,0,1-.27.32H7.76a6.16,6.16,0,0,1-1.28-.1l.19.55a4.08,4.08,0,0,1,1.09-.1Z"/><path d="M8.3,23.38h2.2c.13,0,.2-.06.2-.19s-.11-.16-.34-.35-.3-.25-.36-.25-.13,0-.21.15L9.56,23H8.3A6.15,6.15,0,0,1,7,22.93l.19.55A4.08,4.08,0,0,1,8.3,23.38Z"/><path d="M10.32,26.92q.24-.15.24-.21s-.09-.14-.26-.3-.33-.3-.4-.3-.12.06-.22.19l-.16.17H7.86a1.92,1.92,0,0,0-.65-.36,5.46,5.46,0,0,1,.11,1.14v2.2l-.06.65c0,.16.05.24.16.24l.2,0c.17,0,.25-.11.25-.2l-.06-.65v-.11H9.66V30c0,.13.08.2.24.2l.15,0c.11,0,.16-.09.16-.15q0-1.37,0-2.9S10.21,27,10.32,26.92ZM9.66,29H7.81V26.82H9.66Z"/><path d="M14.78,26h3q.26,0,.26-.19s-.13-.19-.4-.44-.39-.32-.46-.32-.14.07-.24.21l-.31.39H14.47V24.42h1.9v.26c0,.13.08.2.24.2l.16,0q.2-.06.2-.15,0-1.75,0-3.68c0-.06.06-.13.19-.21s.25-.14.25-.19-.09-.18-.26-.37-.37-.32-.44-.32-.13.07-.26.21-.17.17-.19.17h-4a2.3,2.3,0,0,0-.75-.45,4.7,4.7,0,0,1,.16,1.26V24l-.06.76q0,.24.16.24l.22,0c.18,0,.27-.11.27-.2l0-.36h1.77v1.24H12a6.16,6.16,0,0,1-1.28-.1l.19.55A4.07,4.07,0,0,1,12,26h1.35a7.84,7.84,0,0,1-1.26,2,7.46,7.46,0,0,1-1.79,1.5l0,.15a8.83,8.83,0,0,0,2.1-1.57,7.85,7.85,0,0,0,1.44-2V28.7l0,1.59q0,.41.14.41a.73.73,0,0,0,.35-.11q.15-.06.15-.3l0-1.59V26h.07a6.41,6.41,0,0,0,1.63,2.47q1,1,1.24,1s.08,0,.14-.14a.84.84,0,0,1,.61-.16V29a7.61,7.61,0,0,1-2.09-1.18A6.24,6.24,0,0,1,14.78,26Zm-.31-5.36h1.9V22.2h-1.9Zm0,1.88h1.9v1.54h-1.9Zm-.53,1.54H12.15V22.53h1.79Zm0-1.88H12.15V20.65h1.79Z"/><path d="M24.56,23.34l0,.63q0,.26.14.26a.79.79,0,0,0,.22,0q.22-.06.22-.21l0-.45h4v.35c0,.13.08.2.24.2l.14,0c.12,0,.17-.09.17-.15q0-1.37,0-2.87c0-.06.06-.13.19-.21s.25-.14.25-.19-.08-.16-.24-.32-.34-.27-.41-.27-.12.06-.22.17-.16.16-.17.16h-3.9a1.75,1.75,0,0,0-.61-.34,7,7,0,0,1,.09,1.14Zm.51-2.65h4v2.5h-4Z"/><path d="M30.48,29.27q-.3-.26-.4-.26c-.06,0-.13.05-.22.16a2.42,2.42,0,0,1-.26.34H27.25V27.42H30c.17,0,.26-.07.26-.21s-.12-.16-.36-.36-.34-.29-.4-.29-.13.06-.22.17a1.66,1.66,0,0,1-.27.32H27.25v-1.7A11.94,11.94,0,0,0,29,24.93l.61.09a.13.13,0,0,0,.1-.14q0-.11-.26-.25l-.6-.35a4.11,4.11,0,0,1-1,.47,8.17,8.17,0,0,1-1.47.39,18,18,0,0,1-2.45.32l.1.15q1.34,0,2.64-.2v1.64H25.16A7,7,0,0,1,23.88,27l.19.55a4.07,4.07,0,0,1,1.09-.1h1.59v2.09H24.27A5.67,5.67,0,0,1,23,29.39l.2.55a4.07,4.07,0,0,1,1.09-.1h6.32q.26,0,.26-.19S30.72,29.49,30.48,29.27Z"/><path d="M23.28,25.71a.28.28,0,0,0,.2-.11,1.08,1.08,0,0,0,0-.32,1,1,0,0,0-.37-.62A6.08,6.08,0,0,0,22,23.85V23h1.8q.24,0,.24-.19s-.12-.17-.35-.39-.33-.26-.39-.26-.14.05-.24.16a2.41,2.41,0,0,1-.26.34H22V20.56q.51-.16,1.19-.45l.5,0,.11,0a.31.31,0,0,0-.15-.24,4.1,4.1,0,0,0-.61-.41,6.84,6.84,0,0,1-1.68.86,11.81,11.81,0,0,1-2,.52l.1.21q1.22-.17,1.94-.35v1.94H20.6a5.75,5.75,0,0,1-1.31-.11l.2.56A3.64,3.64,0,0,1,20.6,23h.7a13,13,0,0,1-.86,2.7,6.89,6.89,0,0,1-1.23,1.89l.09.14a7.21,7.21,0,0,0,1.52-1.94,7.28,7.28,0,0,0,.62-1.44V28.7l0,1.59q0,.41.15.41a.69.69,0,0,0,.35-.11q.15-.06.15-.3l0-1.59V24.11a3.19,3.19,0,0,1,.53.53,3.58,3.58,0,0,1,.51.87A.28.28,0,0,0,23.28,25.71Z"/><path d="M41.11,28.55a7.74,7.74,0,0,1-1.43-1.14,17.31,17.31,0,0,0,2.15-1.19h.44c.09,0,.14,0,.16-.1s-.07-.11-.2-.2-.44-.29-.71-.45a8.6,8.6,0,0,1-2,1.82L39.33,27a10.63,10.63,0,0,1-1.24-2.21h5c.17,0,.25-.07.25-.21s-.12-.17-.36-.39-.36-.31-.42-.31-.15.06-.25.19a4.58,4.58,0,0,1-.3.36H38V23h3.68c.17,0,.26-.07.26-.2s-.12-.16-.36-.37-.33-.26-.4-.26-.13.05-.22.16a2.43,2.43,0,0,1-.26.34H38V21.44h4.34c.16,0,.24-.07.24-.2s-.12-.17-.37-.4-.34-.29-.41-.29-.15.06-.26.17a2.49,2.49,0,0,1-.29.37H38v-.94q0-.19.24-.25t.31-.21c0-.08-.1-.14-.31-.16l-.88-.19a11.93,11.93,0,0,1,.1,1.75H34.26A6.15,6.15,0,0,1,33,21l.19.55a3.65,3.65,0,0,1,1.09-.11h3.23v1.26H34.92a6.43,6.43,0,0,1-1.31-.1l.2.55A3.63,3.63,0,0,1,34.92,23h2.57v1.44h-4a7.23,7.23,0,0,1-1.31-.09l.21.55a3.91,3.91,0,0,1,1.09-.1H37a8.75,8.75,0,0,1-2,2,12.08,12.08,0,0,1-2.9,1.49l.1.21a13.93,13.93,0,0,0,3.23-1.58l.16-.1V29.3l-.34.09a11.21,11.21,0,0,1-1.85.36l.31.66c.08.2.18.3.29.3s.1-.1.1-.31.31-.24.92-.41a30.39,30.39,0,0,0,3.89-1.63l-.09-.15q-1.54.6-2.69.94V26.42a11,11,0,0,0,1.57-1.59h.24a8.29,8.29,0,0,0,1.55,2.95,9.46,9.46,0,0,0,2.08,1.78,3.87,3.87,0,0,0,1,.5q.09,0,.2-.19t.8-.16v-.2A10.81,10.81,0,0,1,41.11,28.55Z"/></svg>