<svg id="圖層_1" data-name="圖層 1" xmlns="http://www.w3.org/2000/svg" viewBox="0 0 50 50"><title>navigation06</title><path d="M11.22,29.72q-.34-.32-.45-.32c-.06,0-.14.07-.24.21l-.31.4H7V28.25h3c.16,0,.24-.06.24-.19s-.12-.19-.36-.41-.36-.29-.42-.29-.15.06-.26.19-.19.24-.29.36H7V26.42h3.44c.13,0,.2-.07.2-.21s-.13-.19-.4-.44-.34-.31-.41-.31-.18.11-.32.34l-.22.26H7v-.94c0-.12.08-.19.24-.24s.31-.13.31-.2-.1-.15-.31-.19l-.87-.16a13,13,0,0,1,.09,1.73H4.17q.14-.29.29-.63a.65.65,0,0,1,.46-.25c.17,0,.25-.06.25-.11S5.11,25,5,24.92l-.87-.35a10.24,10.24,0,0,1-.81,2.11,6.72,6.72,0,0,1-1.23,1.67l.1.16a7,7,0,0,0,1.28-1.29,5.72,5.72,0,0,0,.51-.8H6.45v1.49H4.85a5.4,5.4,0,0,1-1.28-.11l.2.55a3.93,3.93,0,0,1,1.08-.1H6.45V30H3.36a5.5,5.5,0,0,1-1.28-.11l.19.55a4.08,4.08,0,0,1,1.09-.1h8q.26,0,.26-.19S11.49,30,11.22,29.72Z"/><path d="M6,20.39q.24.26.37.26c.16,0,.24-.14.24-.41a.47.47,0,0,0-.25-.36,6.46,6.46,0,0,0-1.68-.58l-.11.16A4.07,4.07,0,0,1,6,20.39Z"/><path d="M11.53,23.87s-.13-.19-.4-.45-.35-.29-.41-.29-.17.1-.32.31l-.22.29H2.09a5.19,5.19,0,0,0-.77-.5,4.9,4.9,0,0,1,.16,1.33,13.61,13.61,0,0,1-.31,3.59,6.24,6.24,0,0,1-1,2.23l.2.1a6.16,6.16,0,0,0,1.32-2.26A11.44,11.44,0,0,0,2,24.57v-.5h9.29C11.46,24.07,11.53,24,11.53,23.87Z"/><path d="M2.13,21.2H7.84a13.42,13.42,0,0,1-1.49.93,18.74,18.74,0,0,0-2.88-.58l0,.2a22.18,22.18,0,0,1,2.47.6l-.4.16a16.16,16.16,0,0,1-2.91.87l0,.2A18.26,18.26,0,0,0,6,22.71a2.42,2.42,0,0,0,.41-.17l.27.12a9.34,9.34,0,0,1,1.59.75.85.85,0,0,0,.45.17c.1,0,.15-.1.16-.24a.81.81,0,0,0-.5-.5,8.8,8.8,0,0,0-1.47-.55,10.46,10.46,0,0,0,1.26-.7l.4,0,.1,0a.22.22,0,0,0-.12-.2l-.29-.2h2.41c.16,0,.24-.07.24-.2s-.13-.19-.39-.44-.38-.32-.45-.32-.15.07-.26.21a3.52,3.52,0,0,1-.29.39H2.13a6.3,6.3,0,0,1-1.31-.1l.21.55A4.47,4.47,0,0,1,2.13,21.2Z"/><path d="M23.32,25.23s-.14.07-.27.21l-.17.17h-2.8a2.29,2.29,0,0,0-.75-.45,4.68,4.68,0,0,1,.16,1.26v3.13l-.06.73c0,.17.05.26.16.26a.65.65,0,0,0,.22-.06c.18,0,.27-.1.27-.2l0-.68H23v.63q0,.2.26.2l.16,0c.12,0,.17-.09.17-.15q-.05-1.85,0-3.92c0-.06.07-.13.21-.21S24,26,24,25.93s-.09-.18-.26-.37S23.38,25.23,23.32,25.23Zm-.36,4H20V26H23Z"/><path d="M17.29,25.23s-.13.07-.26.21l-.17.17H14.34a2.19,2.19,0,0,0-.72-.45,5.06,5.06,0,0,1,.15,1.26v3.18l0,.73q0,.26.15.26l.22,0c.18,0,.27-.11.27-.21l0-.73H17v.6c0,.12.08.19.24.19l.17,0c.12,0,.17-.09.17-.14q-.05-1.84,0-3.88c0-.06.06-.13.17-.21S18,26,18,25.93s-.09-.18-.27-.37S17.36,25.23,17.29,25.23Zm-.24,4H14.31V26H17Z"/><path d="M15.86,23.58l0,.76c0,.16,0,.24.15.24l.22,0c.18,0,.27-.11.27-.2l0-.55h4.45v.6q0,.19.26.19l.16,0c.12,0,.17-.09.17-.14q-.05-1.6,0-3.38c0-.06.07-.13.21-.21s.29-.14.29-.19-.09-.18-.26-.37-.36-.32-.42-.32-.14.07-.27.21-.17.17-.19.17H16.43a2.16,2.16,0,0,0-.73-.45,4.68,4.68,0,0,1,.16,1.26Zm.55-2.92h4.46v2.77H16.4Z"/><path d="M33,21.69s.12-.06.32-.07.16-.05.16-.11-.08-.09-.25-.15l-.61-.25a5,5,0,0,1-1.24,1.69A7.19,7.19,0,0,1,29.08,24l0,.16a8,8,0,0,0,2.11-.85,6.37,6.37,0,0,0,1.59-1.48,5.87,5.87,0,0,0,1.9,1.88,6.18,6.18,0,0,0,1.49.78s.09,0,.15-.12a.84.84,0,0,1,.61-.16V24a11.12,11.12,0,0,1-2.47-.92A5.2,5.2,0,0,1,33,21.69Z"/><path d="M28,21.2c.14.23.25.35.32.35s.25-.12.26-.35a.8.8,0,0,0-.25-.56,4.6,4.6,0,0,0-1.55-.9l-.1.16A4.23,4.23,0,0,1,28,21.2Z"/><path d="M35,24.88c.17-.09.25-.16.25-.2s-.09-.18-.26-.36-.37-.35-.44-.35-.13.06-.26.19-.17.17-.19.17H28.77a2.54,2.54,0,0,0-.73-.46,4.91,4.91,0,0,1,.15,1.24V28.2l0,.76c0,.16,0,.24.14.24l.25,0c.17,0,.25-.11.25-.2l0-.31h5.56v.2c0,.14.08.21.25.21l.15,0c.13,0,.2-.1.2-.16q-.05-1.79,0-3.78S34.91,25,35,24.88Zm-.73,3.42H28.72V27.21h5.58Zm0-1.43H28.72v-.94h5.58Zm0-1.31H28.72v-.88h5.58Z"/><path d="M30.63,29.26l-.81-.36a8.34,8.34,0,0,1-3.63,1.65l.1.15a18.52,18.52,0,0,0,3.79-1.14h.55c.13,0,.2,0,.2-.1S30.76,29.32,30.63,29.26Z"/><path d="M35.49,29.93A12.6,12.6,0,0,0,32.37,29l0,.19a14.57,14.57,0,0,1,2.57,1.08,2.66,2.66,0,0,0,.71.37c.16,0,.24-.09.24-.26A.7.7,0,0,0,35.49,29.93Z"/><path d="M26.5,24.12c.07,0,.1-.1.1-.29s.21-.32.62-.56a16.92,16.92,0,0,0,2.65-2.13L29.78,21a16.63,16.63,0,0,1-2.52,1.72,5.3,5.3,0,0,1-1.31.52l.29.61Q26.36,24.12,26.5,24.12Z"/><path d="M29.42,22.48a5.45,5.45,0,0,0,1.14-1,3.22,3.22,0,0,0,.35-.45h4.77q-.36.46-.9,1l.21.1a6.71,6.71,0,0,0,1.14-.81.86.86,0,0,1,.35-.09q.34,0,.34-.1t-.32-.48q-.32-.32-.51-.32a.37.37,0,0,0-.15.09,1.87,1.87,0,0,1-.25.21H31.14c.11-.17.22-.37.32-.58s.2-.17.44-.2.21-.07.21-.11,0-.11-.15-.16l-.78-.34a7.79,7.79,0,0,1-.71,1.7,5.45,5.45,0,0,1-1.09,1.33Z"/><path d="M40.61,21.1a.33.33,0,0,0,.31.24.31.31,0,0,0,.22-.12.7.7,0,0,0,.07-.37,1.15,1.15,0,0,0-.3-.61,5.77,5.77,0,0,0-1.06-.93l-.14.16a4.92,4.92,0,0,1,.55.76A5.76,5.76,0,0,1,40.61,21.1Z"/><path d="M42.39,26.52c-.2-.17-.33-.25-.39-.25s-.08.05-.17.16l-.17.17h-2a2.89,2.89,0,0,0-.7-.4,4.68,4.68,0,0,1,.16,1.26v2.09l-.06.73c0,.17.05.26.16.26a.65.65,0,0,0,.22-.06c.18,0,.27-.1.27-.2l0-.68h2.13a3.68,3.68,0,0,1,0,.63c0,.17.05.25.16.25l.24,0c.14,0,.21-.11.21-.21q-.05-.65,0-1.09V27.21s.07-.1.2-.19.19-.14.19-.2S42.56,26.66,42.39,26.52Zm-.62,2.72H39.63V27h2.14Z"/><path d="M49.66,29.3a21.21,21.21,0,0,1,.21-2.19h-.21q-.11.81-.24,1.45c-.09.42-.16.63-.2.63s-.26-.35-.45-1A13.11,13.11,0,0,1,48.23,24q-.05-1.28,0-2.87,0-.16.26-.31c.16-.1.24-.16.24-.19s-.11-.24-.34-.42a1,1,0,0,0-.42-.22s-.1,0-.15.11l-.25.34H44.79A7.21,7.21,0,0,1,43,20.29l.19.6a9.53,9.53,0,0,1,1.59-.1h2.9q0,2.06,0,3.23a13.72,13.72,0,0,0,.5,4.11A5.7,5.7,0,0,0,49,30c.26.3.49.45.68.45s.15-.08.15-.24a.94.94,0,0,0-.11-.35A1.28,1.28,0,0,1,49.66,29.3Z"/><path d="M47.22,24.45q-.3-.26-.4-.26s-.12.05-.22.16a3.45,3.45,0,0,1-.27.34h-.94V22c0-.08.06-.14.17-.19s.22-.09.22-.15,0-.09-.11-.12l-.88-.19a11.87,11.87,0,0,1,0,1.19v2.15h-.6A5.5,5.5,0,0,1,43,24.57l.19.55a4.08,4.08,0,0,1,1.09-.1h.6v3.49q-.05.8,0,1.49c0,.19,0,.29.1.29a1,1,0,0,0,.27,0q.22,0,.22-.15V25h1.94q.26,0,.26-.19S47.46,24.66,47.22,24.45Z"/><path d="M42.32,23c-.19-.17-.31-.25-.36-.25s-.12,0-.21.15l-.25.3H40a6.14,6.14,0,0,1-1.28-.1l.19.55A3.65,3.65,0,0,1,40,23.53h2.45a.16.16,0,0,0,.19-.19S42.54,23.18,42.32,23Z"/><path d="M42.32,24.68c-.19-.17-.31-.26-.36-.26s-.12.05-.21.16a2.21,2.21,0,0,1-.25.3H40.06a6.16,6.16,0,0,1-1.28-.1l.19.55a4.07,4.07,0,0,1,1.09-.1h2.4c.12,0,.19-.07.19-.21S42.54,24.87,42.32,24.68Z"/><path d="M43,21.84c.16,0,.24-.06.24-.19s-.12-.17-.35-.39-.33-.26-.39-.26-.14.05-.24.16a3.46,3.46,0,0,1-.27.34H39.51a5.5,5.5,0,0,1-1.28-.11l.19.55a4.08,4.08,0,0,1,1.09-.1Z"/></svg>