<svg id="圖層_1" data-name="圖層 1" xmlns="http://www.w3.org/2000/svg" viewBox="0 0 50 50"><title>navigation01</title><path d="M22.93,25.21q-.08,0-.27.21l-.17.17H19.67a2.3,2.3,0,0,0-.75-.45,4.72,4.72,0,0,1,.16,1.26v3.15l-.06.74q0,.26.16.26a.65.65,0,0,0,.22-.06q.27,0,.27-.2l0-.69h2.93v.64q0,.2.26.2l.16,0c.12,0,.17-.09.17-.15q0-1.86,0-3.93c0-.06.07-.13.21-.21s.29-.15.29-.19-.09-.18-.26-.37S23,25.21,22.93,25.21Zm-.36,4H19.63V26h2.93Z"/><path d="M16.87,25.21s-.13.07-.26.21l-.17.17H13.91a2.2,2.2,0,0,0-.72-.45,5.09,5.09,0,0,1,.15,1.26v3.2l-.05.74q0,.26.15.26l.22,0q.27-.06.27-.21l0-.74h2.75v.6q0,.19.24.19l.17,0c.12,0,.17-.09.17-.14q0-1.85-.05-3.9c0-.06.06-.13.17-.21s.24-.15.24-.19-.09-.18-.27-.37S16.95,25.21,16.87,25.21Zm-.24,4H13.89V26h2.75Z"/><path d="M15.44,23.55l0,.76c0,.16,0,.24.15.24l.22,0c.18,0,.27-.11.27-.2l0-.55h4.47v.6q0,.19.26.19l.16-.05c.12,0,.17-.09.17-.14q0-1.61,0-3.4c0-.06.07-.13.21-.21s.29-.15.29-.19-.09-.18-.26-.37-.37-.32-.42-.32-.14.07-.27.21-.17.17-.19.17H16a2.17,2.17,0,0,0-.74-.45,4.73,4.73,0,0,1,.16,1.26ZM16,20.61h4.48V23.4H16Z"/><path d="M36.42,27.09q-.31-.29-.42-.29c-.06,0-.14.06-.24.19a3.17,3.17,0,0,1-.31.36h-1.7v-1.1q0-.14.26-.22t.29-.17T34,25.67l-.95-.17a3.36,3.36,0,0,1,.14,1.15v.71H30.27A5.76,5.76,0,0,1,29,27.24l.21.55a3.93,3.93,0,0,1,1.1-.1H33.2v1.77q0,.51-.05,1,0,.26.15.26l.16,0q.29-.07.29-.29v-2.7h2.8q.26,0,.26-.19T36.42,27.09Z"/><path d="M28.81,26q.25-.12.25-.19s-.08-.16-.24-.32-.35-.27-.41-.27-.12.06-.22.17-.16.16-.17.16H26.66q0-.45,0-1V23.45h2.93q.21,0,.21-.19s-.1-.15-.3-.34-.26-.21-.3-.21-.14.07-.25.2l-.15.2h-.36v-3q0-.16.22-.22T29,19.7c0-.08-.1-.14-.29-.16l-.81-.17A10.41,10.41,0,0,1,28,21v2.1H26.67V20.2q0-.16.36-.27c.12,0,.19-.09.19-.17s-.09-.1-.27-.14L26,19.36a11.15,11.15,0,0,1,.1,1.65v3.6A23.74,23.74,0,0,1,26,27.29a10.7,10.7,0,0,1-.39,1.82A5.2,5.2,0,0,1,25,30.44l.14.16A6.27,6.27,0,0,0,26,29.05a7.68,7.68,0,0,0,.49-1.79q.09-.57.14-1.31h1.47v4.48c0,.14.08.21.24.21l.14,0c.12,0,.17-.1.17-.16q-.06-2-.06-4.18C28.61,26.2,28.68,26.13,28.81,26Z"/><path d="M30.16,24.66l-.05.65c0,.16.05.24.16.24l.21,0c.15,0,.22-.11.22-.2l0-.31h1.5a3.15,3.15,0,0,1-.6.81A5.32,5.32,0,0,1,29.77,27l.15.14a5.8,5.8,0,0,0,2-1.22,3.41,3.41,0,0,0,.72-.92H35.4v.41q0,.19.26.19l.14,0q.15-.06.15-.14,0-1.85,0-3.9c0-.06.07-.13.2-.21s.25-.15.25-.19-.08-.16-.24-.32-.34-.27-.4-.27-.12.06-.25.17-.15.16-.16.16h-3a5.22,5.22,0,0,0,.81-1,.63.63,0,0,1,.24-.07c.14,0,.21-.05.21-.09s-.08-.13-.24-.19l-.66-.21a3.8,3.8,0,0,1-.6,1.55H30.69a2,2,0,0,0-.64-.34,6.13,6.13,0,0,1,.1,1.15Zm3-3.46h2.2v1.51H33.2Zm-.34,3.33a4.59,4.59,0,0,0,.32-1.47H35.4v1.6H32.82ZM30.66,21.2h2v1.51h-2Zm0,1.86h2a4.87,4.87,0,0,1-.27,1.41l-.07.19H30.66Z"/></svg>