<svg id="圖層_1" data-name="圖層 1" xmlns="http://www.w3.org/2000/svg" viewBox="0 0 50 50"><title>navigation03</title><path d="M2.72,27.12a14.61,14.61,0,0,1,.16,1.6,3.49,3.49,0,0,1-.16.94c0,.12.07.19.21.19s.16-.08.3-.25a1.09,1.09,0,0,0,.2-.68,10,10,0,0,0-.54-1.84Z"/><path d="M4.56,26.29a.18.18,0,0,0,.19.2A.27.27,0,0,0,5,26.37.58.58,0,0,0,5.11,26a1.32,1.32,0,0,0-.27-.59,4.32,4.32,0,0,0-.87-1l-.16,0a4.51,4.51,0,0,1,.57,1q-1.55.16-2.59.17A25.81,25.81,0,0,0,4.7,22.18.36.36,0,0,1,5.06,22c.19,0,.28,0,.28-.1s-.09-.14-.26-.21l-.62-.33a9.44,9.44,0,0,1-.76,1.5q-1,0-2.07,0a17.17,17.17,0,0,0,1.83-2.67s.13-.06.32-.06.31,0,.31-.12-.06-.15-.19-.2l-.85-.3a9.36,9.36,0,0,1-.8,2.08,9.77,9.77,0,0,1-.78,1.27,2.79,2.79,0,0,1-.63,0,4.19,4.19,0,0,1,.15.53c0,.18.08.27.14.27s.11-.09.16-.26l0,0s.15-.07.41-.07.94-.12,1.88-.27a4.8,4.8,0,0,1-.45.62,18.69,18.69,0,0,1-1.68,2l-.73,0a5.4,5.4,0,0,0,.24.73c0,.12.1.17.15.17s.12-.07.16-.2l0,0q.06-.11.67-.16a18.83,18.83,0,0,0,2.45-.45A2.27,2.27,0,0,1,4.56,26.29Z"/><path d="M1.35,28.74a2.81,2.81,0,0,1-.58.87.79.79,0,0,0-.27.45c0,.11.11.17.31.19a.69.69,0,0,0,.41-.2,1.63,1.63,0,0,0,.42-.76,6.38,6.38,0,0,0,.21-2H1.58A3.79,3.79,0,0,1,1.35,28.74Z"/><path d="M11.35,21.64a.12.12,0,0,0,.1,0q0-.12-.22-.24c-.16-.09-.4-.21-.73-.36a9.68,9.68,0,0,1-1.13,2.56,10.05,10.05,0,0,1,1.44,2.13q.1.16.19.16.26,0,.26-.26a1.4,1.4,0,0,0-.17-.67,6.46,6.46,0,0,0-1.41-1.36,9.69,9.69,0,0,0,1.19-2Z"/><path d="M6.38,20.5h5.06c.16,0,.24-.07.24-.21s-.13-.18-.38-.42-.38-.31-.45-.31-.15.07-.26.2a4.74,4.74,0,0,1-.28.4H6.38a6.12,6.12,0,0,1-1.27-.1l.19.54A4.07,4.07,0,0,1,6.38,20.5Z"/><path d="M4.86,29.21A.68.68,0,0,0,5,28.76,2.17,2.17,0,0,0,4.76,28,6.11,6.11,0,0,0,4,26.73l-.16.06a6.1,6.1,0,0,1,.61,2.33c0,.16.07.24.2.24A.3.3,0,0,0,4.86,29.21Z"/><path d="M9.32,21.59a.09.09,0,0,0,.09,0c0-.08-.07-.16-.21-.24s-.4-.21-.73-.37a10.17,10.17,0,0,1-1.09,2.69A10.39,10.39,0,0,1,8.46,25.9a.27.27,0,0,0,.21.14c.16,0,.24-.09.24-.24a2.14,2.14,0,0,0-.12-.73,6.43,6.43,0,0,0-1.1-1.45,11.22,11.22,0,0,0,1.14-2.08Z"/><path d="M7.24,21.59a.09.09,0,0,0,.09,0c0-.08-.07-.16-.21-.24s-.4-.21-.73-.37a10.13,10.13,0,0,1-1.14,2.69,10.65,10.65,0,0,1,1.09,2.33.27.27,0,0,0,.21.14c.16,0,.24-.09.24-.24a2.22,2.22,0,0,0-.12-.76,6.4,6.4,0,0,0-1.1-1.47,11,11,0,0,0,1.18-2.08Z"/><path d="M11.53,29.43q-.33-.31-.45-.31c-.06,0-.14.07-.24.2a2.34,2.34,0,0,1-.31.38H8.46V27H11c.17,0,.26-.07.26-.2s-.12-.18-.37-.4-.37-.31-.43-.31-.14.07-.24.2a4.07,4.07,0,0,1-.31.35H6.59a6.28,6.28,0,0,1-1.3-.1l.21.54A4.46,4.46,0,0,1,6.59,27H7.92V29.7H5.84a7,7,0,0,1-1.27-.09l.19.54a4.06,4.06,0,0,1,1.09-.1h5.84q.26,0,.26-.21S11.81,29.66,11.53,29.43Z"/><path d="M24.23,26.73q-.31-.29-.42-.28c-.06,0-.14.06-.24.17a2.66,2.66,0,0,1-.31.37h-.45V22.13a.23.23,0,0,1,.19-.22c.21-.08.31-.14.31-.17s-.07-.15-.22-.31-.36-.28-.42-.28a.24.24,0,0,0-.15.09l-.25.31H20.21V20.15c0-.11.07-.18.21-.22s.27-.13.27-.19-.1-.14-.28-.16l-.8-.17A9.2,9.2,0,0,1,19.71,21v.5h-2V20.15c0-.11.07-.18.2-.22s.3-.13.3-.19-.1-.14-.3-.16l-.79-.17a10.39,10.39,0,0,1,.1,1.63v.5H15.33a1.85,1.85,0,0,0-.72-.45q.09,1,.09,2.27V27h-.4a6.13,6.13,0,0,1-1.27-.1l.19.54a4.06,4.06,0,0,1,1.09-.1H24.36q.26,0,.26-.21S24.49,26.95,24.23,26.73Zm-7,.26h-2V24.4h2Zm0-2.93h-2V21.87h2ZM19.71,27h-2V24.4h2Zm0-2.93h-2V21.87h2ZM22.34,27H20.21V24.4h2.13Zm0-2.93H20.21V21.87h2.13Z"/><path d="M19.91,27.93l-.1.15A10.86,10.86,0,0,1,22.54,30q.48.53.73.53t.26-.4a.86.86,0,0,0-.37-.58A13.88,13.88,0,0,0,19.91,27.93Z"/><path d="M17.62,28.27l-.79-.4a4,4,0,0,1-1.26,1.26,10.77,10.77,0,0,1-2.3,1.2l.11.21A12.15,12.15,0,0,0,17,28.71s.22-.07.62-.07c.11,0,.16-.06.16-.11S17.76,28.36,17.62,28.27Z"/><path d="M31.42,20.39c.13.17.24.26.31.26s.25-.12.26-.36a.5.5,0,0,0-.24-.37,4.52,4.52,0,0,0-1.45-.62l-.11.16A3.49,3.49,0,0,1,31.42,20.39Z"/><path d="M33.28,27.93a3.75,3.75,0,0,1-.9-.85H36.8c.16,0,.24-.06.24-.19s-.13-.19-.38-.43-.38-.32-.45-.32-.15.07-.26.21-.19.26-.28.38H31.84v-.43a.21.21,0,0,1,.16-.2q.22-.07.22-.15s0-.09-.12-.12l-.87-.19a8.17,8.17,0,0,1,.06,1.09H27.14a6.28,6.28,0,0,1-1.3-.1l.21.54a3.89,3.89,0,0,1,1.09-.1h3.64a8,8,0,0,1-2,1.6,13.43,13.43,0,0,1-2.91,1.23l0,.16a14.82,14.82,0,0,0,3.22-1.3,9,9,0,0,0,2.19-1.62v1.78q-.06.79-.06,1.47c0,.21,0,.31.11.31a1,1,0,0,0,.26,0c.16,0,.24-.09.24-.16V27.07h.21a4.9,4.9,0,0,0,1,1.19,6.64,6.64,0,0,0,1.15.77,6.36,6.36,0,0,0,1.31.63,4.14,4.14,0,0,0,.89.3.85.85,0,0,0,.2-.15.91.91,0,0,1,.66-.2v-.26a11,11,0,0,1-2.35-.62A11.13,11.13,0,0,1,33.28,27.93Z"/><path d="M26.55,22.37a.56.56,0,0,0,.33-.15,1.08,1.08,0,0,0,.37-.57,2.06,2.06,0,0,0,.12-.56H36a10.39,10.39,0,0,1-.46,1c-.13-.12-.23-.19-.28-.19s-.12.06-.22.17a2.59,2.59,0,0,1-.27.32h-4l.42-.5c0-.06.09-.09.21-.11s.28-.07.28-.12-.09-.12-.27-.17a3.27,3.27,0,0,0-.62-.19,4.71,4.71,0,0,1-.61,1.09H28.47a6.12,6.12,0,0,1-1.27-.1l.19.54a4.64,4.64,0,0,1,1.09-.09h1.42q-.53.69-1.37,1.62a.13.13,0,0,0,.07.12.28.28,0,0,0,.19.07.25.25,0,0,0,.19-.1l.48-.57a22.94,22.94,0,0,1,2.3.59,6.52,6.52,0,0,1-1.94.89,13.33,13.33,0,0,1-3.06.53l.09.19a14.14,14.14,0,0,0,3.3-.56,7.79,7.79,0,0,0,2.07-.88l.74.31a9,9,0,0,1,1.77.93.92.92,0,0,0,.5.2c.08,0,.13-.09.14-.24a.9.9,0,0,0-.53-.59,10.64,10.64,0,0,0-2-.79l-.25-.07a4.74,4.74,0,0,0,1.34-1.66h1.84c.16,0,.24-.07.24-.2s-.11-.17-.32-.35l.82-.9.35-.06c.24,0,.36-.06.36-.12s-.12-.21-.36-.42a1.06,1.06,0,0,0-.5-.27.77.77,0,0,0-.19.14.39.39,0,0,1-.16.15H27.41c0-.17,0-.36,0-.58h-.28a2.28,2.28,0,0,1-.22,1,1.76,1.76,0,0,1-.5.62q-.22.22-.22.33C26.21,22.28,26.32,22.35,26.55,22.37Zm5.53,1.92a20.55,20.55,0,0,0-2.49-.53l.83-1h2.85A4.44,4.44,0,0,1,32.08,24.29Z"/><path d="M49.21,19.78l-.74-.14a12.38,12.38,0,0,1,0,1.29v8.42c0,.14-.08.21-.24.21a14.92,14.92,0,0,1-1.79-.1v.15q1.26.16,1.36.51c0,.18.08.27.12.27a1.2,1.2,0,0,0,.76-.33.93.93,0,0,0,.28-.71V20.29c0-.07.06-.12.19-.16s.31-.12.31-.17S49.41,19.82,49.21,19.78Z"/><path d="M40.44,22.34l-.14,0a20.81,20.81,0,0,0,.76-2.05q.09-.19.48-.25c.16,0,.25-.09.25-.15s-.06-.12-.19-.17l-1-.37a18.52,18.52,0,0,1-.9,3.18A10.22,10.22,0,0,1,38.33,25l.09.15a9.92,9.92,0,0,0,1.4-1.87v5.79q0,.42,0,1.32c0,.14.08.21.24.21a.46.46,0,0,0,.24-.07c.12,0,.17-.08.17-.14q-.05-.66,0-1.32V22.78c0-.06,0-.1.11-.12s.17-.07.17-.14S40.57,22.39,40.44,22.34Z"/><path d="M46.54,27l0,.54c0,.07.05.1.16.1l.26-.07c.12,0,.17-.1.17-.16V21.49c0-.08.08-.14.25-.16s.2-.12.2-.19-.12-.11-.36-.15l-.73-.21a4.3,4.3,0,0,1,.1.9Z"/><path d="M45.89,20c-.2-.19-.33-.28-.4-.28s-.13.06-.22.17a1.64,1.64,0,0,1-.27.32H42.87a7.23,7.23,0,0,1-1.29-.09l.2.53a4.64,4.64,0,0,1,1.09-.09h.31A16.24,16.24,0,0,1,42.3,24a6.86,6.86,0,0,1-1.56,2.19l.11.16a6.68,6.68,0,0,0,1.32-1.44,3.26,3.26,0,0,1,1,1.06q.2.32.31.32c.16,0,.24-.12.24-.35a.73.73,0,0,0-.22-.51,3.88,3.88,0,0,0-1.25-.71,5.71,5.71,0,0,0,.38-.66A9.11,9.11,0,0,0,43.11,23h1.75a12.82,12.82,0,0,1-1.18,3.87A12.14,12.14,0,0,1,41,30.19l.1.1a10.79,10.79,0,0,0,2.7-2.62,14.26,14.26,0,0,0,1.65-4.44c0-.08.07-.14.2-.17s.21-.09.21-.14-.09-.2-.27-.35-.35-.3-.42-.3-.12,0-.19.14l-.17.27H43.22a20.3,20.3,0,0,0,.51-2.08H46q.26,0,.26-.21S46.13,20.23,45.89,20Z"/></svg>