<svg id="圖層_1" data-name="圖層 1" xmlns="http://www.w3.org/2000/svg" viewBox="0 0 50 50"><title>navigation08</title><path d="M8.09,24.21l.27-.07q.19-.06.19-.14s0-.09-.16-.12l-.64-.21A5.87,5.87,0,0,1,7.1,25.3l.1.1A7,7,0,0,0,8.09,24.21Z"/><path d="M4.08,25.09a.31.31,0,0,0,.26.21.27.27,0,0,0,.19-.11.91.91,0,0,0,0-.33.84.84,0,0,0-.2-.46,3.76,3.76,0,0,0-.73-.68l-.11.14a3.12,3.12,0,0,1,.33.58A3.44,3.44,0,0,1,4.08,25.09Z"/><path d="M9.58,22.82s-.12.05-.25.16-.14.15-.16.15H2.59a2,2,0,0,0-.64-.35,5.38,5.38,0,0,1,.11,1.13v1.63L2,26.18c0,.17.05.26.16.26a.67.67,0,0,0,.2,0c.16,0,.25-.11.25-.21v-.24H9.32v.3c0,.1.07.15.21.15l.12,0c.11,0,.16-.09.16-.16q-.05-1.18,0-2.46s0-.11.15-.19.21-.13.21-.17-.07-.12-.22-.27S9.63,22.82,9.58,22.82ZM5.66,25.59H2.55V23.46H5.66Zm3.66,0H6.15V23.46H9.32Z"/><path d="M9.22,26.78c-.2-.19-.33-.28-.4-.28s-.12.06-.22.17l-.16.17h-5a1.77,1.77,0,0,0-.62-.35,6.83,6.83,0,0,1,.09,1.13V29.8l0,.64q0,.26.15.26l.22,0q.22-.06.22-.21l0-.33H8.54v.4c0,.13.08.2.24.2l.15,0c.11,0,.16-.09.16-.15q-.05-1.44,0-3s.06-.12.17-.21.27-.16.27-.2S9.4,26.93,9.22,26.78Zm-.68,3H3.38V28.57H8.54Zm0-1.53H3.38v-1H8.54Z"/><path d="M7.69,22.32c.14,0,.21-.06.21-.19s-.12-.17-.36-.38-.33-.26-.4-.26-.12.05-.2.16A2.4,2.4,0,0,1,6.7,22H5.38a6.28,6.28,0,0,1-1.3-.1l.21.54a3.89,3.89,0,0,1,1.09-.1Z"/><path d="M6.3,19.91l.3,0c.14,0,.21-.06.21-.14s0-.11-.14-.12q-.52-.16-1-.32a9,9,0,0,1-2,2.1A22.88,22.88,0,0,1,.21,23.32l.1.14A17.61,17.61,0,0,0,3.7,21.81,12,12,0,0,0,6,20l.06,0a6.16,6.16,0,0,0,1.49,1.37,13.4,13.4,0,0,0,2,1.16,4.46,4.46,0,0,0,1.31.5s.07,0,.14-.14a1.36,1.36,0,0,1,.8-.15v-.21a12.58,12.58,0,0,1-3.23-1A9.12,9.12,0,0,1,6.3,19.91Z"/><path d="M14.88,27.83l0,.74c0,.16,0,.24.14.24l.24,0c.18,0,.27-.11.27-.2l0-.46h6.66v.41c0,.12.08.19.24.19l.16,0c.13,0,.2-.09.2-.14q-.05-2.14,0-4.52s.05-.11.16-.19.22-.16.22-.2-.09-.18-.26-.36-.37-.35-.43-.35-.13.08-.26.25-.17.2-.19.2H15.45a2.08,2.08,0,0,0-.72-.45,5,5,0,0,1,.15,1.25Zm.54-4.11h6.68v1.09H15.43Zm0,1.42h6.68v1.1H15.43Zm0,1.44h6.68v1.19H15.43Z"/><path d="M23.24,29.78a14.29,14.29,0,0,0-3.6-1.13l0,.2a15.61,15.61,0,0,1,3,1.31,3.26,3.26,0,0,0,.83.43c.16,0,.24-.09.24-.26A.89.89,0,0,0,23.24,29.78Z"/><path d="M15.56,21.83l0,.76q0,.23.15.24l.25,0c.16,0,.25-.11.25-.2l0-.31H21.4v.36q0,.19.26.19l.15,0q.19-.06.19-.15-.05-.89,0-1.89s.07-.1.2-.19.25-.17.25-.21-.09-.17-.26-.35-.36-.35-.42-.35-.14.08-.27.24a1.58,1.58,0,0,1-.17.22H16.16a2.31,2.31,0,0,0-.73-.46,5.34,5.34,0,0,1,.14,1.24Zm.54-1.37h5.3v1.47h-5.3Z"/><path d="M16.65,28.57a5.15,5.15,0,0,1-1.32,1,17,17,0,0,1-2.29,1l0,.15a18,18,0,0,0,2.3-.73A8.72,8.72,0,0,0,17,29.15a1.24,1.24,0,0,1,.56-.06c.12,0,.17,0,.17-.12a.11.11,0,0,0-.11-.12Z"/><path d="M28.39,22.68a.28.28,0,0,0,.21-.11.91.91,0,0,0,0-.33,1,1,0,0,0-.28-.57,5.08,5.08,0,0,0-1-.88l-.1.15a4,4,0,0,1,.56.73,3.74,3.74,0,0,1,.35.8A.28.28,0,0,0,28.39,22.68Z"/><path d="M29.23,27.83l-.09.15a4.56,4.56,0,0,1,.4.62,3.85,3.85,0,0,1,.24.71.31.31,0,0,0,.26.21.27.27,0,0,0,.2-.12,1.07,1.07,0,0,0,0-.32.89.89,0,0,0-.21-.5A4.58,4.58,0,0,0,29.23,27.83Z"/><path d="M36,29.45q-.37-.33-.48-.33c-.06,0-.14.07-.26.21a2.87,2.87,0,0,1-.32.42H32.15a8.59,8.59,0,0,0,.94-1.18s.14-.07.33-.07.32,0,.32-.12-.07-.15-.2-.2l-.84-.3A6.59,6.59,0,0,1,32.32,29a4.58,4.58,0,0,1-.38.71H27.3A7,7,0,0,1,26,29.66l.19.53a4.64,4.64,0,0,1,1.09-.09h8.91q.26,0,.26-.21S36.33,29.7,36,29.45Z"/><path d="M33.77,22.82a9.09,9.09,0,0,0,1.84-1.08l.41,0c.06,0,.09,0,.09,0a.19.19,0,0,0-.12-.17l-.66-.47a4.11,4.11,0,0,1-1.73,1.58,10.38,10.38,0,0,1-1-1,8,8,0,0,0,1.72-1.06l.38,0c.11,0,.16,0,.16-.1s-.05-.14-.16-.19L34,19.84a3.9,3.9,0,0,1-1.49,1.67,9.36,9.36,0,0,1-.66-.9c.21,0,.32-.07.32-.16a1.54,1.54,0,0,0-.35-.52c-.25-.25-.41-.37-.5-.37s-.14.06-.22.17l-.24.32H28.65q-1.3,0-2-.1l.26.54a9.57,9.57,0,0,1,1.73-.11h2.27a16.46,16.46,0,0,1-2.57,3,20.24,20.24,0,0,1-2.82,2l.15.14a15.92,15.92,0,0,0,5.69-4.8s.13-.08.28-.1a8.61,8.61,0,0,0,1.41,2,14.58,14.58,0,0,0,2,1.75,3.5,3.5,0,0,0,1.29.74s.07,0,.12-.11a1.26,1.26,0,0,1,.72-.12v-.2A9.48,9.48,0,0,1,34,23Z"/><path d="M33,23.72a.19.19,0,0,0,.21-.21s-.11-.14-.33-.33-.31-.26-.37-.26-.12.05-.2.16a1.68,1.68,0,0,1-.25.28H30.63a7.19,7.19,0,0,1-1.3-.09l.21.54a3.89,3.89,0,0,1,1.09-.1Z"/><path d="M28.34,24.6a5.5,5.5,0,0,1,.11,1.15v1.32l-.06.64c0,.17.05.26.16.26a.67.67,0,0,0,.2,0c.16,0,.25-.11.25-.21l0-.33h4.62v.28q0,.21.26.21l.12,0c.11,0,.16-.1.16-.16q0-1,0-2.08s.07-.11.2-.19.25-.16.25-.2-.08-.15-.24-.31-.34-.3-.4-.3-.12.06-.25.19-.14.16-.16.16H29A2.23,2.23,0,0,0,28.34,24.6Zm5.25.71V27H28.93V25.3Z"/><path d="M46.65,27.58a10.49,10.49,0,0,1-1.77-3.34,9.94,9.94,0,0,1-.5-3.14q0-.1.33-.25c.21-.08.31-.15.31-.2s-.13-.22-.38-.42a.94.94,0,0,0-.47-.27s-.11,0-.19.14a1.72,1.72,0,0,1-.25.25H42.26a13.12,13.12,0,0,1-1.63-.1l.2.54a11,11,0,0,1,1.44-.1H44q0,.71.07,1.37a20.32,20.32,0,0,1-1.45,3.59A10.72,10.72,0,0,1,41,27.94a12.16,12.16,0,0,1-2.78,2.35l.1.26a12.64,12.64,0,0,0,2.86-2.07,9.77,9.77,0,0,0,1.65-2,17.17,17.17,0,0,0,1.44-3,10.88,10.88,0,0,0,.3,1.13,10.37,10.37,0,0,0,1.15,2.62,11.47,11.47,0,0,0,2,2.34q.77.74,1,.74s.1-.05.21-.16a1.69,1.69,0,0,1,.83-.17l0-.21A8.23,8.23,0,0,1,46.65,27.58Z"/></svg>