<svg id="圖層_1" data-name="圖層 1" xmlns="http://www.w3.org/2000/svg" viewBox="0 0 50 50"><title>navigation02</title><path d="M11.31,23.56q-.37-.33-.47-.33c-.07,0-.16.07-.29.21a2.32,2.32,0,0,1-.31.42H1.77a7.21,7.21,0,0,1-1.3-.09l.21.55a3.9,3.9,0,0,1,1.09-.1H2.1V28.8q-.77.12-1.38.17l.28.61q.12.27.26.27c.07,0,.1-.09.1-.29s.24-.14.73-.26A27.13,27.13,0,0,0,5,28.46v.47l0,1.38c0,.26,0,.4.14.4a.56.56,0,0,0,.29-.1c.08,0,.12-.14.12-.3V24.22h6q.26,0,.26-.21S11.59,23.81,11.31,23.56ZM5,28.26q-1.4.32-2.39.47v-1.5H5ZM5,26.9H2.6V25.76H5Zm0-1.5H2.6V24.22H5Z"/><path d="M8.94,28.23a11.25,11.25,0,0,0,1.64-2.38s.07-.08.22-.15.22-.1.22-.16-.08-.14-.24-.29-.33-.26-.41-.26a.31.31,0,0,0-.14.07l-.26.24H7.62a7.34,7.34,0,0,1-1.73-.15l.25.59a6.38,6.38,0,0,1,.82-.09,7.93,7.93,0,0,0,.92,2q.25.35.52.67l-.09.09a16.42,16.42,0,0,1-2.58,2l.1.11a12.05,12.05,0,0,0,2.64-1.8l.17-.15.27.29a5.93,5.93,0,0,0,1.21,1,2.78,2.78,0,0,0,.81.46.58.58,0,0,0,.16-.12.74.74,0,0,1,.53-.16v-.21A6.33,6.33,0,0,1,9.5,28.72,5.2,5.2,0,0,1,8.94,28.23ZM8.68,28a7.79,7.79,0,0,1-.62-.69,6.14,6.14,0,0,1-.87-1.65h2.89A12.88,12.88,0,0,1,8.68,28Z"/><path d="M2.71,22.68l-.06.63c0,.17.05.26.16.26a.68.68,0,0,0,.2,0c.16,0,.25-.11.25-.21l0-.35H9v.26q0,.19.26.19l.12,0c.11,0,.16-.09.16-.14q-.05-1.29,0-2.68s.07-.12.2-.21.25-.16.25-.2-.08-.14-.24-.31-.34-.27-.4-.27-.12.06-.24.17-.16.17-.17.17H3.24a2,2,0,0,0-.64-.35,5.38,5.38,0,0,1,.11,1.13Zm.48-2.44H9v1H3.19Zm0,1.4H9v1H3.19Z"/><path d="M14.46,24H19c.14,0,.21-.06.21-.19s-.12-.17-.36-.38-.33-.26-.4-.26-.12.05-.2.16a3.19,3.19,0,0,1-.25.33H16.69a9.52,9.52,0,0,0,.94-1.7l.24-.06c.14,0,.21-.05.21-.09s-.08-.13-.24-.19l-.66-.21a6,6,0,0,1-.71,2.24h-2a5.62,5.62,0,0,1-1.3-.11l.21.55A3.9,3.9,0,0,1,14.46,24Z"/><path d="M14.59,21.23h4.18c.16,0,.24-.06.24-.19s-.12-.19-.36-.41-.36-.3-.42-.3-.15.07-.26.2a3.9,3.9,0,0,1-.29.35H14.59a6,6,0,0,1-1.28-.1l.2.55A3.91,3.91,0,0,1,14.59,21.23Z"/><path d="M14.59,21.59l-.14,0a3.17,3.17,0,0,1,.5,1.49.16.16,0,0,0,.19.19.27.27,0,0,0,.22-.11.55.55,0,0,0,.14-.38,1.06,1.06,0,0,0-.21-.47A3.62,3.62,0,0,0,14.59,21.59Z"/><path d="M16,20.48q.17.26.26.26.25,0,.26-.33a.55.55,0,0,0-.21-.42A4,4,0,0,0,15,19.3l0,.16A3.52,3.52,0,0,1,16,20.48Z"/><path d="M18,28.22c.13,0,.2-.09.21-.29a.81.81,0,0,0-.29-.59,5,5,0,0,0-1.66-.89v-.51h2.49c.16,0,.24-.06.24-.19s-.12-.17-.35-.37-.33-.29-.38-.29-.14.06-.24.17a2.56,2.56,0,0,1-.27.32H16.28v-.73q0-.11.26-.19c.19,0,.29-.1.29-.17s-.09-.12-.26-.15l-.88-.14a3.67,3.67,0,0,1,.1,1v.33H14.41a6.28,6.28,0,0,1-1.3-.1l.21.55a3.9,3.9,0,0,1,1.09-.1h.9a8.6,8.6,0,0,1-1,1.8A8.35,8.35,0,0,1,13,29.16l.14.15a9,9,0,0,0,1.6-1.49A8.15,8.15,0,0,0,15.78,26v3.11q-.05.63,0,1.21,0,.26.15.26l.15,0c.16,0,.25-.14.25-.29V26.66a4.45,4.45,0,0,1,1.35,1.21C17.79,28.11,17.92,28.22,18,28.22Z"/><path d="M24.19,23.25c-.2-.19-.33-.28-.38-.28s-.16.1-.3.3l-.19.25H20.09v-2.6q1.7-.2,3.62-.62l.4,0c.07,0,.1,0,.1,0a.18.18,0,0,0-.12-.16l-.66-.48A9.68,9.68,0,0,1,20.2,20.7a7.93,7.93,0,0,0-.76-.51,24.77,24.77,0,0,1,.15,2.89,13.54,13.54,0,0,1-.48,4.45,7.15,7.15,0,0,1-1.7,2.78l.21.1a7.23,7.23,0,0,0,1.91-2.81,10.59,10.59,0,0,0,.56-3.73h2v5l0,1.39q0,.41.15.41a.52.52,0,0,0,.29-.11q.11-.06.11-.3V23.86h1.78c.14,0,.21-.06.21-.19S24.44,23.48,24.19,23.25Z"/><path d="M36.5,20.18l-.78-.27a9.59,9.59,0,0,1-1.35,2.83l.16.09a12.55,12.55,0,0,0,1.64-2.27l.31-.07c.16,0,.24-.08.24-.14S36.65,20.22,36.5,20.18Z"/><path d="M29.56,21.78l-.15,0q-1.14,2.86-1.92,4.94-.24.56-.56.56h-.88v.26q1,.19,1.16.41a.57.57,0,0,1,.11.37q0,.76,0,1.3a1.24,1.24,0,0,0,.12.62.45.45,0,0,0,.38.16.3.3,0,0,0,.26-.12.72.72,0,0,0,.09-.42q-.07-.37-.25-1a5,5,0,0,1-.1-1,4.21,4.21,0,0,1,.27-1.4Q28.8,24.1,29.56,21.78Z"/><path d="M31.36,22.68q.28,0,.29-.46a1.23,1.23,0,0,0-.17-.56,6.83,6.83,0,0,0-1.6-1.61l-.1.14a8.23,8.23,0,0,1,1.24,2Q31.23,22.68,31.36,22.68Z"/><path d="M27,23.93c.14.22.24.33.31.33s.3-.15.31-.46a.72.72,0,0,0-.25-.5,4.33,4.33,0,0,0-1.5-.78l-.1.2A3.66,3.66,0,0,1,27,23.93Z"/><path d="M35.85,22.77s-.13.08-.24.24l-.16.22H33.33V20.11c0-.12.08-.21.24-.25s.31-.14.31-.21-.1-.14-.31-.16l-.88-.19a12.76,12.76,0,0,1,.1,1.8v2.13H30.65a2.31,2.31,0,0,0-.73-.46A5.34,5.34,0,0,1,30.06,24v5.61l0,.73q0,.26.15.26a.93.93,0,0,0,.25,0c.16,0,.25-.11.25-.21l0-.73V27.08h5.07v2.18c0,.17-.07.26-.21.26l-1.73,0v.19q1.2.19,1.34.48c.07.17.13.26.2.26a1.17,1.17,0,0,0,.55-.26,1,1,0,0,0,.41-.88V24c0-.1.08-.19.24-.26s.21-.13.21-.19-.12-.19-.36-.43S35.93,22.77,35.85,22.77Zm-.19,4H30.6V25.26h5.07Zm0-1.85H30.6V23.57h5.07Z"/><path d="M27.91,21.21c.14.26.25.38.32.38s.29-.15.29-.45a.92.92,0,0,0-.22-.59,4.42,4.42,0,0,0-1.51-1l-.09.2A4.23,4.23,0,0,1,27.91,21.21Z"/><path d="M39.75,28.63a2.42,2.42,0,0,1-.66.78q-.3.26-.3.4c0,.12.1.19.29.21a.82.82,0,0,0,.48-.2,1.26,1.26,0,0,0,.51-.68,4.49,4.49,0,0,0,.26-1.8H40A3,3,0,0,1,39.75,28.63Z"/><path d="M43.55,26.54l-.1.21A4,4,0,0,1,44.55,28c.12.23.21.35.27.35s.3-.15.31-.45a.78.78,0,0,0-.22-.53A3.76,3.76,0,0,0,43.55,26.54Z"/><path d="M49.11,28.23a8.71,8.71,0,0,0-1.56-1.05l-.15.16a6.53,6.53,0,0,1,1,.85,4.92,4.92,0,0,1,.58,1,.33.33,0,0,0,.3.26.3.3,0,0,0,.22-.14.83.83,0,0,0,.06-.36A1.15,1.15,0,0,0,49.11,28.23Z"/><path d="M47.12,26v.31c0,.12.08.19.25.19l.15,0c.13,0,.2-.08.2-.14q-.05-2.29,0-4.81s.06-.12.19-.21.25-.15.25-.19-.09-.18-.26-.37-.37-.32-.43-.32-.13.07-.26.22-.17.21-.19.21H43.54a4.08,4.08,0,0,0,.66-.93.74.74,0,0,1,.25-.09c.16,0,.25-.07.25-.12s-.09-.15-.26-.21l-.74-.24a4.28,4.28,0,0,1-.43,1.59H41.31a2.12,2.12,0,0,0-.74-.43,4.9,4.9,0,0,1,.15,1.24v4l0,.76c0,.16.05.24.16.24l.22,0c.18,0,.27-.11.27-.2l0-.36Zm-5.86-4.81h5.86v1.14H41.26Zm0,1.5h5.86V24H41.26Zm0,1.62h5.86v1.35H41.26Z"/><path d="M47.3,29.83q-.25-.12-.25-.84v-1.1h-.2A8.52,8.52,0,0,1,46.71,29q-.06.76-.4.84a10.26,10.26,0,0,1-1.92.1,6,6,0,0,1-1.83-.15.43.43,0,0,1-.2-.35V27.63a.29.29,0,0,1,.2-.29c.16-.06.24-.13.24-.21s-.12-.14-.36-.2l-.73-.14a4.4,4.4,0,0,1,.1.83v1.85a.85.85,0,0,0,.36.77,6,6,0,0,0,2.23.22A14.25,14.25,0,0,0,47,30.33q.48-.07.48-.26A.26.26,0,0,0,47.3,29.83Z"/></svg>