<svg id="圖層_1" data-name="圖層 1" xmlns="http://www.w3.org/2000/svg" viewBox="0 0 50 50"><title>navigation07</title><path d="M10.42,22.73l-.83-.16A7.52,7.52,0,0,1,9.7,24v5.54c0,.12-.08.19-.23.19A11.1,11.1,0,0,1,8,29.63v.14q1.09.17,1.17.48c0,.18.08.27.12.27a1,1,0,0,0,.67-.33.86.86,0,0,0,.26-.65V23.26c0-.07.07-.12.2-.17s.3-.13.3-.19S10.63,22.77,10.42,22.73Z"/><path d="M8.12,23.35c0-.07-.09-.11-.26-.14L7,23.06a3.59,3.59,0,0,1,.1,1v3.43q0,.58,0,1.11c0,.17.05.26.16.26l.14,0c.16,0,.25-.14.25-.28V23.7q0-.11.26-.2C8,23.47,8.12,23.42,8.12,23.35Z"/><path d="M5.44,23.1a1.06,1.06,0,0,0-.37-.25c-.06,0-.13.06-.22.17l-.12.18H2a2.11,2.11,0,0,0-.74-.44A4.38,4.38,0,0,1,1.47,24v5.72l0,.75q0,.23.15.23l.22,0c.18,0,.27-.11.27-.2l0-.75V27.25h2.8v2.18q0,.38-.19.38a11.78,11.78,0,0,1-1.34-.1l0,.21q1,.19,1.12.48t.11.21a1,1,0,0,0,.43-.22.8.8,0,0,0,.41-.73V23.84q0-.11.19-.22t.22-.22C5.71,23.34,5.62,23.24,5.44,23.1Zm-.63,3.81H2V25.33h2.8Zm0-1.94H2V23.54h2.8Z"/><path d="M11,21.22q-.37-.35-.47-.35c-.07,0-.16.08-.28.23a4.57,4.57,0,0,1-.31.42H7.12a7.46,7.46,0,0,0,1.16-1.48A.9.9,0,0,1,8.56,20q.26,0,.26-.12c0-.09-.1-.17-.28-.23l-.8-.26a5.05,5.05,0,0,1-.89,2.18H1.7a5.46,5.46,0,0,1-1.27-.11L.61,22a4,4,0,0,1,1.09-.1h9.43q.26,0,.26-.19S11.25,21.48,11,21.22Z"/><path d="M3.72,21.14a.33.33,0,0,0,.31.23.31.31,0,0,0,.22-.12.82.82,0,0,0,.06-.37,1.1,1.1,0,0,0-.26-.58,6,6,0,0,0-1-.89l-.15.15a4,4,0,0,1,.48.74A3.62,3.62,0,0,1,3.72,21.14Z"/><path d="M14.47,21.88a7.48,7.48,0,0,0,1.26-1.59c.06-.11.21-.18.46-.22s.22-.06.22-.11-.05-.12-.16-.17l-.88-.32a7.59,7.59,0,0,1-1,1.89,6.56,6.56,0,0,1-1.59,1.51l.1.15A8,8,0,0,0,14.47,21.88Z"/><path d="M15.42,24q.44-.57.9-1.28c0-.06.16-.09.41-.1s.21,0,.22-.11a.22.22,0,0,0-.14-.19L16,21.87a12.2,12.2,0,0,1-1.48,2.59,10.44,10.44,0,0,1-1.83,2l.1.09A10.72,10.72,0,0,0,14.62,25l.26-.3V29q0,.48,0,1.42,0,.21.15.21a1.6,1.6,0,0,0,.35-.07.19.19,0,0,0,.15-.19q0-.63,0-1.37Z"/><path d="M19.31,20.51a4.17,4.17,0,0,1,.57,1q.11.28.33.28a.36.36,0,0,0,.25-.12,1.08,1.08,0,0,0,.06-.42q0-.26-.43-.68a8.33,8.33,0,0,0-1.55-1l-.14.14A6,6,0,0,1,19.31,20.51Z"/><path d="M23.71,29.33c-.25-.23-.41-.35-.49-.35s-.14.07-.26.22a3.79,3.79,0,0,1-.32.46H20.26V25.93h2.87c.16,0,.23-.07.23-.2s-.14-.21-.41-.46-.39-.35-.47-.35-.17.08-.28.23a2.52,2.52,0,0,1-.31.41H20.26V22.41h3q.26,0,.26-.19s-.13-.19-.39-.43-.38-.31-.46-.31-.14.07-.23.2l-.31.39H18.2A5.7,5.7,0,0,1,16.9,22l.2.54a4,4,0,0,1,1.1-.1h1.52v3.16H18.29a6.25,6.25,0,0,1-1.3-.1l.21.54a4.44,4.44,0,0,1,1.09-.09h1.42v3.74H17.36a7.17,7.17,0,0,1-1.3-.09l.21.54a3.88,3.88,0,0,1,1.09-.1h6.5c.21,0,.31-.07.31-.21S24,29.6,23.71,29.33Z"/><path d="M29.35,22.77s-.12-.17-.36-.38-.33-.26-.39-.26-.13.05-.22.16a2,2,0,0,1-.27.33h-.64V20.24c0-.08.09-.15.26-.2s.28-.11.28-.2-.1-.14-.28-.17l-.94-.16a3.27,3.27,0,0,1,.14,1.14v2h-.39a5.46,5.46,0,0,1-1.27-.11l.19.56A3.63,3.63,0,0,1,26.52,23h.39v5.16q0,1.11,0,2.15,0,.26.15.26l.16,0c.19-.06.28-.15.28-.28V23h1.63Q29.35,23,29.35,22.77Z"/><path d="M30.72,21.19h.72a3.63,3.63,0,0,1-.15.53A3.17,3.17,0,0,1,30.56,23a5.16,5.16,0,0,1-1.86,1.17l.11.15a6,6,0,0,0,2-1,3.13,3.13,0,0,0,.91-1.2,6.09,6.09,0,0,0,.31-.93h2.54a5.17,5.17,0,0,1-.38,1.91.51.51,0,0,1-.37.11,9.05,9.05,0,0,1-1.71-.15v.2q1.27.25,1.32.47c.06.14.13.21.21.21a1.36,1.36,0,0,0,.74-.21,1.34,1.34,0,0,0,.54-1q.12-.72.2-1.3c0-.07.11-.13.25-.17s.19-.06.19-.11-.09-.18-.27-.38-.33-.26-.42-.26-.1,0-.21.14a1.1,1.1,0,0,1-.23.2H32.06q0-.32.09-.73c0-.07.14-.13.36-.16s.19-.07.19-.15-.09-.1-.26-.16-.51-.15-.83-.22a13.06,13.06,0,0,1-.11,1.42h-.78a12.49,12.49,0,0,1-1.86-.1l.23.54A11.63,11.63,0,0,1,30.72,21.19Z"/><path d="M36.25,25.6a.91.91,0,0,0-.43-.22.61.61,0,0,0-.2.12l-.16.16H34a7.59,7.59,0,0,0,0-.78s.1-.08.28-.15.15-.09.15-.16-.07-.1-.22-.12l-.86-.11.1.78c0,.18,0,.36,0,.54H32.09l-.11-.1a1,1,0,0,0-.32-.19s-.1,0-.19.12a.73.73,0,0,1-.16.16H30.05q0-.33,0-.74a1,1,0,0,1,.31-.14q.15,0,.15-.15c0-.07-.08-.11-.23-.14l-.85-.12.09.8c0,.16,0,.32,0,.48a9.93,9.93,0,0,1-1.65-.1l.18.54a9.66,9.66,0,0,1,1.46-.1,7.16,7.16,0,0,1-.44,2.28,3.72,3.72,0,0,1-1.25,1.78l0,.14a3.53,3.53,0,0,0,1.64-1.83A6.9,6.9,0,0,0,30,26h1.43A9.66,9.66,0,0,1,31,29.1c-.11.15-.22.22-.32.22s-.54,0-1.18-.1l0,.16a1.9,1.9,0,0,1,.91.39c0,.16.08.25.12.25q.78-.15.94-.54A12,12,0,0,0,32,26.22s0-.1.15-.15l.06-.06H33.4a6.37,6.37,0,0,1-.51,2.25A3.71,3.71,0,0,1,31.47,30l0,.14a3.64,3.64,0,0,0,1.83-1.83A6.2,6.2,0,0,0,33.93,26h1.58a15.3,15.3,0,0,1-.38,2.89.44.44,0,0,1-.22.33.8.8,0,0,1-.27,0,3.43,3.43,0,0,1-1.2-.15l0,.15q.93.3,1,.56c0,.13.08.2.1.2a1.53,1.53,0,0,0,.67-.16,1,1,0,0,0,.46-.58,14.89,14.89,0,0,0,.41-3,.67.67,0,0,1,.28-.2q.26-.11.26-.16C36.54,25.88,36.44,25.76,36.25,25.6Z"/><path d="M46.35,21.43A9.08,9.08,0,0,1,44,19.9l.3,0c.14,0,.21-.06.21-.14s0-.11-.14-.12q-.52-.16-1-.32a9,9,0,0,1-2,2.1A22.81,22.81,0,0,1,38,23.31l.1.14a17.56,17.56,0,0,0,3.38-1.64A12,12,0,0,0,43.75,20l.06,0a6.13,6.13,0,0,0,1.48,1.37,13.36,13.36,0,0,0,2,1.16,4.44,4.44,0,0,0,1.31.49s.07,0,.14-.14a1.35,1.35,0,0,1,.8-.15v-.21A12.53,12.53,0,0,1,46.35,21.43Z"/><path d="M45.42,22.31c.14,0,.21-.06.21-.18s-.12-.17-.36-.38-.33-.26-.39-.26-.11.05-.2.16a2.39,2.39,0,0,1-.25.32H43.12a6.26,6.26,0,0,1-1.3-.1l.21.54a3.88,3.88,0,0,1,1.09-.1Z"/><path d="M41.82,25.07a.3.3,0,0,0,.26.21.27.27,0,0,0,.18-.11.91.91,0,0,0,0-.33.84.84,0,0,0-.2-.46,3.75,3.75,0,0,0-.73-.68l-.11.14a3.12,3.12,0,0,1,.33.58A3.43,3.43,0,0,1,41.82,25.07Z"/><path d="M47,26.75c-.2-.19-.33-.28-.39-.28s-.11.06-.22.17l-.16.17h-5a1.76,1.76,0,0,0-.62-.35,6.8,6.8,0,0,1,.09,1.12v2.17l0,.64q0,.26.15.26l.22,0q.22-.06.22-.21l0-.33h5.12v.39c0,.13.08.2.23.2l.15,0c.11,0,.16-.09.16-.15q0-1.43,0-3s.06-.12.17-.21.27-.16.27-.2S47.13,26.91,47,26.75Zm-.68,3H41.13V28.54h5.14Zm0-1.53H41.13v-1h5.14Z"/><path d="M47.31,22.8s-.12.05-.25.16-.14.15-.16.15H40.34a2,2,0,0,0-.64-.35,5.36,5.36,0,0,1,.11,1.12v1.63l-.06.64c0,.17.05.26.16.26a.67.67,0,0,0,.2,0c.16,0,.25-.11.25-.21v-.23h6.71v.3c0,.1.07.15.21.15l.12,0c.11,0,.16-.09.16-.16q0-1.17,0-2.46s0-.11.15-.19.21-.13.21-.17-.07-.12-.22-.27S47.36,22.8,47.31,22.8ZM43.4,25.57H40.3V23.45h3.1Zm3.65,0H43.89V23.45h3.16Z"/><path d="M45.82,24.2l.27-.07q.18-.06.19-.14s0-.09-.16-.12l-.64-.21a5.85,5.85,0,0,1-.64,1.63l.1.1A7,7,0,0,0,45.82,24.2Z"/></svg>