<svg xmlns="http://www.w3.org/2000/svg" viewBox="0 0 207.85 73.42"><defs><style>.cls-1{fill:#7c6450;}</style></defs><title>about</title><g id="圖層_13" data-name="圖層 13"><path class="cls-1" d="M55.72,49.55q0,1.49-10.37,13.78Q37,73.42,32.14,73.42A6.64,6.64,0,0,1,26.82,71a9.2,9.2,0,0,1-2.06-6.14A18.48,18.48,0,0,1,27,56.54q-7.09,9.93-10.85,13.41T8.87,73.42a7.77,7.77,0,0,1-6.31-3.23A12.69,12.69,0,0,1,0,62.07Q0,48.45,19.22,38q8.44-4.68,13.62-4.68,4.4,0,4.4,4.26a12.29,12.29,0,0,1-.57,3.19l3.62-6.88a16.75,16.75,0,0,0,3.76.5,32.2,32.2,0,0,0,5-.5L36.46,54.62Q29.93,65.55,29.94,69t2.77,3.33q2.84,0,9.09-6.5a122,122,0,0,0,12.72-16q.42-.71.78-.71A.38.38,0,0,1,55.72,49.55ZM36.18,37.81q0-3.48-3.19-3.48-6.53,0-17.13,12.77T5.25,67.74q0,4.61,4.11,4.61,4.89,0,17-16.24Q36.18,42.78,36.18,37.81Z"/><path class="cls-1" d="M93.92.14,62.07,50.44q7.45-10.22,11.14-13.69t7-3.48a7.87,7.87,0,0,1,6.49,3.23,12.81,12.81,0,0,1,2.52,8.12q0,10.71-13.62,21.07-10.14,7.73-18,7.73a7.4,7.4,0,0,1-6-2.8,11.07,11.07,0,0,1-2.31-7.27q0-5.32,6.81-16.24L85.48,0a14.38,14.38,0,0,0,4.11.57A28.06,28.06,0,0,0,93.92.14ZM84.06,39.09q0-4.75-4-4.75-5.18,0-17.66,17.1Q53.06,64.2,53.06,68.6q0,3.76,3.69,3.76,6.39,0,16.85-12.73T84.06,39.09Z"/><path class="cls-1" d="M136.09,49.48q0,1.13-4.19,5.3Q125.66,61,120.41,61a8.62,8.62,0,0,1-3.91-.85q-9.37,13.27-17.61,13.27a9.27,9.27,0,0,1-7.28-3.51,12.47,12.47,0,0,1-3-8.41q0-10.92,14.33-21.07,10.07-7.16,16.6-7.16,6.1,0,6.1,6.53,0,8.16-8.58,19.65a6.08,6.08,0,0,0,3.19.85q3.19,0,7.46-3a25.66,25.66,0,0,0,7-7.14q.78-1,1.14-1A.25.25,0,0,1,136.09,49.48Zm-11.53-9.54q0-5.75-5.18-5.75-6.46,0-15.75,12.34T94.35,67.32q0,4.89,4.68,4.9,7.66,0,16.74-12.63a6.94,6.94,0,0,1-2.06-4.68,12,12,0,0,1,2.77-7.16q2.77-3.69,5.39-3.69,1.14,0,1.56,1.42A13.17,13.17,0,0,0,124.57,39.94Z"/><path class="cls-1" d="M181.71,49.55q0,1.63-10.3,13.78-8.52,10.09-13.49,10.09a6.73,6.73,0,0,1-5.29-2.52,9,9,0,0,1-2.17-6.06q0-2.77,2.77-7.73L151.81,59a108.86,108.86,0,0,1-9.58,11.21q-3.34,3.19-6.31,3.19A6.69,6.69,0,0,1,130.67,71a8.81,8.81,0,0,1-2.13-6q0-4.11,3.19-9.43l12.91-21.71a19.92,19.92,0,0,0,3.76.5,40.41,40.41,0,0,0,4.82-.5L136.34,61.64a15.11,15.11,0,0,0-2.55,7.52q0,3.19,2.7,3.19,7.16,0,23-26.74l7-11.78a17.26,17.26,0,0,0,3.69.5,36,36,0,0,0,5-.5L163.79,52.35q-8.09,13.19-8.09,17,0,3.05,2.91,3.05,5.68,0,18.47-17.9l2.2-3.05,1.28-1.56q.35-.71.71-.71A.38.38,0,0,1,181.71,49.55Z"/><path class="cls-1" d="M207.85,33.27l-.57,1.06H198l-15.82,27q-2.91,4.89-2.91,7.8,0,3.19,3.34,3.19,6.46,0,21.81-22.52.5-.71.85-.71a.38.38,0,0,1,.43.43,7.61,7.61,0,0,1-.71,1.14l-3.05,4.19q-13.35,18.54-20.1,18.54A7.3,7.3,0,0,1,176.25,71,8.53,8.53,0,0,1,174,65q0-4.26,3.76-10.64l11.92-20h-7.24l.71-1.06h7.09l8.3-13.76a15.68,15.68,0,0,0,4,.57,15.93,15.93,0,0,0,4.12-.57l-8.16,13.76Z"/></g></svg>