<svg id="圖層_1" data-name="圖層 1" xmlns="http://www.w3.org/2000/svg" xmlns:xlink="http://www.w3.org/1999/xlink" viewBox="0 0 378.02 192.19"><defs><style>.cls-1,.cls-4{fill:none;}.cls-2{opacity:0.51;}.cls-3{clip-path:url(#clip-path);}.cls-4{stroke:#000;stroke-miterlimit:10;stroke-width:0.5px;}.cls-5{fill:#fff;}.cls-6{fill:#7c6450;}</style><clipPath id="clip-path"><rect class="cls-1" y="5.24" width="454.2" height="186.95"/></clipPath></defs><title>about_fra</title><g class="cls-2"><g class="cls-3"><line class="cls-4" x1="119.05" y1="214.46" x2="62.72" y2="-16.06"/><line class="cls-4" x1="113.37" y1="214.46" x2="57.04" y2="-16.06"/><line class="cls-4" x1="107.69" y1="214.46" x2="51.36" y2="-16.06"/><line class="cls-4" x1="102.01" y1="214.46" x2="45.68" y2="-16.06"/><line class="cls-4" x1="96.33" y1="214.46" x2="40" y2="-16.06"/><line class="cls-4" x1="90.65" y1="214.46" x2="34.32" y2="-16.06"/><line class="cls-4" x1="84.97" y1="214.46" x2="28.64" y2="-16.06"/><line class="cls-4" x1="79.29" y1="214.46" x2="22.96" y2="-16.06"/><line class="cls-4" x1="73.61" y1="214.46" x2="17.28" y2="-16.06"/><line class="cls-4" x1="67.93" y1="214.46" x2="11.6" y2="-16.06"/><line class="cls-4" x1="62.25" y1="214.46" x2="5.92" y2="-16.06"/><line class="cls-4" x1="56.57" y1="214.46" x2="0.24" y2="-16.06"/><line class="cls-4" x1="50.89" y1="214.46" x2="-5.44" y2="-16.06"/><line class="cls-4" x1="45.21" y1="214.46" x2="-11.12" y2="-16.06"/><line class="cls-4" x1="39.53" y1="214.46" x2="-16.8" y2="-16.06"/><line class="cls-4" x1="33.84" y1="214.46" x2="-22.48" y2="-16.06"/><line class="cls-4" x1="28.16" y1="214.46" x2="-28.16" y2="-16.06"/><line class="cls-4" x1="22.48" y1="214.46" x2="-33.84" y2="-16.06"/><line class="cls-4" x1="16.8" y1="214.46" x2="-39.53" y2="-16.06"/><line class="cls-4" x1="11.12" y1="214.46" x2="-45.21" y2="-16.06"/><line class="cls-4" x1="5.44" y1="214.46" x2="-50.89" y2="-16.06"/><line class="cls-4" x1="-0.24" y1="214.46" x2="-56.57" y2="-16.06"/><line class="cls-4" x1="255.38" y1="214.46" x2="199.05" y2="-16.06"/><line class="cls-4" x1="249.7" y1="214.46" x2="193.37" y2="-16.06"/><line class="cls-4" x1="244.02" y1="214.46" x2="187.69" y2="-16.06"/><line class="cls-4" x1="238.34" y1="214.46" x2="182.01" y2="-16.06"/><line class="cls-4" x1="232.66" y1="214.46" x2="176.33" y2="-16.06"/><line class="cls-4" x1="226.98" y1="214.46" x2="170.65" y2="-16.06"/><line class="cls-4" x1="221.3" y1="214.46" x2="164.97" y2="-16.06"/><line class="cls-4" x1="215.62" y1="214.46" x2="159.29" y2="-16.06"/><line class="cls-4" x1="209.94" y1="214.46" x2="153.61" y2="-16.06"/><line class="cls-4" x1="204.26" y1="214.46" x2="147.93" y2="-16.06"/><line class="cls-4" x1="198.58" y1="214.46" x2="142.25" y2="-16.06"/><line class="cls-4" x1="192.9" y1="214.46" x2="136.57" y2="-16.06"/><line class="cls-4" x1="187.22" y1="214.46" x2="130.89" y2="-16.06"/><line class="cls-4" x1="181.54" y1="214.46" x2="125.21" y2="-16.06"/><line class="cls-4" x1="175.86" y1="214.46" x2="119.53" y2="-16.06"/><line class="cls-4" x1="170.18" y1="214.46" x2="113.85" y2="-16.06"/><line class="cls-4" x1="164.5" y1="214.46" x2="108.17" y2="-16.06"/><line class="cls-4" x1="158.81" y1="214.46" x2="102.49" y2="-16.06"/><line class="cls-4" x1="153.13" y1="214.46" x2="96.81" y2="-16.06"/><line class="cls-4" x1="147.45" y1="214.46" x2="91.13" y2="-16.06"/><line class="cls-4" x1="141.77" y1="214.46" x2="85.44" y2="-16.06"/><line class="cls-4" x1="136.09" y1="214.46" x2="79.76" y2="-16.06"/><line class="cls-4" x1="130.41" y1="214.46" x2="74.08" y2="-16.06"/><line class="cls-4" x1="124.73" y1="214.46" x2="68.4" y2="-16.06"/><line class="cls-4" x1="391.71" y1="214.46" x2="335.38" y2="-16.06"/><line class="cls-4" x1="380.35" y1="214.46" x2="324.02" y2="-16.06"/><line class="cls-4" x1="374.67" y1="214.46" x2="318.34" y2="-16.06"/><line class="cls-4" x1="368.99" y1="214.46" x2="312.66" y2="-16.06"/><line class="cls-4" x1="363.31" y1="214.46" x2="306.98" y2="-16.06"/><line class="cls-4" x1="357.63" y1="214.46" x2="301.3" y2="-16.06"/><line class="cls-4" x1="351.95" y1="214.46" x2="295.62" y2="-16.06"/><line class="cls-4" x1="346.27" y1="214.46" x2="289.94" y2="-16.06"/><line class="cls-4" x1="340.59" y1="214.46" x2="284.26" y2="-16.06"/><line class="cls-4" x1="334.91" y1="214.46" x2="278.58" y2="-16.06"/><line class="cls-4" x1="329.23" y1="214.46" x2="272.9" y2="-16.06"/><line class="cls-4" x1="323.55" y1="214.46" x2="267.22" y2="-16.06"/><line class="cls-4" x1="317.87" y1="214.46" x2="261.54" y2="-16.06"/><line class="cls-4" x1="312.19" y1="214.46" x2="255.86" y2="-16.06"/><line class="cls-4" x1="306.51" y1="214.46" x2="250.18" y2="-16.06"/><line class="cls-4" x1="300.83" y1="214.46" x2="244.5" y2="-16.06"/><line class="cls-4" x1="295.15" y1="214.46" x2="238.82" y2="-16.06"/><line class="cls-4" x1="289.47" y1="214.46" x2="233.14" y2="-16.06"/><line class="cls-4" x1="283.78" y1="214.46" x2="227.46" y2="-16.06"/><line class="cls-4" x1="278.1" y1="214.46" x2="221.78" y2="-16.06"/><line class="cls-4" x1="272.42" y1="214.46" x2="216.09" y2="-16.06"/><line class="cls-4" x1="266.74" y1="214.46" x2="210.41" y2="-16.06"/><line class="cls-4" x1="261.06" y1="214.46" x2="204.73" y2="-16.06"/><line class="cls-4" x1="431.48" y1="214.46" x2="375.15" y2="-16.06"/><line class="cls-4" x1="425.8" y1="214.46" x2="369.47" y2="-16.06"/><line class="cls-4" x1="420.12" y1="214.46" x2="363.79" y2="-16.06"/><line class="cls-4" x1="414.43" y1="214.46" x2="358.11" y2="-16.06"/><line class="cls-4" x1="408.75" y1="214.46" x2="352.43" y2="-16.06"/><line class="cls-4" x1="403.07" y1="214.46" x2="346.75" y2="-16.06"/><line class="cls-4" x1="397.39" y1="214.46" x2="341.06" y2="-16.06"/></g></g><polygon class="cls-5" points="376.86 173.87 376.04 4.25 376.02 0 8.35 1.3 8.37 5.55 9.2 175.17 376.86 173.87"/><g id="圖層_13" data-name="圖層 13"><polygon class="cls-6" points="377.57 4.24 376.04 4.25 376.86 173.87 9.2 175.17 8.37 5.55 5.02 5.56 5.85 176.66 378.41 175.34 377.57 4.24"/></g></svg>