<svg xmlns="http://www.w3.org/2000/svg" viewBox="0 0 38.45 158.63"><defs><style>.cls-1{fill:#333;}</style></defs><title>txt_v</title><g id="圖層_13" data-name="圖層 13"><path class="cls-1" d="M4.69.39A.71.71,0,0,1,5,.52c.15.13.22.22.22.3a.92.92,0,0,1,0,.25,2.62,2.62,0,0,0,0,.44v.3a12.33,12.33,0,0,0,1.45-.31l.17,0A.76.76,0,0,1,7,1.56c.11.08.17.15.17.2s-.05.06-.16.08l-1.91.25V3q1.11-.09,2.13-.23a.49.49,0,0,0,.47-.27c.08-.2.16-.3.22-.3s.1.08.25.25a.65.65,0,0,1,.19.31c0,.05-.06.11-.17.19A7.2,7.2,0,0,0,7.08,4.22q-.08.09-.14.09a.05.05,0,0,1-.06-.06A.3.3,0,0,1,7,4a11.54,11.54,0,0,0,.59-1l-3.19.33a.72.72,0,0,1,.19.33,2.07,2.07,0,0,1,0,.33c0,.08,0,.18,0,.3q.91-.08,1.3-.16l.45,0a.51.51,0,0,1,.22.08c.1.06.16.13.16.19s0,.05-.06.06L4.5,4.61v.27q0,.45.16.56a1.54,1.54,0,0,0,.78.13,6.26,6.26,0,0,0,1.28-.14A.44.44,0,0,0,7,5.31a.29.29,0,0,0,.14-.25q0-.42,0-.94s0-.06.06-.06.05,0,.06.06q.16.8.25,1.14a1,1,0,0,1,.06.3c0,.06,0,.1-.14.13a13.64,13.64,0,0,1-2,.19,4.89,4.89,0,0,1-.77,0,.55.55,0,0,1-.33-.19,1.21,1.21,0,0,1-.16-.73V4.64l-.52.06-.48,0A.48.48,0,0,1,3,4.64q-.14-.14-.14-.19h.06l1.31-.11a2.32,2.32,0,0,0,0-.48c0-.21-.07-.36-.08-.47l-1.44.14Q2.63,5,2.5,6.67a19.76,19.76,0,0,1-.44,2.92,14.48,14.48,0,0,1-.8,2.5A16.72,16.72,0,0,1,.2,14q-.11.16-.14.16A.06.06,0,0,1,0,14.13a.83.83,0,0,1,.06-.31,16.18,16.18,0,0,0,.84-1.58,13.16,13.16,0,0,0,.61-1.84A19.73,19.73,0,0,0,2,7.64a34.41,34.41,0,0,0,.17-3.81,6.24,6.24,0,0,0-.11-1A6.66,6.66,0,0,1,2,2.13a.06.06,0,0,1,.06-.06,2.48,2.48,0,0,1,.28.52,4,4,0,0,1,.23.66L4.75,3V1.5A4.81,4.81,0,0,0,4.69.8,1.19,1.19,0,0,1,4.63.45.06.06,0,0,1,4.69.39ZM2.5,9.08s.11.16.22.47c0,.09.06.2.09.31l4.06-.55a.55.55,0,0,0,.36-.17c.07-.17.14-.25.2-.27A.62.62,0,0,1,7.69,9c.17.13.25.2.25.23s0,.07-.12.13a1,1,0,0,0-.19.61,17.71,17.71,0,0,1-.37,3.83q-.14.64-.31.64t-.69-.77a2.38,2.38,0,0,1-.5-.69.05.05,0,0,1,.06-.06,2.35,2.35,0,0,1,.45.3,1.06,1.06,0,0,0,.48.27c.1,0,.17-.08.2-.23a32.41,32.41,0,0,0,.28-3.69l-1.33.19a.89.89,0,0,1,.17.28,1.33,1.33,0,0,1,.11.41.13.13,0,0,1,0,.08q-.23.28-.7.92c-.05.07-.09.11-.12.11a.05.05,0,0,1-.06-.06.27.27,0,0,1,0-.12,4.46,4.46,0,0,0,.31-.72,3.86,3.86,0,0,0,.2-.83l0,0-2,.25a4.53,4.53,0,0,1,.64.81.49.49,0,0,1,.16.3,1.5,1.5,0,0,1,0,.31q-.08.23-.14.23c-.05,0-.09-.05-.11-.16a7.84,7.84,0,0,0-.58-1.34.28.28,0,0,1,0-.14l-.84.11a9,9,0,0,1,.08,1.28v2.5c0,.21-.06.31-.19.31s-.12-.09-.19-.28a1.16,1.16,0,0,1-.12-.53,1.29,1.29,0,0,1,0-.25,11.25,11.25,0,0,0,.08-1.44,21.36,21.36,0,0,0-.08-2.14c0-.28,0-.44,0-.47A.06.06,0,0,1,2.5,9.08ZM6.81,6.31a.55.55,0,0,1,.27.09c.11.06.17.11.17.16s0,.05-.06.06q-2.77.17-3.53.27l-.59,0a.48.48,0,0,1-.23-.11c-.09-.09-.14-.16-.14-.2h.06q2.69-.14,3.53-.28ZM3.13,7.2c.08,0,.17.08.25.23a1.72,1.72,0,0,1,.11.23l2.77-.3a.27.27,0,0,0,.23-.17c.07-.08.12-.12.14-.12a.46.46,0,0,1,.19.11c.08.09.13.16.13.19s0,0-.06.06a.54.54,0,0,0-.14.33l-.09.48h0l.23.11c.09.07.14.13.14.16s-.08.06-.25.09l-3.25.31v.33s0,.06-.12.06-.12-.1-.22-.3a1.1,1.1,0,0,1-.09-.39.27.27,0,0,1,0-.12,3.13,3.13,0,0,0,0-.39q0-.28,0-.62c0-.12,0-.2,0-.23Zm3.25,4.3a.51.51,0,0,1,.22.08c.1.06.16.13.16.19s0,.05-.06.06L5.19,12v2a.06.06,0,0,1-.06.06s-.1-.09-.2-.28a1.07,1.07,0,0,1-.11-.41,3.38,3.38,0,0,1,.08-.5,6,6,0,0,0,0-.83l-.7.09-.42,0A.48.48,0,0,1,3.58,12q-.14-.14-.14-.19H3.5q1.91-.17,2.48-.3ZM3.55,8.67a25.09,25.09,0,0,0,2.8-.36l.13-.73-2.94.34v.14Q3.53,8.39,3.55,8.67Zm9-3.11a1.08,1.08,0,0,1,.41.13c.15.13.22.21.22.25s0,.13-.06.13q-1.27.11-2.8.28l1.33,3.92q.19.59.75,1.86a2.81,2.81,0,0,0,2,1.38c.08,0,.13.05.13.13s0,.14-.06.14a11.74,11.74,0,0,1-1.81.23c-.12,0-.21-.09-.27-.27L10.2,7.09q0,.23,0,.44a25,25,0,0,1-.42,2.61A10.49,10.49,0,0,1,9,12.25a8.27,8.27,0,0,1-.84,1.55q-.5.72-.62.72a.06.06,0,0,1-.06-.06.52.52,0,0,1,.08-.25,10.22,10.22,0,0,0,.84-1.44A12.35,12.35,0,0,0,9,11a19.91,19.91,0,0,0,.53-2.55q.12-.92.2-2.08-1,.11-1.33.17a.62.62,0,0,1-.2,0,1,1,0,0,1-.39-.16c-.16-.11-.23-.19-.23-.22a.06.06,0,0,1,.06-.06Q8.89,6.11,9.33,6L9.81,6q0-.41,0-.81.08-1.64.08-2.66,0-.64,0-1.39C9.84.76,9.81.54,9.81.45A.13.13,0,0,1,9.94.39s.17.15.38.44a1.41,1.41,0,0,1,.31.61,3.25,3.25,0,0,1-.06.38,12.54,12.54,0,0,0-.19,2.06q0,1.14-.09,2.06l.11,0,1.19-.16a2.83,2.83,0,0,0,.64-.14ZM11,2.81a.36.36,0,0,1,.22.11A7.56,7.56,0,0,1,12.38,4a.59.59,0,0,1,.25.39,1.37,1.37,0,0,1-.06.34q-.11.27-.19.27c-.09,0-.16-.06-.2-.19a8.89,8.89,0,0,0-1.06-1.7A.48.48,0,0,1,11,2.88Z"/><path class="cls-1" d="M6.44,16.19a1.79,1.79,0,0,1,.47.22q.41.22.41.28a3.47,3.47,0,0,1-.12.78,27.07,27.07,0,0,0-.12,2.78v2q1.25-.19,2.67-.36a5.1,5.1,0,0,0,1.19-.25,1.72,1.72,0,0,1,.33,0,1.43,1.43,0,0,1,.48.16,1.2,1.2,0,0,1,.33.22c0,.07,0,.11-.06.13l-4.94.55v5.78a52.7,52.7,0,0,0,5.72-.61,1.59,1.59,0,0,1,.41-.08,1.85,1.85,0,0,1,.55.23c.27.17.41.27.41.31s0,.08-.14.08q-3,.12-7.77.47-4.19.31-4.53.41l-.45,0a1.17,1.17,0,0,1-.58-.23q-.23-.17-.23-.27t.19-.12q1.37,0,6-.2v-10a12.3,12.3,0,0,0-.11-1.59,4.63,4.63,0,0,1-.14-.67A.06.06,0,0,1,6.44,16.19Z"/><path class="cls-1" d="M4.94,32.81q.12,0,.3.41a2.37,2.37,0,0,1,.14.47s0,.05-.06.06l-.48.33a6.63,6.63,0,0,1-.91.56A8.2,8.2,0,0,1,3,35a1.13,1.13,0,0,1,0,.17l.16,1.72a10,10,0,0,0,1.55-.31l.17,0a.91.91,0,0,1,.27.14c.11.08.17.14.17.17s-.05.07-.16.09l-2,.33.17,1.89A13.34,13.34,0,0,0,5,38.91l.17,0a1.1,1.1,0,0,1,.28.13c.1.09.16.16.16.2s-.05.06-.16.08q-1.09.13-2,.27l.2,2.38,2.64-.12V39.44a4.06,4.06,0,0,0-.09-.81,1.59,1.59,0,0,1-.08-.44s0-.06.11-.06a.62.62,0,0,1,.3.16q.27.23.27.34a.57.57,0,0,1-.06.28,2.17,2.17,0,0,0-.06.53v2.34l.27,0,.92-.08.23-4.78-1,.17a.76.76,0,0,0-.45.17.52.52,0,0,1-.2.13c-.05,0-.13-.05-.23-.16A.33.33,0,0,1,6.06,37a.75.75,0,0,1,0-.22,1.44,1.44,0,0,0,.16-.69q.08-1,.11-2.22,0-.44,0-1.06c0-.43,0-.68,0-.75A.06.06,0,0,1,6.38,32c.06,0,.2.1.41.3s.34.42.34.52a1.21,1.21,0,0,1-.16.47,1.93,1.93,0,0,0-.16.72l0,.42a10.31,10.31,0,0,0,1.44-.27l.16,0a1,1,0,0,1,.27.13c.11.09.17.16.17.2s-.05.06-.16.08l-1.91.27-.11,2,1.23-.22a.33.33,0,0,0,.31-.23c.08-.18.15-.27.19-.27s.12.06.23.17.2.27.2.33a.36.36,0,0,1-.11.2.56.56,0,0,0-.14.38l-.3,4.52,2.63-.23.2-2.45L10,39.14a1.78,1.78,0,0,1-.42.06A.74.74,0,0,1,9.23,39c-.12-.08-.17-.14-.17-.16s0,0,.06-.06l2-.22.16-2-1.08.19a2.18,2.18,0,0,1-.45.06.82.82,0,0,1-.33-.14.89.89,0,0,1-.17-.16s0-.05.06-.06l2-.3.17-2-1.69.3a.86.86,0,0,1-.23.06.44.44,0,0,1-.3-.16q-.14-.11-.14-.17s0,0,.06-.06l1.88-.3a.58.58,0,0,0,.41-.3c.1-.22.18-.33.22-.33s.14.08.27.25a1.05,1.05,0,0,1,.23.38c0,.07-.06.17-.19.3a1.23,1.23,0,0,0-.12.53l-.55,6.72q1.19-.16,1.7-.28a1.22,1.22,0,0,1,.41-.09,1.49,1.49,0,0,1,.53.25q.41.25.41.31s0,.06-.12.06q-3.06.16-8,.52-4.3.34-4.66.42a2.6,2.6,0,0,1-.45.06,1.17,1.17,0,0,1-.58-.23c-.16-.11-.23-.2-.23-.27S.44,42,.56,42q.8,0,2.67-.06L3,37.86q0-1.14-.28-3.06-.19-1.11-.19-1.23V33.5q.11,0,.36.73a5,5,0,0,1,.17.63,6,6,0,0,0,1.13-.94,3.69,3.69,0,0,0,.73-1.06S4.93,32.81,4.94,32.81ZM5,42.45q.12,0,.3.45a2.81,2.81,0,0,1,.14.53.23.23,0,0,1-.08.16q-.39.41-.77.86a16.45,16.45,0,0,1-1.36,1.47,10.91,10.91,0,0,1-1.34,1L1.75,47a.06.06,0,0,1-.06-.06.21.21,0,0,1,.08-.14,13,13,0,0,0,2-2.08,7,7,0,0,0,1.16-2.17Q5,42.45,5,42.45Zm4.56.06a.67.67,0,0,1,.39.2,14.21,14.21,0,0,1,2,2,1.48,1.48,0,0,1,.44.81,3.9,3.9,0,0,1-.08.66q-.06.36-.23.36t-.19-.28a16.11,16.11,0,0,0-2.23-3.39.45.45,0,0,1-.14-.28S9.52,42.52,9.56,42.52Z"/><path class="cls-1" d="M9.25,48q.09,0,.3.44a2.3,2.3,0,0,1,.14.56.31.31,0,0,1-.09.19q-.5.61-1.45,2L9.34,51a7.74,7.74,0,0,0,1.11-.14l.48-.06a1,1,0,0,1,.39.13c.16.13.23.21.23.27s0,.11-.06.11l-4.19.27v1.7l1.34-.12a6.2,6.2,0,0,0,.81-.09L9.81,53a1,1,0,0,1,.41.14c.15.11.22.19.22.23s0,.13-.06.13l-3.06.19v1.64H7.5l2.22-.16a10.11,10.11,0,0,0,1.2-.11l.52-.06a.89.89,0,0,1,.39.14q.23.17.23.23c0,.08,0,.13-.06.13q-2.27.09-5,.25a2.39,2.39,0,0,1,.22.27,1,1,0,0,1,.25.5.38.38,0,0,1-.08.25q-.08.23-.34.91l0,.11a34.78,34.78,0,0,0,4.7-.58,1,1,0,0,1,.31-.06,1.72,1.72,0,0,1,.53.23q.41.25.41.31c0,.05,0,.08-.12.08q-2.16.11-5.42.36l1.34,1.09a21.68,21.68,0,0,0,2.75,1.86,8.38,8.38,0,0,0,2.45.55s.06,0,.06.14,0,.17-.12.17l-1.56.16a7.22,7.22,0,0,1-.81.09.41.41,0,0,1-.31-.16q-1-.91-2.41-2.17L6.92,58.17H6.86a5.86,5.86,0,0,1-1,1.69,8,8,0,0,1-2.06,1.67,10.36,10.36,0,0,1-1.94.91,2.27,2.27,0,0,1-.7.19.06.06,0,0,1-.06-.06s0,0,.06,0a14.28,14.28,0,0,0,2.5-1.31A8,8,0,0,0,5.25,60,7.09,7.09,0,0,0,6.34,58.2q-3.31.3-3.61.38a2,2,0,0,1-.36,0,1.17,1.17,0,0,1-.58-.23c-.16-.11-.23-.2-.23-.27s.06-.12.19-.12q1.11,0,4.73-.19a7.91,7.91,0,0,0,.27-2Q4,55.89,3.38,56L3,56a1,1,0,0,1-.39-.16c-.16-.11-.23-.19-.23-.22a.06.06,0,0,1,.06-.06l3.09-.12,1.28-.08V53.73q-1.77.11-2.19.17l-.25,0A1,1,0,0,1,4,53.78c-.16-.11-.23-.19-.23-.22a.06.06,0,0,1,.06-.06q1.5-.06,2.06-.11l.94-.08V51.63H6.69q-2.5.17-3.08.27a2,2,0,0,1-.36,0,1,1,0,0,1-.39-.16c-.16-.11-.23-.19-.23-.22a.06.06,0,0,1,.06-.06q2.06-.09,2.84-.16l1.8-.14.39,0,.06-.08a8.15,8.15,0,0,0,.77-1.37,5.85,5.85,0,0,0,.52-1.58A.2.2,0,0,1,9.25,48Zm-4.94.63a.5.5,0,0,1,.27.11,9,9,0,0,1,1.31,1c.2.15.3.27.3.36a1.59,1.59,0,0,1-.08.41q-.14.28-.23.28a.26.26,0,0,1-.25-.17,7.87,7.87,0,0,0-1.25-1.72.46.46,0,0,1-.12-.23A.06.06,0,0,1,4.31,48.63Z"/><path class="cls-1" d="M4.06,64.19q.08,0,.31.45a2.27,2.27,0,0,1,.19.5.38.38,0,0,1-.09.19,3.34,3.34,0,0,0-.23.73q-.23.7-.53,1.41a10.8,10.8,0,0,1-.53,1l2.52-.45a.28.28,0,0,0,.25-.16c.09-.19.16-.28.2-.28a.59.59,0,0,1,.31.17q.23.17.23.27a.55.55,0,0,1-.16.3,1.54,1.54,0,0,0-.09.52q-.11,2.23-.12,4,0,2-.17,3.16c-.08.54-.17.81-.27.81s-.15-.11-.25-.33a1.68,1.68,0,0,1-.12-.48,1.19,1.19,0,0,1,0-.27.66.66,0,0,1-.2.06l-2.83.31v0a7.07,7.07,0,0,1,0,1q0,.23-.14.23a1.42,1.42,0,0,1-.23-.37,1.64,1.64,0,0,1-.14-.61A1.15,1.15,0,0,1,2,76a9.24,9.24,0,0,0,.06-1.28q0-2.17-.11-4.62Q1.84,68.81,1.69,68a2.7,2.7,0,0,1-.06-.52c0-.08,0-.12.06-.12s.18.23.33.69a3.14,3.14,0,0,1,.19.67L3,68.55A14.44,14.44,0,0,0,3.52,67a11,11,0,0,0,.34-1.48A7.26,7.26,0,0,0,4,64.25.06.06,0,0,1,4.06,64.19ZM2.5,75.8a17,17,0,0,0,2.31-.37l.25,0a.88.88,0,0,1,.3.16.75.75,0,0,1,.2.19.8.8,0,0,1,0-.16A9.43,9.43,0,0,0,5.77,74q.17-4.06.22-5.67L2.25,69v0q.08,1.63.13,2.94a15.37,15.37,0,0,0,2.14-.33l.23,0a.76.76,0,0,1,.27.13c.11.09.17.16.17.19S5.12,72,5,72l-2.59.31q0,1.19.06,2.11T2.5,75.8ZM8.94,64.06q.09,0,.34.52a2.07,2.07,0,0,1,.22.56.76.76,0,0,1-.16.36,5.53,5.53,0,0,0-.44,1.36q-.25.86-.55,1.69l3.52-.61a.53.53,0,0,0,.5-.31c.1-.17.19-.25.25-.25a1.05,1.05,0,0,1,.3.2q.22.25.2.36a.34.34,0,0,1-.14.23.84.84,0,0,0-.17.45q-.5,5.94-.77,7.59a8.85,8.85,0,0,1-.52,2q-.2.52-.34.52s-.66-.84-1.87-2.53a.47.47,0,0,1-.12-.28v-.06a.39.39,0,0,1,.28.16,8.78,8.78,0,0,0,1.59,1.41q.22,0,.36-.73a34.58,34.58,0,0,0,.58-4q.23-2.41.3-4.34l-3.23.63H8.75a.81.81,0,0,1-.39-.14l-.08,0c-.09.26-.19.51-.3.73a15.34,15.34,0,0,1-1,2.14q-.16.23-.19.23s-.06,0-.06,0a.84.84,0,0,1,.06-.27,16,16,0,0,0,1.11-2.64,19.19,19.19,0,0,0,.73-2.58,9.55,9.55,0,0,0,.28-2.22A.06.06,0,0,1,8.94,64.06Zm-.69,6.81c.06,0,.15.05.25.16a9.21,9.21,0,0,1,1.23,1.52.9.9,0,0,1,.27.53,1.27,1.27,0,0,1-.08.38q-.14.31-.23.31c-.09,0-.17-.08-.22-.25a12,12,0,0,0-1.16-2.27.6.6,0,0,1-.12-.31A.06.06,0,0,1,8.25,70.88Z"/><path class="cls-1" d="M3.63,86.06s.13.1.27.3a1.06,1.06,0,0,1,.17.33c0,.05,0,.11-.12.19a11.79,11.79,0,0,0-1.3,1.8A.72.72,0,0,0,2.5,89a.67.67,0,0,0,.16.33,4.23,4.23,0,0,1,.5.8,1.14,1.14,0,0,1,.16.5,4,4,0,0,1-.36,1,6.08,6.08,0,0,1-.45.69,13.64,13.64,0,0,1,1.83.3q1.7.44,4,.8a19.69,19.69,0,0,0,2.86.39,6,6,0,0,0,2-.27,4.89,4.89,0,0,1,.78-.12c.08,0,.13,0,.13.06v.19L12,94.55a3.6,3.6,0,0,1-.73.27,1.1,1.1,0,0,1-.47-.11q-4.42-1.36-6.39-1.81a8.74,8.74,0,0,0-1.7-.27,4.08,4.08,0,0,0-.86.08,2.65,2.65,0,0,1-.7.11.71.71,0,0,1-.41-.16c-.1-.09-.16-.16-.16-.2s0-.08.14-.11.47,0,.73,0l.78,0a3.07,3.07,0,0,1,.25-.45,2.39,2.39,0,0,0,.41-1.25,2.3,2.3,0,0,0-.58-1.39.27.27,0,0,1,0-.45,3.19,3.19,0,0,0,.56-.94,3.27,3.27,0,0,0,.33-.91l-1.11.22q-.61.09-.84.16a1.56,1.56,0,0,1-.39.06.65.65,0,0,1-.36-.12c-.14-.09-.2-.15-.2-.17s0-.08.06-.08l2.3-.34a1.2,1.2,0,0,0,.64-.36A1.14,1.14,0,0,1,3.63,86.06ZM1.75,81.88A.46.46,0,0,1,2,82a8.66,8.66,0,0,1,1.28,1.11q.28.25.28.39a1.59,1.59,0,0,1-.08.41q-.14.28-.23.28A.28.28,0,0,1,3,84a8.38,8.38,0,0,0-1.19-1.81.45.45,0,0,1-.12-.25A.06.06,0,0,1,1.75,81.88Zm4.44-1.62q.08,0,.3.41a2,2,0,0,1,.2.55.27.27,0,0,1-.09.19,3.47,3.47,0,0,0-.52.84q-.2.41-.39.73l1.56-.22a.46.46,0,0,0,.36-.22c.1-.19.17-.28.2-.28s.13.08.28.23.22.23.22.27a.28.28,0,0,1-.16.25,3.55,3.55,0,0,0-.8,1l-.58,1,1-.16a.37.37,0,0,0,.3-.2c.11-.15.18-.22.2-.22s.1.06.2.17a.76.76,0,0,1,.17.25.62.62,0,0,1-.08.17.61.61,0,0,0-.11.33v6.78c0,.06,0,.21,0,.44l-.06.34q0,.2-.14.2S8.11,93,8,93a12.63,12.63,0,0,0-1.12-1.31.14.14,0,0,1,0-.09.39.39,0,0,1,.17,0,4,4,0,0,0,1,.45S8,92,8,92s0-.23,0-.39,0-.3,0-.56V85l-1.31.23v1.55l.45-.09.3,0a.63.63,0,0,1,.27.08c.11.07.17.13.17.17s0,.05-.06.06l-1.12.14v1.5l.5-.09.31,0a.61.61,0,0,1,.25.08q.19.09.19.16s0,.05-.06.06q-1.59.17-2,.27a1.7,1.7,0,0,1-.34.06A.51.51,0,0,1,5.31,89c-.08-.08-.12-.15-.12-.19h.06l1.13-.12V87.2L6,87.27l-.33,0a.56.56,0,0,1-.25-.11c-.08-.09-.12-.16-.12-.2h.06l1.06-.12V85.33l-1.25.2v0q0,5.42.06,6.44a2.59,2.59,0,0,1-.08.5c0,.13-.09.19-.17.19s-.1-.14-.22-.41a1.77,1.77,0,0,1-.09-.59.71.71,0,0,1,.06-.25,2,2,0,0,0,.09-.59q0-1.28,0-4.66A9.24,9.24,0,0,0,4.75,85a3.72,3.72,0,0,1-.06-.56v-.06a11.24,11.24,0,0,1-1,1q-.08.09-.14.09a.05.05,0,0,1-.06-.06s0-.08.09-.11a12.73,12.73,0,0,0,1.22-1.64,10.19,10.19,0,0,0,1.09-2.09,3.4,3.4,0,0,0,.28-1.28Zm-1.11,5L6.56,85a.72.72,0,0,1,.09-.25l.86-1.69L6.3,83.3l-.2,0-.09,0a.74.74,0,0,1-.33-.11l-.11-.08A9.54,9.54,0,0,1,5,84a4.14,4.14,0,0,1-.27.33s.12.18.23.53C5,85,5.06,85.14,5.08,85.25Zm4.55,1.14s.11.11.22.34a1.88,1.88,0,0,1,.16.41s0,.06-.09.11a1.62,1.62,0,0,0-.23.42,2.14,2.14,0,0,1-.19.33l1.45-.11v-.06a8.88,8.88,0,0,0-.11-1.47,2.19,2.19,0,0,1-.14-.48s0,0,.06,0a1.14,1.14,0,0,1,.39.25c.2.17.3.29.3.38a1.4,1.4,0,0,1-.06.44,4,4,0,0,0-.06.88v.09l1-.12a2.88,2.88,0,0,1,.45,0,.65.65,0,0,1,.3.09c.13.06.2.11.2.16s0,.11-.06.13l-1.87.16v1.61l.89-.11a4.1,4.1,0,0,0,.58-.11l.28,0a.85.85,0,0,1,.34.11c.15.1.22.17.22.2s0,.13-.06.13l-2.25.19V92a7.56,7.56,0,0,1-.06,1c0,.3-.08.45-.12.45s-.13-.16-.27-.47a1,1,0,0,1-.11-.41,1.25,1.25,0,0,1,0-.28,1,1,0,0,0,.11-.52,13.18,13.18,0,0,0,0-1.37v-.17a16,16,0,0,0-1.69.19.61.61,0,0,1-.19,0,1,1,0,0,1-.36-.16c-.14-.08-.2-.14-.2-.17a.06.06,0,0,1,.06-.06Q9.69,90,10.11,90l.83-.08V88.25l-.69.08a3.78,3.78,0,0,1-.5.06.54.54,0,0,1-.28-.16.39.39,0,0,1-.09-.09l-.23.38a5,5,0,0,1-.61.67l-.09.06a.15.15,0,0,1,0-.08,7.71,7.71,0,0,0,.58-1,8.24,8.24,0,0,0,.38-1,3.23,3.23,0,0,0,.14-.83Zm3.25-4.83q.09,0,.28.2a1.53,1.53,0,0,1,.22.3.46.46,0,0,1-.17.22,1,1,0,0,0-.2.34q-.48,1.86-.72,2.56t-.47.81c-.05,0-.1,0-.14-.11a9.48,9.48,0,0,0-.84-1.11.27.27,0,0,1-.08-.16v-.06l.16.06a2.23,2.23,0,0,0,.78.52c.07,0,.14-.07.2-.22a8.61,8.61,0,0,0,.53-1.77q.06-.3.13-.81l-1.73.2a8.19,8.19,0,0,1-.31,1.31,3.67,3.67,0,0,1-.52,1,5.34,5.34,0,0,1-.87,1C9,86,9,86,8.94,86a.05.05,0,0,1-.06-.06.11.11,0,0,1,.06-.11,7.12,7.12,0,0,0,.89-1.33,6.72,6.72,0,0,0,.36-1.06,4.6,4.6,0,0,0,.11-.84l-.77.11-.34,0a.65.65,0,0,1-.3-.11c-.09-.05-.14-.09-.14-.12s0-.06.14-.06q2.16-.19,3.42-.39a.48.48,0,0,0,.36-.27C12.77,81.64,12.83,81.56,12.88,81.56Z"/><path class="cls-1" d="M3.94,101.83s.13.09.28.28a.87.87,0,0,1,.16.34.38.38,0,0,1-.09.19,8.21,8.21,0,0,0-1.09,1.72.86.86,0,0,0-.12.33.57.57,0,0,0,.14.28q.14.2.42.7a1.11,1.11,0,0,1,.13.45,3.59,3.59,0,0,1-.33.94,3.74,3.74,0,0,1-.42.67,12.52,12.52,0,0,1,1.3.25,37.47,37.47,0,0,0,4,.91,18.58,18.58,0,0,0,2.88.42,7.66,7.66,0,0,0,2.16-.25,5.66,5.66,0,0,1,.84-.12c.08,0,.13,0,.13.06v.2l-2.27.88a4,4,0,0,1-.8.31,1,1,0,0,1-.47-.12q-4.38-1.5-6.34-2a7.72,7.72,0,0,0-1.69-.3,4.87,4.87,0,0,0-.94.08,2.89,2.89,0,0,1-.75.11A.72.72,0,0,1,.63,108q-.19-.16-.19-.23c0-.05.05-.09.16-.11s.5,0,.78,0a9.73,9.73,0,0,1,1.38.09,1.36,1.36,0,0,1,.23-.47,2.33,2.33,0,0,0,.33-1.12,2.11,2.11,0,0,0-.47-1.23.25.25,0,0,1-.09-.2.3.3,0,0,1,.11-.2,3.33,3.33,0,0,0,.42-.92,3.72,3.72,0,0,0,.27-.87l-1.19.17a8.56,8.56,0,0,0-.89.14,1.31,1.31,0,0,1-.41.08.62.62,0,0,1-.36-.16c-.14-.08-.2-.14-.2-.17a.06.06,0,0,1,.06-.06L3,102.36a1.23,1.23,0,0,0,.66-.33A.89.89,0,0,1,3.94,101.83Zm-2-4a.58.58,0,0,1,.28.11A10.67,10.67,0,0,1,3.63,99q.31.3.31.47a4.16,4.16,0,0,1-.06.58q-.06.31-.19.31s-.08-.06-.12-.19A10.86,10.86,0,0,0,2,98a.26.26,0,0,1-.09-.17S1.9,97.83,1.94,97.83Zm8.94-1a1.23,1.23,0,0,1,.44.25q.38.3.38.38s0,.05-.06.06a9,9,0,0,0-1.12.53A17.46,17.46,0,0,1,8,99.19a8.4,8.4,0,0,1-1,.28q0,1-.11,2.19a15,15,0,0,1-.42,2.23,9.73,9.73,0,0,1-.77,1.91,11.32,11.32,0,0,1-1,1.45c-.06.08-.1.13-.12.13a.05.05,0,0,1-.06-.06.52.52,0,0,1,.06-.23,9,9,0,0,0,.75-1.19,6.42,6.42,0,0,0,.56-1.39,11.38,11.38,0,0,0,.47-2,21.86,21.86,0,0,0,.16-2.89,5.51,5.51,0,0,0-.14-1.06,5.93,5.93,0,0,1-.11-.73c0-.05,0-.08.13-.08a2,2,0,0,1,.31.55,2.62,2.62,0,0,1,.31,1,14.13,14.13,0,0,0,2.39-1.12A3.88,3.88,0,0,0,10.69,97Q10.78,96.88,10.88,96.88Zm1.75,3.69a.89.89,0,0,1,.39.14q.23.17.23.23c0,.09,0,.14-.06.14q-1.47.13-3.28.34t-2.11.27a.51.51,0,0,1-.23.08,1.06,1.06,0,0,1-.39-.19q-.23-.16-.23-.2a.06.06,0,0,1,.06-.06q1.41-.09,1.94-.17l1.23-.16,1.38-.19a4.66,4.66,0,0,0,.75-.16Zm-5.25,2.38s.11.18.22.55a2.4,2.4,0,0,1,.09.44l2.88-.55a1,1,0,0,0,.72-.3c.17-.22.28-.33.34-.33s.15.08.27.25.25.31.25.38a.44.44,0,0,1-.14.25.87.87,0,0,0-.12.38l-.34,2.53.16,0a.88.88,0,0,1,.3.16c.13.09.2.16.2.2s-.11.07-.33.09l-4,.33v.53q0,.36-.19.36s-.1-.1-.19-.3a1.47,1.47,0,0,1-.12-.58c0-.06,0-.15,0-.25s.05-.69.06-1.41a15.85,15.85,0,0,0-.11-2.17c0-.28,0-.44,0-.48S7.29,102.94,7.38,102.94Zm.44,4q2.39-.19,3.27-.33l.28-2.86-3.61.55q0,.55.06,1.28Z"/><path class="cls-1" d="M33.2,0q.09,0,.3.44a2.3,2.3,0,0,1,.14.56.31.31,0,0,1-.09.19q-.5.61-1.45,2L33.29,3a7.74,7.74,0,0,0,1.11-.14l.48-.06a1,1,0,0,1,.39.13c.16.13.23.21.23.27s0,.11-.06.11l-4.19.27v1.7l1.34-.12a6.2,6.2,0,0,0,.81-.09L33.76,5a1,1,0,0,1,.41.14c.15.11.22.19.22.23s0,.13-.06.13l-3.06.19V7.33h.19l2.22-.16a10.11,10.11,0,0,0,1.2-.11L35.38,7a.89.89,0,0,1,.39.14q.23.17.23.23c0,.08,0,.13-.06.13q-2.27.09-5,.25a2.39,2.39,0,0,1,.22.27,1,1,0,0,1,.25.5.38.38,0,0,1-.08.25q-.08.23-.34.91l0,.11a34.78,34.78,0,0,0,4.7-.58,1,1,0,0,1,.31-.06,1.72,1.72,0,0,1,.53.23q.41.25.41.31c0,.05,0,.08-.12.08q-2.16.11-5.42.36l1.34,1.09a21.68,21.68,0,0,0,2.75,1.86,8.38,8.38,0,0,0,2.45.55s.06,0,.06.14,0,.17-.12.17l-1.56.16a7.22,7.22,0,0,1-.81.09.41.41,0,0,1-.31-.16q-1-.91-2.41-2.17l-1.86-1.69h-.06a5.86,5.86,0,0,1-1,1.69,8,8,0,0,1-2.06,1.67,10.36,10.36,0,0,1-1.94.91,2.27,2.27,0,0,1-.7.19.06.06,0,0,1-.06-.06s0,0,.06,0a14.28,14.28,0,0,0,2.5-1.31A8,8,0,0,0,29.2,12a7.09,7.09,0,0,0,1.09-1.77q-3.31.3-3.61.38a2,2,0,0,1-.36,0,1.17,1.17,0,0,1-.58-.23c-.16-.11-.23-.2-.23-.27s.06-.12.19-.12q1.11,0,4.73-.19a7.91,7.91,0,0,0,.27-2Q28,7.89,27.32,8l-.37,0a1,1,0,0,1-.39-.16c-.16-.11-.23-.19-.23-.22a.06.06,0,0,1,.06-.06l3.09-.12,1.28-.08V5.73q-1.77.11-2.19.17l-.25,0a1,1,0,0,1-.39-.16c-.16-.11-.23-.19-.23-.22a.06.06,0,0,1,.06-.06q1.5-.06,2.06-.11l.94-.08V3.63h-.12q-2.5.17-3.08.27a2,2,0,0,1-.36,0,1,1,0,0,1-.39-.16c-.16-.11-.23-.19-.23-.22a.06.06,0,0,1,.06-.06q2.06-.09,2.84-.16l1.8-.14.39,0,.06-.08a8.15,8.15,0,0,0,.77-1.37A5.85,5.85,0,0,0,33,.14.2.2,0,0,1,33.2,0ZM28.26.63a.5.5,0,0,1,.27.11,9,9,0,0,1,1.31,1c.2.15.3.27.3.36a1.59,1.59,0,0,1-.08.41q-.14.28-.23.28a.26.26,0,0,1-.25-.17A7.87,7.87,0,0,0,28.32.92.46.46,0,0,1,28.2.69.06.06,0,0,1,28.26.63Z"/><path class="cls-1" d="M30.45,20.31s.08,0,.14.09a4.72,4.72,0,0,1,.75.86.53.53,0,0,1,.17.3,1.55,1.55,0,0,1-.06.36.07.07,0,0,1,0,0l1.09-.09a16,16,0,0,0,2.34-.33,6.29,6.29,0,0,1,.64,0,1.09,1.09,0,0,1,.41.14q.28.2.28.23a.06.06,0,0,1-.06.06l-3.59.28a.86.86,0,0,1,.22.41.25.25,0,0,1-.06.16,1.17,1.17,0,0,0-.06.17l0,.52,1.72-.16a.5.5,0,0,0,.39-.2q.17-.23.23-.23c.05,0,.13.05.25.16s.19.22.19.28a.23.23,0,0,1-.06.13,1.15,1.15,0,0,0-.17.42q-.11.59-.22,1.08a1.09,1.09,0,0,1,.3.09c.15.11.22.19.22.22s0,.13-.06.13l-2.72.17,0,0c.2.18.3.3.3.36a1.11,1.11,0,0,1-.12.45,2.58,2.58,0,0,0-.19,1v.42a10.67,10.67,0,0,0,1.7-.94,3.39,3.39,0,0,0,1-1l.08,0c.07,0,.16.13.25.38a2.18,2.18,0,0,1,.13.44s0,0-.06.06a5.69,5.69,0,0,0-.67.31q-.56.28-1.22.53a8.57,8.57,0,0,1-1.17.39l-.06,0v.77a1,1,0,0,0,.11.55.43.43,0,0,0,.33.22,3.94,3.94,0,0,0,1.06.09,10,10,0,0,0,1.3-.08,3.22,3.22,0,0,0,.77-.2.37.37,0,0,0,.16-.27,12.37,12.37,0,0,0,.16-1.87c0-.08,0-.12.06-.12s.05,0,.06.13a9.81,9.81,0,0,0,.47,2,.72.72,0,0,1,.09.3.14.14,0,0,1-.12.14,6.91,6.91,0,0,1-1.22.31,11.52,11.52,0,0,1-1.59.11,7.6,7.6,0,0,1-1-.06,2.21,2.21,0,0,1-.56-.16.82.82,0,0,1-.33-.33,1.12,1.12,0,0,1-.11-.53V25.56l-1.27.09q-2,.14-2.64.22l.17.19c.2.22.3.37.3.45a1.62,1.62,0,0,1,0,.36,1.63,1.63,0,0,0-.08.55,17.06,17.06,0,0,0,2-.31l.22,0a1,1,0,0,1,.27.13c.11.08.17.14.17.17s-.07.07-.2.09q-1.36.17-2.48.34v1.66l2.66-.86a.37.37,0,0,1,.16,0,.06.06,0,0,1,.06.06s0,.07-.14.11a26.07,26.07,0,0,0-2.81,1.56.29.29,0,0,1-.23.09s-.1-.06-.22-.19a.44.44,0,0,1-.14-.27.37.37,0,0,1,0-.16,1.35,1.35,0,0,0,.17-.42,4.5,4.5,0,0,0,.08-1v-.94a7.76,7.76,0,0,0-.08-1l-.09-.45-.27,0a1,1,0,0,1-.34-.12c-.15-.09-.22-.16-.22-.19a.06.06,0,0,1,.06-.06l2.38-.12q0-.7,0-1.34-.94.09-1.44.19l-.39,0a.54.54,0,0,1-.3-.16.26.26,0,0,1-.14-.22.06.06,0,0,1,.06-.06l2.2-.14,0-.87a2.06,2.06,0,0,0,0-.39l-2.52.19a.48.48,0,0,1,0,.09q0,1.08-.12,2.33a11.26,11.26,0,0,1-.47,2.14A8.5,8.5,0,0,1,25.76,29a10.53,10.53,0,0,1-1.11,1.42c-.07.07-.12.11-.14.11s-.06,0-.06,0a.46.46,0,0,1,.08-.25,10.51,10.51,0,0,0,.84-1.12A5.89,5.89,0,0,0,26,27.81a11.07,11.07,0,0,0,.53-2,18.06,18.06,0,0,0,.17-2.75A5.59,5.59,0,0,0,26.56,22a5.42,5.42,0,0,1-.11-.73s0,0,.13,0a2.88,2.88,0,0,1,.31.55,5.59,5.59,0,0,1,.23.59l4-.34a8.38,8.38,0,0,0-.61-1.42.47.47,0,0,1-.06-.19Zm-.19-3.56a.75.75,0,0,1,.31.11c.13.09.19.17.19.22v.06q-1.06.08-2.36.22t-1.53.17l-.17,0a.72.72,0,0,1-.31-.14c-.12-.08-.19-.14-.19-.17s0,0,.06,0q1-.06,1.38-.11l.88-.09,1-.12A4.18,4.18,0,0,0,30,16.8Zm-3.37,1.38c.11,0,.22.09.31.27a1.91,1.91,0,0,1,.08.28l2.23-.28a.52.52,0,0,0,.41-.16.75.75,0,0,1,.28-.17.55.55,0,0,1,.17.11c.09.09.14.17.14.22a.31.31,0,0,1-.06.16,1,1,0,0,0-.12.39q-.09.78-.23,2.31s-.06.06-.08.06-.12-.05-.19-.16a.7.7,0,0,1-.06-.22,2.9,2.9,0,0,1,0-.3,7.46,7.46,0,0,0,.16-1c0-.28,0-.59.06-.92L27.32,19c0,.15,0,.3,0,.45q0,1.08,0,2s0,.06-.12.06-.13-.1-.27-.31a1.31,1.31,0,0,1-.11-.44,1.33,1.33,0,0,1,0-.3,7.76,7.76,0,0,0,0-.87q0-.45,0-1c0-.21,0-.33,0-.37Zm1.2,1.19s.07,0,.13.08a6.72,6.72,0,0,1,.66.81.57.57,0,0,1,.14.31,1.37,1.37,0,0,1-.06.34q-.11.28-.19.28c-.05,0-.09-.06-.11-.17a9.64,9.64,0,0,0-.52-1.41.59.59,0,0,1,0-.19ZM32.2,23.5q0-.42,0-.83a3,3,0,0,0,0-.42L30,22.44a.74.74,0,0,1,.2.38.52.52,0,0,1,0,.16,1,1,0,0,0,0,.2c0,.17,0,.34,0,.52l.72-.08Zm-2,.56,0,1.34,1.44-.11.45,0q0-.7.09-1.37L30.78,24Zm5.22-7.5a.66.66,0,0,1,.31.11q.19.14.19.2v.06l-2.33.2q-1.22.09-1.5.14l-.17,0a.77.77,0,0,1-.31-.12q-.19-.16-.19-.19a.06.06,0,0,1,.06-.06q1,0,1.36-.09l.86-.06,1-.09a4.18,4.18,0,0,0,.53-.08Zm-3.56,1.31c.1,0,.21.08.31.25a1.25,1.25,0,0,1,.11.36l2.39-.3A.55.55,0,0,0,35,18a.62.62,0,0,1,.28-.17l.17.11q.14.14.14.2a.31.31,0,0,1-.06.16,1.31,1.31,0,0,0-.12.41q-.11.72-.25,2.13s0,.06-.06.06-.11-.05-.17-.16a.59.59,0,0,1-.08-.22,1.58,1.58,0,0,1,0-.28c0-.16.09-.46.16-.92q0-.41,0-.83l-2.84.27a2.2,2.2,0,0,1,0,.36q0,1,0,1.92s0,.06-.12.06-.12-.11-.27-.34a1.07,1.07,0,0,1-.11-.41,1.21,1.21,0,0,1,0-.3,6.45,6.45,0,0,0,0-.81q0-.45,0-1c0-.2,0-.32,0-.36Zm.75,6q0,.66-.11,1.38l1-.08a6.54,6.54,0,0,0,1-.14l.14,0,.14-1.33ZM33,19.08a.24.24,0,0,1,.14.06,4,4,0,0,1,.7.73c.1.1.16.19.16.25a1.75,1.75,0,0,1-.06.38c-.07.17-.14.25-.19.25s-.09,0-.11-.14a7.19,7.19,0,0,0-.58-1.3.38.38,0,0,1-.06-.17Z"/><path class="cls-1" d="M26.63,41.25q.12,0,.3.41a2.37,2.37,0,0,1,.14.47.15.15,0,0,1-.06.13,8.2,8.2,0,0,0-.64.72A10.94,10.94,0,0,1,25.2,44.2a9.25,9.25,0,0,1-1.14.89l-.11,0a.06.06,0,0,1-.06-.06.19.19,0,0,1,.06-.14,10.85,10.85,0,0,0,1.64-1.75,6.29,6.29,0,0,0,1-1.84C26.59,41.28,26.61,41.25,26.63,41.25ZM30.76,35a1.34,1.34,0,0,1,.44.2c.21.13.31.2.31.23a.06.06,0,0,1-.06.06q-1.42.11-3.7.42a18.52,18.52,0,0,0-2.14.34.75.75,0,0,1-.22,0,1,1,0,0,1-.48-.19c-.14-.07-.2-.14-.2-.19s.06-.11.19-.11q.67,0,2.91-.22a12.85,12.85,0,0,0,2.78-.53A.34.34,0,0,1,30.76,35Zm-4.37,1.81c.11,0,.22.09.31.27a2.27,2.27,0,0,1,.13.56l2.31-.5a.87.87,0,0,0,.64-.3q.2-.28.31-.28c.05,0,.13.08.22.23a.69.69,0,0,1,.2.34.4.4,0,0,1-.12.22.6.6,0,0,0-.12.33L30,39.5h.06a1.12,1.12,0,0,1,.3.16q.19.16.19.22s-.09.08-.27.11l-1.87.16a0,0,0,0,1,0,0c.17.17.25.3.25.39a1,1,0,0,1-.06.34,3.39,3.39,0,0,0-.06.72v3.25a4.7,4.7,0,0,1-.19,1.22c-.07.24-.14.36-.19.36s-.14-.06-.2-.19a14.64,14.64,0,0,0-1.16-1.47.44.44,0,0,1-.08-.23v0a.56.56,0,0,1,.27.16,3,3,0,0,0,1.06.7s.07-.09.08-.28q0-.69,0-1.34V40.81a3,3,0,0,0-.06-.56l0-.08-1.22.13v.64s0,.06-.12.06-.13-.11-.27-.33a1.09,1.09,0,0,1-.11-.42,2.41,2.41,0,0,1,0-.41q0-.3,0-1.22,0-.58,0-1.28c0-.26,0-.42,0-.47Zm.48,3.11a26,26,0,0,0,2.78-.34l.16-2.09-3,.55v.39Q26.85,39.2,26.87,39.92Zm.2-7.41a.42.42,0,0,1,.23.11,7.82,7.82,0,0,1,1.19,1.16q.27.25.27.41a1.59,1.59,0,0,1-.08.41q-.14.28-.23.28c-.09,0-.17-.06-.22-.19a9.27,9.27,0,0,0-1.11-1.87.49.49,0,0,1-.11-.25S27,32.52,27.07,32.52Zm9.31,5a1.08,1.08,0,0,1,.41.13c.15.13.22.21.22.25s0,.13-.06.13l-3.09.27a1.11,1.11,0,0,1,.2.19q.33.3.33.42a1.71,1.71,0,0,1-.11.55,4.88,4.88,0,0,0-.14,1.27v3a5.62,5.62,0,0,0,.09,1.2q.08.42.27.52a1.5,1.5,0,0,0,.89.19,5.77,5.77,0,0,0,1.06-.09,2,2,0,0,0,.63-.25.6.6,0,0,0,.13-.34q.06-.39.13-2.31c0-.11,0-.17.06-.17s.06.06.06.17A12.51,12.51,0,0,0,38,45.08a.86.86,0,0,1,.13.36.17.17,0,0,1-.12.17A4,4,0,0,1,37,46a6.93,6.93,0,0,1-1.39.14,3,3,0,0,1-.94-.14,1,1,0,0,1-.52-.33,1.36,1.36,0,0,1-.33-.62,4.49,4.49,0,0,1-.09-1V40.25a9.72,9.72,0,0,0-.06-1.17c0-.43-.05-.69-.06-.8l-.19,0q-.06.66-.12,1.19a18.16,18.16,0,0,1-.61,2.72,9.7,9.7,0,0,1-1,2.22A8.38,8.38,0,0,1,30.45,46q-.7.73-.87.73a.06.06,0,0,1-.06-.06.42.42,0,0,1,.11-.23,9.07,9.07,0,0,0,1.27-1.53,8.34,8.34,0,0,0,.92-1.8,14.1,14.1,0,0,0,.78-2.67q.19-.94.33-2.11-1.16.11-1.47.17l-.25,0a1,1,0,0,1-.39-.16c-.16-.11-.23-.19-.23-.22a.06.06,0,0,1,.06-.06q1.45-.08,2-.14l.34,0c0-.32.06-.65.08-1q.11-1.7.11-2.78,0-.31,0-1.42c-.05-.41-.08-.62-.08-.64s0-.06.13-.06.21.17.47.52a1.51,1.51,0,0,1,.34.56,1.33,1.33,0,0,1-.09.39,10.84,10.84,0,0,0-.28,2.16q-.06,1.23-.14,2.22l.44,0,1.41-.17a4.66,4.66,0,0,0,.77-.12Zm-6.81,3.88a.4.4,0,0,1,.22.13,7.75,7.75,0,0,1,1.11,1.2.7.7,0,0,1,.23.44,1.41,1.41,0,0,1-.08.38q-.14.31-.23.31c-.09,0-.17-.07-.22-.22a8.68,8.68,0,0,0-1-1.92.49.49,0,0,1-.11-.25A.06.06,0,0,1,29.57,41.38Zm5-6.92a.45.45,0,0,1,.22.09,7.44,7.44,0,0,1,1,1.08c.17.16.25.28.25.38a1.34,1.34,0,0,1-.09.41q-.14.28-.23.28t-.19-.19a8.71,8.71,0,0,0-1-1.77.45.45,0,0,1-.09-.22A.06.06,0,0,1,34.57,34.45Z"/><path class="cls-1" d="M30.09,51.38a1.18,1.18,0,0,1,.42.13c.17.13.25.21.25.27s0,.11-.06.11l-3,.41q-1.58.23-2,.34a.59.59,0,0,1-.22.06,1.08,1.08,0,0,1-.44-.19c-.17-.12-.25-.21-.25-.25a.06.06,0,0,1,.06-.06q1.3-.11,1.78-.19l1.14-.16,1.27-.22a2.72,2.72,0,0,0,.69-.17A1.46,1.46,0,0,1,30.09,51.38Zm-.83,2.25a.73.73,0,0,1,.3.09c.13.06.2.11.2.16s0,.11-.06.13q-2.06.17-2.62.27l-.44,0a.57.57,0,0,1-.28-.14c-.1-.1-.16-.18-.16-.23h.06a21.54,21.54,0,0,0,2.61-.28Zm.25,1.81a.84.84,0,0,1,.3.08c.13.06.2.12.2.17s0,.12-.06.14q-2.19.17-2.78.25l-.47,0a.64.64,0,0,1-.3-.14q-.14-.16-.14-.22h.06q2.11-.17,2.77-.3Zm-3.12,1.38q.14,0,.33.56a2,2,0,0,1,.14.42l1.78-.42a.89.89,0,0,0,.64-.27c.13-.2.23-.3.3-.3s.13.07.23.22a.92.92,0,0,1,.2.34.4.4,0,0,1-.12.23.67.67,0,0,0-.12.33l-.28,2.55.22,0a.87.87,0,0,1,.3.16c.13.09.2.16.2.2s-.08.06-.25.08l-3,.28v.17a4.15,4.15,0,0,1-.11,1c0,.09-.05.14-.16.14s-.12-.12-.22-.36a2,2,0,0,1-.09-.53,2.93,2.93,0,0,1,0-.33q0-.45,0-1.61,0-.84,0-1.81c0-.52,0-.83,0-.94Zm.56,4q1.47-.14,2.14-.25l.22-2.81-2.42.42v0Q26.92,58.53,26.95,60.8Zm.56-12.23c.05,0,.11,0,.19.13a7.18,7.18,0,0,1,.91,1.25.78.78,0,0,1,.22.45,1.08,1.08,0,0,1-.09.38c-.08.21-.16.31-.22.31s-.13-.07-.17-.22a11,11,0,0,0-.8-2,.62.62,0,0,1-.09-.27A.06.06,0,0,1,27.51,48.56Zm9.44,2.64a1.09,1.09,0,0,1,.42.13c.18.11.27.19.27.23s0,.13-.06.13q-1.56.14-3.45.36l-.48,0,0,.09a1.8,1.8,0,0,1,.09.38.23.23,0,0,1-.06.19l-.5.89q-.33.58-.66,1.19l-.39.7,2.27-.2q.12-.27.23-.53a8,8,0,0,0,.55-2.23s0,0,.13,0,.15.11.27.34a1.41,1.41,0,0,1,.17.45.4.4,0,0,1-.06.19,5,5,0,0,0-.36.75,13.78,13.78,0,0,1-.92,2A10.31,10.31,0,0,1,31.15,60a.48.48,0,0,1-.27.16.05.05,0,0,1-.06-.06.21.21,0,0,1,.08-.17,10.58,10.58,0,0,0,1.27-1.17A10.81,10.81,0,0,0,33.51,57q.45-.73.8-1.42-1,.13-1.64.23a6.57,6.57,0,0,0-.77.14l-.14,0-.2-.16c-.12-.1-.17-.18-.17-.22s0-.1.06-.11a1,1,0,0,0,.44-.22,6.68,6.68,0,0,0,.77-1.37q.48-1,.61-1.39a3.82,3.82,0,0,0,.13-.42q-1.17.13-1.5.2a.6.6,0,0,1-.25.08,1.16,1.16,0,0,1-.44-.2c-.17-.12-.25-.21-.25-.25a.06.06,0,0,1,.06-.06q1.48-.08,2-.16l1.3-.14,1.45-.19a5.12,5.12,0,0,0,.78-.12Zm-.44,3.42q.08,0,.27.36a1.41,1.41,0,0,1,.17.45.4.4,0,0,1-.06.19,3.66,3.66,0,0,0-.31.61,12.1,12.1,0,0,1-.78,1.67A9.46,9.46,0,0,1,35,59l.11.11q1.09,1,2,1.89a.68.68,0,0,1,.22.55,2.23,2.23,0,0,1-.09.61.09.09,0,0,1-.09.08.27.27,0,0,1-.23-.16,16.43,16.43,0,0,0-2-2.87,2.34,2.34,0,0,1-.22.25A10.31,10.31,0,0,1,33,60.94c-.09.09-.17.14-.22.14s-.06,0-.06-.08,0-.12.06-.14a9.69,9.69,0,0,0,1.06-1A11,11,0,0,0,35,58.44a11.41,11.41,0,0,0,1-1.87,6.55,6.55,0,0,0,.47-1.87S36.43,54.63,36.51,54.63Zm-3.44-6.31c.05,0,.13,0,.22.14a7.43,7.43,0,0,1,1.09,1.28.8.8,0,0,1,.25.45,1.78,1.78,0,0,1-.08.44q-.14.31-.23.31c-.08,0-.15-.07-.2-.22a9.89,9.89,0,0,0-1-2.06.62.62,0,0,1-.09-.27C33,48.34,33,48.31,33.07,48.31Z"/><path class="cls-1" d="M27.13,66.63q.09,0,.39.28t.42.47a1.24,1.24,0,0,1-.14.52,2.24,2.24,0,0,0,0,.36v2.86l3.19-.28v-4.2a12.09,12.09,0,0,0-.12-1.7,4.11,4.11,0,0,1-.19-.73.11.11,0,0,1,.13-.12,1.58,1.58,0,0,1,.48.23q.45.25.45.33a4.11,4.11,0,0,1-.12.84q-.13,1.31-.12,3v2.27l3-.27.08-.27a5.22,5.22,0,0,0,.16-1.09q.06-.42.09-1.22c0-.05,0-.23,0-.53s0-.71,0-1,0-.14.06-.14.19.12.41.36.34.41.34.53a.53.53,0,0,1-.09.33,5.72,5.72,0,0,0-.33,1.94q-.19,1.75-.31,2.3-.08.17-.14.17c-.05,0-.12-.1-.2-.31a1.58,1.58,0,0,1-.11-.55.5.5,0,0,1,0-.12l-2.53.2-.36,0V77l3.69-.27.06-.19a6.47,6.47,0,0,0,.16-1.2A9.37,9.37,0,0,0,35.45,74c0-.06,0-.24,0-.53s0-.71,0-1c0-.08,0-.12.06-.12s.19.11.41.34.34.41.34.52a.67.67,0,0,1-.09.38,6.13,6.13,0,0,0-.33,2q-.19,1.83-.31,2.41-.08.19-.14.19c-.05,0-.12-.1-.2-.3a1.75,1.75,0,0,1-.11-.58.88.88,0,0,1,0-.22l-3,.19q-1.53.11-4.22.42a1.07,1.07,0,0,0-.62.22.43.43,0,0,1-.22.08.83.83,0,0,1-.33-.19c-.16-.1-.23-.19-.23-.25a.38.38,0,0,1,.09-.22,1.54,1.54,0,0,0,.19-.23.93.93,0,0,0,.09-.42V74.63a8.21,8.21,0,0,0-.09-1.14q-.09-.73-.09-.86v-.06q.09,0,.39.28t.42.47a1.24,1.24,0,0,1-.14.52,2.24,2.24,0,0,0,0,.36V77.3L30.95,77V71.23l-2.72.33a.75.75,0,0,0-.53.25.39.39,0,0,1-.19.06.83.83,0,0,1-.33-.19q-.23-.17-.23-.25a.39.39,0,0,1,.09-.22,1.29,1.29,0,0,0,.19-.25.78.78,0,0,0,.09-.41V68.69a8.21,8.21,0,0,0-.09-1.14q-.09-.73-.09-.86Z"/><path class="cls-1" d="M30.88,80.06s.15.13.33.38a1,1,0,0,1,.17.44.74.74,0,0,1-.09.31q-.37,1-1.08,2.48l4-.59a.63.63,0,0,0,.48-.28c.11-.16.2-.23.27-.23s.12.07.27.2.3.33.3.38a.64.64,0,0,1-.16.28.89.89,0,0,0-.16.58l-.31,9.69q-.08.62-.25.63s-.13-.17-.3-.5a2.64,2.64,0,0,1-.2-.61,1.17,1.17,0,0,1,.11-.47L34,92.8l-5.39.56v0a6.62,6.62,0,0,1-.06,1.13q-.06.25-.19.25a1.56,1.56,0,0,1-.23-.41,1.82,1.82,0,0,1-.14-.66,1,1,0,0,1,.06-.45,8.78,8.78,0,0,0,.08-1.41q0-2.77-.14-5.91-.13-1.67-.31-2.77a4.42,4.42,0,0,1-.06-.64c0-.08,0-.12.06-.12s.19.24.36.72a4,4,0,0,1,.25.88l1.66-.25a1.74,1.74,0,0,1,.09-.31,10.68,10.68,0,0,0,.73-3.12C30.73,80.14,30.78,80.06,30.88,80.06ZM28.57,92.92a43.26,43.26,0,0,0,4.73-.59l.52-.08a1.17,1.17,0,0,1,.34.17l.13.09a10.5,10.5,0,0,0,.16-1.44l.31-7.48-6.48.83q.06,1.34.11,2.5a31.16,31.16,0,0,0,4-.59l.42-.08a.85.85,0,0,1,.3.17c.13.09.2.16.2.2s-.12.11-.36.16l-4.56.52q0,1.34.08,2.45a37.27,37.27,0,0,0,4.14-.59l.45-.08a.88.88,0,0,1,.3.16c.13.09.2.16.2.2s-.12.11-.37.16l-4.7.52q0,.52,0,1Q28.56,92.22,28.57,92.92Z"/><path class="cls-1" d="M28.32,96.19q.09,0,.38.48a2.36,2.36,0,0,1,.25.64.5.5,0,0,1-.12.31,5.15,5.15,0,0,0-.8,1.31q-.3.59-.58,1.09v10.53a.11.11,0,0,1-.12.13q-.08,0-.37-.52a1.61,1.61,0,0,1-.19-.67,5.84,5.84,0,0,1,.11-.8,11.91,11.91,0,0,0,.08-1.5v-6.34q-.3.47-.58.83a15.77,15.77,0,0,1-2,2.22c-.08.1-.16.16-.22.16s0,0,0-.06,0-.12.13-.17a23.35,23.35,0,0,0,1.94-2.45,17.65,17.65,0,0,0,1.73-3.19,4.91,4.91,0,0,0,.44-1.94Zm2.5,7.5q.08,0,.3.39a2.33,2.33,0,0,1,.2.55.27.27,0,0,1-.09.19,2.68,2.68,0,0,0-.58.75,10.55,10.55,0,0,1-1.16,1.58A10.51,10.51,0,0,1,28,108.42a.26.26,0,0,1-.16.09.06.06,0,0,1-.06-.06s0-.08.09-.12a13,13,0,0,0,1.36-1.48,9,9,0,0,0,1.23-1.92,2.61,2.61,0,0,0,.31-1.16Zm.88-7.56q.09,0,.33.42a2,2,0,0,1,.23.59.58.58,0,0,1-.09.3,4.53,4.53,0,0,0-.61,1.28q-.31.77-.61,1.39l4.81-.67a.49.49,0,0,0,.36-.25c.1-.21.17-.31.2-.31s.15.09.33.27.23.26.23.3a.41.41,0,0,1-.19.33,3.71,3.71,0,0,0-.86,1.16q-.36.64-.66,1.22c-.07.11-.13.17-.17.17a.05.05,0,0,1-.06-.06.8.8,0,0,1,.11-.37l.88-2.06-3.75.58a3.1,3.1,0,0,0-.53.11,1,1,0,0,1-.27.06.85.85,0,0,1-.36-.11.78.78,0,0,1-.17-.12q-.3.59-.56,1a14.88,14.88,0,0,1-1.56,2.16c-.06.1-.12.16-.16.16a.05.05,0,0,1-.06-.06.22.22,0,0,1,.09-.17,18.06,18.06,0,0,0,1.45-2.34A18.71,18.71,0,0,0,31.37,98a5.89,5.89,0,0,0,.33-1.86Zm1.06,5.25a1,1,0,0,1,.45.25q.36.31.36.44a.52.52,0,0,1-.08.23.49.49,0,0,0-.11.27v6.58a5.36,5.36,0,0,1-.09,1q-.09.44-.22.44c-.06,0-.13-.06-.2-.19q-1-1.16-1.92-2a.52.52,0,0,1-.06-.23v-.06a3.56,3.56,0,0,1,.89.53,5.39,5.39,0,0,0,1,.66c.11,0,.18-.1.19-.31v-4.55a14.65,14.65,0,0,0-.17-2.45,2.85,2.85,0,0,1-.14-.56A.06.06,0,0,1,32.76,101.38Zm1.81,2.81a.73.73,0,0,1,.39.2,18.37,18.37,0,0,1,1.94,1.88,1.44,1.44,0,0,1,.42.81,3.85,3.85,0,0,1-.06.56c0,.2-.1.3-.19.3s-.12-.08-.19-.25a14.77,14.77,0,0,0-2.25-3.17.46.46,0,0,1-.12-.27S34.53,104.2,34.57,104.19Z"/><path class="cls-1" d="M29.88,113.38a1.51,1.51,0,0,1,.48.27c.26.22.39.36.39.42s0,.05-.06.06a9.61,9.61,0,0,0-1.2.48l-.67.28v3q2-.19,3.59-.42-.17-1.39-.31-3.06a7.32,7.32,0,0,0-.28-1.67,2,2,0,0,1-.06-.44c0-.08,0-.12.06-.12s.21.17.48.5a2.72,2.72,0,0,1,.45.63,5.53,5.53,0,0,1-.06.56q-.06.58-.06.81a27.32,27.32,0,0,0,.14,2.75l.23,0a26.22,26.22,0,0,0,3.27-.53,2.16,2.16,0,0,1,.42-.06,1,1,0,0,1,.44.17,1.44,1.44,0,0,1,.31.27q0,.11-.19.13-2,.19-4.44.48.08.69.17,1.39a15,15,0,0,0,.66,2.61,8.13,8.13,0,0,0,1-1.44,4.82,4.82,0,0,0,.64-1.8s0-.06.13-.06.15.12.27.36a1.41,1.41,0,0,1,.17.45.4.4,0,0,1-.06.19,3.52,3.52,0,0,0-.41.58,14.36,14.36,0,0,1-1,1.58,6,6,0,0,1-.55.59,7.08,7.08,0,0,0,.42.81,6,6,0,0,0,1.56,1.69,2.18,2.18,0,0,0,1.08.5c.06,0,.1,0,.13-.12s.07-1,.11-2.47c0-.1,0-.16.08-.16s.15.06.17.19a20.32,20.32,0,0,0,.61,3.16.75.75,0,0,1,.11.41q0,.2-.14.2a2.8,2.8,0,0,1-1-.34,6.89,6.89,0,0,1-1.47-.94,7.45,7.45,0,0,1-1.33-1.56,6.82,6.82,0,0,1-.61-1.09l-.69.61a13.75,13.75,0,0,1-2.27,1.39.66.66,0,0,1-.3.11.06.06,0,0,1-.06-.06.14.14,0,0,1,.08-.12,10,10,0,0,0,1.45-1,11.25,11.25,0,0,0,1.56-1.36l0,0a9.86,9.86,0,0,1-.37-1.23q-.3-1.28-.53-3l-1.87.22-1.78.22v1.92l1.66-.62a1,1,0,0,1,.28-.06h.06a.23.23,0,0,1-.17.23l-1.83.86v4.55a3,3,0,0,1-.19.89c-.08.24-.15.36-.19.36a.27.27,0,0,1-.2-.11L26.53,124a.28.28,0,0,1-.08-.17s0,0,.06,0a.85.85,0,0,1,.31.14,5.47,5.47,0,0,0,1.38,1q.19,0,.19-.25v-3.89l-1.48.69a7.51,7.51,0,0,0-1.19.59.4.4,0,0,1-.27.11.88.88,0,0,1-.34-.22,1.19,1.19,0,0,1-.22-.27.18.18,0,0,1,.11-.19q1.25-.36,2.25-.75l1.14-.41v-2q-1.89.23-2.28.31l-.47.11a1.46,1.46,0,0,1-.48-.17q-.39-.19-.39-.25t.23-.11q1.81-.16,3.39-.33v-2.89a16.66,16.66,0,0,1-1.59.52,6,6,0,0,1-1.34.3c-.08,0-.12,0-.12,0a.14.14,0,0,1,.13-.14,16.34,16.34,0,0,0,2.84-1.14,3.92,3.92,0,0,0,1.41-1Q29.79,113.38,29.88,113.38Zm3.94.31a.46.46,0,0,1,.23.09,11.18,11.18,0,0,1,1.61,1.08.72.72,0,0,1,.28.45,1.44,1.44,0,0,1-.08.48.22.22,0,0,1-.23.14c-.05,0-.12-.06-.2-.19a12.91,12.91,0,0,0-1.25-1.56C33.94,113.95,33.82,113.78,33.82,113.69Z"/><path class="cls-1" d="M33.71,132.36l.11-.14q.23-.28.38-.28c.05,0,.16.07.31.22a1.52,1.52,0,0,1,.25.36s0,0-.06,0-.32.17-.52.3a8,8,0,0,0-1.39,1.27q-2.36,2.53-5.06,5.22l.67.17q1.72.52,4,1a17.7,17.7,0,0,0,2.86.44,8,8,0,0,0,2.2-.25,6,6,0,0,1,.86-.12c.08,0,.13,0,.13.06v.19l-2.3.91a4.14,4.14,0,0,1-.83.28,1,1,0,0,1-.45-.11q-4.36-1.58-6.31-2.06a6.86,6.86,0,0,0-1.67-.33,4.87,4.87,0,0,0-.94.08,2.77,2.77,0,0,1-.75.11.72.72,0,0,1-.44-.19q-.19-.16-.19-.25s.05-.06.16-.08.5,0,.78,0a11.3,11.3,0,0,1,2,.17l-.06-.06a43.6,43.6,0,0,0,3.19-3.31q1.51-1.72,2.78-3.2l-3.64.41q-1.31.13-3.06.47a1.94,1.94,0,0,1-.45.08.86.86,0,0,1-.44-.2c-.17-.11-.25-.19-.25-.23s0,0,.06,0l4.41-.42,3.34-.33A1.12,1.12,0,0,0,33.71,132.36Zm-4.7-4a.47.47,0,0,1,.28.17A9.37,9.37,0,0,1,30.76,130a.91.91,0,0,1,.31.55A1.42,1.42,0,0,1,31,131c-.08.2-.16.3-.23.3s-.22-.08-.28-.25a11.07,11.07,0,0,0-1.39-2.31.56.56,0,0,1-.14-.3C28.95,128.34,29,128.31,29,128.31Z"/><path class="cls-1" d="M34.63,144.52a1.54,1.54,0,0,1,.48.25c.26.23.39.38.39.44s0,0-.06,0q-.58.08-2,.38-1,.2-2,.38l.13.08q.38.36.38.48a.62.62,0,0,1-.08.27.59.59,0,0,0-.11.31v1.61l2-.16a8.84,8.84,0,0,0,1.17-.14l.52-.06a1.19,1.19,0,0,1,.44.13c.17.11.25.19.25.23s0,.13,0,.13q-2,.11-4.33.3v2.52a38.2,38.2,0,0,0,5-.59,1.2,1.2,0,0,1,.39-.09,1.72,1.72,0,0,1,.58.28q.42.27.42.34s0,.06-.11.06q-2.53.14-6.33.41V157a5.55,5.55,0,0,1-.11,1.14q-.11.48-.27.48c-.07,0-.16-.07-.25-.22Q30,157.12,29,156.13a.41.41,0,0,1-.08-.25s0,0,.06,0a3.84,3.84,0,0,1,1,.61,6.3,6.3,0,0,0,1.14.77c.15,0,.23-.11.25-.33v-4.75l-1,.08q-4.16.34-4.52.42a2.15,2.15,0,0,1-.44.06,1.25,1.25,0,0,1-.61-.23c-.18-.11-.27-.2-.27-.27s.08-.19.25-.19q1.41,0,6.17-.23l.39,0V149.2l-.37,0q-2.69.17-3.31.27a1.7,1.7,0,0,1-.37.06,1,1,0,0,1-.42-.19c-.18-.12-.27-.2-.27-.23a.06.06,0,0,1,.06-.06q2.2-.11,3-.19l1.64-.11a17.49,17.49,0,0,0-.16-2.3c-.05-.18-.09-.32-.11-.42q-1.09.19-2.22.34a21.46,21.46,0,0,1-2.25.22c-.08,0-.12,0-.12-.06s0-.1.13-.11q3.39-.52,5.17-1a10.15,10.15,0,0,0,2.55-.84A.69.69,0,0,1,34.63,144.52Z"/></g></svg>