<svg id="圖層_1" data-name="圖層 1" xmlns="http://www.w3.org/2000/svg" viewBox="0 0 38.45 179.4"><defs><style>.cls-1{fill:#595959;}</style></defs><title>txt_v</title><path class="cls-1" d="M22.25,10.22a9.79,9.79,0,0,0,1.82.12h5.13a15.32,15.32,0,0,0,.25-2q.71.18,1.24.34c.26.08.39.16.39.23s-.09.17-.27.19-.49.14-.51.25a9.76,9.76,0,0,1-.18,1h5.72a3.34,3.34,0,0,0,.44-.6c.18-.2.31-.3.41-.3s.33.15.67.46.58.58.58.66-.11.3-.34.3h-7a5,5,0,0,0,.85,1.27,7.06,7.06,0,0,0,2.43,1.66,13.06,13.06,0,0,0,4.07,1v.27a1.14,1.14,0,0,0-.94.48c-.1.15-.18.23-.25.23a6,6,0,0,1-1-.23,13.36,13.36,0,0,1-2.16-.9,7.54,7.54,0,0,1-2.23-1.72,7.49,7.49,0,0,1-1.24-2.09H30a6.83,6.83,0,0,1-.83,1.77,5.88,5.88,0,0,1-2.23,1.95A18.86,18.86,0,0,1,22,16.16l-.14-.3A17,17,0,0,0,26.75,14a5.24,5.24,0,0,0,1.88-2,6.73,6.73,0,0,0,.46-1.17h-5a5.62,5.62,0,0,0-1.54.14ZM32.71.07,34,.57c.2.07.3.17.3.3s-.16.18-.48.18-.48,0-.53.11a12.47,12.47,0,0,1-1.65,1.56h3.72c.14-.18.28-.37.41-.57s.28-.28.37-.28.31.15.64.44.57.54.57.6-.12.3-.37.3H30.45V5.1h3.47a4.82,4.82,0,0,0,.44-.51c.14-.18.25-.27.34-.27s.3.15.62.44.53.49.53.55-.12.3-.37.3h-5V7.74h5.4a5.77,5.77,0,0,0,.41-.57q.23-.3.37-.3t.62.46q.57.51.57.62c0,.18-.11.27-.34.27H24.15a5.83,5.83,0,0,0-1.56.14l-.27-.78a7.69,7.69,0,0,0,1.82.16H29.6V5.61H26a5.81,5.81,0,0,0-1.58.14L24.15,5A10.41,10.41,0,0,0,26,5.1H29.6V3.2H24.73a5.59,5.59,0,0,0-1.56.14l-.3-.78a9,9,0,0,0,1.86.14h6.46a6.24,6.24,0,0,0,.76-1A6.15,6.15,0,0,0,32.71.07Zm-6,0a7.16,7.16,0,0,1,1.5,1,1.06,1.06,0,0,1,.41.67,1.46,1.46,0,0,1-.07.51.5.5,0,0,1-.35.19c-.19,0-.33-.14-.41-.37a3.88,3.88,0,0,0-.5-1,4.11,4.11,0,0,0-.8-.87Z"/><path class="cls-1" d="M29.33,22.73a8.33,8.33,0,0,1,1.22.73q.32.3.32.48a1.69,1.69,0,0,1-.05.5l-.11.09h5.61l.27-.34q.25-.37.37-.37c.07,0,.24.12.51.35s.48.49.48.55a.25.25,0,0,1-.28.28H32.31v1.27h3.17l.23-.25c.14-.15.24-.23.28-.23s.25.12.51.35.41.33.41.42-.1.18-.28.28-.3.21-.3.27v1.22a4.4,4.4,0,0,0,.07.71q0,.19-.27.28a2,2,0,0,1-.37.05q-.21,0-.21-.34a2.39,2.39,0,0,0,.05-.3H24.13a9.72,9.72,0,0,1-.37,2.37,8.77,8.77,0,0,1-1.66,3.1l-.28-.16a9.17,9.17,0,0,0,1.33-3,20.91,20.91,0,0,0,.37-4.89,11.7,11.7,0,0,0-.19-2.27,6.21,6.21,0,0,1,1,.64h6.05a.6.6,0,0,1-.16-.21,3.17,3.17,0,0,0-.37-.73,4,4,0,0,0-.6-.62Zm-6.94-3.66a8.75,8.75,0,0,0,1.82.14h4.2l.34-.48c.12-.15.22-.23.3-.23s.27.12.55.37.51.48.51.53a.25.25,0,0,1-.28.28H24.22a5.19,5.19,0,0,0-1.56.16Zm1,1.12a2.58,2.58,0,0,1,.9.51H28l.23-.25c.14-.13.24-.19.28-.19s.25.12.53.37.37.32.37.41-.08.18-.23.3-.27.21-.27.28v1.26a4.72,4.72,0,0,0,.07.73c0,.14-.1.24-.28.28a1.7,1.7,0,0,1-.34.05c-.15,0-.23-.11-.23-.34a3.25,3.25,0,0,0,.07-.73v-1.7H24.29v1.49l.07.94q0,.19-.32.28a1.46,1.46,0,0,1-.3.05c-.15,0-.23-.11-.23-.34l.07-.94v-.85A8.75,8.75,0,0,0,23.44,20.18ZM25.7,29l1.15.23c.27,0,.41.13.41.25s-.13.18-.39.27-.32.16-.32.3v.51H29l.23-.3c.15-.22.27-.34.34-.34s.23.11.48.32a2.09,2.09,0,0,1,.44.51.25.25,0,0,1-.28.28H26.55V33q1.59-.19,4-.6l.14.23a50.39,50.39,0,0,1-4.94,1.1q-1.15.19-1.15.3,0,.44-.16.44T24.11,34q-.25-.51-.37-.83.94,0,2.11-.18V31.32A14.82,14.82,0,0,0,25.7,29Zm-1.54-.71h3.33V26.79H24.22Q24.2,27.62,24.16,28.27Zm3.33-2V25H24.22v1.27Zm-2.12-4.66a7.58,7.58,0,0,1,1.38.83q.37.35.37.58a1.53,1.53,0,0,1-.05.46.38.38,0,0,1-.28.18.43.43,0,0,1-.37-.3,3.56,3.56,0,0,0-.44-.81,7.31,7.31,0,0,0-.74-.74Zm6.23,4.66V25H28.18v1.27Zm-3.42.51v1.49H31.6V26.79Zm2.27-7.65a9,9,0,0,0,1.86.14h4.25c.12-.15.23-.31.34-.48s.21-.23.28-.23.28.12.57.37.51.47.51.53a.27.27,0,0,1-.3.3H32.31a5.59,5.59,0,0,0-1.56.14Zm.64,1a2.58,2.58,0,0,1,.9.51h3.77l.25-.25c.13-.13.21-.19.25-.19s.27.12.55.37.37.32.37.41-.09.18-.27.3-.28.21-.28.28v1.2a4.4,4.4,0,0,0,.07.71c0,.14-.1.24-.3.3a1.69,1.69,0,0,1-.34.05q-.21,0-.21-.35a3.16,3.16,0,0,0,.07-.71V21.17h-4v1.49l.09.94c0,.13-.12.22-.35.28a1.24,1.24,0,0,1-.28.05c-.15,0-.23-.11-.23-.34l.07-.94v-.85A8.75,8.75,0,0,0,31.09,20.18Zm.07,8.94.94.16c.32.07.48.15.48.25s-.11.19-.34.27a.4.4,0,0,0-.3.37v1.12a8.21,8.21,0,0,0,3.47-1.66l.94.67c.14.06.21.14.21.25s-.05.06-.16.07l-.55-.07a26.07,26.07,0,0,1-3.91,1v1.06a.53.53,0,0,0,.25.44,7,7,0,0,0,2.18.18,13.51,13.51,0,0,0,2.27-.11q.35-.11.44-1,.11-.57.18-1.4h.3V32c0,.59.08.94.25,1a.3.3,0,0,1,.16.28c0,.16-.18.27-.55.32a17.16,17.16,0,0,1-3,.16,7.45,7.45,0,0,1-2.71-.27,1.16,1.16,0,0,1-.42-1V30.17A9.65,9.65,0,0,0,31.16,29.12Zm1.15-2.34v1.49h3.31V26.79ZM33,21.62a9.94,9.94,0,0,1,1.45.83q.37.35.37.58a1.19,1.19,0,0,1-.07.46.34.34,0,0,1-.27.18.43.43,0,0,1-.37-.3,3.49,3.49,0,0,0-.48-.81,6.27,6.27,0,0,0-.78-.74Z"/><path class="cls-1" d="M24,46.4l1.12.39c.21.06.31.14.3.25s-.11.13-.34.18l-.44.09a18.2,18.2,0,0,1-2.71,3.49l-.19-.16A13.53,13.53,0,0,0,24,46.4Zm-2.07-7.72a9.15,9.15,0,0,0,1.86.14h5.59l.42-.57c.14-.19.26-.28.35-.28s.31.15.64.44.57.54.57.6-.12.28-.37.28H23.74a5.17,5.17,0,0,0-1.58.16Zm1.43,2a2.4,2.4,0,0,1,.89.51h4.36a1.66,1.66,0,0,0,.21-.25c.18-.18.29-.27.35-.27s.27.14.55.42.37.37.37.42-.14.16-.42.3-.28.21-.28.27q0,1.75.05,3.33,0,.14-.21.23l-.21.07c-.24,0-.35-.1-.35-.3V45H26.85v5.88a1.36,1.36,0,0,1-.57,1.08,1.48,1.48,0,0,1-.85.34s-.11-.11-.18-.34a.69.69,0,0,0-.44-.51l-1.17-.23V51q.94.07,2.27.07c.11,0,.16-.12.16-.35V45H24.18l0,.41q0,.21-.32.3a1.3,1.3,0,0,1-.32.07q-.21,0-.21-.37l.07-.92v-2.2A10,10,0,0,0,23.31,40.65Zm.83,3.82h4.46V41.66H24.15Zm.58-8.21a11.22,11.22,0,0,1,1.77,1c.33.25.5.45.5.6a1.41,1.41,0,0,1-.09.58.5.5,0,0,1-.35.19q-.32,0-.48-.41a3.93,3.93,0,0,0-.6-.9,5,5,0,0,0-1-.8ZM27.9,46.47a7.93,7.93,0,0,1,1.93,1.61,1.08,1.08,0,0,1,.21.58c0,.42-.15.64-.44.64q-.14,0-.37-.57a9.66,9.66,0,0,0-1.45-2.07Zm2.21-5.31a10,10,0,0,0,1.82.12h.92q.05-1.08.09-2.32a8.45,8.45,0,0,0-.23-2.71q.78.14,1.49.32c.29,0,.44.12.44.25s-.1.11-.3.18c-.41.13-.62.27-.62.41V39q0,1.31-.09,2.32h2.62a5.33,5.33,0,0,0,.44-.55c.14-.19.25-.28.34-.28s.32.15.64.44.58.54.58.6-.12.3-.37.3H33.6a23.84,23.84,0,0,1-.39,2.94,12.62,12.62,0,0,1-2.07,4.92,8.5,8.5,0,0,1-3.24,2.62l-.05-.3a9.48,9.48,0,0,0,2.89-2.85,14.52,14.52,0,0,0,1.65-4.07,25.23,25.23,0,0,0,.44-3.26h-.89a5.83,5.83,0,0,0-1.56.14Zm3.68,1.61q.64.16,1.35.3c.27,0,.41.13.41.28s-.16.12-.48.19-.37.23-.37.37v6.71q0,.5.18.58a3.37,3.37,0,0,0,1.2.12,3,3,0,0,0,1-.11,2.42,2.42,0,0,0,.34-1.31q.11-.76.21-1.84h.21v2.85a.51.51,0,0,0,.32.42c.16,0,.25.12.25.21s-.11.18-.32.27a9,9,0,0,1-2.05.14,4.51,4.51,0,0,1-1.79-.21q-.37-.23-.37-1.13V45.32A18.4,18.4,0,0,0,33.79,42.77Zm1-5.17a8.52,8.52,0,0,1,1.56,1.17,1.27,1.27,0,0,1,.44.76,1.18,1.18,0,0,1-.09.51.5.5,0,0,1-.35.19c-.19,0-.33-.14-.41-.37a4.84,4.84,0,0,0-.53-1.08,5.41,5.41,0,0,0-.81-1Z"/><path class="cls-1" d="M21.76,57.59a8.75,8.75,0,0,0,1.82.14h3.2a5.74,5.74,0,0,0,.37-.48c.13-.15.24-.23.34-.23s.27.12.55.37.51.48.51.53-.12.28-.37.28h-4.6a5.19,5.19,0,0,0-1.56.16Zm.78,2.2a8.76,8.76,0,0,0,1.82.14h2.05q.19-.21.35-.42c.13-.14.23-.21.3-.21s.24.12.51.35.46.44.46.5a.23.23,0,0,1-.27.27H24.36a5.19,5.19,0,0,0-1.56.16Zm.05,2.34a9,9,0,0,0,1.84.14h2a3.07,3.07,0,0,0,.35-.42c.13-.14.23-.21.3-.21s.24.12.51.35.46.43.46.48-.09.28-.27.28H24.43a5.19,5.19,0,0,0-1.56.16Zm.14,2.11a3,3,0,0,1,.89.5h2.8s.1-.06.23-.19a.85.85,0,0,1,.35-.21q.12,0,.57.39c.22.24.34.39.34.46s-.12.15-.35.27-.28.21-.28.28q0,2.05.07,3.91c0,.08-.08.15-.23.21l-.18.07q-.37,0-.37-.28V69h-3l.07.92c0,.13-.11.22-.34.28a1.24,1.24,0,0,1-.28.05c-.15,0-.23-.11-.23-.34l.07-.92V65.88A8.86,8.86,0,0,0,22.73,64.23Zm.85,4.25h3V65.24h-3ZM24,54.69A9.34,9.34,0,0,1,25.63,56a1.47,1.47,0,0,1,.44.85,1.18,1.18,0,0,1-.09.51.41.41,0,0,1-.76-.18A6.13,6.13,0,0,0,24.68,56a6.53,6.53,0,0,0-.87-1.08ZM35.69,62q.49.23,1,.44c.25.07.37.14.37.19s-.09.18-.27.21q-.51.05-.58.16a22,22,0,0,1-2.43,3.43,12.84,12.84,0,0,1,3.06,2.34,1.59,1.59,0,0,1,.35.89c0,.37-.11.55-.34.55s-.43-.27-.76-.81a12,12,0,0,0-2.53-2.71,12.56,12.56,0,0,1-1.38,1.29,17.87,17.87,0,0,1-5,2.53l-.12-.23a16.87,16.87,0,0,0,5.56-3.49A13.64,13.64,0,0,0,35.69,62Zm-4.3-7.42a10.58,10.58,0,0,1,1.66,1.22,1.47,1.47,0,0,1,.44.81,1.17,1.17,0,0,1-.09.53.31.31,0,0,1-.12.11H36.4a2.39,2.39,0,0,0,.39-.46c.13-.16.24-.25.32-.25s.28.14.57.41.51.45.51.51-.12.3-.37.3h-4.9a16.67,16.67,0,0,1-2.83,3.38q1.84,0,3.52-.05a12,12,0,0,0,1-2.21,10.3,10.3,0,0,1,1.08.58c.18.07.27.14.27.19s-.17.25-.5.25-.34,0-.35.05a15.35,15.35,0,0,1-3,4.13A14,14,0,0,1,28,66.73l-.12-.23a15.68,15.68,0,0,0,4.09-3.13,11.65,11.65,0,0,0,1.47-2q-2.39.41-3.2.48-.66,0-.71.12l0,.09q-.11.35-.27.35t-.28-.48a8,8,0,0,0-.3-1,3.58,3.58,0,0,0,1.1.14A12,12,0,0,0,32,57.73H30.24a5.83,5.83,0,0,0-1.56.14l-.27-.78a10,10,0,0,0,1.82.12h2.62a.53.53,0,0,1-.21-.27,5.57,5.57,0,0,0-.55-1.17,7.34,7.34,0,0,0-.94-1Z"/><path class="cls-1" d="M24,74.3l1.35.23c.27,0,.41.13.41.25s-.14.22-.41.28-.37.17-.37.28v3.89h4.74v-4a17.62,17.62,0,0,0-.14-2.53l1.26.23c.29,0,.44.13.44.25s-.15.21-.44.3-.34.17-.34.34v5.38h4.67a1.69,1.69,0,0,1,0-.25V75.93a4,4,0,0,0-.23-1.63l1.36.23q.42.07.42.25c0,.13-.15.22-.44.28s-.34.17-.34.28v4.74q0,.3-.42.41l-.21,0q-.21,0-.21-.35c0-.15,0-.29,0-.42H30.45v7h5.4V83.3a4.17,4.17,0,0,0-.23-1.65l1.36.27q.42.05.42.23c0,.12-.15.21-.44.27s-.34.19-.34.32v5.44q0,.28-.42.41l-.21,0c-.15,0-.23-.12-.23-.37a6.82,6.82,0,0,1,.07-1H24.07v1c0,.2-.14.34-.41.41l-.23,0c-.13,0-.19-.12-.19-.37A12.57,12.57,0,0,1,23.31,87V83.23a4.47,4.47,0,0,0-.21-1.65l1.33.27q.42.05.42.23t-.42.27c-.24.08-.35.19-.35.32v4.09h5.59v-7H24.92v.42c0,.19-.14.31-.41.37l-.23,0c-.14,0-.21-.11-.21-.34a10.52,10.52,0,0,1,.07-1.2V75.93A4.69,4.69,0,0,0,24,74.3Z"/><path class="cls-1" d="M29.33,90.72l1.17.37q.37.14.37.34c0,.07-.12.13-.35.18a1.29,1.29,0,0,0-.41.12,11,11,0,0,1-.94,2H34.5a2.1,2.1,0,0,0,.25-.27c.19-.19.32-.28.39-.28s.29.15.6.46.39.45.39.53-.13.14-.39.27-.27.23-.27.3q0,6.2.07,11.74c0,.08-.08.16-.25.23l-.23.07c-.25,0-.37-.1-.37-.3v-1H25.37l.07,1c0,.14-.13.24-.39.3a1.33,1.33,0,0,1-.32.07q-.21,0-.21-.37l.07-1V94.84a6.52,6.52,0,0,0-.23-1.77,2.86,2.86,0,0,1,1,.62h3.35A11.76,11.76,0,0,0,29.33,90.72Zm-4,6.44H34.7v-3H25.37Zm0,3.77H34.7V97.67H25.37Zm0,4H34.7v-3.52H25.37Z"/><path class="cls-1" d="M25.77,108.84l1.36.53q.27.11.27.27c0,.07-.12.14-.35.19s-.61.18-.71.35a27.49,27.49,0,0,1-1.27,3l.19.07q.32.11.32.27c0,.08-.09.14-.27.18s-.18.09-.18.16v8.87q0,1,.09,1.89c0,.08-.08.15-.25.19a.57.57,0,0,1-.32.11c-.25,0-.37-.1-.37-.3q.07-1.29.07-1.89v-8.25a15.64,15.64,0,0,1-2.48,2.94l-.12-.21a15.45,15.45,0,0,0,2.44-3.7A23.64,23.64,0,0,0,25.77,108.84Zm4.05.16,1.24.46c.16.07.25.15.25.25s-.12.12-.35.16a.92.92,0,0,0-.66.32,18.09,18.09,0,0,1-1.12,2.41H36.4a.66.66,0,0,0,.27-.34A1.42,1.42,0,0,1,37,112a1.74,1.74,0,0,1,.8.46q.57.51.57.66c0,.13-.18.21-.55.23a3.59,3.59,0,0,0-.53.14L35.76,115l-.14-.23a9.43,9.43,0,0,0,.85-1.7H32.94v10.29a1.31,1.31,0,0,1-.57,1.15,1.45,1.45,0,0,1-.66.34q-.27,0-.32-.35-.23-.39-1.88-.66l.07-.27,1.86.12c.47,0,.71-.14.71-.41V113.09H28.91l-.27.42a12,12,0,0,1-2.16,2.35l-.14-.23a11.53,11.53,0,0,0,2.12-2.92A19.82,19.82,0,0,0,29.83,109Zm-.94,7.06q.74.21,1.27.41.37.12.37.32c0,.08-.11.14-.34.16s-.51.16-.53.27a18.46,18.46,0,0,1-1.27,3.2,11.91,11.91,0,0,1-1.7,2.39l-.14-.14A16.52,16.52,0,0,0,28,119.82,14.84,14.84,0,0,0,28.89,116.07Zm5.95.14a19.34,19.34,0,0,1,2.23,3.49,6,6,0,0,1,.6,2.27,1.62,1.62,0,0,1-.07.53.51.51,0,0,1-.35.18c-.19,0-.33-.14-.41-.37a22.53,22.53,0,0,0-.83-3.1,19.5,19.5,0,0,0-1.36-2.76Z"/><path class="cls-1" d="M28.75,128a14.86,14.86,0,0,1-1.89.8v3.1h4.57q-.11-1.22-.11-2.55a15.41,15.41,0,0,0-.16-2.43q.57.11,1.13.27c.34.06.51.14.51.23s-.12.15-.35.19-.33.17-.35.32q0,2.32.11,4h4c.15-.18.3-.37.44-.57s.25-.28.34-.28.32.15.66.44.57.54.57.6-.12.3-.37.3H32.24q.05.76.12,1.35a16.66,16.66,0,0,0,1,3.58,14,14,0,0,0,2-3.74l1,.44c.26.07.39.14.39.19s-.1.18-.28.21c-.34,0-.53.09-.57.16A20,20,0,0,1,33.65,138a10.62,10.62,0,0,0,1.86,2.71q1,.92,1.19.92t.34-.41q.48-1.27,1-2.71h.3a20,20,0,0,0-.78,3.26,1.08,1.08,0,0,0,.16.57c.12.13.18.22.18.27s-.14.28-.41.28a3.07,3.07,0,0,1-1.72-.8,10.42,10.42,0,0,1-2.37-2.94l-.27-.55q-.48.5-.94.9a15.75,15.75,0,0,1-4.62,2.46l-.16-.19a15.7,15.7,0,0,0,5.12-3.45l.34-.35a15.44,15.44,0,0,1-1-3,22.37,22.37,0,0,1-.41-2.5H26.85v3.58q1.52-.51,3.38-1.31l.21.28q-2.07,1-3.59,1.7v4.89a1.31,1.31,0,0,1-.57,1.15,1.45,1.45,0,0,1-.66.34q-.27,0-.32-.35-.23-.39-1.95-.66l.07-.27,1.93.12c.47,0,.71-.14.71-.41V137q-.81.34-1.45.53-1.38.44-1.38.67,0,.51-.21.51t-.44-.48l-.5-1a17.16,17.16,0,0,0,2.8-.6q.57-.14,1.19-.35v-3.86h-2.5a5.83,5.83,0,0,0-1.56.14l-.27-.78a8.76,8.76,0,0,0,1.82.14h2.5V129a26.13,26.13,0,0,1-3.35.66l-.14-.27a21.9,21.9,0,0,0,3.19-.87,13,13,0,0,0,2.78-1.47,10,10,0,0,1,.85.58.45.45,0,0,1,.19.34s0,0-.14.07Zm5.31-.3A11.31,11.31,0,0,1,36,128.85c.33.31.5.56.5.76a1.31,1.31,0,0,1-.09.53.44.44,0,0,1-.32.18.5.5,0,0,1-.44-.37,4.33,4.33,0,0,0-.67-1.08,5.56,5.56,0,0,0-1.08-1Z"/><path class="cls-1" d="M23.17,148.52a14.1,14.1,0,0,0,2.83.19h8.64l.48-.51a.48.48,0,0,1,.23-.12,2.79,2.79,0,0,1,.67.53q.53.5.53.74t-.48.18c-.38,0-.58.06-.6.11a34.3,34.3,0,0,1-4.62,4.43,37.13,37.13,0,0,1-5,3.12,1.15,1.15,0,0,0,.21.25,4.59,4.59,0,0,0,2.35,1.42,20,20,0,0,0,4.34.35,53.28,53.28,0,0,0,5.52-.34l.07.21q-.76.18-.9.67t-.32.37a52.79,52.79,0,0,1-8.23-.35,5.51,5.51,0,0,1-2.73-1.36A4,4,0,0,1,25,156q-.05-.78-.14-.78a3.84,3.84,0,0,0-.42,1.22,20.1,20.1,0,0,1-1,2.73q.09.27.16.53a.79.79,0,0,1,.14.39c0,.09-.05.14-.16.14s-.43-.16-.76-.48l-.57-.51a8.62,8.62,0,0,0,1.19-1.74,8.35,8.35,0,0,0,.87-2q.32-1,.55-1t.48,1.15a4.29,4.29,0,0,0,.34,1.27,28.92,28.92,0,0,0,4.83-3.29,27.5,27.5,0,0,0,4.14-4.37H26a16,16,0,0,0-2.5.12Zm4.94-3.42a13.19,13.19,0,0,1,2.18,1.45,1.6,1.6,0,0,1,.58,1,1.46,1.46,0,0,1-.07.51.5.5,0,0,1-.35.19c-.19,0-.33-.14-.41-.37a6.22,6.22,0,0,0-.81-1.35,9.3,9.3,0,0,0-1.33-1.19Z"/><path class="cls-1" d="M35.14,164.38a27.72,27.72,0,0,1-4.6.92v3.17H35a6.89,6.89,0,0,0,.48-.58c.15-.18.25-.27.3-.27a.37.37,0,0,1,.28.14q.3.32.67.67c.13.13.19.22.19.27s-.07.27-.21.27H30.54v3.33h5.59q.23-.27.51-.64t.32-.28a.41.41,0,0,1,.3.16l.71.73q.21.2.21.27c0,.18-.08.27-.23.27H30.54v4.83a1.58,1.58,0,0,1-.66,1.38,1.66,1.66,0,0,1-.76.39.46.46,0,0,1-.48-.42q-.28-.48-2.57-.8l.07-.34,2.67.19q.85,0,.85-.5v-4.74h-4.6a18.13,18.13,0,0,0-2.9.14l-.41-.85q1.43.16,3.31.21h4.6V169H26.34a18.13,18.13,0,0,0-2.9.14l-.41-.85q1.43.16,3.31.21h3.33v-3.08q-3.19.37-6.5.48l-.14-.28q3.2-.19,5.93-.62a27.38,27.38,0,0,0,3.63-.74,10.81,10.81,0,0,0,2.32-.9l1,.57c.26.15.39.3.39.42s-.07.1-.19.12Z"/><path class="cls-1" d="M4.73,0l1,.23q.37.05.37.21c0,.06-.12.13-.35.21S5.51.8,5.51.94v.41H7.7l.23-.28c.15-.24.27-.35.35-.35s.21.12.46.35.44.45.44.5q0,.3-.27.3H5.51v.78H8.92a.68.68,0,0,0,.21-.19,1.06,1.06,0,0,1,.27-.18,1.36,1.36,0,0,1,.67.39q.48.41.48.55c0,.09-.17.15-.51.18l-.48.11-1.08.9-.12-.14a10.55,10.55,0,0,0,.57-1.12H5.17v.81l1.59-.07c.07-.14.13-.27.18-.39s.13-.21.19-.21a1.3,1.3,0,0,1,.51.3Q8,3.88,8,4c0,.22-.08.34-.23.34l-2.6.18V4.6a1.38,1.38,0,0,0,.07.57.29.29,0,0,0,.27.14H6.2a8.47,8.47,0,0,0,1.54-.09A.72.72,0,0,0,8.18,5l.18-.14c.06,0,.14.05.25.16s.25.25.25.32-.11.22-.32.32a5.53,5.53,0,0,1-1.7.18h-1a1.67,1.67,0,0,1-1-.23q-.27-.18-.27-1V4.55l-.9.05a5.21,5.21,0,0,0-1,.16L2.2,4.05h1L4.53,4V3.13H2.12V4.9q0,.87,0,1.61H8.36l.21-.28q.23-.35.35-.35t.46.35q.46.42.46.5c0,.2-.1.3-.28.3H2.09a21.82,21.82,0,0,1-.39,4.43A13.89,13.89,0,0,1,.27,15.53L0,15.38a17.06,17.06,0,0,0,1.08-4A40.14,40.14,0,0,0,1.42,4.9,17.92,17.92,0,0,0,1.2,2a9,9,0,0,1,1,.65H4.87V2.12A12.51,12.51,0,0,0,4.73,0ZM2.46,9.93a2.43,2.43,0,0,1,.8.41H8.41l.19-.12a.6.6,0,0,1,.32-.14,1.38,1.38,0,0,1,.46.3q.32.27.32.41c0,.06-.1.14-.28.25s-.23.21-.23.3v3.2a.92.92,0,0,1-.48.81,1.33,1.33,0,0,1-.5.23s-.1-.07-.14-.21-.52-.41-1.35-.55v-.21q1,.07,1.63.07c.13,0,.19-.15.19-.44V10.85H6.85v.64a1.71,1.71,0,0,0,0,.42c0,.08.15.12.3.12h.6q.09,0,.27-.19c0-.09.08-.14.09-.14l.21.18a.41.41,0,0,1,.12.23.2.2,0,0,1-.11.19.77.77,0,0,1-.48.18H7.19a1.33,1.33,0,0,1-.74-.18,1.06,1.06,0,0,1-.23-.81v-.64H5.38a2.57,2.57,0,0,1-.39,1,2,2,0,0,1-.67.69,4.4,4.4,0,0,1-1.08.5v2.62c0,.11-.08.18-.25.23a.85.85,0,0,1-.23.05c-.15,0-.23-.09-.23-.28l.07-.83V11.33A6.48,6.48,0,0,0,2.46,9.93Zm.78,2.9A3.71,3.71,0,0,0,4,12.43a1.8,1.8,0,0,0,.55-.66,2.91,2.91,0,0,0,.3-.92H3.24Zm.14-5.59a3,3,0,0,1,.83.42H7.44l.18-.21c.12-.11.19-.16.23-.16s.22.11.46.32.32.32.32.41-.07.14-.21.23-.19.21-.19.27v.76a1.57,1.57,0,0,0,.07.42c0,.12-.08.2-.25.25A1.69,1.69,0,0,1,7.7,10c-.13,0-.19-.1-.19-.3a.17.17,0,0,0,0-.07H4.16v.14q0,.18-.27.25a.69.69,0,0,1-.21.05q-.21,0-.21-.3l.07-.85V8.66A5.85,5.85,0,0,0,3.38,7.24Zm.37,5.88a8.75,8.75,0,0,0,1.82.14H6.73L6.94,13c.08-.11.15-.16.19-.16s.2.09.39.28.32.32.32.35c0,.2-.07.3-.21.3H6.16l.05,1.63a.16.16,0,0,1-.12.18.4.4,0,0,1-.21.09c-.2,0-.3-.09-.3-.27V13.76A5.81,5.81,0,0,0,4,13.9Zm.41-4H7.58v-1H4.16ZM9.63,5a8.61,8.61,0,0,0,1.82.14h.67q0-.87,0-1.82,0-2.05-.05-3c.29,0,.66.12,1.08.21.22,0,.34.1.34.19s-.11.17-.32.21-.32.18-.32.28V3.35q0,1-.07,1.82H14.3a5,5,0,0,0,.37-.46c.14-.16.25-.25.34-.25s.27.14.55.41.5.46.5.53-.11.28-.34.28H13.17a24.13,24.13,0,0,0,.46,3.72,12.65,12.65,0,0,0,1,3.24,5.2,5.2,0,0,0,1.89,2.23v.28a1,1,0,0,0-.78.23q-.16.27-.21.27t-.66-1a10.37,10.37,0,0,1-1-2.41,18.53,18.53,0,0,1-.69-3.19,30.77,30.77,0,0,1-.28-3.38H12.8a28.82,28.82,0,0,1-.39,3.65,13,13,0,0,1-1.26,4A7.37,7.37,0,0,1,9,16l-.14-.16a9.57,9.57,0,0,0,1.82-2.73,15.07,15.07,0,0,0,1.1-3.88,25,25,0,0,0,.34-3.58h-.66a6.62,6.62,0,0,0-1.56.12Zm4.23-3.75A7.22,7.22,0,0,1,15.33,2.8a1.19,1.19,0,0,1,.16.55q0,.64-.41.64-.11,0-.32-.55a8,8,0,0,0-1-1.95Z"/><path class="cls-1" d="M6.92,18.36l1.45.3c.37.06.55.17.55.34s-.17.21-.5.32-.35.18-.35.37v4.76h4.3l.37-.48c.25-.35.44-.53.57-.53s.32.16.67.48.66.66.66.73-.09.28-.27.28H8.07v7.74h5.86a4.67,4.67,0,0,0,.55-.74q.28-.41.46-.41t.81.58q.74.65.74.78t-.51.27H2.05a5.57,5.57,0,0,0-1.56.14l-.3-.78a8,8,0,0,0,1.86.16H7.13V21.4A16.73,16.73,0,0,0,6.92,18.36Z"/><path class="cls-1" d="M5.1,37.75A5,5,0,0,1,4,38.29a8.77,8.77,0,0,1-1.36.39l.11,2.41H4.39l.21-.3c.15-.22.27-.34.34-.34s.23.11.48.32.46.47.46.51-.1.28-.3.28H2.74l.11,2.64h1.4l.21-.32c.15-.22.27-.34.34-.34s.23.11.48.34.46.47.46.51a.27.27,0,0,1-.3.3H2.87L3,47.31H6.25a33.34,33.34,0,0,0,.55-4.18q.48.16.92.27c.19,0,.28.1.28.16s-.05.12-.16.14l-.34.14L7,47.31H9.21l.35-5.44H7.19l-.05.41c0,.15-.18.23-.41.23s-.36-.08-.37-.23a36.3,36.3,0,0,0,.85-5.58,4.18,4.18,0,0,1,.9.19c.25,0,.37.12.37.23s-.12.13-.35.18l-.28.11L7.63,38.9H9.47l.23-.3c.15-.24.27-.35.34-.35s.23.11.48.34a2.09,2.09,0,0,1,.44.51c0,.2-.1.3-.28.3H7.56l-.28,2H9.4a1.25,1.25,0,0,1,.27-.28c.12-.14.19-.21.23-.21s.27.11.51.34.41.44.41.53-.09.12-.27.19-.28.13-.28.21L10,47.31h3.68l.25-2.6h-.19a9.36,9.36,0,0,0-2.12.21L11.33,44a10.38,10.38,0,0,0,2.39.21H14l.27-2.71h-.5a8.68,8.68,0,0,0-2.12.23l-.27-.94a9.6,9.6,0,0,0,2.39.23h.53l.25-2.71h-.12a18.19,18.19,0,0,0-2.78.14l-.21-.71a14.33,14.33,0,0,0,2.92.16,1.15,1.15,0,0,0,.18-.21q.34-.35.46-.35t.57.39a2.06,2.06,0,0,1,.41.51c0,.08-.15.18-.44.28s-.39.14-.39.16l-.64,8.62h.5a4.73,4.73,0,0,0,.34-.46c.12-.16.22-.25.3-.25s.27.14.55.41.51.45.51.51-.1.3-.28.3H1.89A5.83,5.83,0,0,0,.34,48l-.28-.78a10.28,10.28,0,0,0,1.84.12h.3l-.14-7.22a9.65,9.65,0,0,0-.37-2.18,2.5,2.5,0,0,1,1,.39,8,8,0,0,0,1-.41,5.56,5.56,0,0,0,1.24-1,7.19,7.19,0,0,1,.81.57.35.35,0,0,1,.19.28s0,0-.14.07A4.73,4.73,0,0,1,5.1,37.75ZM6.28,49.52A22.84,22.84,0,0,1,.71,52.35l-.07-.23q3.95-1.72,5.17-3.66l1,.71c.14.08.21.18.21.28s-.07.11-.21.12Zm3.56-.71q3.7,1.12,4.62,2a1.52,1.52,0,0,1,.55,1,.26.26,0,0,1-.3.27,3.9,3.9,0,0,1-1.06-.76A19,19,0,0,0,9.77,49Z"/><path class="cls-1" d="M.5,64.6a9.79,9.79,0,0,0,1.82.12H7.45a15.32,15.32,0,0,0,.25-2q.71.18,1.24.34c.26.08.39.16.39.23s-.09.17-.27.19-.49.14-.51.25a9.76,9.76,0,0,1-.18,1h5.72a3.34,3.34,0,0,0,.44-.6c.18-.2.31-.3.41-.3s.33.15.67.46.58.58.58.66-.11.3-.34.3h-7a5,5,0,0,0,.85,1.27,7.06,7.06,0,0,0,2.43,1.66,13.06,13.06,0,0,0,4.07,1v.27a1.14,1.14,0,0,0-.94.48c-.1.15-.18.23-.25.23a6,6,0,0,1-1-.23,13.36,13.36,0,0,1-2.16-.9,7,7,0,0,1-3.47-3.81H8.23A6.83,6.83,0,0,1,7.4,67,5.88,5.88,0,0,1,5.17,69a18.86,18.86,0,0,1-4.9,1.59l-.14-.3A17,17,0,0,0,5,68.41a5.24,5.24,0,0,0,1.88-2,6.73,6.73,0,0,0,.46-1.17h-5a5.62,5.62,0,0,0-1.54.14ZM11,54.46l1.27.5c.2.07.3.17.3.3s-.16.18-.48.18-.48,0-.53.11A12.47,12.47,0,0,1,9.88,57.1H13.6c.14-.18.28-.37.41-.57s.28-.28.37-.28.31.15.64.44.57.54.57.6-.12.3-.37.3H8.69v1.89h3.47a4.82,4.82,0,0,0,.44-.51c.14-.18.25-.27.34-.27s.3.15.62.44.53.49.53.55-.12.3-.37.3h-5v2.12h5.4a5.77,5.77,0,0,0,.41-.57q.23-.3.37-.3t.62.46q.57.51.57.62c0,.18-.11.27-.34.27H2.39a5.83,5.83,0,0,0-1.56.14L.57,62a7.69,7.69,0,0,0,1.82.16H7.84V60H4.25a5.81,5.81,0,0,0-1.58.14l-.28-.78a10.41,10.41,0,0,0,1.86.12H7.84V57.59H3a5.59,5.59,0,0,0-1.56.14L1.12,57A9,9,0,0,0,3,57.1H9.44a6.23,6.23,0,0,0,.76-1A6.15,6.15,0,0,0,11,54.46Zm-6,0a7.16,7.16,0,0,1,1.5,1,1.06,1.06,0,0,1,.41.67,1.46,1.46,0,0,1-.07.51.5.5,0,0,1-.35.19c-.19,0-.33-.14-.41-.37a3.87,3.87,0,0,0-.5-1,4.11,4.11,0,0,0-.8-.87Z"/><path class="cls-1" d="M3.75,72.59,4.9,73q.41.14.41.34t-.37.18a1.29,1.29,0,0,0-.41.12,13.88,13.88,0,0,1-1.24,2.67H5.58s.11-.09.27-.28.31-.34.37-.34.3.15.62.46.37.45.37.53-.12.15-.37.27-.25.22-.25.3q0,5.4.07,10.25c0,.08-.1.15-.28.21l-.23.09c-.22,0-.34-.1-.34-.3v-1h-4v.34l.07,1.08c0,.13-.12.22-.35.28a1.7,1.7,0,0,1-.34.05c-.15,0-.23-.11-.23-.34L1,86.75V77.42a7,7,0,0,0-.21-1.77,2.86,2.86,0,0,1,1,.62h1A12.5,12.5,0,0,0,3.75,72.59ZM1.82,80.87h4V76.76h-4Zm0,5h4V81.37h-4ZM9.77,72.68l1.27.39c.22.08.34.19.34.32s-.1.15-.3.18-.52.15-.53.23q-.39,1.27-.76,2.27H14.5l.27-.21a1.1,1.1,0,0,1,.32-.19,1.3,1.3,0,0,1,.66.37q.46.39.46.62s-.12.13-.37.25a1,1,0,0,0-.41.32,74.14,74.14,0,0,1-.69,9.22A3.21,3.21,0,0,1,14,88.22a1.7,1.7,0,0,1-1.08.46s-.12-.11-.23-.32-.9-.64-2.39-1l.07-.27a10.48,10.48,0,0,0,2.81.27.77.77,0,0,0,.48-.12A2.16,2.16,0,0,0,14,86.11q.46-3.63.64-9.54H9.58q-.25.55-.48,1a13.66,13.66,0,0,1-1.89,2.81l-.14-.14A19,19,0,0,0,8.71,77,16.3,16.3,0,0,0,9.77,72.68Zm-.58,6.71a13.22,13.22,0,0,1,2.28,1.81,2.06,2.06,0,0,1,.64,1.17,1.17,1.17,0,0,1-.09.53.51.51,0,0,1-.35.18.43.43,0,0,1-.41-.34,7.5,7.5,0,0,0-.87-1.65A9.41,9.41,0,0,0,9,79.62Z"/><path class="cls-1" d="M6.43,90.64l.94.32q.27.09.27.25t-.27.11a2.37,2.37,0,0,0-.37.11q-.12.35-.25.64H8.41l.21-.16a.65.65,0,0,1,.23-.11c.11,0,.29.13.57.39s.35.4.35.51-.12.09-.35.11a1,1,0,0,0-.42.11A17.39,17.39,0,0,1,7.54,94.7H9l.18-.14a.57.57,0,0,1,.3-.16q.11,0,.48.32t.32.39c0,.06-.1.15-.28.28s-.21.19-.21.28v8.09a1,1,0,0,1-.67.92,2,2,0,0,1-.69.27s-.1-.09-.14-.27-.58-.48-1.54-.66v-.19q1.34.12,2.2.12c.13,0,.19-.16.19-.5v-2.67H5.74c-.07.37-.15.69-.23,1a9.14,9.14,0,0,1-1.19,2.48L4.09,104a11.1,11.1,0,0,0,.9-2.39A17,17,0,0,0,5.31,98q0-1.52-.12-3.4a9.79,9.79,0,0,1-.81.89.34.34,0,0,1,.16.25c0,.09-.08.17-.25.21l-.46.23L2.12,99.5H3.24a3.64,3.64,0,0,1,.27-.32c.08-.12.16-.18.25-.18s.28.12.57.37.34.31.34.41-.11.13-.32.18-.32.1-.32.19A19.38,19.38,0,0,1,3,103.68,4.67,4.67,0,0,0,5,105a19.28,19.28,0,0,0,5.74.55q3.22,0,5.77-.19l.07.19q-.83.19-1,.6a.26.26,0,0,1-.27.18A82.06,82.06,0,0,1,6.69,106a5.87,5.87,0,0,1-1.95-.58,6.25,6.25,0,0,1-1.89-1.54q-.14.27-.28.5A10.2,10.2,0,0,1,.19,107l-.14-.14a11.81,11.81,0,0,0,2.28-3.13,12.76,12.76,0,0,0,1-3.66H1.86l-.25.48a.4.4,0,0,1-.34.16c-.28,0-.43-.08-.44-.23l2.34-4.53H2.39A13.16,13.16,0,0,0,.5,96l-.37-.8a13.2,13.2,0,0,0,2.27.16H3L3.4,95A.67.67,0,0,1,3.61,95a.57.57,0,0,1,.18.09,3.46,3.46,0,0,1,.39.3,7.72,7.72,0,0,0,1.17-1.68A10.18,10.18,0,0,0,6.43,90.64Zm-5.31.44a9,9,0,0,1,1.95,2,1.78,1.78,0,0,1,.18.57,1,1,0,0,1-.16.58.25.25,0,0,1-.25.19.33.33,0,0,1-.3-.21,10.2,10.2,0,0,0-1.49-3ZM6,94.7H7.21a19.66,19.66,0,0,0,1.27-2.12h-2a7.64,7.64,0,0,1-.76,1.26l-.37.51A3.12,3.12,0,0,1,6,94.7Zm-.16,5.58h1.4V97.89H5.95V98A16,16,0,0,1,5.81,100.28Zm.14-2.9H7.21v-2.2H5.95Zm1.89-2.2v2.2H9.12v-2.2Zm0,2.71v2.39H9.12V97.89Zm3.54-1.22q.46.14.92.32c.2.06.3.14.3.25s-.1.09-.28.11a1.66,1.66,0,0,0-.35.11,6.83,6.83,0,0,1-.37.94h1.35v-.94a4.83,4.83,0,0,0-.12-1.33l1.12.21c.25,0,.37.1.37.19s-.14.16-.41.19-.3.15-.3.25v1.42h1l.23-.3c.15-.22.27-.34.34-.34s.23.11.48.32.44.47.44.53a.23.23,0,0,1-.27.27H13.6v2.2h1.56a2.6,2.6,0,0,0,.3-.32.44.44,0,0,1,.27-.16c.07,0,.22.1.44.3s.41.34.41.39q0,.3-.21.3H13.6v3.12c0,.15-.13.26-.39.32L13,105c-.08,0-.12-.09-.12-.28q0-.81.05-1.72v-1.45H11.83a6.35,6.35,0,0,0-1.56.12l-.3-.76a10.41,10.41,0,0,0,1.86.12h1.12v-2.2H11.35l-.19.34A6.82,6.82,0,0,1,10,100.65l-.14-.16A5.62,5.62,0,0,0,10.75,99,9.53,9.53,0,0,0,11.38,96.66Zm-1-5.24a25.63,25.63,0,0,0,3.19.16h1.68l.18-.23c.08-.09.15-.14.19-.14a1,1,0,0,1,.46.27c.26.21.39.36.39.44s-.1.09-.3.14-.21.09-.21.14a12.64,12.64,0,0,1-.67,3.19,2.54,2.54,0,0,1-1.08.8q-.14,0-.23-.41t-1.26-.67v-.27a5.5,5.5,0,0,0,1.49.27,1.25,1.25,0,0,0,.44-.11q.39-.21.67-2.94H13.22a8.82,8.82,0,0,1-1.06,2.67,6.26,6.26,0,0,1-1.89,1.79l-.16-.19a5.3,5.3,0,0,0,1.56-1.72,10.34,10.34,0,0,0,.87-2.55q-1.27,0-1.86.07Z"/><path class="cls-1" d="M.27,113.24a14.79,14.79,0,0,0,2.27.14h.94l.35-.42L4,112.9a.71.71,0,0,1,.19.09,6,6,0,0,1,.57.42.35.35,0,0,1,.16.27c0,.08-.08.15-.25.19l-.44.21-2,3.54H3.54l.25-.37c.07-.13.15-.19.23-.19s.31.14.62.42.39.38.39.51-.11.14-.32.19-.25.11-.25.21a19.7,19.7,0,0,1-1,3A4.77,4.77,0,0,0,5.33,123q1.43.69,5.52.69,3.12,0,5.58-.19l.07.19q-.89.21-1,.66a.25.25,0,0,1-.27.19,65.71,65.71,0,0,1-8.29-.28,4.69,4.69,0,0,1-1.84-.71,6,6,0,0,1-1.79-1.75,9.26,9.26,0,0,1-.48.8A11,11,0,0,1,.12,125L0,124.87a11.75,11.75,0,0,0,2.55-3.12,11.86,11.86,0,0,0,1.13-3.61H1.91l-.23.41a.4.4,0,0,1-.34.16c-.28,0-.43-.08-.44-.23l2.71-4.6H2.53A14.85,14.85,0,0,0,.64,114Zm1.42-4.16a10.25,10.25,0,0,1,1.86,1.4,1.63,1.63,0,0,1,.48.94,1.56,1.56,0,0,1-.09.58.43.43,0,0,1-.32.19.58.58,0,0,1-.51-.44,4.9,4.9,0,0,0-.62-1.29,6.64,6.64,0,0,0-1-1.19Zm12.75,1a29.25,29.25,0,0,1-3,.6q-1.47.21-4.34.44v2.28h7.51L15,113q.3-.48.46-.48T16,113q.57.53.57.64c0,.18-.1.27-.3.27H7.13a16.5,16.5,0,0,1-.46,4.36A9.3,9.3,0,0,1,5,121.45l-.3-.12A10.15,10.15,0,0,0,6,118.14,24,24,0,0,0,6.36,113a19.11,19.11,0,0,0-.21-3,6.58,6.58,0,0,1,1.12.71q1.54-.18,3.43-.58a20.19,20.19,0,0,0,3.47-1,7.85,7.85,0,0,1,1,.64.44.44,0,0,1,.21.34s-.07,0-.19.07A6.53,6.53,0,0,1,14.43,110Zm-6.59,5.68a2.86,2.86,0,0,1,1,.62h4.9s.11-.09.25-.27.28-.28.34-.28.27.13.57.39.34.39.34.46-.12.15-.35.27-.28.22-.28.3q0,2.57.07,4.87c0,.08-.08.15-.23.21l-.18.07q-.37,0-.37-.28v-.9H8.87l.05.9c0,.14-.13.24-.39.3a1.46,1.46,0,0,1-.32.05c-.14,0-.21-.12-.21-.35l.07-1V117.5A6.52,6.52,0,0,0,7.84,115.73Zm1,4.94h5.08v-3.82H8.85Z"/></svg>