<svg id="圖層_1" data-name="圖層 1" xmlns="http://www.w3.org/2000/svg" viewBox="0 0 50 50"><defs><style>.cls-1{fill:#d5b7aa;}</style></defs><title>time</title><path class="cls-1" d="M31.48,7.12s0-.06,0-.09L32,5.33l1.89.52A2,2,0,1,0,35,1.9L28.28.07A2,2,0,1,0,27.2,4l1.84.5-.47,1.71a1.43,1.43,0,0,0,0,.21,21.92,21.92,0,1,0,2.93.69ZM43.29,32.28A18.79,18.79,0,0,1,20.78,46.34l-.5-.14,1.52-5.52-1.53-.42-1.51,5.48a18.62,18.62,0,0,1-3.34-1.56l2.89-4.75-1.36-.82-2.86,4.71a18.75,18.75,0,0,1-2.8-2.46l5-3.93-1-1.24-5,4a18.93,18.93,0,0,1-1.93-3l6.35-2.17L14.17,33l-6.5,2.22a18.75,18.75,0,0,1-1-3.2l7.69-1.52-.31-1.56L6.41,30.43A18.61,18.61,0,0,1,28.35,9.62L23.55,24.56A4,4,0,1,0,28.09,28l7.52-6.12-8.48,3.93a3.94,3.94,0,0,0-.71-.63L28.66,9.68c.19,0,.37.05.56.1A18.79,18.79,0,0,1,43.29,32.28Z"/></svg>