<svg id="圖層_1" data-name="圖層 1" xmlns="http://www.w3.org/2000/svg" viewBox="0 0 50 50"><defs><style>.cls-1{fill:#d5b7aa;}</style></defs><title>water</title><path class="cls-1" d="M26.12,1.89,24.85,0l-1.3,1.87c-.63.91-15.39,22.36-11.64,37.07a15.43,15.43,0,0,0,8.48,10.3,12.63,12.63,0,0,0,4.69.76,10.1,10.1,0,0,0,4.67-.95,16.6,16.6,0,0,0,8.37-10.82C40.31,29.27,36.27,17,26.12,1.89ZM20.73,38.35A2.64,2.64,0,1,1,18.09,41,2.64,2.64,0,0,1,20.73,38.35Zm14.36-.86a13.55,13.55,0,0,1-6.84,8.83c-1.72.94-5.69.52-6.47.14a15.11,15.11,0,0,1-2.48-1.54,4.15,4.15,0,0,0,1.43.27,4.19,4.19,0,1,0,0-8.39,4.15,4.15,0,0,0-1.48.28c-.07-.59-.18-1.68-.26-3.07,0-1.06-.1-2.28-.08-3.59,0-.66,0-1.33,0-2s.07-1.4.1-2.1l.28-2.09.41-2c.34-1.29.65-2.5,1-3.51s.69-1.85.91-2.44L22,15.3l-.14-.07-.47.88c-.29.56-.76,1.34-1.18,2.35a31,31,0,0,0-1.38,3.47l-.58,2-.47,2.14a27.25,27.25,0,0,0-.47,4.32,16,16,0,0,0,.47,3.77,12.06,12.06,0,0,0,1.16,3A4.19,4.19,0,0,0,16.54,41a4.13,4.13,0,0,0,.2,1.22,12.5,12.5,0,0,1-1.81-4c-2.79-10.94,6.43-27,9.9-32.57C33.53,19.07,37,29.79,35.09,37.49Z"/></svg>