<svg id="圖層_1" data-name="圖層 1" xmlns="http://www.w3.org/2000/svg" xmlns:xlink="http://www.w3.org/1999/xlink" viewBox="0 0 46.77 13.54"><defs><style>.cls-1{fill:none;}.cls-2{fill:#786a56;}.cls-3{clip-path:url(#clip-path);}</style><clipPath id="clip-path"><rect class="cls-1" x="-364.47" y="-217.4" width="595.41" height="1062.56"/></clipPath></defs><title>detial</title><path class="cls-2" d="M0,4.92A5.81,5.81,0,0,0,1.21,5H3.27a1.91,1.91,0,0,0,.26-.32q.13-.15.21-.15t.37.25q.34.29.34.35t-.25.2h-3a3.85,3.85,0,0,0-1,.09ZM.55,6.47a6,6,0,0,0,1.22.09H2.91a2.72,2.72,0,0,0,.22-.28q.12-.15.2-.15t.34.25q.32.27.32.32,0,.2-.19.2h-2A3.85,3.85,0,0,0,.74,7Zm0,1.63a6,6,0,0,0,1.22.09H2.91l.22-.27q.12-.15.2-.15T3.67,8q.32.27.32.33a.17.17,0,0,1-.19.19h-2a4.38,4.38,0,0,0-1,.08ZM.69,9.47a2.06,2.06,0,0,1,.61.32H3.08s.07,0,.15-.13a.57.57,0,0,1,.23-.14q.08,0,.37.26t.22.29s-.08.1-.23.19-.19.15-.19.2q0,1.35,0,2.58s-.05.09-.15.13l-.12,0q-.25,0-.25-.18V12.6H1.25l.06.56q0,.14-.23.2l-.19,0q-.15,0-.15-.25l.06-.6v-2A5.15,5.15,0,0,0,.69,9.47ZM1.16,2.8a5.45,5.45,0,0,1,1,.88,1.08,1.08,0,0,1,.28.57.77.77,0,0,1-.06.35.34.34,0,0,1-.23.12.28.28,0,0,1-.27-.22,6.1,6.1,0,0,0-.33-.83A3.77,3.77,0,0,0,1,3Zm.09,9.47H3.18V10.11H1.25ZM8.81,3l.7.21q.22.08.22.21s-.07.07-.21.11a1,1,0,0,0-.26.08A7.75,7.75,0,0,1,8.05,5.24h1.5a4,4,0,0,0,.29-.33q.14-.19.22-.19t.41.29q.35.3.35.37t-.25.18H7.72V7.4H9a4.17,4.17,0,0,0,.27-.35q.15-.16.25-.16t.4.27q.34.32.34.39T10,7.72H7.72V9.84H9.6l.29-.37q.14-.2.22-.2t.42.3q.39.34.39.41t-.25.18h-3v1.5l0,1.5q0,.22-.14.28a.63.63,0,0,1-.32.11q-.15,0-.15-.39l0-1.5v-1.5H5.57a3.85,3.85,0,0,0-1,.09l-.18-.52a5.09,5.09,0,0,0,1.21.11H7.21V7.72h-1a3.44,3.44,0,0,0-1,.11L5,7.3a5.18,5.18,0,0,0,1.21.11h1V5.56H5.86a3.7,3.7,0,0,0-1,.09l-.2-.52a6,6,0,0,0,1.23.09h2A5.11,5.11,0,0,0,8.81,3ZM5.53,3a5.51,5.51,0,0,1,1,.84,1,1,0,0,1,.29.56.67.67,0,0,1-.07.34.29.29,0,0,1-.22.13.33.33,0,0,1-.28-.25,3.87,3.87,0,0,0-.33-.79,6.18,6.18,0,0,0-.55-.71Z"/><path class="cls-2" d="M13,10.25h.28a5.66,5.66,0,0,1-.21,1.84,1.37,1.37,0,0,1-.42.69.64.64,0,0,1-.41.2q-.26,0-.27-.2a.72.72,0,0,1,.25-.4,2.52,2.52,0,0,0,.55-.81A3.67,3.67,0,0,0,13,10.25ZM14.48,2.8l.83.33q.2.07.2.2t-.33.12q-.28,0-.33.07a17,17,0,0,1-1.61,2.66q.8,0,1.95-.08a7.78,7.78,0,0,0,.69-1.37l.59.32q.25.11.25.2t-.27.09a.34.34,0,0,0-.34.2A23.51,23.51,0,0,1,13.36,8.8q1,0,2.46-.2a4.25,4.25,0,0,0-.55-1l.15,0a4.23,4.23,0,0,1,.82.9A1.19,1.19,0,0,1,16.5,9a.53.53,0,0,1-.12.35.26.26,0,0,1-.22.12A.17.17,0,0,1,16,9.33a2,2,0,0,0-.11-.56,17.34,17.34,0,0,1-2.43.45q-.62.06-.69.16l0,0q-.06.18-.14.18s-.09-.05-.14-.15-.17-.47-.23-.69q.54,0,.84,0a17.72,17.72,0,0,0,1.59-1.93,5.81,5.81,0,0,0,.45-.62,14.52,14.52,0,0,1-1.79.3,1.34,1.34,0,0,0-.56.12v0q-.06.2-.14.2s-.08-.05-.12-.15a4.71,4.71,0,0,1-.21-.61q.48,0,.75,0a8.39,8.39,0,0,0,.73-1.31A9.58,9.58,0,0,0,14.48,2.8ZM14.3,10a7,7,0,0,1,.61,1.68,1.18,1.18,0,0,1-.21.73q-.2.26-.3.26t-.2-.22a3.13,3.13,0,0,0,.15-.87,11.31,11.31,0,0,0-.2-1.54Zm1.08-.29a5.29,5.29,0,0,1,.82,1.2,1.91,1.91,0,0,1,.26.73.64.64,0,0,1-.14.43.29.29,0,0,1-.25.13q-.18,0-.18-.22a5.08,5.08,0,0,0-.67-2.21ZM17,3.37a1.64,1.64,0,0,1,.57.32h4.3L22,3.52q.13-.15.16-.15a1,1,0,0,1,.36.22q.25.2.25.29t-.21.18q-.2.13-.2.19V9.79q0,1.32,0,3.19,0,.13-.2.19l-.22,0q-.14,0-.14-.22t0-.52H17.53l0,.6q0,.14-.21.2l-.21,0q-.13,0-.13-.23l0-.6v-8A6.57,6.57,0,0,0,17,3.37Zm.56,4.25h1.88V4H17.53Zm0,4.5h1.88V8H17.53ZM19.92,4v3.6h2V4Zm0,8.1h1.95q0-1,0-2.33V8h-2Z"/><path class="cls-2" d="M25.16,4.87a2,2,0,0,1,.7.41h3.47a11.12,11.12,0,0,1-.14-1.5h-.94a9.26,9.26,0,0,0-1.35.11l-.2-.52a12.65,12.65,0,0,0,1.55.09H29a2,2,0,0,0,.2-.32q.11-.15.18-.15a.75.75,0,0,1,.37.22q.32.23.32.34s-.09.09-.26.16-.29.16-.29.21a6.31,6.31,0,0,0,.14,1.35h3.6l.15-.21q.14-.2.22-.2a1.14,1.14,0,0,1,.4.23q.27.23.27.33s-.08.12-.23.21-.19.17-.19.26v6.66a.78.78,0,0,1-.45.71,1.2,1.2,0,0,1-.45.22q-.08,0-.18-.21t-1.66-.5l0-.19q1.22.09,2,.09.2,0,.2-.36V5.61H29.74q.06.21.13.41a6.68,6.68,0,0,0,1.2,2.23,5.73,5.73,0,0,0,2.11,1.44l0,.2a1.41,1.41,0,0,0-.69.14.64.64,0,0,1-.2.13q-.15,0-.66-.49a8,8,0,0,1-1.25-1.55,6.51,6.51,0,0,1-.71-1.63,9.81,9.81,0,0,1-.84,1.7,5.21,5.21,0,0,1-.95,1.14,7.47,7.47,0,0,1-1.68,1.17l-.09-.25a7,7,0,0,0,1.61-1.42,7.23,7.23,0,0,0,.93-1.38,12.3,12.3,0,0,0,.74-1.84H25.83v7l0,.7q0,.14-.26.2a.75.75,0,0,1-.21,0q-.15,0-.15-.25l.06-.7V6A4.29,4.29,0,0,0,25.16,4.87Z"/><path class="cls-2" d="M41.24,6.13q.46.18.86.37.13.06.13.14t-.16.13l-.35,0a6.74,6.74,0,0,0,2,1.62,14.09,14.09,0,0,0,3.11,1.08v.18a.81.81,0,0,0-.64.2Q46,10,46,10a7.93,7.93,0,0,1-1.93-.9,6.91,6.91,0,0,1-2.53-2.26l0,0A9.75,9.75,0,0,1,39.35,9a11.41,11.41,0,0,1-3.18,1.52l-.09-.14a14.21,14.21,0,0,0,3.41-2.05A8.8,8.8,0,0,0,41.24,6.13ZM37.41,3.94h.32q0,.28,0,.52h7.8a.61.61,0,0,0,.16-.21,1,1,0,0,1,.21-.18,1.15,1.15,0,0,1,.52.32q.36.33.36.45T46.43,5a2,2,0,0,0-.36.08L45,6l-.09-.14a6.86,6.86,0,0,0,.69-1.09H37.69a2.61,2.61,0,0,1-.14.66,1.06,1.06,0,0,1-.36.55.56.56,0,0,1-.34.15q-.32,0-.33-.22t.21-.33A2.07,2.07,0,0,0,37.2,5,2.35,2.35,0,0,0,37.41,3.94Zm2.14,1.25.83.39q.2.12.2.22T40.42,6q-.6,0-.62.09a9.61,9.61,0,0,1-3.06,2l-.09-.19a8.75,8.75,0,0,0,1.87-1.3A4.17,4.17,0,0,0,39.55,5.19Zm-.74,4.28a1.94,1.94,0,0,1,.59.32h4.37s.07-.06.16-.18.17-.19.21-.19.19.09.39.26.22.26.22.3-.07.1-.21.18-.15.14-.15.2q0,1.52,0,2.89,0,.09-.16.15l-.13,0q-.22,0-.22-.2v-.41H39.4l0,.36q0,.14-.23.2l-.19,0q-.14,0-.14-.25l0-.61V10.54A5.77,5.77,0,0,0,38.81,9.47Zm.56,3h4.55v-2.4H39.37Zm1.08-9.76A4.92,4.92,0,0,1,42,3.48a.6.6,0,0,1,.25.46q0,.42-.27.42-.12,0-.34-.3A4,4,0,0,0,40.36,3Zm2.24,2.64a10.7,10.7,0,0,1,2.58,1.49.82.82,0,0,1,.28.53q0,.32-.22.32t-.59-.47A8.93,8.93,0,0,0,42.6,5.53Z"/></svg>