<svg id="圖層_1" data-name="圖層 1" xmlns="http://www.w3.org/2000/svg" xmlns:xlink="http://www.w3.org/1999/xlink" viewBox="0 0 64.84 10.75"><defs><style>.cls-1,.cls-4{fill:none;}.cls-2{clip-path:url(#clip-path);}.cls-3{clip-path:url(#clip-path-2);}.cls-4{stroke:silver;stroke-miterlimit:10;stroke-width:0.97px;}.cls-5{fill:#786a56;}</style><clipPath id="clip-path"><rect class="cls-1" x="-124.55" y="-804.72" width="595.41" height="1062.56"/></clipPath><clipPath id="clip-path-2"><rect class="cls-1" x="-124.55" y="-804.71" width="595.41" height="1062.56"/></clipPath></defs><title>info</title><g class="cls-2"><g class="cls-3"><polyline class="cls-4" points="-93.72 22 -18.99 22 -18.99 -13.36 88.77 -13.36 88.77 22 440.54 22"/></g></g><path class="cls-5" d="M10,3.62q.08,0,.39.27t.37.42q0,.19-.2.19H1.79V5a10.8,10.8,0,0,1-.36,3.45A5.8,5.8,0,0,1,.19,10.55L0,10.45a5.88,5.88,0,0,0,1-2.1A12.85,12.85,0,0,0,1.28,5a4.63,4.63,0,0,0-.15-1.25,4.89,4.89,0,0,1,.73.47H9.47l.21-.27Q9.89,3.62,10,3.62ZM.66,1.36a6,6,0,0,0,1.23.09h7a3.38,3.38,0,0,0,.27-.36q.15-.2.25-.2t.42.3q.36.34.36.41t-.22.19H7.68L7.95,2a.21.21,0,0,1,.12.19L8,2.21l-.37,0a9.89,9.89,0,0,1-1.18.66,8.31,8.31,0,0,1,1.38.52.76.76,0,0,1,.47.47q0,.2-.15.22a.81.81,0,0,1-.42-.16,8.78,8.78,0,0,0-1.5-.7L5.93,3a2.29,2.29,0,0,1-.39.16A17.2,17.2,0,0,1,2.36,4l0-.19A15.23,15.23,0,0,0,5.05,3l.37-.15a21,21,0,0,0-2.33-.56l0-.19a17.65,17.65,0,0,1,2.72.55,12.58,12.58,0,0,0,1.41-.88H1.89a4.2,4.2,0,0,0-1,.08ZM3.76,5l.82.33q.16.06.16.14s-.08.08-.23.11a.62.62,0,0,0-.43.23q-.14.33-.27.6H6a12.28,12.28,0,0,0-.08-1.63l.82.15q.29,0,.29.18t-.29.19q-.22.06-.22.22v.89H8.62l.21-.25q.2-.32.3-.32t.39.29q.37.34.37.41t-.19.2H6.47V8.12H8.31l.27-.34q.15-.18.25-.18t.4.27q.34.32.34.39t-.22.18H6.47v1.65h3l.29-.37q.14-.2.22-.2t.42.3q.39.34.39.41t-.25.18H3a3.85,3.85,0,0,0-1,.09L1.84,10A5.18,5.18,0,0,0,3,10.09H6V8.44H4.45a3.71,3.71,0,0,0-1,.09L3.25,8a5.09,5.09,0,0,0,1.21.11H6V6.71H3.62a5.42,5.42,0,0,1-.48.75A6.61,6.61,0,0,1,1.93,8.68l-.09-.15A6.36,6.36,0,0,0,3,7,9.62,9.62,0,0,0,3.76,5Zm.52-5A6.09,6.09,0,0,1,5.86.55a.44.44,0,0,1,.23.34q0,.39-.22.39T5.52,1A3.84,3.84,0,0,0,4.17.15Z"/><path class="cls-5" d="M18.71,5.53a2.06,2.06,0,0,1,.68.42h2.37l.16-.16q.19-.2.25-.2t.41.3q.26.27.26.35s-.07.1-.22.18-.16.14-.16.2q0,1.92,0,3.66s-.05.09-.16.13l-.16,0q-.22,0-.22-.18V9.71H19.37l0,.69q0,.14-.26.2l-.21,0q-.14,0-.14-.25l0-.69v-3A4.77,4.77,0,0,0,18.71,5.53Zm.66,3.84h2.58V6.29H19.37ZM20.67.52a2,2,0,0,1,.69.42h4.09s.07-.05.18-.16.21-.2.26-.2.19.1.4.3.25.3.25.35-.09.1-.27.18-.2.14-.2.2q0,1.68,0,3.19s-.05.09-.16.13l-.15,0q-.25,0-.25-.18V4.23h-4.2l0,.52q0,.13-.26.19l-.21,0q-.14,0-.14-.22l0-.71V1.7A4.43,4.43,0,0,0,20.67.52Zm.67,3.37h4.21V1.28H21.34Zm2.75,1.64a2.17,2.17,0,0,1,.7.42h2.64l.16-.16q.19-.2.26-.2t.4.3q.25.27.25.35s-.09.1-.27.18-.2.14-.2.2q0,1.95,0,3.69,0,.08-.16.14l-.15,0q-.25,0-.25-.19v-.6H24.76l0,.64q0,.14-.26.19a.62.62,0,0,1-.21.06q-.15,0-.15-.25l.06-.69v-3A4.42,4.42,0,0,0,24.09,5.53Zm.67,3.84h2.75V6.29H24.76Z"/><path class="cls-5" d="M36.95,7.5h.28A5.66,5.66,0,0,1,37,9.34a1.37,1.37,0,0,1-.42.69.64.64,0,0,1-.41.2q-.26,0-.27-.2a.72.72,0,0,1,.25-.4,2.52,2.52,0,0,0,.55-.81A3.67,3.67,0,0,0,36.95,7.5ZM38.4,0l.83.33q.2.07.2.2t-.33.12q-.28,0-.33.07a17,17,0,0,1-1.61,2.66q.8,0,1.95-.08A7.78,7.78,0,0,0,39.81,2l.59.32q.25.11.25.2t-.27.09a.34.34,0,0,0-.34.2A23.51,23.51,0,0,1,37.28,6q1,0,2.46-.2a4.25,4.25,0,0,0-.55-1l.15,0a4.23,4.23,0,0,1,.82.9,1.19,1.19,0,0,1,.26.56.53.53,0,0,1-.12.35.26.26,0,0,1-.22.12.17.17,0,0,1-.18-.19A2,2,0,0,0,39.8,6a17.33,17.33,0,0,1-2.43.45q-.62.06-.69.16l0,0q-.06.18-.14.18s-.09-.05-.14-.15-.17-.47-.23-.69q.54,0,.84,0a17.73,17.73,0,0,0,1.59-1.93A5.81,5.81,0,0,0,39,3.49a14.52,14.52,0,0,1-1.79.3,1.34,1.34,0,0,0-.56.12v0q-.06.2-.14.2s-.08-.05-.12-.15a4.71,4.71,0,0,1-.21-.61q.48,0,.75,0a8.38,8.38,0,0,0,.73-1.31A9.57,9.57,0,0,0,38.4,0Zm-.19,7.23A7,7,0,0,1,38.82,9a1.18,1.18,0,0,1-.21.73q-.2.26-.3.26t-.2-.22a3.13,3.13,0,0,0,.15-.87,11.31,11.31,0,0,0-.2-1.54ZM39.29,7a5.29,5.29,0,0,1,.82,1.2,1.91,1.91,0,0,1,.26.73.64.64,0,0,1-.14.43.29.29,0,0,1-.25.13q-.18,0-.18-.22A5.08,5.08,0,0,0,39.14,7ZM40.89.62a1.64,1.64,0,0,1,.57.32h4.3l.15-.16q.13-.15.16-.15a1,1,0,0,1,.36.22q.25.2.25.29t-.21.18q-.2.13-.2.19V7q0,1.32,0,3.19,0,.13-.2.19l-.22,0q-.14,0-.14-.22t0-.52H41.45l0,.6q0,.14-.21.2l-.21,0q-.13,0-.13-.23l0-.6v-8A6.57,6.57,0,0,0,40.89.62Zm.56,4.25h1.88V1.28H41.45Zm0,4.5h1.88V5.21H41.45Zm2.39-8.1v3.6h2V1.28Zm0,8.1h1.95q0-1,0-2.33V5.21h-2Z"/><path class="cls-5" d="M56.26.11l.68.22q.2.07.2.19s-.07.07-.2.08a1,1,0,0,0-.27.07,6.63,6.63,0,0,1-.43.74h2.09l.2-.25q.21-.32.32-.32t.37.29q.36.34.36.41t-.18.2H57.12q.94.74,1,1.07t-.27.39q-.22,0-.34-.39a2.93,2.93,0,0,0-.66-1.07H56a3.2,3.2,0,0,1-.34.37,6.66,6.66,0,0,1-1.39,1.21l-.15-.08A5.28,5.28,0,0,0,55.34,2,5.54,5.54,0,0,0,56.26.11Zm2.48,3.36q.08,0,.34.25t.27.27-.2.2Q59,4.3,59,4.36V6.21q0,.43,0,1.07,0,.13-.18.19l-.25,0q-.14,0-.14-.22l0-.25H55.69V9.36h.08a25.2,25.2,0,0,0,2.46-.79l0,0a6.17,6.17,0,0,0-.87-.91l.09-.15a8.07,8.07,0,0,1,1.39,1.14,1.31,1.31,0,0,1,.39.74.75.75,0,0,1-.06.33.22.22,0,0,1-.41-.08,6,6,0,0,0-.41-.86,22,22,0,0,1-2.68,1.14q-.67.21-.67.33,0,.27-.08.27t-.25-.26q-.19-.36-.27-.57a5.39,5.39,0,0,0,.84-.15V5.59a19.24,19.24,0,0,0-.11-2.17,1.86,1.86,0,0,1,.69.42h2.6l.14-.19Q58.69,3.47,58.75,3.47Zm-3.06.71v1H58.5v-1Zm0,1.35V6.71h2.8q0-.26,0-.5V5.53Zm5-5.48.71.23q.21.07.21.19s-.07.08-.21.11a1.15,1.15,0,0,0-.3.09,5.84,5.84,0,0,1-.39.74h2.82l.21-.25q.2-.32.3-.32t.39.29q.38.34.37.41a.18.18,0,0,1-.2.2H62q.91.76.93,1.11t-.28.39q-.21,0-.32-.39a3.13,3.13,0,0,0-.63-1.11H60.5a2.54,2.54,0,0,1-.25.29,5.46,5.46,0,0,1-1.2,1.16l-.13-.09a5.13,5.13,0,0,0,1-1.23A5.92,5.92,0,0,0,60.71,0Zm-.53,3.33a2.17,2.17,0,0,1,.7.43h2.4l.14-.16q.14-.18.22-.18t.4.26q.27.21.27.3t-.23.23q-.19.12-.19.23V8.73a.78.78,0,0,1-.42.71,1,1,0,0,1-.43.22s-.08-.07-.13-.22-.5-.39-1.32-.54l0-.18a12,12,0,0,0,1.55.13q.2,0,.2-.37V4.14H60.86V9.81l0,.69q0,.14-.26.2l-.21,0q-.14,0-.14-.25l0-.69V4.55A4.3,4.3,0,0,0,60.19,3.37Z"/></svg>