<svg id="圖層_1" data-name="圖層 1" xmlns="http://www.w3.org/2000/svg" xmlns:xlink="http://www.w3.org/1999/xlink" viewBox="0 0 94.39 8.61"><defs><style>.cls-1{fill:none;}.cls-2{clip-path:url(#clip-path);}.cls-3{fill:#786a56;}</style><clipPath id="clip-path"><rect class="cls-1" x="-33.25" y="-184.98" width="595.41" height="867.61"/></clipPath></defs><title>tit_eng</title><path class="cls-3" d="M4.49,2q0,1.86-2.59,1.86H1.14V6.17q0,.6.68.63v.24H0V6.81q.68-.07.68-.63V1Q.68.4,0,.39V.15H2.13A2.92,2.92,0,0,1,3.77.57,1.61,1.61,0,0,1,4.49,2ZM4,2A1.39,1.39,0,0,0,3.28.7,2.4,2.4,0,0,0,2,.39a1.67,1.67,0,0,0-.6.07A.52.52,0,0,0,1.14,1V3.59h.64a2.83,2.83,0,0,0,1.45-.33A1.37,1.37,0,0,0,4,2Z"/><path class="cls-3" d="M8.76,2.79a.25.25,0,0,1-.1.19.27.27,0,0,1-.21.1.36.36,0,0,1-.3-.2.38.38,0,0,0-.31-.18q-.59,0-1.05,1.41v2.2a.55.55,0,0,0,.16.46,1,1,0,0,0,.47.08v.2H5.73v-.2a.92.92,0,0,0,.45-.08.52.52,0,0,0,.19-.46v-3q0-.34-.18-.43a1.29,1.29,0,0,0-.46,0v-.2a2.23,2.23,0,0,0,1.05-.38V3.58q.61-1.31,1.37-1.31a.6.6,0,0,1,.41.16A.47.47,0,0,1,8.76,2.79Z"/><path class="cls-3" d="M14.18,4.74a2.94,2.94,0,0,1-.49,1.72,1.65,1.65,0,0,1-1.44.77,1.68,1.68,0,0,1-1.45-.77,2.89,2.89,0,0,1-.49-1.71A2.91,2.91,0,0,1,10.81,3a1.67,1.67,0,0,1,1.45-.78A1.65,1.65,0,0,1,13.69,3,2.91,2.91,0,0,1,14.18,4.74Zm-.47,0a3.39,3.39,0,0,0-.29-1.51,1.26,1.26,0,0,0-2.32,0,3.57,3.57,0,0,0-.28,1.51,3.43,3.43,0,0,0,.28,1.49,1.27,1.27,0,0,0,2.32,0A3.4,3.4,0,0,0,13.71,4.74Z"/><path class="cls-3" d="M19.29,7.05h-1V6.66a1.57,1.57,0,0,1-1.11.57,1.76,1.76,0,0,1-1.43-.64,2.54,2.54,0,0,1-.53-1.68,3.22,3.22,0,0,1,.5-1.84,1.58,1.58,0,0,1,1.37-.81,1.42,1.42,0,0,1,1.2.61V1A.32.32,0,0,0,18,.61a1.67,1.67,0,0,0-.46,0V.36A2,2,0,0,0,18.69,0V6.38q0,.45.6.48Zm-1-.75V3.17a1.48,1.48,0,0,0-1.18-.67A1.18,1.18,0,0,0,16,3.27a3.65,3.65,0,0,0-.31,1.6,2.55,2.55,0,0,0,.42,1.53A1.37,1.37,0,0,0,17.25,7,1.31,1.31,0,0,0,18.27,6.3Z"/><path class="cls-3" d="M24.34,7.12h-.91V6.39a1.74,1.74,0,0,1-1.48.84,1.23,1.23,0,0,1-.9-.34,1.33,1.33,0,0,1-.35-1V3.3a.53.53,0,0,0-.11-.39.73.73,0,0,0-.43-.09V2.6a2.24,2.24,0,0,0,1-.31V5.91a1,1,0,0,0,.27.73.87.87,0,0,0,.66.28,1.56,1.56,0,0,0,1.38-.84V3.31q0-.32-.12-.41a1,1,0,0,0-.48-.08V2.6a2.44,2.44,0,0,0,1-.31V6.45c0,.21,0,.34.09.39a.64.64,0,0,0,.39.08Z"/><path class="cls-3" d="M29.17,5.87a2.18,2.18,0,0,1-1.86,1.36,1.73,1.73,0,0,1-1.49-.74,2.89,2.89,0,0,1-.5-1.75A2.72,2.72,0,0,1,25.86,3a1.87,1.87,0,0,1,1.57-.77,2.2,2.2,0,0,1,1.11.3.88.88,0,0,1,.52.72q0,.37-.3.37a.26.26,0,0,1-.26-.21q0-.16-.11-.44a.85.85,0,0,0-.3-.33,1.09,1.09,0,0,0-.65-.21,1.44,1.44,0,0,0-1.26.72A2.64,2.64,0,0,0,25.8,4.6a3,3,0,0,0,.38,1.62,1.47,1.47,0,0,0,1.32.69q.81,0,1.52-1.15Z"/><path class="cls-3" d="M33.63,6.4a1.41,1.41,0,0,1-1.15.83q-.68,0-.68-1.08V2.48h-.94V2.27a1,1,0,0,0,1-.58A3.41,3.41,0,0,0,32,.41h.23V2.27h1.2v.21h-1.2V6.14a1.36,1.36,0,0,0,.07.52.38.38,0,0,0,.38.21q.4,0,.85-.59Z"/><path class="cls-3" d="M44.29,7.05h-1V6.66a1.57,1.57,0,0,1-1.11.57,1.76,1.76,0,0,1-1.43-.64,2.54,2.54,0,0,1-.53-1.68,3.22,3.22,0,0,1,.5-1.84,1.58,1.58,0,0,1,1.37-.81,1.42,1.42,0,0,1,1.2.61V1A.32.32,0,0,0,43,.61a1.67,1.67,0,0,0-.46,0V.36A2,2,0,0,0,43.69,0V6.38q0,.45.6.48Zm-1-.75V3.17a1.48,1.48,0,0,0-1.18-.67A1.18,1.18,0,0,0,41,3.27a3.65,3.65,0,0,0-.31,1.6,2.55,2.55,0,0,0,.42,1.53A1.37,1.37,0,0,0,42.25,7,1.31,1.31,0,0,0,43.27,6.3Z"/><path class="cls-3" d="M49.13,4.31H45.88a5.63,5.63,0,0,0,0,.59,2.22,2.22,0,0,0,.39,1.36,1.37,1.37,0,0,0,1.18.61,1.57,1.57,0,0,0,.85-.29A2.84,2.84,0,0,0,49,5.91l.15.11A2.24,2.24,0,0,1,47.2,7.23a1.59,1.59,0,0,1-1.33-.71,2.64,2.64,0,0,1-.51-1.62,3.21,3.21,0,0,1,.48-1.83,1.62,1.62,0,0,1,1.45-.82Q48.88,2.25,49.13,4.31Zm-.51-.21A2.05,2.05,0,0,0,48.31,3a1.16,1.16,0,0,0-1-.53,1.18,1.18,0,0,0-1,.56,2.26,2.26,0,0,0-.42,1Z"/><path class="cls-3" d="M54,6a1.14,1.14,0,0,1-.5,1,1.66,1.66,0,0,1-1,.3A1.92,1.92,0,0,1,52,7.12a1.86,1.86,0,0,0-.48-.1.67.67,0,0,0-.46.19l-.61-1.56.18-.07A2.15,2.15,0,0,0,52.58,7a1.13,1.13,0,0,0,.73-.27.79.79,0,0,0,.33-.63,1,1,0,0,0-.74-1L51.58,4.6q-.95-.31-.95-1.08a1.13,1.13,0,0,1,.44-.93,1.65,1.65,0,0,1,1.06-.35,1.73,1.73,0,0,1,.64.17l.41.17a.48.48,0,0,0,.3-.19L54,3.61l-.17.09Q53,2.48,52.16,2.48a1.13,1.13,0,0,0-.75.27.84.84,0,0,0-.33.67q0,.58.88.87l.93.29A1.41,1.41,0,0,1,54,6Z"/><path class="cls-3" d="M59.17,5.87a2.18,2.18,0,0,1-1.86,1.36,1.73,1.73,0,0,1-1.49-.74,2.89,2.89,0,0,1-.5-1.75A2.72,2.72,0,0,1,55.86,3a1.87,1.87,0,0,1,1.57-.77,2.2,2.2,0,0,1,1.11.3.88.88,0,0,1,.52.72q0,.37-.3.37a.26.26,0,0,1-.26-.21q0-.16-.11-.44a.85.85,0,0,0-.3-.33,1.09,1.09,0,0,0-.65-.21,1.44,1.44,0,0,0-1.26.72A2.64,2.64,0,0,0,55.8,4.6a3,3,0,0,0,.38,1.62,1.47,1.47,0,0,0,1.32.69q.81,0,1.52-1.15Z"/><path class="cls-3" d="M63.76,2.79a.25.25,0,0,1-.1.19.27.27,0,0,1-.21.1.36.36,0,0,1-.3-.2.38.38,0,0,0-.31-.18q-.59,0-1.05,1.41v2.2a.55.55,0,0,0,.16.46,1,1,0,0,0,.47.08v.2H60.73v-.2a.92.92,0,0,0,.45-.08.52.52,0,0,0,.19-.46v-3q0-.34-.18-.43a1.29,1.29,0,0,0-.46,0v-.2a2.23,2.23,0,0,0,1.05-.38V3.58q.61-1.31,1.37-1.31a.6.6,0,0,1,.41.16A.47.47,0,0,1,63.76,2.79Z"/><path class="cls-3" d="M68.14,7.05h-1.8v-.2q.68,0,.68-.54v-3q0-.33-.13-.42a1.16,1.16,0,0,0-.49-.06V2.66A1.1,1.1,0,0,0,67,2.52l.5-.24v4a.5.5,0,0,0,.18.45,1.06,1.06,0,0,0,.51.09ZM67.72.65a.51.51,0,0,1-.15.36.5.5,0,0,1-.35.15A.49.49,0,0,1,66.87,1a.53.53,0,0,1-.14-.36A.48.48,0,0,1,66.87.3a.49.49,0,0,1,.36-.15.5.5,0,0,1,.35.15A.46.46,0,0,1,67.72.65Z"/><path class="cls-3" d="M74.33,4.71a3.12,3.12,0,0,1-.46,1.73,1.54,1.54,0,0,1-2.59.14v1.3a.46.46,0,0,0,.21.46A1.3,1.3,0,0,0,72,8.4v.21h-1.8V8.4q.7,0,.7-.53V3.29q0-.3-.16-.39a1,1,0,0,0-.43-.06v-.2a2.26,2.26,0,0,0,1-.38V3a1.69,1.69,0,0,1,1.33-.72A1.46,1.46,0,0,1,73.92,3,3.2,3.2,0,0,1,74.33,4.71Zm-.47.1a3.52,3.52,0,0,0-.3-1.54,1.17,1.17,0,0,0-1.07-.77,1.47,1.47,0,0,0-1.2.79V6.23a1.44,1.44,0,0,0,.49.53,1.14,1.14,0,0,0,.61.21,1.24,1.24,0,0,0,1.09-.67A2.73,2.73,0,0,0,73.86,4.8Z"/><path class="cls-3" d="M78.63,6.4a1.41,1.41,0,0,1-1.15.83q-.68,0-.68-1.08V2.48h-.94V2.27a1,1,0,0,0,1-.58A3.41,3.41,0,0,0,77,.41h.23V2.27h1.2v.21h-1.2V6.14a1.36,1.36,0,0,0,.07.52.38.38,0,0,0,.38.21q.4,0,.85-.59Z"/><path class="cls-3" d="M83.14,7.05h-1.8v-.2q.68,0,.68-.54v-3q0-.33-.13-.42a1.16,1.16,0,0,0-.49-.06V2.66A1.1,1.1,0,0,0,82,2.52l.5-.24v4a.5.5,0,0,0,.18.45,1.06,1.06,0,0,0,.51.09ZM82.72.65a.51.51,0,0,1-.15.36.5.5,0,0,1-.35.15A.49.49,0,0,1,81.87,1a.53.53,0,0,1-.14-.36A.48.48,0,0,1,81.87.3a.49.49,0,0,1,.36-.15.5.5,0,0,1,.35.15A.46.46,0,0,1,82.72.65Z"/><path class="cls-3" d="M89.18,4.74a2.94,2.94,0,0,1-.49,1.72,1.65,1.65,0,0,1-1.44.77,1.68,1.68,0,0,1-1.45-.77,2.89,2.89,0,0,1-.49-1.71A2.91,2.91,0,0,1,85.81,3a1.67,1.67,0,0,1,1.45-.78A1.65,1.65,0,0,1,88.69,3,2.91,2.91,0,0,1,89.18,4.74Zm-.47,0a3.39,3.39,0,0,0-.29-1.51,1.26,1.26,0,0,0-2.32,0,3.57,3.57,0,0,0-.28,1.51,3.43,3.43,0,0,0,.28,1.49,1.27,1.27,0,0,0,2.32,0A3.4,3.4,0,0,0,88.71,4.74Z"/><path class="cls-3" d="M94.39,7H93V6.84q.51,0,.51-.43V3.7a1.29,1.29,0,0,0-.29-.84.88.88,0,0,0-.73-.37,1.24,1.24,0,0,0-.75.33,2.07,2.07,0,0,0-.62.8V6.41q0,.41.51.43V7H90.13V6.84q.53,0,.53-.43V3.19q0-.34-.56-.34V2.64a1.78,1.78,0,0,0,1-.37v1a1.86,1.86,0,0,1,1.52-1,1.2,1.2,0,0,1,.92.4,1.37,1.37,0,0,1,.37,1V6.41q0,.41.52.43Z"/></svg>