<svg id="圖層_1" data-name="圖層 1" xmlns="http://www.w3.org/2000/svg" xmlns:xlink="http://www.w3.org/1999/xlink" viewBox="0 0 54.7 12.54"><defs><style>.cls-1{fill:none;}.cls-2{clip-path:url(#clip-path);}.cls-3{fill:#786a56;}</style><clipPath id="clip-path"><rect class="cls-1" x="-33.64" y="-165.41" width="595.41" height="867.61"/></clipPath></defs><title>title</title><path class="cls-3" d="M11.65,4.22q.1,0,.45.31t.44.49q0,.22-.23.22H2.09V5.8a12.6,12.6,0,0,1-.42,4A6.77,6.77,0,0,1,.22,12.3L0,12.2A6.86,6.86,0,0,0,1.15,9.75a15,15,0,0,0,.34-4,5.42,5.42,0,0,0-.18-1.46,5.77,5.77,0,0,1,.85.55H11l.25-.31Q11.54,4.23,11.65,4.22ZM.77,1.59A6.94,6.94,0,0,0,2.2,1.7h8.15a3.92,3.92,0,0,0,.31-.42Q10.84,1,11,1t.49.36q.42.4.42.48c0,.15-.09.22-.26.22H9l.31.22a.25.25,0,0,1,.14.22l-.11.05-.44-.05a11.53,11.53,0,0,1-1.38.77,9.71,9.71,0,0,1,1.61.6.89.89,0,0,1,.55.55q0,.23-.18.26A.94.94,0,0,1,9,4.51a10.25,10.25,0,0,0-1.75-.82l-.3-.14a2.67,2.67,0,0,1-.45.19,20.07,20.07,0,0,1-3.72,1l-.05-.22a17.77,17.77,0,0,0,3.2-1l.44-.18a24.63,24.63,0,0,0-2.72-.66l.05-.22a20.65,20.65,0,0,1,3.17.64,14.63,14.63,0,0,0,1.64-1H2.2a4.92,4.92,0,0,0-1.2.1ZM4.39,5.8l1,.38c.13,0,.19.1.19.16s-.09.1-.27.12a.72.72,0,0,0-.51.27q-.16.38-.31.7h2.5a14.39,14.39,0,0,0-.1-1.9l1,.18q.34.05.34.21t-.34.22q-.26.07-.26.26v1h2.52l.25-.29q.23-.37.36-.37t.45.34q.44.4.44.48c0,.16-.07.23-.22.23H7.55V9.47H9.69q.16-.19.31-.4t.29-.21.46.31q.4.37.4.45c0,.14-.09.21-.26.21H7.55v1.93H11.1l.34-.44q.16-.23.26-.23t.49.36q.45.4.45.48t-.29.21H3.55a4.48,4.48,0,0,0-1.2.11l-.21-.6a6,6,0,0,0,1.41.12H6.95V9.84H5.2A4.33,4.33,0,0,0,4,10l-.22-.6a5.94,5.94,0,0,0,1.41.12H6.95V7.83H4.22a6.35,6.35,0,0,1-.56.87,7.71,7.71,0,0,1-1.41,1.42L2.15,10A7.43,7.43,0,0,0,3.5,8.12,11.23,11.23,0,0,0,4.39,5.8ZM5,0A7.13,7.13,0,0,1,6.84.64a.52.52,0,0,1,.27.4c0,.3-.09.45-.26.45s-.24-.1-.41-.29a4.49,4.49,0,0,0-1.57-1Z"/><path class="cls-3" d="M14.83,6.45a2.41,2.41,0,0,1,.79.49h2.76l.19-.19q.22-.23.29-.23t.48.36q.3.31.3.41s-.09.11-.26.21-.19.17-.19.23q0,2.24.05,4.27c0,.05-.06.1-.19.15l-.19.05q-.26,0-.26-.21v-.66h-3l.05.81c0,.11-.1.19-.3.23a1,1,0,0,1-.25.05q-.16,0-.16-.29l.05-.81V7.83A5.57,5.57,0,0,0,14.83,6.45Zm.77,4.48h3V7.34h-3ZM17.12.6a2.38,2.38,0,0,1,.81.49H22.7S22.78,1,22.9.9s.25-.23.3-.23.22.12.46.36.29.35.29.41-.11.11-.31.21-.23.17-.23.23q0,2,.05,3.72,0,.08-.19.15l-.18.05q-.29,0-.29-.21V4.94H17.91l0,.6c0,.1-.1.17-.3.22l-.25,0q-.16,0-.16-.26l.05-.83V2A5.18,5.18,0,0,0,17.12.6Zm.78,3.94H22.8v-3H17.9Zm3.21,1.91a2.52,2.52,0,0,1,.82.49H25l.19-.19q.22-.23.3-.23t.46.36q.29.31.29.41s-.11.11-.31.21-.23.17-.23.23q0,2.27.05,4.31c0,.06-.06.12-.19.16l-.18.05c-.19,0-.29-.07-.29-.22v-.7H21.89l.05.75q0,.16-.3.22a.73.73,0,0,1-.25.07q-.18,0-.18-.29l.07-.81V7.83A5.18,5.18,0,0,0,21.11,6.45Zm.78,4.48H25.1V7.34H21.89Z"/><path class="cls-3" d="M32.61,1.87l.1.16a18.63,18.63,0,0,1-2.91,2.34q-.68.4-.68.62c0,.21,0,.31-.11.31s-.2-.1-.29-.3l-.31-.67a5.83,5.83,0,0,0,1.44-.57A18.28,18.28,0,0,0,32.61,1.87Zm.33,9.41a20.38,20.38,0,0,1-4.17,1.26l-.11-.16a9.17,9.17,0,0,0,4-1.82l.89.4c.15.06.22.14.22.22s-.07.1-.22.11ZM29.26.49a5.05,5.05,0,0,1,1.71,1,.88.88,0,0,1,.27.62q0,.38-.29.38-.12,0-.36-.38A4.66,4.66,0,0,0,29.15.67ZM30.69,5a2.79,2.79,0,0,1,.81.51h5.91s.09-.06.21-.19.24-.2.29-.2.23.13.48.38.29.33.29.4-.09.12-.27.22-.21.15-.21.21q0,2.19.05,4.16c0,.07-.07.13-.22.18l-.16.05c-.18,0-.27-.08-.27-.23v-.22H31.47l0,.34q0,.15-.27.22l-.27,0c-.1,0-.15-.09-.15-.26l.05-.83V6.4A5.4,5.4,0,0,0,30.69,5Zm.75,1.86h6.14v-1H31.45Zm0,1.44h6.14v-1H31.45Zm0,1.57h6.14V8.7H31.45ZM35.71,2l.67.27q.27.1.27.16c0,.06-.06.1-.18.12s-.35,0-.36.08a5.71,5.71,0,0,0,1.7,1.56,12.21,12.21,0,0,0,2.72,1v.23a.92.92,0,0,0-.67.18q-.1.14-.16.14a6.77,6.77,0,0,1-1.64-.86A6.46,6.46,0,0,1,36,2.82a7,7,0,0,1-1.75,1.63,8.83,8.83,0,0,1-2.32.93l-.05-.18a7.9,7.9,0,0,0,2.5-1.35A5.54,5.54,0,0,0,35.71,2ZM34.14,0,35,.37c.11.05.16.11.16.18s-.08.09-.23.12-.42.11-.48.22-.24.45-.36.64H39a2.05,2.05,0,0,0,.27-.23.4.4,0,0,1,.16-.1q.21,0,.56.36t.36.53T40,2.2a1,1,0,0,0-.38.1,7.38,7.38,0,0,1-1.26.89l-.23-.11q.59-.64,1-1.15H33.85a3.5,3.5,0,0,1-.38.49A6,6,0,0,1,32.21,3.5l-.05-.16a6,6,0,0,0,1.2-1.46A8.66,8.66,0,0,0,34.14,0Zm1.31,10.68a13.85,13.85,0,0,1,3.43,1,.77.77,0,0,1,.38.51q0,.29-.26.29a2.93,2.93,0,0,1-.78-.41,16,16,0,0,0-2.83-1.19Z"/><path class="cls-3" d="M41.9,2.3a6,6,0,0,0,1.41.12H46a3.76,3.76,0,0,0,.3-.37c.11-.12.2-.18.26-.18s.21.1.42.29.38.38.38.42-.09.21-.26.21H43.31a4.5,4.5,0,0,0-1.2.11Zm.55,1.87a6.75,6.75,0,0,0,1.41.11H45.5q.15-.16.27-.33c.1-.11.18-.16.23-.16s.19.09.4.27.36.34.36.38a.18.18,0,0,1-.21.21H43.86a4,4,0,0,0-1.2.12ZM42.51,6a6.75,6.75,0,0,0,1.41.11H45.5a2.37,2.37,0,0,0,.27-.33c.1-.12.18-.18.23-.18s.19.1.4.29.36.33.36.37-.07.23-.21.23H43.91a4.5,4.5,0,0,0-1.2.11Zm.15,1.57a3.21,3.21,0,0,1,.77.44h2.24l.19-.19c.1-.12.16-.18.19-.18a1.11,1.11,0,0,1,.42.27q.29.22.29.33t-.21.22q-.22.14-.22.21v2.13q0,.49.05,1.2c0,.11-.08.19-.23.23l-.26,0q-.18,0-.18-.27a4.12,4.12,0,0,0,.05-.7H43.44l.05.75c0,.11-.1.18-.3.22a.73.73,0,0,1-.25.07q-.18,0-.18-.29l.07-.81V9A5.18,5.18,0,0,0,42.66,7.6Zm.78,3.34h2.35V8.44H43.44ZM43.7,0a6.39,6.39,0,0,1,1.16,1,1.26,1.26,0,0,1,.33.67.77.77,0,0,1-.08.41.34.34,0,0,1-.25.14A.36.36,0,0,1,44.52,2a6.35,6.35,0,0,0-.37-1,5.48,5.48,0,0,0-.6-.83Zm3.4,5.8a6,6,0,0,0,1.41.12h.66V3.55q0-.78-.05-1.31l1,.21c.08,0,.12.08.12.14s-.08.12-.25.16-.19.11-.19.21v3h1a3.76,3.76,0,0,0,.3-.37c.11-.12.19-.18.25-.18s.22.1.44.29.4.38.4.42-.1.21-.29.21H49.77v5.59q0,.11-.25.16a1.14,1.14,0,0,1-.3,0c-.07,0-.11-.1-.11-.31q0-.77.05-1.64V6.29h-.66a4.5,4.5,0,0,0-1.2.11Zm.05-4.7a7.91,7.91,0,0,0,2,.18h3L52.39.9q.08-.12.16-.12A1.12,1.12,0,0,1,53,1q.37.3.37.46s-.09.1-.26.21-.29.22-.29.34q0,1.75.05,3.16a14.39,14.39,0,0,0,.6,4.54q.31,1.15.49,1.15s.12-.23.22-.7.18-1,.26-1.6h.23A23.13,23.13,0,0,0,54.47,11a1.4,1.4,0,0,0,.11.62,1,1,0,0,1,.12.38c0,.17-.05.26-.16.26s-.46-.16-.75-.49a6.27,6.27,0,0,1-.89-2,15.09,15.09,0,0,1-.55-4.53q-.05-1.28-.05-3.55H49.11a10.52,10.52,0,0,0-1.75.11Z"/></svg>